<?xml version="1.0" encoding="UTF-8" standalone="no"?>
<svg
   xmlns:dc="http://purl.org/dc/elements/1.1/"
   xmlns:cc="http://creativecommons.org/ns#"
   xmlns:rdf="http://www.w3.org/1999/02/22-rdf-syntax-ns#"
   xmlns:svg="http://www.w3.org/2000/svg"
   xmlns="http://www.w3.org/2000/svg"
   xmlns:sodipodi="http://sodipodi.sourceforge.net/DTD/sodipodi-0.dtd"
   xmlns:inkscape="http://www.inkscape.org/namespaces/inkscape"
   version="1.1"
   id="svg2"
   xml:space="preserve"
   width="1122.52"
   height="1122.52"
   viewBox="0 0 1122.52 1122.52"
   sodipodi:docname="3121.eps"><metadata
     id="metadata8"><rdf:RDF><cc:Work
         rdf:about=""><dc:format>image/svg+xml</dc:format><dc:type
           rdf:resource="http://purl.org/dc/dcmitype/StillImage" /></cc:Work></rdf:RDF></metadata><defs
     id="defs6" /><sodipodi:namedview
     pagecolor="#ffffff"
     bordercolor="#666666"
     borderopacity="1"
     objecttolerance="10"
     gridtolerance="10"
     guidetolerance="10"
     inkscape:pageopacity="0"
     inkscape:pageshadow="2"
     inkscape:window-width="640"
     inkscape:window-height="480"
     id="namedview4" /><g
     id="g10"
     inkscape:groupmode="layer"
     inkscape:label="ink_ext_XXXXXX"
     transform="matrix(1.3333333,0,0,-1.3333333,0,1122.52)"><g
       id="g12"
       transform="scale(0.1)"><path
         d="M 0,0 H 8428.39 V 8418.9 H 0 Z"
         style="fill:#259188;fill-opacity:1;fill-rule:nonzero;stroke:none"
         id="path14" /><path
         d="m 2091.12,724.813 c -61.58,0 -139.54,35.917 -206.89,108.867 -68.77,74.55 -241.77,105.121 -540,150.011 -56.4,8.43 -246.32,30.079 -209,105.239 16.84,33.91 103.25,64.06 382.44,64.06 28.96,0 60.01,-0.33 93.26,-1 280.82,-5.77 538.47,-95.91 598.3,-253.299 35.28,-92.812 35,-140 -85,-170.011 -10.32,-2.578 -21.42,-3.867 -33.11,-3.867"
         style="fill:#1c6c65;fill-opacity:1;fill-rule:nonzero;stroke:none"
         id="path16" /><path
         d="m 855.938,2781.26 c 0,0 -58.793,28.15 -72.208,31.01 -33.98,7.23 -76.253,-12.15 -112.382,-2.7 -16.25,4.26 -31.899,12.63 -31.899,12.63 0,0 -23.582,-24.48 1.707,-41.84 34.625,-23.84 65.492,-13.34 65.492,-13.34 0,0 -69.363,-52.81 -113.39,-69.25 -36.731,-13.71 -40.57,-4.67 -49.164,-13.19 -8.567,-8.48 -8.133,-34.74 7.922,-47.61 30.566,-24.51 82.769,-34.13 134.3,-14.35 51.52,19.75 112.235,64.61 112.235,64.61 l 75.418,8.67 -18.031,85.36"
         style="fill:#f2c8a5;fill-opacity:1;fill-rule:nonzero;stroke:none"
         id="path18" /><path
         d="m 2243.93,1446.86 c 0,0 -33.93,57.03 -303.93,47.03 -130.29,-4.82 -260,20 -450,40 -115.38,12.15 -2.52,-73.09 -2.52,-73.09 l -65.55,935.61 105.01,822.56 406.14,-50.52 310.85,-1721.59"
         style="fill:#b0b4b5;fill-opacity:1;fill-rule:nonzero;stroke:none"
         id="path20" /><path
         d="m 2396.03,2321.9 -24.19,-8 -19.38,-59.46 14.31,-48.55 c 0,0 4.49,-13.02 -1.79,-31.71 -2.45,-7.2 -6.87,-19.84 -6.87,-19.84 0,0 5.85,-50.62 38.17,-33.97 10.45,5.37 16.66,16.68 16.66,16.68 14.47,5.19 37.87,17.15 53.63,23.93 36.46,15.89 18.43,64.52 18.43,64.52 l -13.33,48.79 c -7.3,27.45 -31.24,53.74 -75.64,47.61"
         style="fill:#e8c5ac;fill-opacity:1;fill-rule:nonzero;stroke:none"
         id="path22" /><path
         d="m 2422.24,2374.98 7.05,-77.19 -86.86,-20.24 -9.63,48.92 89.44,48.51"
         style="fill:#e8c5ac;fill-opacity:1;fill-rule:nonzero;stroke:none"
         id="path24" /><path
         d="m 2402.31,2278.69 c 7.13,-24.43 -17.54,-50.69 -37.36,-57.57 -6.9,-2.47 6.98,-72.91 -29.43,-73.44 0,0 -4.6,15.93 -11.86,44.18 -0.56,2.23 -10.66,24.89 -2.67,46.2 21.36,56.39 22.74,66.16 42.56,73.06 19.79,6.92 31.51,-8.06 38.76,-32.43"
         style="fill:#e8c5ac;fill-opacity:1;fill-rule:nonzero;stroke:none"
         id="path26" /><path
         d="m 802.566,2726 c 6.664,-26.93 3.485,-41.56 3.485,-41.56 0,0 14.336,-25.19 33.246,-24.08 98.43,5.53 311.493,-10 471.763,47.24 97.17,34.82 293.21,312.21 293.21,312.21 0,0 49.2,25.04 -5.63,129.67 -40.29,76.56 -89.89,134.41 -152.39,75.66 -39.85,-37.46 -190.51,-304.13 -242.89,-332.73 -101.21,-55.35 -390.727,-80.78 -390.727,-80.78 0,0 -29.906,-5 -10.067,-85.63"
         style="fill:#c1c7c9;fill-opacity:1;fill-rule:nonzero;stroke:none"
         id="path28" /><path
         d="m 1904.1,1000.46 c 0,0 -14.2,-32.23 5.04,-80.98 0,0 23.28,-18.078 26.95,-21.808 21.72,-21.692 93.74,-135.801 158.45,-138.723 70.58,-3.219 74.89,51.992 67.14,86.223 -3.87,17.379 -85.91,203.788 -85.91,203.788 l -171.67,-48.5"
         style="fill:#282827;fill-opacity:1;fill-rule:nonzero;stroke:none"
         id="path30" /><path
         d="m 1424.73,1251.7 c 0,0 -30.22,-56.45 -52.04,-66.27 -45.36,-20.41 -176.24,-59.48 -188.37,-63.92 -8.04,-2.87 -21.41,-12.83 -21.03,-27.5 0.16,-5.84 0.43,-9.47 4.06,-14.76 12.94,-18.67 39.86,-25.64 64.4,-31.59 66.82,-16.17 263.16,26.74 269.29,31.52 0,0 20.06,4.26 24.95,-5.61 1.78,-3.55 0.72,-17.35 1.11,-17.55 l 70.75,23.36 c 3.52,1.73 10.74,35.58 12.59,50.63 l -2.78,97.43 -182.93,24.26"
         style="fill:#231f20;fill-opacity:1;fill-rule:nonzero;stroke:none"
         id="path32" /><path
         d="m 1167.03,1087.36 c 16.86,-21.3 42.18,-29.19 66.88,-34.23 80.66,-16.27 269.32,29.51 269.32,29.51 16.15,2.1 22.85,-3.57 23.96,-13.14 l -0.09,-13.48 -22.23,14.9 c 0,0 -177.22,-45.31 -256.62,-36.61 -25.02,2.91 -67.3,17.82 -81.97,40.9 -2.59,4.04 -5.55,14 -2.51,20.92 0.39,-1.19 2.5,-7.75 3.26,-8.77"
         style="fill:#282827;fill-opacity:1;fill-rule:nonzero;stroke:none"
         id="path34" /><path
         d="m 1421.93,2396.41 -24.37,-1155.08 c -1.26,-38.53 -24.79,-49.9 -23.99,-54.44 11.53,-64.92 222.46,-83.86 243.49,-34.67 l 78.45,1240.59 -273.58,3.6"
         style="fill:#141413;fill-opacity:1;fill-rule:nonzero;stroke:none"
         id="path36" /><path
         d="m 1605.7,2392.81 26.78,-326.67 252.29,-1064.58 c 2.96,-22.759 14.43,-29.521 34.63,-34.611 116.66,-29.527 164.12,11.551 164.12,11.551 22.06,11.039 20.81,29.12 21.8,39.72 l -167.18,1347.87 -332.44,26.72"
         style="fill:#383736;fill-opacity:1;fill-rule:nonzero;stroke:none"
         id="path38" /><path
         d="m 2032.1,3217.1 c 0,0 -106.88,56.88 -245,74.38 -48.97,6.2 -185.18,-8.39 -185.18,-8.39 0,0 -174,-28.02 -197.08,-142.27 -2.36,-11.55 -52.43,-200.92 35.48,-777.77 8.53,-56.09 120.42,-79.62 251.36,-59.91 107.9,16.23 271.42,79.94 271.42,79.94 0,0 10.83,7.16 2.17,43.07 -22.42,92.54 -29.49,227.5 -24.87,310.14 7.38,131.72 91.7,480.81 91.7,480.81"
         style="fill:#63a3c6;fill-opacity:1;fill-rule:nonzero;stroke:none"
         id="path40" /><path
         d="m 1776.86,3567.91 c -36.38,-8.88 -31.98,-44.83 -31.98,-44.83 l 18,-73.13 c 0,0 5.66,-15.47 20.09,-14.91 21.65,0.89 26.22,21.15 30.58,43.33 0.31,1.25 4.91,33.56 5.14,35.52 4.06,27.38 -7.36,62.5 -41.83,54.02"
         style="fill:#ffe8d9;fill-opacity:1;fill-rule:nonzero;stroke:none"
         id="path42" /><path
         d="m 1591.5,3059.94 c 2.29,7.05 2.5,12.57 1.5,21.15 l -3.7,26.45 39.58,54.95 17.94,-4.38 6.97,-64.64 -19.65,-21.9 c -6.04,-4.97 -5.4,-27.73 -5.47,-35.3 0,0 -5.63,-386.3 33.02,-543.34 2.31,-9.44 -48.94,-148.6 -48.94,-148.6 0,0 -78.86,101.79 -80.57,133.41 -14.82,273.78 59.32,582.2 59.32,582.2"
         style="fill:#a52619;fill-opacity:1;fill-rule:nonzero;stroke:none"
         id="path44" /><path
         d="m 1636.61,3134.67 c 72.16,-72.98 111.82,47.51 159.67,103.14 l -19.63,230.14 -185.94,-55.9 9.5,-118.78 36.4,-158.6"
         style="fill:#e8c5ac;fill-opacity:1;fill-rule:nonzero;stroke:none"
         id="path46" /><path
         d="m 1630.63,3170.96 c 3.65,-12.66 1.62,-19.68 -4.25,-27.29 l -36.78,-47.18 c -11.7,-14.14 -16.08,2.48 -15.76,17.8 l 5.21,111.11 c 9.55,69.26 22.98,56.3 22.98,56.3 0,0 0.68,3.77 3.69,-14.7 3.8,-23.64 20.56,-80.98 24.91,-96.04"
         style="fill:#76c3e3;fill-opacity:1;fill-rule:nonzero;stroke:none"
         id="path48" /><path
         d="m 1633.13,3667.45 -0.02,-0.07 144.03,-15.77 -25.12,-260.11 c -3.84,-17.58 -7.75,-40.97 -24.82,-56.96 -12.42,-11.55 -21.56,-16.17 -47.06,-28.5 0,0 -97.13,-35.55 -148.34,-10.86 -21.16,10.15 -26.31,37.56 -31.37,54.71 -5.84,19.3 -11.56,77.33 -11.31,92.47 l -6.61,126.38 3.84,100.18 146.78,-1.47"
         style="fill:#e8c5ac;fill-opacity:1;fill-rule:nonzero;stroke:none"
         id="path50" /><path
         d="m 1495.16,3715.03 c -26.51,-30.54 -18.89,-62.07 -15.92,-111.68 1.06,-18.31 4.77,-32.31 3.94,-32.94 -0.7,-0.6 2.15,23.27 2.77,43.85 1.53,50.94 31.54,43.7 52.34,38.98 l 93,-20.73 c 1.14,-1.98 -11.04,33.43 -5.25,29.91 24.98,-15.36 34.17,-23.6 46.91,-50.4 13.69,-29.02 18.66,-92.27 14.87,-114.8 l -2.34,-22.69 c -1.29,-11.83 -2.8,-20.6 -0.03,-20.75 9.38,-0.61 24.02,9.63 28.77,21.88 0,0 15.9,29.93 47.82,21.84 27.34,-6.91 -0.22,-69.43 -2.22,-72.58 l 0.59,-18.78 c 1.31,-13.14 12.77,-48.42 20.45,-33.06 12.97,26.02 42.04,82.84 50.92,98.53 97.07,172.57 -26.09,353.48 -218.17,298.7 -41.43,-11.84 -111.91,-47.82 -118.45,-55.28"
         style="fill:#332107;fill-opacity:1;fill-rule:nonzero;stroke:none"
         id="path52" /><path
         d="m 1780.24,3500.42 c -36.1,10.11 -49.9,-23.38 -49.9,-23.38 l -26.99,-53.52 c 0,0 -1.54,-21.72 11.28,-28.31 19.38,-9.91 22.5,-8.7 42.61,1.57 11.91,6.04 31.75,26.32 32.96,27.85 16.78,22.01 24.24,66.22 -9.96,75.79"
         style="fill:#e8c5ac;fill-opacity:1;fill-rule:nonzero;stroke:none"
         id="path54" /><path
         d="m 1789.91,3315.74 c 0,0 -1.01,-28.2 -7.05,-39.53 -34.28,-64.05 -130.55,-104.95 -130.55,-104.95 -11.74,-3.93 -21.87,-9.08 -20.86,-28.82 l 11.35,-76.18 c 1.14,-19.04 11.07,-17.46 18.87,-10 0,0 78.47,62.37 100.71,83.46 52.18,49.66 47.42,85.78 37.8,153.03 -2.67,18.94 -10.27,22.99 -10.27,22.99"
         style="fill:#76c3e3;fill-opacity:1;fill-rule:nonzero;stroke:none"
         id="path56" /><path
         d="m 2243.93,1446.86 -167.61,949.78 -16.43,575.14 -9.04,234.07 c -47.5,33.13 -160.54,64.92 -160.54,64.92 0,0 -30.46,-89.76 -76.49,-163.58 -20.18,-32.27 -43.14,-503.5 -43.14,-851.85 l 58.38,-764.95 c -9.67,-89.04 48.88,-102.26 69.63,-109.62 25,-8.82 118.99,4.44 118.99,4.44 135.19,20.52 228.7,69.58 226.25,61.65"
         style="fill:#e1e4e5;fill-opacity:1;fill-rule:nonzero;stroke:none"
         id="path58" /><path
         d="m 1503.48,3059.23 c 47.32,121.13 76.42,198.32 98.44,223.86 -22.75,2.88 -86.92,-12.95 -95.77,-18.2 -1.25,-0.75 -70.49,-32.94 -93.75,-83.77 -34,-74.26 -31.51,-142.84 -52.71,-244.96 -64.04,-308.53 8.42,-1352.34 8.42,-1352.34 -0.98,-23.67 0.03,-51.78 24.53,-72.67 0,0 67.16,-41.91 94.84,-50.35 0,0 -112.54,1269.03 16,1598.43"
         style="fill:#e1e4e5;fill-opacity:1;fill-rule:nonzero;stroke:none"
         id="path60" /><path
         d="m 1588.7,3250.08 13.22,33.01 c 0,0 -3.9,-1.38 -16.65,-8.15 -21.44,-11.46 -58.33,-55.97 -58.33,-55.97 l -60.69,-81.33 c -6.64,-17.38 -24.48,-29.64 -11.83,-60.66 l 22.06,-59.47 -38.96,-24.04 c -18.29,-12.97 -33.82,-38.17 -30.88,-86.62 l 39.61,-275.46 c 0,0 22.47,317.4 43.43,383.19 47.14,147.88 99.02,235.5 99.02,235.5"
         style="fill:#ffffff;fill-opacity:1;fill-rule:nonzero;stroke:none"
         id="path62" /><path
         d="m 1878.48,3274.3 16.28,-5.03 c 0,0 23.76,-7.14 35.44,-44.66 4.66,-14.94 2.88,-56.16 2.88,-56.16 l -35.41,-125.53 c -7.31,-26.88 -17.07,-35.84 -37.4,-37.45 l -57.77,-22.83 36.62,-28.87 c 15.86,-10.98 28.06,-18.32 7.26,-69.57 l -70.13,-289.06 c 0,0 -23.04,296.01 13.95,439.17 30.85,119.16 88.28,239.99 88.28,239.99"
         style="fill:#ffffff;fill-opacity:1;fill-rule:nonzero;stroke:none"
         id="path64" /><path
         d="m 2445.81,2274.38 c 25.07,11.72 28.65,24.35 28.65,24.35 0,0 -55.95,318.69 -121.79,472.85 -80.72,189.12 -198.65,347.2 -198.65,347.2 -9.13,9.43 -92.65,133.47 -146.71,74.28 -47.96,-52.64 -48.43,-251.11 -18.56,-275.35 15.19,-12.27 110.58,-143.52 163.33,-220.62 111.78,-163.35 172.5,-427.82 172.5,-427.82 0,0 42.91,-31.48 121.23,5.11"
         style="fill:#f7f7f7;fill-opacity:1;fill-rule:nonzero;stroke:none"
         id="path66" /><path
         d="m 4546.89,4575.02 c -61.58,0 -139.54,35.92 -206.89,108.88 -68.77,74.54 -241.78,105.12 -540,150 -56.41,8.44 -246.32,30.09 -209.01,105.24 16.84,33.92 103.23,64.06 382.46,64.06 28.95,0 60.01,-0.32 93.24,-1 280.83,-5.76 538.47,-95.91 598.31,-253.3 35.27,-92.8 35,-140 -85,-170 -10.33,-2.58 -21.42,-3.88 -33.11,-3.88"
         style="fill:#1c6c65;fill-opacity:1;fill-rule:nonzero;stroke:none"
         id="path68" /><path
         d="m 3398.68,6668.31 13.92,12.99 c 0,0 16.83,-23.8 -1.91,39.09 -18.74,62.89 -110.15,141.72 -110.15,141.72 l -110.97,86.05 c 0,0 -25.27,14.62 -35.91,-3.76 -5.77,-9.98 13.44,-23.61 57.16,-64.37 20.74,-19.32 6.14,-29.89 6.14,-29.89 -29.37,-35.26 -51.88,-67.19 -51.83,-89.6 0.08,-33.68 25.98,-48.75 37.39,-50.24 2.93,-0.38 8.07,8.62 8.07,8.62 42.88,-44.21 161.53,-81.52 188.09,-50.61"
         style="fill:#edcfbc;fill-opacity:1;fill-rule:nonzero;stroke:none"
         id="path70" /><path
         d="m 3307.49,6799.82 c -4.19,18.38 -15.42,30 -34.17,40.84 -15.69,17.43 -39.61,23.12 -56.36,9.48 -13.27,-10.8 -57.85,-66.83 -57.8,-89.07 0.08,-33.67 36.53,-53.86 47.95,-55.35 2.92,-0.38 8.07,8.62 8.07,8.62 2.15,-2.23 4.63,-4.42 7.16,-6.61 29.73,-22.49 43.87,20.03 67.65,33.35 18.7,7.12 17.15,51.38 17.5,58.74"
         style="fill:#edcfbc;fill-opacity:1;fill-rule:nonzero;stroke:none"
         id="path72" /><path
         d="m 3987.39,7084.94 c 77.55,-64.59 -36.03,-207.6 -36.03,-207.6 0,0 -129.8,-321.59 -195.94,-329.77 -77.8,-9.63 -295.41,76.61 -404.97,128.2 -58.79,27.68 47.87,87.18 47.87,87.18 8.67,11.06 288.27,-179.56 308.35,-149.05 78.32,119.07 128.29,365.5 140.83,380 54.62,64.06 72.32,147.22 139.89,91.04"
         style="fill:#edcfbc;fill-opacity:1;fill-rule:nonzero;stroke:none"
         id="path74" /><path
         d="m 3353.34,6645.57 c 91.23,-88.24 323.33,-178.34 354.99,-195 31.67,-16.67 48.98,-14.11 88.34,31.66 134.05,155.94 194.82,470.45 194.82,470.45 4.8,12.22 83.56,141.03 6.86,164.31 -113.68,34.49 -184.18,-148.92 -205.02,-211.42 -16.07,-48.24 -93.33,-225 -93.33,-225 l -337.06,117.09 c 0,0 -71.74,-91.99 -9.6,-152.09"
         style="fill:#f4f4f4;fill-opacity:1;fill-rule:nonzero;stroke:none"
         id="path76" /><path
         d="m 4718.81,5306.68 c 0,0 -33.93,57.03 -303.93,47.03 -130.29,-4.82 -260,20 -450,40 -115.38,12.15 -2.51,-73.09 -2.51,-73.09 l -65.56,935.61 105.01,822.56 406.15,-50.52 310.84,-1721.59"
         style="fill:#b0b4b5;fill-opacity:1;fill-rule:nonzero;stroke:none"
         id="path78" /><path
         d="m 4378.98,4860.29 c 0,0 -14.2,-32.24 5.04,-80.99 0,0 23.28,-18.08 26.96,-21.81 21.71,-21.69 93.73,-135.8 158.43,-138.72 70.59,-3.22 74.91,51.99 67.15,86.22 -3.87,17.39 -85.92,203.79 -85.92,203.79 l -171.66,-48.49"
         style="fill:#282827;fill-opacity:1;fill-rule:nonzero;stroke:none"
         id="path80" /><path
         d="m 3899.61,5111.53 c 0,0 -30.22,-56.46 -52.04,-66.27 -45.36,-20.41 -176.24,-59.49 -188.37,-63.93 -8.04,-2.87 -21.4,-12.83 -21.03,-27.5 0.16,-5.84 0.43,-9.47 4.06,-14.75 12.95,-18.68 39.86,-25.65 64.41,-31.6 66.82,-16.17 263.15,26.74 269.28,31.53 0,0 20.06,4.25 24.95,-5.62 1.79,-3.54 0.72,-17.34 1.11,-17.55 l 70.75,23.36 c 3.52,1.73 10.74,35.58 12.6,50.64 l -2.79,97.43 -182.93,24.26"
         style="fill:#231f20;fill-opacity:1;fill-rule:nonzero;stroke:none"
         id="path82" /><path
         d="m 3641.91,4947.18 c 16.86,-21.3 42.19,-29.19 66.88,-34.23 80.66,-16.27 269.32,29.51 269.32,29.51 16.15,2.1 22.86,-3.57 23.96,-13.14 l -0.09,-13.48 -22.23,14.91 c 0,0 -177.22,-45.32 -256.62,-36.62 -25.02,2.91 -67.3,17.83 -81.96,40.9 -2.6,4.05 -5.56,14.01 -2.52,20.92 0.39,-1.18 2.5,-7.74 3.26,-8.77"
         style="fill:#282827;fill-opacity:1;fill-rule:nonzero;stroke:none"
         id="path84" /><path
         d="m 3896.81,6256.23 -24.37,-1155.07 c -1.26,-38.54 -24.78,-49.91 -23.99,-54.45 11.53,-64.92 222.46,-83.86 243.49,-34.67 l 78.45,1240.59 -273.58,3.6"
         style="fill:#141413;fill-opacity:1;fill-rule:nonzero;stroke:none"
         id="path86" /><path
         d="m 4080.58,6252.63 26.78,-326.67 252.29,-1064.58 c 2.97,-22.75 14.43,-29.52 34.63,-34.61 116.66,-29.53 164.12,11.55 164.12,11.55 22.05,11.04 20.82,29.12 21.79,39.72 l -167.16,1347.87 -332.45,26.72"
         style="fill:#383736;fill-opacity:1;fill-rule:nonzero;stroke:none"
         id="path88" /><path
         d="m 4506.97,7076.93 c 0,0 -106.86,56.87 -244.99,74.37 -48.96,6.2 -185.18,-8.39 -185.18,-8.39 0,0 -173.99,-28.01 -197.08,-142.26 -2.35,-11.55 -52.43,-200.93 35.48,-777.78 8.53,-56.09 120.43,-79.62 251.36,-59.91 107.91,16.23 271.43,79.94 271.43,79.94 0,0 10.82,7.16 2.17,43.07 -22.43,92.55 -29.5,227.5 -24.89,310.15 7.4,131.72 91.7,480.81 91.7,480.81"
         style="fill:#63a3c6;fill-opacity:1;fill-rule:nonzero;stroke:none"
         id="path90" /><path
         d="m 4251.75,7427.74 c -36.38,-8.89 -31.98,-44.84 -31.98,-44.84 l 17.99,-73.12 c 0,0 5.66,-15.48 20.09,-14.91 21.65,0.89 26.22,21.15 30.59,43.33 0.31,1.25 4.9,33.55 5.13,35.51 4.07,27.39 -7.36,62.5 -41.82,54.03"
         style="fill:#ffe8d9;fill-opacity:1;fill-rule:nonzero;stroke:none"
         id="path92" /><path
         d="m 4066.38,6919.77 c 2.29,7.04 2.5,12.57 1.5,21.14 l -3.7,26.46 39.59,54.95 17.93,-4.39 6.97,-64.64 -19.65,-21.9 c -6.03,-4.97 -5.39,-27.72 -5.47,-35.29 0,0 -5.63,-386.3 33.01,-543.34 2.33,-9.45 -48.93,-148.61 -48.93,-148.61 0,0 -78.86,101.79 -80.57,133.41 -14.81,273.78 59.32,582.21 59.32,582.21"
         style="fill:#a52619;fill-opacity:1;fill-rule:nonzero;stroke:none"
         id="path94" /><path
         d="m 4111.48,6994.5 c 72.17,-72.98 111.83,47.5 159.69,103.13 l -19.63,230.15 -185.95,-55.9 9.51,-118.79 36.38,-158.59"
         style="fill:#e8c5ac;fill-opacity:1;fill-rule:nonzero;stroke:none"
         id="path96" /><path
         d="m 4105.52,7030.79 c 3.64,-12.67 1.61,-19.68 -4.25,-27.3 l -36.79,-47.18 c -11.7,-14.14 -16.07,2.48 -15.75,17.8 l 5.2,111.12 c 9.56,69.26 22.98,56.3 22.98,56.3 0,0 0.69,3.77 3.69,-14.7 3.8,-23.64 20.57,-80.99 24.92,-96.04"
         style="fill:#76c3e3;fill-opacity:1;fill-rule:nonzero;stroke:none"
         id="path98" /><path
         d="m 4108.01,7527.28 -0.02,-0.08 144.04,-15.76 -25.13,-260.12 c -3.83,-17.58 -7.74,-40.97 -24.82,-56.95 -12.41,-11.55 -21.55,-16.17 -47.06,-28.51 0,0 -97.12,-35.54 -148.34,-10.86 -21.15,10.15 -26.31,37.56 -31.37,54.71 -5.84,19.31 -11.56,77.33 -11.31,92.47 l -6.6,126.39 3.83,100.18 146.78,-1.47"
         style="fill:#e8c5ac;fill-opacity:1;fill-rule:nonzero;stroke:none"
         id="path100" /><path
         d="m 3970.04,7574.86 c -26.51,-30.55 -18.89,-62.07 -15.91,-111.68 1.06,-18.31 4.76,-32.32 3.94,-32.94 -0.71,-0.61 2.14,23.27 2.76,43.85 1.53,50.93 31.54,43.7 52.34,38.97 l 93,-20.72 c 1.14,-1.98 -11.03,33.43 -5.24,29.91 24.97,-15.36 34.17,-23.6 46.9,-50.4 13.69,-29.02 18.65,-92.28 14.87,-114.81 l -2.34,-22.68 c -1.28,-11.84 -2.8,-20.61 -0.03,-20.75 9.39,-0.62 24.02,9.63 28.77,21.87 0,0 15.9,29.93 47.82,21.85 27.35,-6.92 -0.22,-69.44 -2.21,-72.58 l 0.58,-18.79 c 1.31,-13.13 12.78,-48.42 20.45,-33.06 12.97,26.02 42.05,82.85 50.92,98.54 97.07,172.57 -26.08,353.48 -218.17,298.69 -41.43,-11.83 -111.91,-47.81 -118.45,-55.27"
         style="fill:#332107;fill-opacity:1;fill-rule:nonzero;stroke:none"
         id="path102" /><path
         d="m 4255.12,7360.25 c -36.1,10.1 -49.9,-23.38 -49.9,-23.38 l -26.99,-53.53 c 0,0 -1.53,-21.72 11.28,-28.31 19.39,-9.91 22.5,-8.7 42.61,1.57 11.9,6.04 31.76,26.32 32.96,27.86 16.77,22.01 24.24,66.22 -9.96,75.79"
         style="fill:#e8c5ac;fill-opacity:1;fill-rule:nonzero;stroke:none"
         id="path104" /><path
         d="m 4264.78,7175.56 c 0,0 -1,-28.19 -7.04,-39.52 -34.28,-64.05 -130.55,-104.95 -130.55,-104.95 -11.74,-3.94 -21.86,-9.09 -20.86,-28.82 l 11.36,-76.18 c 1.14,-19.05 11.06,-17.46 18.87,-10 0,0 78.46,62.36 100.71,83.45 52.17,49.66 47.42,85.79 37.79,153.03 -2.66,18.95 -10.28,22.99 -10.28,22.99"
         style="fill:#76c3e3;fill-opacity:1;fill-rule:nonzero;stroke:none"
         id="path106" /><path
         d="m 4718.81,5306.68 -167.6,949.79 -16.44,575.14 -9.05,234.07 c -47.49,33.12 -160.53,64.91 -160.53,64.91 0,0 -30.45,-89.76 -76.49,-163.58 -20.18,-32.26 -43.13,-503.49 -43.13,-851.85 l 58.37,-764.94 c -9.66,-89.04 48.88,-102.27 69.63,-109.63 25,-8.82 118.99,4.44 118.99,4.44 135.19,20.52 228.69,69.58 226.25,61.65"
         style="fill:#e1e4e5;fill-opacity:1;fill-rule:nonzero;stroke:none"
         id="path108" /><path
         d="m 3978.36,6919.06 c 47.32,121.12 76.42,198.32 98.44,223.85 -22.75,2.88 -86.92,-12.95 -95.77,-18.2 -1.25,-0.74 -70.49,-32.94 -93.75,-83.77 -34,-74.26 -31.5,-142.83 -52.71,-244.96 -64.04,-308.53 8.42,-1352.33 8.42,-1352.33 -0.98,-23.68 0.04,-51.79 24.53,-72.68 0,0 67.17,-41.9 94.85,-50.35 0,0 -112.55,1269.03 15.99,1598.44"
         style="fill:#e1e4e5;fill-opacity:1;fill-rule:nonzero;stroke:none"
         id="path110" /><path
         d="m 4063.58,7109.91 13.22,33 c 0,0 -3.9,-1.37 -16.64,-8.15 -21.44,-11.46 -58.34,-55.97 -58.34,-55.97 l -60.69,-81.33 c -6.64,-17.38 -24.48,-29.63 -11.82,-60.66 l 22.05,-59.46 -38.96,-24.05 c -18.28,-12.96 -33.82,-38.17 -30.88,-86.62 l 39.61,-275.46 c 0,0 22.47,317.41 43.43,383.2 47.14,147.87 99.02,235.5 99.02,235.5"
         style="fill:#ffffff;fill-opacity:1;fill-rule:nonzero;stroke:none"
         id="path112" /><path
         d="m 4353.36,7134.12 16.28,-5.02 c 0,0 23.76,-7.14 35.45,-44.66 4.66,-14.94 2.88,-56.17 2.88,-56.17 l -35.42,-125.52 c -7.32,-26.89 -17.07,-35.84 -37.39,-37.45 l -57.78,-22.84 36.62,-28.86 c 15.86,-10.99 28.07,-18.32 7.27,-69.57 l -70.14,-289.07 c 0,0 -23.03,296.01 13.96,439.17 30.85,119.16 88.27,239.99 88.27,239.99"
         style="fill:#ffffff;fill-opacity:1;fill-rule:nonzero;stroke:none"
         id="path114" /><path
         d="m 4505.68,7031.9 c 100.48,-9.58 69.53,-178.12 69.53,-178.12 0,0 81.45,-364.15 31.46,-408.21 -58.81,-51.85 -425.53,-115.21 -545.1,-134.43 -64.15,-10.31 -9.65,98.99 -9.65,98.99 0.92,14.02 445.38,72.25 444.75,108.77 -2.5,142.5 -88.85,305.95 -86.67,325 8.96,83.71 8.2,196.26 95.68,188"
         style="fill:#edcfbc;fill-opacity:1;fill-rule:nonzero;stroke:none"
         id="path116" /><path
         d="m 4061.56,6349.68 c -29.43,-9.26 -61.63,24.06 -70.08,50.94 -3.13,9.55 -60.28,-2.69 -85.07,4.66 -26.39,7.4 -20.63,34.07 -15.29,39.62 4.22,4.51 92.83,5.64 114.98,6.75 74.31,3.64 85.79,-23.04 94.08,-49.93 8.94,-26.99 -9.33,-42.35 -38.62,-52.04"
         style="fill:#edcfbc;fill-opacity:1;fill-rule:nonzero;stroke:none"
         id="path118" /><path
         d="m 4061.57,6311.14 -5.6,36.37 -60.55,68.86 c 0,0 -13.72,-10.16 -60.9,-17.62 -35.61,-5.61 -47.68,-9.34 -79.05,-15.02 -29.8,-5.38 -50.73,-8.99 -47.32,-16.08 4.18,-8.67 6.61,-15.64 26.85,-32.5 15,-12.5 35,-32.92 35,-32.92 29.38,-19.38 127,-16.58 191.57,8.91"
         style="fill:#edcfbc;fill-opacity:1;fill-rule:nonzero;stroke:none"
         id="path120" /><path
         d="m 4151.22,6307.9 c 27.51,-2.96 468.78,67.67 468.78,67.67 0,0 20.83,27.5 27.5,87.5 22.7,204.37 -38.33,464.16 -38.33,464.16 -2.93,12.79 -36.05,161.37 -112.51,137.31 -113.32,-35.65 -91.63,-233.35 -86.66,-263.14 12.5,-75 57.5,-265 57.5,-265 l -394.16,-97.51 c 0,0 -8.07,-121.72 77.88,-130.99"
         style="fill:#f4f4f4;fill-opacity:1;fill-rule:nonzero;stroke:none"
         id="path122" /><path
         d="m 959.586,6908.9 c -12.242,18.12 -7.711,49.99 24.164,51.24 31.87,1.26 122.09,-33.54 122.09,-33.54 l -23.96,-109.42 -113.13,56.3 c 0,0 -0.398,22.44 -9.164,35.42"
         style="fill:#dbdbdb;fill-opacity:1;fill-rule:nonzero;stroke:none"
         id="path124" /><path
         d="m 2247.27,5255.2 c 0,0 -33.94,57.03 -303.94,47.03 -130.29,-4.82 -260,20 -450,40 -115.38,12.15 -2.51,-73.1 -2.51,-73.1 l -65.56,935.62 105.01,822.56 406.15,-50.52 310.85,-1721.59"
         style="fill:#b0b4b5;fill-opacity:1;fill-rule:nonzero;stroke:none"
         id="path126" /><path
         d="m 1000.9,6559.34 c 6.66,-26.93 3.48,-41.56 3.48,-41.56 0,0 14.34,-25.19 33.25,-24.07 98.43,5.52 311.49,-10.02 471.77,47.23 97.17,34.81 293.2,312.21 293.2,312.21 0,0 49.2,25.04 -5.63,129.67 -40.29,76.56 -89.88,134.41 -152.39,75.66 -39.85,-37.46 -190.5,-304.13 -242.88,-332.73 -101.21,-55.35 -390.73,-80.79 -390.73,-80.79 0,0 -29.911,-4.99 -10.07,-85.62"
         style="fill:#c1c7c9;fill-opacity:1;fill-rule:nonzero;stroke:none"
         id="path128" /><path
         d="m 2096.88,4515.03 c -61.57,0 -139.54,35.92 -206.88,108.87 -68.77,74.54 -241.78,105.12 -540,150 -56.41,8.44 -246.32,30.09 -209.01,105.24 16.84,33.92 103.26,64.06 382.44,64.06 28.97,0 60.01,-0.32 93.26,-1 280.83,-5.76 538.47,-95.91 598.31,-253.3 35.27,-92.8 35,-140 -85,-170 -10.33,-2.58 -21.42,-3.88 -33.12,-3.87"
         style="fill:#1c6c65;fill-opacity:1;fill-rule:nonzero;stroke:none"
         id="path130" /><path
         d="m 1907.44,4808.8 c 0,0 -14.2,-32.23 5.03,-80.98 0,0 23.29,-18.08 26.95,-21.81 21.73,-21.69 93.75,-135.8 158.45,-138.72 70.58,-3.22 74.9,51.99 67.15,86.22 -3.87,17.38 -85.92,203.79 -85.92,203.79 l -171.66,-48.5"
         style="fill:#282827;fill-opacity:1;fill-rule:nonzero;stroke:none"
         id="path132" /><path
         d="m 1428.07,5060.04 c 0,0 -30.22,-56.45 -52.05,-66.27 -45.36,-20.41 -176.23,-59.48 -188.37,-63.92 -8.04,-2.87 -21.4,-12.84 -21.02,-27.5 0.16,-5.84 0.42,-9.48 4.05,-14.76 12.95,-18.67 39.86,-25.64 64.41,-31.59 66.82,-16.17 263.15,26.74 269.29,31.52 0,0 20.05,4.26 24.94,-5.61 1.79,-3.55 0.72,-17.35 1.12,-17.55 l 70.75,23.36 c 3.51,1.73 10.73,35.57 12.59,50.63 l -2.79,97.43 -182.92,24.26"
         style="fill:#231f20;fill-opacity:1;fill-rule:nonzero;stroke:none"
         id="path134" /><path
         d="m 1170.37,4895.7 c 16.86,-21.3 42.18,-29.19 66.88,-34.23 80.65,-16.27 269.32,29.51 269.32,29.51 16.14,2.1 22.85,-3.57 23.95,-13.14 l -0.08,-13.48 -22.24,14.9 c 0,0 -177.22,-45.31 -256.61,-36.61 -25.02,2.91 -67.31,17.82 -81.97,40.9 -2.59,4.04 -5.56,14 -2.52,20.92 0.39,-1.19 2.5,-7.75 3.27,-8.77"
         style="fill:#282827;fill-opacity:1;fill-rule:nonzero;stroke:none"
         id="path136" /><path
         d="m 1425.26,6204.75 -24.37,-1155.08 c -1.26,-38.53 -24.78,-49.9 -23.99,-54.44 11.53,-64.92 222.46,-83.86 243.5,-34.67 l 78.44,1240.59 -273.58,3.6"
         style="fill:#141413;fill-opacity:1;fill-rule:nonzero;stroke:none"
         id="path138" /><path
         d="m 1609.03,6201.15 26.78,-326.67 252.29,-1064.58 c 2.97,-22.76 14.43,-29.53 34.63,-34.61 116.66,-29.54 164.12,11.55 164.12,11.55 22.06,11.03 20.82,29.12 21.81,39.72 l -167.18,1347.87 -332.45,26.72"
         style="fill:#383736;fill-opacity:1;fill-rule:nonzero;stroke:none"
         id="path140" /><path
         d="m 2035.43,7025.44 c 0,0 -106.87,56.88 -244.99,74.38 -48.97,6.2 -185.19,-8.39 -185.19,-8.39 0,0 -173.99,-28.02 -197.08,-142.27 -2.35,-11.55 -52.42,-200.92 35.48,-777.77 8.53,-56.09 120.43,-79.62 251.36,-59.91 107.91,16.23 271.43,79.94 271.43,79.94 0,0 10.82,7.16 2.16,43.07 -22.42,92.55 -29.49,227.5 -24.87,310.14 7.39,131.72 91.7,480.81 91.7,480.81"
         style="fill:#63a3c6;fill-opacity:1;fill-rule:nonzero;stroke:none"
         id="path142" /><path
         d="m 1780.2,7376.25 c -36.38,-8.88 -31.99,-44.83 -31.99,-44.83 l 18.01,-73.13 c 0,0 5.65,-15.47 20.09,-14.91 21.64,0.89 26.21,21.15 30.58,43.33 0.31,1.25 4.91,33.56 5.13,35.52 4.07,27.38 -7.36,62.5 -41.82,54.02"
         style="fill:#ffe8d9;fill-opacity:1;fill-rule:nonzero;stroke:none"
         id="path144" /><path
         d="m 1594.83,6868.29 c 2.29,7.04 2.5,12.56 1.5,21.14 l -3.7,26.45 39.59,54.95 17.93,-4.38 6.98,-64.64 -19.66,-21.9 c -6.03,-4.97 -5.39,-27.73 -5.47,-35.3 0,0 -5.62,-386.3 33.02,-543.34 2.31,-9.44 -48.94,-148.6 -48.94,-148.6 0,0 -78.86,101.79 -80.56,133.41 -14.82,273.78 59.31,582.21 59.31,582.21"
         style="fill:#a52619;fill-opacity:1;fill-rule:nonzero;stroke:none"
         id="path146" /><path
         d="m 1639.94,6943.01 c 72.17,-72.98 111.82,47.51 159.68,103.14 l -19.63,230.14 -185.95,-55.9 9.51,-118.79 36.39,-158.59"
         style="fill:#ddbca6;fill-opacity:1;fill-rule:nonzero;stroke:none"
         id="path148" /><path
         d="m 1633.97,6979.3 c 3.64,-12.67 1.62,-19.68 -4.25,-27.3 l -36.78,-47.17 c -11.71,-14.14 -16.08,2.48 -15.76,17.8 l 5.2,111.11 c 9.56,69.26 22.99,56.3 22.99,56.3 0,0 0.68,3.77 3.69,-14.69 3.8,-23.65 20.56,-80.99 24.91,-96.05"
         style="fill:#76c3e3;fill-opacity:1;fill-rule:nonzero;stroke:none"
         id="path150" /><path
         d="m 1636.46,7475.8 -0.01,-0.09 144.03,-15.75 -25.12,-260.12 c -3.85,-17.58 -7.75,-40.97 -24.83,-56.96 -12.42,-11.55 -21.56,-16.17 -47.06,-28.5 0,0 -97.12,-35.55 -148.33,-10.86 -21.16,10.15 -26.32,37.56 -31.38,54.71 -5.84,19.3 -11.55,77.33 -11.31,92.47 l -6.6,126.38 3.83,100.18 146.78,-1.46"
         style="fill:#e8c5ac;fill-opacity:1;fill-rule:nonzero;stroke:none"
         id="path152" /><path
         d="m 1498.49,7523.38 c -26.5,-30.55 -18.89,-62.08 -15.91,-111.69 1.06,-18.31 4.76,-32.31 3.94,-32.94 -0.71,-0.6 2.15,23.27 2.77,43.85 1.52,50.94 31.53,43.7 52.34,38.98 l 92.99,-20.72 c 1.15,-1.99 -11.03,33.42 -5.24,29.91 24.97,-15.36 34.17,-23.61 46.9,-50.4 13.69,-29.03 18.66,-92.28 14.87,-114.81 l -2.34,-22.69 c -1.28,-11.83 -2.79,-20.6 -0.03,-20.75 9.39,-0.61 24.02,9.63 28.77,21.88 0,0 15.91,29.93 47.83,21.84 27.34,-6.91 -0.22,-69.43 -2.22,-72.58 l 0.58,-18.78 c 1.32,-13.14 12.78,-48.42 20.45,-33.06 12.97,26.02 42.05,82.84 50.92,98.53 97.07,172.57 -26.08,353.48 -218.17,298.7 -41.42,-11.84 -111.91,-47.81 -118.45,-55.27"
         style="fill:#332107;fill-opacity:1;fill-rule:nonzero;stroke:none"
         id="path154" /><path
         d="m 1783.57,7308.76 c -36.1,10.11 -49.89,-23.38 -49.89,-23.38 l -26.99,-53.52 c 0,0 -1.54,-21.72 11.27,-28.31 19.39,-9.91 22.5,-8.7 42.61,1.57 11.91,6.04 31.76,26.32 32.97,27.85 16.77,22.01 24.23,66.22 -9.97,75.79"
         style="fill:#e8c5ac;fill-opacity:1;fill-rule:nonzero;stroke:none"
         id="path156" /><path
         d="m 1793.24,7124.08 c 0,0 -1.01,-28.2 -7.04,-39.53 -34.29,-64.05 -130.56,-104.95 -130.56,-104.95 -11.73,-3.93 -21.86,-9.08 -20.86,-28.81 l 11.36,-76.19 c 1.13,-19.04 11.06,-17.46 18.87,-10 0,0 78.47,62.37 100.7,83.46 52.19,49.66 47.43,85.78 37.81,153.03 -2.67,18.94 -10.28,22.99 -10.28,22.99"
         style="fill:#76c3e3;fill-opacity:1;fill-rule:nonzero;stroke:none"
         id="path158" /><path
         d="m 1028.94,6650.1 c 0,0 -19.85,7.46 -26.56,-2.18 -6.837,-9.62 -19.31,-32.2 -9.56,-87.64 3.59,-19.78 14.57,-37.78 17.58,-42.66 4.53,-7.23 17.74,-22.22 27.68,-19.23 7.25,2.18 14.34,7.8 21.72,26.44 15.62,39.59 3.03,90.96 -5.05,100.17 -8,9.19 -25.81,25.1 -25.81,25.1"
         style="fill:#48819b;fill-opacity:1;fill-rule:nonzero;stroke:none"
         id="path160" /><path
         d="m 1082.59,6547.81 -87.496,-1.91 4.254,101.11 47.532,0.17 35.71,-99.37"
         style="fill:#e8c5ac;fill-opacity:1;fill-rule:nonzero;stroke:none"
         id="path162" /><path
         d="m 1016.23,6652.92 c 0,0 33.87,-1.68 43.32,-65.12 5.09,-33.71 1.84,-56.83 -4.87,-74.03 -5.08,-13.02 -17.08,-15.5 -17.08,-15.5 l 27.57,3.45 c 0,0 22.28,15.25 21.35,64.01 -1.33,72.26 -46.98,87.56 -46.98,87.56 l -23.31,-0.37"
         style="fill:#63a3c6;fill-opacity:1;fill-rule:nonzero;stroke:none"
         id="path164" /><path
         d="m 978.777,6593.59 c -28.332,-7.35 -54.191,23.16 -65.375,44.26 -4.105,7.77 -8.05,12.44 -38.543,5.78 -20.789,-4.51 -51.168,7.18 -45.367,30.06 0,0 16.996,3.81 52.891,13.29 2.601,0.65 28.226,14.97 52.64,5.17 64.395,-26 72.617,-41.56 79.787,-59.48 6.26,-15.77 -7.79,-31.75 -36.033,-39.08"
         style="fill:#e8c5ac;fill-opacity:1;fill-rule:nonzero;stroke:none"
         id="path166" /><path
         d="m 2247.27,5255.2 -167.61,949.78 -16.43,575.14 -9.05,234.07 c -47.5,33.13 -160.53,64.91 -160.53,64.91 0,0 -30.46,-89.75 -76.5,-163.57 -20.18,-32.27 -43.13,-503.49 -43.13,-851.85 l 58.38,-764.95 c -9.67,-89.04 48.87,-102.26 69.63,-109.62 25,-8.82 118.98,4.44 118.98,4.44 135.19,20.52 228.7,69.58 226.26,61.65"
         style="fill:#dbdddd;fill-opacity:1;fill-rule:nonzero;stroke:none"
         id="path168" /><path
         d="m 1506.82,6867.57 c 47.31,121.12 76.41,198.32 98.43,223.86 -22.74,2.88 -86.92,-12.95 -95.76,-18.2 -1.25,-0.75 -70.5,-32.94 -93.76,-83.77 -34,-74.26 -31.5,-142.84 -52.7,-244.96 -64.05,-308.53 8.42,-1352.34 8.42,-1352.34 -0.99,-23.67 0.03,-51.79 24.52,-72.67 0,0 67.17,-41.91 94.85,-50.36 0,0 -112.54,1269.04 16,1598.44"
         style="fill:#d8d8d8;fill-opacity:1;fill-rule:nonzero;stroke:none"
         id="path170" /><path
         d="m 1592.04,7058.42 13.21,33.01 c 0,0 -3.89,-1.38 -16.64,-8.16 -21.44,-11.45 -58.34,-55.96 -58.34,-55.96 l -60.69,-81.33 c -6.64,-17.38 -24.48,-29.64 -11.82,-60.66 l 22.05,-59.47 -38.96,-24.04 c -18.28,-12.97 -33.82,-38.17 -30.88,-86.62 l 39.61,-275.46 c 0,0 22.47,317.4 43.44,383.19 47.14,147.87 99.02,235.5 99.02,235.5"
         style="fill:#ffffff;fill-opacity:1;fill-rule:nonzero;stroke:none"
         id="path172" /><path
         d="m 1881.81,7082.64 16.28,-5.03 c 0,0 23.76,-7.14 35.45,-44.66 4.66,-14.94 2.88,-56.16 2.88,-56.16 L 1901,6851.26 c -7.31,-26.88 -17.07,-35.84 -37.39,-37.45 l -57.78,-22.83 36.63,-28.87 c 15.85,-10.98 28.06,-18.32 7.26,-69.57 l -70.14,-289.06 c 0,0 -23.03,296.01 13.96,439.17 30.85,119.16 88.27,239.99 88.27,239.99"
         style="fill:#ffffff;fill-opacity:1;fill-rule:nonzero;stroke:none"
         id="path174" /><path
         d="m 1415.84,6905.57 c 0,0 -63.34,-89.17 -294.18,-68.34 -65.99,5.96 -124.844,42.81 -166.375,80.53 l 7.215,-46.36 c 37.87,-194.82 76.46,-634.87 94.15,-661.4 22.29,-33.44 45.04,-146.94 200.04,-176.94 188.14,-36.42 328.31,110.84 328.31,110.84 l -169.16,761.67"
         style="fill:#aaaaaa;fill-opacity:1;fill-rule:nonzero;stroke:none"
         id="path176" /><path
         d="m 851.684,6971.39 c 0,0 109.437,-132.11 236.656,-155.82 196.66,-36.67 314.16,23.33 314.16,23.33 l 154.19,-762.5 c 0,0 -151.86,-96.42 -340.01,-60 -155,29.99 -177.73,143.49 -200.03,176.93 -22.295,33.45 -164.966,778.06 -164.966,778.06"
         style="fill:#edeceb;fill-opacity:1;fill-rule:nonzero;stroke:none"
         id="path178" /><path
         d="m 2039.02,6985.24 c 100.47,-9.59 97.64,-243.01 97.64,-243.01 0,0 50.82,-344.26 0.84,-388.33 -58.81,-51.85 -423.03,-70.21 -542.6,-89.43 -64.15,-10.31 -9.65,99 -9.65,99 0.92,14.01 458.94,64.27 444.75,97.93 -42.51,100.83 -52.18,308.45 -50,327.5 8.96,83.71 -28.47,204.6 59.02,196.34"
         style="fill:#edcfbc;fill-opacity:1;fill-rule:nonzero;stroke:none"
         id="path180" /><path
         d="m 1543.84,6287.69 c -27.68,13.64 -27.93,59.98 -15.47,85.25 4.34,9.06 -45.43,39.71 -58.27,62.15 -13.97,23.59 8.63,38.88 16.33,39.21 6.16,0.34 70.99,-60.07 87.77,-74.57 56.24,-48.73 46.1,-75.93 33.51,-101.1 -12.19,-25.69 -36.01,-24.17 -63.87,-10.94"
         style="fill:#edcfbc;fill-opacity:1;fill-rule:nonzero;stroke:none"
         id="path182" /><path
         d="m 1594.9,6264.47 -5.6,36.37 -60.55,68.87 c 0,0 -13.72,-10.17 -60.9,-17.63 -35.61,-5.61 -47.68,-9.34 -79.05,-15.01 -29.8,-5.39 -50.73,-8.99 -47.32,-16.08 4.18,-8.68 6.61,-15.64 26.85,-32.51 15,-12.5 35,-32.91 35,-32.91 29.38,-19.39 127,-16.58 191.57,8.9"
         style="fill:#edcfbc;fill-opacity:1;fill-rule:nonzero;stroke:none"
         id="path184" /><path
         d="m 1056.02,6118.97 c -22.01,32.55 -31.54,62.62 -39.37,74.36 -11.8,17.71 -57.337,234.7 -97.584,435.03 v 0 c 40.247,-200.33 85.784,-417.32 97.584,-435.03 9.57,-14.35 19.22,-43.44 39.37,-74.36"
         style="fill:#69a9a4;fill-opacity:1;fill-rule:nonzero;stroke:none"
         id="path186" /><path
         d="m 1007.34,6844.71 c -4.79,2.5 -9.516,5.1 -14.164,7.77 4.64,-2.58 9.314,-5.03 14.014,-7.33 l 0.15,-0.44"
         style="fill:#b8b8b8;fill-opacity:1;fill-rule:nonzero;stroke:none"
         id="path188" /><path
         d="m 931.203,6895.11 c -48.367,38.68 -79.519,76.28 -79.519,76.28 0,0 33.125,-38.71 79.519,-76.28"
         style="fill:#69a9a4;fill-opacity:1;fill-rule:nonzero;stroke:none"
         id="path190" /><path
         d="m 1286.25,6008.9 c -132.7,3.79 -196.29,59.88 -230.23,110.07 -20.15,30.92 -29.8,60.01 -39.37,74.36 -11.8,17.71 -57.337,234.7 -97.584,435.03 -35.781,178.11 -67.382,343.03 -67.382,343.03 v 0 c 0,0 31.152,-37.6 79.519,-76.28 18.902,-15.3 40.008,-30.41 61.973,-42.63 4.648,-2.67 9.374,-5.27 14.164,-7.77 l 278.91,-835.81"
         style="fill:#e1e0df;fill-opacity:1;fill-rule:nonzero;stroke:none"
         id="path192" /><path
         d="m 1645,6233.9 c 27.51,-2.96 453.37,45.18 510,65 50,17.5 45.87,64.64 45,125 -2.5,172.5 -59.17,465 -59.17,465 -11.25,56.25 -55.73,155.65 -128.33,121.67 -68.58,-32.11 -59.5,-254.94 -59.17,-275 0.84,-50.84 51.67,-279.17 51.67,-279.17 l -398.33,-64.17 c 0,0 -47.62,-149.06 38.33,-158.33"
         style="fill:#f4f4f4;fill-opacity:1;fill-rule:nonzero;stroke:none"
         id="path194" /><path
         d="m 1019.73,6612.03 c -4.03,-0.68 -8.34,0.48 -12,4.59 -9.367,10.54 -22.421,14.21 -35.164,18.92 l -25.933,-6.74 c 0,0 -15.164,-4.71 -36.492,3.09 -8.321,3.05 -22.793,8.49 -22.793,8.49 0,0 -58.5,-5.04 -40.239,-42.24 5.993,-12.04 18.852,-19.47 18.852,-19.47 5.695,-16.57 18.785,-43.59 26.25,-61.66 17.324,-41.96 73.887,-23.03 73.887,-23.03 l 37.562,8.97 c 37.77,29.06 50.36,74.88 16.07,109.08"
         style="fill:#e8c5ac;fill-opacity:1;fill-rule:nonzero;stroke:none"
         id="path196" /><path
         d="m 7036.89,740.031 c -61.58,0 -139.54,35.91 -206.89,108.871 -68.77,74.539 -241.78,105.118 -540,150 -56.41,8.438 -246.32,30.088 -209,105.248 16.83,33.91 103.22,64.05 382.45,64.05 28.95,0 60.02,-0.32 93.25,-1 280.82,-5.76 538.46,-95.91 598.3,-253.298 35.27,-92.8 35,-140 -85,-170 -10.33,-2.582 -21.42,-3.871 -33.11,-3.871"
         style="fill:#1c6c65;fill-opacity:1;fill-rule:nonzero;stroke:none"
         id="path198" /><path
         d="m 7203.24,1470.42 c 0,0 -33.92,57.04 -303.92,47.04 -130.3,-4.83 -260,20 -450,40 -115.39,12.14 -2.52,-73.1 -2.52,-73.1 l -65.56,935.61 105.01,822.56 406.14,-50.51 310.85,-1721.6"
         style="fill:#b0b4b5;fill-opacity:1;fill-rule:nonzero;stroke:none"
         id="path200" /><path
         d="m 6863.42,1024.03 c 0,0 -14.2,-32.241 5.03,-80.991 0,0 23.29,-18.078 26.95,-21.809 21.73,-21.679 93.74,-135.8 158.45,-138.718 70.58,-3.223 74.9,52 67.15,86.218 -3.87,17.391 -85.92,203.79 -85.92,203.79 l -171.66,-48.49"
         style="fill:#282827;fill-opacity:1;fill-rule:nonzero;stroke:none"
         id="path202" /><path
         d="m 6384.04,1275.27 c 0,0 -30.21,-56.46 -52.04,-66.27 -45.36,-20.41 -176.24,-59.48 -188.37,-63.93 -8.04,-2.87 -21.4,-12.83 -21.03,-27.5 0.16,-5.84 0.43,-9.47 4.06,-14.75 12.95,-18.68 39.86,-25.65 64.4,-31.6 66.83,-16.17 263.16,26.74 269.29,31.53 0,0 20.06,4.26 24.94,-5.62 1.8,-3.54 0.73,-17.34 1.12,-17.55 l 70.76,23.36 c 3.51,1.73 10.73,35.58 12.59,50.64 l -2.79,97.43 -182.93,24.26"
         style="fill:#231f20;fill-opacity:1;fill-rule:nonzero;stroke:none"
         id="path204" /><path
         d="m 5729.04,3133.06 c 0.94,-27.73 -10.94,-40.47 -10.94,-40.47 0,0 -15.44,11 0,0 99.13,-70.59 336.67,-172.82 467.7,-169.56 103.19,2.56 354.71,130.16 354.71,130.16 0,0 53.31,14.29 21.37,128.02 -23.55,83.25 -34.86,143.62 -108.17,99.1 -46.77,-28.38 -261.34,-126.66 -317.04,-148.08 -43.33,-16.66 -340,120 -446.32,154.69 -51.51,16.8 36,-70.86 38.69,-153.86"
         style="fill:#c1c7c9;fill-opacity:1;fill-rule:nonzero;stroke:none"
         id="path206" /><path
         d="m 6126.35,1110.92 c 16.85,-21.3 42.17,-29.19 66.87,-34.23 80.67,-16.27 269.32,29.52 269.32,29.52 16.15,2.09 22.85,-3.58 23.96,-13.15 l -0.09,-13.48 -22.23,14.91 c 0,0 -177.23,-45.32 -256.62,-36.61 -25.02,2.91 -67.31,17.82 -81.96,40.89 -2.59,4.05 -5.56,14.01 -2.51,20.92 0.39,-1.18 2.5,-7.74 3.26,-8.77"
         style="fill:#282827;fill-opacity:1;fill-rule:nonzero;stroke:none"
         id="path208" /><path
         d="M 6381.24,2419.97 6356.88,1264.9 c -1.28,-38.54 -24.79,-49.91 -24,-54.45 11.53,-64.92 222.46,-83.85 243.49,-34.66 l 78.45,1240.58 -273.58,3.6"
         style="fill:#141413;fill-opacity:1;fill-rule:nonzero;stroke:none"
         id="path210" /><path
         d="m 6565.01,2416.37 26.78,-326.67 252.29,-1064.58 c 2.97,-22.75 14.44,-29.518 34.63,-34.608 116.66,-29.532 164.12,11.548 164.12,11.548 22.05,11.04 20.81,29.13 21.8,39.72 l -167.17,1347.87 -332.45,26.72"
         style="fill:#383736;fill-opacity:1;fill-rule:nonzero;stroke:none"
         id="path212" /><path
         d="m 6991.41,3240.67 c 0,0 -106.88,56.87 -245,74.37 -48.97,6.2 -185.18,-8.39 -185.18,-8.39 0,0 -173.99,-28.01 -197.08,-142.26 -2.35,-11.55 -52.43,-200.93 35.48,-777.77 8.53,-56.1 120.43,-79.62 251.37,-59.92 107.9,16.23 271.41,79.94 271.41,79.94 0,0 10.83,7.16 2.17,43.07 -22.42,92.55 -29.49,227.5 -24.87,310.15 7.38,131.72 91.7,480.81 91.7,480.81"
         style="fill:#63a3c6;fill-opacity:1;fill-rule:nonzero;stroke:none"
         id="path214" /><path
         d="m 6736.17,3591.48 c -36.38,-8.89 -31.98,-44.84 -31.98,-44.84 l 18,-73.12 c 0,0 5.66,-15.48 20.09,-14.91 21.65,0.89 26.22,21.15 30.59,43.33 0.3,1.25 4.9,33.55 5.13,35.51 4.07,27.39 -7.36,62.5 -41.83,54.03"
         style="fill:#ffe8d9;fill-opacity:1;fill-rule:nonzero;stroke:none"
         id="path216" /><path
         d="m 6550.81,3083.51 c 2.29,7.04 2.5,12.57 1.49,21.14 l -3.69,26.46 39.58,54.95 17.94,-4.39 6.97,-64.64 -19.65,-21.9 c -6.04,-4.97 -5.39,-27.72 -5.47,-35.29 0,0 -5.63,-386.3 33.02,-543.34 2.31,-9.45 -48.94,-148.61 -48.94,-148.61 0,0 -78.86,101.79 -80.57,133.41 -14.81,273.78 59.32,582.21 59.32,582.21"
         style="fill:#a52619;fill-opacity:1;fill-rule:nonzero;stroke:none"
         id="path218" /><path
         d="m 6595.92,3158.24 c 72.17,-72.98 111.81,47.51 159.68,103.13 l -19.63,230.15 -185.95,-55.9 9.51,-118.79 36.39,-158.59"
         style="fill:#ddbca6;fill-opacity:1;fill-rule:nonzero;stroke:none"
         id="path220" /><path
         d="m 6589.94,3194.52 c 3.65,-12.66 1.62,-19.67 -4.25,-27.29 l -36.78,-47.18 c -11.7,-14.14 -16.08,2.48 -15.76,17.81 l 5.21,111.11 c 9.55,69.26 22.99,56.3 22.99,56.3 0,0 0.68,3.77 3.69,-14.7 3.79,-23.64 20.56,-80.99 24.9,-96.05"
         style="fill:#76c3e3;fill-opacity:1;fill-rule:nonzero;stroke:none"
         id="path222" /><path
         d="m 6592.44,3691.02 -0.02,-0.08 144.04,-15.76 -25.13,-260.12 c -3.84,-17.58 -7.75,-40.96 -24.83,-56.95 -12.41,-11.55 -21.55,-16.17 -47.05,-28.51 0,0 -97.13,-35.54 -148.34,-10.86 -21.15,10.15 -26.31,37.56 -31.36,54.71 -5.84,19.31 -11.57,77.33 -11.32,92.47 l -6.6,126.39 3.83,100.17 146.78,-1.46"
         style="fill:#e8c5ac;fill-opacity:1;fill-rule:nonzero;stroke:none"
         id="path224" /><path
         d="m 6454.47,3738.6 c -26.5,-30.55 -18.88,-62.07 -15.92,-111.68 1.06,-18.31 4.77,-32.32 3.95,-32.94 -0.71,-0.61 2.15,23.27 2.76,43.85 1.54,50.93 31.54,43.7 52.34,38.97 l 93,-20.72 c 1.14,-1.98 -11.03,33.42 -5.25,29.91 24.98,-15.36 34.18,-23.6 46.92,-50.4 13.68,-29.02 18.65,-92.28 14.86,-114.81 l -2.35,-22.68 c -1.27,-11.84 -2.79,-20.61 -0.01,-20.75 9.37,-0.62 24.01,9.63 28.76,21.87 0,0 15.9,29.93 47.82,21.85 27.34,-6.92 -0.22,-69.44 -2.21,-72.58 l 0.59,-18.79 c 1.3,-13.13 12.77,-48.42 20.45,-33.06 12.96,26.02 42.04,82.85 50.91,98.54 97.07,172.57 -26.09,353.48 -218.17,298.69 -41.43,-11.84 -111.9,-47.81 -118.45,-55.27"
         style="fill:#332107;fill-opacity:1;fill-rule:nonzero;stroke:none"
         id="path226" /><path
         d="m 6739.55,3523.99 c -36.1,10.11 -49.9,-23.38 -49.9,-23.38 l -26.99,-53.53 c 0,0 -1.54,-21.72 11.28,-28.31 19.38,-9.91 22.5,-8.7 42.6,1.58 11.92,6.03 31.76,26.31 32.97,27.85 16.78,22.01 24.24,66.22 -9.96,75.79"
         style="fill:#e8c5ac;fill-opacity:1;fill-rule:nonzero;stroke:none"
         id="path228" /><path
         d="m 6749.22,3339.3 c 0,0 -1.02,-28.19 -7.05,-39.52 -34.28,-64.05 -130.55,-104.95 -130.55,-104.95 -11.74,-3.94 -21.86,-9.08 -20.86,-28.82 l 11.35,-76.18 c 1.14,-19.05 11.07,-17.46 18.88,-10 0,0 78.46,62.36 100.7,83.45 52.18,49.66 47.43,85.79 37.8,153.03 -2.66,18.95 -10.27,22.99 -10.27,22.99"
         style="fill:#76c3e3;fill-opacity:1;fill-rule:nonzero;stroke:none"
         id="path230" /><path
         d="m 7203.24,1470.42 -167.61,949.79 -16.43,575.14 -9.04,234.07 c -47.5,33.12 -160.53,64.91 -160.53,64.91 0,0 -30.47,-89.76 -76.5,-163.58 C 6752.95,3098.49 6730,2627.26 6730,2278.9 l 58.38,-764.94 c -9.67,-89.04 48.87,-102.27 69.63,-109.63 25,-8.82 118.98,4.44 118.98,4.44 135.19,20.52 228.69,69.58 226.25,61.65"
         style="fill:#dbdddd;fill-opacity:1;fill-rule:nonzero;stroke:none"
         id="path232" /><path
         d="m 6462.79,3081.14 c 47.32,121.12 76.42,198.32 98.44,223.85 -22.75,2.88 -86.91,-12.94 -95.76,-18.2 -1.25,-0.74 -70.5,-32.94 -93.76,-83.77 -34,-74.26 -31.5,-142.83 -52.71,-244.96 -64.04,-308.53 8.42,-1352.33 8.42,-1352.33 -0.98,-23.68 0.04,-51.79 24.53,-72.68 0,0 67.17,-41.9 94.85,-50.35 0,0 -112.54,1269.03 15.99,1598.44"
         style="fill:#d8d8d8;fill-opacity:1;fill-rule:nonzero;stroke:none"
         id="path234" /><path
         d="m 6548.01,3273.65 13.22,33 c 0,0 -3.9,-1.37 -16.64,-8.15 -21.45,-11.45 -58.34,-55.97 -58.34,-55.97 l -60.68,-81.32 c -6.64,-17.39 -24.5,-29.64 -11.84,-60.67 l 22.06,-59.46 -38.95,-24.05 c -18.3,-12.96 -33.83,-38.17 -30.89,-86.62 l 39.62,-275.45 c 0,0 22.46,317.4 43.42,383.19 47.14,147.87 99.02,235.5 99.02,235.5"
         style="fill:#ffffff;fill-opacity:1;fill-rule:nonzero;stroke:none"
         id="path236" /><path
         d="m 6837.79,3297.86 16.27,-5.02 c 0,0 23.77,-7.14 35.45,-44.66 4.67,-14.94 2.88,-56.16 2.88,-56.16 l -35.42,-125.53 c -7.3,-26.89 -17.07,-35.84 -37.38,-37.45 l -57.77,-22.83 36.62,-28.87 c 15.86,-10.99 28.05,-18.32 7.25,-69.57 l -70.12,-289.06 c 0,0 -23.05,296 13.94,439.17 30.86,119.15 88.28,239.98 88.28,239.98"
         style="fill:#ffffff;fill-opacity:1;fill-rule:nonzero;stroke:none"
         id="path238" /><path
         d="m 5806.53,3178.61 c -7.22,-38.45 -38.45,-109.13 -91.1,-103.71 -52.65,5.43 -120.4,86.87 -116.39,125.79 4.02,38.9 38.67,91.65 91.31,86.23 52.66,-5.43 127.31,-49.14 116.18,-108.31"
         style="fill:#6690a3;fill-opacity:1;fill-rule:nonzero;stroke:none"
         id="path240" /><path
         d="m 5743.02,3207.06 c -24.02,-8.39 -31.05,-43.74 -25.12,-63.87 2,-7.05 -63.39,-36.7 -42.65,-66.63 0,0 15.64,5.5 42.85,16.03 2.13,0.84 26.45,5.79 39.14,24.68 33.45,50.17 40.62,56.97 34.7,77.11 -5.87,20.12 -24.88,20.96 -48.92,12.68"
         style="fill:#e8c5ac;fill-opacity:1;fill-rule:nonzero;stroke:none"
         id="path242" /><path
         d="m 5918.47,3055.85 7.05,4.09 -2.06,-725.49 -7.05,-4.09 2.06,725.49"
         style="fill:#b7b6b5;fill-opacity:1;fill-rule:nonzero;stroke:none"
         id="path244" /><path
         d="m 5499.95,3297.48 7.05,4.1 418.52,-241.64 -7.05,-4.09 -418.52,241.63"
         style="fill:#cccbcb;fill-opacity:1;fill-rule:nonzero;stroke:none"
         id="path246" /><path
         d="m 5918.47,3055.85 -2.06,-725.49 -418.52,241.63 2.06,725.49 418.52,-241.63"
         style="fill:#e5e5e5;fill-opacity:1;fill-rule:nonzero;stroke:none"
         id="path248" /><path
         d="m 5651.61,3114.14 c 6.02,-2.19 54.04,-17.12 59.98,16.2 2.49,13.88 30.05,35.98 30.05,35.98 0,0 3.85,7.21 23.36,18.83 7.61,4.53 14.74,-4.41 14.74,-4.41 0,0 15.79,19.11 -3.96,37.79 -9.77,9.25 -43.02,36.8 -43.02,36.8 -23.22,14.52 -53,34.03 -71.73,39.63 -43.5,13.01 -64.73,-30.6 -67.09,-45.44 -2.37,-14.84 -22.59,-52.55 -22.59,-52.55 -1.28,-47.63 18.09,-76.42 80.26,-82.83"
         style="fill:#e8c5ac;fill-opacity:1;fill-rule:nonzero;stroke:none"
         id="path250" /><path
         d="m 7343.57,2347.19 -24.19,-8 -19.38,-59.46 14.32,-48.54 c 0,0 4.49,-13.03 -1.79,-31.71 -2.45,-7.21 -6.87,-19.85 -6.87,-19.85 0,0 5.84,-50.61 38.17,-33.97 10.45,5.37 16.66,16.69 16.66,16.69 14.47,5.18 37.86,17.15 53.63,23.92 36.45,15.89 18.42,64.53 18.42,64.53 l -13.32,48.78 c -7.31,27.46 -31.24,53.74 -75.65,47.61"
         style="fill:#e8c5ac;fill-opacity:1;fill-rule:nonzero;stroke:none"
         id="path252" /><path
         d="m 7379.78,2389.45 7.06,-77.2 -86.87,-20.23 -9.62,48.91 89.43,48.52"
         style="fill:#e8c5ac;fill-opacity:1;fill-rule:nonzero;stroke:none"
         id="path254" /><path
         d="m 7349.86,2303.98 c 7.13,-24.43 -17.55,-50.68 -37.37,-57.57 -6.89,-2.47 6.98,-72.91 -29.42,-73.44 0,0 -4.61,15.93 -11.86,44.18 -0.57,2.23 -10.66,24.9 -2.68,46.2 21.37,56.39 22.74,66.17 42.56,73.06 19.79,6.92 31.52,-8.06 38.77,-32.43"
         style="fill:#e8c5ac;fill-opacity:1;fill-rule:nonzero;stroke:none"
         id="path256" /><path
         d="m 7393.36,2299.67 c 25.07,11.72 28.65,24.36 28.65,24.36 0,0 -55.96,318.68 -121.8,472.84 -80.72,189.12 -198.65,347.21 -198.65,347.21 -9.13,9.42 -92.65,133.46 -146.71,74.27 -47.96,-52.63 -48.42,-251.11 -18.55,-275.35 15.18,-12.26 110.58,-143.51 163.33,-220.61 111.78,-163.35 172.5,-427.83 172.5,-427.83 0,0 42.91,-31.48 121.23,5.11"
         style="fill:#f7f7f7;fill-opacity:1;fill-rule:nonzero;stroke:none"
         id="path258" /><path
         d="m 5840.1,2930.49 c 6.05,-3.5 9.8,-10.02 9.78,-17.01 l -0.03,-7.26 c -0.01,-5.05 -5.47,-8.19 -9.85,-5.66 l -284.87,165.55 c -6.07,3.5 -9.82,10.02 -9.8,17.01 l 0.02,7.26 c 0.01,5.04 5.48,8.19 9.86,5.66 l 284.89,-165.55"
         style="fill:#c1c7c9;fill-opacity:1;fill-rule:nonzero;stroke:none"
         id="path260" /><path
         d="m 5840.1,2851.16 c 6.05,-3.51 9.8,-10.02 9.78,-17.02 l -0.03,-7.25 c -0.01,-5.05 -5.47,-8.2 -9.85,-5.67 l -284.87,165.55 c -6.07,3.51 -9.82,10.02 -9.8,17.01 l 0.02,7.26 c 0.01,5.05 5.48,8.19 9.86,5.66 l 284.89,-165.54"
         style="fill:#c1c7c9;fill-opacity:1;fill-rule:nonzero;stroke:none"
         id="path262" /><path
         d="m 5840.1,2771.83 c 6.05,-3.51 9.8,-10.02 9.78,-17.01 l -0.03,-7.26 c -0.01,-5.05 -5.47,-8.19 -9.85,-5.66 l -284.87,165.54 c -6.07,3.51 -9.82,10.02 -9.8,17.02 l 0.02,7.25 c 0.01,5.05 5.48,8.2 9.86,5.67 l 284.89,-165.55"
         style="fill:#c1c7c9;fill-opacity:1;fill-rule:nonzero;stroke:none"
         id="path264" /><path
         d="m 5836.76,2692.49 c 6.05,-3.5 9.8,-10.02 9.78,-17.01 l -0.03,-7.25 c -0.01,-5.05 -5.48,-8.2 -9.85,-5.67 l -284.87,165.55 c -6.07,3.5 -9.82,10.02 -9.8,17.01 l 0.02,7.26 c 0.01,5.04 5.48,8.19 9.86,5.66 l 284.89,-165.55"
         style="fill:#c1c7c9;fill-opacity:1;fill-rule:nonzero;stroke:none"
         id="path266" /><path
         d="m 5836.76,2613.17 c 6.05,-3.51 9.8,-10.02 9.78,-17.01 l -0.03,-7.26 c -0.01,-5.05 -5.48,-8.19 -9.85,-5.66 l -284.87,165.54 c -6.07,3.51 -9.82,10.02 -9.8,17.02 l 0.02,7.25 c 0.01,5.05 5.48,8.19 9.86,5.66 l 284.89,-165.54"
         style="fill:#c1c7c9;fill-opacity:1;fill-rule:nonzero;stroke:none"
         id="path268" /><path
         d="m 5833.43,2533.83 c 6.05,-3.5 9.8,-10.02 9.78,-17.01 l -0.03,-7.26 c -0.01,-5.04 -5.47,-8.19 -9.85,-5.66 l -284.87,165.55 c -6.07,3.5 -9.82,10.02 -9.8,17.01 l 0.02,7.25 c 0.01,5.05 5.48,8.2 9.86,5.67 l 284.89,-165.55"
         style="fill:#c1c7c9;fill-opacity:1;fill-rule:nonzero;stroke:none"
         id="path270" /><path
         d="m 4466.89,795.031 c -61.58,0 -139.54,35.91 -206.89,108.871 -68.77,74.539 -241.78,105.118 -540,149.998 -56.41,8.44 -246.32,30.09 -209.01,105.24 16.84,33.92 103.23,64.06 382.46,64.06 28.95,0 60.02,-0.32 93.25,-1 280.82,-5.76 538.47,-95.91 598.3,-253.298 35.27,-92.8 35,-140 -85,-170 -10.33,-2.582 -21.42,-3.871 -33.11,-3.871"
         style="fill:#1c6c65;fill-opacity:1;fill-rule:nonzero;stroke:none"
         id="path272" /><path
         d="m 4637.64,1525.22 c 0,0 -33.93,57.03 -303.93,47.03 -130.29,-4.82 -260,20 -450,40 -115.39,12.15 -2.52,-73.1 -2.52,-73.1 l -65.56,935.62 105.01,822.56 406.15,-50.52 310.85,-1721.59"
         style="fill:#b0b4b5;fill-opacity:1;fill-rule:nonzero;stroke:none"
         id="path274" /><path
         d="m 3391.27,2829.36 c 6.66,-26.94 3.49,-41.56 3.49,-41.56 0,0 14.33,-25.19 33.25,-24.08 98.42,5.53 311.48,-10.01 471.76,47.24 97.16,34.81 293.2,312.21 293.2,312.21 0,0 49.2,25.04 -5.63,129.67 -40.29,76.56 -89.88,134.41 -152.38,75.66 -39.86,-37.46 -190.51,-304.13 -242.89,-332.73 -101.21,-55.35 -390.73,-80.79 -390.73,-80.79 0,0 -29.91,-4.99 -10.07,-85.62"
         style="fill:#c1c7c9;fill-opacity:1;fill-rule:nonzero;stroke:none"
         id="path276" /><path
         d="m 4297.81,1078.82 c 0,0 -14.2,-32.23 5.03,-80.98 0,0 23.29,-18.078 26.95,-21.809 21.73,-21.691 93.74,-135.801 158.45,-138.718 70.59,-3.223 74.9,51.988 67.15,86.218 -3.87,17.379 -85.92,203.789 -85.92,203.789 l -171.66,-48.5"
         style="fill:#282827;fill-opacity:1;fill-rule:nonzero;stroke:none"
         id="path278" /><path
         d="m 3818.44,1330.06 c 0,0 -30.22,-56.45 -52.04,-66.27 -45.37,-20.41 -176.24,-59.48 -188.37,-63.92 -8.05,-2.87 -21.41,-12.83 -21.04,-27.5 0.17,-5.84 0.43,-9.48 4.06,-14.76 12.95,-18.67 39.87,-25.64 64.41,-31.59 66.82,-16.17 263.15,26.74 269.29,31.52 0,0 20.05,4.26 24.94,-5.61 1.79,-3.55 0.72,-17.35 1.11,-17.55 l 70.76,23.36 c 3.52,1.73 10.73,35.57 12.59,50.63 l -2.78,97.43 -182.93,24.26"
         style="fill:#231f20;fill-opacity:1;fill-rule:nonzero;stroke:none"
         id="path280" /><path
         d="m 3560.74,1165.72 c 16.86,-21.3 42.18,-29.19 66.88,-34.23 80.66,-16.27 269.31,29.51 269.31,29.51 16.16,2.1 22.85,-3.57 23.97,-13.14 l -0.1,-13.48 -22.23,14.9 c 0,0 -177.22,-45.31 -256.62,-36.61 -25.02,2.91 -67.3,17.82 -81.96,40.9 -2.59,4.04 -5.56,14 -2.51,20.92 0.39,-1.19 2.5,-7.75 3.26,-8.77"
         style="fill:#282827;fill-opacity:1;fill-rule:nonzero;stroke:none"
         id="path282" /><path
         d="m 3815.63,2474.77 -24.36,-1155.08 c -1.27,-38.53 -24.79,-49.9 -24,-54.44 11.54,-64.92 222.47,-83.86 243.49,-34.67 l 78.46,1240.59 -273.59,3.6"
         style="fill:#141413;fill-opacity:1;fill-rule:nonzero;stroke:none"
         id="path284" /><path
         d="m 3999.4,2471.17 26.78,-326.67 252.3,-1064.58 c 2.96,-22.76 14.43,-29.53 34.62,-34.61 116.67,-29.54 164.13,11.55 164.13,11.55 22.05,11.03 20.81,29.12 21.79,39.72 l -167.17,1347.87 -332.45,26.72"
         style="fill:#383736;fill-opacity:1;fill-rule:nonzero;stroke:none"
         id="path286" /><path
         d="m 4425.8,3295.46 c 0,0 -106.87,56.88 -245,74.38 -48.96,6.2 -185.17,-8.39 -185.17,-8.39 0,0 -174,-28.02 -197.09,-142.27 -2.35,-11.55 -52.43,-200.93 35.48,-777.77 8.54,-56.09 120.43,-79.62 251.37,-59.91 107.9,16.23 271.42,79.94 271.42,79.94 0,0 10.83,7.16 2.16,43.07 -22.42,92.54 -29.49,227.49 -24.87,310.14 7.38,131.72 91.7,480.81 91.7,480.81"
         style="fill:#63a3c6;fill-opacity:1;fill-rule:nonzero;stroke:none"
         id="path288" /><path
         d="m 4170.57,3646.27 c -36.38,-8.88 -31.99,-44.83 -31.99,-44.83 l 18,-73.13 c 0,0 5.67,-15.47 20.1,-14.91 21.64,0.89 26.21,21.15 30.59,43.33 0.3,1.25 4.9,33.56 5.12,35.52 4.07,27.38 -7.35,62.5 -41.82,54.02"
         style="fill:#ffe8d9;fill-opacity:1;fill-rule:nonzero;stroke:none"
         id="path290" /><path
         d="m 3985.2,3138.3 c 2.3,7.05 2.5,12.57 1.5,21.15 l -3.69,26.45 39.58,54.95 17.94,-4.38 6.97,-64.64 -19.66,-21.91 c -6.03,-4.96 -5.39,-27.72 -5.47,-35.29 0,0 -5.62,-386.3 33.02,-543.34 2.31,-9.44 -48.94,-148.6 -48.94,-148.6 0,0 -78.85,101.79 -80.56,133.41 -14.82,273.78 59.31,582.2 59.31,582.2"
         style="fill:#a52619;fill-opacity:1;fill-rule:nonzero;stroke:none"
         id="path292" /><path
         d="m 4030.31,3213.03 c 72.17,-72.98 111.82,47.51 159.68,103.14 l -19.63,230.14 -185.95,-55.9 9.52,-118.79 36.38,-158.59"
         style="fill:#ddbca6;fill-opacity:1;fill-rule:nonzero;stroke:none"
         id="path294" /><path
         d="m 4024.34,3249.32 c 3.65,-12.67 1.62,-19.68 -4.25,-27.3 l -36.79,-47.17 c -11.7,-14.14 -16.07,2.48 -15.75,17.8 l 5.2,111.11 c 9.55,69.26 22.99,56.3 22.99,56.3 0,0 0.69,3.77 3.69,-14.7 3.79,-23.64 20.56,-80.98 24.91,-96.04"
         style="fill:#76c3e3;fill-opacity:1;fill-rule:nonzero;stroke:none"
         id="path296" /><path
         d="m 4026.84,3745.81 -0.02,-0.07 144.03,-15.77 -25.13,-260.11 c -3.84,-17.58 -7.74,-40.97 -24.82,-56.96 -12.41,-11.55 -21.55,-16.17 -47.05,-28.5 0,0 -97.13,-35.55 -148.34,-10.86 -21.16,10.14 -26.31,37.56 -31.37,54.71 -5.84,19.3 -11.56,77.33 -11.32,92.47 l -6.6,126.38 3.84,100.18 146.78,-1.47"
         style="fill:#e8c5ac;fill-opacity:1;fill-rule:nonzero;stroke:none"
         id="path298" /><path
         d="m 3888.87,3793.39 c -26.51,-30.54 -18.89,-62.07 -15.92,-111.68 1.05,-18.31 4.76,-32.31 3.94,-32.94 -0.71,-0.6 2.15,23.27 2.77,43.85 1.53,50.94 31.53,43.7 52.33,38.98 l 93.01,-20.73 c 1.13,-1.98 -11.04,33.43 -5.25,29.91 24.98,-15.36 34.18,-23.6 46.91,-50.4 13.68,-29.02 18.65,-92.27 14.86,-114.8 l -2.34,-22.69 c -1.28,-11.83 -2.79,-20.6 -0.02,-20.75 9.37,-0.61 24.01,9.63 28.77,21.88 0,0 15.9,29.93 47.81,21.84 27.35,-6.91 -0.21,-69.43 -2.21,-72.58 l 0.59,-18.78 c 1.31,-13.14 12.77,-48.42 20.45,-33.06 12.97,26.01 42.04,82.84 50.92,98.53 97.07,172.57 -26.1,353.48 -218.18,298.7 -41.42,-11.84 -111.9,-47.82 -118.44,-55.28"
         style="fill:#332107;fill-opacity:1;fill-rule:nonzero;stroke:none"
         id="path300" /><path
         d="m 4173.95,3578.78 c -36.11,10.11 -49.91,-23.38 -49.91,-23.38 l -26.99,-53.52 c 0,0 -1.53,-21.72 11.29,-28.31 19.37,-9.91 22.5,-8.7 42.6,1.57 11.91,6.03 31.76,26.32 32.97,27.85 16.77,22.01 24.23,66.22 -9.96,75.79"
         style="fill:#e8c5ac;fill-opacity:1;fill-rule:nonzero;stroke:none"
         id="path302" /><path
         d="m 4183.61,3394.1 c 0,0 -1.01,-28.2 -7.05,-39.53 -34.28,-64.05 -130.54,-104.95 -130.54,-104.95 -11.74,-3.93 -21.87,-9.08 -20.86,-28.82 l 11.34,-76.18 c 1.15,-19.04 11.08,-17.46 18.88,-10 0,0 78.47,62.37 100.7,83.46 52.18,49.66 47.44,85.78 37.81,153.03 -2.67,18.94 -10.28,22.99 -10.28,22.99"
         style="fill:#76c3e3;fill-opacity:1;fill-rule:nonzero;stroke:none"
         id="path304" /><path
         d="m 3407.66,2912.62 c 0,0 -19.87,7.46 -26.58,-2.18 -6.83,-9.63 -19.3,-32.19 -9.56,-87.64 3.6,-19.78 14.57,-37.78 17.59,-42.66 4.52,-7.23 17.74,-22.22 27.67,-19.23 7.26,2.18 14.34,7.8 21.74,26.44 15.61,39.59 3.02,90.96 -5.06,100.17 -8.01,9.19 -25.8,25.1 -25.8,25.1"
         style="fill:#48819b;fill-opacity:1;fill-rule:nonzero;stroke:none"
         id="path306" /><path
         d="m 3461.29,2810.33 -87.49,-1.91 4.25,101.1 47.54,0.18 35.7,-99.37"
         style="fill:#e8c5ac;fill-opacity:1;fill-rule:nonzero;stroke:none"
         id="path308" /><path
         d="m 3394.94,2915.43 c 0,0 33.87,-1.67 43.32,-65.11 5.09,-33.71 1.84,-56.83 -4.87,-74.03 -5.08,-13.02 -17.08,-15.51 -17.08,-15.51 l 27.57,3.46 c 0,0 22.27,15.25 21.35,64.01 -1.34,72.26 -46.99,87.56 -46.99,87.56 l -23.3,-0.38"
         style="fill:#63a3c6;fill-opacity:1;fill-rule:nonzero;stroke:none"
         id="path310" /><path
         d="m 3393.52,2895.19 c -6.87,17.17 -14.85,32.2 -72.14,56.3 -0.63,-5.02 -3.91,-9.37 -10.72,-10.38 -24.41,-3.65 -42.06,-20.98 -60.96,-35.6 -7.2,-10.78 0.61,-5.57 4.47,-4.94 30.81,5.06 33.84,7.57 37.94,-0.19 11.18,-21.11 37.04,-51.62 65.37,-44.27 28.24,7.33 42.29,23.31 36.04,39.08"
         style="fill:#e8c5ac;fill-opacity:1;fill-rule:nonzero;stroke:none"
         id="path312" /><path
         d="m 4637.64,1525.22 -167.61,949.78 -16.44,575.14 -9.04,234.07 c -47.5,33.13 -160.53,64.91 -160.53,64.91 0,0 -30.47,-89.75 -76.5,-163.57 -20.18,-32.27 -43.13,-503.5 -43.13,-851.86 l 58.38,-764.94 c -9.67,-89.04 48.87,-102.26 69.63,-109.62 25,-8.82 118.99,4.44 118.99,4.44 135.18,20.52 228.69,69.58 226.25,61.65"
         style="fill:#dbdddd;fill-opacity:1;fill-rule:nonzero;stroke:none"
         id="path314" /><path
         d="m 3897.19,3137.59 c 47.31,121.12 76.41,198.32 98.44,223.86 -22.76,2.88 -86.92,-12.95 -95.77,-18.2 -1.25,-0.75 -70.5,-32.94 -93.76,-83.77 -33.99,-74.26 -31.5,-142.84 -52.7,-244.96 -64.05,-308.53 8.42,-1352.34 8.42,-1352.34 -0.98,-23.67 0.03,-51.79 24.53,-72.67 0,0 67.17,-41.91 94.84,-50.36 0,0 -112.54,1269.04 16,1598.44"
         style="fill:#d8d8d8;fill-opacity:1;fill-rule:nonzero;stroke:none"
         id="path316" /><path
         d="m 3982.4,3328.44 13.23,33.01 c 0,0 -3.9,-1.38 -16.65,-8.16 -21.44,-11.45 -58.34,-55.96 -58.34,-55.96 L 3859.96,3216 c -6.64,-17.38 -24.49,-29.64 -11.83,-60.66 l 22.06,-59.47 -38.96,-24.04 c -18.29,-12.97 -33.83,-38.17 -30.89,-86.62 l 39.62,-275.46 c 0,0 22.46,317.4 43.43,383.19 47.14,147.87 99.01,235.5 99.01,235.5"
         style="fill:#ffffff;fill-opacity:1;fill-rule:nonzero;stroke:none"
         id="path318" /><path
         d="m 4272.19,3352.66 16.27,-5.03 c 0,0 23.77,-7.14 35.45,-44.66 4.66,-14.94 2.88,-56.16 2.88,-56.16 l -35.42,-125.53 c -7.31,-26.88 -17.07,-35.84 -37.39,-37.45 l -57.77,-22.83 36.62,-28.87 c 15.86,-10.98 28.06,-18.32 7.26,-69.57 l -70.13,-289.06 c 0,0 -23.05,296 13.95,439.17 30.86,119.16 88.28,239.99 88.28,239.99"
         style="fill:#ffffff;fill-opacity:1;fill-rule:nonzero;stroke:none"
         id="path320" /><path
         d="m 4429.39,3255.26 c 100.47,-9.58 97.64,-243 97.64,-243 0,0 50.82,-344.28 0.84,-388.34 -58.81,-51.85 -423.03,-70.21 -542.6,-89.43 -64.15,-10.31 -9.64,99 -9.64,99 0.91,14.01 458.93,64.27 444.74,97.93 -42.5,100.84 -52.19,308.46 -50,327.5 8.97,83.71 -28.47,204.6 59.02,196.34"
         style="fill:#edcfbc;fill-opacity:1;fill-rule:nonzero;stroke:none"
         id="path322" /><path
         d="m 3984.62,2561.83 c -30.11,-6.76 -59.4,29.14 -65.56,56.64 -2.32,9.78 -60.3,2.37 -84.39,11.78 -25.67,9.59 -17.69,35.69 -11.9,40.76 4.57,4.14 92.97,-2.17 115.13,-2.92 74.36,-2.62 83.55,-30.15 89.57,-57.65 6.64,-27.63 -12.86,-41.42 -42.85,-48.61"
         style="fill:#edcfbc;fill-opacity:1;fill-rule:nonzero;stroke:none"
         id="path324" /><path
         d="m 3985.27,2534.49 -5.6,36.37 -60.55,68.86 c 0,0 -13.71,-10.16 -60.9,-17.62 -35.6,-5.6 -47.68,-9.33 -79.05,-15.02 -29.79,-5.38 -50.73,-8.98 -47.32,-16.07 4.18,-8.67 6.61,-15.65 26.86,-32.51 15,-12.5 35,-32.92 35,-32.92 29.38,-19.37 126.99,-16.57 191.56,8.91"
         style="fill:#edcfbc;fill-opacity:1;fill-rule:nonzero;stroke:none"
         id="path326" /><path
         d="m 4035.37,2503.92 c 27.52,-2.96 453.37,45.18 510,65 50,17.5 45.88,64.64 45,125 -2.5,172.5 -59.16,465 -59.16,465 -11.25,56.25 -55.74,155.65 -128.34,121.66 -68.58,-32.11 -59.49,-254.92 -59.16,-275 0.83,-50.83 51.66,-279.16 51.66,-279.16 l -398.33,-64.17 c 0,0 -47.63,-149.06 38.33,-158.33"
         style="fill:#f4f4f4;fill-opacity:1;fill-rule:nonzero;stroke:none"
         id="path328" /><path
         d="m 3558.6,3079.35 c 10.23,-2.36 18.46,-10.07 21.5,-20.11 l 130.23,-430.66 c 1.31,-4.34 -1.61,-7.49 -3.7,-10.87 -2.89,-4.65 -12.42,-14.5 -15.39,-13.82 l -273.5,97.16 c -10.22,2.36 -18.45,10.07 -21.49,20.11 l -145.84,422.53 c 8.13,8.13 19.88,22.29 27.26,20.59 l 280.93,-84.93"
         style="fill:#aeafaf;fill-opacity:1;fill-rule:nonzero;stroke:none"
         id="path330" /><path
         d="m 3534.44,3057.7 c 10.22,-2.36 18.46,-10.07 21.49,-20.11 l 130.23,-430.66 c 2.19,-7.25 -4.27,-14.15 -11.65,-12.45 l -280.93,84.92 c -10.23,2.36 -18.46,10.07 -21.5,20.1 l -130.23,430.68 c -2.19,7.24 4.28,14.15 11.66,12.45 l 280.93,-84.93"
         style="fill:#7a7c7c;fill-opacity:1;fill-rule:nonzero;stroke:none"
         id="path332" /><path
         d="m 3410.1,2882.05 c -5.1,6.43 -6.03,6.9 -9.69,11.01 -9.37,10.54 -25,16.25 -37.47,12.5 l -25.94,-6.74 c 0,0 -15.16,-4.71 -36.49,3.09 -8.32,3.05 -22.8,8.49 -22.8,8.49 0,0 -58.49,-5.04 -40.23,-42.24 6,-12.04 18.85,-19.47 18.85,-19.47 5.7,-16.57 18.79,-43.59 26.25,-61.66 17.32,-41.96 73.88,-23.03 73.88,-23.03 l 37.57,8.97 c 37.77,29.05 50.36,74.88 16.07,109.08"
         style="fill:#e8c5ac;fill-opacity:1;fill-rule:nonzero;stroke:none"
         id="path334" /><path
         d="m 6871.88,4620.03 c -61.57,0 -139.54,35.92 -206.88,108.87 -68.77,74.54 -241.78,105.12 -540,150 -56.41,8.44 -246.32,30.09 -209,105.24 16.83,33.92 103.24,64.06 382.44,64.06 28.96,0 60.01,-0.32 93.26,-1 280.82,-5.76 538.47,-95.91 598.3,-253.3 35.27,-92.8 35,-140 -85,-170 -10.33,-2.58 -21.42,-3.88 -33.12,-3.87"
         style="fill:#1c6c65;fill-opacity:1;fill-rule:nonzero;stroke:none"
         id="path336" /><path
         d="m 5548.73,7133.53 c 0,0 -23.6,60.76 -31.42,72.02 -19.83,28.54 -74.11,32.55 -101.74,57.69 -11.97,10.88 -25,20.22 -25,20.22 0,0 -30.25,-5.97 -15.83,-29.8 21.75,-35.97 53.86,-40.22 53.86,-40.22 0,0 -35.93,2.7 -102.2,10.05 -39,4.32 -75.43,-7.55 -95.63,-24.38 -15,-12.5 -25.62,-21.87 8.75,-27.5 38.65,-6.32 98.13,-36.87 139.38,-45 61.15,-12.04 102.5,-27.5 102.5,-27.5 l 47.5,-6.25 19.83,40.67"
         style="fill:#f2c8a5;fill-opacity:1;fill-rule:nonzero;stroke:none"
         id="path338" /><path
         d="m 7031.02,5354.02 c 0,0 -33.93,57.03 -303.93,47.03 -130.29,-4.82 -260,20 -450,40 -115.38,12.15 -2.52,-73.09 -2.52,-73.09 l -65.55,935.61 105,822.56 406.16,-50.52 310.84,-1721.59"
         style="fill:#b0b4b5;fill-opacity:1;fill-rule:nonzero;stroke:none"
         id="path340" /><path
         d="m 5481.26,7141.45 c -10.19,-25.8 -21.26,-35.88 -21.26,-35.88 0,0 -2.92,-28.84 13.13,-38.89 83.4,-52.56 218.54,-224.45 356.87,-286.11 94.28,-42.03 426.25,96.83 426.25,96.83 0,0 54.61,-8.13 70.59,108.91 11.57,85.74 4.69,161.63 -80.29,150 -54.19,-7.42 -328.66,-169.97 -383.21,-145.74 -119.06,52.87 -324.24,214.81 -324.24,214.81 0,0 -27.26,13.28 -57.84,-63.93"
         style="fill:#c1c7c9;fill-opacity:1;fill-rule:nonzero;stroke:none"
         id="path342" /><path
         d="m 6691.19,4907.63 c 0,0 -14.2,-32.24 5.04,-80.99 0,0 23.28,-18.08 26.95,-21.81 21.72,-21.69 93.73,-135.8 158.44,-138.72 70.59,-3.22 74.9,51.99 67.15,86.22 -3.87,17.38 -85.92,203.79 -85.92,203.79 l -171.66,-48.49"
         style="fill:#282827;fill-opacity:1;fill-rule:nonzero;stroke:none"
         id="path344" /><path
         d="m 6211.82,5158.87 c 0,0 -30.22,-56.46 -52.04,-66.27 -45.37,-20.41 -176.25,-59.49 -188.37,-63.93 -8.04,-2.87 -21.41,-12.83 -21.03,-27.5 0.17,-5.84 0.42,-9.47 4.05,-14.76 12.95,-18.67 39.87,-25.64 64.42,-31.59 66.81,-16.17 263.14,26.74 269.28,31.53 0,0 20.05,4.25 24.95,-5.62 1.78,-3.54 0.72,-17.34 1.11,-17.55 l 70.75,23.36 c 3.52,1.73 10.74,35.58 12.6,50.64 l -2.79,97.43 -182.93,24.26"
         style="fill:#231f20;fill-opacity:1;fill-rule:nonzero;stroke:none"
         id="path346" /><path
         d="m 5954.12,4994.52 c 16.86,-21.3 42.19,-29.19 66.88,-34.23 80.66,-16.27 269.32,29.51 269.32,29.51 16.14,2.1 22.85,-3.57 23.96,-13.14 l -0.09,-13.48 -22.24,14.9 c 0,0 -177.21,-45.31 -256.61,-36.61 -25.02,2.91 -67.3,17.83 -81.96,40.9 -2.6,4.04 -5.57,14.01 -2.52,20.92 0.39,-1.18 2.5,-7.74 3.26,-8.77"
         style="fill:#282827;fill-opacity:1;fill-rule:nonzero;stroke:none"
         id="path348" /><path
         d="M 6209.02,6303.57 6184.65,5148.5 c -1.26,-38.54 -24.79,-49.91 -23.99,-54.45 11.53,-64.92 222.47,-83.86 243.49,-34.67 l 78.45,1240.59 -273.58,3.6"
         style="fill:#141413;fill-opacity:1;fill-rule:nonzero;stroke:none"
         id="path350" /><path
         d="m 6392.79,6299.97 26.78,-326.67 252.28,-1064.58 c 2.97,-22.76 14.44,-29.52 34.63,-34.61 116.66,-29.53 164.12,11.55 164.12,11.55 22.06,11.04 20.83,29.12 21.8,39.72 l -167.17,1347.87 -332.44,26.72"
         style="fill:#383736;fill-opacity:1;fill-rule:nonzero;stroke:none"
         id="path352" /><path
         d="m 6819.18,7124.27 c 0,0 -106.87,56.87 -244.99,74.37 -48.97,6.2 -185.19,-8.39 -185.19,-8.39 0,0 -173.98,-28.02 -197.07,-142.26 -2.36,-11.56 -52.43,-200.93 35.47,-777.78 8.54,-56.09 120.43,-79.62 251.37,-59.91 107.91,16.23 271.42,79.94 271.42,79.94 0,0 10.83,7.16 2.17,43.07 -22.42,92.55 -29.49,227.5 -24.88,310.15 7.39,131.71 91.7,480.81 91.7,480.81"
         style="fill:#63a3c6;fill-opacity:1;fill-rule:nonzero;stroke:none"
         id="path354" /><path
         d="m 6563.96,7475.08 c -36.38,-8.89 -31.99,-44.84 -31.99,-44.84 l 18,-73.12 c 0,0 5.66,-15.48 20.09,-14.91 21.65,0.88 26.22,21.15 30.58,43.33 0.32,1.25 4.91,33.55 5.14,35.51 4.06,27.39 -7.36,62.5 -41.82,54.03"
         style="fill:#ffe8d9;fill-opacity:1;fill-rule:nonzero;stroke:none"
         id="path356" /><path
         d="m 6378.59,6967.11 c 2.29,7.04 2.5,12.57 1.5,21.14 l -3.7,26.46 39.59,54.95 17.93,-4.39 6.97,-64.64 -19.65,-21.9 c -6.04,-4.97 -5.39,-27.73 -5.47,-35.29 0,0 -5.62,-386.3 33.01,-543.34 2.32,-9.45 -48.93,-148.61 -48.93,-148.61 0,0 -78.86,101.79 -80.56,133.41 -14.83,273.78 59.31,582.21 59.31,582.21"
         style="fill:#a52619;fill-opacity:1;fill-rule:nonzero;stroke:none"
         id="path358" /><path
         d="m 6423.69,7041.83 c 72.17,-72.97 111.83,47.51 159.69,103.14 l -19.63,230.15 -185.96,-55.9 9.51,-118.79 36.39,-158.6"
         style="fill:#e8c5ac;fill-opacity:1;fill-rule:nonzero;stroke:none"
         id="path360" /><path
         d="m 6417.72,7078.12 c 3.65,-12.66 1.62,-19.67 -4.24,-27.29 l -36.79,-47.18 c -11.7,-14.14 -16.08,2.48 -15.75,17.8 l 5.19,111.12 c 9.56,69.25 22.99,56.3 22.99,56.3 0,0 0.68,3.76 3.69,-14.7 3.8,-23.64 20.57,-80.99 24.91,-96.05"
         style="fill:#76c3e3;fill-opacity:1;fill-rule:nonzero;stroke:none"
         id="path362" /><path
         d="m 6420.21,7574.62 -0.02,-0.08 144.05,-15.76 -25.13,-260.12 c -3.84,-17.58 -7.74,-40.97 -24.82,-56.95 -12.41,-11.56 -21.56,-16.17 -47.06,-28.51 0,0 -97.13,-35.55 -148.34,-10.86 -21.16,10.15 -26.31,37.56 -31.37,54.71 -5.84,19.31 -11.56,77.33 -11.31,92.47 l -6.6,126.39 3.83,100.17 146.77,-1.46"
         style="fill:#e8c5ac;fill-opacity:1;fill-rule:nonzero;stroke:none"
         id="path364" /><path
         d="m 6282.25,7622.2 c -26.51,-30.55 -18.89,-62.07 -15.92,-111.68 1.06,-18.31 4.76,-32.32 3.94,-32.94 -0.7,-0.61 2.15,23.27 2.78,43.85 1.52,50.93 31.53,43.7 52.33,38.97 l 93,-20.72 c 1.14,-1.98 -11.04,33.43 -5.25,29.91 24.97,-15.36 34.17,-23.61 46.91,-50.4 13.69,-29.03 18.65,-92.28 14.86,-114.81 l -2.33,-22.68 c -1.28,-11.84 -2.8,-20.61 -0.03,-20.75 9.38,-0.62 24.02,9.62 28.77,21.87 0,0 15.9,29.93 47.82,21.85 27.34,-6.92 -0.22,-69.44 -2.22,-72.58 l 0.59,-18.79 c 1.31,-13.14 12.77,-48.42 20.45,-33.06 12.97,26.02 42.05,82.85 50.92,98.54 97.07,172.57 -26.09,353.47 -218.17,298.69 -41.42,-11.84 -111.91,-47.81 -118.45,-55.27"
         style="fill:#332107;fill-opacity:1;fill-rule:nonzero;stroke:none"
         id="path366" /><path
         d="m 6567.32,7407.59 c -36.09,10.1 -49.89,-23.38 -49.89,-23.38 l -26.99,-53.53 c 0,0 -1.53,-21.72 11.28,-28.31 19.38,-9.91 22.5,-8.7 42.61,1.57 11.9,6.04 31.75,26.32 32.95,27.86 16.78,22.01 24.24,66.22 -9.96,75.79"
         style="fill:#e8c5ac;fill-opacity:1;fill-rule:nonzero;stroke:none"
         id="path368" /><path
         d="m 6576.99,7222.9 c 0,0 -1,-28.19 -7.04,-39.52 -34.29,-64.06 -130.56,-104.95 -130.56,-104.95 -11.73,-3.94 -21.85,-9.09 -20.86,-28.82 l 11.36,-76.18 c 1.14,-19.05 11.07,-17.47 18.88,-10 0,0 78.46,62.36 100.7,83.45 52.18,49.66 47.42,85.78 37.8,153.03 -2.66,18.95 -10.28,22.99 -10.28,22.99"
         style="fill:#76c3e3;fill-opacity:1;fill-rule:nonzero;stroke:none"
         id="path370" /><path
         d="m 7031.02,5354.02 -167.6,949.79 -16.45,575.13 -9.04,234.08 c -47.49,33.12 -160.53,64.91 -160.53,64.91 0,0 -30.46,-89.76 -76.49,-163.58 -20.19,-32.26 -43.14,-503.49 -43.14,-851.85 l 58.38,-764.94 c -9.67,-89.05 48.88,-102.27 69.63,-109.63 25,-8.82 118.99,4.44 118.99,4.44 135.19,20.52 228.69,69.58 226.25,61.65"
         style="fill:#e1e4e5;fill-opacity:1;fill-rule:nonzero;stroke:none"
         id="path372" /><path
         d="m 6290.57,6966.39 c 47.32,121.13 76.42,198.32 98.43,223.86 -22.74,2.88 -86.91,-12.95 -95.76,-18.2 -1.25,-0.74 -70.49,-32.94 -93.75,-83.77 -34,-74.26 -31.5,-142.83 -52.71,-244.96 -64.05,-308.53 8.41,-1352.34 8.41,-1352.34 -0.97,-23.67 0.04,-51.78 24.54,-72.67 0,0 67.16,-41.91 94.84,-50.35 0,0 -112.54,1269.03 16,1598.43"
         style="fill:#e1e4e5;fill-opacity:1;fill-rule:nonzero;stroke:none"
         id="path374" /><path
         d="m 6375.79,7157.24 13.21,33.01 c 0,0 -3.88,-1.37 -16.64,-8.15 -21.44,-11.46 -58.34,-55.97 -58.34,-55.97 l -60.68,-81.33 c -6.64,-17.38 -24.48,-29.64 -11.83,-60.66 l 22.06,-59.46 -38.96,-24.05 c -18.28,-12.97 -33.83,-38.17 -30.88,-86.62 l 39.61,-275.46 c 0,0 22.46,317.41 43.44,383.2 47.13,147.87 99.01,235.49 99.01,235.49"
         style="fill:#ffffff;fill-opacity:1;fill-rule:nonzero;stroke:none"
         id="path376" /><path
         d="m 6665.57,7181.46 16.28,-5.03 c 0,0 23.75,-7.13 35.44,-44.65 4.66,-14.94 2.89,-56.17 2.89,-56.17 l -35.42,-125.52 c -7.32,-26.89 -17.07,-35.84 -37.4,-37.45 l -57.77,-22.84 36.62,-28.86 c 15.86,-10.99 28.07,-18.32 7.27,-69.57 l -70.14,-289.07 c 0,0 -23.04,296.01 13.95,439.17 30.85,119.16 88.28,239.99 88.28,239.99"
         style="fill:#ffffff;fill-opacity:1;fill-rule:nonzero;stroke:none"
         id="path378" /><path
         d="m 7587,6960.21 c 4.61,-27.35 -6.99,-41.31 -6.99,-41.31 0,0 -12.57,-40.65 -29.38,-49.38 -90,-46.66 -231.53,-158.37 -379.64,-190.01 -100.95,-21.55 -396.9,183.15 -396.9,183.15 0,0 -55.11,3.38 -46.45,121.19 6.46,86.27 28.93,159.09 109.64,130.08 51.48,-18.49 286.26,-234.45 344.65,-222.07 127.45,27.03 357.45,140.58 357.45,140.58 0,0 33.72,9.64 47.62,-72.23"
         style="fill:#f7f7f7;fill-opacity:1;fill-rule:nonzero;stroke:none"
         id="path380" /><path
         d="m 7552.67,7036.04 c 0,0 25.39,10.57 31.05,-25.2 5.66,-35.76 0.61,-84.91 -15.17,-117.04 -12.06,-24.67 -22.66,-32.46 -38.9,-26.75 -16.76,5.87 -27.09,62.89 -17.73,96.44 9.32,33.55 24.33,61.97 40.75,72.55"
         style="fill:#c3dddb;fill-opacity:1;fill-rule:nonzero;stroke:none"
         id="path382" /><path
         d="m 7526.24,6990.87 c 0,0 54.04,22.42 66.06,24.24 30.43,4.59 65.76,-15.91 98.26,-9.38 14.63,2.94 29.1,9.71 29.1,9.71 0,0 18.47,-24.08 -5.24,-38.59 -32.48,-19.91 -58.6,-8.31 -58.6,-8.31 0,0 56.11,-53.1 93.21,-71.01 30.99,-14.93 35.17,-6.81 41.93,-15.21 6.75,-8.38 4.03,-32.63 -11.19,-43.54 -28.99,-20.79 -75.61,-26.49 -119.01,-5.03 -43.4,21.42 -92.62,66.65 -92.62,66.65 l -65.33,12.64 23.43,77.83"
         style="fill:#f2c8a5;fill-opacity:1;fill-rule:nonzero;stroke:none"
         id="path384" /><path
         d="m 7555,7036.87 c 0,0 -7.92,-15.47 -19.17,-65.47 -8.15,-36.24 -8.09,-71.59 -6.01,-83.35 3.79,-21.26 16.22,-22.07 11.02,-23.53 -1.17,-0.32 -21.34,4.51 -21.34,4.51 0,0 -36.88,13.06 -12,99.87 13.52,47.21 31.88,63.54 31.88,63.54 l 15.62,4.43"
         style="fill:#f7f7f7;fill-opacity:1;fill-rule:nonzero;stroke:none"
         id="path386" /></g></g></svg>
