<?xml version="1.0" encoding="UTF-8" standalone="no"?>
<svg
   xmlns:dc="http://purl.org/dc/elements/1.1/"
   xmlns:cc="http://creativecommons.org/ns#"
   xmlns:rdf="http://www.w3.org/1999/02/22-rdf-syntax-ns#"
   xmlns:svg="http://www.w3.org/2000/svg"
   xmlns="http://www.w3.org/2000/svg"
   xmlns:sodipodi="http://sodipodi.sourceforge.net/DTD/sodipodi-0.dtd"
   xmlns:inkscape="http://www.inkscape.org/namespaces/inkscape"
   version="1.1"
   id="svg2"
   xml:space="preserve"
   width="1000"
   height="666.66669"
   viewBox="0 0 1000 666.66669"
   sodipodi:docname="4886724.eps"><metadata
     id="metadata8"><rdf:RDF><cc:Work
         rdf:about=""><dc:format>image/svg+xml</dc:format><dc:type
           rdf:resource="http://purl.org/dc/dcmitype/StillImage" /></cc:Work></rdf:RDF></metadata><defs
     id="defs6"><clipPath
       clipPathUnits="userSpaceOnUse"
       id="clipPath284"><path
         d="m 669.957,110.648 c -24.102,0 -47.621,2.602 -70.273,7.364 68.828,57.578 160.461,86.437 229.144,145.457 38.531,33.332 68.547,76.051 87.742,123.09 5.77,13.863 8.223,34.351 10.965,55.132 h 78.205 C 1003.15,258.422 853.941,110.648 669.957,110.648"
         id="path282" /></clipPath></defs><sodipodi:namedview
     pagecolor="#ffffff"
     bordercolor="#666666"
     borderopacity="1"
     objecttolerance="10"
     gridtolerance="10"
     guidetolerance="10"
     inkscape:pageopacity="0"
     inkscape:pageshadow="2"
     inkscape:window-width="640"
     inkscape:window-height="480"
     id="namedview4" /><g
     id="g10"
     inkscape:groupmode="layer"
     inkscape:label="ink_ext_XXXXXX"
     transform="matrix(1.3333333,0,0,-1.3333333,0,666.66667)"><g
       id="g12"
       transform="scale(0.1)"><path
         d="M 0,0 H 7500 V 5000 H 0 Z"
         style="fill:#fbfeff;fill-opacity:1;fill-rule:nonzero;stroke:none"
         id="path14" /><path
         d="M 0,1262.06 H 7500 V 5000.01 H 0 Z"
         style="fill:#ece4df;fill-opacity:1;fill-rule:nonzero;stroke:none"
         id="path16" /><path
         d="m 4746.79,1755.3 h 2368.33 v 89.6406 H 4746.79 Z"
         style="fill:#7baee1;fill-opacity:1;fill-rule:nonzero;stroke:none"
         id="path18" /><path
         d="m 4780.41,1264.65 h -93.66 v 676.51 c 0,141.85 115.4,257.25 257.25,257.25 h 1989 c 141.86,0 257.26,-115.4 257.26,-257.25 v -671.79 h -93.65 v 671.79 c 0,90.21 -73.4,163.61 -163.61,163.61 H 4944 c -90.2,0 -163.59,-73.4 -163.59,-163.61 v -676.51"
         style="fill:#fbfcfc;fill-opacity:1;fill-rule:nonzero;stroke:none"
         id="path20" /><path
         d="M 7030.21,1844.89 H 4850.54 v 437.69 c 0,80.19 65.01,145.2 145.21,145.2 h 1889.26 c 80.19,0 145.2,-65.01 145.2,-145.2 v -437.69"
         style="fill:#d5eaf9;fill-opacity:1;fill-rule:nonzero;stroke:none"
         id="path22" /><path
         d="m 5548.46,1263.1 h -93.65 v 883.61 h 93.65 V 1263.1"
         style="fill:#fbfcfc;fill-opacity:1;fill-rule:nonzero;stroke:none"
         id="path24" /><path
         d="m 6402.39,1263.1 h -93.65 v 893.22 h 93.65 V 1263.1"
         style="fill:#fbfcfc;fill-opacity:1;fill-rule:nonzero;stroke:none"
         id="path26" /><path
         d="m 1300.96,2937.35 h 1403.32 v 756.367 H 1300.96 Z"
         style="fill:#edf5fc;fill-opacity:1;fill-rule:nonzero;stroke:none"
         id="path28" /><path
         d="m 1530.48,2937.33 h -229.53 v 756.39 h 229.53 v -756.39"
         style="fill:#d5eaf9;fill-opacity:1;fill-rule:nonzero;stroke:none"
         id="path30" /><path
         d="m 1483.42,3228.71 v 0 c -5.96,0 -10.78,4.83 -10.78,10.79 v 152.6 c 0,5.96 4.82,10.78 10.78,10.78 5.95,0 10.78,-4.82 10.78,-10.78 v -152.6 c 0,-5.96 -4.83,-10.79 -10.78,-10.79"
         style="fill:#ffffff;fill-opacity:1;fill-rule:nonzero;stroke:none"
         id="path32" /><path
         d="m 1611.97,2937.33 h 627.012 v 126.887 H 1611.97 Z"
         style="fill:#d5eaf9;fill-opacity:1;fill-rule:nonzero;stroke:none"
         id="path34" /><path
         d="m 1611.97,3084.13 h 627.012 v 126.891 H 1611.97 Z"
         style="fill:#d5eaf9;fill-opacity:1;fill-rule:nonzero;stroke:none"
         id="path36" /><path
         d="m 1611.97,3235.9 h 627.012 v 126.902 H 1611.97 Z"
         style="fill:#d5eaf9;fill-opacity:1;fill-rule:nonzero;stroke:none"
         id="path38" /><path
         d="m 1611.97,3386.85 h 627.012 v 126.887 H 1611.97 Z"
         style="fill:#d5eaf9;fill-opacity:1;fill-rule:nonzero;stroke:none"
         id="path40" /><path
         d="m 2301.18,2937.33 h 348.34 v 126.887 h -348.34 z"
         style="fill:#d5eaf9;fill-opacity:1;fill-rule:nonzero;stroke:none"
         id="path42" /><path
         d="m 2301.18,3084.13 h 348.34 v 126.891 h -348.34 z"
         style="fill:#d5eaf9;fill-opacity:1;fill-rule:nonzero;stroke:none"
         id="path44" /><path
         d="m 2301.18,3235.9 h 348.34 v 126.902 h -348.34 z"
         style="fill:#d5eaf9;fill-opacity:1;fill-rule:nonzero;stroke:none"
         id="path46" /><path
         d="m 2086.84,3064.22 h -322.37 l 9.03,19.91 h 322.38 l -9.04,-19.91 m 66.62,146.8 h -322.39 l 11.29,24.88 h 322.39 l -11.29,-24.88"
         style="fill:#eff6fc;fill-opacity:1;fill-rule:nonzero;stroke:none"
         id="path48" /><path
         d="m 1851.93,2937.35 h -145.02 l 57.56,126.87 h 322.37 l -12.65,-27.88 c -24.37,17.05 -45.4,18.66 -45.4,18.66 -7.29,0.71 -14.29,1.06 -21.07,1.06 -85.51,0 -131.36,-55.08 -155.79,-118.71"
         style="fill:#deeffa;fill-opacity:1;fill-rule:nonzero;stroke:none"
         id="path50" /><path
         d="M 2095.88,3084.13 H 1773.5 l 57.57,126.89 h 322.39 l -57.58,-126.89"
         style="fill:#deeffa;fill-opacity:1;fill-rule:nonzero;stroke:none"
         id="path52" /><path
         d="m 2222.32,3362.8 h -322.39 l 10.92,24.05 h 322.39 l -10.92,-24.05 m 16.66,36.7 v 114.24 h -270.56 l 81.66,179.98 h 322.4 l -133.5,-294.22"
         style="fill:#eff6fc;fill-opacity:1;fill-rule:nonzero;stroke:none"
         id="path54" /><path
         d="m 2164.75,3235.9 h -322.39 l 57.57,126.9 h 322.39 l -57.57,-126.9"
         style="fill:#deeffa;fill-opacity:1;fill-rule:nonzero;stroke:none"
         id="path56" /><path
         d="m 2233.24,3386.85 h -322.39 l 57.57,126.89 h 270.56 V 3399.5 l -5.74,-12.65"
         style="fill:#deeffa;fill-opacity:1;fill-rule:nonzero;stroke:none"
         id="path58" /><path
         d="m 2261.56,2937.35 h -22.58 v 126.87 h -81.06 l 9.04,19.91 h 72.02 v 126.89 h -14.45 l 11.29,24.88 h 3.16 v 6.96 l 204.58,450.86 h 161.17 L 2454.59,3362.8 h -153.41 v -126.9 h 95.83 l -11.28,-24.88 h -84.55 v -126.89 h 26.97 l -9.03,-19.91 h -17.94 v -39.54 l -39.62,-87.33"
         style="fill:#eff6fc;fill-opacity:1;fill-rule:nonzero;stroke:none"
         id="path60" /><path
         d="m 2238.98,2937.35 h -102.3 c -4.48,16.97 -10.09,31.51 -16.38,43.95 l 37.62,82.92 h 81.06 v -126.87"
         style="fill:#deeffa;fill-opacity:1;fill-rule:nonzero;stroke:none"
         id="path62" /><path
         d="m 2238.98,3084.13 h -72.02 l 57.57,126.89 h 14.45 v -126.89"
         style="fill:#deeffa;fill-opacity:1;fill-rule:nonzero;stroke:none"
         id="path64" /><path
         d="m 2238.98,3235.9 h -3.16 l 3.16,6.96 v -6.96"
         style="fill:#deeffa;fill-opacity:1;fill-rule:nonzero;stroke:none"
         id="path66" /><path
         d="m 2301.18,3024.68 v 39.54 h 17.94 l -17.94,-39.54"
         style="fill:#deeffa;fill-opacity:1;fill-rule:nonzero;stroke:none"
         id="path68" /><path
         d="m 2328.15,3084.13 h -26.97 v 126.89 h 84.55 l -57.58,-126.89"
         style="fill:#deeffa;fill-opacity:1;fill-rule:nonzero;stroke:none"
         id="path70" /><path
         d="m 2397.01,3235.9 h -95.83 v 126.9 h 153.41 l -57.58,-126.9"
         style="fill:#deeffa;fill-opacity:1;fill-rule:nonzero;stroke:none"
         id="path72" /><path
         d="m 2897.15,2937.35 h 1403.33 v 756.367 H 2897.15 Z"
         style="fill:#edf5fc;fill-opacity:1;fill-rule:nonzero;stroke:none"
         id="path74" /><path
         d="m 3126.67,2937.33 h -229.52 v 756.39 h 229.52 v -756.39"
         style="fill:#d5eaf9;fill-opacity:1;fill-rule:nonzero;stroke:none"
         id="path76" /><path
         d="m 3079.62,3228.71 v 0 c -5.96,0 -10.79,4.83 -10.79,10.79 v 152.6 c 0,5.96 4.83,10.78 10.79,10.78 5.95,0 10.78,-4.82 10.78,-10.78 v -152.6 c 0,-5.96 -4.83,-10.79 -10.78,-10.79"
         style="fill:#ffffff;fill-opacity:1;fill-rule:nonzero;stroke:none"
         id="path78" /><path
         d="m 3208.17,2937.33 h 627 v 126.887 h -627 z"
         style="fill:#d5eaf9;fill-opacity:1;fill-rule:nonzero;stroke:none"
         id="path80" /><path
         d="m 3208.17,3084.13 h 627 v 126.891 h -627 z"
         style="fill:#d5eaf9;fill-opacity:1;fill-rule:nonzero;stroke:none"
         id="path82" /><path
         d="m 3208.17,3235.9 h 627 v 126.902 h -627 z"
         style="fill:#d5eaf9;fill-opacity:1;fill-rule:nonzero;stroke:none"
         id="path84" /><path
         d="m 3208.17,3386.85 h 627 v 126.887 h -627 z"
         style="fill:#d5eaf9;fill-opacity:1;fill-rule:nonzero;stroke:none"
         id="path86" /><path
         d="m 3897.38,2937.33 h 348.34 v 126.887 h -348.34 z"
         style="fill:#d5eaf9;fill-opacity:1;fill-rule:nonzero;stroke:none"
         id="path88" /><path
         d="m 3897.38,3084.13 h 348.34 v 126.891 h -348.34 z"
         style="fill:#d5eaf9;fill-opacity:1;fill-rule:nonzero;stroke:none"
         id="path90" /><path
         d="m 3897.38,3235.9 h 348.34 v 126.902 h -348.34 z"
         style="fill:#d5eaf9;fill-opacity:1;fill-rule:nonzero;stroke:none"
         id="path92" /><path
         d="m 3683.04,3064.22 h -322.37 l 9.03,19.91 h 322.37 l -9.03,-19.91 m 66.61,146.8 h -322.38 l 11.29,24.88 h 322.38 l -11.29,-24.88 m 68.87,151.78 h -322.39 l 10.91,24.05 h 322.39 l -10.91,-24.05 m 16.65,36.7 v 114.24 h -270.55 l 81.65,179.98 h 322.41 L 3835.17,3399.5"
         style="fill:#eff6fc;fill-opacity:1;fill-rule:nonzero;stroke:none"
         id="path94" /><path
         d="M 3625.47,2937.35 H 3303.1 l 57.57,126.87 h 322.37 l -57.57,-126.87"
         style="fill:#deeffa;fill-opacity:1;fill-rule:nonzero;stroke:none"
         id="path96" /><path
         d="M 3692.07,3084.13 H 3369.7 l 57.57,126.89 h 322.38 l -57.58,-126.89"
         style="fill:#deeffa;fill-opacity:1;fill-rule:nonzero;stroke:none"
         id="path98" /><path
         d="m 3760.94,3235.9 h -322.38 l 57.57,126.9 h 322.39 l -57.58,-126.9"
         style="fill:#deeffa;fill-opacity:1;fill-rule:nonzero;stroke:none"
         id="path100" /><path
         d="m 3829.43,3386.85 h -322.39 l 57.58,126.89 h 270.55 V 3399.5 l -5.74,-12.65"
         style="fill:#deeffa;fill-opacity:1;fill-rule:nonzero;stroke:none"
         id="path102" /><path
         d="m 3857.75,2937.35 h -22.58 v 126.87 h -81.05 l 9.04,19.91 h 72.01 v 126.89 h -14.43 l 11.28,24.88 h 3.15 v 6.94 l 204.59,450.88 h 161.16 L 4050.78,3362.8 h -153.4 v -126.9 h 95.83 l -11.29,-24.88 h -84.54 v -126.89 h 26.97 l -9.04,-19.91 h -17.93 v -39.53 l -39.63,-87.34"
         style="fill:#eff6fc;fill-opacity:1;fill-rule:nonzero;stroke:none"
         id="path104" /><path
         d="m 3835.17,2937.35 h -138.62 l 57.57,126.87 h 81.05 v -126.87"
         style="fill:#deeffa;fill-opacity:1;fill-rule:nonzero;stroke:none"
         id="path106" /><path
         d="m 3835.17,3084.13 h -72.01 l 57.58,126.89 h 14.43 v -126.89"
         style="fill:#deeffa;fill-opacity:1;fill-rule:nonzero;stroke:none"
         id="path108" /><path
         d="m 3835.17,3235.9 h -3.15 l 3.15,6.94 v -6.94"
         style="fill:#deeffa;fill-opacity:1;fill-rule:nonzero;stroke:none"
         id="path110" /><path
         d="m 3897.38,3024.69 v 39.53 h 17.93 l -17.93,-39.53"
         style="fill:#deeffa;fill-opacity:1;fill-rule:nonzero;stroke:none"
         id="path112" /><path
         d="m 3924.35,3084.13 h -26.97 v 126.89 h 84.54 l -57.57,-126.89"
         style="fill:#deeffa;fill-opacity:1;fill-rule:nonzero;stroke:none"
         id="path114" /><path
         d="m 3993.21,3235.9 h -95.83 v 126.9 h 153.4 l -57.57,-126.9"
         style="fill:#deeffa;fill-opacity:1;fill-rule:nonzero;stroke:none"
         id="path116" /><path
         d="M 995.016,1261.87 H 7.16406 V 3262.49 H 995.016 V 1261.87"
         style="fill:#edf5fc;fill-opacity:1;fill-rule:nonzero;stroke:none"
         id="path118" /><path
         d="M 927.051,1261.87 H 75.1289 V 3177.64 H 927.051 V 1261.87"
         style="fill:#d5eaf9;fill-opacity:1;fill-rule:nonzero;stroke:none"
         id="path120" /><path
         d="m 4702.4,3057.25 c -129.52,0 -234.89,105.37 -234.89,234.89 0,129.52 105.37,234.89 234.89,234.89 129.52,0 234.89,-105.37 234.89,-234.89 0,-129.52 -105.37,-234.89 -234.89,-234.89"
         style="fill:#d5eaf9;fill-opacity:1;fill-rule:nonzero;stroke:none"
         id="path122" /><path
         d="m 4916.52,3292.14 c 0,-118.26 -95.87,-214.12 -214.12,-214.12 -118.25,0 -214.12,95.86 -214.12,214.12 0,118.26 95.87,214.12 214.12,214.12 118.25,0 214.12,-95.86 214.12,-214.12"
         style="fill:#edf5fc;fill-opacity:1;fill-rule:nonzero;stroke:none"
         id="path124" /><path
         d="m 4730.6,3290.99 c 0,-13.67 -11.08,-24.75 -24.74,-24.75 -13.68,0 -24.76,11.08 -24.76,24.75 0,13.67 11.08,24.75 24.76,24.75 13.66,0 24.74,-11.08 24.74,-24.75"
         style="fill:#d5eaf9;fill-opacity:1;fill-rule:nonzero;stroke:none"
         id="path126" /><path
         d="m 4693.19,3275.83 h -95.55 c -6.65,0 -12.09,5.44 -12.09,12.09 0,6.65 5.44,12.09 12.09,12.09 h 95.55 c 6.65,0 12.09,-5.44 12.09,-12.09 0,-6.65 -5.44,-12.09 -12.09,-12.09"
         style="fill:#d5eaf9;fill-opacity:1;fill-rule:nonzero;stroke:none"
         id="path128" /><path
         d="m 4702.98,3285.79 v 0 c -4.94,2.84 -6.65,9.21 -3.79,14.15 l 72.52,125.62 c 2.85,4.93 9.21,6.64 14.15,3.79 4.94,-2.85 6.65,-9.22 3.79,-14.15 l -72.52,-125.62 c -2.86,-4.94 -9.22,-6.64 -14.15,-3.79"
         style="fill:#d5eaf9;fill-opacity:1;fill-rule:nonzero;stroke:none"
         id="path130" /><path
         d="M 6721.37,2693.46 H 5116.31 V 3713.25 H 6721.37 V 2693.46"
         style="fill:#edf5fc;fill-opacity:1;fill-rule:nonzero;stroke:none"
         id="path132" /><path
         d="m 6691.34,3683.26 v -959.8 h -1545 v 959.8 h 1545"
         style="fill:#fafdff;fill-opacity:1;fill-rule:nonzero;stroke:none"
         id="path134" /><path
         d="m 6770.14,2626.95 h -1702.6 v 70.95 h 1702.6 v -70.95"
         style="fill:#d5eaf9;fill-opacity:1;fill-rule:nonzero;stroke:none"
         id="path136" /><path
         d="m 6280.54,3683.26 -507.19,-959.8 h -319.71 l 507.21,959.8 h 319.69"
         style="fill:#ffffff;fill-opacity:1;fill-rule:nonzero;stroke:none"
         id="path138" /><path
         d="m 6496.94,3683.26 -507.3,-959.8 h -159.9 l 507.31,959.8 h 159.89"
         style="fill:#ffffff;fill-opacity:1;fill-rule:nonzero;stroke:none"
         id="path140" /><path
         d="M 6721.37,3665.45 H 5116.31 v 47.8 h 1605.06 v -47.8"
         style="fill:#d5eaf9;fill-opacity:1;fill-rule:nonzero;stroke:none"
         id="path142" /><path
         d="M 6721.37,3569.68 H 5116.31 v 47.8 h 1605.06 v -47.8"
         style="fill:#d5eaf9;fill-opacity:1;fill-rule:nonzero;stroke:none"
         id="path144" /><path
         d="M 6721.37,3473.9 H 5116.31 v 47.81 h 1605.06 v -47.81"
         style="fill:#d5eaf9;fill-opacity:1;fill-rule:nonzero;stroke:none"
         id="path146" /><path
         d="M 6721.37,3378.13 H 5116.31 v 47.81 h 1605.06 v -47.81"
         style="fill:#d5eaf9;fill-opacity:1;fill-rule:nonzero;stroke:none"
         id="path148" /><path
         d="M 6721.37,3282.36 H 5116.31 v 47.81 h 1605.06 v -47.81"
         style="fill:#d5eaf9;fill-opacity:1;fill-rule:nonzero;stroke:none"
         id="path150" /><path
         d="M 6721.37,3186.59 H 5116.31 v 47.81 h 1605.06 v -47.81"
         style="fill:#d5eaf9;fill-opacity:1;fill-rule:nonzero;stroke:none"
         id="path152" /><path
         d="m 2028.79,3055 c 0,0 157.19,-12.03 110.07,-318.74 l -313.73,11.03 c 0,0 -21.25,329.76 203.66,307.71"
         style="fill:#1e1918;fill-opacity:1;fill-rule:nonzero;stroke:none"
         id="path154" /><path
         d="m 2018.05,2692.83 c 0,0 190.37,-8.81 197.42,-96.95 7.06,-88.13 -28.2,-378.1 -162.16,-393.96 -133.97,-15.87 -370.17,-7.93 -370.17,-7.93 0,0 63.45,338.43 77.55,377.21 14.11,38.78 63.46,102.24 169.23,123.39 l 88.13,-1.76"
         style="fill:#314e8d;fill-opacity:1;fill-rule:nonzero;stroke:none"
         id="path156" /><path
         d="m 2070.93,2687.1 c 0,0 -71.39,-171.86 -150.71,-230.03 0,0 -72.27,142.34 9.69,237.52 48.56,1.93 95.67,-0.27 141.02,-7.49"
         style="fill:#a2e0eb;fill-opacity:1;fill-rule:nonzero;stroke:none"
         id="path158" /><path
         d="m 1993.66,2651.73 h -1.07 c -25.63,0 -46.41,20.78 -46.41,46.42 v 73.2 h 93.89 v -73.2 c 0,-25.64 -20.78,-46.42 -46.41,-46.42"
         style="fill:#f9a88e;fill-opacity:1;fill-rule:nonzero;stroke:none"
         id="path160" /><path
         d="m 1946.18,2698.06 v 0 0.09 c 0,-0.03 0,-0.06 0,-0.09"
         style="fill:#e7dcd7;fill-opacity:1;fill-rule:nonzero;stroke:none"
         id="path162" /><path
         d="m 1965.96,2696.82 c -8.8,0 -15.92,0.69 -19.78,1.24 0,0.03 0,0.06 0,0.09 v 73.2 h 93.89 v -31.62 -15.34 c -18.11,-23.04 -51.6,-27.57 -74.11,-27.57"
         style="fill:#f7967a;fill-opacity:1;fill-rule:nonzero;stroke:none"
         id="path164" /><path
         d="m 2068.44,2859.11 c 1.98,-15.16 15.87,-25.86 31.03,-23.88 15.17,1.97 25.86,15.86 23.89,31.03 -1.98,15.16 -15.87,25.85 -31.03,23.88 -15.17,-1.97 -25.86,-15.87 -23.89,-31.03"
         style="fill:#f9a88e;fill-opacity:1;fill-rule:nonzero;stroke:none"
         id="path166" /><path
         d="m 1918.8,2984.99 c 51.16,59.8 149.2,35.16 167.78,-41.31 8.33,-34.3 13.98,-77.09 7.34,-120.1 -14.98,-96.93 -76.16,-137.85 -144.68,-105.9 -68.52,31.95 -75,169.62 -52.45,229.89 5.16,13.81 12.64,26.47 22.01,37.42"
         style="fill:#f9a88e;fill-opacity:1;fill-rule:nonzero;stroke:none"
         id="path168" /><path
         d="m 1887.54,2827.14 c 0,0 10.61,-0.5 30.06,1.5 19.46,2.01 59.14,30.57 104.67,4.51 31.99,-18.31 56.21,-8.02 56.21,-8.02 0,0 9.69,-113.59 -91.55,-119.61 -94.97,-5.64 -99.39,121.62 -99.39,121.62"
         style="fill:#ffffff;fill-opacity:1;fill-rule:nonzero;stroke:none"
         id="path170" /><path
         d="m 2094.22,2890.77 -18.45,-69.57 0.88,-1.53 1.53,0.89 18.45,69.57 -0.88,1.53 -1.53,-0.89"
         style="fill:#ffffff;fill-opacity:1;fill-rule:nonzero;stroke:none"
         id="path172" /><path
         d="m 2094.35,2833.55 c 0,0 0.06,-0.82 0.06,-2.45 0,-9.4 -2.31,-44.4 -34.26,-82 l 0.15,-1.76 1.76,0.14 c 32.42,38.16 34.86,73.83 34.85,83.62 0,1.7 -0.07,2.62 -0.07,2.65 l -1.35,1.15 -1.14,-1.35"
         style="fill:#ffffff;fill-opacity:1;fill-rule:nonzero;stroke:none"
         id="path174" /><path
         d="m 2112.8,2908.66 -110.26,5.01 -31.07,51.12 -28.07,-56.13 -82.18,9.02 c 0,0 45.1,126.29 145.33,116.27 100.23,-10.02 106.25,-125.29 106.25,-125.29"
         style="fill:#1e1918;fill-opacity:1;fill-rule:nonzero;stroke:none"
         id="path176" /><path
         d="m 2064.35,2520.96 v -38.62 l -96.22,4.54 5.2,40.9 91.02,-6.82"
         style="fill:#fde4e7;fill-opacity:1;fill-rule:nonzero;stroke:none"
         id="path178" /><path
         d="m 1872.67,2264.48 c -1.15,0 -2.29,0.01 -3.44,0.03 0,0 129.64,24.05 163.05,56.12 0,0 28.06,177.75 104.24,244.57 0,0 -93.55,-113.59 -88.2,-252.59 0,0 -91.07,-48.13 -175.65,-48.13"
         style="fill:#223465;fill-opacity:1;fill-rule:nonzero;stroke:none"
         id="path180" /><path
         d="m 1777.02,2282.21 27.06,240.56 9.03,-3.01 -36.09,-237.55"
         style="fill:#223465;fill-opacity:1;fill-rule:nonzero;stroke:none"
         id="path182" /><path
         d="m 1126,1261.33 h 2154.86 v 917.809 H 1126 Z"
         style="fill:#d5eaf9;fill-opacity:1;fill-rule:nonzero;stroke:none"
         id="path184" /><path
         d="M 3026.37,2134.93 H 1126 v 44.21 h 1903.29 c -0.7,-6.62 -1.26,-13.43 -1.65,-20.44 -0.45,-7.9 -0.87,-15.83 -1.27,-23.77"
         style="fill:#c2def4;fill-opacity:1;fill-rule:nonzero;stroke:none"
         id="path186" /><path
         d="M 3360.68,2178.58 H 1046.19 v 86.46 h 2314.49 v -86.46"
         style="fill:#7baee1;fill-opacity:1;fill-rule:nonzero;stroke:none"
         id="path188" /><path
         d="m 1762.96,2333.77 h -485.05 c -9.93,0 -17.97,8.04 -17.97,17.97 v 304.36 c 0,9.92 8.04,17.96 17.97,17.96 h 485.05 c 9.92,0 17.96,-8.04 17.96,-17.96 v -304.36 c 0,-9.93 -8.04,-17.97 -17.96,-17.97"
         style="fill:#d5eaf9;fill-opacity:1;fill-rule:nonzero;stroke:none"
         id="path190" /><path
         d="m 1436.19,2508.9 -1.11,-227.93 131.91,-0.41 11.08,237.21 -141.88,-8.87"
         style="fill:#d5eaf9;fill-opacity:1;fill-rule:nonzero;stroke:none"
         id="path192" /><path
         d="m 1578.07,2517.77 -11.08,-237.21 h -31.04 z"
         style="fill:#b7d2e9;fill-opacity:1;fill-rule:nonzero;stroke:none"
         id="path194" /><path
         d="m 1649.02,2265.04 h -292.64 v 28.82 h 292.64 v -28.82"
         style="fill:#d5eaf9;fill-opacity:1;fill-rule:nonzero;stroke:none"
         id="path196" /><path
         d="m 7265.52,753.281 c 0,-41.691 -168.48,-75.492 -376.33,-75.492 -207.86,0 -376.35,33.801 -376.35,75.492 0,41.68 168.49,75.481 376.35,75.481 207.85,0 376.33,-33.801 376.33,-75.481"
         style="fill:#f3f3f2;fill-opacity:1;fill-rule:nonzero;stroke:none"
         id="path198" /><path
         d="m 6786.41,930.082 -3.68,-103.031 65.31,-1.84 8.28,120.508 -69.91,-15.637"
         style="fill:#f9aa84;fill-opacity:1;fill-rule:nonzero;stroke:none"
         id="path200" /><path
         d="m 6737.65,1470.35 30.36,-572.471 98.43,-1.84 c 0,0 25.75,476.191 15.94,559.591 l -144.73,14.72"
         style="fill:#3676c4;fill-opacity:1;fill-rule:nonzero;stroke:none"
         id="path202" /><path
         d="m 6780.89,844.531 c 0,0 -73.59,-44.152 -97.5,-53.351 -23.92,-9.2 -44.16,-31.282 -14.72,-42.321 29.43,-11.027 196.85,1.84 196.85,1.84 0,0 -1.84,64.391 -12.88,82.793 0,0 -25.76,-23.91 -71.75,11.039"
         style="fill:#152540;fill-opacity:1;fill-rule:nonzero;stroke:none"
         id="path204" /><path
         d="m 7042.75,930.082 -3.68,-103.031 65.31,-1.84 8.28,120.508 -69.91,-15.637"
         style="fill:#f9aa84;fill-opacity:1;fill-rule:nonzero;stroke:none"
         id="path206" /><path
         d="m 6993.99,1470.35 30.36,-572.471 98.43,-1.84 c 0,0 25.75,476.191 15.94,559.591 l -144.73,14.72"
         style="fill:#3676c4;fill-opacity:1;fill-rule:nonzero;stroke:none"
         id="path208" /><path
         d="m 7037.23,844.531 c 0,0 -73.59,-44.152 -97.51,-53.351 -23.91,-9.2 -44.15,-31.282 -14.71,-42.321 29.43,-11.027 196.85,1.84 196.85,1.84 0,0 -1.84,64.391 -12.88,82.793 0,0 -25.76,-23.91 -71.75,11.039"
         style="fill:#152540;fill-opacity:1;fill-rule:nonzero;stroke:none"
         id="path210" /><path
         d="m 6684.32,1773.5 c 0,0 35.79,-13.18 33.22,-48.3 -2.57,-35.12 -9.09,-59.89 -9.09,-59.89 0,0 -12.69,-8.4 -13.1,3.79 -0.41,12.18 5.16,50.84 -1.92,52.01 -7.07,1.17 -14.41,5.62 -15.96,-13.52 -1.55,-19.13 1.13,-56.73 9.26,-66.16 8.14,-9.41 7.91,-25.53 -4.43,-17.03 -12.32,8.5 -52.17,16.69 -46.46,60.99 5.7,44.29 4.66,70.97 7.66,79.36 3.01,8.39 40.82,8.75 40.82,8.75"
         style="fill:#f8a68a;fill-opacity:1;fill-rule:nonzero;stroke:none"
         id="path212" /><path
         d="m 6938.03,2572.81 c 0,0 -160.06,15.95 -185.81,-105.47 -25.76,-121.43 -22.08,-537.21 -22.08,-537.21 l -56.41,-685.61 c 0,0 510.22,17.18 516.35,30.66 7.61,16.75 -55.19,879.4 -55.19,879.4 l -11.04,378.99 c 0,0 -42.31,39.24 -185.82,39.24"
         style="fill:#2cb593;fill-opacity:1;fill-rule:nonzero;stroke:none"
         id="path214" /><path
         d="m 6775.22,2516.09 c 0,0 -53.36,-41.4 -96.59,-359.05 -19.54,-143.6 -49.05,-399.85 -49.05,-399.85 l 176.61,-7.35 c 0,0 19.62,399.84 22.08,412.1 2.45,12.27 -53.05,354.15 -53.05,354.15"
         style="fill:#2cb593;fill-opacity:1;fill-rule:nonzero;stroke:none"
         id="path216" /><path
         d="m 7214.9,1791.22 c 0,0 -35.78,-13.19 -33.21,-48.3 2.56,-35.13 9.08,-59.9 9.08,-59.9 0,0 12.7,-8.4 13.11,3.78 0.41,12.19 -5.17,50.84 1.91,52.02 7.08,1.17 14.42,5.61 15.96,-13.52 1.55,-19.13 -1.13,-56.73 -9.26,-66.15 -8.14,-9.43 -7.9,-25.54 4.43,-17.04 12.32,8.49 52.17,16.7 46.47,60.98 -5.71,44.3 -4.67,70.98 -7.67,79.37 -3,8.39 -40.82,8.76 -40.82,8.76"
         style="fill:#f8a68a;fill-opacity:1;fill-rule:nonzero;stroke:none"
         id="path218" /><path
         d="m 7123.85,2533.57 c 0,0 53.51,-41.17 96.74,-358.83 19.54,-143.59 49.06,-399.84 49.06,-399.84 l -176.62,-7.35 c 0,0 -19.62,399.83 -22.07,412.09 -2.46,12.27 52.89,353.93 52.89,353.93"
         style="fill:#2cb593;fill-opacity:1;fill-rule:nonzero;stroke:none"
         id="path220" /><path
         d="m 6881.31,2571.28 c 0,0 0.92,-68.06 22.99,-99.34 l 30.36,42.31 26.68,-40.47 c 0,0 62.24,66.53 71.44,92.29 0,0 -57.65,49.37 -151.47,5.21"
         style="fill:#c0eaf5;fill-opacity:1;fill-rule:nonzero;stroke:none"
         id="path222" /><path
         d="m 6725.24,1774.37 63.78,331.15 c -7.82,50.9 -9.81,237.94 -9.81,237.94 4.9,-72.36 23.61,-233.49 23.61,-233.49 l -77.58,-335.6"
         style="fill:#129778;fill-opacity:1;fill-rule:nonzero;stroke:none"
         id="path224" /><path
         d="m 7161.87,1774.37 -77.58,335.6 c 0,0 18.71,161.13 23.62,233.49 0,0 -2,-187.04 -9.82,-237.94 l 63.78,-331.15"
         style="fill:#129778;fill-opacity:1;fill-rule:nonzero;stroke:none"
         id="path226" /><path
         d="m 6919.64,1260.47 c -42.32,482.01 15.02,1253.78 15.02,1253.78 -18.09,-278.72 -15.02,-1253.78 -15.02,-1253.78"
         style="fill:#129778;fill-opacity:1;fill-rule:nonzero;stroke:none"
         id="path228" /><path
         d="m 7033.4,2883.87 c 12.65,-9.58 20.68,-24.31 24.71,-39.65 5.4,-20.54 4.18,-42.42 -0.97,-63.02 -5.15,-20.6 -14.11,-40.05 -24.12,-58.78 -1.86,-3.48 -3.89,-7.1 -7.22,-9.22 -2.97,-1.91 -6.6,-2.39 -10.11,-2.83 -42.1,-5.24 -84.75,-10.48 -126.8,-4.85 -9.69,1.3 -19.92,3.47 -26.94,10.28 -9.1,8.81 -10.35,22.75 -10.81,35.4 -0.41,11.2 -0.63,22.4 -0.66,33.6 -0.07,24.94 0.84,50.28 8.6,73.99 3,9.16 7.16,18.23 14.12,24.91 5.24,5.03 11.82,8.46 18.52,11.25 22.33,9.29 47.27,12.16 71.12,8.18 12.18,-2.02 22.2,-10.61 34.21,-9.76 13.33,0.93 25.42,-1.21 36.35,-9.5"
         style="fill:#1e1918;fill-opacity:1;fill-rule:nonzero;stroke:none"
         id="path230" /><path
         d="m 6951.47,2543.07 h -0.98 c -23.52,0 -42.59,19.08 -42.59,42.6 v 67.18 h 86.17 v -67.18 c 0,-23.52 -19.06,-42.6 -42.6,-42.6"
         style="fill:#f9a88e;fill-opacity:1;fill-rule:nonzero;stroke:none"
         id="path232" /><path
         d="m 6907.9,2585.6 v 0 0.07 c 0,-0.02 0,-0.05 0,-0.07 m 86.17,24.14 v 43.11 h 0.01 v -43.1 c -0.01,0 -0.01,-0.01 -0.01,-0.01"
         style="fill:#e7dcd7;fill-opacity:1;fill-rule:nonzero;stroke:none"
         id="path234" /><path
         d="m 6926.08,2584.46 c -8.09,0 -14.63,0.63 -18.18,1.14 0,0.02 0,0.05 0,0.07 v 67.18 h 86.17 v -43.11 c -16.62,-21.13 -47.34,-25.28 -67.99,-25.28"
         style="fill:#f7967a;fill-opacity:1;fill-rule:nonzero;stroke:none"
         id="path236" /><path
         d="m 7020.1,2733.39 c 1.82,-13.92 14.56,-23.73 28.48,-21.91 13.92,1.81 23.73,14.56 21.92,28.47 -1.81,13.92 -14.56,23.73 -28.47,21.92 -13.92,-1.81 -23.73,-14.56 -21.93,-28.48"
         style="fill:#f9a88e;fill-opacity:1;fill-rule:nonzero;stroke:none"
         id="path238" /><path
         d="m 6882.77,2848.92 c 46.95,54.88 136.93,32.27 153.98,-37.91 7.65,-31.48 12.83,-70.75 6.73,-110.23 -13.74,-88.95 -69.88,-126.5 -132.77,-97.18 -62.89,29.32 -68.83,155.66 -48.14,210.98 4.74,12.68 11.61,24.29 20.2,34.34"
         style="fill:#f9a88e;fill-opacity:1;fill-rule:nonzero;stroke:none"
         id="path240" /><path
         d="m 7051.91,2764.17 c 0,0 -9.4,0.94 -17.82,-13.11 0,0 -14.7,83.11 -56.5,79.63 0,0 -66,-27.86 -119.59,-26.68 -53.58,1.18 -64,114.91 36.5,119.09 100.51,4.18 103.99,-19.52 103.99,-19.52 0,0 96.38,32.05 53.42,-139.41"
         style="fill:#1e1918;fill-opacity:1;fill-rule:nonzero;stroke:none"
         id="path242" /><path
         d="m 6853.86,2702.82 c 0,0 9.75,-0.45 27.6,1.39 17.86,1.84 54.28,28.05 96.06,4.14 29.36,-16.81 51.59,-7.37 51.59,-7.37 0,0 8.88,-104.24 -84.03,-109.77 -87.15,-5.17 -91.22,111.61 -91.22,111.61"
         style="fill:#ffffff;fill-opacity:1;fill-rule:nonzero;stroke:none"
         id="path244" /><path
         d="m 7032.85,2751.2 -6.37,-53.98 1.09,-1.38 1.39,1.09 6.37,53.98 -1.1,1.39 -1.38,-1.1"
         style="fill:#ffffff;fill-opacity:1;fill-rule:nonzero;stroke:none"
         id="path246" /><path
         d="m 7043.5,2711.24 c 0,0 0.06,-0.85 0.06,-2.49 0,-9.31 -2.17,-43.13 -31.35,-77.48 l 0.14,-1.76 1.76,0.14 c 29.69,34.95 31.95,69.43 31.95,79.1 0,1.71 -0.07,2.65 -0.07,2.68 l -1.34,1.15 -1.15,-1.34"
         style="fill:#ffffff;fill-opacity:1;fill-rule:nonzero;stroke:none"
         id="path248" /><path
         d="M 2728.74,4221.85 H 930.418 v 104.51 c 0,63.27 51.281,114.55 114.552,114.55 h 1569.22 c 63.26,0 114.55,-51.28 114.55,-114.55 v -104.51"
         style="fill:#ffffff;fill-opacity:1;fill-rule:nonzero;stroke:none"
         id="path250" /><path
         d="m 1282.18,4394.78 h -40.29 V 5000 h 40.29 v -605.22"
         style="fill:#ffffff;fill-opacity:1;fill-rule:nonzero;stroke:none"
         id="path252" /><path
         d="m 2417.26,4394.78 h -40.3 V 5000 h 40.3 v -605.22"
         style="fill:#ffffff;fill-opacity:1;fill-rule:nonzero;stroke:none"
         id="path254" /><path
         d="M 6569.59,4221.85 H 4771.27 v 104.51 c 0,63.27 51.28,114.55 114.55,114.55 h 1569.22 c 63.26,0 114.55,-51.28 114.55,-114.55 v -104.51"
         style="fill:#ffffff;fill-opacity:1;fill-rule:nonzero;stroke:none"
         id="path256" /><path
         d="m 5123.03,4394.78 h -40.29 V 5000 h 40.29 v -605.22"
         style="fill:#ffffff;fill-opacity:1;fill-rule:nonzero;stroke:none"
         id="path258" /><path
         d="m 6258.11,4394.78 h -40.29 V 5000 h 40.29 v -605.22"
         style="fill:#ffffff;fill-opacity:1;fill-rule:nonzero;stroke:none"
         id="path260" /><path
         d="m 1116.54,153.531 c 0,-43.301 -199.364,-78.4099 -445.298,-78.4099 -245.929,0 -445.293,35.1089 -445.293,78.4099 0,43.289 199.364,78.399 445.293,78.399 245.934,0 445.298,-35.11 445.298,-78.399"
         style="fill:#f3f3f2;fill-opacity:1;fill-rule:nonzero;stroke:none"
         id="path262" /><path
         d="m 1010.05,599.949 87.4,-6.699 c 16.99,23.531 29.87,48.18 37.88,70.559 l -29.3,17.402 33.8,-3.262 c 6.9,24.93 6.93,45.672 -1.17,56.59 0,0 -27.86,34.152 -88.75,46.512 l -50.222,-51.551 19.172,55.52 c -30.075,1.75 -66.098,-1.86 -108.594,-15.149 -8.575,-2.68 -16.559,-5.551 -24.161,-8.531 l -17.203,-54.981 -6.148,44.692 C 754.602,697.469 770.5,612.93 829.828,592.582 c 0,0 27.164,-117.461 128.957,-97.961 l -22.789,49.188 49.449,-41.411 c 33.955,12.942 63.725,35.352 88.045,61.532 l -63.44,36.019"
         style="fill:#368a4f;fill-opacity:1;fill-rule:nonzero;stroke:none"
         id="path264" /><path
         d="m 1055.95,709.359 c -23.2,-0.98 -46.24,-6.211 -68.337,-13.429 -22.113,-7.34 -43.472,-16.989 -63.441,-28.981 -40.07,-23.808 -74.789,-56.148 -102.481,-93.519 -28.136,-37.141 -49.019,-79.321 -65.285,-122.879 -16.222,-43.68 -27.019,-89.242 -34.445,-135.242 -0.309,-1.95 -2.148,-3.289 -4.109,-2.989 -1.957,0.309 -3.293,2.149 -2.989,4.11 l 0.012,0.05 c 7.926,46.29 19.254,92.161 36.059,136.11 16.839,43.84 38.355,86.262 67.164,123.558 28.355,37.524 63.785,69.883 104.468,93.532 20.274,11.922 41.914,21.441 64.278,28.64 22.386,7.059 45.506,12.102 69.116,12.879 l 0.95,-0.89 -0.88,-0.938 -0.08,-0.012"
         style="fill:#2c6c3f;fill-opacity:1;fill-rule:nonzero;stroke:none"
         id="path266" /><path
         d="m 329.313,745.172 -118.477,14.07 c -16.481,35.918 -27.184,72.227 -31.981,104.207 l 43.704,15.512 -45.981,4.559 c -2.66,35.109 2.766,62.812 16.465,75.269 0,0 46.207,38.25 130.777,38.723 l 53.469,-82.071 -10.965,79.188 c 40.617,-5.59 87.774,-19.91 141.02,-48.848 10.75,-5.84 20.652,-11.769 30.015,-17.761 l 8.481,-77.938 19.988,58.047 c 130.305,-100.047 86.793,-208.758 2.211,-220.289 0,0 -67.226,-149.699 -198.019,-96.84 l 43.386,59.68 -76.941,-42.27 c -41.922,26.238 -75.781,64 -101.352,105.379 l 94.2,31.383"
         style="fill:#42aa5e;fill-opacity:1;fill-rule:nonzero;stroke:none"
         id="path268" /><path
         d="m 296.848,903.379 c 30.73,-7.449 60.117,-20.488 87.722,-35.949 27.594,-15.641 53.575,-34.141 77.078,-55.418 47.235,-42.364 85.082,-94.692 112.211,-151.891 27.778,-57.019 44.559,-118.832 54.793,-181.289 10.157,-62.602 12.571,-126.293 10.368,-189.672 -0.106,-2.699 1.996,-4.969 4.699,-5.07 2.695,-0.11 4.965,1.992 5.07,4.699 v 0.051 c 1.613,63.922 -1.426,128.152 -12.285,191.269 -10.938,62.981 -28.484,125.301 -57.129,182.7 -27.977,57.57 -66.762,110.121 -114.855,152.421 -23.934,21.258 -50.325,39.68 -78.29,55.18 -28.031,15.332 -57.585,28.149 -88.902,35.422 l -1.496,-0.941 0.922,-1.493 0.094,-0.019"
         style="fill:#388c51;fill-opacity:1;fill-rule:nonzero;stroke:none"
         id="path270" /><path
         d="m 962.867,812.352 118.473,14.078 c 16.48,35.91 27.19,72.218 31.99,104.199 l -43.71,15.512 45.98,4.558 c 2.66,35.11 -2.77,62.811 -16.46,75.261 0,0 -46.21,38.27 -130.781,38.73 l -53.468,-82.081 10.964,79.191 c -40.613,-5.57 -87.773,-19.9 -141.019,-48.83 -10.746,-5.84 -20.648,-11.78 -30.016,-17.759 l -8.48,-77.961 -19.985,58.059 C 596.043,875.262 639.559,766.551 724.141,755.02 c 0,0 67.226,-149.7 198.019,-96.84 l -43.383,59.679 76.938,-42.257 c 41.922,26.218 75.785,64 101.355,105.359 l -94.203,31.391"
         style="fill:#5abf63;fill-opacity:1;fill-rule:nonzero;stroke:none"
         id="path272" /><path
         d="m 995.332,970.551 c -30.73,-7.442 -60.117,-20.469 -87.723,-35.942 -27.593,-15.64 -53.574,-34.14 -77.082,-55.418 C 783.297,836.832 745.449,784.5 718.32,727.301 690.543,670.281 673.762,608.461 663.527,546 653.371,483.41 650.957,419.711 653.16,356.34 c 0.11,-2.699 -1.996,-4.969 -4.695,-5.07 -2.695,-0.11 -4.969,2 -5.074,4.691 v 0.07 c -1.618,63.91 1.425,128.141 12.285,191.258 10.937,62.981 28.484,125.293 57.129,182.699 27.976,57.571 66.761,110.114 114.859,152.422 23.93,21.262 50.32,39.68 78.285,55.172 28.031,15.34 57.586,28.156 88.903,35.418 l 1.496,-0.93 -0.922,-1.5 -0.094,-0.019"
         style="fill:#59a962;fill-opacity:1;fill-rule:nonzero;stroke:none"
         id="path274" /><path
         d="M 1005.74,441.691 C 1003.15,258.422 853.941,110.648 669.957,110.648 c -24.102,0 -47.621,2.602 -70.273,7.364 -150.219,32.039 -263.207,164.508 -265.52,323.679 h 671.576"
         style="fill:#f79438;fill-opacity:1;fill-rule:nonzero;stroke:none"
         id="path276" /><g
         id="g278"><g
           id="g280"
           clip-path="url(#clipPath284)"><path
             d="m 599.684,110.648 h 406.055 V 441.691 H 599.684 Z"
             style="fill:#f47424;fill-opacity:1;fill-rule:nonzero;stroke:none"
             id="path286" /></g></g><path
         d="m 4949.44,1034.76 c 0,-43.299 -225.88,-78.401 -504.5,-78.401 -278.63,0 -504.5,35.102 -504.5,78.401 0,43.3 225.87,78.4 504.5,78.4 278.62,0 504.5,-35.1 504.5,-78.4"
         style="fill:#f3f3f2;fill-opacity:1;fill-rule:nonzero;stroke:none"
         id="path288" /><path
         d="m 4670.4,1191.5 4.79,-102.4 -69.24,-2.36 -9.82,119.75 74.27,-14.99"
         style="fill:#f9aa84;fill-opacity:1;fill-rule:nonzero;stroke:none"
         id="path290" /><path
         d="m 4676.99,1106.49 c 0,0 78.41,-43.3 103.85,-52.25 25.44,-8.96 47.09,-30.74 15.97,-41.96 -31.12,-11.21 -208.75,0.24 -208.75,0.24 0,0 1.4,64.03 12.94,82.42 0,0 27.52,-23.58 75.99,11.55"
         style="fill:#152540;fill-opacity:1;fill-rule:nonzero;stroke:none"
         id="path292" /><path
         d="m 4541.82,2117.83 c 0,0 35.03,-877.74 50.63,-1007.13 0,0 65.75,2.98 89.93,5.36 0,0 82.78,953.39 73.25,1013.67 l -213.81,-11.9"
         style="fill:#55bcc0;fill-opacity:1;fill-rule:nonzero;stroke:none"
         id="path294" /><path
         d="m 4251.59,1214.03 -35.4,-96.98 -65.38,21.49 37.47,114.86 63.31,-39.37"
         style="fill:#f9aa84;fill-opacity:1;fill-rule:nonzero;stroke:none"
         id="path296" /><path
         d="m 4224.64,1132.62 c 0,0 56.14,-67.15 76.33,-84.2 20.21,-17.04 31.88,-44.73 -1.45,-44.52 -33.34,0.21 -194.26,71.66 -194.26,71.66 0,0 26.23,59.14 44.13,72.31 0,0 16.45,-31.37 75.25,-15.25"
         style="fill:#152540;fill-opacity:1;fill-rule:nonzero;stroke:none"
         id="path298" /><path
         d="m 4405.44,2119.62 -237.65,-919.83 82.16,-27.91 c 0,0 386.58,845.91 408.01,926.29 l -252.52,21.45"
         style="fill:#65c6cf;fill-opacity:1;fill-rule:nonzero;stroke:none"
         id="path300" /><path
         d="m 4984.99,2211.8 c 0,0 -12.92,-29.02 11.26,-47.17 24.17,-18.16 44.04,-28.12 44.04,-28.12 0,0 13.02,2.96 5.4,10.05 -7.61,7.08 -35.87,25.4 -32.38,30.34 3.47,4.93 5.01,11.87 18.27,2.06 13.25,-9.79 35.89,-32.51 37.1,-42.71 1.2,-10.21 11.74,-19.11 13.63,-6.89 1.9,12.22 20.46,40.9 -11.51,62.32 -31.97,21.4 -48.55,37 -55.74,39.89 -7.21,2.89 -30.07,-19.77 -30.07,-19.77"
         style="fill:#f8a68a;fill-opacity:1;fill-rule:nonzero;stroke:none"
         id="path302" /><path
         d="m 4555.07,2699.66 c 0,0 100.76,-229.66 171.37,-312.75 70.62,-83.08 196.82,-180.68 257.28,-214.44 l 42.92,53.86 -191.16,195.02 -175.2,312.63 c 0,0 -67.99,45.16 -105.21,-34.32"
         style="fill:#c63135;fill-opacity:1;fill-rule:nonzero;stroke:none"
         id="path304" /><path
         d="m 4660.7,2748.92 c -57.57,39.8 -142.01,38.68 -194.87,-5.35 -28.47,-23.71 -52.39,-60.38 -50.39,-116.37 4.76,-133.64 -38.6,-569.58 -38.6,-569.58 0,0 176.39,-66.56 390.71,-27.25 0,0 -13.97,494.64 -18.74,565.38 -3.2,47.64 -30.15,113.08 -88.11,153.17"
         style="fill:#d23939;fill-opacity:1;fill-rule:nonzero;stroke:none"
         id="path306" /><path
         d="m 4260.91,2136.11 c 0,0 27.22,-18.48 16.68,-45.84 -10.53,-27.37 -21.96,-45.62 -21.96,-45.62 0,0 -12.77,-3.85 -10.22,5.93 2.55,9.79 16.48,39.3 10.76,41.81 -5.72,2.51 -10.9,7.69 -16.76,-7.19 -5.87,-14.88 -12.55,-45.39 -7.89,-54.7 4.66,-9.31 0.63,-22.08 -7.81,-12.56 -8.44,9.51 -40.3,24.92 -24.91,58.88 15.39,33.97 20.85,55.42 25.4,61.43 4.54,6 36.71,-2.14 36.71,-2.14"
         style="fill:#f8a68a;fill-opacity:1;fill-rule:nonzero;stroke:none"
         id="path308" /><path
         d="m 4495.89,2733.48 c 0,0 -165.54,-194.42 -208.81,-292.82 -43.27,-98.41 -73.06,-249.51 -75.21,-315.58 l 71.19,-9.06 89.21,251.83 206.82,295.92 c 0,0 9.13,77.8 -83.2,69.71"
         style="fill:#d23939;fill-opacity:1;fill-rule:nonzero;stroke:none"
         id="path310" /><path
         d="m 4488.41,3074.96 c -13.58,-9.65 -22.19,-24.49 -26.53,-39.94 -5.8,-20.69 -4.48,-42.73 1.05,-63.48 5.53,-20.74 15.15,-40.34 25.89,-59.19 2.01,-3.52 4.19,-7.16 7.77,-9.3 3.19,-1.92 7.1,-2.41 10.86,-2.85 45.21,-5.27 91.03,-10.55 136.19,-4.88 10.42,1.3 21.4,3.49 28.94,10.35 9.78,8.87 11.13,22.91 11.62,35.66 0.44,11.27 0.67,22.56 0.7,33.84 0.08,25.12 -0.9,50.65 -9.23,74.52 -3.22,9.23 -7.69,18.37 -15.17,25.09 -5.63,5.07 -12.69,8.52 -19.9,11.34 -23.97,9.35 -50.77,12.24 -76.38,8.24 -13.08,-2.05 -23.85,-10.69 -36.74,-9.84 -14.32,0.94 -27.31,-1.21 -39.07,-9.56"
         style="fill:#1e1918;fill-opacity:1;fill-rule:nonzero;stroke:none"
         id="path312" /><path
         d="m 4576.42,2731.7 h 1.06 c 25.26,0 45.75,19.21 45.75,42.91 v 67.66 h -92.56 v -67.66 c 0,-23.7 20.48,-42.91 45.75,-42.91"
         style="fill:#f9a88e;fill-opacity:1;fill-rule:nonzero;stroke:none"
         id="path314" /><path
         d="m 4623.23,2774.53 c 0,0.02 0,0.05 0,0.08 v 67.66 -67.74 0"
         style="fill:#e7dcd7;fill-opacity:1;fill-rule:nonzero;stroke:none"
         id="path316" /><path
         d="m 4603.72,2773.38 c -22.19,0 -55.2,4.19 -73.05,25.48 v 43.41 h 92.56 v -67.66 c 0,-0.03 0,-0.06 0,-0.08 -3.81,-0.51 -10.83,-1.15 -19.51,-1.15"
         style="fill:#f7967a;fill-opacity:1;fill-rule:nonzero;stroke:none"
         id="path318" /><path
         d="m 4502.7,2923.39 c -1.94,-14.01 -15.63,-23.9 -30.58,-22.07 -14.96,1.82 -25.49,14.66 -23.55,28.68 1.94,14.02 15.65,23.9 30.59,22.08 14.95,-1.83 25.49,-14.67 23.54,-28.69"
         style="fill:#f9a88e;fill-opacity:1;fill-rule:nonzero;stroke:none"
         id="path320" /><path
         d="m 4650.22,3039.75 c -50.43,55.28 -147.08,32.51 -165.4,-38.18 -8.21,-31.71 -13.78,-71.27 -7.23,-111.02 14.76,-89.6 75.07,-127.42 142.62,-97.89 67.55,29.53 73.94,156.79 51.7,212.5 -5.09,12.77 -12.46,24.47 -21.69,34.59"
         style="fill:#f9a88e;fill-opacity:1;fill-rule:nonzero;stroke:none"
         id="path322" /><path
         d="m 4468.55,2954.4 c 0,0 10.09,0.94 19.13,-13.22 0,0 9.06,73.26 53.97,69.74 0,0 77.61,-17.59 135.17,-16.4 57.55,1.19 121.35,135.49 13.95,124.42 -162.52,-16.75 -254.49,-20.1 -222.22,-164.54"
         style="fill:#1e1918;fill-opacity:1;fill-rule:nonzero;stroke:none"
         id="path324" /><path
         d="m 4681.27,2892.6 c 0,0 -10.46,-0.46 -29.64,1.39 -19.18,1.86 -58.3,28.26 -103.19,4.17 -31.53,-16.93 -55.4,-7.41 -55.4,-7.41 0,0 -9.55,-105 90.25,-110.56 93.61,-5.22 97.98,112.41 97.98,112.41"
         style="fill:#ffffff;fill-opacity:1;fill-rule:nonzero;stroke:none"
         id="path326" /><path
         d="m 4486.44,2941.03 6.85,-54.37 1.39,-1.09 1.09,1.4 -6.85,54.37 -1.39,1.08 -1.09,-1.39"
         style="fill:#ffffff;fill-opacity:1;fill-rule:nonzero;stroke:none"
         id="path328" /><path
         d="m 4475,2901.28 c 0,-0.04 -0.08,-0.98 -0.08,-2.71 0,-9.75 2.44,-44.5 34.32,-79.69 l 1.76,-0.09 0.09,1.77 c -31.35,34.61 -33.66,68.65 -33.67,78.01 0,1.65 0.07,2.5 0.07,2.5 l -1.14,1.35 -1.35,-1.14"
         style="fill:#ffffff;fill-opacity:1;fill-rule:nonzero;stroke:none"
         id="path330" /><path
         d="m 3655.49,370.031 c 0,-43.301 -244.58,-78.402 -546.27,-78.402 -301.69,0 -546.26,35.101 -546.26,78.402 0,43.301 244.57,78.391 546.26,78.391 301.69,0 546.27,-35.09 546.27,-78.391"
         style="fill:#f3f3f2;fill-opacity:1;fill-rule:nonzero;stroke:none"
         id="path332" /><path
         d="m 3062.46,2692.9 c -26.92,-54.9 -24.62,-119 -21.73,-180.07 3.61,-76.25 7.21,-152.5 10.82,-228.74 0.97,-20.46 2.43,-42.35 14.92,-58.58 18.56,-24.15 53.42,-26.56 83.87,-26.89 80.52,-0.89 161.03,-1.78 241.55,-2.66 16.68,-0.18 36.01,0.88 45.89,14.32 7.26,9.86 6.82,23.21 6.07,35.44 -6,97.71 -12,195.42 -18,293.13 -3.86,62.81 -8.66,128.63 -42.32,181.79 -66.61,105.17 -268.23,80.02 -321.07,-27.74"
         style="fill:#1e1918;fill-opacity:1;fill-rule:nonzero;stroke:none"
         id="path334" /><path
         d="m 2897.72,540.559 -15.25,-109.168 c 0,0 40.26,-16.469 56.12,-8.539 15.85,7.929 25.62,109.179 25.62,109.179 l -66.49,8.528"
         style="fill:#f9a88e;fill-opacity:1;fill-rule:nonzero;stroke:none"
         id="path336" /><path
         d="m 2884.91,455.789 c 0,0 -15.86,0 -23.18,-18.301 -7.31,-18.297 -22.81,-30.496 -41.47,-30.496 -32.93,0 -63.43,-31.711 -36.59,-45.133 26.83,-13.418 140.28,-4.879 157.36,-3.66 17.08,1.223 24.4,19.512 17.08,36.59 -7.32,17.082 -8.95,48.391 -8.95,48.391 0,0 -36.19,-16.668 -43.51,-9.348 -7.32,7.316 -4.88,20.738 -20.74,21.957"
         style="fill:#181f39;fill-opacity:1;fill-rule:nonzero;stroke:none"
         id="path338" /><path
         d="m 3385.46,540.359 9.35,-108.968 c 0,0 49.99,-0.891 66.28,6.097 1.42,0.614 -7.52,97.594 -7.52,97.594 l -68.11,5.277"
         style="fill:#f9a88e;fill-opacity:1;fill-rule:nonzero;stroke:none"
         id="path340" /><path
         d="m 3397.25,455.789 c 0,0 -15.86,0 -23.18,-18.301 -7.32,-18.297 -22.81,-30.496 -41.47,-30.496 -32.94,0 -63.43,-31.711 -36.6,-45.133 26.84,-13.418 140.29,-4.879 157.37,-3.66 17.07,1.223 24.39,19.512 17.07,36.59 -7.32,17.082 -8.94,48.391 -8.94,48.391 0,0 -36.19,-16.668 -43.51,-9.348 -7.32,7.316 -4.88,20.738 -20.74,21.957"
         style="fill:#181f39;fill-opacity:1;fill-rule:nonzero;stroke:none"
         id="path342" /><path
         d="m 3020.32,1707.35 -107.35,-578.2 -26.84,-605.048 c 0,0 53.68,-12.204 80.51,-14.641 26.84,-2.441 121.99,468.43 126.87,561.129 l 112.22,441.58 63.44,-583.08 117.1,-426.942 c 0,0 48.8,-9.769 73.19,2.434 0,0 -2.44,458.668 -9.76,544.048 -7.32,85.39 -31.71,666.04 -31.71,666.04 l -397.67,-7.32"
         style="fill:#181f39;fill-opacity:1;fill-rule:nonzero;stroke:none"
         id="path344" /><path
         d="m 3225.56,2394.84 c -7.53,0.49 -21.45,-1.73 -30.4,-2.95 -40.61,-5.54 -157.41,-53.07 -167.52,-233.19 -12.2,-217.13 -8.14,-455.41 -8.14,-455.41 l 399.3,-6.51 8.95,491.2 c 0,0 15.04,192.73 -202.19,206.86"
         style="fill:#257aad;fill-opacity:1;fill-rule:nonzero;stroke:none"
         id="path346" /><path
         d="m 3130.1,2366.69 c 0,0 59.78,-82.35 219.58,-8.55 0,0 -63.84,39.04 -128.49,36.6 -64.66,-2.44 -91.09,-28.05 -91.09,-28.05"
         style="fill:#f9a88e;fill-opacity:1;fill-rule:nonzero;stroke:none"
         id="path348" /><path
         d="m 3158.77,2383.15 c 0,0 -186.43,-71.56 -215.3,-269.59 -23.9,-163.91 -58.56,-239.09 39.03,-230.55 l 37.82,7.32 -113.45,-503.8 c 0,0 -43.91,-96.37 43.92,-106.12 87.82,-9.76 162.23,-30.5 162.23,51.23 0,81.73 28.06,769.72 28.06,769.72 l 17.69,281.79"
         style="fill:#f9f8f3;fill-opacity:1;fill-rule:nonzero;stroke:none"
         id="path350" /><path
         d="m 3309.2,2377.58 c 0,0 191.74,-62.74 206.7,-274.15 11.69,-165.23 50.8,-240.85 -46.47,-229.17 l -37.56,8.54 97.1,-507.21 c 0,0 40.78,-97.73 -47.32,-104.65 -88.1,-6.91 -163.14,-25.23 -160.5,56.46 2.64,81.69 -3.16,770.22 -3.16,770.22 l -8.79,279.96"
         style="fill:#f9f8f3;fill-opacity:1;fill-rule:nonzero;stroke:none"
         id="path352" /><path
         d="m 3061.79,2204.24 -16.26,-174.03 22.77,172.81 18.7,11.38 -25.21,-10.16"
         style="fill:#e5e5e1;fill-opacity:1;fill-rule:nonzero;stroke:none"
         id="path354" /><path
         d="m 3409.04,2204.24 16.27,-174.03 -22.77,172.81 -18.71,11.38 25.21,-10.16"
         style="fill:#e5e5e1;fill-opacity:1;fill-rule:nonzero;stroke:none"
         id="path356" /><path
         d="m 3210.62,1920.11 c 0,0 190.6,-93.51 232.37,-95.35 l -6.7,35.69 c 0,0 -186.64,56.92 -225.67,59.66"
         style="fill:#e5e5e1;fill-opacity:1;fill-rule:nonzero;stroke:none"
         id="path358" /><path
         d="m 3210.62,1920.11 c 0,0 -140.9,-65.15 -199.45,-69.12 l 5.79,23.48 c 0,0 181.15,47.99 193.66,45.64"
         style="fill:#e5e5e1;fill-opacity:1;fill-rule:nonzero;stroke:none"
         id="path360" /><path
         d="m 3103.19,2036.72 c 0,0 263.49,21.95 368.39,-41.48 104.91,-63.44 68.31,-146.39 -48.79,-134.19 -117.1,12.21 -331.8,107.36 -331.8,107.36 l 12.2,68.31"
         style="fill:#f9f8f3;fill-opacity:1;fill-rule:nonzero;stroke:none"
         id="path362" /><path
         d="m 3045.48,2031.69 38.64,22.92 c 19.36,11.48 44.78,3.01 52.58,-18.1 0.57,-1.54 1.08,-3.16 1.54,-4.88 8.53,-32.33 -1.83,-32.33 -1.83,-32.33 0,0 -87.27,4.94 -90.93,32.39"
         style="fill:#f9ab85;fill-opacity:1;fill-rule:nonzero;stroke:none"
         id="path364" /><path
         d="m 3334.23,2042.61 52.45,18.3 c 0,0 29.27,3.05 37.81,-29.28 8.54,-32.33 -1.82,-32.33 -1.82,-32.33 0,0 -84.78,15.86 -88.44,43.31"
         style="fill:#f9ab85;fill-opacity:1;fill-rule:nonzero;stroke:none"
         id="path366" /><path
         d="m 3347.24,2047.28 c 0,0 -263.49,21.96 -368.4,-41.47 -104.9,-63.43 -68.31,-146.38 48.8,-134.18 117.1,12.2 331.8,107.34 331.8,107.34 l -12.2,68.31"
         style="fill:#f9f8f3;fill-opacity:1;fill-rule:nonzero;stroke:none"
         id="path368" /><path
         d="m 3210.62,1920.11 142.11,74.52 -129.69,-78.98 c 0,0 -7.95,2.53 -12.42,4.46"
         style="fill:#e5e5e1;fill-opacity:1;fill-rule:nonzero;stroke:none"
         id="path370" /><path
         d="m 3233.13,2345.6 h -1.11 c -26.66,0 -48.26,21.61 -48.26,48.27 v 76.12 h 97.63 v -76.12 c 0,-26.66 -21.6,-48.27 -48.26,-48.27"
         style="fill:#f9a88e;fill-opacity:1;fill-rule:nonzero;stroke:none"
         id="path372" /><path
         d="m 3183.76,2393.79 v 0 0.08 c 0,-0.02 0,-0.05 0,-0.08"
         style="fill:#191514;fill-opacity:1;fill-rule:nonzero;stroke:none"
         id="path374" /><path
         d="m 3204.34,2392.49 c -9.16,0 -16.57,0.73 -20.58,1.3 0,0.03 0,0.06 0,0.08 v 76.12 h 97.63 v -48.83 c -18.83,-23.96 -53.65,-28.67 -77.05,-28.67"
         style="fill:#f7967a;fill-opacity:1;fill-rule:nonzero;stroke:none"
         id="path376" /><path
         d="m 3310.89,2561.24 c 2.05,-15.76 16.5,-26.88 32.27,-24.83 15.76,2.05 26.88,16.5 24.83,32.27 -2.05,15.77 -16.5,26.88 -32.27,24.83 -15.76,-2.05 -26.88,-16.5 -24.83,-32.27"
         style="fill:#f9a88e;fill-opacity:1;fill-rule:nonzero;stroke:none"
         id="path378" /><path
         d="m 3092.28,2561.24 c 2.05,-15.76 16.5,-26.88 32.27,-24.83 15.77,2.05 26.89,16.5 24.84,32.27 -2.06,15.77 -16.5,26.88 -32.27,24.83 -15.77,-2.05 -26.89,-16.5 -24.84,-32.27"
         style="fill:#f9a88e;fill-opacity:1;fill-rule:nonzero;stroke:none"
         id="path380" /><path
         d="m 3155.28,2692.14 c 53.2,62.18 155.15,36.56 174.47,-42.95 8.66,-35.67 14.53,-80.17 7.63,-124.89 -15.57,-100.8 -79.19,-143.34 -150.44,-110.11 -71.25,33.21 -77.99,176.36 -54.54,239.04 5.37,14.36 13.15,27.52 22.88,38.91"
         style="fill:#f9a88e;fill-opacity:1;fill-rule:nonzero;stroke:none"
         id="path382" /><path
         d="m 3218.77,2673.19 c 0,0 62.44,-72.73 120.79,-79.64 0,0 32.07,130.95 -20.31,150.19 -52.38,19.25 -100.48,-2.14 -100.48,-70.55"
         style="fill:#1e1918;fill-opacity:1;fill-rule:nonzero;stroke:none"
         id="path384" /><path
         d="m 3218.77,2673.19 c 0,0 -9.35,-46.24 -98.35,-79.37 0,0 -20.31,153.13 122.94,137.09 l -24.59,-57.72"
         style="fill:#1e1918;fill-opacity:1;fill-rule:nonzero;stroke:none"
         id="path386" /><path
         d="m 3125.57,2537.43 c 0,0 11.35,-0.53 32.17,1.62 20.81,2.17 63.26,32.97 111.97,4.87 34.23,-19.75 60.13,-8.64 60.13,-8.64 0,0 10.37,-122.49 -97.94,-128.97 -101.6,-6.09 -106.33,131.12 -106.33,131.12"
         style="fill:#ffffff;fill-opacity:1;fill-rule:nonzero;stroke:none"
         id="path388" /><path
         d="m 3338.33,2593.77 -11.35,-62.87 1.01,-1.45 1.45,1.01 11.35,62.87 -1.01,1.45 -1.45,-1.01"
         style="fill:#ffffff;fill-opacity:1;fill-rule:nonzero;stroke:none"
         id="path390" /><path
         d="m 3119.18,2593.68 6.6,-59.5 1.38,-1.11 1.11,1.38 -6.61,59.5 -1.38,1.11 -1.1,-1.38"
         style="fill:#ffffff;fill-opacity:1;fill-rule:nonzero;stroke:none"
         id="path392" /><path
         d="m 3337.77,2535.3 0.01,-1.04 c 0,-6.24 -1.3,-39.75 -27.73,-81.17 l 0.38,-1.73 1.73,0.39 c 26.74,41.91 28.12,75.93 28.12,82.51 l -0.02,1.15 -1.3,1.19 -1.19,-1.3"
         style="fill:#ffffff;fill-opacity:1;fill-rule:nonzero;stroke:none"
         id="path394" /><path
         d="m 3120.74,2536.24 -0.02,-1.15 c 0,-6.58 1.38,-40.6 28.12,-82.51 l 1.73,-0.39 0.38,1.73 c -26.42,41.42 -27.73,74.93 -27.73,81.17 l 0.02,1.04 -1.19,1.3 -1.31,-1.19"
         style="fill:#ffffff;fill-opacity:1;fill-rule:nonzero;stroke:none"
         id="path396" /><path
         d="m 5920.85,2860.49 c 0,0 -104.34,43.43 -125.23,-53.45 -19.36,-89.82 -22.54,-365.25 -22.54,-365.25 l 341.87,-2.22 c 0,0 -31.19,312.9 -41.76,354.1 -4.64,18.07 -43.98,126.95 -152.34,66.82"
         style="fill:#1e1918;fill-opacity:1;fill-rule:nonzero;stroke:none"
         id="path398" /><path
         d="m 5907.83,2528.65 c 0,0 -146.99,3.34 -161.48,-112.47 -14.47,-115.81 -79.06,-378.61 -75.71,-430.95 l 505.56,-8.9 c 0,0 -12.26,172.59 -28.96,260.56 -16.71,87.98 8.91,291.76 -239.41,291.76"
         style="fill:#eeae6b;fill-opacity:1;fill-rule:nonzero;stroke:none"
         id="path400" /><path
         d="m 5775.31,1467.7 -13.36,-115.25 86.02,-22.55 20.04,136.97 -92.7,0.83"
         style="fill:#f9a88e;fill-opacity:1;fill-rule:nonzero;stroke:none"
         id="path402" /><path
         d="m 5837.67,1337.69 c 0,0 -25.06,32.85 -59.02,30.07 -33.97,-2.78 -54.56,-46.21 -61.24,-69.6 -6.68,-23.38 -18.94,-75.16 30.07,-79.06 48.99,-3.9 114.68,0.56 114.68,0.56 0,0 24.51,18.37 17.83,51.78 -6.68,33.41 -17.83,64.03 -27.29,65.7 -9.46,1.67 -15.03,0.55 -15.03,0.55"
         style="fill:#9c4b27;fill-opacity:1;fill-rule:nonzero;stroke:none"
         id="path404" /><path
         d="m 5995.8,1656.18 c 0,0 22.26,-81.85 54.56,-127.51 l 74.05,62.92 -57.9,106.9 -70.71,-42.31"
         style="fill:#f9a88e;fill-opacity:1;fill-rule:nonzero;stroke:none"
         id="path406" /><path
         d="m 6124.14,1597.16 c 0,0 -37.59,36.74 -64.31,20.87 -26.73,-15.87 -13.37,-55.95 -13.37,-55.95 0,0 4.18,-20.04 0,-27.56 -4.17,-7.52 0,-20.88 13.37,-49.28 13.36,-28.39 50.94,-126.94 130.28,-98.54 79.34,28.38 51.78,96.04 13.36,127.77 -38.42,31.74 -79.33,82.69 -79.33,82.69"
         style="fill:#9c4b27;fill-opacity:1;fill-rule:nonzero;stroke:none"
         id="path408" /><path
         d="m 5762.51,1842.69 c 0,0 -111.92,20.05 -98.56,110.25 13.37,90.2 51.79,108.57 91.88,130.29 24.61,13.33 56.77,29.18 77.94,39.42 24.88,12.05 54.91,7.88 74.8,-11.32 5.83,-5.62 11.78,-12.65 17.63,-21.42 33.41,-50.12 153.67,-399.21 153.67,-399.21 l -86.86,-50.12 c 0,0 -172.05,288.98 -172.05,297.33 0,8.35 -53.44,-33.41 -58.45,-95.22"
         style="fill:#1d5da0;fill-opacity:1;fill-rule:nonzero;stroke:none"
         id="path410" /><path
         d="m 5820.13,1940.41 c 0,0 -65.97,-17.12 -62.63,-163.41 3.04,-133.6 6.68,-326.28 6.68,-326.28 l 110.24,-13.36 c 0,0 48.86,309.57 48.86,321.82 0,0 -99.39,168.29 -103.15,181.23"
         style="fill:#204e88;fill-opacity:1;fill-rule:nonzero;stroke:none"
         id="path412" /><path
         d="m 6024.47,1847.16 c 0,0 121.66,-18.94 141.7,34.51 20.05,53.45 11.48,116.68 -3.62,156.45 -16.7,44 -66.81,71 -106.63,71.83 -24.41,0.52 -116.5,-44.82 -116.5,-44.82 l 85.05,-217.97"
         style="fill:#204e88;fill-opacity:1;fill-rule:nonzero;stroke:none"
         id="path414" /><path
         d="m 5836,2517.51 c 0,0 -126.94,-31.73 -155.34,-98.55 -28.4,-66.81 -108.57,-257.22 -108.57,-257.22 0,0 25.05,-50.12 150.33,-55.13 125.27,-5.01 113.58,410.9 113.58,410.9"
         style="fill:#eeae6b;fill-opacity:1;fill-rule:nonzero;stroke:none"
         id="path416" /><path
         d="m 6023.64,2507.49 c 0,0 126.67,-21.71 155.07,-88.53 28.4,-66.81 108.57,-257.22 108.57,-257.22 0,0 -25.06,-50.12 -150.33,-55.13 -125.27,-5.01 -113.31,400.88 -113.31,400.88"
         style="fill:#eeae6b;fill-opacity:1;fill-rule:nonzero;stroke:none"
         id="path418" /><path
         d="m 5642.24,2202.94 c 0,0 -57.91,-5.58 -69.04,-35.64 -11.13,-30.07 65.7,-63.47 113.58,-76.83 47.88,-13.37 56.52,-14.76 56.52,-14.76 l 98.27,50.04 -29.57,23.48 c -47.36,37.59 -106.74,56.73 -167.14,53.83 l -2.62,-0.12"
         style="fill:#f9a88e;fill-opacity:1;fill-rule:nonzero;stroke:none"
         id="path420" /><path
         d="m 6172.82,2204.69 c 31.4,6.23 64.24,1.36 91.7,-15.07 24.61,-14.73 38.77,-35.45 -10.69,-57.45 -94.19,-41.88 -271.84,-68.5 -314.41,-67.04 l 19.77,40.23 c 0,0 144.45,80.43 158.26,85.18 16.93,5.83 37.68,10.64 55.37,14.15"
         style="fill:#f9a88e;fill-opacity:1;fill-rule:nonzero;stroke:none"
         id="path422" /><path
         d="m 5960.22,2092.38 c 0,0 0.62,29.8 -25.68,37.96 -26.29,8.14 -46.18,10.47 -46.18,10.47 0,0 -9.74,-6.84 -0.99,-10.62 8.75,-3.78 38.49,-10.74 37.31,-16.23 -1.17,-5.49 -0.03,-12.1 -14.39,-7.76 -14.37,4.33 -40.97,17.01 -45.51,25.62 -4.53,8.61 -16.33,13.03 -13.66,1.63 2.67,-11.39 -2.73,-42.73 31.13,-51.22 33.87,-8.48 52.98,-16.85 59.94,-17.06 6.97,-0.21 18.03,27.21 18.03,27.21"
         style="fill:#f8a68a;fill-opacity:1;fill-rule:nonzero;stroke:none"
         id="path424" /><path
         d="m 5929.32,2483.4 h -0.99 c -23.86,0 -43.21,19.33 -43.21,43.19 v 68.13 h 87.41 v -68.13 c 0,-23.86 -19.35,-43.19 -43.21,-43.19"
         style="fill:#f9a88e;fill-opacity:1;fill-rule:nonzero;stroke:none"
         id="path426" /><path
         d="m 5885.12,2526.52 v 0 0.07 c 0,-0.02 0,-0.05 0,-0.07"
         style="fill:#e99d57;fill-opacity:1;fill-rule:nonzero;stroke:none"
         id="path428" /><path
         d="m 5972.53,2551.02 v 43.7 h -87.41 v 0.01 h 87.41 v -43.71 0"
         style="fill:#191514;fill-opacity:1;fill-rule:nonzero;stroke:none"
         id="path430" /><path
         d="m 5903.54,2525.36 c -8.19,0 -14.82,0.64 -18.42,1.16 0,0.02 0,0.05 0,0.07 v 68.13 h 87.41 v -43.7 c -16.86,-21.45 -48.03,-25.66 -68.99,-25.66"
         style="fill:#f7967a;fill-opacity:1;fill-rule:nonzero;stroke:none"
         id="path432" /><path
         d="m 5998.92,2676.41 c 1.84,-14.11 14.77,-24.07 28.89,-22.23 14.11,1.84 24.06,14.77 22.23,28.88 -1.84,14.11 -14.77,24.07 -28.88,22.23 -14.12,-1.84 -24.07,-14.77 -22.24,-28.88"
         style="fill:#f9a88e;fill-opacity:1;fill-rule:nonzero;stroke:none"
         id="path434" /><path
         d="m 5803.25,2676.41 c 1.83,-14.11 14.76,-24.07 28.89,-22.23 14.11,1.84 24.06,14.77 22.22,28.88 -1.83,14.11 -14.76,24.07 -28.88,22.23 -14.12,-1.84 -24.07,-14.77 -22.23,-28.88"
         style="fill:#f9a88e;fill-opacity:1;fill-rule:nonzero;stroke:none"
         id="path436" /><path
         d="m 5859.64,2793.57 c 47.62,55.66 138.87,32.73 156.17,-38.44 7.75,-31.93 13,-71.76 6.82,-111.79 -13.93,-90.22 -70.88,-128.3 -134.66,-98.57 -63.77,29.74 -69.8,157.87 -48.81,213.97 4.81,12.86 11.76,24.64 20.48,34.83"
         style="fill:#f9a88e;fill-opacity:1;fill-rule:nonzero;stroke:none"
         id="path438" /><path
         d="m 5828.93,2705.53 c 0,0 107.29,57.52 112.3,126.01 0,0 -77.67,33.4 -106.07,-8.35 -28.39,-41.76 -6.23,-117.66 -6.23,-117.66"
         style="fill:#1e1918;fill-opacity:1;fill-rule:nonzero;stroke:none"
         id="path440" /><path
         d="m 5915.34,2803.14 c 0,0 44.3,-78.5 108.86,-97.58 0,0 32.28,97.58 -7.81,126.81 -40.09,29.23 -97.71,17.54 -101.05,-29.23"
         style="fill:#1e1918;fill-opacity:1;fill-rule:nonzero;stroke:none"
         id="path442" /><path
         d="m 5869.41,2216.85 -6.47,-82.47 c 7.52,-14.41 54.78,-35.93 60.34,-27.91 0.97,1.42 28.4,108.51 28.4,108.51 l -82.27,1.87"
         style="fill:#969796;fill-opacity:1;fill-rule:nonzero;stroke:none"
         id="path444" /><path
         d="m 5833.49,2657.99 c 0,0 10.15,-0.49 28.76,1.51 18.62,2 56.57,30.53 100.13,4.51 30.6,-18.3 53.77,-8.02 53.77,-8.02 0,0 9.27,-113.45 -87.58,-119.45 -90.85,-5.64 -95.08,121.45 -95.08,121.45"
         style="fill:#ffffff;fill-opacity:1;fill-rule:nonzero;stroke:none"
         id="path446" /><path
         d="m 6023.61,2706.28 -9.91,-53.58 1,-1.46 1.46,1 9.91,53.59 -1,1.46 -1.46,-1.01"
         style="fill:#ffffff;fill-opacity:1;fill-rule:nonzero;stroke:none"
         id="path448" /><path
         d="m 5827.69,2705.38 6.16,-49.93 1.4,-1.08 1.08,1.39 -6.16,49.92 -1.39,1.09 -1.09,-1.39"
         style="fill:#ffffff;fill-opacity:1;fill-rule:nonzero;stroke:none"
         id="path450" /><path
         d="m 6022.76,2653.79 v -0.29 c 0,-3.01 -0.67,-29.53 -23.53,-70.01 l 0.47,-1.7 1.71,0.47 c 23.08,40.87 23.85,67.86 23.85,71.24 v 0.35 l -1.28,1.22 -1.22,-1.28"
         style="fill:#ffffff;fill-opacity:1;fill-rule:nonzero;stroke:none"
         id="path452" /><path
         d="m 5828.29,2654.73 -0.03,-1.32 c 0,-6.33 1.47,-34.9 25.79,-73.01 l 1.73,-0.38 0.38,1.73 c -24.03,37.67 -25.4,65.71 -25.4,71.66 l 0.02,1.16 -1.17,1.33 -1.32,-1.17"
         style="fill:#ffffff;fill-opacity:1;fill-rule:nonzero;stroke:none"
         id="path454" /><path
         d="m 1713.31,1102.94 c 0,-28.47 -160.8,-51.55 -359.15,-51.55 -198.35,0 -359.144,23.08 -359.144,51.55 0,28.46 160.794,51.54 359.144,51.54 198.35,0 359.15,-23.08 359.15,-51.54"
         style="fill:#f3f3f2;fill-opacity:1;fill-rule:nonzero;stroke:none"
         id="path456" /><path
         d="m 1292.75,2658.9 h 1.06 c 25.55,0 46.27,20.72 46.27,46.27 v 72.97 h -93.6 v -72.97 c 0,-25.55 20.71,-46.27 46.27,-46.27"
         style="fill:#f9a88e;fill-opacity:1;fill-rule:nonzero;stroke:none"
         id="path458" /><path
         d="m 1367.37,2991.1 c -50.99,59.61 -148.73,35.05 -167.25,-41.17 -8.31,-34.2 -13.93,-76.86 -7.31,-119.73 14.93,-96.62 75.91,-137.41 144.22,-105.56 68.3,31.84 74.76,169.07 52.28,229.16 -5.15,13.77 -12.6,26.39 -21.94,37.3"
         style="fill:#f9a88e;fill-opacity:1;fill-rule:nonzero;stroke:none"
         id="path460" /><path
         d="m 1401.26,2868.55 c 0,0 -10.81,-17.67 -16.63,-23.07 -5.82,-5.41 -27.37,-17.59 -34.5,-57.65 -6.76,-37.93 6.85,-42.84 16,-39.21 12.7,5.06 49.67,79.4 35.13,119.93"
         style="fill:#ffffff;fill-opacity:1;fill-rule:nonzero;stroke:none"
         id="path462" /><path
         d="m 1356.37,2868.41 33.67,-26.18 c 1.09,-0.85 2.66,-0.65 3.51,0.44 0.84,1.09 0.65,2.66 -0.44,3.5 l -33.67,26.19 c -1.09,0.85 -2.66,0.65 -3.51,-0.44 -0.85,-1.09 -0.65,-2.66 0.44,-3.51"
         style="fill:#ffffff;fill-opacity:1;fill-rule:nonzero;stroke:none"
         id="path464" /><path
         d="m 1333.79,2807.09 c 0.01,-0.1 0.42,-9.67 3.1,-19.61 1.35,-4.97 3.25,-10.05 6.12,-14.15 2.83,-4.08 6.9,-7.32 12.22,-7.69 1.38,-0.1 2.57,0.94 2.67,2.31 0.1,1.38 -0.94,2.58 -2.32,2.68 -3.4,0.25 -6.09,2.2 -8.48,5.57 -3.54,5.01 -5.74,12.88 -6.91,19.41 -0.59,3.28 -0.94,6.22 -1.15,8.34 -0.2,2.11 -0.25,3.36 -0.26,3.36 -0.06,1.38 -1.23,2.45 -2.6,2.39 -1.38,-0.06 -2.45,-1.23 -2.39,-2.61"
         style="fill:#ffffff;fill-opacity:1;fill-rule:nonzero;stroke:none"
         id="path466" /><path
         d="m 1382.03,3070.89 c 27.59,4.94 58.47,-0.01 78.53,-19.59 20.05,-19.58 24.4,-55.63 4.54,-75.41 -28.22,-28.12 -85.16,-11.9 -107.65,-44.78 -12.11,-17.7 6.41,-54.14 0.87,-74.85 -8.04,-30.06 -38.48,-86.32 -65.68,-101.43 -29.93,-16.63 -59.03,-14.13 -78.44,10.01 -10.39,12.91 -24.8,44.11 -30.01,59.84 -13.07,39.52 -22.56,80.21 -28.3,121.44 -4.29,30.73 -5.45,65.33 14.48,89.12 15.45,18.44 40.83,26.13 64.89,25.65 25.18,-0.5 51.88,-18.18 75.45,-16.6 23.05,1.54 47.34,22.3 71.32,26.6"
         style="fill:#1e1918;fill-opacity:1;fill-rule:nonzero;stroke:none"
         id="path468" /><path
         d="m 1150.87,2457.07 -31.54,-130 48.01,-273.34 -46.24,-10.92 -80.04,237.63 c -4.27,12.67 -5.54,26.17 -3.69,39.41 l 25.61,183.57 87.89,-46.35"
         style="fill:#f8a68a;fill-opacity:1;fill-rule:nonzero;stroke:none"
         id="path470" /><path
         d="m 1171.46,2441.57 c 0,0 126.87,197.43 23.91,223.84 -102.96,26.41 -141.64,-160.33 -146.67,-196.48 l 122.76,-27.36"
         style="fill:#eed2d1;fill-opacity:1;fill-rule:nonzero;stroke:none"
         id="path472" /><path
         d="m 1151.78,2058.5 c 0,0 31.36,-2.88 36.8,-31.43 5.44,-28.56 5.53,-49.7 5.53,-49.7 0,0 -8.33,-9.41 -11.26,0.21 -2.93,9.63 -6.73,41.66 -12.62,41.08 -5.89,-0.58 -12.7,1.41 -9.85,-14.18 2.85,-15.6 13.01,-45.01 21.51,-50.79 8.5,-5.77 11.74,-18.68 0.1,-14.53 -11.65,4.15 -45.17,2.18 -50.07,38.73 -4.91,36.54 -11.43,57.6 -10.82,64.92 0.6,7.33 30.68,15.69 30.68,15.69"
         style="fill:#f8a68a;fill-opacity:1;fill-rule:nonzero;stroke:none"
         id="path474" /><path
         d="m 1241.51,1221.78 2.79,-78.24 -49.6,-1.39 -6.28,91.51 53.09,-11.88"
         style="fill:#f9aa84;fill-opacity:1;fill-rule:nonzero;stroke:none"
         id="path476" /><path
         d="m 1292.14,2079.18 -36.66,-881.85 -74.75,-1.4 c 0,0 -58.06,812.12 -50.61,875.46 l 162.02,7.79"
         style="fill:#344d92;fill-opacity:1;fill-rule:nonzero;stroke:none"
         id="path478" /><path
         d="m 1245.7,1156.81 c 0,0 55.88,-33.52 74.05,-40.51 18.16,-6.99 33.53,-23.75 11.17,-32.13 -22.35,-8.39 -149.49,1.39 -149.49,1.39 0,0 1.4,48.9 9.78,62.87 0,0 19.56,-18.16 54.49,8.38"
         style="fill:#152540;fill-opacity:1;fill-rule:nonzero;stroke:none"
         id="path480" /><path
         d="m 1417.55,1221.78 2.79,-78.24 -49.6,-1.39 -6.29,91.51 53.1,-11.88"
         style="fill:#f9aa84;fill-opacity:1;fill-rule:nonzero;stroke:none"
         id="path482" /><path
         d="m 1468.18,2079.18 -36.66,-881.85 -74.75,-1.4 c 0,0 -58.06,812.12 -50.61,875.46 l 162.02,7.79"
         style="fill:#4762a6;fill-opacity:1;fill-rule:nonzero;stroke:none"
         id="path484" /><path
         d="m 1421.74,1156.81 c 0,0 55.88,-33.52 74.05,-40.51 18.16,-6.99 33.53,-23.75 11.17,-32.13 -22.35,-8.39 -149.49,1.39 -149.49,1.39 0,0 1.4,48.9 9.78,62.87 0,0 19.56,-18.16 54.49,8.38"
         style="fill:#152540;fill-opacity:1;fill-rule:nonzero;stroke:none"
         id="path486" /><path
         d="m 1339.65,1938.97 c 0,0 -169.8,-18.69 -172.92,118.4 -2.39,105.24 166.69,96.59 166.69,96.59 l 6.23,-214.99"
         style="fill:#4762a6;fill-opacity:1;fill-rule:nonzero;stroke:none"
         id="path488" /><path
         d="m 1340.44,2696.1 c 0,0 171.36,-28.05 165.13,-230.57 -6.23,-202.53 -31.43,-421.75 -31.43,-421.75 0,0 -313.58,-54.27 -358.04,19.82 -9.35,15.58 0,526.56 0,526.56 0,0 -24.92,127.74 224.34,105.94"
         style="fill:#fde7e7;fill-opacity:1;fill-rule:nonzero;stroke:none"
         id="path490" /><path
         d="m 1523.22,2493.49 52.9,-82.02 98.51,125.97 28.17,-43.22 -84.83,-184.33 c 0,0 -24.42,-50.23 -60.66,-24.78 -36.24,25.45 -100.53,134.75 -100.53,134.75 l 66.44,73.63"
         style="fill:#f8a68a;fill-opacity:1;fill-rule:nonzero;stroke:none"
         id="path492" /><path
         d="m 1669.83,2508.44 c 0,0 -17.71,29.63 4.06,52.9 21.77,23.27 40.44,37.01 40.44,37.01 0,0 13.71,-1.3 7.08,-10.11 -6.64,-8.81 -32.54,-32.87 -28.22,-37.72 4.32,-4.84 6.96,-12.14 18.93,0.45 11.96,12.6 31.45,40.59 31.07,51.85 -0.38,11.26 8.95,22.47 12.8,9.48 3.86,-12.99 27.25,-41.4 -1.94,-69.36 -29.19,-27.95 -43.62,-47.32 -50.5,-51.53 -6.88,-4.2 -33.72,17.03 -33.72,17.03"
         style="fill:#f8a68a;fill-opacity:1;fill-rule:nonzero;stroke:none"
         id="path494" /><path
         d="m 1552.84,2473.01 c 0,0 -77.24,221.6 -161.51,156.82 -84.26,-64.79 38.93,-210.36 64.29,-236.61 l 97.22,79.79"
         style="fill:#fde7e7;fill-opacity:1;fill-rule:nonzero;stroke:none"
         id="path496" /></g></g></svg>
