<?xml version="1.0" encoding="UTF-8" standalone="no"?>
<svg
   xmlns:dc="http://purl.org/dc/elements/1.1/"
   xmlns:cc="http://creativecommons.org/ns#"
   xmlns:rdf="http://www.w3.org/1999/02/22-rdf-syntax-ns#"
   xmlns:svg="http://www.w3.org/2000/svg"
   xmlns="http://www.w3.org/2000/svg"
   xmlns:sodipodi="http://sodipodi.sourceforge.net/DTD/sodipodi-0.dtd"
   xmlns:inkscape="http://www.inkscape.org/namespaces/inkscape"
   version="1.1"
   id="svg2"
   xml:space="preserve"
   width="1000"
   height="666.66669"
   viewBox="0 0 1000 666.66669"
   sodipodi:docname="4886723.ai"><metadata
     id="metadata8"><rdf:RDF><cc:Work
         rdf:about=""><dc:format>image/svg+xml</dc:format><dc:type
           rdf:resource="http://purl.org/dc/dcmitype/StillImage" /></cc:Work></rdf:RDF></metadata><defs
     id="defs6"><clipPath
       clipPathUnits="userSpaceOnUse"
       id="clipPath24"><path
         d="M 0,500 H 750 V 0 H 0 Z"
         id="path22" /></clipPath><clipPath
       clipPathUnits="userSpaceOnUse"
       id="clipPath66"><path
         d="m 170.69,369.372 h 89.783 V 293.734 H 170.69 Z"
         id="path64" /></clipPath><clipPath
       clipPathUnits="userSpaceOnUse"
       id="clipPath108"><path
         d="m 330.31,369.372 h 89.782 V 293.734 H 330.31 Z"
         id="path106" /></clipPath><clipPath
       clipPathUnits="userSpaceOnUse"
       id="clipPath194"><path
         d="m 194.618,277.135 h 9.39 v -7.453 h -9.39 z"
         id="path192" /></clipPath><clipPath
       clipPathUnits="userSpaceOnUse"
       id="clipPath238"><path
         d="m 186.923,256.52 h 26.729 v -30.072 h -26.729 z"
         id="path236" /></clipPath><clipPath
       clipPathUnits="userSpaceOnUse"
       id="clipPath254"><path
         d="m 177.702,252.277 h 3.609 v -24.056 h -3.609 z"
         id="path252" /></clipPath><clipPath
       clipPathUnits="userSpaceOnUse"
       id="clipPath272"><path
         d="m 112.6,217.913 h 215.487 v -4.42 H 112.6 Z"
         id="path270" /></clipPath><clipPath
       clipPathUnits="userSpaceOnUse"
       id="clipPath354"><path
         d="m 672.524,234.346 h 7.757 v -56.909 h -7.757 z"
         id="path352" /></clipPath><clipPath
       clipPathUnits="userSpaceOnUse"
       id="clipPath370"><path
         d="m 708.43,234.346 h 7.757 v -56.909 h -7.757 z"
         id="path368" /></clipPath><clipPath
       clipPathUnits="userSpaceOnUse"
       id="clipPath386"><path
         d="m 690.407,251.425 h 3.059 V 126.047 h -3.059 z"
         id="path384" /></clipPath><clipPath
       clipPathUnits="userSpaceOnUse"
       id="clipPath410"><path
         d="m 690.79,265.285 h 8.617 v -6.84 h -8.617 z"
         id="path408" /></clipPath><clipPath
       clipPathUnits="userSpaceOnUse"
       id="clipPath498"><path
         d="M 59.9682,44.1682 H 100.574 V 11.0655 H 59.9682 Z"
         id="path496" /></clipPath><clipPath
       clipPathUnits="userSpaceOnUse"
       id="clipPath570"><path
         d="m 453.067,284.227 h 9.256 v -6.889 h -9.256 z"
         id="path568" /></clipPath><clipPath
       clipPathUnits="userSpaceOnUse"
       id="clipPath694"><path
         d="m 318.376,246.999 h 9.763 v -7.75 h -9.763 z"
         id="path692" /></clipPath><clipPath
       clipPathUnits="userSpaceOnUse"
       id="clipPath810"><path
         d="m 588.513,259.473 h 8.739 v -6.937 h -8.739 z"
         id="path808" /></clipPath></defs><sodipodi:namedview
     pagecolor="#ffffff"
     bordercolor="#666666"
     borderopacity="1"
     objecttolerance="10"
     gridtolerance="10"
     guidetolerance="10"
     inkscape:pageopacity="0"
     inkscape:pageshadow="2"
     inkscape:window-width="640"
     inkscape:window-height="480"
     id="namedview4" /><g
     id="g10"
     inkscape:groupmode="layer"
     inkscape:label="4886723"
     transform="matrix(1.3333333,0,0,-1.3333333,0,666.66667)"><path
       d="M 0,0 H 750 V 500 H 0 Z"
       style="fill:#fafcff;fill-opacity:1;fill-rule:nonzero;stroke:none"
       id="path12" /><path
       d="M 0,126.206 H 750 V 500 H 0 Z"
       style="fill:#e8e3df;fill-opacity:1;fill-rule:nonzero;stroke:none"
       id="path14" /><path
       d="M 711.512,175.53 H 474.679 v 8.964 h 236.833 z"
       style="fill:#7db0fd;fill-opacity:1;fill-rule:nonzero;stroke:none"
       id="path16" /><g
       id="g18"><g
         id="g20"
         clip-path="url(#clipPath24)"><g
           id="g26"
           transform="translate(478.0406,126.4645)"><path
             d="m 0,0 h -9.365 v 67.651 c 0,14.186 11.54,25.726 25.724,25.726 H 215.26 c 14.185,0 25.725,-11.54 25.725,-25.726 V 0.473 h -9.365 v 67.178 c 0,9.022 -7.34,16.362 -16.36,16.362 H 16.359 C 7.339,84.013 0,76.673 0,67.651 Z"
             style="fill:#f9f9f9;fill-opacity:1;fill-rule:nonzero;stroke:none"
             id="path28" /></g><g
           id="g30"
           transform="translate(703.0211,184.489)"><path
             d="m 0,0 h -217.967 v 43.77 c 0,8.018 6.501,14.519 14.521,14.519 H -14.521 C -6.501,58.289 0,51.788 0,43.77 Z"
             style="fill:#d5e6fe;fill-opacity:1;fill-rule:nonzero;stroke:none"
             id="path32" /></g><path
           d="m 554.846,126.31 h -9.365 v 88.36 h 9.365 z"
           style="fill:#f9f9f9;fill-opacity:1;fill-rule:nonzero;stroke:none"
           id="path34" /><path
           d="m 640.239,126.31 h -9.365 v 89.321 h 9.365 z"
           style="fill:#f9f9f9;fill-opacity:1;fill-rule:nonzero;stroke:none"
           id="path36" /><path
           d="M 270.428,293.735 H 130.096 v 75.637 h 140.332 z"
           style="fill:#eaf2ff;fill-opacity:1;fill-rule:nonzero;stroke:none"
           id="path38" /><path
           d="m 153.048,293.733 h -22.952 v 75.639 h 22.952 z"
           style="fill:#d5e6fe;fill-opacity:1;fill-rule:nonzero;stroke:none"
           id="path40" /><g
           id="g42"
           transform="translate(148.3419,322.8713)"><path
             d="m 0,0 v 0 c -0.596,0 -1.078,0.483 -1.078,1.079 v 15.26 c 0,0.596 0.482,1.078 1.078,1.078 0.595,0 1.078,-0.482 1.078,-1.078 V 1.079 C 1.078,0.483 0.595,0 0,0"
             style="fill:#ffffff;fill-opacity:1;fill-rule:nonzero;stroke:none"
             id="path44" /></g><path
           d="m 223.898,293.733 h -62.701 v 12.689 h 62.701 z"
           style="fill:#d5e6fe;fill-opacity:1;fill-rule:nonzero;stroke:none"
           id="path46" /><path
           d="m 223.898,308.413 h -62.701 v 12.689 h 62.701 z"
           style="fill:#d5e6fe;fill-opacity:1;fill-rule:nonzero;stroke:none"
           id="path48" /><path
           d="m 223.898,323.59 h -62.701 v 12.689 h 62.701 z"
           style="fill:#d5e6fe;fill-opacity:1;fill-rule:nonzero;stroke:none"
           id="path50" /><path
           d="m 223.898,338.685 h -62.701 v 12.689 h 62.701 z"
           style="fill:#d5e6fe;fill-opacity:1;fill-rule:nonzero;stroke:none"
           id="path52" /><path
           d="m 264.952,293.733 h -34.834 v 12.689 h 34.834 z"
           style="fill:#d5e6fe;fill-opacity:1;fill-rule:nonzero;stroke:none"
           id="path54" /><path
           d="m 264.952,308.413 h -34.834 v 12.689 h 34.834 z"
           style="fill:#d5e6fe;fill-opacity:1;fill-rule:nonzero;stroke:none"
           id="path56" /><path
           d="m 264.952,323.59 h -34.834 v 12.689 h 34.834 z"
           style="fill:#d5e6fe;fill-opacity:1;fill-rule:nonzero;stroke:none"
           id="path58" /><g
           id="g60"><g
             id="g62" /><g
             id="g78"><g
               clip-path="url(#clipPath66)"
               opacity="0.300003"
               id="g76"><g
                 transform="translate(237.2482,369.3718)"
                 id="g70"><path
                   d="M 0,0 -34.321,-75.637 H -66.558 L -32.241,0 Z"
                   style="fill:#f2f2f2;fill-opacity:1;fill-rule:nonzero;stroke:none"
                   id="path68" /></g><g
                 transform="translate(260.4728,369.3718)"
                 id="g74"><path
                   d="m 0,0 -34.317,-75.637 h -16.12 L -16.117,0 Z"
                   style="fill:#f2f2f2;fill-opacity:1;fill-rule:nonzero;stroke:none"
                   id="path72" /></g></g></g></g><path
           d="M 430.047,293.735 H 289.715 v 75.637 h 140.332 z"
           style="fill:#eaf2ff;fill-opacity:1;fill-rule:nonzero;stroke:none"
           id="path80" /><path
           d="m 312.667,293.733 h -22.952 v 75.639 h 22.952 z"
           style="fill:#d5e6fe;fill-opacity:1;fill-rule:nonzero;stroke:none"
           id="path82" /><g
           id="g84"
           transform="translate(307.9615,322.8713)"><path
             d="m 0,0 v 0 c -0.596,0 -1.078,0.483 -1.078,1.079 v 15.26 c 0,0.596 0.482,1.078 1.078,1.078 0.595,0 1.078,-0.482 1.078,-1.078 V 1.079 C 1.078,0.483 0.595,0 0,0"
             style="fill:#ffffff;fill-opacity:1;fill-rule:nonzero;stroke:none"
             id="path86" /></g><path
           d="m 383.517,293.733 h -62.7 v 12.689 h 62.7 z"
           style="fill:#d5e6fe;fill-opacity:1;fill-rule:nonzero;stroke:none"
           id="path88" /><path
           d="m 383.517,308.413 h -62.7 v 12.689 h 62.7 z"
           style="fill:#d5e6fe;fill-opacity:1;fill-rule:nonzero;stroke:none"
           id="path90" /><path
           d="m 383.517,323.59 h -62.7 v 12.689 h 62.7 z"
           style="fill:#d5e6fe;fill-opacity:1;fill-rule:nonzero;stroke:none"
           id="path92" /><path
           d="m 383.517,338.685 h -62.7 v 12.689 h 62.7 z"
           style="fill:#d5e6fe;fill-opacity:1;fill-rule:nonzero;stroke:none"
           id="path94" /><path
           d="m 424.572,293.733 h -34.834 v 12.689 h 34.834 z"
           style="fill:#d5e6fe;fill-opacity:1;fill-rule:nonzero;stroke:none"
           id="path96" /><path
           d="m 424.572,308.413 h -34.834 v 12.689 h 34.834 z"
           style="fill:#d5e6fe;fill-opacity:1;fill-rule:nonzero;stroke:none"
           id="path98" /><path
           d="m 424.572,323.59 h -34.834 v 12.689 h 34.834 z"
           style="fill:#d5e6fe;fill-opacity:1;fill-rule:nonzero;stroke:none"
           id="path100" /><g
           id="g102"><g
             id="g104" /><g
             id="g120"><g
               clip-path="url(#clipPath108)"
               opacity="0.300003"
               id="g118"><g
                 transform="translate(396.8678,369.3718)"
                 id="g112"><path
                   d="M 0,0 -34.321,-75.637 H -66.558 L -32.241,0 Z"
                   style="fill:#f2f2f2;fill-opacity:1;fill-rule:nonzero;stroke:none"
                   id="path110" /></g><g
                 transform="translate(420.0924,369.3718)"
                 id="g116"><path
                   d="m 0,0 -34.317,-75.637 h -16.12 L -16.116,0 Z"
                   style="fill:#f2f2f2;fill-opacity:1;fill-rule:nonzero;stroke:none"
                   id="path114" /></g></g></g></g><path
           d="M 99.502,126.187 H 0.717 v 200.062 h 98.785 z"
           style="fill:#eaf2ff;fill-opacity:1;fill-rule:nonzero;stroke:none"
           id="path122" /><path
           d="M 92.705,126.187 H 7.513 v 191.577 h 85.192 z"
           style="fill:#d5e6fe;fill-opacity:1;fill-rule:nonzero;stroke:none"
           id="path124" /><g
           id="g126"
           transform="translate(470.2399,305.7248)"><path
             d="m 0,0 c -12.952,0 -23.489,10.537 -23.489,23.489 0,12.952 10.537,23.49 23.489,23.49 12.952,0 23.489,-10.538 23.489,-23.49 C 23.489,10.537 12.952,0 0,0"
             style="fill:#d5e6fe;fill-opacity:1;fill-rule:nonzero;stroke:none"
             id="path128" /></g><g
           id="g130"
           transform="translate(491.652,329.2141)"><path
             d="m 0,0 c 0,-11.826 -9.587,-21.412 -21.412,-21.412 -11.825,0 -21.412,9.586 -21.412,21.412 0,11.826 9.587,21.412 21.412,21.412 C -9.587,21.412 0,11.826 0,0"
             style="fill:#eaf2ff;fill-opacity:1;fill-rule:nonzero;stroke:none"
             id="path132" /></g><g
           id="g134"
           transform="translate(473.0602,329.0988)"><path
             d="m 0,0 c 0,-1.367 -1.108,-2.475 -2.475,-2.475 -1.367,0 -2.475,1.108 -2.475,2.475 0,1.367 1.108,2.475 2.475,2.475 C -1.108,2.475 0,1.367 0,0"
             style="fill:#d5e6fe;fill-opacity:1;fill-rule:nonzero;stroke:none"
             id="path136" /></g><g
           id="g138"
           transform="translate(469.319,327.5832)"><path
             d="m 0,0 h -9.555 c -0.665,0 -1.209,0.544 -1.209,1.209 0,0.665 0.544,1.208 1.209,1.208 H 0 C 0.665,2.417 1.209,1.874 1.209,1.209 1.209,0.544 0.665,0 0,0"
             style="fill:#d5e6fe;fill-opacity:1;fill-rule:nonzero;stroke:none"
             id="path140" /></g><g
           id="g142"
           transform="translate(470.2975,328.5788)"><path
             d="m 0,0 v 0 c -0.493,0.285 -0.664,0.921 -0.379,1.415 l 7.252,12.562 c 0.285,0.493 0.922,0.664 1.415,0.379 0.494,-0.285 0.665,-0.922 0.38,-1.415 L 1.415,0.379 C 1.13,-0.115 0.493,-0.285 0,0"
             style="fill:#d5e6fe;fill-opacity:1;fill-rule:nonzero;stroke:none"
             id="path144" /></g><path
           d="M 672.137,269.346 H 511.63 v 101.979 h 160.507 z"
           style="fill:#eaf2ff;fill-opacity:1;fill-rule:nonzero;stroke:none"
           id="path146" /><path
           d="m 669.134,272.346 h -154.5 v 95.98 h 154.5 z"
           style="fill:#f8fbff;fill-opacity:1;fill-rule:nonzero;stroke:none"
           id="path148" /><path
           d="M 677.014,262.695 H 506.753 v 7.094 h 170.261 z"
           style="fill:#d5e6fe;fill-opacity:1;fill-rule:nonzero;stroke:none"
           id="path150" /><g
           id="g152"
           transform="translate(628.0543,368.3264)"><path
             d="M 0,0 -50.72,-95.98 H -82.69 L -31.97,0 Z"
             style="fill:#ffffff;fill-opacity:1;fill-rule:nonzero;stroke:none"
             id="path154" /></g><g
           id="g156"
           transform="translate(649.694,368.3264)"><path
             d="M 0,0 -50.729,-95.98 H -66.72 L -15.989,0 Z"
             style="fill:#ffffff;fill-opacity:1;fill-rule:nonzero;stroke:none"
             id="path158" /></g><path
           d="M 672.137,366.545 H 511.63 v 4.78 h 160.507 z"
           style="fill:#d5e6fe;fill-opacity:1;fill-rule:nonzero;stroke:none"
           id="path160" /><path
           d="M 672.137,356.968 H 511.63 v 4.78 h 160.507 z"
           style="fill:#d5e6fe;fill-opacity:1;fill-rule:nonzero;stroke:none"
           id="path162" /><path
           d="M 672.137,347.39 H 511.63 v 4.781 h 160.507 z"
           style="fill:#d5e6fe;fill-opacity:1;fill-rule:nonzero;stroke:none"
           id="path164" /><path
           d="M 672.137,337.813 H 511.63 v 4.781 h 160.507 z"
           style="fill:#d5e6fe;fill-opacity:1;fill-rule:nonzero;stroke:none"
           id="path166" /><path
           d="M 672.137,328.236 H 511.63 v 4.781 h 160.507 z"
           style="fill:#d5e6fe;fill-opacity:1;fill-rule:nonzero;stroke:none"
           id="path168" /><path
           d="M 672.137,318.659 H 511.63 v 4.781 h 160.507 z"
           style="fill:#d5e6fe;fill-opacity:1;fill-rule:nonzero;stroke:none"
           id="path170" /><g
           id="g172"
           transform="translate(202.8786,305.4997)"><path
             d="m 0,0 c 0,0 15.72,-1.203 11.007,-31.874 l -31.372,1.103 c 0,0 -2.126,32.976 20.365,30.771"
             style="fill:#231f20;fill-opacity:1;fill-rule:nonzero;stroke:none"
             id="path174" /></g><g
           id="g176"
           transform="translate(201.8053,269.2829)"><path
             d="m 0,0 c 0,0 19.037,-0.881 19.742,-9.695 0.705,-8.813 -2.82,-37.81 -16.217,-39.396 -13.396,-1.587 -37.017,-0.793 -37.017,-0.793 0,0 6.346,33.843 7.756,37.721 1.41,3.878 6.346,10.224 16.923,12.339 z"
             style="fill:#3d5486;fill-opacity:1;fill-rule:nonzero;stroke:none"
             id="path178" /></g><g
           id="g180"
           transform="translate(207.0934,268.7101)"><path
             d="m 0,0 c 0,0 -7.139,-17.186 -15.071,-23.003 0,0 -7.227,14.233 0.969,23.752 C -9.247,0.941 -4.535,0.722 0,0"
             style="fill:#aedfee;fill-opacity:1;fill-rule:nonzero;stroke:none"
             id="path182" /></g><g
           id="g184"
           transform="translate(199.3659,265.173)"><path
             d="M 0,0 H -0.106 C -2.67,0 -4.748,2.078 -4.748,4.642 v 7.32 h 9.39 V 4.642 C 4.642,2.078 2.563,0 0,0"
             style="fill:#f4b799;fill-opacity:1;fill-rule:nonzero;stroke:none"
             id="path186" /></g><g
           id="g188"><g
             id="g190" /><g
             id="g202"><g
               clip-path="url(#clipPath194)"
               opacity="0.300003"
               id="g200"><g
                 transform="translate(204.0075,272.4391)"
                 id="g198"><path
                   d="M 0,0 V 4.696 H -9.39 V -2.633 C -8.016,-2.828 -2.519,-3.205 0,0"
                   style="fill:#000000;fill-opacity:1;fill-rule:nonzero;stroke:none"
                   id="path196" /></g></g></g></g><g
           id="g204"
           transform="translate(206.8444,285.9108)"><path
             d="M 0,0 C 0.197,-1.516 1.586,-2.585 3.103,-2.388 4.619,-2.191 5.688,-0.802 5.491,0.715 5.294,2.231 3.905,3.3 2.388,3.103 0.872,2.906 -0.197,1.517 0,0"
             style="fill:#f4b799;fill-opacity:1;fill-rule:nonzero;stroke:none"
             id="path206" /></g><g
           id="g208"
           transform="translate(191.88,298.4992)"><path
             d="m 0,0 c 5.116,5.98 14.92,3.516 16.778,-4.131 0.833,-3.43 1.398,-7.709 0.734,-12.01 -1.498,-9.693 -7.616,-13.785 -14.468,-10.59 -6.852,3.194 -7.5,16.961 -5.245,22.989 C -1.685,-2.361 -0.937,-1.095 0,0"
             style="fill:#f4b799;fill-opacity:1;fill-rule:nonzero;stroke:none"
             id="path210" /></g><g
           id="g212"
           transform="translate(188.7536,282.7141)"><path
             d="m 0,0 c 0,0 1.062,-0.05 3.007,0.15 1.946,0.201 5.913,3.057 10.467,0.451 3.199,-1.831 5.62,-0.802 5.62,-0.802 0,0 0.969,-11.359 -9.155,-11.961 C 0.442,-12.726 0,0 0,0"
             style="fill:#ffffff;fill-opacity:1;fill-rule:nonzero;stroke:none"
             id="path214" /></g><g
           id="g216"
           transform="translate(209.5426,289.0451)"><path
             d="M 0,0 -1.845,-6.958"
             style="fill:none;stroke:#ffffff;stroke-width:0.25;stroke-linecap:round;stroke-linejoin:round;stroke-miterlimit:10;stroke-dasharray:none;stroke-opacity:1"
             id="path218" /></g><g
           id="g220"
           transform="translate(209.5592,283.3654)"><path
             d="M 0,0 C 0,0 0.327,-4.093 -3.449,-8.537"
             style="fill:none;stroke:#ffffff;stroke-width:0.25;stroke-linecap:round;stroke-linejoin:round;stroke-miterlimit:10;stroke-dasharray:none;stroke-opacity:1"
             id="path222" /></g><g
           id="g224"
           transform="translate(211.2799,290.8659)"><path
             d="M 0,0 -11.026,0.501 -14.133,5.613 -16.939,0 -25.158,0.902 c 0,0 4.51,12.629 14.533,11.627 C -0.602,11.527 0,0 0,0"
             style="fill:#231f20;fill-opacity:1;fill-rule:nonzero;stroke:none"
             id="path226" /></g><g
           id="g228"
           transform="translate(206.4352,252.0964)"><path
             d="m 0,0 v -3.862 l -9.622,0.454 0.52,4.09 z"
             style="fill:#f9e7e5;fill-opacity:1;fill-rule:nonzero;stroke:none"
             id="path230" /></g><g
           id="g232"><g
             id="g234" /><g
             id="g246"><g
               clip-path="url(#clipPath238)"
               opacity="0.5"
               id="g244"><g
                 transform="translate(213.652,256.5202)"
                 id="g242"><path
                   d="m 0,0 c 0,0 -9.355,-11.359 -8.82,-25.259 0,0 -9.355,-4.944 -17.909,-4.81 0,0 12.964,2.405 16.305,5.612 0,0 2.806,17.775 10.424,24.457"
                   style="fill:#000000;fill-opacity:1;fill-rule:nonzero;stroke:none"
                   id="path240" /></g></g></g></g><g
           id="g248"><g
             id="g250" /><g
             id="g262"><g
               clip-path="url(#clipPath254)"
               opacity="0.5"
               id="g260"><g
                 transform="translate(181.3107,251.9763)"
                 id="g258"><path
                   d="M 0,0 -3.608,-23.755 -0.902,0.301 Z"
                   style="fill:#000000;fill-opacity:1;fill-rule:nonzero;stroke:none"
                   id="path256" /></g></g></g></g><path
           d="M 328.087,126.133 H 112.601 v 91.781 h 215.486 z"
           style="fill:#d5e6fe;fill-opacity:1;fill-rule:nonzero;stroke:none"
           id="path264" /><g
           id="g266"><g
             id="g268" /><g
             id="g278"><g
               clip-path="url(#clipPath272)"
               opacity="0.5"
               id="g276"><path
                 d="M 328.087,213.493 H 112.601 v 4.421 h 215.486 z"
                 style="fill:#000000;fill-opacity:1;fill-rule:nonzero;stroke:none"
                 id="path274" /></g></g></g><path
           d="M 336.068,217.858 H 104.62 v 8.646 h 231.448 z"
           style="fill:#7db0fd;fill-opacity:1;fill-rule:nonzero;stroke:none"
           id="path280" /><g
           id="g282"
           transform="translate(176.2955,233.3766)"><path
             d="m 0,0 h -48.504 c -0.993,0 -1.797,0.805 -1.797,1.797 v 30.436 c 0,0.993 0.804,1.797 1.797,1.797 L 0,34.03 c 0.992,0 1.797,-0.804 1.797,-1.797 V 1.797 C 1.797,0.805 0.992,0 0,0"
             style="fill:#d5e6fe;fill-opacity:1;fill-rule:nonzero;stroke:none"
             id="path284" /></g><g
           id="g286"
           transform="translate(143.6188,250.8903)"><path
             d="M 0,0 -0.111,-22.793 13.08,-22.834 14.188,0.887 Z"
             style="fill:#d5e6fe;fill-opacity:1;fill-rule:nonzero;stroke:none"
             id="path288" /></g><g
           id="g290"
           transform="translate(157.8073,251.777)"><path
             d="M 0,0 -1.108,-23.721 H -4.212 Z"
             style="fill:#bacee5;fill-opacity:1;fill-rule:nonzero;stroke:none"
             id="path292" /></g><path
           d="m 164.902,226.504 h -29.264 v 2.883 h 29.264 z"
           style="fill:#d5e6fe;fill-opacity:1;fill-rule:nonzero;stroke:none"
           id="path294" /><g
           id="g296"
           transform="translate(726.5524,75.3278)"><path
             d="m 0,0 c 0,-4.169 -16.849,-7.549 -37.634,-7.549 -20.785,0 -37.635,3.38 -37.635,7.549 0,4.168 16.85,7.548 37.635,7.548 C -16.849,7.548 0,4.168 0,0"
             style="fill:#efefef;fill-opacity:1;fill-rule:nonzero;stroke:none"
             id="path298" /></g><g
           id="g300"
           transform="translate(678.6412,93.0075)"><path
             d="m 0,0 -0.368,-10.303 6.531,-0.183 0.828,12.05 z"
             style="fill:#f3b892;fill-opacity:1;fill-rule:nonzero;stroke:none"
             id="path302" /></g><g
           id="g304"
           transform="translate(673.7653,147.0349)"><path
             d="m 0,0 3.036,-57.247 9.843,-0.184 c 0,0 2.575,47.619 1.594,55.959 z"
             style="fill:#007efa;fill-opacity:1;fill-rule:nonzero;stroke:none"
             id="path306" /></g><g
           id="g308"
           transform="translate(678.0895,84.4528)"><path
             d="m 0,0 c 0,0 -7.359,-4.415 -9.751,-5.335 -2.392,-0.92 -4.415,-3.128 -1.472,-4.231 2.944,-1.104 19.686,0.183 19.686,0.183 0,0 -0.185,6.44 -1.288,8.279 0,0 -2.576,-2.391 -7.175,1.104"
             style="fill:#002748;fill-opacity:1;fill-rule:nonzero;stroke:none"
             id="path310" /></g><g
           id="g312"
           transform="translate(704.275,93.0075)"><path
             d="m 0,0 -0.368,-10.303 6.531,-0.183 0.828,12.05 z"
             style="fill:#f3b892;fill-opacity:1;fill-rule:nonzero;stroke:none"
             id="path314" /></g><g
           id="g316"
           transform="translate(699.399,147.0349)"><path
             d="m 0,0 3.036,-57.247 9.843,-0.184 c 0,0 2.575,47.619 1.594,55.959 z"
             style="fill:#007efa;fill-opacity:1;fill-rule:nonzero;stroke:none"
             id="path318" /></g><g
           id="g320"
           transform="translate(703.7233,84.4528)"><path
             d="m 0,0 c 0,0 -7.359,-4.415 -9.751,-5.335 -2.392,-0.92 -4.415,-3.128 -1.472,-4.231 2.944,-1.104 19.686,0.183 19.686,0.183 0,0 -0.185,6.44 -1.288,8.279 0,0 -2.576,-2.391 -7.175,1.104"
             style="fill:#002748;fill-opacity:1;fill-rule:nonzero;stroke:none"
             id="path322" /></g><g
           id="g324"
           transform="translate(668.4323,177.3503)"><path
             d="m 0,0 c 0,0 3.579,-1.318 3.321,-4.83 -0.257,-3.512 -0.908,-5.989 -0.908,-5.989 0,0 -1.269,-0.84 -1.31,0.379 -0.041,1.217 0.516,5.084 -0.192,5.201 -0.707,0.117 -1.441,0.561 -1.597,-1.352 -0.154,-1.913 0.114,-5.674 0.927,-6.616 0.814,-0.941 0.79,-2.554 -0.443,-1.703 -1.233,0.849 -5.217,1.669 -4.647,6.098 0.571,4.43 0.467,7.098 0.767,7.937 C -3.781,-0.036 0,0 0,0"
             style="fill:#ffb893;fill-opacity:1;fill-rule:nonzero;stroke:none"
             id="path326" /></g><g
           id="g328"
           transform="translate(693.8033,257.2814)"><path
             d="m 0,0 c 0,0 -16.006,1.595 -18.581,-10.547 -2.576,-12.143 -2.208,-53.721 -2.208,-53.721 l -5.642,-68.562 c 0,0 51.023,1.718 51.636,3.067 0.761,1.675 -5.519,87.939 -5.519,87.939 l -1.104,37.9 C 18.582,-3.924 14.351,0 0,0"
             style="fill:#57af96;fill-opacity:1;fill-rule:nonzero;stroke:none"
             id="path330" /></g><g
           id="g332"
           transform="translate(677.5221,251.6091)"><path
             d="m 0,0 c 0,0 -5.336,-4.14 -9.659,-35.905 -1.954,-14.36 -4.905,-39.985 -4.905,-39.985 l 17.661,-0.735 c 0,0 1.962,39.983 2.208,41.21 C 5.55,-34.188 0,0 0,0"
             style="fill:#57af96;fill-opacity:1;fill-rule:nonzero;stroke:none"
             id="path334" /></g><g
           id="g336"
           transform="translate(721.4899,179.1218)"><path
             d="m 0,0 c 0,0 -3.578,-1.318 -3.321,-4.83 0.257,-3.513 0.908,-5.989 0.908,-5.989 0,0 1.27,-0.841 1.311,0.378 0.041,1.218 -0.517,5.084 0.191,5.201 0.708,0.117 1.442,0.561 1.597,-1.352 0.154,-1.913 -0.114,-5.673 -0.927,-6.615 -0.814,-0.942 -0.79,-2.554 0.443,-1.704 1.233,0.849 5.217,1.67 4.647,6.098 -0.571,4.43 -0.467,7.098 -0.767,7.937 C 3.782,-0.037 0,0 0,0"
             style="fill:#ffb893;fill-opacity:1;fill-rule:nonzero;stroke:none"
             id="path338" /></g><g
           id="g340"
           transform="translate(712.3854,253.3571)"><path
             d="m 0,0 c 0,0 5.351,-4.117 9.674,-35.883 1.954,-14.359 4.906,-39.984 4.906,-39.984 l -17.662,-0.736 c 0,0 -1.962,39.984 -2.207,41.21 C -5.535,-34.166 0,0 0,0"
             style="fill:#57af96;fill-opacity:1;fill-rule:nonzero;stroke:none"
             id="path342" /></g><g
           id="g344"
           transform="translate(688.1315,257.1281)"><path
             d="m 0,0 c 0,0 0.092,-6.807 2.299,-9.934 l 3.036,4.231 2.668,-4.047 c 0,0 6.224,6.653 7.143,9.229 0,0 -5.764,4.937 -15.146,0.521"
             style="fill:#c7f3ff;fill-opacity:1;fill-rule:nonzero;stroke:none"
             id="path346" /></g><g
           id="g348"><g
             id="g350" /><g
             id="g362"><g
               clip-path="url(#clipPath354)"
               opacity="0.5"
               id="g360"><g
                 transform="translate(677.9205,234.3464)"
                 id="g358"><path
                   d="M 0,0 C 0,0 0.199,-18.704 0.981,-23.794 L -5.396,-56.909 2.361,-23.35 C 2.361,-23.35 0.49,-7.236 0,0"
                   style="fill:#000000;fill-opacity:1;fill-rule:nonzero;stroke:none"
                   id="path356" /></g></g></g></g><g
           id="g364"><g
             id="g366" /><g
             id="g378"><g
               clip-path="url(#clipPath370)"
               opacity="0.5"
               id="g376"><g
                 transform="translate(710.7906,234.3464)"
                 id="g374"><path
                   d="m 0,0 c 0,0 -0.199,-18.704 -0.981,-23.794 l 6.377,-33.115 -7.757,33.559 c 0,0 1.871,16.114 2.361,23.35"
                   style="fill:#000000;fill-opacity:1;fill-rule:nonzero;stroke:none"
                   id="path372" /></g></g></g></g><g
           id="g380"><g
             id="g382" /><g
             id="g394"><g
               clip-path="url(#clipPath386)"
               opacity="0.5"
               id="g392"><g
                 transform="translate(693.4664,251.425)"
                 id="g390"><path
                   d="m 0,0 c 0,0 -5.734,-77.177 -1.503,-125.378 0,0 -0.307,97.506 1.503,125.378"
                   style="fill:#000000;fill-opacity:1;fill-rule:nonzero;stroke:none"
                   id="path388" /></g></g></g></g><g
           id="g396"
           transform="translate(703.3405,288.3874)"><path
             d="m 0,0 c 1.265,-0.958 2.067,-2.431 2.471,-3.965 0.54,-2.054 0.418,-4.243 -0.098,-6.302 -0.515,-2.06 -1.41,-4.005 -2.411,-5.878 -0.187,-0.349 -0.39,-0.71 -0.723,-0.923 -0.297,-0.19 -0.66,-0.239 -1.01,-0.283 -4.21,-0.524 -8.475,-1.047 -12.68,-0.484 -0.97,0.129 -1.992,0.347 -2.695,1.027 -0.91,0.881 -1.035,2.275 -1.081,3.541 -0.041,1.12 -0.062,2.24 -0.065,3.36 -0.008,2.493 0.084,5.028 0.859,7.398 0.3,0.917 0.716,1.824 1.412,2.492 0.525,0.503 1.182,0.846 1.853,1.124 2.232,0.929 4.727,1.216 7.111,0.819 1.218,-0.203 2.22,-1.061 3.421,-0.977 C -2.303,1.042 -1.094,0.829 0,0"
             style="fill:#231f20;fill-opacity:1;fill-rule:nonzero;stroke:none"
             id="path398" /></g><g
           id="g400"
           transform="translate(695.1471,254.3073)"><path
             d="M 0,0 H -0.098 C -2.45,0 -4.357,1.907 -4.357,4.26 v 6.718 H 4.26 V 4.26 C 4.26,1.907 2.354,0 0,0"
             style="fill:#f4b799;fill-opacity:1;fill-rule:nonzero;stroke:none"
             id="path402" /></g><g
           id="g404"><g
             id="g406" /><g
             id="g418"><g
               clip-path="url(#clipPath410)"
               opacity="0.300003"
               id="g416"><g
                 transform="translate(699.4078,260.9753)"
                 id="g414"><path
                   d="M 0,0 V 4.31 H -8.618 V -2.416 C -7.356,-2.595 -2.313,-2.941 0,0"
                   style="fill:#000000;fill-opacity:1;fill-rule:nonzero;stroke:none"
                   id="path412" /></g></g></g></g><g
           id="g420"
           transform="translate(702.0104,273.3391)"><path
             d="M 0,0 C 0.182,-1.392 1.456,-2.373 2.848,-2.191 4.239,-2.01 5.221,-0.735 5.04,0.656 4.858,2.048 3.584,3.029 2.192,2.848 0.801,2.667 -0.181,1.392 0,0"
             style="fill:#f4b799;fill-opacity:1;fill-rule:nonzero;stroke:none"
             id="path422" /></g><g
           id="g424"
           transform="translate(688.277,284.8923)"><path
             d="m 0,0 c 4.695,5.488 13.693,3.227 15.398,-3.791 0.765,-3.148 1.283,-7.076 0.673,-11.023 -1.374,-8.895 -6.988,-12.65 -13.277,-9.719 -6.289,2.932 -6.883,15.567 -4.814,21.098 0.474,1.268 1.161,2.43 2.02,3.435"
             style="fill:#f4b799;fill-opacity:1;fill-rule:nonzero;stroke:none"
             id="path426" /></g><g
           id="g428"
           transform="translate(705.191,276.4172)"><path
             d="m 0,0 c 0,0 -0.94,0.094 -1.782,-1.312 0,0 -1.47,8.312 -5.65,7.963 0,0 -6.6,-2.785 -11.959,-2.667 -5.358,0.118 -6.4,11.491 3.65,11.909 10.051,0.418 10.399,-1.952 10.399,-1.952 0,0 9.638,3.205 5.342,-13.941"
             style="fill:#231f20;fill-opacity:1;fill-rule:nonzero;stroke:none"
             id="path430" /></g><g
           id="g432"
           transform="translate(685.3864,270.2824)"><path
             d="m 0,0 c 0,0 0.975,-0.046 2.76,0.138 1.786,0.184 5.428,2.806 9.605,0.414 2.937,-1.681 5.159,-0.736 5.159,-0.736 0,0 0.889,-10.425 -8.402,-10.977 C 0.406,-11.679 0,0 0,0"
             style="fill:#ffffff;fill-opacity:1;fill-rule:nonzero;stroke:none"
             id="path434" /></g><g
           id="g436"
           transform="translate(703.4088,275.1057)"><path
             d="M 0,0 -0.637,-5.398"
             style="fill:none;stroke:#ffffff;stroke-width:0.25;stroke-linecap:round;stroke-linejoin:round;stroke-miterlimit:10;stroke-dasharray:none;stroke-opacity:1"
             id="path438" /></g><g
           id="g440"
           transform="translate(704.4742,271.1335)"><path
             d="M 0,0 C 0,0 0.307,-4.009 -3.158,-8.087"
             style="fill:none;stroke:#ffffff;stroke-width:0.25;stroke-linecap:round;stroke-linejoin:round;stroke-miterlimit:10;stroke-dasharray:none;stroke-opacity:1"
             id="path442" /></g><g
           id="g444"
           transform="translate(272.8737,422.1852)"><path
             d="m 0,0 h -179.832 v 10.451 c 0,6.327 5.128,11.455 11.455,11.455 H -11.455 C -5.129,21.906 0,16.778 0,10.451 Z"
             style="fill:#ffffff;fill-opacity:1;fill-rule:nonzero;stroke:none"
             id="path446" /></g><path
           d="m 128.218,439.478 h -4.029 V 500 h 4.029 z"
           style="fill:#ffffff;fill-opacity:1;fill-rule:nonzero;stroke:none"
           id="path448" /><path
           d="m 241.726,439.478 h -4.029 V 500 h 4.029 z"
           style="fill:#ffffff;fill-opacity:1;fill-rule:nonzero;stroke:none"
           id="path450" /><g
           id="g452"
           transform="translate(656.9586,422.1852)"><path
             d="m 0,0 h -179.832 v 10.451 c 0,6.327 5.128,11.455 11.455,11.455 H -11.455 C -5.129,21.906 0,16.778 0,10.451 Z"
             style="fill:#ffffff;fill-opacity:1;fill-rule:nonzero;stroke:none"
             id="path454" /></g><path
           d="m 512.303,439.478 h -4.029 V 500 h 4.029 z"
           style="fill:#ffffff;fill-opacity:1;fill-rule:nonzero;stroke:none"
           id="path456" /><path
           d="m 625.811,439.478 h -4.029 V 500 h 4.029 z"
           style="fill:#ffffff;fill-opacity:1;fill-rule:nonzero;stroke:none"
           id="path458" /><g
           id="g460"
           transform="translate(111.6539,15.3532)"><path
             d="m 0,0 c 0,-4.33 -19.937,-7.841 -44.53,-7.841 -24.593,0 -44.529,3.511 -44.529,7.841 0,4.329 19.936,7.84 44.529,7.84 C -19.937,7.84 0,4.329 0,0"
             style="fill:#efefef;fill-opacity:1;fill-rule:nonzero;stroke:none"
             id="path462" /></g><g
           id="g464"
           transform="translate(101.005,59.9948)"><path
             d="m 0,0 8.74,-0.67 c 1.699,2.354 2.987,4.818 3.788,7.056 l -2.93,1.74 3.38,-0.326 c 0.69,2.493 0.693,4.567 -0.117,5.659 0,0 -2.786,3.415 -8.875,4.651 l -5.022,-5.155 1.917,5.552 c -3.007,0.176 -6.61,-0.186 -10.86,-1.515 -0.857,-0.267 -1.655,-0.555 -2.416,-0.852 l -1.72,-5.498 -0.614,4.468 c -10.816,-5.358 -9.226,-13.812 -3.293,-15.846 0,0 2.716,-11.746 12.896,-9.797 l -2.279,4.919 4.945,-4.141 c 3.395,1.294 6.372,3.535 8.804,6.153 z"
             style="fill:#578757;fill-opacity:1;fill-rule:nonzero;stroke:none"
             id="path466" /></g><g
           id="g468"
           transform="translate(105.5954,70.9362)"><path
             d="m 0,0 c -2.32,-0.099 -4.624,-0.621 -6.834,-1.343 -2.211,-0.734 -4.347,-1.699 -6.344,-2.898 -4.007,-2.381 -7.479,-5.615 -10.248,-9.352 -2.814,-3.715 -4.902,-7.932 -6.529,-12.288 -1.622,-4.368 -2.702,-8.925 -3.444,-13.524 -0.031,-0.196 -0.215,-0.329 -0.411,-0.299 -0.196,0.031 -0.33,0.215 -0.299,0.411 l 0.001,0.005 c 0.793,4.629 1.925,9.216 3.606,13.611 1.684,4.384 3.835,8.626 6.716,12.356 2.836,3.752 6.379,6.988 10.447,9.353 2.027,1.192 4.192,2.144 6.428,2.864 C -4.672,-0.398 -2.36,0.105 0,0.184 0.051,0.186 0.093,0.146 0.095,0.095 0.097,0.045 0.058,0.003 0.007,0.001 Z"
             style="fill:#476d47;fill-opacity:1;fill-rule:nonzero;stroke:none"
             id="path470" /></g><g
           id="g472"
           transform="translate(32.9313,74.5173)"><path
             d="m 0,0 -11.848,1.407 c -1.648,3.592 -2.718,7.223 -3.198,10.421 l 4.371,1.551 -4.598,0.456 c -0.267,3.511 0.276,6.281 1.646,7.526 0,0 4.621,3.826 13.078,3.872 l 5.347,-8.207 -1.097,7.919 c 4.062,-0.558 8.778,-1.99 14.102,-4.884 1.075,-0.584 2.065,-1.177 3.002,-1.776 l 0.848,-7.795 1.998,5.806 c 13.031,-10.005 8.68,-20.876 0.222,-22.029 0,0 -6.723,-14.97 -19.802,-9.684 l 4.338,5.968 -7.694,-4.227 c -4.192,2.623 -7.578,6.4 -10.135,10.537 z"
             style="fill:#69a369;fill-opacity:1;fill-rule:nonzero;stroke:none"
             id="path474" /></g><g
           id="g476"
           transform="translate(29.6847,90.3376)"><path
             d="m 0,0 c 3.073,-0.744 6.012,-2.049 8.772,-3.595 2.76,-1.563 5.358,-3.414 7.708,-5.542 4.724,-4.236 8.508,-9.468 11.221,-15.188 2.778,-5.702 4.456,-11.884 5.48,-18.13 1.015,-6.26 1.257,-12.629 1.036,-18.967 -0.01,-0.269 0.2,-0.497 0.47,-0.507 0.27,-0.01 0.497,0.2 0.507,0.47 v 0.006 c 0.161,6.391 -0.142,12.814 -1.228,19.127 -1.094,6.298 -2.849,12.529 -5.713,18.269 -2.798,5.757 -6.676,11.012 -11.486,15.243 -2.393,2.126 -5.032,3.967 -7.829,5.517 C 6.135,-1.764 3.18,-0.481 0.048,0.245 -0.019,0.261 -0.086,0.219 -0.102,0.151 -0.117,0.085 -0.076,0.019 -0.009,0.002 Z"
             style="fill:#598959;fill-opacity:1;fill-rule:nonzero;stroke:none"
             id="path478" /></g><g
           id="g480"
           transform="translate(96.2868,81.235)"><path
             d="m 0,0 11.848,1.408 c 1.648,3.591 2.718,7.222 3.198,10.42 l -4.371,1.551 4.598,0.456 c 0.267,3.511 -0.276,6.281 -1.646,7.526 0,0 -4.621,3.826 -13.078,3.873 l -5.347,-8.208 1.097,7.919 c -4.062,-0.557 -8.778,-1.99 -14.102,-4.883 -1.075,-0.584 -2.065,-1.178 -3.002,-1.776 l -0.848,-7.796 -1.998,5.806 c -13.032,-10.005 -8.68,-20.876 -0.222,-22.029 0,0 6.723,-14.97 19.802,-9.684 l -4.338,5.968 7.694,-4.226 c 4.192,2.622 7.578,6.4 10.135,10.536 z"
             style="fill:#80b774;fill-opacity:1;fill-rule:nonzero;stroke:none"
             id="path482" /></g><g
           id="g484"
           transform="translate(99.5333,97.0554)"><path
             d="m 0,0 c -3.073,-0.744 -6.012,-2.048 -8.772,-3.595 -2.76,-1.563 -5.358,-3.414 -7.708,-5.542 -4.724,-4.235 -8.508,-9.468 -11.221,-15.188 -2.778,-5.702 -4.456,-11.884 -5.48,-18.13 -1.015,-6.26 -1.257,-12.629 -1.036,-18.966 0.01,-0.27 -0.2,-0.497 -0.47,-0.508 -0.27,-0.01 -0.497,0.2 -0.507,0.47 v 0.007 c -0.162,6.39 0.142,12.813 1.228,19.126 1.094,6.298 2.849,12.529 5.713,18.269 2.798,5.757 6.676,11.012 11.486,15.243 2.393,2.126 5.032,3.967 7.829,5.517 2.803,1.533 5.758,2.816 8.89,3.542 C 0.019,0.261 0.086,0.219 0.102,0.151 0.117,0.085 0.076,0.019 0.009,0.002 Z"
             style="fill:#78a36f;fill-opacity:1;fill-rule:nonzero;stroke:none"
             id="path486" /></g><g
           id="g488"
           transform="translate(100.5744,44.1686)"><path
             d="m 0,0 c -0.26,-18.327 -15.18,-33.104 -33.579,-33.104 -2.41,0 -4.762,0.26 -7.027,0.737 -15.022,3.203 -26.321,16.45 -26.552,32.367 z"
             style="fill:#f0a24e;fill-opacity:1;fill-rule:nonzero;stroke:none"
             id="path490" /></g><g
           id="g492"><g
             id="g494" /><g
             id="g506"><g
               clip-path="url(#clipPath498)"
               opacity="0.5"
               id="g504"><g
                 transform="translate(100.5744,44.1686)"
                 id="g502"><path
                   d="m 0,0 c -0.26,-18.327 -15.18,-33.104 -33.579,-33.104 -2.41,0 -4.762,0.26 -7.027,0.737 6.883,5.758 16.046,8.643 22.915,14.546 3.853,3.333 6.854,7.604 8.774,12.308 0.577,1.386 0.822,3.435 1.096,5.513 z"
                   style="fill:#000000;fill-opacity:1;fill-rule:nonzero;stroke:none"
                   id="path500" /></g></g></g></g><g
           id="g508"
           transform="translate(494.944,103.4763)"><path
             d="m 0,0 c 0,-4.33 -22.588,-7.84 -50.45,-7.84 -27.863,0 -50.45,3.51 -50.45,7.84 0,4.33 22.587,7.84 50.45,7.84 C -22.588,7.84 0,4.33 0,0"
             style="fill:#efefef;fill-opacity:1;fill-rule:nonzero;stroke:none"
             id="path510" /></g><g
           id="g512"
           transform="translate(467.0397,119.1501)"><path
             d="M 0,0 0.479,-10.24 -6.444,-10.477 -7.427,1.499 Z"
             style="fill:#f3b892;fill-opacity:1;fill-rule:nonzero;stroke:none"
             id="path514" /></g><g
           id="g516"
           transform="translate(467.6989,110.6491)"><path
             d="m 0,0 c 0,0 7.841,-4.33 10.385,-5.226 2.544,-0.895 4.709,-3.073 1.597,-4.195 -3.112,-1.121 -20.875,0.024 -20.875,0.024 0,0 0.14,6.403 1.294,8.242 0,0 2.752,-2.358 7.599,1.155"
             style="fill:#002748;fill-opacity:1;fill-rule:nonzero;stroke:none"
             id="path518" /></g><g
           id="g520"
           transform="translate(454.1823,211.7829)"><path
             d="m 0,0 c 0,0 3.503,-87.773 5.062,-100.713 0,0 6.576,0.298 8.994,0.536 0,0 8.278,95.339 7.325,101.367 z"
             style="fill:#73b5bf;fill-opacity:1;fill-rule:nonzero;stroke:none"
             id="path522" /></g><g
           id="g524"
           transform="translate(425.1588,121.403)"><path
             d="m 0,0 -3.54,-9.698 -6.538,2.149 3.747,11.486 z"
             style="fill:#f3b892;fill-opacity:1;fill-rule:nonzero;stroke:none"
             id="path526" /></g><g
           id="g528"
           transform="translate(422.4635,113.2624)"><path
             d="m 0,0 c 0,0 5.614,-6.716 7.634,-8.42 2.02,-1.704 3.187,-4.474 -0.146,-4.452 -3.334,0.02 -19.426,7.166 -19.426,7.166 0,0 2.624,5.914 4.414,7.23 0,0 1.644,-3.136 7.524,-1.524"
             style="fill:#002748;fill-opacity:1;fill-rule:nonzero;stroke:none"
             id="path530" /></g><g
           id="g532"
           transform="translate(440.5436,211.9616)"><path
             d="m 0,0 -23.765,-91.982 8.216,-2.791 c 0,0 38.658,84.59 40.801,92.628 z"
             style="fill:#7fbdcc;fill-opacity:1;fill-rule:nonzero;stroke:none"
             id="path534" /></g><g
           id="g536"
           transform="translate(498.4987,221.1804)"><path
             d="m 0,0 c 0,0 -1.292,-2.902 1.126,-4.718 2.417,-1.815 4.404,-2.811 4.404,-2.811 0,0 1.302,0.296 0.54,1.005 -0.76,0.708 -3.587,2.54 -3.238,3.034 0.348,0.493 0.501,1.186 1.827,0.206 1.325,-0.98 3.589,-3.251 3.71,-4.272 0.12,-1.02 1.174,-1.911 1.363,-0.688 0.19,1.222 2.046,4.09 -1.151,6.231 C 5.385,0.128 3.727,1.687 3.007,1.977 2.286,2.266 0,0 0,0"
             style="fill:#ffb893;fill-opacity:1;fill-rule:nonzero;stroke:none"
             id="path538" /></g><g
           id="g540"
           transform="translate(455.5074,269.9665)"><path
             d="m 0,0 c 0,0 10.075,-22.967 17.137,-31.275 7.061,-8.309 19.681,-18.069 25.727,-21.445 l 4.292,5.387 -19.115,19.502 -17.52,31.262 C 10.521,3.431 3.722,7.948 0,0"
             style="fill:#aa433d;fill-opacity:1;fill-rule:nonzero;stroke:none"
             id="path542" /></g><g
           id="g544"
           transform="translate(466.0699,274.8918)"><path
             d="m 0,0 c -5.757,3.98 -14.201,3.868 -19.487,-0.535 -2.847,-2.371 -5.239,-6.038 -5.039,-11.637 0.476,-13.364 -3.86,-56.957 -3.86,-56.957 0,0 17.639,-6.657 39.071,-2.726 0,0 -1.397,49.464 -1.873,56.539 C 8.491,-10.553 5.796,-4.008 0,0"
             style="fill:#b64c41;fill-opacity:1;fill-rule:nonzero;stroke:none"
             id="path546" /></g><g
           id="g548"
           transform="translate(426.0914,213.611)"><path
             d="m 0,0 c 0,0 2.722,-1.848 1.668,-4.584 -1.054,-2.737 -2.196,-4.562 -2.196,-4.562 0,0 -1.278,-0.385 -1.023,0.593 0.255,0.979 1.649,3.93 1.076,4.181 -0.572,0.251 -1.089,0.768 -1.675,-0.719 -0.587,-1.488 -1.255,-4.539 -0.789,-5.47 0.465,-0.931 0.062,-2.208 -0.782,-1.256 -0.843,0.951 -4.029,2.492 -2.491,5.888 1.539,3.397 2.086,5.542 2.54,6.143 C -3.218,0.814 0,0 0,0"
             style="fill:#ffb893;fill-opacity:1;fill-rule:nonzero;stroke:none"
             id="path550" /></g><g
           id="g552"
           transform="translate(449.5885,273.3483)"><path
             d="m 0,0 c 0,0 -16.554,-19.442 -20.881,-29.282 -4.327,-9.841 -7.306,-24.951 -7.52,-31.559 l 7.119,-0.905 8.921,25.183 20.681,29.591 c 0,0 0.913,7.781 -8.32,6.972"
             style="fill:#b64c41;fill-opacity:1;fill-rule:nonzero;stroke:none"
             id="path554" /></g><g
           id="g556"
           transform="translate(448.8414,307.4958)"><path
             d="m 0,0 c -1.358,-0.965 -2.22,-2.449 -2.653,-3.994 -0.58,-2.068 -0.449,-4.273 0.104,-6.347 0.554,-2.075 1.516,-4.034 2.59,-5.92 0.2,-0.352 0.419,-0.716 0.776,-0.93 0.32,-0.192 0.71,-0.241 1.086,-0.285 4.522,-0.527 9.104,-1.055 13.619,-0.488 1.042,0.131 2.14,0.349 2.895,1.035 0.978,0.887 1.112,2.291 1.161,3.566 0.044,1.128 0.068,2.256 0.07,3.384 0.008,2.512 -0.089,5.065 -0.922,7.452 -0.323,0.923 -0.77,1.837 -1.517,2.509 -0.563,0.507 -1.27,0.852 -1.99,1.134 C 12.821,2.051 10.142,2.34 7.58,1.94 6.272,1.735 5.195,0.871 3.906,0.956 2.475,1.05 1.176,0.835 0,0"
             style="fill:#231f20;fill-opacity:1;fill-rule:nonzero;stroke:none"
             id="path558" /></g><g
           id="g560"
           transform="translate(457.6422,273.1701)"><path
             d="m 0,0 h 0.105 c 2.527,0 4.576,1.921 4.576,4.291 v 6.766 H -4.575 V 4.291 C -4.575,1.921 -2.527,0 0,0"
             style="fill:#f4b799;fill-opacity:1;fill-rule:nonzero;stroke:none"
             id="path562" /></g><g
           id="g564"><g
             id="g566" /><g
             id="g578"><g
               clip-path="url(#clipPath570)"
               opacity="0.300003"
               id="g576"><g
                 transform="translate(453.067,279.8859)"
                 id="g574"><path
                   d="M 0,0 V 4.341 H 9.256 V -2.433 C 7.901,-2.614 2.483,-2.962 0,0"
                   style="fill:#000000;fill-opacity:1;fill-rule:nonzero;stroke:none"
                   id="path572" /></g></g></g></g><g
           id="g580"
           transform="translate(450.2701,292.3391)"><path
             d="m 0,0 c -0.194,-1.401 -1.563,-2.39 -3.059,-2.208 -1.495,0.183 -2.548,1.467 -2.354,2.869 0.194,1.402 1.564,2.39 3.059,2.208 C -0.859,2.686 0.195,1.402 0,0"
             style="fill:#f4b799;fill-opacity:1;fill-rule:nonzero;stroke:none"
             id="path582" /></g><g
           id="g584"
           transform="translate(465.0221,303.9753)"><path
             d="m 0,0 c -5.043,5.527 -14.708,3.25 -16.54,-3.818 -0.821,-3.171 -1.378,-7.127 -0.723,-11.102 1.476,-8.96 7.507,-12.742 14.262,-9.789 6.755,2.953 7.394,15.678 5.17,21.25 C 1.66,-2.182 0.923,-1.012 0,0"
             style="fill:#f4b799;fill-opacity:1;fill-rule:nonzero;stroke:none"
             id="path586" /></g><g
           id="g588"
           transform="translate(446.8551,295.4396)"><path
             d="m 0,0 c 0,0 1.009,0.095 1.913,-1.321 0,0 0.906,7.325 5.397,6.974 0,0 7.761,-1.759 13.517,-1.641 5.755,0.119 12.135,13.55 1.395,12.443 C 5.97,14.78 -3.228,14.445 0,0"
             style="fill:#231f20;fill-opacity:1;fill-rule:nonzero;stroke:none"
             id="path590" /></g><g
           id="g592"
           transform="translate(468.1266,289.2604)"><path
             d="m 0,0 c 0,0 -1.046,-0.046 -2.964,0.139 -1.918,0.185 -5.83,2.826 -10.318,0.417 -3.154,-1.693 -5.54,-0.742 -5.54,-0.742 0,0 -0.955,-10.5 9.024,-11.056 C -0.437,-11.763 0,0 0,0"
             style="fill:#ffffff;fill-opacity:1;fill-rule:nonzero;stroke:none"
             id="path594" /></g><g
           id="g596"
           transform="translate(448.7682,294.1183)"><path
             d="M 0,0 0.685,-5.437"
             style="fill:none;stroke:#ffffff;stroke-width:0.25;stroke-linecap:round;stroke-linejoin:round;stroke-miterlimit:10;stroke-dasharray:none;stroke-opacity:1"
             id="path598" /></g><g
           id="g600"
           transform="translate(447.6246,290.1174)"><path
             d="M 0,0 C 0,0 -0.329,-4.038 3.392,-8.146"
             style="fill:none;stroke:#ffffff;stroke-width:0.25;stroke-linecap:round;stroke-linejoin:round;stroke-miterlimit:10;stroke-dasharray:none;stroke-opacity:1"
             id="path602" /></g><g
           id="g604"
           transform="translate(365.549,37.0026)"><path
             d="m 0,0 c 0,-4.33 -24.458,-7.84 -54.627,-7.84 -30.169,0 -54.626,3.51 -54.626,7.84 0,4.33 24.457,7.84 54.626,7.84 C -24.458,7.84 0,4.33 0,0"
             style="fill:#efefef;fill-opacity:1;fill-rule:nonzero;stroke:none"
             id="path606" /></g><g
           id="g608"
           transform="translate(306.2462,269.2897)"><path
             d="m 0,0 c -2.692,-5.49 -2.462,-11.899 -2.173,-18.007 0.361,-7.625 0.721,-15.25 1.082,-22.874 0.096,-2.046 0.243,-4.234 1.491,-5.857 1.857,-2.415 5.343,-2.657 8.388,-2.69 8.051,-0.089 16.103,-0.177 24.155,-0.265 1.668,-0.019 3.6,0.088 4.589,1.431 0.726,0.987 0.682,2.322 0.607,3.544 -0.6,9.772 -1.201,19.542 -1.801,29.314 -0.385,6.28 -0.865,12.862 -4.232,18.178 C 25.446,13.292 5.284,10.776 0,0"
             style="fill:#231f20;fill-opacity:1;fill-rule:nonzero;stroke:none"
             id="path610" /></g><g
           id="g612"
           transform="translate(289.7721,54.0563)"><path
             d="m 0,0 -1.525,-10.917 c 0,0 4.026,-1.647 5.611,-0.854 1.586,0.792 2.562,10.917 2.562,10.917 z"
             style="fill:#f4b799;fill-opacity:1;fill-rule:nonzero;stroke:none"
             id="path614" /></g><g
           id="g616"
           transform="translate(288.4913,45.5788)"><path
             d="m 0,0 c 0,0 -1.586,0 -2.318,-1.83 -0.732,-1.83 -2.281,-3.05 -4.147,-3.05 -3.294,0 -6.344,-3.171 -3.66,-4.513 2.684,-1.341 14.028,-0.488 15.736,-0.366 1.708,0.122 2.44,1.951 1.708,3.659 -0.732,1.708 -0.894,4.839 -0.894,4.839 0,0 -3.619,-1.667 -4.351,-0.935 C 1.342,-1.464 1.586,-0.122 0,0"
             style="fill:#1d2240;fill-opacity:1;fill-rule:nonzero;stroke:none"
             id="path618" /></g><g
           id="g620"
           transform="translate(338.546,54.0358)"><path
             d="m 0,0 0.935,-10.896 c 0,0 4.999,-0.089 6.628,0.609 0.142,0.061 -0.752,9.759 -0.752,9.759 z"
             style="fill:#f4b799;fill-opacity:1;fill-rule:nonzero;stroke:none"
             id="path622" /></g><g
           id="g624"
           transform="translate(339.7252,45.5788)"><path
             d="m 0,0 c 0,0 -1.586,0 -2.318,-1.83 -0.732,-1.83 -2.281,-3.05 -4.147,-3.05 -3.294,0 -6.344,-3.171 -3.66,-4.513 2.684,-1.341 14.028,-0.488 15.736,-0.366 1.708,0.122 2.44,1.951 1.708,3.659 -0.732,1.708 -0.895,4.839 -0.895,4.839 0,0 -3.618,-1.667 -4.35,-0.935 C 1.342,-1.464 1.586,-0.122 0,0"
             style="fill:#1d2240;fill-opacity:1;fill-rule:nonzero;stroke:none"
             id="path626" /></g><g
           id="g628"
           transform="translate(302.0319,170.735)"><path
             d="m 0,0 -10.735,-57.82 -2.683,-60.505 c 0,0 5.367,-1.22 8.05,-1.464 2.684,-0.244 12.199,46.843 12.687,56.113 l 11.223,44.158 6.343,-58.308 11.71,-42.695 c 0,0 4.88,-0.976 7.32,0.244 0,0 -0.245,45.867 -0.977,54.405 -0.731,8.539 -3.171,66.604 -3.171,66.604 z"
             style="fill:#1d2240;fill-opacity:1;fill-rule:nonzero;stroke:none"
             id="path630" /></g><g
           id="g632"
           transform="translate(322.5558,239.4841)"><path
             d="m 0,0 c -0.753,0.049 -2.145,-0.173 -3.04,-0.295 -4.061,-0.554 -15.74,-5.308 -16.752,-23.319 -1.22,-21.713 -0.813,-45.541 -0.813,-45.541 l 39.929,-0.651 0.895,49.119 c 0,0 1.505,19.274 -20.219,20.687"
             style="fill:#397aa4;fill-opacity:1;fill-rule:nonzero;stroke:none"
             id="path634" /></g><g
           id="g636"
           transform="translate(313.0104,236.6686)"><path
             d="m 0,0 c 0,0 5.977,-8.234 21.958,-0.854 0,0 -6.385,3.904 -12.85,3.66 C 2.643,2.562 0,0 0,0"
             style="fill:#f4b799;fill-opacity:1;fill-rule:nonzero;stroke:none"
             id="path638" /></g><g
           id="g640"
           transform="translate(315.8771,238.3151)"><path
             d="m 0,0 c 0,0 -18.644,-7.156 -21.53,-26.959 -2.39,-16.392 -5.856,-23.909 3.903,-23.055 l 3.782,0.732 -11.345,-50.38 c 0,0 -4.392,-9.637 4.392,-10.612 8.782,-0.976 16.223,-3.05 16.223,5.123 0,8.172 2.806,76.972 2.806,76.972 z"
             style="fill:#f5f4f0;fill-opacity:1;fill-rule:nonzero;stroke:none"
             id="path642" /></g><g
           id="g644"
           transform="translate(330.9196,237.7585)"><path
             d="m 0,0 c 0,0 19.174,-6.274 20.67,-27.415 1.17,-16.523 5.08,-24.086 -4.647,-22.917 l -3.755,0.853 9.71,-50.72 c 0,0 4.077,-9.774 -4.733,-10.465 -8.81,-0.691 -16.314,-2.524 -16.05,5.645 0.264,8.169 -0.315,77.023 -0.315,77.023 z"
             style="fill:#f5f4f0;fill-opacity:1;fill-rule:nonzero;stroke:none"
             id="path646" /></g><g
           id="g648"
           transform="translate(306.1793,220.4245)"><path
             d="M 0,0 -1.626,-17.403 0.65,-0.122 2.521,1.016 Z"
             style="fill:#e2e2e0;fill-opacity:1;fill-rule:nonzero;stroke:none"
             id="path650" /></g><g
           id="g652"
           transform="translate(340.9044,220.4245)"><path
             d="m 0,0 1.626,-17.403 -2.277,17.281 -1.87,1.138 z"
             style="fill:#e2e2e0;fill-opacity:1;fill-rule:nonzero;stroke:none"
             id="path654" /></g><g
           id="g656"
           transform="translate(321.0616,192.0114)"><path
             d="m 0,0 c 0,0 19.06,-9.352 23.238,-9.535 l -0.671,3.568 C 22.567,-5.967 3.903,-0.274 0,0"
             style="fill:#e2e2e0;fill-opacity:1;fill-rule:nonzero;stroke:none"
             id="path658" /></g><g
           id="g660"
           transform="translate(321.0616,192.0114)"><path
             d="m 0,0 c 0,0 -14.089,-6.516 -19.945,-6.912 l 0.58,2.348 c 0,0 18.115,4.798 19.365,4.564"
             style="fill:#e2e2e0;fill-opacity:1;fill-rule:nonzero;stroke:none"
             id="path662" /></g><g
           id="g664"
           transform="translate(310.319,203.6716)"><path
             d="M 0,0 C 0,0 26.349,2.195 36.839,-4.147 47.33,-10.491 43.67,-18.786 31.96,-17.566 20.25,-16.346 -1.22,-6.831 -1.22,-6.831 Z"
             style="fill:#f5f4f0;fill-opacity:1;fill-rule:nonzero;stroke:none"
             id="path666" /></g><g
           id="g668"
           transform="translate(304.5475,203.1686)"><path
             d="M 0,0 3.865,2.292 C 5.801,3.44 8.343,2.594 9.123,0.482 9.179,0.328 9.231,0.166 9.276,-0.006 10.13,-3.238 9.093,-3.238 9.093,-3.238 9.093,-3.238 0.366,-2.745 0,0"
             style="fill:#f2b893;fill-opacity:1;fill-rule:nonzero;stroke:none"
             id="path670" /></g><g
           id="g672"
           transform="translate(333.4225,204.2614)"><path
             d="m 0,0 5.246,1.829 c 0,0 2.927,0.306 3.781,-2.928 0.854,-3.232 -0.183,-3.232 -0.183,-3.232 0,0 -8.478,1.586 -8.844,4.331"
             style="fill:#f2b893;fill-opacity:1;fill-rule:nonzero;stroke:none"
             id="path674" /></g><g
           id="g676"
           transform="translate(334.7238,204.7282)"><path
             d="m 0,0 c 0,0 -26.349,2.196 -36.839,-4.147 -10.491,-6.343 -6.832,-14.638 4.879,-13.418 11.71,1.219 33.18,10.734 33.18,10.734 z"
             style="fill:#f5f4f0;fill-opacity:1;fill-rule:nonzero;stroke:none"
             id="path678" /></g><g
           id="g680"
           transform="translate(321.0616,192.0114)"><path
             d="M 0,0 14.211,7.451 1.243,-0.446 c 0,0 -0.796,0.253 -1.243,0.446"
             style="fill:#e2e2e0;fill-opacity:1;fill-rule:nonzero;stroke:none"
             id="path682" /></g><g
           id="g684"
           transform="translate(323.3126,234.5602)"><path
             d="m 0,0 h -0.11 c -2.666,0 -4.827,2.161 -4.827,4.827 v 7.611 H 4.827 V 4.827 C 4.827,2.161 2.666,0 0,0"
             style="fill:#f4b799;fill-opacity:1;fill-rule:nonzero;stroke:none"
             id="path686" /></g><g
           id="g688"><g
             id="g690" /><g
             id="g702"><g
               clip-path="url(#clipPath694)"
               opacity="0.300003"
               id="g700"><g
                 transform="translate(328.1393,242.1159)"
                 id="g698"><path
                   d="m 0,0 v 4.883 h -9.764 v -7.62 C -8.335,-2.94 -2.62,-3.333 0,0"
                   style="fill:#000000;fill-opacity:1;fill-rule:nonzero;stroke:none"
                   id="path696" /></g></g></g></g><g
           id="g704"
           transform="translate(331.089,256.1242)"><path
             d="M 0,0 C 0.205,-1.577 1.65,-2.688 3.227,-2.483 4.803,-2.278 5.915,-0.833 5.71,0.744 5.505,2.32 4.06,3.432 2.483,3.227 0.907,3.021 -0.205,1.577 0,0"
             style="fill:#f4b799;fill-opacity:1;fill-rule:nonzero;stroke:none"
             id="path706" /></g><g
           id="g708"
           transform="translate(309.2281,256.1242)"><path
             d="M 0,0 C 0.205,-1.577 1.65,-2.688 3.227,-2.483 4.804,-2.278 5.916,-0.833 5.71,0.744 5.505,2.32 4.061,3.432 2.483,3.227 0.907,3.021 -0.205,1.577 0,0"
             style="fill:#f4b799;fill-opacity:1;fill-rule:nonzero;stroke:none"
             id="path710" /></g><g
           id="g712"
           transform="translate(315.5284,269.2141)"><path
             d="m 0,0 c 5.319,6.218 15.514,3.656 17.446,-4.295 0.867,-3.567 1.454,-8.017 0.763,-12.489 -1.557,-10.08 -7.918,-14.334 -15.043,-11.011 -7.126,3.321 -7.799,17.636 -5.455,23.904 C -1.751,-2.455 -0.974,-1.139 0,0"
             style="fill:#f4b799;fill-opacity:1;fill-rule:nonzero;stroke:none"
             id="path714" /></g><g
           id="g716"
           transform="translate(321.8766,267.319)"><path
             d="m 0,0 c 0,0 6.244,-7.273 12.08,-7.964 0,0 3.207,13.095 -2.032,15.019 C 4.811,8.979 0,6.841 0,0"
             style="fill:#231f20;fill-opacity:1;fill-rule:nonzero;stroke:none"
             id="path718" /></g><g
           id="g720"
           transform="translate(321.8766,267.319)"><path
             d="m 0,0 c 0,0 -0.935,-4.624 -9.834,-7.937 0,0 -2.032,15.313 12.293,13.709 z"
             style="fill:#231f20;fill-opacity:1;fill-rule:nonzero;stroke:none"
             id="path722" /></g><g
           id="g724"
           transform="translate(312.5568,253.7433)"><path
             d="m 0,0 c 0,0 1.135,-0.054 3.217,0.162 2.081,0.216 6.326,3.296 11.197,0.486 3.423,-1.974 6.013,-0.864 6.013,-0.864 0,0 1.037,-12.248 -9.794,-12.897 C 0.473,-13.721 0,0 0,0"
             style="fill:#ffffff;fill-opacity:1;fill-rule:nonzero;stroke:none"
             id="path726" /></g><g
           id="g728"
           transform="translate(333.9562,259.3552)"><path
             d="M 0,0 -1.135,-6.287"
             style="fill:none;stroke:#ffffff;stroke-width:0.25;stroke-linecap:round;stroke-linejoin:round;stroke-miterlimit:10;stroke-dasharray:none;stroke-opacity:1"
             id="path730" /></g><g
           id="g732"
           transform="translate(312.0421,259.3815)"><path
             d="M 0,0 0.66,-5.95"
             style="fill:none;stroke:#ffffff;stroke-width:0.25;stroke-linecap:round;stroke-linejoin:round;stroke-miterlimit:10;stroke-dasharray:none;stroke-opacity:1"
             id="path734" /></g><g
           id="g736"
           transform="translate(333.9015,253.5353)"><path
             d="M 0,0 C 0,0 0.167,-3.658 -2.791,-8.293"
             style="fill:none;stroke:#ffffff;stroke-width:0.25;stroke-linecap:round;stroke-linejoin:round;stroke-miterlimit:10;stroke-dasharray:none;stroke-opacity:1"
             id="path738" /></g><g
           id="g740"
           transform="translate(312.1989,253.6183)"><path
             d="M 0,0 C 0,0 -0.167,-3.658 2.791,-8.293"
             style="fill:none;stroke:#ffffff;stroke-width:0.25;stroke-linecap:round;stroke-linejoin:round;stroke-miterlimit:10;stroke-dasharray:none;stroke-opacity:1"
             id="path742" /></g><g
           id="g744"
           transform="translate(592.0846,286.049)"><path
             d="m 0,0 c 0,0 -10.434,4.343 -12.522,-5.345 -1.937,-8.982 -2.254,-36.525 -2.254,-36.525 l 34.186,-0.222 c 0,0 -3.118,31.29 -4.176,35.41 C 14.771,-4.875 10.836,6.013 0,0"
             style="fill:#231f20;fill-opacity:1;fill-rule:nonzero;stroke:none"
             id="path746" /></g><g
           id="g748"
           transform="translate(590.7828,252.8649)"><path
             d="m 0,0 c 0,0 -14.699,0.334 -16.147,-11.247 -1.448,-11.581 -7.907,-37.861 -7.572,-43.095 l 50.556,-0.89 c 0,0 -1.226,17.259 -2.896,26.056 C 22.271,-20.378 24.832,0 0,0"
             style="fill:#e0b581;fill-opacity:1;fill-rule:nonzero;stroke:none"
             id="path750" /></g><g
           id="g752"
           transform="translate(577.5309,146.7702)"><path
             d="M 0,0 -1.336,-11.525 7.267,-13.78 9.271,-0.083 Z"
             style="fill:#f4b799;fill-opacity:1;fill-rule:nonzero;stroke:none"
             id="path754" /></g><g
           id="g756"
           transform="translate(583.7672,133.7692)"><path
             d="m 0,0 c 0,0 -2.506,3.285 -5.902,3.007 -3.397,-0.278 -5.456,-4.621 -6.124,-6.96 -0.668,-2.338 -1.894,-7.516 3.006,-7.906 4.9,-0.39 11.469,0.055 11.469,0.055 0,0 2.45,1.838 1.782,5.179 C 3.563,-3.284 2.449,-0.223 1.503,-0.056 0.557,0.111 0,0 0,0"
             style="fill:#8f5935;fill-opacity:1;fill-rule:nonzero;stroke:none"
             id="path758" /></g><g
           id="g760"
           transform="translate(599.5797,165.6179)"><path
             d="m 0,0 c 0,0 2.227,-8.185 5.456,-12.751 l 7.405,6.292 -5.79,10.69 z"
             style="fill:#f4b799;fill-opacity:1;fill-rule:nonzero;stroke:none"
             id="path762" /></g><g
           id="g764"
           transform="translate(612.4137,159.7155)"><path
             d="m 0,0 c 0,0 -3.759,3.675 -6.431,2.088 -2.673,-1.587 -1.337,-5.596 -1.337,-5.596 0,0 0.418,-2.004 0,-2.756 -0.417,-0.752 0,-2.088 1.337,-4.927 1.336,-2.839 5.094,-12.695 13.029,-9.855 7.933,2.839 5.177,9.605 1.336,12.777 C 4.092,-5.095 0,0 0,0"
             style="fill:#8f5935;fill-opacity:1;fill-rule:nonzero;stroke:none"
             id="path766" /></g><g
           id="g768"
           transform="translate(576.2506,184.2692)"><path
             d="m 0,0 c 0,0 -11.191,2.005 -9.855,11.024 1.336,9.021 5.178,10.858 9.187,13.03 2.461,1.333 5.678,2.918 7.794,3.942 2.488,1.205 5.491,0.788 7.48,-1.132 0.583,-0.562 1.178,-1.265 1.763,-2.142 3.341,-5.012 15.367,-39.921 15.367,-39.921 l -8.685,-5.012 c 0,0 -17.205,28.898 -17.205,29.732 C 5.846,10.356 0.501,6.181 0,0"
             style="fill:#005e9c;fill-opacity:1;fill-rule:nonzero;stroke:none"
             id="path770" /></g><g
           id="g772"
           transform="translate(582.0133,194.0407)"><path
             d="m 0,0 c 0,0 -6.598,-1.712 -6.264,-16.341 0.305,-13.36 0.668,-32.628 0.668,-32.628 l 11.025,-1.336 c 0,0 4.885,30.957 4.885,32.182 0,0 -9.938,16.829 -10.314,18.123"
             style="fill:#044f88;fill-opacity:1;fill-rule:nonzero;stroke:none"
             id="path774" /></g><g
           id="g776"
           transform="translate(602.4469,184.7155)"><path
             d="M 0,0 C 0,0 12.166,-1.894 14.17,3.451 16.175,8.797 15.318,15.119 13.809,19.097 12.138,23.496 7.127,26.196 3.146,26.279 0.704,26.331 -8.505,21.798 -8.505,21.798 Z"
             style="fill:#044f88;fill-opacity:1;fill-rule:nonzero;stroke:none"
             id="path778" /></g><g
           id="g780"
           transform="translate(583.6002,251.7512)"><path
             d="m 0,0 c 0,0 -12.694,-3.173 -15.534,-9.855 -2.84,-6.682 -10.858,-25.723 -10.858,-25.723 0,0 2.506,-5.011 15.034,-5.512 C 1.169,-41.591 0,0 0,0"
             style="fill:#e0b581;fill-opacity:1;fill-rule:nonzero;stroke:none"
             id="path782" /></g><g
           id="g784"
           transform="translate(602.3639,250.7492)"><path
             d="m 0,0 c 0,0 12.667,-2.171 15.507,-8.853 2.84,-6.682 10.857,-25.723 10.857,-25.723 0,0 -2.506,-5.011 -15.033,-5.512 C -1.196,-40.589 0,0 0,0"
             style="fill:#e0b581;fill-opacity:1;fill-rule:nonzero;stroke:none"
             id="path786" /></g><g
           id="g788"
           transform="translate(564.2242,220.2936)"><path
             d="m 0,0 c 0,0 -5.791,-0.558 -6.904,-3.563 -1.114,-3.007 6.57,-6.348 11.358,-7.684 4.788,-1.337 5.651,-1.476 5.651,-1.476 l 9.828,5.004 -2.957,2.348 C 12.24,-1.611 6.302,0.303 0.262,0.013 0.175,0.009 0.088,0.004 0,0"
             style="fill:#f4b799;fill-opacity:1;fill-rule:nonzero;stroke:none"
             id="path790" /></g><g
           id="g792"
           transform="translate(617.2819,220.4694)"><path
             d="m 0,0 c 3.14,0.623 6.424,0.136 9.17,-1.508 2.461,-1.472 3.877,-3.545 -1.068,-5.744 -9.42,-4.188 -27.185,-6.851 -31.442,-6.704 l 1.977,4.022 c 0,0 14.445,8.043 15.826,8.519 C -3.844,-0.832 -1.769,-0.352 0,0"
             style="fill:#f4b799;fill-opacity:1;fill-rule:nonzero;stroke:none"
             id="path794" /></g><g
           id="g796"
           transform="translate(596.0221,209.238)"><path
             d="m 0,0 c 0,0 0.062,2.98 -2.568,3.796 -2.629,0.814 -4.619,1.047 -4.619,1.047 0,0 -0.973,-0.684 -0.098,-1.062 C -6.41,3.403 -3.437,2.707 -3.554,2.158 -3.671,1.609 -3.557,0.948 -4.993,1.382 -6.43,1.815 -9.09,3.083 -9.544,3.944 -9.997,4.805 -11.177,5.247 -10.91,4.107 -10.644,2.968 -11.184,-0.166 -7.797,-1.015 -4.41,-1.863 -2.499,-2.7 -1.803,-2.721 -1.106,-2.742 0,0 0,0"
             style="fill:#ffb893;fill-opacity:1;fill-rule:nonzero;stroke:none"
             id="path798" /></g><g
           id="g800"
           transform="translate(592.9323,248.3395)"><path
             d="m 0,0 h -0.1 c -2.385,0 -4.32,1.934 -4.32,4.32 v 6.813 H 4.32 V 4.32 C 4.32,1.934 2.386,0 0,0"
             style="fill:#f4b799;fill-opacity:1;fill-rule:nonzero;stroke:none"
             id="path802" /></g><g
           id="g804"><g
             id="g806" /><g
             id="g818"><g
               clip-path="url(#clipPath810)"
               opacity="0.300003"
               id="g816"><g
                 transform="translate(597.2526,255.1017)"
                 id="g814"><path
                   d="M 0,0 V 4.371 H -8.74 V -2.45 C -7.461,-2.632 -2.345,-2.983 0,0"
                   style="fill:#000000;fill-opacity:1;fill-rule:nonzero;stroke:none"
                   id="path812" /></g></g></g></g><g
           id="g820"
           transform="translate(599.8922,267.6408)"><path
             d="M 0,0 C 0.184,-1.411 1.477,-2.407 2.889,-2.223 4.3,-2.039 5.295,-0.746 5.111,0.665 4.928,2.077 3.635,3.072 2.224,2.888 0.812,2.705 -0.184,1.412 0,0"
             style="fill:#f4b799;fill-opacity:1;fill-rule:nonzero;stroke:none"
             id="path822" /></g><g
           id="g824"
           transform="translate(580.3248,267.6408)"><path
             d="M 0,0 C 0.184,-1.411 1.477,-2.407 2.889,-2.223 4.3,-2.039 5.295,-0.746 5.111,0.665 4.928,2.077 3.635,3.072 2.224,2.888 0.812,2.705 -0.184,1.412 0,0"
             style="fill:#f4b799;fill-opacity:1;fill-rule:nonzero;stroke:none"
             id="path826" /></g><g
           id="g828"
           transform="translate(585.9645,279.3571)"><path
             d="m 0,0 c 4.762,5.566 13.887,3.273 15.616,-3.844 0.776,-3.193 1.301,-7.177 0.683,-11.179 -1.394,-9.022 -7.088,-12.83 -13.466,-9.857 -6.378,2.974 -6.98,15.787 -4.882,21.397 C -1.567,-2.197 -0.872,-1.019 0,0"
             style="fill:#f4b799;fill-opacity:1;fill-rule:nonzero;stroke:none"
             id="path830" /></g><g
           id="g832"
           transform="translate(582.8932,270.5529)"><path
             d="m 0,0 c 0,0 10.729,5.752 11.229,12.601 0,0 -7.766,3.34 -10.606,-0.835 C -2.216,7.59 0,0 0,0"
             style="fill:#231f20;fill-opacity:1;fill-rule:nonzero;stroke:none"
             id="path834" /></g><g
           id="g836"
           transform="translate(591.5338,280.3141)"><path
             d="m 0,0 c 0,0 4.43,-7.85 10.886,-9.758 0,0 3.228,9.758 -0.781,12.681 C 6.097,5.846 0.334,4.677 0,0"
             style="fill:#231f20;fill-opacity:1;fill-rule:nonzero;stroke:none"
             id="path838" /></g><g
           id="g840"
           transform="translate(586.941,221.6852)"><path
             d="m 0,0 -0.647,-8.247 c 0.751,-1.441 5.478,-3.593 6.034,-2.791 0.097,0.142 2.84,10.851 2.84,10.851 z"
             style="fill:#999999;fill-opacity:1;fill-rule:nonzero;stroke:none"
             id="path842" /></g><g
           id="g844"
           transform="translate(583.3492,265.7995)"><path
             d="m 0,0 c 0,0 1.015,-0.05 2.876,0.15 1.861,0.201 5.657,3.054 10.013,0.451 3.06,-1.83 5.377,-0.801 5.377,-0.801 0,0 0.926,-11.345 -8.758,-11.946 C 0.423,-12.709 0,0 0,0"
             style="fill:#ffffff;fill-opacity:1;fill-rule:nonzero;stroke:none"
             id="path846" /></g><g
           id="g848"
           transform="translate(602.484,270.6057)"><path
             d="M 0,0 -0.991,-5.359"
             style="fill:none;stroke:#ffffff;stroke-width:0.25;stroke-linecap:round;stroke-linejoin:round;stroke-miterlimit:10;stroke-dasharray:none;stroke-opacity:1"
             id="path850" /></g><g
           id="g852"
           transform="translate(582.8932,270.5529)"><path
             d="M 0,0 0.616,-4.992"
             style="fill:none;stroke:#ffffff;stroke-width:0.25;stroke-linecap:round;stroke-linejoin:round;stroke-miterlimit:10;stroke-dasharray:none;stroke-opacity:1"
             id="path854" /></g><g
           id="g856"
           transform="translate(602.401,265.382)"><path
             d="M 0,0 C 0,0 0.082,-2.754 -2.369,-7.094"
             style="fill:none;stroke:#ffffff;stroke-width:0.25;stroke-linecap:round;stroke-linejoin:round;stroke-miterlimit:10;stroke-dasharray:none;stroke-opacity:1"
             id="path858" /></g><g
           id="g860"
           transform="translate(582.9537,265.465)"><path
             d="M 0,0 C 0,0 -0.183,-3.063 2.557,-7.357"
             style="fill:none;stroke:#ffffff;stroke-width:0.25;stroke-linecap:round;stroke-linejoin:round;stroke-miterlimit:10;stroke-dasharray:none;stroke-opacity:1"
             id="path862" /></g><g
           id="g864"
           transform="translate(171.3307,110.2936)"><path
             d="m 0,0 c 0,-2.847 -16.08,-5.154 -35.915,-5.154 -19.835,0 -35.914,2.307 -35.914,5.154 0,2.847 16.079,5.154 35.914,5.154 C -16.08,5.154 0,2.847 0,0"
             style="fill:#efefef;fill-opacity:1;fill-rule:nonzero;stroke:none"
             id="path866" /></g><g
           id="g868"
           transform="translate(129.2746,265.8898)"><path
             d="m 0,0 h 0.106 c 2.556,0 4.627,2.072 4.627,4.627 v 7.297 H -4.626 V 4.627 C -4.626,2.072 -2.555,0 0,0"
             style="fill:#f4b799;fill-opacity:1;fill-rule:nonzero;stroke:none"
             id="path870" /></g><g
           id="g872"
           transform="translate(136.737,299.11)"><path
             d="m 0,0 c -5.099,5.961 -14.873,3.505 -16.725,-4.117 -0.831,-3.42 -1.393,-7.686 -0.731,-11.973 1.493,-9.662 7.591,-13.741 14.422,-10.556 6.83,3.184 7.476,16.907 5.228,22.916 C 1.679,-2.353 0.934,-1.091 0,0"
             style="fill:#f4b799;fill-opacity:1;fill-rule:nonzero;stroke:none"
             id="path874" /></g><g
           id="g876"
           transform="translate(140.1256,286.8547)"><path
             d="m 0,0 c 0,0 -1.081,-1.767 -1.663,-2.307 -0.582,-0.541 -2.737,-1.759 -3.45,-5.764 -0.676,-3.793 0.686,-4.285 1.6,-3.921 C -2.242,-11.487 1.455,-4.053 0,0"
             style="fill:#ffffff;fill-opacity:1;fill-rule:nonzero;stroke:none"
             id="path878" /></g><g
           id="g880"
           transform="translate(135.7902,287.0388)"><path
             d="M 0,0 3.367,-2.619"
             style="fill:none;stroke:#ffffff;stroke-width:0.5;stroke-linecap:round;stroke-linejoin:round;stroke-miterlimit:10;stroke-dasharray:none;stroke-opacity:1"
             id="path882" /></g><g
           id="g884"
           transform="translate(133.6286,280.7204)"><path
             d="M 0,0 C 0,0 0.167,-3.783 1.912,-3.907"
             style="fill:none;stroke:#ffffff;stroke-width:0.5;stroke-linecap:round;stroke-linejoin:round;stroke-miterlimit:10;stroke-dasharray:none;stroke-opacity:1"
             id="path886" /></g><g
           id="g888"
           transform="translate(138.2028,307.0886)"><path
             d="m 0,0 c 2.759,0.494 5.848,-0.001 7.853,-1.959 2.005,-1.958 2.44,-5.562 0.455,-7.541 -2.823,-2.812 -8.516,-1.19 -10.766,-4.478 -1.21,-1.77 0.641,-5.413 0.087,-7.485 -0.804,-3.006 -3.848,-8.632 -6.567,-10.142 -2.994,-1.663 -5.903,-1.414 -7.845,1 -1.038,1.291 -2.48,4.412 -3.001,5.985 -1.307,3.951 -2.256,8.021 -2.83,12.143 -0.429,3.074 -0.545,6.533 1.448,8.912 1.545,1.844 4.083,2.613 6.489,2.565 2.518,-0.049 5.189,-1.818 7.545,-1.66 C -4.827,-2.505 -2.398,-0.43 0,0"
             style="fill:#231f20;fill-opacity:1;fill-rule:nonzero;stroke:none"
             id="path890" /></g><g
           id="g892"
           transform="translate(115.0871,245.7067)"><path
             d="m 0,0 -3.154,-13 4.801,-27.334 -4.624,-1.092 -8.004,23.763 c -0.427,1.267 -0.554,2.617 -0.369,3.941 l 2.561,18.358 z"
             style="fill:#ffb893;fill-opacity:1;fill-rule:nonzero;stroke:none"
             id="path894" /></g><g
           id="g896"
           transform="translate(117.1461,244.1569)"><path
             d="M 0,0 C 0,0 12.687,19.743 2.391,22.384 -7.905,25.025 -11.773,6.352 -12.276,2.736 Z"
             style="fill:#e5d4d1;fill-opacity:1;fill-rule:nonzero;stroke:none"
             id="path898" /></g><g
           id="g900"
           transform="translate(115.1784,205.8503)"><path
             d="m 0,0 c 0,0 3.135,-0.288 3.68,-3.144 0.544,-2.855 0.552,-4.969 0.552,-4.969 0,0 -0.833,-0.942 -1.126,0.021 -0.292,0.963 -0.672,4.165 -1.261,4.108 -0.59,-0.058 -1.27,0.14 -0.985,-1.418 0.285,-1.56 1.3,-4.501 2.15,-5.079 0.85,-0.578 1.175,-1.869 0.011,-1.454 -1.165,0.415 -4.518,0.219 -5.008,3.873 -0.49,3.655 -1.142,5.76 -1.081,6.493 C -3.008,-0.836 0,0 0,0"
             style="fill:#ffb893;fill-opacity:1;fill-rule:nonzero;stroke:none"
             id="path902" /></g><g
           id="g904"
           transform="translate(124.151,122.1784)"><path
             d="m 0,0 0.279,-7.824 -4.96,-0.14 -0.628,9.151 z"
             style="fill:#f3b892;fill-opacity:1;fill-rule:nonzero;stroke:none"
             id="path906" /></g><g
           id="g908"
           transform="translate(129.214,207.9177)"><path
             d="m 0,0 -3.666,-88.185 -7.475,-0.139 c 0,0 -5.806,81.212 -5.061,87.546 z"
             style="fill:#3e538a;fill-opacity:1;fill-rule:nonzero;stroke:none"
             id="path910" /></g><g
           id="g912"
           transform="translate(124.57,115.6813)"><path
             d="m 0,0 c 0,0 5.588,-3.353 7.405,-4.052 1.816,-0.698 3.353,-2.375 1.117,-3.213 -2.235,-0.839 -14.949,0.14 -14.949,0.14 0,0 0.14,4.89 0.978,6.287 0,0 1.956,-1.816 5.449,0.838"
             style="fill:#002748;fill-opacity:1;fill-rule:nonzero;stroke:none"
             id="path914" /></g><g
           id="g916"
           transform="translate(141.7545,122.1784)"><path
             d="m 0,0 0.28,-7.824 -4.96,-0.14 -0.629,9.151 z"
             style="fill:#f3b892;fill-opacity:1;fill-rule:nonzero;stroke:none"
             id="path918" /></g><g
           id="g920"
           transform="translate(146.818,207.9177)"><path
             d="m 0,0 -3.666,-88.185 -7.475,-0.139 c 0,0 -5.806,81.212 -5.061,87.546 z"
             style="fill:#53689d;fill-opacity:1;fill-rule:nonzero;stroke:none"
             id="path922" /></g><g
           id="g924"
           transform="translate(142.174,115.6813)"><path
             d="m 0,0 c 0,0 5.588,-3.353 7.405,-4.052 1.816,-0.698 3.353,-2.375 1.117,-3.213 -2.235,-0.839 -14.949,0.14 -14.949,0.14 0,0 0.14,4.89 0.978,6.287 0,0 1.956,-1.816 5.449,0.838"
             style="fill:#002748;fill-opacity:1;fill-rule:nonzero;stroke:none"
             id="path926" /></g><g
           id="g928"
           transform="translate(133.9655,193.8972)"><path
             d="m 0,0 c 0,0 -16.98,-1.869 -17.292,11.84 -0.239,10.524 16.669,9.659 16.669,9.659 z"
             style="fill:#53689d;fill-opacity:1;fill-rule:nonzero;stroke:none"
             id="path930" /></g><g
           id="g932"
           transform="translate(134.0436,269.6096)"><path
             d="M 0,0 C 0,0 17.137,-2.804 16.513,-23.056 15.89,-43.309 13.37,-65.232 13.37,-65.232 c 0,0 -31.358,-5.427 -35.803,1.982 -0.935,1.558 0,52.656 0,52.656 0,0 -2.493,12.775 22.433,10.594"
             style="fill:#f7e8e5;fill-opacity:1;fill-rule:nonzero;stroke:none"
             id="path934" /></g><g
           id="g936"
           transform="translate(152.3219,249.3488)"><path
             d="M 0,0 5.29,-8.202 15.141,4.396 17.958,0.073 9.475,-18.36 c 0,0 -2.442,-5.022 -6.066,-2.477 -3.624,2.545 -10.053,13.474 -10.053,13.474 z"
             style="fill:#ffb893;fill-opacity:1;fill-rule:nonzero;stroke:none"
             id="path938" /></g><g
           id="g940"
           transform="translate(166.983,250.8444)"><path
             d="m 0,0 c 0,0 -1.771,2.962 0.406,5.29 2.177,2.326 4.044,3.701 4.044,3.701 0,0 1.371,-0.13 0.708,-1.012 C 4.494,7.098 1.904,4.692 2.336,4.208 2.768,3.724 3.032,2.993 4.229,4.252 c 1.196,1.26 3.145,4.06 3.107,5.186 -0.038,1.126 0.895,2.247 1.28,0.948 C 9.001,9.087 11.341,6.245 8.422,3.45 5.503,0.655 4.06,-1.283 3.372,-1.703 2.684,-2.123 0,0 0,0"
             style="fill:#ffb893;fill-opacity:1;fill-rule:nonzero;stroke:none"
             id="path942" /></g><g
           id="g944"
           transform="translate(155.2843,247.3015)"><path
             d="m 0,0 c 0,0 -7.724,22.16 -16.151,15.681 -8.427,-6.478 3.893,-21.035 6.429,-23.66 z"
             style="fill:#f7e8e5;fill-opacity:1;fill-rule:nonzero;stroke:none"
             id="path946" /></g></g></g></g></svg>
