<svg width="84" height="85" viewBox="0 0 84 85" fill="none" xmlns="http://www.w3.org/2000/svg">
<g filter="url(#filter0_d_314:3245)">
<path d="M24.2393 52.021C34.9056 59.0595 37.7557 51.5838 46.4012 48.0162C53.2912 45.1794 59.9359 47.6357 65.4359 41.6284C70.2251 36.3987 71.9255 25.9194 67.8839 20.9133C62.9613 14.7975 54.2006 13.7162 47.601 18.0431C42.5682 21.3388 39.0573 30.1462 32.8848 30.2396C25.7812 30.3447 22.2986 22.7305 15.4503 25.609C2.83337 30.9071 22.3137 50.7528 24.2393 52.021Z" fill="#FA8A3C"/>
<path opacity="0.9" d="M24.2393 52.021C34.9056 59.0595 37.7557 51.5838 46.4012 48.0162C53.2912 45.1794 59.9359 47.6357 65.4359 41.6284C70.2251 36.3987 71.9255 25.9194 67.8839 20.9133C62.9613 14.7975 54.2006 13.7162 47.601 18.0431C42.5682 21.3388 39.0573 30.1462 32.8848 30.2396C25.7812 30.3447 22.2986 22.7305 15.4503 25.609C2.83337 30.9071 22.3137 50.7528 24.2393 52.021Z" fill="white"/>
<path d="M42.0942 72.2345C59.963 72.2345 74.4485 71.3887 74.4485 70.3455C74.4485 69.3023 59.963 68.4565 42.0942 68.4565C24.2255 68.4565 9.73999 69.3023 9.73999 70.3455C9.73999 71.3887 24.2255 72.2345 42.0942 72.2345Z" fill="#F5F5F5"/>
<path d="M30.3583 22.6184C29.7225 22.3865 28.6713 22.8838 28.8782 23.875C29.0851 24.8662 26.6705 23.6263 26.1532 25.6421C26.5252 25.7236 26.8756 25.8833 27.1811 26.1106C27.4866 26.3378 27.7403 26.6275 27.9253 26.9604C28.8031 28.5273 35.7165 28.6874 34.7336 26.7501C33.7507 24.8128 35.8349 24.3105 35.2025 22.9388C34.5701 21.5672 33.3853 21.1934 32.5326 21.5271C31.6799 21.8608 29.8644 21.3452 30.3583 22.6184Z" fill="#263238"/>
<path d="M30.3582 22.6404C30.3534 22.6424 30.348 22.6424 30.3432 22.6404C30.1496 22.3901 30.0829 22.1932 30.1429 22.038C30.2481 21.7577 30.7303 21.6642 31.2893 21.5558C31.8483 21.4473 32.444 21.3305 32.7427 21.0101C32.7445 21.008 32.7466 21.0063 32.7491 21.0052C32.7515 21.004 32.7542 21.0034 32.7569 21.0034C32.7596 21.0034 32.7623 21.004 32.7648 21.0052C32.7672 21.0063 32.7694 21.008 32.7711 21.0101C32.7732 21.0118 32.7749 21.014 32.776 21.0165C32.7772 21.0189 32.7778 21.0216 32.7778 21.0243C32.7778 21.027 32.7772 21.0297 32.776 21.0322C32.7749 21.0346 32.7732 21.0368 32.7711 21.0385C32.4624 21.3722 31.8433 21.489 31.296 21.5958C30.7487 21.7026 30.2764 21.7944 30.1796 22.053C30.1262 22.1932 30.1896 22.3768 30.3732 22.6154C30.3753 22.6171 30.377 22.6193 30.3781 22.6217C30.3793 22.6242 30.3799 22.6269 30.3799 22.6296C30.3799 22.6323 30.3793 22.635 30.3781 22.6374C30.377 22.6399 30.3753 22.642 30.3732 22.6438C30.3706 22.6443 30.3679 22.6443 30.3653 22.6437C30.3627 22.6432 30.3603 22.642 30.3582 22.6404Z" fill="#263238"/>
<path d="M34.7786 29.1074C35.1624 28.9872 35.5729 28.8537 35.9667 28.7119C36.3605 28.57 36.7593 28.4265 37.1498 28.2697C37.9249 27.9641 38.6796 27.6091 39.4092 27.2067C39.4976 27.16 39.6061 27.0983 39.6311 27.0799C39.6561 27.0615 39.6795 27.0415 39.7045 27.0232L39.783 26.9481C39.9018 26.8201 40.0064 26.6797 40.095 26.5292C40.2987 26.1854 40.474 25.8254 40.619 25.4529C40.7758 25.0691 40.916 24.672 41.0428 24.2682C41.1696 23.8643 41.2931 23.4522 41.4033 23.0483L42.0874 23.1585C42.0159 24.0498 41.8612 24.9325 41.6252 25.795C41.4996 26.2458 41.332 26.6838 41.1246 27.1033C41.0101 27.3356 40.8708 27.555 40.7091 27.7574C40.6607 27.8124 40.614 27.8658 40.5639 27.9243C40.5139 27.9827 40.4554 28.0294 40.397 28.0794C40.2927 28.1593 40.1841 28.2334 40.0716 28.3014C39.3114 28.7839 38.5121 29.202 37.6821 29.5512C36.8621 29.907 36.0198 30.2091 35.1607 30.4557L34.7786 29.1074Z" fill="#FFB573"/>
<path d="M33.8526 29.1387C34.0679 28.5997 37.1483 28.1992 37.1483 28.1992L37.5888 30.9242C37.5888 30.9242 34.9906 31.9337 34.4333 31.4248C33.876 30.9158 33.5372 29.923 33.8526 29.1387Z" fill="#263238"/>
<path d="M41.3116 22.8747L41.073 21.77L42.3278 22.3674C42.3278 22.3674 42.3796 23.2435 41.8957 23.5355L41.7755 23.4738C41.659 23.414 41.557 23.3294 41.4769 23.2259C41.3967 23.1223 41.3403 23.0025 41.3116 22.8747Z" fill="#FFB573"/>
<path d="M41.3617 20.7969L42.4764 21.1323L42.3278 22.3688L41.073 21.7714L41.3617 20.7969Z" fill="#FFB573"/>
<path d="M27.4099 60.1343L28.5797 60.8568L30.4035 58.5774L29.4023 57.668L27.4099 60.1343Z" fill="#FFB573"/>
<path d="M28.8597 60.7949L27.8268 59.6585C27.8092 59.6387 27.7849 59.6258 27.7585 59.6225C27.7321 59.6191 27.7054 59.6254 27.6833 59.6402L26.6688 60.3293C26.6437 60.3474 26.6227 60.3705 26.6072 60.3973C26.5917 60.424 26.5821 60.4538 26.5789 60.4845C26.5757 60.5153 26.5791 60.5463 26.5889 60.5757C26.5986 60.605 26.6145 60.632 26.6354 60.6547C27.0025 61.0435 27.1994 61.2137 27.6533 61.7127C27.9336 62.0197 28.7029 62.9308 29.09 63.3547C29.4772 63.7785 29.9244 63.4214 29.7925 63.2095C29.2419 62.2633 28.9699 61.4907 28.9499 61.0202C28.9473 60.9368 28.9154 60.857 28.8597 60.7949Z" fill="#263238"/>
<g opacity="0.2">
<path opacity="0.2" d="M30.4034 58.5791L29.514 59.6888L28.3743 58.9395L29.4022 57.668L30.4034 58.5791Z" fill="black"/>
</g>
<path d="M36.0621 29.2168C36.0621 29.2168 36.7095 29.4554 35.2778 37.4501L29.7294 37.3617C29.8579 35.104 29.8962 33.7106 28.895 29.06C29.666 28.912 30.4468 28.8211 31.2312 28.788C32.071 28.7416 32.9131 28.7556 33.7509 28.8297C34.8389 28.9448 36.0621 29.2168 36.0621 29.2168Z" fill="#263238"/>
<path opacity="0.2" d="M29.4688 32.007C29.5305 32.3807 29.5806 32.7262 29.6223 33.0482C29.8544 32.5027 30.0007 31.9247 30.0561 31.3345L29.4688 32.007Z" fill="black"/>
<path d="M31.535 25.9595C31.6818 26.7721 31.8153 28.2606 31.2396 28.7962C31.2396 28.7962 31.4482 29.6306 32.955 29.6473C34.6104 29.674 33.7593 28.838 33.7593 28.838C32.8583 28.6077 32.8933 27.9369 33.0602 27.3094L31.535 25.9595Z" fill="#FFB573"/>
<path d="M31.2479 28.7892C32.0871 28.7415 32.9287 28.7549 33.766 28.8292L33.9328 28.8476C34.1281 29.233 34.1798 30.1642 33.6842 31.0169C33.6842 31.0169 31.4782 29.747 30.9192 28.8059C31.0176 28.7975 31.1294 28.7925 31.2479 28.7892Z" fill="#FFB573"/>
<path opacity="0.2" d="M32.1572 26.5093L33.06 27.3052C33.0189 27.4511 32.9904 27.6001 32.9749 27.7508C32.6311 27.6957 32.1622 27.3086 32.1305 26.9465C32.1124 26.8003 32.1215 26.6521 32.1572 26.5093Z" fill="black"/>
<path d="M30.6836 24.5416C30.9706 25.8666 31.0641 26.4339 31.8517 27.0163C33.0198 27.8924 34.5917 27.2499 34.7051 25.8649C34.8086 24.6184 34.3213 22.661 32.9297 22.3306C32.6228 22.2546 32.3015 22.2585 31.9966 22.342C31.6917 22.4256 31.4133 22.5859 31.188 22.8077C30.9627 23.0295 30.798 23.3053 30.7097 23.6089C30.6214 23.9125 30.6124 24.2336 30.6836 24.5416Z" fill="#FFB573"/>
<path d="M30.7172 22.8505C31.2745 22.8872 31.9287 23.1692 31.7701 23.9318C31.6116 24.6944 31.0009 24.1904 31.2228 25.3001C31.4447 26.4098 29.3973 25.7673 29.706 24.7494C30.0147 23.7315 29.8628 22.7954 30.7172 22.8505Z" fill="#263238"/>
<path d="M30.36 23.7036C31.1744 24.4612 32.3108 22.3503 33.4221 23.1429C34.5334 23.9355 34.5151 22.5789 33.2552 22.2451C31.9954 21.9114 29.3772 22.7908 30.36 23.7036Z" fill="#263238"/>
<path d="M35.2775 37.4523C35.2775 37.4523 35.8649 45.4003 35.708 49.5653C35.5412 53.9039 30.0145 59.4423 30.0145 59.4423L28.5861 58.2742C28.5494 58.2926 32.5909 51.1072 32.3673 48.9296C31.8667 44.3123 31.2143 37.3789 31.2143 37.3789L35.2775 37.4523Z" fill="#FA8A3C"/>
<path opacity="0.3" d="M35.2775 37.4523C35.2775 37.4523 35.8649 45.4003 35.708 49.5653C35.5412 53.9039 30.0145 59.4423 30.0145 59.4423L28.5861 58.2742C28.5494 58.2926 32.5909 51.1072 32.3673 48.9296C31.8667 44.3123 31.2143 37.3789 31.2143 37.3789L35.2775 37.4523Z" fill="white"/>
<path d="M28.2158 58.5494L30.0597 59.6892L30.5587 59.1852L28.5379 57.8369L28.2158 58.5494Z" fill="#263238"/>
<path opacity="0.2" d="M32.5945 40.2456C32.0939 39.3812 31.7318 39.4112 31.4614 39.9502C31.69 42.3097 32.0405 45.8591 32.3358 48.6541C32.9933 46.61 34.118 42.9055 32.5945 40.2456Z" fill="black"/>
<path d="M18.9745 51.5025L19.4134 52.7957L22.5705 52.2517L22.1316 50.9585L18.9745 51.5025Z" fill="#FFB573"/>
<path d="M19.9007 52.8577L19.6837 51.3392C19.6798 51.3117 19.6669 51.2863 19.6469 51.267C19.627 51.2476 19.6012 51.2355 19.5736 51.2324L18.3254 51.0739C18.2957 51.0694 18.2654 51.0721 18.237 51.0817C18.2086 51.0913 18.1828 51.1075 18.162 51.1291C18.1411 51.1506 18.1256 51.1768 18.1169 51.2055C18.1082 51.2343 18.1064 51.2646 18.1118 51.2941C18.1953 51.8231 18.2637 52.0784 18.3588 52.7476C18.4189 53.1581 18.544 54.3395 18.6241 54.9069C18.7042 55.4742 19.2816 55.4976 19.2916 55.2606C19.3717 54.1977 19.5853 53.4468 19.8406 53.0913C19.8906 53.0244 19.9122 52.9405 19.9007 52.8577Z" fill="#263238"/>
<g opacity="0.2">
<path opacity="0.2" d="M22.5704 52.2517L20.9435 52.5321L20.5029 51.2388L22.1299 50.9585L22.5704 52.2517Z" fill="black"/>
</g>
<path d="M33.7507 37.4351C33.7507 37.4351 32.9915 44.8774 31.2193 48.7004C30.4534 50.3558 21.4909 52.5968 21.4909 52.5968L20.7066 50.9281C20.5848 50.9281 25.7927 47.9612 27.5248 47.3187C27.7141 47.2478 27.882 47.1296 28.0125 46.9753C28.1431 46.8211 28.232 46.636 28.2707 46.4377C29.1418 42.044 29.6875 37.375 29.6875 37.375L33.7507 37.4351Z" fill="#FA8A3C"/>
<path opacity="0.3" d="M33.7507 37.4351C33.7507 37.4351 32.9915 44.8774 31.2193 48.7004C30.4534 50.3558 21.4909 52.5968 21.4909 52.5968L20.7066 50.9281C20.5848 50.9281 25.7927 47.9612 27.5248 47.3187C27.7141 47.2478 27.882 47.1296 28.0125 46.9753C28.1431 46.8211 28.232 46.636 28.2707 46.4377C29.1418 42.044 29.6875 37.375 29.6875 37.375L33.7507 37.4351Z" fill="white"/>
<path d="M20.6067 50.7616L21.2858 52.8191L22.0217 52.8392L21.3142 50.4146L20.6067 50.7616Z" fill="#263238"/>
<path d="M19.7338 53.3661C19.7403 53.4887 19.7866 53.6058 19.8656 53.6998C19.8875 53.721 19.9138 53.7371 19.9427 53.7469C19.9715 53.7567 20.0022 53.76 20.0324 53.7566C20.0498 53.7557 20.0665 53.7499 20.0807 53.7398C20.0949 53.7298 20.1059 53.7159 20.1125 53.6998C20.181 53.533 19.8239 52.9973 19.7788 52.9372C19.775 52.9316 19.7697 52.9271 19.7636 52.9241C19.7574 52.9212 19.7506 52.92 19.7438 52.9206C19.7373 52.9219 19.7315 52.9251 19.727 52.9299C19.7225 52.9347 19.7196 52.9408 19.7187 52.9473C19.7112 53.087 19.7162 53.2272 19.7338 53.3661ZM20.0541 53.6047C20.0586 53.6239 20.0586 53.6439 20.0541 53.6631C20.0513 53.6696 20.0466 53.675 20.0407 53.6789C20.0347 53.6827 20.0278 53.6848 20.0208 53.6848C20.0012 53.6878 19.9812 53.6863 19.9624 53.6802C19.9435 53.6741 19.9264 53.6637 19.9123 53.6498C19.8255 53.5697 19.7805 53.3461 19.7872 53.0457C19.9036 53.217 19.992 53.4057 20.0491 53.6047H20.0541Z" fill="#FA8A3C"/>
<path d="M19.7172 52.9518V52.9635C19.8156 53.1304 20.1577 53.4391 20.3096 53.4124C20.3463 53.4124 20.388 53.3807 20.3847 53.2906C20.3817 53.2232 20.3523 53.1596 20.3029 53.1137C20.136 52.9468 19.7589 52.9201 19.7439 52.9185C19.7384 52.9183 19.733 52.9195 19.7281 52.9218C19.7232 52.9241 19.7189 52.9275 19.7155 52.9318C19.7153 52.9385 19.7158 52.9453 19.7172 52.9518ZM20.3229 53.2656C20.3229 53.2656 20.3229 53.2789 20.3229 53.2856C20.3229 53.344 20.3012 53.3473 20.2945 53.349C20.2028 53.3657 19.9374 53.1521 19.8123 52.9886C19.9751 53.0012 20.1311 53.059 20.2628 53.1554C20.2933 53.1834 20.3143 53.2201 20.3229 53.2606V53.2656Z" fill="#FA8A3C"/>
<path d="M33.0048 24.5688C33.0215 24.679 33.0916 24.7574 33.1633 24.7474C33.2351 24.7374 33.2785 24.6389 33.2618 24.5305C33.2451 24.422 33.1734 24.3419 33.1033 24.3519C33.0332 24.3619 32.9881 24.4604 33.0048 24.5688Z" fill="#263238"/>
<path d="M34.2348 24.3807C34.2515 24.4891 34.3232 24.5692 34.4017 24.5575C34.4801 24.5459 34.5168 24.4491 34.5001 24.3406C34.4834 24.2321 34.4117 24.152 34.3332 24.1637C34.2548 24.1754 34.2181 24.2722 34.2348 24.3807Z" fill="#263238"/>
<path d="M34.3031 24.1742L34.5534 24.0591C34.5534 24.0591 34.4499 24.2844 34.3031 24.1742Z" fill="#263238"/>
<path d="M33.7507 24.6333C33.8875 24.8673 34.056 25.0812 34.2513 25.2691C34.202 25.3174 34.1426 25.3542 34.0775 25.377C34.0123 25.3998 33.9429 25.4079 33.8742 25.4009L33.7507 24.6333Z" fill="#ED893E"/>
<path d="M33.342 25.9205C33.3978 25.9201 33.4536 25.9157 33.5088 25.9071C33.513 25.9065 33.517 25.9051 33.5207 25.9029C33.5243 25.9007 33.5274 25.8978 33.5299 25.8944C33.5324 25.891 33.5342 25.8871 33.5352 25.883C33.5361 25.8788 33.5362 25.8746 33.5355 25.8704C33.5349 25.8662 33.5335 25.8622 33.5313 25.8586C33.5291 25.8549 33.5262 25.8518 33.5228 25.8493C33.5194 25.8468 33.5155 25.845 33.5114 25.8441C33.5073 25.8431 33.503 25.843 33.4988 25.8437C33.3637 25.8673 33.225 25.8589 33.0937 25.8192C32.9624 25.7795 32.8423 25.7096 32.7429 25.6151C32.7402 25.6119 32.7368 25.6093 32.7331 25.6074C32.7293 25.6055 32.7253 25.6044 32.7211 25.6041C32.7169 25.6038 32.7127 25.6043 32.7087 25.6056C32.7047 25.6069 32.701 25.609 32.6979 25.6118C32.6947 25.6145 32.6921 25.6178 32.6902 25.6216C32.6883 25.6253 32.6872 25.6294 32.6869 25.6336C32.6865 25.6378 32.6871 25.642 32.6884 25.646C32.6897 25.6499 32.6918 25.6536 32.6945 25.6568C32.7794 25.7417 32.8804 25.8087 32.9916 25.854C33.1028 25.8993 33.2219 25.9219 33.342 25.9205Z" fill="#263238"/>
<path d="M30.5101 25.8212C30.6381 26.05 30.8518 26.2187 31.1041 26.2901C31.4379 26.3818 31.6047 26.0815 31.5096 25.7661C31.4245 25.4824 31.1475 25.0986 30.8121 25.1403C30.739 25.152 30.67 25.1817 30.6113 25.2268C30.5526 25.272 30.5061 25.331 30.4761 25.3987C30.4461 25.4664 30.4335 25.5405 30.4394 25.6142C30.4453 25.688 30.4696 25.7592 30.5101 25.8212Z" fill="#FFB573"/>
<path d="M32.339 24.3914C32.3525 24.3912 32.3656 24.387 32.3766 24.3793C32.3876 24.3715 32.396 24.3606 32.4007 24.348C32.4925 24.0627 32.8613 23.9459 32.8646 23.9459C32.881 23.9405 32.8945 23.9289 32.9024 23.9136C32.9102 23.8983 32.9116 23.8805 32.9064 23.8641C32.9041 23.8559 32.9002 23.8483 32.8948 23.8417C32.8895 23.8352 32.8829 23.8297 32.8754 23.8258C32.8679 23.8219 32.8596 23.8196 32.8512 23.819C32.8427 23.8184 32.8342 23.8196 32.8263 23.8224C32.8079 23.8224 32.3907 23.9592 32.2773 24.3063C32.2744 24.3144 32.2732 24.323 32.2738 24.3316C32.2744 24.3401 32.2767 24.3485 32.2806 24.3561C32.2845 24.3638 32.2899 24.3705 32.2965 24.376C32.3031 24.3815 32.3108 24.3856 32.319 24.3881C32.3253 24.3908 32.3322 24.392 32.339 24.3914Z" fill="#263238"/>
<path d="M34.3848 23.7482C34.3988 23.7479 34.4123 23.7431 34.4234 23.7345C34.4345 23.7259 34.4425 23.714 34.4462 23.7005C34.45 23.687 34.4493 23.6727 34.4442 23.6596C34.4392 23.6466 34.43 23.6355 34.4182 23.628C34.3311 23.5734 34.2322 23.5403 34.1297 23.5316C34.0273 23.5229 33.9242 23.5388 33.8291 23.5779C33.8148 23.5861 33.8041 23.5995 33.7993 23.6152C33.7944 23.631 33.7957 23.648 33.8029 23.6629C33.8101 23.6777 33.8227 23.6892 33.8381 23.6952C33.8535 23.7011 33.8706 23.7009 33.8859 23.6948C33.9613 23.6645 34.0429 23.6527 34.1239 23.6602C34.2048 23.6678 34.2828 23.6945 34.3514 23.7381C34.3613 23.7447 34.3729 23.7482 34.3848 23.7482Z" fill="#263238"/>
<path d="M29.4907 30.9057C29.2454 31.1694 28.9901 31.4564 28.7398 31.7401C28.4894 32.0237 28.2391 32.3107 28.0122 32.6061C27.5462 33.1806 27.1255 33.7904 26.754 34.43L26.6889 34.5468C26.6804 34.5629 26.6709 34.5785 26.6606 34.5935C26.6426 34.6402 26.6308 34.689 26.6255 34.7387C26.6075 34.8954 26.6042 35.0535 26.6155 35.2109C26.6407 35.5749 26.6875 35.9371 26.7557 36.2956C26.8174 36.666 26.8942 37.0398 26.9826 37.4119C27.0711 37.784 27.1495 38.1628 27.2463 38.5316L26.5972 38.7686C26.2523 38.0481 25.9601 37.3036 25.7228 36.5409C25.5986 36.1446 25.5037 35.7396 25.4391 35.3294C25.4034 35.0998 25.3888 34.8675 25.3957 34.6352C25.4027 34.4906 25.4263 34.3473 25.4658 34.208C25.4781 34.1649 25.4931 34.1225 25.5108 34.0812C25.5325 34.0278 25.5409 34.0095 25.5525 33.9861L25.621 33.8443C25.7987 33.47 26.0004 33.1077 26.225 32.7596C26.4403 32.4109 26.6789 32.0921 26.9192 31.7584C27.4024 31.1119 27.9287 30.4986 28.4945 29.9229L29.4907 30.9057Z" fill="#FFB573"/>
<path d="M28.8965 29.0628C28.3274 29.1779 27.2528 30.9701 27.2528 30.9701L29.0884 32.7339C29.0884 32.7339 30.4333 31.6059 30.41 30.8516C30.3849 30.064 29.5456 28.9243 28.8965 29.0628Z" fill="#263238"/>
<path d="M29.0284 61.3278C29.0984 61.4222 29.1995 61.489 29.3138 61.5164C29.3427 61.5195 29.372 61.5155 29.399 61.5048C29.4261 61.494 29.4501 61.4768 29.469 61.4546C29.4814 61.4418 29.4904 61.4261 29.495 61.4089C29.4997 61.3916 29.4999 61.3735 29.4957 61.3562C29.4506 61.1693 28.8782 60.954 28.8132 60.9307C28.8071 60.928 28.8002 60.9275 28.7938 60.9293C28.7874 60.9311 28.7818 60.9352 28.7781 60.9407C28.7741 60.9459 28.7719 60.9524 28.7719 60.959C28.7719 60.9657 28.7741 60.9721 28.7781 60.9774C28.8497 61.1023 28.9335 61.2197 29.0284 61.3278ZM29.4005 61.3178C29.4155 61.3326 29.4265 61.351 29.4322 61.3712C29.434 61.3781 29.4339 61.3853 29.4318 61.392C29.4298 61.3988 29.4259 61.4049 29.4206 61.4096C29.4087 61.4249 29.3931 61.4369 29.3753 61.4445C29.3575 61.4521 29.338 61.455 29.3188 61.453C29.2086 61.4413 29.0484 61.2861 28.8816 61.0258C29.0697 61.0933 29.2452 61.192 29.4005 61.3178Z" fill="#FA8A3C"/>
<path d="M28.7782 60.9826C28.7814 60.9863 28.7854 60.9891 28.7899 60.9909C28.9568 61.061 29.389 61.1011 29.4857 60.9792C29.5024 60.9567 29.5103 60.9288 29.5078 60.9008C29.5053 60.8728 29.4927 60.8467 29.4724 60.8274C29.4526 60.8009 29.4276 60.7788 29.3989 60.7624C29.3702 60.7461 29.3384 60.7358 29.3055 60.7323C29.0853 60.7022 28.7916 60.9258 28.7799 60.9359C28.7751 60.9387 28.7713 60.943 28.7689 60.948C28.7666 60.9531 28.7657 60.9587 28.7665 60.9642C28.7693 60.971 28.7733 60.9772 28.7782 60.9826ZM29.4073 60.8507L29.419 60.8658C29.4557 60.9142 29.4407 60.9325 29.4357 60.9375C29.3773 61.0126 29.0586 61.0059 28.8717 60.9509C28.9952 60.8561 29.145 60.8019 29.3005 60.7957C29.3432 60.8 29.3829 60.8196 29.4123 60.8507H29.4073Z" fill="#FA8A3C"/>
<path d="M33.0717 24.3632L33.322 24.248C33.322 24.248 33.2202 24.4717 33.0717 24.3632Z" fill="#263238"/>
<path d="M29.651 37.0349L29.5008 37.5355C29.4807 37.5738 29.5258 37.6139 29.5909 37.6156L35.3011 37.7073C35.3512 37.7073 35.3929 37.684 35.3963 37.6523L35.4547 37.1517C35.4547 37.1166 35.4146 37.0866 35.3595 37.0866L29.7461 36.9948C29.7281 36.992 29.7096 36.9943 29.6928 37.0014C29.676 37.0084 29.6615 37.02 29.651 37.0349Z" fill="#FAFAFA"/>
<path d="M30.395 37.6783H30.2449C30.2148 37.6783 30.1931 37.6617 30.1948 37.6433L30.2766 36.9992C30.2766 36.9808 30.3049 36.9658 30.335 36.9658H30.4852C30.5152 36.9658 30.5369 36.9825 30.5352 37.0025L30.4535 37.6466C30.4518 37.6633 30.4251 37.6783 30.395 37.6783Z" fill="#FA8A3C"/>
<g opacity="0.3">
<path opacity="0.3" d="M30.395 37.6764H30.2449C30.2148 37.6764 30.1931 37.6597 30.1948 37.6414L30.2766 36.9972C30.2766 36.9789 30.3049 36.9639 30.335 36.9639H30.4852C30.5152 36.9639 30.5369 36.9806 30.5352 37.0006L30.4535 37.6447C30.4518 37.6614 30.4251 37.6764 30.395 37.6764Z" fill="white"/>
</g>
<path d="M34.877 37.7496H34.7252C34.6952 37.7496 34.6735 37.7346 34.6751 37.7146L34.7569 37.0705C34.7569 37.0521 34.7853 37.0371 34.8153 37.0371H34.9655C34.9955 37.0371 35.0189 37.0538 35.0155 37.0722L34.9354 37.7163C34.9321 37.7346 34.9071 37.7496 34.877 37.7496Z" fill="#FA8A3C"/>
<path opacity="0.3" d="M34.877 37.7496H34.7252C34.6952 37.7496 34.6735 37.7346 34.6751 37.7146L34.7569 37.0705C34.7569 37.0521 34.7853 37.0371 34.8153 37.0371H34.9655C34.9955 37.0371 35.0189 37.0538 35.0155 37.0722L34.9354 37.7163C34.9321 37.7346 34.9071 37.7496 34.877 37.7496Z" fill="white"/>
<path d="M32.6361 37.711H32.4859C32.4559 37.711 32.4325 37.6943 32.4359 37.676L32.516 37.0319C32.5201 37.0202 32.5283 37.0105 32.539 37.0044C32.5497 36.9983 32.5623 36.9962 32.5744 36.9985H32.7262C32.7563 36.9985 32.7779 37.0152 32.7763 37.0335L32.6945 37.6776C32.6928 37.696 32.6661 37.711 32.6361 37.711Z" fill="#FA8A3C"/>
<path opacity="0.3" d="M32.6361 37.711H32.4859C32.4559 37.711 32.4325 37.6943 32.4359 37.676L32.516 37.0319C32.5201 37.0202 32.5283 37.0105 32.539 37.0044C32.5497 36.9983 32.5623 36.9962 32.5744 36.9985H32.7262C32.7563 36.9985 32.7779 37.0152 32.7763 37.0335L32.6945 37.6776C32.6928 37.696 32.6661 37.711 32.6361 37.711Z" fill="white"/>
<path d="M27.2629 38.4357L28.0973 39.6556L26.7156 39.5137C26.7156 39.5137 26.3819 38.7044 26.729 38.2622L27.2629 38.4357Z" fill="#FFB573"/>
<path d="M28.0172 40.8011L26.8675 40.6192L26.7123 39.5112L28.094 39.6547L28.0172 40.8011Z" fill="#FFB573"/>
<path d="M52.2416 27.2514L52.043 27.3465L51.8594 27.4283C51.7376 27.48 51.6158 27.5284 51.4923 27.5751C51.247 27.6686 51.0001 27.7537 50.7481 27.8304C50.2384 27.9856 49.7164 28.0973 49.1879 28.1642C48.6365 28.2318 48.0789 28.2318 47.5275 28.1642C47.2376 28.1296 46.9516 28.0682 46.6731 27.9806C46.6031 27.9623 46.5313 27.9339 46.4612 27.9105L46.3561 27.8721L46.2359 27.8204C46.1568 27.7876 46.0799 27.7497 46.0057 27.7069C45.9322 27.6669 45.8605 27.6268 45.7971 27.5835C45.5507 27.4214 45.322 27.2341 45.1146 27.0245C44.9221 26.8346 44.7405 26.634 44.5706 26.4237C44.2516 26.0207 43.9595 25.597 43.6962 25.1555C43.183 24.3004 42.7469 23.4013 42.3929 22.4689L43.2507 22.0518C43.5026 22.4389 43.7629 22.8444 44.0366 23.2198C44.3103 23.5953 44.5823 23.9841 44.871 24.3462C45.1477 24.7038 45.4447 25.0453 45.7604 25.3691C46.0317 25.6629 46.3442 25.9159 46.6882 26.12C47.0083 26.267 47.3555 26.3454 47.7077 26.3503C48.1165 26.3691 48.5262 26.3428 48.9292 26.2719C49.3551 26.1992 49.7755 26.0971 50.1874 25.9665C50.396 25.9031 50.6046 25.833 50.8115 25.7562C50.9133 25.7179 51.0151 25.6762 51.1152 25.6361L51.2637 25.5744L51.3939 25.5193L52.2416 27.2514Z" fill="#FF8B7B"/>
<path d="M43.3222 22.506L43.2388 21.2178L42.1057 22.4009C42.1057 22.4009 42.3994 23.297 43.0018 23.4021L43.0969 23.2936C43.1907 23.1874 43.2596 23.0615 43.2985 22.9253C43.3375 22.789 43.3456 22.6458 43.3222 22.506Z" fill="#FF8B7B"/>
<path d="M42.4497 20.4492L41.4685 21.2268L42.1043 22.4016L43.239 21.2185L42.4497 20.4492Z" fill="#FF8B7B"/>
<path d="M59.2451 25.4155C59.5521 25.776 59.8091 26.1231 60.0794 26.4885C60.3498 26.8539 60.5901 27.2244 60.8287 27.6065C61.3216 28.3844 61.7358 29.2095 62.0652 30.0695L62.1803 30.4133L62.2087 30.4984L62.222 30.5417L62.2404 30.6068C62.2653 30.6971 62.2831 30.7891 62.2938 30.8822C62.3258 31.1802 62.3112 31.4814 62.2504 31.7749C62.1505 32.252 61.9966 32.7161 61.7915 33.1582C61.4155 33.9799 60.9528 34.7592 60.4115 35.4827L59.5772 35.0055C59.7257 34.62 59.8792 34.2195 60.016 33.8257C60.1529 33.4319 60.2847 33.0381 60.3915 32.6576C60.4979 32.2953 60.5699 31.9238 60.6067 31.548C60.6199 31.4164 60.6126 31.2835 60.5851 31.1542C60.5834 31.1393 60.5783 31.125 60.57 31.1124V31.1008L60.5567 31.0674L60.5283 31.0023L60.4182 30.7386C60.072 30.0117 59.6692 29.3132 59.2134 28.6494C58.9865 28.3157 58.7462 27.9703 58.5042 27.6332C58.2622 27.2961 58.0036 26.9657 57.7633 26.652L59.2451 25.4155Z" fill="#FF8B7B"/>
<path d="M59.4487 35.0671L58.7478 36.1518L60.3631 35.8765C60.3631 35.8765 60.6601 34.982 60.2396 34.5415L60.0978 34.5715C59.9596 34.6008 59.8296 34.6604 59.7173 34.7461C59.605 34.8319 59.5133 34.9415 59.4487 35.0671Z" fill="#FF8B7B"/>
<path d="M58.9262 37.241L60.1777 37.2009L60.3663 35.876L58.751 36.1513L58.9262 37.241Z" fill="#FF8B7B"/>
<path d="M53.1359 20.1695C53.1275 20.273 53.0691 20.3531 53.0007 20.3514C52.9323 20.3498 52.8856 20.2647 52.8922 20.1629C52.8989 20.0611 52.9607 19.9793 53.0274 19.981C53.0942 19.9827 53.1426 20.0678 53.1359 20.1695Z" fill="#263238"/>
<path d="M53.0777 20.356C52.9334 20.6654 52.7488 20.9543 52.5287 21.2153C52.5962 21.2677 52.6744 21.3044 52.7578 21.3229C52.8412 21.3414 52.9277 21.3411 53.0109 21.3221L53.0777 20.356Z" fill="#FF5652"/>
<path d="M53.0474 19.5093C53.0587 19.5133 53.0711 19.5133 53.0824 19.5093C53.1549 19.4896 53.231 19.4876 53.3044 19.5033C53.3778 19.5189 53.4465 19.5519 53.5046 19.5994C53.5171 19.6065 53.5318 19.6089 53.5459 19.6062C53.56 19.6034 53.5727 19.5956 53.5816 19.5843C53.5905 19.573 53.595 19.5588 53.5944 19.5445C53.5937 19.5301 53.5879 19.5164 53.578 19.5059C53.5045 19.4458 53.4176 19.4043 53.3246 19.3852C53.2316 19.366 53.1353 19.3696 53.044 19.3958C53.0289 19.4011 53.0165 19.4121 53.0093 19.4264C53.0022 19.4407 53.0008 19.4573 53.0057 19.4726C53.0094 19.4814 53.015 19.4894 53.0223 19.4957C53.0295 19.5021 53.0381 19.5067 53.0474 19.5093Z" fill="#263238"/>
<path d="M55.9929 21.5259C56.0313 22.5721 55.7309 23.862 56.3984 24.4361C56.3984 24.4361 56.1731 25.3956 54.4494 25.514C52.5537 25.6442 53.5149 24.633 53.5149 24.633C54.5428 24.3143 54.4928 23.5467 54.2908 22.8358L55.9929 21.5259Z" fill="#FF8B7B"/>
<path d="M56.8636 24.7277C56.9904 24.419 57.1106 23.9518 56.7985 23.865C56.4548 23.7716 54.726 23.5914 53.4612 24.092C53.5391 24.232 53.5865 24.3869 53.6003 24.5465C53.6141 24.7061 53.594 24.8668 53.5413 25.0181L56.8636 24.7277Z" fill="#263238"/>
<path d="M64.4813 63.0719C64.463 63.0722 64.4448 63.0688 64.4279 63.0619C64.4044 63.0508 64.3852 63.0325 64.3729 63.0097C64.3606 62.9869 64.3559 62.9608 64.3594 62.9351C64.3594 62.914 64.3638 62.8931 64.3724 62.8738C64.381 62.8545 64.3937 62.8373 64.4095 62.8233C64.5513 62.6931 64.9635 62.7265 64.9819 62.7282C64.9877 62.7286 64.9932 62.7307 64.9978 62.7343C65.0024 62.7378 65.0059 62.7426 65.0079 62.7481C65.0098 62.7536 65.0101 62.7595 65.0088 62.7651C65.0074 62.7708 65.0044 62.7759 65.0002 62.7799C64.9135 62.8633 64.6431 63.0719 64.4813 63.0719ZM64.85 62.7832C64.7116 62.7713 64.5727 62.8009 64.4512 62.8683C64.4412 62.8763 64.4331 62.8864 64.4276 62.898C64.4221 62.9096 64.4193 62.9223 64.4195 62.9351C64.4195 62.9935 64.4445 63.0035 64.4512 63.0069C64.533 63.0402 64.7566 62.9101 64.9051 62.7849L64.85 62.7832Z" fill="#FA8A3C"/>
<path d="M64.972 62.7937C64.8235 62.7937 64.4848 62.6803 64.4381 62.5468C64.4298 62.5249 64.4297 62.5007 64.4376 62.4787C64.4456 62.4567 64.4611 62.4382 64.4814 62.4266C64.4994 62.412 64.5204 62.4015 64.5429 62.396C64.5654 62.3905 64.5889 62.3902 64.6116 62.3949C64.7952 62.4283 64.9954 62.7287 65.0037 62.7487C65.0066 62.7532 65.008 62.7584 65.008 62.7637C65.008 62.769 65.0066 62.7742 65.0037 62.7787C65.0011 62.7831 64.9974 62.7867 64.9931 62.7893C64.9887 62.7919 64.9838 62.7934 64.9787 62.7937H64.972ZM64.5799 62.46C64.5577 62.4598 64.536 62.4668 64.5182 62.48C64.4848 62.5067 64.4915 62.5251 64.4948 62.5334C64.5232 62.6135 64.7618 62.717 64.9186 62.737C64.8552 62.6502 64.7184 62.4817 64.6016 62.4617L64.5799 62.46Z" fill="#FA8A3C"/>
<path d="M56.37 67.1573C56.3307 67.1598 56.2916 67.1499 56.2582 67.129C56.2398 67.1138 56.2265 67.0933 56.2202 67.0703C56.214 67.0473 56.215 67.0229 56.2232 67.0005C56.2816 66.7468 56.919 66.8737 56.9908 66.8887C56.9967 66.8902 57.002 66.8933 57.0061 66.8978C57.0103 66.9022 57.0131 66.9077 57.0142 66.9137C57.0153 66.9199 57.0145 66.9263 57.0118 66.932C57.0091 66.9377 57.0047 66.9424 56.9991 66.9454C56.8056 67.0571 56.5917 67.1291 56.37 67.1573ZM56.5836 66.9054C56.4334 66.9054 56.3016 66.9304 56.2816 67.0138C56.2699 67.0622 56.2816 67.0756 56.2949 67.0806C56.3717 67.1373 56.6787 67.0405 56.894 66.9321C56.7913 66.9157 56.6876 66.9068 56.5836 66.9054Z" fill="#FA8A3C"/>
<path d="M56.984 66.9511C56.8171 66.9328 56.46 66.7692 56.4366 66.6174C56.4366 66.5823 56.4366 66.5339 56.5167 66.4989C56.5431 66.4877 56.5715 66.4819 56.6002 66.4819C56.6288 66.4819 56.6572 66.4877 56.6836 66.4989C56.8738 66.5757 57.0023 66.8927 57.0073 66.9061C57.0095 66.9108 57.0105 66.9159 57.0105 66.9211C57.0105 66.9263 57.0095 66.9314 57.0073 66.9361C57.0047 66.9401 57.0012 66.9434 56.9972 66.946C56.9932 66.9486 56.9887 66.9503 56.984 66.9511ZM56.6119 66.544C56.5893 66.5441 56.5671 66.5493 56.5468 66.559C56.495 66.5823 56.5001 66.6057 56.5001 66.614C56.5151 66.7025 56.7687 66.8427 56.9423 66.881C56.8885 66.7478 56.7946 66.6347 56.6736 66.5573C56.6541 66.549 56.6331 66.5444 56.6119 66.544Z" fill="#FA8A3C"/>
<path d="M58.3105 66.4791L57.1041 66.8813L56.1613 64.0929L57.3661 63.6924L58.3105 66.4791Z" fill="#FF8B7B"/>
<path d="M66.2334 62.0184L65.1388 62.6626L63.1914 60.3931L64.2877 59.749L66.2334 62.0184Z" fill="#FF8B7B"/>
<path d="M64.9904 62.5783L66.2202 61.8524C66.2418 61.84 66.267 61.8353 66.2916 61.8393C66.3162 61.8432 66.3388 61.8555 66.3554 61.8741L67.1079 62.7435C67.1257 62.7654 67.1386 62.7909 67.1456 62.8182C67.1526 62.8456 67.1536 62.8741 67.1485 62.9018C67.1435 62.9296 67.1324 62.9559 67.1162 62.979C67.1 63.0021 67.0789 63.0214 67.0545 63.0355C66.6207 63.2825 66.3987 63.3793 65.8564 63.703C65.5227 63.8983 64.8552 64.3371 64.398 64.6091C63.9408 64.8811 63.6287 64.4422 63.7939 64.2971C64.5365 63.6112 64.7134 63.164 64.8502 62.7569C64.8737 62.6823 64.9235 62.6188 64.9904 62.5783Z" fill="#263238"/>
<path d="M57.0707 66.7354L58.3873 66.2949C58.4109 66.2871 58.4366 66.2879 58.4597 66.297C58.4829 66.3062 58.5021 66.3231 58.5141 66.3449L59.0681 67.3461C59.0818 67.3709 59.0897 67.3983 59.0915 67.4265C59.0932 67.4547 59.0886 67.4829 59.0781 67.5091C59.0675 67.5353 59.0513 67.5589 59.0305 67.578C59.0097 67.5971 58.985 67.6114 58.958 67.6198C58.4807 67.7716 57.7899 67.9719 57.1908 68.1705C56.4917 68.4041 55.8976 68.8463 55.0432 68.9714C54.5276 69.0465 54.3274 68.5442 54.5426 68.4708C55.5038 68.1104 56.1462 67.7099 56.8137 66.929C56.8799 66.842 56.9688 66.775 57.0707 66.7354Z" fill="#263238"/>
<path d="M58.5992 24.5345C59.8107 24.5746 61.6563 27.5215 61.6563 27.5215L59.5637 29.604C58.8458 28.8739 58.1878 28.087 57.5963 27.2511C56.6719 25.9162 57.3611 24.4945 58.5992 24.5345Z" fill="#FA8A3C"/>
<path opacity="0.2" d="M58.6845 27.5282L58.0554 26.1382L57.78 27.5215C58.1455 28.0221 58.5293 28.4827 58.8463 28.8431C58.9252 28.3985 58.8688 27.9404 58.6845 27.5282Z" fill="black"/>
<path d="M51.3153 30.7575C51.4204 32.1726 51.6274 33.928 51.9828 36.0973L58.7643 35.6334C58.7794 34.5872 57.9751 29.5394 58.8311 24.5533C58.0756 24.4591 57.3147 24.4151 56.5533 24.4215C55.5897 24.431 54.6275 24.4967 53.6715 24.6184C53.0131 24.7302 52.3643 24.8925 51.7308 25.104C51.7308 25.104 51.1935 25.7715 51.2202 28.7301C51.2302 29.3174 51.2569 29.9883 51.3153 30.7575Z" fill="#FA8A3C"/>
<path opacity="0.2" d="M51.3156 30.7584C51.6744 29.9825 52.3168 28.4223 52.15 27.5796L51.2222 28.731C51.2305 29.3184 51.2572 29.9892 51.3156 30.7584Z" fill="black"/>
<path d="M53.0794 27.1718C52.6989 28.3199 50.271 29.4212 50.271 29.4212L48.2686 26.2507C49.2677 25.7568 50.3227 25.3848 51.4107 25.1427C53.1661 24.8056 53.5082 25.8786 53.0794 27.1718Z" fill="#FA8A3C"/>
<path opacity="0.2" d="M56.1613 64.0945L56.6468 65.5313L57.8533 65.1291L57.3677 63.6924L56.1613 64.0945Z" fill="black"/>
<path opacity="0.2" d="M64.2879 59.749L63.1932 60.3948L64.1961 61.5629L65.2908 60.9188L64.2879 59.749Z" fill="black"/>
<path d="M56.5669 20.0526C56.4001 21.3075 56.3717 22.0467 55.6925 22.6725C55.4752 22.879 55.2053 23.022 54.9124 23.086C54.6194 23.1499 54.3146 23.1323 54.0309 23.0351C53.7472 22.9379 53.4956 22.7649 53.3035 22.5347C53.1113 22.3045 52.9859 22.0261 52.9408 21.7296C52.7473 20.5916 53.0476 18.726 54.3142 18.2688C54.5849 18.1603 54.8795 18.1252 55.1681 18.1671C55.4567 18.209 55.7291 18.3264 55.9578 18.5075C56.1864 18.6886 56.3632 18.9268 56.4702 19.1981C56.5771 19.4695 56.6105 19.7642 56.5669 20.0526Z" fill="#FF8B7B"/>
<path d="M54.541 22.5796C54.8747 22.9634 56.0044 22.7999 56.2414 22.603C56.4783 22.4061 58.686 21.1012 58.172 19.9898C57.6581 18.8785 54.7429 18.231 54.3774 19.2039C54.012 20.1767 54.1955 22.1791 54.541 22.5796Z" fill="#263238"/>
<path d="M57.588 19.6611C57.588 19.6611 58.5008 19.7446 58.706 20.5355C58.4224 20.2435 57.9818 19.8197 57.588 19.6611Z" fill="#263238"/>
<path d="M54.9115 19.5199C53.5999 19.4298 50.9867 17.4941 52.9374 16.5163C54.8881 15.5384 54.8414 17.4124 55.6273 17.8896C56.4133 18.3669 56.7954 17.4241 57.7249 17.7878C58.6126 18.1349 59.0148 20.1374 57.5246 19.9471C56.0345 19.7569 54.9115 19.5199 54.9115 19.5199Z" fill="#263238"/>
<path d="M55.095 19.2573C54.1705 19.2573 52.7355 18.5548 52.3383 17.7038C52.2494 17.5327 52.2163 17.338 52.2435 17.1471C52.2707 16.9562 52.357 16.7786 52.4902 16.6392C52.8072 16.2771 53.1126 16.0935 53.4246 16.0802C53.9002 16.0568 54.289 16.4239 54.6661 16.7793C54.9999 17.0997 55.3336 17.4018 55.644 17.3317C55.6494 17.3304 55.6549 17.3303 55.6603 17.3312C55.6658 17.3322 55.671 17.3341 55.6756 17.3371C55.6803 17.34 55.6843 17.3439 55.6875 17.3484C55.6906 17.3529 55.6929 17.358 55.694 17.3634C55.6953 17.3688 55.6954 17.3743 55.6945 17.3797C55.6936 17.3852 55.6916 17.3904 55.6886 17.395C55.6857 17.3997 55.6818 17.4037 55.6773 17.4069C55.6728 17.41 55.6677 17.4123 55.6623 17.4134C55.2986 17.4935 54.9632 17.1765 54.6077 16.8411C54.2523 16.5057 53.8702 16.1402 53.428 16.1619C53.141 16.1769 52.8539 16.3505 52.5519 16.6942C52.4285 16.821 52.3485 16.9837 52.3237 17.1589C52.2988 17.3341 52.3302 17.5126 52.4134 17.6688C52.8056 18.5031 54.2323 19.1956 55.1367 19.1706C55.1478 19.1706 55.1584 19.175 55.1662 19.1828C55.174 19.1906 55.1784 19.2012 55.1784 19.2123C55.1784 19.2231 55.1743 19.2334 55.1668 19.2412C55.1593 19.249 55.1491 19.2536 55.1384 19.254L55.095 19.2573Z" fill="#263238"/>
<path d="M54.8448 20.3701C54.7516 20.6747 54.564 20.9417 54.3091 21.1327C53.9754 21.383 53.7318 21.1444 53.7651 20.7689C53.7952 20.4352 54.0088 19.8979 54.3759 19.7944C54.743 19.691 54.9433 20.0047 54.8448 20.3701Z" fill="#FF8B7B"/>
<path d="M54.3925 35.9297C54.3925 35.9297 56.1212 45.5464 57.019 49.1307C58.0035 53.0571 63.5469 61.6008 63.5469 61.6008L65.5493 60.4194C65.5493 60.4194 61.4427 53.1439 60.8319 49.2392C60.1645 44.9924 58.7678 35.6377 58.7678 35.6377L54.3925 35.9297Z" fill="#263238"/>
<path d="M62.8195 61.0406C62.8112 61.0406 63.4503 61.708 63.4503 61.708L65.7064 60.3731L65.2892 59.6973L62.8195 61.0406Z" fill="#FA8A3C"/>
<path opacity="0.2" d="M55.4053 39.3328C57.074 39.5464 57.0874 45.779 56.9839 48.9912C56.4366 46.7635 55.6039 42.46 55.0332 39.4029C55.1459 39.3386 55.2769 39.314 55.4053 39.3328Z" fill="black"/>
<path d="M51.9878 36.0976C51.9878 36.0976 52.0963 45.6091 52.3499 49.4805C52.6069 53.5054 56.1111 65.3998 56.1111 65.3998L58.1536 64.7173C58.1536 64.7173 56.2463 53.492 56.2229 49.5322C56.1996 45.2087 56.4399 35.8022 56.4399 35.8022L51.9878 36.0976Z" fill="#263238"/>
<path d="M55.4837 64.7067C55.4737 64.7067 55.8492 65.526 55.8492 65.526L58.3322 64.6917L58.3105 63.7021L55.4837 64.7067Z" fill="#FA8A3C"/>
<path d="M39.643 19.6344L39.5172 19.7441L40.1008 20.4131L40.2265 20.3034L39.643 19.6344Z" fill="#FA8A3C"/>
<path d="M40.3953 17.4433L40.2385 17.5005L41.095 19.8471L41.2517 19.7899L40.3953 17.4433Z" fill="#FA8A3C"/>
<path d="M42.218 18.2166L42.1289 19.6689L42.2955 19.6792L42.3846 18.2268L42.218 18.2166Z" fill="#FA8A3C"/>
<path d="M43.8869 18.106L43.0304 19.8438L43.1801 19.9175L44.0366 18.1798L43.8869 18.106Z" fill="#FA8A3C"/>
<path d="M44.3593 19.9418L43.8583 20.1494L43.9222 20.3036L44.4231 20.0959L44.3593 19.9418Z" fill="#FA8A3C"/>
</g>
<defs>
<filter id="filter0_d_314:3245" x="-3.62292" y="0.888672" width="91.4344" height="91.4346" filterUnits="userSpaceOnUse" color-interpolation-filters="sRGB">
<feFlood flood-opacity="0" result="BackgroundImageFix"/>
<feColorMatrix in="SourceAlpha" type="matrix" values="0 0 0 0 0 0 0 0 0 0 0 0 0 0 0 0 0 0 127 0" result="hardAlpha"/>
<feOffset dy="4"/>
<feGaussianBlur stdDeviation="2"/>
<feComposite in2="hardAlpha" operator="out"/>
<feColorMatrix type="matrix" values="0 0 0 0 0 0 0 0 0 0 0 0 0 0 0 0 0 0 0.25 0"/>
<feBlend mode="normal" in2="BackgroundImageFix" result="effect1_dropShadow_314:3245"/>
<feBlend mode="normal" in="SourceGraphic" in2="effect1_dropShadow_314:3245" result="shape"/>
</filter>
</defs>
</svg>
