<svg width="203" height="288" viewBox="0 0 203 288" fill="none" xmlns="http://www.w3.org/2000/svg">
<g filter="url(#filter0_d_543:1083)">
<path fill-rule="evenodd" clip-rule="evenodd" d="M45.7653 23.7003C45.7653 19.9998 48.7651 17 52.4656 17C56.1661 17 59.1659 19.9998 59.1659 23.7003V33.8803H59.166V36.4639C59.166 39.1552 61.3477 41.3369 64.039 41.3369C66.7302 41.3369 68.9119 39.1552 68.9119 36.4639V33.8803H68.9162C69.0411 30.2896 71.9913 27.4171 75.6124 27.4171C79.2336 27.4171 82.1838 30.2896 82.3086 33.8803H180C188.284 33.8803 195 40.596 195 48.8803V261C195 269.285 188.284 276 180 276H23C14.7157 276 8 269.285 8 261V48.8803C8 41.1364 13.8682 34.7631 21.4004 33.9646V29.6428C21.4004 25.9423 24.4002 22.9424 28.1007 22.9424C31.7813 22.9424 34.7687 25.91 34.8008 29.583V32.8724L34.801 32.9265V33.8803H34.8932C35.3664 36.4265 37.5995 38.3545 40.2829 38.3545C42.9662 38.3545 45.1993 36.4265 45.6725 33.8803H45.7653V23.7003Z" fill="white"/>
</g>
<path d="M27.5245 6.46352C27.6741 6.00287 28.3259 6.00287 28.4755 6.46353L29.4593 9.49139C29.5263 9.6974 29.7183 9.83688 29.9349 9.83688H33.1186C33.6029 9.83688 33.8043 10.4567 33.4124 10.7414L30.8368 12.6127C30.6615 12.74 30.5882 12.9657 30.6552 13.1717L31.639 16.1996C31.7886 16.6602 31.2614 17.0433 30.8695 16.7586L28.2939 14.8873C28.1186 14.76 27.8814 14.76 27.7061 14.8873L25.1305 16.7586C24.7386 17.0433 24.2114 16.6602 24.361 16.1996L25.3448 13.1717C25.4118 12.9657 25.3385 12.74 25.1632 12.6127L22.5876 10.7414C22.1957 10.4567 22.3971 9.83688 22.8814 9.83688H26.0651C26.2817 9.83688 26.4737 9.6974 26.5407 9.49139L27.5245 6.46352Z" fill="white"/>
<path d="M51.5245 1.46352C51.6741 1.00287 52.3259 1.00287 52.4755 1.46353L53.4593 4.49139C53.5263 4.6974 53.7183 4.83688 53.9349 4.83688H57.1186C57.6029 4.83688 57.8043 5.45669 57.4124 5.74139L54.8368 7.61271C54.6615 7.74003 54.5882 7.96572 54.6552 8.17173L55.639 11.1996C55.7886 11.6602 55.2614 12.0433 54.8695 11.7586L52.2939 9.88729C52.1186 9.75997 51.8814 9.75997 51.7061 9.88729L49.1305 11.7586C48.7386 12.0433 48.2114 11.6602 48.361 11.1996L49.3448 8.17173C49.4118 7.96572 49.3385 7.74003 49.1632 7.61271L46.5876 5.74139C46.1957 5.45669 46.3971 4.83688 46.8814 4.83688H50.0651C50.2817 4.83688 50.4737 4.6974 50.5407 4.49139L51.5245 1.46352Z" fill="white"/>
<path d="M75.5245 11.4635C75.6741 11.0029 76.3259 11.0029 76.4755 11.4635L77.4593 14.4914C77.5263 14.6974 77.7183 14.8369 77.9349 14.8369H81.1186C81.6029 14.8369 81.8043 15.4567 81.4124 15.7414L78.8368 17.6127C78.6615 17.74 78.5882 17.9657 78.6552 18.1717L79.639 21.1996C79.7886 21.6602 79.2614 22.0433 78.8695 21.7586L76.2939 19.8873C76.1186 19.76 75.8814 19.76 75.7061 19.8873L73.1305 21.7586C72.7386 22.0433 72.2114 21.6602 72.361 21.1996L73.3448 18.1717C73.4118 17.9657 73.3385 17.74 73.1632 17.6127L70.5876 15.7414C70.1957 15.4567 70.3971 14.8369 70.8814 14.8369H74.0651C74.2817 14.8369 74.4737 14.6974 74.5407 14.4914L75.5245 11.4635Z" fill="white"/>
<defs>
<filter id="filter0_d_543:1083" x="0" y="13" width="203" height="275" filterUnits="userSpaceOnUse" color-interpolation-filters="sRGB">
<feFlood flood-opacity="0" result="BackgroundImageFix"/>
<feColorMatrix in="SourceAlpha" type="matrix" values="0 0 0 0 0 0 0 0 0 0 0 0 0 0 0 0 0 0 127 0" result="hardAlpha"/>
<feOffset dy="4"/>
<feGaussianBlur stdDeviation="4"/>
<feComposite in2="hardAlpha" operator="out"/>
<feColorMatrix type="matrix" values="0 0 0 0 0 0 0 0 0 0 0 0 0 0 0 0 0 0 0.25 0"/>
<feBlend mode="normal" in2="BackgroundImageFix" result="effect1_dropShadow_543:1083"/>
<feBlend mode="normal" in="SourceGraphic" in2="effect1_dropShadow_543:1083" result="shape"/>
</filter>
</defs>
</svg>
