<?xml version="1.0" encoding="UTF-8" standalone="no"?>
<svg
   xmlns:dc="http://purl.org/dc/elements/1.1/"
   xmlns:cc="http://creativecommons.org/ns#"
   xmlns:rdf="http://www.w3.org/1999/02/22-rdf-syntax-ns#"
   xmlns:svg="http://www.w3.org/2000/svg"
   xmlns="http://www.w3.org/2000/svg"
   xmlns:sodipodi="http://sodipodi.sourceforge.net/DTD/sodipodi-0.dtd"
   xmlns:inkscape="http://www.inkscape.org/namespaces/inkscape"
   version="1.1"
   id="svg2"
   xml:space="preserve"
   width="1066.6667"
   height="266.66666"
   viewBox="0 0 1066.6667 266.66666"
   sodipodi:docname="Career_4-01.eps"><metadata
     id="metadata8"><rdf:RDF><cc:Work
         rdf:about=""><dc:format>image/svg+xml</dc:format><dc:type
           rdf:resource="http://purl.org/dc/dcmitype/StillImage" /></cc:Work></rdf:RDF></metadata><defs
     id="defs6" /><sodipodi:namedview
     pagecolor="#ffffff"
     bordercolor="#666666"
     borderopacity="1"
     objecttolerance="10"
     gridtolerance="10"
     guidetolerance="10"
     inkscape:pageopacity="0"
     inkscape:pageshadow="2"
     inkscape:window-width="640"
     inkscape:window-height="480"
     id="namedview4" /><g
     id="g10"
     inkscape:groupmode="layer"
     inkscape:label="ink_ext_XXXXXX"
     transform="matrix(1.3333333,0,0,-1.3333333,0,266.66667)"><g
       id="g12"
       transform="scale(0.1)"><path
         d="m 1088.52,1676.21 c -8.68,-2.6 -26.43,-4.96 -29.11,-5.31 -12.01,-1.58 -24.13,-2.31 -36.21,-3.44 -6.2,-0.58 -12.4,-1.25 -18.57,-2.18 -2.41,-0.36 -8.786,-0.62 -12.45,-1.96 11.03,-26.56 10.96,-53.96 5.523,-81.23 29.587,-1.52 59.227,-1.71 88.837,-0.8 -4.78,31.64 -4.77,64.41 1.98,94.92"
         style="fill:#e38cb3;fill-opacity:1;fill-rule:nonzero;stroke:none"
         id="path14" /><path
         d="m 1115.46,1721.64 c -3.03,-22.34 -10.76,-44.37 -21.62,-63.17 -2.81,-4.8 -6.05,-9.5 -9.81,-13.67 -11.17,-12.75 -26.21,-22.04 -42.08,-23.5 -17.23,1.57 -33.41,12.43 -44.692,26.84 -2.715,3.23 -5.113,6.78 -7.203,10.33 -5.219,8.88 -9.61,18.59 -13.16,28.61 9.5,21.72 27.565,39.16 46.885,53.36 21.2,15.67 44.48,28.51 64.32,45.94 2.72,2.51 5.43,5.01 7.62,7.83 -0.62,-6.36 0.84,-13.67 2.09,-17.53 5.53,-18.28 13.26,-36.55 17.65,-55.04"
         style="fill:#ed9bbc;fill-opacity:1;fill-rule:nonzero;stroke:none"
         id="path16" /><path
         d="m 1093.95,1658.47 c -2.82,-4.8 -6.16,-9.5 -9.92,-13.67 -1.67,-21 -0.73,-42.5 2.5,-63.49 -29.54,-0.94 -59.2,-0.74 -88.854,0.83 4.384,22.14 5.324,44.28 -0.418,66 -2.715,3.23 -5.113,6.78 -7.203,10.33 -5.117,8.88 -9.61,18.48 -13.16,28.51 9.5,21.82 27.565,39.15 46.885,53.46 21.3,15.67 44.48,28.51 64.32,45.94 2.82,2.51 5.43,5.01 7.62,7.83 -0.62,-6.36 0.84,-13.67 2.09,-17.53 5.53,-18.28 13.37,-36.55 17.65,-55.04 -3.03,-22.34 -10.65,-44.37 -21.51,-63.17 z m 206.85,-264.18 c -1.88,2.82 -4.07,5.64 -6.37,8.25 -19.31,22.35 -52.62,32.79 -56.7,65.06 -1.98,15.13 4.08,30.07 6.48,45.11 3.96,24.53 -3.45,51.58 -16.4,72.46 -20.88,33.52 -67.66,28.82 -90.53,59.31 -12.94,17.33 -16.18,39.57 -13.26,60.56 3.97,28.61 16.71,61.3 0.63,88.34 -7.52,12.64 -18.07,23.91 -30.18,32.26 -3.13,4.29 -7.31,7.84 -12.01,10.34 -14.3,8.04 -33.2,7.94 -49.18,6.79 -17.65,-1.25 -34.979,-7.31 -49.28,-17.65 -28.613,-20.57 -39.891,-51.99 -39.055,-86.04 0.313,-15.35 2.922,-30.6 7.621,-45.1 1.461,-4.81 3.762,-9.82 6.161,-14.84 -6.266,-14.09 -24.223,-21.5 -40.93,-24.01 -17.652,-2.61 -36.336,-2.09 -52.524,-9.29 -23.91,-10.76 -36.339,-39.57 -26.937,-62.65 8.457,-20.78 31.742,-36.86 31.012,-59 -0.524,-16.29 -14.41,-29.55 -29.45,-37.9 -27.043,-15.14 -61.605,-19.95 -84.683,-40.83 -24.535,-22.24 -37.586,-57.32 -37.695,-88.55 -0.102,-48.14 29.238,-91.05 71.425,-117.78 117.575,-74.24 296.545,-48.97 419.655,-0.73 44.79,17.54 91.47,44.17 104.32,87.61 6.78,22.97 1.56,48.24 -12.12,68.28"
         style="fill:#261721;fill-opacity:1;fill-rule:nonzero;stroke:none"
         id="path18" /><path
         d="m 991.254,65.2617 c -0.524,-1.7617 -1.465,-3.1211 -2.715,-4.0703 -1.043,-0.6211 -2.301,-1.043 -3.758,-1.1406 -17.547,-0.5313 -35.09,0.0976 -52.629,0.5195 -13.05,0.211 -10.336,14.9297 -7.207,23.3906 2.301,6.0508 4.387,12.0079 6.371,18.0591 0,0.109 0.106,0.312 0.106,0.421 5.43,16.18 10.125,32.579 12.949,49.387 1.149,6.891 1.981,13.684 2.504,20.57 1.254,15.762 1.355,31.543 1.461,47.403 l 39.262,-3.02 c -0.836,-15.453 -1.043,-30.91 -0.938,-46.359 0.102,-23.391 1.043,-46.57 2.61,-69.762 0.628,-9.3905 1.355,-18.7889 2.191,-28.3006 0.211,-2.3985 0.418,-4.7891 -0.207,-7.0977"
         style="fill:#f086a5;fill-opacity:1;fill-rule:nonzero;stroke:none"
         id="path20" /><path
         d="m 991.254,65.2617 c -0.524,-1.7617 -1.465,-3.1211 -2.715,-4.0703 -1.043,-0.6211 -2.301,-1.043 -3.758,-1.1406 -17.547,-0.5313 -35.09,0.0976 -52.629,0.5195 -13.05,0.211 -10.336,14.9297 -7.207,23.3906 2.301,6.0508 4.387,12.0079 6.371,18.0591 2.61,-1.149 5.954,-4.0708 7.832,-5.0083 7.313,-3.6523 15.661,-5.5429 23.915,-5.2226 9.289,0.3125 18.582,3.5507 26.207,8.8709 0.628,-9.3905 1.355,-18.7889 2.191,-28.3006 0.211,-2.3985 0.418,-4.7891 -0.207,-7.0977"
         style="fill:#2f1b14;fill-opacity:1;fill-rule:nonzero;stroke:none"
         id="path22" /><path
         d="m 1088.97,65.2617 c 0.53,-1.7617 1.47,-3.1211 2.72,-4.0703 1.04,-0.6211 2.3,-1.043 3.76,-1.1406 17.54,-0.5313 35.08,0.0976 52.63,0.5195 13.05,0.211 10.33,14.9297 7.2,23.3906 -2.3,6.0508 -4.39,12.0079 -6.37,18.0591 0,0.109 -0.1,0.312 -0.1,0.421 -5.43,16.18 -10.13,32.579 -12.95,49.387 -1.15,6.891 -1.98,13.684 -2.51,20.57 -1.25,15.762 -1.35,31.543 -1.46,47.403 l -39.26,-3.02 c 0.84,-15.453 1.04,-30.91 0.94,-46.359 -0.1,-23.391 -1.05,-46.57 -2.61,-69.762 -0.63,-9.3905 -1.36,-18.7889 -2.2,-28.3006 -0.21,-2.3985 -0.41,-4.7891 0.21,-7.0977"
         style="fill:#f086a5;fill-opacity:1;fill-rule:nonzero;stroke:none"
         id="path24" /><path
         d="m 1088.97,65.2617 c 0.53,-1.7617 1.47,-3.1211 2.72,-4.0703 1.04,-0.6211 2.3,-1.043 3.76,-1.1406 17.54,-0.5313 35.08,0.0976 52.63,0.5195 13.05,0.211 10.33,14.9297 7.2,23.3906 -2.3,6.0508 -4.39,12.0079 -6.37,18.0591 -2.61,-1.149 -5.95,-4.0708 -7.83,-5.0083 -7.31,-3.6523 -15.67,-5.5429 -23.91,-5.2226 -9.29,0.3125 -18.59,3.5507 -26.21,8.8709 -0.63,-9.3905 -1.36,-18.7889 -2.2,-28.3006 -0.21,-2.3985 -0.41,-4.7891 0.21,-7.0977"
         style="fill:#2f1b14;fill-opacity:1;fill-rule:nonzero;stroke:none"
         id="path26" /><path
         d="m 1140.01,1167.23 c -4.41,8.75 -8.2,8.77 -17.46,5.18 -3.63,-1.4 -7.54,-1.93 -11.4,-2.41 -24.02,-2.93 -48.24,-4.22 -72.47,-4.06 -24.22,-0.16 -48.446,1.13 -72.465,4.06 -3.863,0.48 -7.762,1.01 -11.406,2.41 -9.258,3.59 -13.039,3.57 -17.461,-5.18 -45.446,-90.05 -72.121,-192.199 -67.977,-293.32 2.508,-61.18 13.527,-121.539 23.426,-181.832 4.887,-29.777 9.414,-59.629 12.305,-89.68 4.937,-51.238 -4.414,-102.308 -5.235,-153.519 -0.73,-45.758 3.293,-92.449 9.238,-138.199 4.426,-34.02 9.661,-67.969 14.473,-101.942 0.91,-6.398 1.402,-14.636 3.942,-21.019 h 72.085 c 1.495,52.23 3.415,104.453 5.475,156.652 -0.69,57.66 0.36,115.391 7.85,171.668 0.33,2.449 0.26,5.02 0.39,7.5 0.13,2.543 0.26,5.102 0.4,7.652 0.27,5.098 0.54,10.2 0.81,15.297 0.54,10.211 1.1,20.403 1.67,30.614 0.56,10.187 1.14,20.398 1.72,30.597 0.59,10.199 1.19,20.403 1.79,30.602 0.61,10.199 1.23,20.39 1.85,30.597 0.63,10.192 1.27,20.391 1.92,30.582 0.65,10.2 1.31,20.391 1.98,30.59 0.67,10.192 1.36,20.391 2.05,30.578 0.69,10.192 1.4,20.391 2.11,30.582 0.72,10.192 1.44,20.379 2.19,30.571 0.73,10.187 1.49,20.379 2.25,30.57 0.76,10.188 1.53,20.367 2.32,30.559 0.34,4.429 0.69,8.871 1.03,13.289 0.17,2.203 0.34,4.39 0.51,6.57 0.09,1.133 0.18,2.25 0.27,3.359 0.05,0.602 -0.13,1.321 0.1,1.883 0.55,1.348 0.78,-0.551 0.82,-1.082 0.2,-2.551 0.4,-5.09 0.6,-7.64 0.4,-5.09 0.8,-10.188 1.19,-15.289 0.79,-10.18 1.56,-20.372 2.33,-30.551 0.76,-10.199 1.51,-20.379 2.25,-30.578 0.74,-10.18 1.47,-20.379 2.19,-30.582 0.71,-10.18 1.42,-20.379 2.11,-30.571 0.69,-10.199 1.38,-20.386 2.05,-30.59 0.67,-10.187 1.33,-20.386 1.98,-30.578 0.65,-10.199 1.29,-20.39 1.92,-30.601 0.63,-10.188 1.25,-20.391 1.86,-30.598 0.6,-10.191 1.2,-20.402 1.79,-30.59 0.59,-10.211 1.16,-20.402 1.73,-30.609 0.56,-10.203 1.12,-20.402 1.67,-30.602 0.54,-10.211 1.08,-20.41 1.6,-30.621 0.02,-0.301 0.03,-0.597 0.05,-0.91 7.49,-56.277 8.54,-114.008 7.85,-171.668 2.07,-52.199 3.98,-104.422 5.48,-156.652 h 72.08 c 2.54,6.383 3.04,14.621 3.94,21.019 4.82,33.973 10.05,67.922 14.48,101.942 5.94,45.75 9.97,92.441 9.24,138.199 -0.83,51.211 -10.18,102.281 -5.24,153.519 2.89,30.051 7.42,59.903 12.31,89.68 9.89,60.293 20.91,120.652 23.42,181.832 4.15,101.121 -22.53,203.27 -67.98,293.32"
         style="fill:#14202f;fill-opacity:1;fill-rule:nonzero;stroke:none"
         id="path28" /><path
         d="m 1555.76,1099.77 c -1.36,-0.63 -2.93,0 -4.39,0.62 -8.45,3.77 -16.6,8.67 -25.06,12.64 -8.14,3.86 -15.45,6.79 -24.43,5.12 -5.75,-0.94 -11.07,-2.92 -16.81,-3.66 -9.09,-1.25 -17.76,1.47 -25.9,4.91 -9.08,3.87 -18.37,8.04 -26.94,13.16 -5.01,3.03 -9.92,6.37 -14.62,9.82 -3.96,2.82 -7.93,5.84 -11.9,8.66 -49.18,35.09 -107.86,57.32 -150.68,100.14 -13.78,13.68 -25.47,28.92 -35.81,45.31 -14.72,23.08 -26.73,48.04 -38.43,72.68 -14.62,30.91 -29.03,62.03 -40.51,94.29 -3.66,10.44 -7.21,21.3 -7.1,32.37 0.1,9.81 3.55,20.05 10.75,26.73 0.94,0.73 1.88,1.57 2.82,2.2 21.41,15.03 44.49,-10.45 55.66,-26.01 15.87,-22.55 25.27,-48.76 34.46,-74.55 10.43,-30.18 20.98,-60.04 31.64,-90.22 1.25,-3.55 2.6,-7.31 3.86,-10.86 3.03,-8.67 6.16,-17.54 12.63,-24.12 5.75,-5.95 13.57,-9.29 20.88,-13.05 45.74,-23.49 77.69,-66.2 115.91,-100.24 4.8,-4.39 9.92,-8.67 15.25,-12.33 7.31,-5 15.14,-9.08 23.7,-11.06 11.38,-2.71 23.39,-1.36 34.77,-3.76 26.1,-5.64 44.07,-28.51 59.83,-50.02 1.98,-2.71 3.55,-7.41 0.42,-8.77"
         style="fill:#ed9bbc;fill-opacity:1;fill-rule:nonzero;stroke:none"
         id="path30" /><path
         d="m 1178.07,1488.07 c -4.88,13.77 -12.57,27.4 -13.25,42.2 -0.07,0.5 -0.18,0.98 -0.25,1.48 -13.46,6.92 -28.03,11.66 -40.9,19.62 -8.62,5.34 -16.55,12.45 -21.53,21.37 -5.65,10.12 -5.4,21.49 -4.35,32.73 0.86,8.78 -8.52,11.15 -18.88,11.35 -9.6,0.22 -20.28,-1.54 -24.06,-1.64 -2.56,-0.06 -5.1,0 -7.66,0.05 -1.12,-0.02 -2.24,0 -3.37,-0.01 -1.12,0.01 -2.24,-0.01 -3.37,-0.01 -2.55,-0.03 -5.1,-0.09 -7.65,-0.03 -3.78,0.1 -14.46,1.86 -24.06,1.64 -10.361,-0.2 -19.748,-2.57 -18.888,-11.35 0.945,-10.06 1.515,-22.01 -3.207,-31.24 -4.711,-9.21 -13.368,-16.75 -21.793,-22.48 -6.204,-4.21 -12.856,-7.71 -19.614,-10.95 -1.898,-0.91 -15.468,-5.85 -18.675,-8.11 -0.625,-0.44 -0.59,-6.98 -0.766,-8.06 -0.5,-3.11 -1.238,-6.19 -2.113,-9.22 -3.332,-11.47 -8.942,-22.31 -12.629,-33.79 -3.907,-12.17 -6.735,-24.7 -8.071,-37.42 -1.464,-13.88 -1.132,-28.19 1.407,-42.04 24.703,-34.42 43.285,-70.18 44.957,-114.73 1.925,-51.32 -6.395,-100.48 -19.559,-149.21 1.473,-0.35 2.926,-0.76 4.395,-1.09 35.601,-7.82 72.836,-11.06 109.636,-9.74 36.8,-1.32 74.04,1.92 109.64,9.74 5.75,1.28 11.46,2.78 17.15,4.31 -18.26,40.68 -30.35,83.56 -32.83,128.81 -1.26,22.93 -0.49,48.54 8.87,69.96 11.4,26.11 32.65,46.5 38.8,75.51 0.32,1.49 0.81,2.78 1.3,4.08 0.23,2.32 0.61,4.59 0.7,6.95 0.77,20.73 -2.46,41.76 -9.38,61.32"
         style="fill:#41b2b5;fill-opacity:1;fill-rule:nonzero;stroke:none"
         id="path32" /><path
         d="m 955.215,1474.28 c -2.402,-34.25 -8.043,-67.98 -13.887,-101.71 -4.805,-26.93 -9.711,-54.19 -17.754,-80.3 -5.64,-18.48 -12.844,-36.43 -22.445,-53.25 -29.863,-52.63 -80.508,-89.7 -118.625,-136.57 -6.68,-8.25 -13.051,-16.92 -20.359,-24.65 -0.102,-0.1 -0.102,-0.1 -0.207,-0.21 -6.895,-7.31 -14.829,-13.67 -22.559,-19.84 -6.891,-5.53 -14.512,-10.44 -23.598,-11.59 -5.742,-0.83 -11.383,-0.41 -17.125,-1.04 -9.187,-0.73 -15.453,-5.53 -22.238,-11.38 -7.102,-6.06 -13.574,-12.95 -20.887,-18.9 -1.144,-0.95 -2.504,-1.98 -3.965,-1.67 -3.445,0.42 -3.132,5.43 -1.988,8.56 9.504,24.85 20.781,51.69 44.383,64.01 10.336,5.43 22.344,7.31 32.473,12.95 4.281,2.29 8.144,5.11 11.695,8.35 7.726,6.89 13.988,15.66 19.73,24.54 27.676,43.02 47.2,92.72 85,127.39 6.059,5.64 12.633,10.96 16.606,18.27 4.488,8.04 5.219,17.44 5.848,26.53 0.207,3.86 0.625,7.83 0.835,11.58 2.192,31.85 4.383,63.49 6.579,95.34 1.878,27.25 3.961,55.13 13.257,81.02 6.579,17.97 22.137,48.67 46.782,39.89 1.043,-0.41 2.191,-0.83 3.234,-1.36 8.668,-4.48 14.723,-13.46 17.438,-22.97 3.132,-10.65 2.613,-22.03 1.777,-32.99"
         style="fill:#ed9bbc;fill-opacity:1;fill-rule:nonzero;stroke:none"
         id="path34" /><path
         d="m 1031.67,1119.75 c -0.94,30.49 -0.94,61.09 -1.04,91.58 -0.31,45.53 -0.31,91.05 0.1,136.58 0,6.37 0.11,12.84 0.21,19.21 0,2.19 0.11,4.28 0.11,6.47 -7.83,60.88 -20.05,120.29 -43.546,177.83 0,0.1 0,0.21 -0.102,0.31 -2.336,4.66 -4.519,9.33 -6.656,14 -1.316,0.06 -2.617,0.17 -3.891,0.46 -0.894,-0.9 -1.738,-1.84 -2.714,-2.66 -3.028,-2.71 -6.266,-5.12 -9.399,-7.31 -6.156,-4.28 -12.844,-7.72 -19.629,-10.96 -1.613,-0.81 -11.75,-4.51 -16.679,-7 -12.004,-3.22 -24.918,-8.21 -33.219,-17.48 -1.91,-2.14 -3.539,-4.5 -5.082,-6.91 -13.215,-20.65 -19.965,-44.79 -24.125,-68.95 -4.16,-24.16 -5.906,-48.69 -10.063,-72.85 14.461,-7.86 29.625,-14.75 45.055,-20.48 5.66,-2.1 11.398,-4.07 17.305,-5.33 3.175,-0.69 6.386,-1.13 9.609,-1.46 3.234,-8.73 5.852,-17.6 7.07,-26.34 3.028,-21.93 -2.195,-44.79 -7.308,-65.89 -5.852,-23.7 -11.071,-47.3 -18.379,-70.69 -14.723,-47.3 -32.688,-93.56 -45.109,-141.49 -1.672,-6.26 6.89,-11.27 20.777,-15.24 40.098,-11.49 124.465,-14.2 138.875,-11.38 2.3,0.41 4.7,1.04 6.37,2.71 1.99,1.99 2.4,5.01 2.72,7.84 3.13,31.74 -0.32,63.69 -1.26,95.43"
         style="fill:#edefed;fill-opacity:1;fill-rule:nonzero;stroke:none"
         id="path36" /><path
         d="m 987.504,1551.42 c 0,0.1 0,0.21 -0.102,0.31 -2.336,4.66 -4.519,9.33 -6.656,14 -1.316,0.06 -2.617,0.17 -3.891,0.46 -0.894,-0.9 -1.738,-1.84 -2.714,-2.66 0.414,-25.48 -1.778,-50.96 -6.371,-76.01 4.179,-0.74 8.773,-1.26 12.949,-1.26 2.504,0 5.011,0.31 7.519,0.31 2.606,0.11 5.219,-0.2 7.723,-0.73 -5.43,-9.81 -12.316,-19.73 -20.254,-27.66 11.59,-12.85 20.254,-26.53 29.033,-41.46 5.43,-9.19 10.33,-18.69 15.24,-28.2 3.65,-7.09 7.31,-14.3 10.96,-21.4 0,2.19 0.11,4.28 0.11,6.47 -7.83,60.88 -20.05,120.29 -43.546,177.83"
         style="fill:#ffffff;fill-opacity:1;fill-rule:nonzero;stroke:none"
         id="path38" /><path
         d="m 1221.5,1474.91 c -6.55,12.95 -12.96,26.38 -21,38.44 -1.24,1.45 -3.63,4.06 -6.11,6 -0.01,0.09 -0.01,0.18 -0.02,0.26 -0.37,0.19 -0.73,0.39 -1.09,0.57 -0.57,0.39 -1.09,0.61 -1.64,0.86 -6.88,3.45 -13.72,7 -20.52,10.68 -8.32,4.51 -17.27,9.17 -25.82,14.27 -0.18,0.08 -0.42,0.18 -0.52,0.23 -6.79,3.24 -13.47,6.69 -19.63,10.97 -3.13,2.19 -6.37,4.59 -9.4,7.31 -0.62,0.52 -1.15,1.13 -1.73,1.69 -1.76,-0.66 -3.69,-1.1 -5.76,-1.35 -1.88,-4.05 -3.75,-8.1 -5.77,-12.14 -0.11,-0.11 -0.11,-0.22 -0.11,-0.32 -23.49,-57.53 -35.71,-116.95 -43.54,-177.82 0,-2.19 0.11,-4.28 0.11,-6.47 0.1,-6.38 0.21,-12.85 0.21,-19.22 0.41,-45.53 0.41,-91.05 0.1,-136.57 -0.1,-30.5 -0.1,-61.09 -1.05,-91.58 -0.93,-31.74 -4.38,-63.7 -1.25,-95.44 0.32,-2.82 0.73,-5.85 2.72,-7.83 1.67,-1.67 4.07,-2.3 6.36,-2.72 14.41,-2.82 98.78,-0.1 138.88,11.38 13.89,3.97 22.45,8.99 20.78,15.25 -12.42,47.93 -30.38,94.19 -45.11,141.49 -7.31,23.38 -12.53,46.99 -18.37,70.69 -5.56,22.5 -10.26,46.1 -7.43,69.35 1.5,12.28 6.36,23.52 11.55,34.64 29.03,-0.36 58.13,4.97 85.17,15.77 4.87,1.95 8.46,4.76 13.75,5.54 0.4,0.22 0.78,0.47 1.19,0.67 -14.28,32.11 -29.09,64.04 -44.95,95.4"
         style="fill:#edefed;fill-opacity:1;fill-rule:nonzero;stroke:none"
         id="path40" /><path
         d="m 1109.17,1487.23 c 4.18,0 8.78,0.52 12.95,1.25 -4.59,25.06 -6.78,50.54 -6.36,76.02 -0.63,0.52 -1.15,1.14 -1.74,1.69 -1.76,-0.66 -3.68,-1.1 -5.76,-1.35 -1.87,-4.05 -3.74,-8.1 -5.76,-12.14 -0.11,-0.11 -0.11,-0.22 -0.11,-0.32 -23.49,-57.53 -35.71,-116.95 -43.54,-177.82 0,-2.19 0.1,-4.28 0.1,-6.47 3.66,7.1 7.31,14.3 10.97,21.4 4.9,9.5 9.81,19.01 15.24,28.2 8.77,14.93 17.44,28.6 29.03,41.45 -7.94,7.93 -14.83,17.85 -20.26,27.67 2.51,0.52 5.12,0.83 7.73,0.73 2.5,0 5.01,-0.31 7.51,-0.31"
         style="fill:#ffffff;fill-opacity:1;fill-rule:nonzero;stroke:none"
         id="path42" /><path
         d="m 972.129,1459.45 c 0.105,-0.1 0.211,-0.21 0.312,-0.31 -0.101,-0.11 -0.312,-0.32 -0.414,-0.42 0,0.21 0,0.52 0.102,0.73"
         style="fill:#ffffff;fill-opacity:1;fill-rule:nonzero;stroke:none"
         id="path44" /><path
         d="m 1005.1,1064.77 c -0.21,3.68 -0.39,7.36 -0.55,11.04 -0.55,12.63 -0.76,25.28 -0.66,37.93 0.05,5.58 0.01,11.21 0.19,16.78 0.1,3.12 1.33,8 -0.49,10.74 -0.87,1.3 -9.113,-1.29 -10.738,-1.46 -4.293,-0.47 -8.614,-0.58 -12.926,-0.45 -8.461,0.24 -16.879,1.39 -25.27,2.6 -6.543,0.94 -13.093,1.96 -19.539,3.58 -4.988,1.26 -9.695,4.3 -14.801,5.02 -2.738,0.39 -2.843,0.17 -3.718,-2.59 -0.836,-2.65 -1.25,-5.59 -1.918,-8.31 -2.707,-11.01 -5.895,-21.86 -8.641,-32.85 -2.363,-9.46 -4.734,-18.92 -7.023,-28.41 -1.821,-7.5 -5.676,-16.53 -2.946,-24.21 5.879,-16.55 23.719,-16.52 36.914,-18.32 15.176,-2.07 30.301,-2.54 45.563,-2.7 6.93,-0.06 14.422,-0.8 21.058,1.98 6.455,2.72 7.045,7.94 6.495,14.9 -0.38,4.91 -0.71,9.82 -1,14.73"
         style="fill:#ffffff;fill-opacity:1;fill-rule:nonzero;stroke:none"
         id="path46" /><path
         d="m 1081.19,1064.33 c 0.22,3.68 0.4,7.37 0.56,11.05 0.55,12.63 0.77,25.28 0.66,37.92 -0.04,5.59 0,11.21 -0.18,16.78 -0.11,3.13 -1.35,8.01 0.49,10.74 0.87,1.31 9.18,-1.28 10.82,-1.46 4.33,-0.47 8.68,-0.57 13.03,-0.45 8.52,0.25 17.01,1.39 25.46,2.61 6.6,0.94 13.2,1.95 19.7,3.57 5.02,1.26 9.77,4.3 14.92,5.03 2.75,0.38 2.86,0.17 3.74,-2.59 0.85,-2.65 1.26,-5.6 1.93,-8.32 2.73,-11.01 5.95,-21.85 8.71,-32.84 2.38,-9.47 4.77,-18.93 7.09,-28.41 1.83,-7.51 5.71,-16.54 2.96,-24.21 -5.93,-16.55 -23.9,-16.53 -37.2,-18.32 -15.3,-2.07 -30.55,-2.55 -45.92,-2.7 -6.99,-0.07 -14.54,-0.81 -21.23,1.98 -6.5,2.71 -7.09,7.93 -6.54,14.9 0.38,4.9 0.72,9.81 1,14.72"
         style="fill:#ffffff;fill-opacity:1;fill-rule:nonzero;stroke:none"
         id="path48" /><path
         d="m 1074.13,1366.54 c 0,-3 -2.44,-5.44 -5.44,-5.44 -3,0 -5.44,2.44 -5.44,5.44 0,3 2.44,5.43 5.44,5.43 3,0 5.44,-2.43 5.44,-5.43"
         style="fill:#ffffff;fill-opacity:1;fill-rule:nonzero;stroke:none"
         id="path50" /><path
         d="m 1074.13,1201.23 c 0,-3 -2.44,-5.43 -5.44,-5.43 -3,0 -5.44,2.43 -5.44,5.43 0,3.01 2.44,5.44 5.44,5.44 3,0 5.44,-2.43 5.44,-5.44"
         style="fill:#ffffff;fill-opacity:1;fill-rule:nonzero;stroke:none"
         id="path52" /><path
         d="m 1074.13,1111.61 c 0,-3 -2.44,-5.44 -5.44,-5.44 -3,0 -5.44,2.44 -5.44,5.44 0,3 2.44,5.44 5.44,5.44 3,0 5.44,-2.44 5.44,-5.44"
         style="fill:#ffffff;fill-opacity:1;fill-rule:nonzero;stroke:none"
         id="path54" /><path
         d="m 1074.13,1282 c 0,-3.01 -2.44,-5.44 -5.44,-5.44 -3,0 -5.44,2.43 -5.44,5.44 0,3 2.44,5.44 5.44,5.44 3,0 5.44,-2.44 5.44,-5.44"
         style="fill:#ffffff;fill-opacity:1;fill-rule:nonzero;stroke:none"
         id="path56" /><path
         d="m 1152.89,1435.33 h -63.73 c -2.87,0 -5.21,2.35 -5.21,5.21 v 0.46 c 0,2.86 2.34,5.21 5.21,5.21 h 63.73 c 2.87,0 5.21,-2.35 5.21,-5.21 v -0.46 c 0,-2.86 -2.34,-5.21 -5.21,-5.21"
         style="fill:#ffffff;fill-opacity:1;fill-rule:nonzero;stroke:none"
         id="path58" /><path
         d="m 2509.3,1420.66 c -2.18,-31.14 -7.31,-61.81 -12.63,-92.48 -4.37,-24.49 -8.83,-49.27 -16.14,-73 -5.12,-16.81 -11.68,-33.14 -20.41,-48.43 -27.16,-47.85 -73.2,-81.55 -107.85,-124.19 -6.08,-7.5 -11.87,-15.38 -18.52,-22.4 -0.1,-0.1 -0.1,-0.1 -0.19,-0.19 -6.27,-6.65 -13.48,-12.44 -20.51,-18.04 -6.26,-5.03 -13.2,-9.49 -21.45,-10.54 -5.23,-0.76 -10.36,-0.38 -15.57,-0.95 -8.36,-0.67 -14.06,-5.03 -20.23,-10.35 -6.45,-5.5 -12.34,-11.77 -18.99,-17.18 -1.04,-0.86 -2.28,-1.8 -3.61,-1.52 -3.13,0.38 -2.84,4.94 -1.8,7.79 8.64,22.59 18.89,46.99 40.35,58.2 9.4,4.93 20.32,6.64 29.53,11.77 3.89,2.08 7.41,4.65 10.63,7.59 7.03,6.27 12.72,14.24 17.95,22.32 25.15,39.12 42.91,84.3 77.28,115.83 5.51,5.13 11.49,9.97 15.1,16.61 4.08,7.31 4.74,15.86 5.31,24.11 0.19,3.52 0.57,7.13 0.77,10.55 1.99,28.95 3.98,57.72 5.98,86.68 1.71,24.78 3.6,50.13 12.05,73.68 5.98,16.33 20.13,44.24 42.54,36.26 0.95,-0.38 1.99,-0.75 2.94,-1.23 7.88,-4.09 13.39,-12.25 15.86,-20.89 2.85,-9.68 2.37,-20.03 1.61,-30"
         style="fill:#ed9bbc;fill-opacity:1;fill-rule:nonzero;stroke:none"
         id="path60" /><path
         d="m 2525.91,1323.99 c 7.38,35.05 11.32,71.87 5.82,107.48 -2.31,14.93 -4.74,33.93 -18.81,42.49 -12.5,7.61 -28.76,4.51 -41.12,-1.73 -17.78,-8.98 -26.48,-22.82 -32.07,-41.55 -6.47,-21.69 -7.68,-45 -9.1,-67.46 -1.35,-21.63 -3.22,-43.24 -5.96,-64.74 -2.38,-18.64 -3.18,-41.04 -13.33,-57.38 -13.86,-22.32 -31.56,-42.33 -47.14,-63.47 -10.86,-14.74 -21.49,-29.66 -31.88,-44.74 -2.37,-3.45 -26.22,-33.61 -23.42,-37.05 13.05,-16.55 24.49,-34.34 34.34,-52.96 35.8,48.69 83.08,90.26 119.09,139.39 30.8,42.01 52.85,90.67 63.58,141.72"
         style="fill:#e1e3e1;fill-opacity:1;fill-rule:nonzero;stroke:none"
         id="path62" /><path
         d="m 2651.43,1112.29 c -3.8,7.4 -6.93,7.4 -14.81,4.37 -3.04,-1.24 -6.36,-1.62 -9.59,-2.09 -17.28,-2.09 -34.75,-3.13 -52.12,-3.32 -17.47,0.19 -34.94,1.23 -52.22,3.32 -3.23,0.47 -6.56,0.85 -9.59,2.09 -7.89,3.03 -11.02,3.03 -14.81,-4.37 -38.36,-76.15 -60.96,-162.54 -57.45,-247.989 2.09,-51.653 11.49,-102.742 19.85,-153.711 4.08,-25.168 7.88,-50.418 10.35,-75.781 4.17,-43.289 -3.71,-86.489 -4.37,-129.778 -0.66,-38.64 2.75,-78.14 7.78,-116.781 5.7,-43.77 11.68,-87.539 19.85,-130.93 6.74,-35.879 18.7,-74.058 12.62,-110.609 -2.65,-15.852 -7.12,-31.332 -12.24,-46.609 0,-0.102 -0.1,-0.2934 -0.1,-0.3832 -0.19,-0.668 -0.47,-1.4297 -0.76,-2.0899 -1.61,-5.0273 -3.41,-9.9687 -5.22,-15 -3.04,-7.9805 -5.6,-21.9375 6.74,-22.1289 16.62,-0.3711 33.14,-0.9492 49.75,-0.4687 1.43,0.0976 2.57,0.4687 3.51,1.039 1.24,0.9492 2.09,2.1797 2.66,3.8906 0.58,2.1875 0.39,4.461 0.19,6.75 -0.76,7.9688 -1.42,16.0391 -1.89,23.918 -0.1,0.9531 -0.1,1.8008 -0.19,2.7617 -2.09,30.6604 -2.57,61.0394 -1.33,91.8084 1.13,25.25 2.18,50.602 3.22,75.852 2.09,50.23 2.28,100.371 4.28,150.679 -0.57,48.711 0.28,97.508 6.64,145.079 3.57,69.203 7.8,138.39 12.57,207.5 0.1,0.031 0.2,0.05 0.3,0.082 4.69,-69.141 8.91,-138.352 12.48,-207.582 6.36,-47.571 7.22,-96.368 6.65,-145.079 1.99,-50.308 2.18,-100.449 4.27,-150.679 1.05,-25.25 2.18,-50.602 3.23,-75.852 1.23,-30.769 0.76,-61.148 -1.33,-91.8084 0,-0.6718 -0.1,-1.332 -0.19,-2 -0.48,-8.1718 -1.14,-16.4218 -1.9,-24.6797 -0.19,-2.289 -0.38,-4.5625 0.28,-6.75 0.48,-1.7109 1.33,-2.9414 2.57,-3.8906 0.95,-0.5703 2.09,-0.9414 3.51,-1.039 16.62,-0.4805 33.14,0.0976 49.75,0.4687 12.34,0.1914 9.78,14.1484 6.74,22.1289 -1.71,4.6524 -3.32,9.2109 -4.93,13.9531 -0.38,1.0469 -0.67,2.0899 -1.05,3.1368 0,0.0898 -0.09,0.2812 -0.09,0.3832 -5.13,15.277 -9.59,30.757 -12.25,46.609 -6.08,36.551 5.89,74.73 12.62,110.609 8.17,43.391 14.16,87.16 19.85,130.93 5.03,38.641 8.45,78.141 7.88,116.781 -0.76,43.289 -8.64,86.489 -4.46,129.778 2.47,25.363 6.27,50.613 10.35,75.781 8.45,50.969 17.75,102.058 19.84,153.711 3.51,85.449 -19.09,171.839 -57.44,247.989"
         style="fill:#ed9bbc;fill-opacity:1;fill-rule:nonzero;stroke:none"
         id="path64" /><path
         d="m 2654.37,60.5 c -16.61,-0.3711 -33.13,-0.9492 -49.75,-0.4687 -1.42,0.0976 -2.56,0.4687 -3.51,1.039 -1.24,0.9492 -2.09,2.1797 -2.57,3.8906 -0.66,2.1875 -0.47,4.461 -0.28,6.75 0.76,8.2579 1.43,16.5079 1.9,24.6797 4.94,-1.9023 9.11,-5.8789 14.53,-7.5 5.6,-1.8008 11.49,-2.4609 17.28,-2 8.73,0.7696 17.28,4.1797 24.21,9.6914 1.61,-4.7422 3.22,-9.3007 4.93,-13.9531 3.04,-7.9805 5.6,-21.9375 -6.74,-22.1289"
         style="fill:#2f1b14;fill-opacity:1;fill-rule:nonzero;stroke:none"
         id="path66" /><path
         d="m 2551.26,64.9609 c -0.57,-1.7109 -1.42,-2.9414 -2.66,-3.8906 -0.94,-0.5703 -2.08,-0.9414 -3.51,-1.039 -16.61,-0.4805 -33.13,0.0976 -49.75,0.4687 -12.34,0.1914 -9.78,14.1484 -6.74,22.1289 1.81,5.0313 3.61,9.9727 5.22,15 0.95,-0.3789 1.8,-0.9492 2.76,-1.4297 9.68,-5.1289 20.89,-8.2578 31.99,-7.6797 1.52,0.0821 3.04,0.1797 4.47,0.3711 6.26,0.9492 11.29,3.1289 16.33,6.6485 0.09,0 0.09,0.0898 0.19,0.0898 0.47,-7.8789 1.13,-15.9492 1.89,-23.918 0.2,-2.289 0.39,-4.5625 -0.19,-6.75"
         style="fill:#2f1b14;fill-opacity:1;fill-rule:nonzero;stroke:none"
         id="path68" /><path
         d="m 2659.5,1349.01 c 7.3,45.9 18.6,90.9 33.5,134.7 2.4,7.09 5,14 7.6,21 -19.9,11.7 -41.3,21.4 -59.3,35.5 -6.4,5.1 -13.7,11.7 -18.7,19.4 -0.3,0.4 -0.7,0.7 -0.9,1.1 -1,1.4 -1.9,2.9 -2.7,4.4 -0.6,1.2 -1.1,2.3 -1.5,3.4 -2.6,5.6 -4,11.6 -4.7,17.9 -1.6,13.9 0.4,28.8 2.4,42.4 14.1,3.8 26.9,11.6 34.9,23.8 -5.3,14.3 -16.5,26.3 -30.2,32.8 -5.5,2.6 -11.4,3.8 -17.3,5.1 -2.8,0.7 -5.6,1.4 -8.3,2.3 -9.2,2.99 -18,7.1 -26.2,12.1 -11,6.8 -20.8,15.2 -29.3,24.8 -5.8,-15.3 -9,-31.41 -11.9,-47.6 -0.3,-1.9 -0.7,-3.9 -1,-5.8 -3.9,-22.3 -7.8,-44.5 -11.7,-66.8 -0.1,-0.3 -0.1,-0.6 -0.2,-0.9 2.3,-3.7 5.2,-6.8 8.8,-8.8 5.4,-3.1 12.1,-3.9 19,-3.6 -0.3,-2.3 -0.6,-4.4 -0.8,-6.1 0,-6.4 -0.8,-12.3 -2.1,-17.8 -0.7,-4.1 -1.6,-8.3 -3.1,-12.2 -2,-5.5 -5.1,-10.6 -8.8,-15.1 -1.2,-1.3 -2.5,-2.7 -3.7,-4 -0.4,-0.5 -0.9,-1 -1.2,-1.5 -0.2,-0.3 -0.3,-0.5 -0.7,-0.7 -6.3,-8.01 -13.7,-15.1 -21.6,-22.1 l -0.1,-0.1 c -8.3,-7.6 -17.1,-14.9 -25.6,-22.5 -0.6,-0.81 -1.2,-1.6 -1.8,-2.4 -0.4,-0.5 -0.7,-0.91 -1,-1.5 -0.1,-0.1 -0.1,-0.2 -0.2,-0.3 -2.1,-2.7 -4.1,-5.6 -5.9,-8.5 v -0.3 c 5,-44 10.1,-88.6 13.9,-133 2.4,-28.9 4.5,-57.9 4.8,-86.9 0.4,-29.2 -1.2,-58.4 -6,-87 -0.7,-10.2 -1.7,-20.8 -3.2,-31.2 -1.2,-8.8 -2.7,-17.7 -4.6,-26.4 23.2,-9.6 48.4,-14.8 74.5,-16.7 44,-3.1 90.3,2.8 132.8,12 0.2,0 0.5,0 0.6,0.2 2.5,4.2 -4.3,14.7 -5.8,18.6 -2.7,7.2 -5.3,14.4 -7.4,21.9 -0.4,0.9 -0.7,1.9 -1,2.8 -4.5,15.1 -7.6,30.7 -9.8,46.4 0,0.1 0,0.1 0,0.2 -0.5,3.1 -0.9,6.1 -1.3,9.3 -1,8.3 -1.7,16.7 -2.1,25 -0.4,11.2 -0.4,22.3 0.2,33.5 1,26.6 4.6,53 8.7,79.2"
         style="fill:#e38cb3;fill-opacity:1;fill-rule:nonzero;stroke:none"
         id="path70" /><path
         d="m 2619.9,1685.41 c -5.5,2.6 -11.4,3.8 -17.3,5.1 -2.8,0.7 -5.6,1.4 -8.3,2.3 -9.2,2.99 -18,7.1 -26.2,12.1 -11,6.8 -20.8,15.2 -29.3,24.8 -7.8,8.7 -14.5,18.3 -20,28.5 -2.8,-3.6 -5.2,-7.6 -7.4,-11.5 -4.8,-8.6 -8.6,-17.7 -11.2,-27 -4.8,-15.6 -6.5,-32.1 -5.1,-48.6 1.1,-13.2 4.1,-26.2 8.6,-38.7 2.6,-7.2 5.5,-16.5 10.3,-23.8 2.3,-3.7 5.2,-6.8 8.8,-8.8 5.4,-3.1 12.1,-3.9 19,-3.6 9.1,0.4 18.7,3 26.1,5.2 16.7,4.9 32.7,13.5 44.7,26.3 0.1,0.2 0.3,0.4 0.4,0.5 0.7,0.2 1.5,0.4 2.2,0.6 14.1,3.8 26.9,11.6 34.9,23.8 -5.3,14.3 -16.5,26.3 -30.2,32.8"
         style="fill:#ed9bbc;fill-opacity:1;fill-rule:nonzero;stroke:none"
         id="path72" /><path
         d="m 2521.6,1557.54 c 4.36,-0.04 8.71,0.01 13.07,0.03 0.35,0.82 0.85,1.59 1.15,2.43 1.5,3.89 2.4,8.1 3,12.2 1.3,5.5 2.1,11.4 2.2,17.8 0.2,1.7 0.5,3.8 0.8,6.1 -6.9,-0.3 -13.6,0.5 -19,3.6 -3.6,2 -6.5,5.1 -8.9,8.8 -2.88,-16.62 -5.78,-33.3 -8.4,-50.02 5.32,-0.5 10.67,-0.88 16.08,-0.94"
         style="fill:#040606;fill-opacity:1;fill-rule:nonzero;stroke:none"
         id="path74" /><path
         d="m 2511.32,1746.6 c 2.2,3.9 4.6,7.9 7.4,11.5 5.5,-10.3 12.3,-19.9 20.1,-28.6 8.6,-9.6 18.4,-18 29.3,-24.7 8.2,-5 17,-9.1 26.2,-12.1 2.7,-0.9 5.5,-1.6 8.3,-2.3 5.8,-1.3 11.7,-2.5 17.2,-5.1 13.8,-6.5 25,-18.4 30.3,-32.7 -8,-12.3 -21,-20.1 -35,-23.9 -1.9,-13.6 -3.9,-28.5 -2.3,-42.4 0.6,-6.3 2.1,-12.3 4.6,-17.9 0.4,-1.1 1,-2.2 1.5,-3.4 0.41,-0.76 0.9,-1.49 1.37,-2.23 27.8,3.5 53.36,9.42 77.7,18.07 -4.51,10.54 -8.71,21.27 -12.37,32.36 -9.1,27.6 -14.9,56 -21.6,84.2 -5.3,22.7 -10.5,48.5 -24.8,67.7 0,0.1 -0.1,0.1 -0.2,0.2 -1.9,3.3 -4.3,6.4 -6.9,9.3 -11,12.3 -26.8,20.3 -43.2,22.4 -10.9,1.3 -22.2,0.3 -32.9,-3 -32.1,-1.7 -57.4,-28.2 -57.4,-60.7 0,-4.6 0.5,-9.1 1.5,-13.5 2.7,9.3 6.5,18.3 11.2,26.8"
         style="fill:#040606;fill-opacity:1;fill-rule:nonzero;stroke:none"
         id="path76" /><path
         d="m 2664.95,1138.11 c -4.59,8.31 -8.53,8.33 -18.16,4.92 -3.78,-1.33 -7.84,-1.83 -11.85,-2.28 -19.93,-2.23 -39.99,-3.38 -60.08,-3.72 -20.09,0.34 -40.16,1.49 -60.08,3.72 -4.02,0.45 -8.08,0.95 -11.86,2.28 -9.62,3.41 -13.56,3.39 -18.15,-4.92 -47.25,-85.62 -74.99,-182.739 -70.68,-278.88 2.61,-58.16 14.07,-115.55 24.36,-172.859 3.2,-17.851 7.02,-35.812 8.23,-53.902 0.13,-1.938 0.32,-3.719 0.55,-5.399 40.56,-9.441 84.41,-16.59 126.83,-16.59 v -0.031 c 0.26,0 0.53,0.02 0.8,0.02 0.26,0 0.53,-0.02 0.8,-0.02 v 0.031 c 42.42,0 86.26,7.149 126.83,16.59 0.23,1.68 0.41,3.461 0.54,5.399 1.22,18.09 5.03,36.051 8.24,53.902 10.29,57.309 21.74,114.699 24.35,172.859 4.32,96.141 -23.42,193.26 -70.67,278.88"
         style="fill:#060707;fill-opacity:1;fill-rule:nonzero;stroke:none"
         id="path78" /><path
         d="m 2727.54,1102.85 c -6.93,-4.65 -13.96,-9.21 -21.08,-13.39 -31.99,-19.17 -66.08,-33.8 -102.82,-38.64 -7.88,-0.28 -15.76,-0.37 -23.65,0.1 -10.34,0.57 -20.6,1.8 -30.76,3.32 -2.56,0.38 -5.12,0.76 -7.69,1.23 -15.09,2.67 -30.09,6.27 -44.81,10.64 -16.33,6.84 -32.09,15.1 -47.57,23.93 -3.6,2.09 -7.21,4.17 -10.82,6.35 3.8,17.67 7.41,35.32 10.92,53.08 3.23,15.29 6.27,30.67 9.11,46.14 3.51,13.2 6.75,26.68 9.31,40.16 2.94,15.48 4.94,31.05 5.5,46.43 0.57,17 -2.94,33.52 -8.35,49.46 -4.18,25.55 -10.92,50.52 -16.99,75.68 -1.52,6.45 -3.89,13.29 -5.51,20.12 0.95,6.27 2.56,12.63 5.13,19.37 2.65,7.03 5.88,14.05 9.59,20.89 0.28,0.47 0.56,1.05 0.85,1.52 2.28,3.99 4.75,7.88 7.22,11.78 v 0.28 c 0.85,1.52 1.8,2.94 2.84,4.36 0.95,1.43 2,2.76 3.04,4.18 0.1,0.1 0.1,0.2 0.19,0.29 0.28,0.57 0.67,1.04 1.05,1.51 0.57,0.77 1.13,1.62 1.8,2.38 3.23,4.27 6.46,8.36 9.78,12.44 0.38,0.47 0.76,0.95 1.04,1.42 1.33,1.62 2.76,3.23 4.37,4.85 1.61,1.9 3.42,3.79 5.22,5.59 2.47,2.57 4.94,4.94 7.41,7.32 2.45,2.27 4.93,4.51 7.36,6.81 2.4,2.26 5.26,4.11 7.82,6.19 1.37,1.12 2.73,2.26 4.09,3.4 0.82,0.68 1.64,1.37 2.43,2.09 4.5,4.11 7.71,9.42 10.06,14.99 1.48,3.49 2.24,6.7 2.47,10.45 0.23,3.73 0.93,7.65 1.93,11.25 0.16,0.57 0.38,1.19 0.9,1.48 0.42,0.24 0.95,0.2 1.43,0.14 24.54,-2.58 49.14,2.79 73.22,8.13 1.21,-0.57 1.23,-2.23 1.18,-3.56 -0.19,-4.22 0.56,-8.47 2.13,-12.39 0.9,-2.26 2.4,-4.14 3.85,-6.06 1.54,-2.01 2.87,-4.17 4.39,-6.18 3.4,-4.52 7.36,-8.6 11.75,-12.15 1.8,-1.52 3.7,-3.04 5.69,-4.37 5.04,-4.65 10.74,-8.73 16.72,-12.06 4.36,-2.47 8.92,-4.65 13.29,-6.46 4.17,-1.61 8.25,-3.32 12.34,-5.12 0.95,-0.38 1.8,-0.76 2.85,-1.14 1.04,-0.47 1.99,-1.04 2.94,-1.61 0.1,-0.1 0.29,-0.19 0.38,-0.29 3.13,-2.09 5.6,-5.03 7.31,-8.36 7.5,-7.78 13.96,-17.37 18.89,-27.62 -0.28,-3.9 -0.57,-7.79 -0.66,-11.68 -0.66,-2.18 -1.33,-4.37 -2.09,-6.56 -2.37,-7.58 -5.51,-15.19 -6.45,-22.97 -0.1,-0.66 -0.1,-1.23 -0.1,-1.8 0,-0.67 0,-1.33 -0.09,-1.9 0,-0.95 0,-2 -0.1,-2.94 v -0.58 c -0.48,-6.26 -1.23,-12.34 -2.47,-18.41 0.1,-0.29 0.1,-0.48 0.19,-0.76 -2.28,-11.11 -6.17,-22.12 -11.39,-31.62 -0.76,-1.42 -1.52,-2.75 -2.28,-4.08 -6.45,-10.83 -14.62,-20.23 -18.8,-32.38 -11.39,-33.13 -22.6,-56.11 -10.44,-91.91 3.13,-9.11 7.02,-17.94 11.39,-26.58 4.94,-10.16 10.35,-20.12 15.48,-30.19 0.09,-0.29 0.28,-0.48 0.38,-0.76 11.39,-22.12 21.17,-45.1 29.43,-68.55 3.89,-11.01 7.59,-19.46 8.26,-26.68"
         style="fill:#c9705c;fill-opacity:1;fill-rule:nonzero;stroke:none"
         id="path80" /><path
         d="m 2534.4,1360.5 c -0.1,0 -0.1,-0.09 -0.1,-0.09 0.1,0 0.1,-0.1 0.1,-0.1 0,0.1 0,0.1 0,0.19"
         style="fill:#111111;fill-opacity:1;fill-rule:nonzero;stroke:none"
         id="path82" /><path
         d="m 2559.68,1204.92 c -1.14,-50.33 -6.74,-100.45 -10.45,-150.68 -0.28,-2.75 -0.47,-5.41 -0.66,-8.17 -7.03,-102.058 -10.64,-204.211 -16.33,-306.281 -1.14,-19.75 -2.75,-39.5 -2.28,-59.34 0.38,-17.187 2.47,-37.027 -4.65,-53.258 -9.02,3.598 -17.76,7.969 -26.3,12.809 -37.13,21.461 -69.88,53.172 -97.22,84.691 -12.35,14.25 -38.55,38.547 -34.37,57.25 23.92,105.008 48.7,209.348 70.92,314.449 3.8,17.67 7.41,35.32 10.92,53.08 3.23,15.29 6.27,30.67 9.11,46.14 2,9.88 3.9,19.75 5.7,29.62 3.99,21.18 8.07,42.35 7.5,64.09 -0.29,7.5 -0.95,15 -2.09,22.5 -0.94,6.46 -3.51,12.54 -4.46,18.9 -0.09,0.28 -0.09,0.66 -0.19,0.94 -4.18,25.55 -10.92,50.52 -16.99,75.68 -1.52,6.45 -3.89,13.29 -5.51,20.12 -1.05,4.56 -1.81,9.22 -1.81,13.68 0.19,21.17 14.25,37.22 27.63,52.02 7.5,8.17 14.91,16.43 22.69,24.31 7.6,7.6 16.62,18.14 26.21,23.17 1.42,0.66 2.37,0.85 3.04,0.66 2.09,-0.57 1.52,-4.65 1.8,-8.16 0.38,-5.89 0.38,-11.87 0.19,-17.85 -0.28,-12.34 -1.33,-24.59 -0.66,-36.93 2.75,-45.29 16.9,-89.54 25.06,-134.07 8.54,-45.95 14.34,-92.57 13.2,-139.37"
         style="fill:#e7edef;fill-opacity:1;fill-rule:nonzero;stroke:none"
         id="path84" /><path
         d="m 2735.71,1232.28 c -5.14,-6.39 -10.56,-12.54 -15.87,-18.78 -1.9,16.39 -3.7,32.79 -5.22,49.23 -3.05,33.02 -8.09,68.45 -7.81,102.63 3.76,-5.97 7.52,-11.93 11.13,-17.94 16.19,-26.83 29.04,-55.71 42.26,-84.08 1.14,-2.44 -22.17,-28.17 -24.49,-31.06 z m 87.45,80.97 c -8.99,24.56 -20.07,48.28 -31.13,71.95 -9.92,21.22 -19.84,42.45 -31.09,63 -10.07,18.39 -21.1,41.57 -39.44,53.32 -0.76,0.93 -1.57,1.83 -2.47,2.61 -5.78,4.97 -13.96,8.52 -20.53,12.4 -6.47,3.82 -12.99,7.57 -19.54,11.26 -12.98,7.32 -27.08,13.48 -39.29,22.01 -6.45,4.51 -11.98,11.33 -17.62,16.84 -3.26,-2.78 -4.54,-7.44 -6.07,-11.28 -1.9,-4.79 -3.81,-9.57 -5.71,-14.35 -6.48,-16.3 -12.81,-32.65 -18.78,-49.15 -10.29,-28.45 -19.53,-57.42 -26.39,-86.91 -14.39,-61.84 -15,-121.43 -9.65,-183.2 0.91,-10.42 1.98,-20.89 3.19,-31.46 14.61,-128.1 24.72,-257.802 19.7,-386.681 -1.22,-31.187 -0.37,-62.507 -3.59,-93.597 -2.96,-28.5 -12.44,-56.032 -16.42,-84.582 78.44,-0.578 159.61,21.519 220.15,71.129 -11.84,71.191 -21.71,142.722 -29.52,214.472 -1.56,14.321 -2.79,28.719 -3.9,43.129 -2.21,44.692 -4.86,89.34 -9.6,133.68 l -0.16,-0.42 c -0.86,8.71 -1.87,17.38 -2.93,26.05 4.16,3.93 8.24,7.95 12.58,11.69 14.45,12.48 29.66,24.07 43.97,36.73 22.05,19.52 48.71,45.96 50.91,77.1 1.75,24.69 -8.29,51.38 -16.67,74.26"
         style="fill:#e7edef;fill-opacity:1;fill-rule:nonzero;stroke:none"
         id="path86" /><path
         d="m 2696.2,1098.7 c -0.2,-1 -0.2,-2.1 -0.11,-3.2 0.5,-11.3 -6,-26.4 -14.2,-34.3 -3.9,-3.9 -8.59,-7 -12.8,-10.7 -6.8,-6.1 -8.89,-13.5 -10.9,-22 -1.99,-9 -3.1,-18.3 -5.29,-27.11 -0.41,-1.492 -0.91,-3.089 -2.21,-3.691 -2.99,-1.597 -5.6,2.501 -6.5,5.501 -7.1,25.2 -13.99,53 -2.6,76.5 4.3,8.8 11.71,15.7 15.9,24.6 3.6,7.5 5.61,15.6 8.4,23.4 9.6,-6.2 18.2,-14 25.51,-22.8 1.7,-2 3.29,-4.1 4.8,-6.2"
         style="fill:#ed9bbc;fill-opacity:1;fill-rule:nonzero;stroke:none"
         id="path88" /><path
         d="m 2608.72,1078.64 c 18.14,-1.73 36.87,-1.28 54.53,-1.34 15.72,-0.05 33.34,0.41 48.54,6.03 2.38,-17.65 4.69,-35.33 6.91,-53.01 1.15,-9.23 2.28,-18.48 3.39,-27.72 0.81,-6.772 5.19,-20.041 1.39,-26.151 -4.93,-7.91 -12.76,-14.89 -19.23,-21.578 -4.78,-4.949 -19.46,-23.949 -27.39,-22.09 -10.24,2.418 -22.27,12.008 -31.66,16.957 -5.78,3.051 -11.53,6.153 -17.14,9.492 -6.48,3.879 -11.31,5.899 -13.8,10.68 -1.09,2.078 -1.72,4.692 -1.86,8.199 -0.61,15.621 -1.43,31.251 -2.19,46.871 -0.85,17.34 1.19,36.11 -1.49,53.66"
         style="fill:#ffffff;fill-opacity:1;fill-rule:nonzero;stroke:none"
         id="path90" /><path
         d="m 2448.13,1074.48 c 28.12,-9.91 58.34,-16.01 83.21,-5.72 0.81,-12.14 -1.85,-44.68 -2.03,-47.81 -0.63,-10.68 -1.3,-21.372 -2.18,-32.04 -1.76,-21.39 -30.73,-28.269 -44.78,-39.84 -5.06,-4.172 -9.36,-5.5 -14.31,-0.531 -8.25,8.262 -16.49,16.52 -24.73,24.781 -1.29,1.289 -2.58,2.551 -3.82,3.809 -5.4,5.512 -9.88,11.133 -8.95,19.793 1.21,11.388 3.31,23.938 6.46,34.968 4.03,14.11 7.81,28.29 11.13,42.59"
         style="fill:#ffffff;fill-opacity:1;fill-rule:nonzero;stroke:none"
         id="path92" /><path
         d="m 2606.13,1400.07 h 61.01 c 5,0 9.1,4.1 9.1,9.11 v 0 c 0,5 -4.1,9.09 -9.1,9.09 h -61.01 c -5,0 -9.1,-4.09 -9.1,-9.09 v 0 c 0,-5.01 4.1,-9.11 9.1,-9.11"
         style="fill:#c7cbca;fill-opacity:1;fill-rule:nonzero;stroke:none"
         id="path94" /><path
         d="m 2660.24,1442.63 c -2.55,33.05 -8.92,65.8 -19.17,97.6 -0.19,0.57 -0.38,1.14 -0.57,1.81 -1.05,3.03 -2.18,6.26 -3.61,9.49 -0.76,1.81 -1.52,3.61 -2.37,5.32 -4.37,8.64 -10.26,16.61 -18.8,21.17 0.4,-1.73 1.01,-3.38 1.59,-5.05 0.88,-1.22 1.43,-2.59 2.52,-3.65 1.38,-1.34 2.7,-2.67 3.86,-4.21 3.9,-4.75 6.84,-10.45 9.21,-16.33 1.33,-3.33 2.57,-6.74 3.61,-10.07 10.16,-31.14 16.42,-63.32 18.99,-95.8 0.1,-1.23 0.19,-2.56 0.29,-3.79 h 0.28 c 0.09,0 0.28,0 0.28,0 0,0 4.18,0 4.18,0.09 -0.09,1.14 -0.19,2.28 -0.29,3.42"
         style="fill:#2c2d2e;fill-opacity:1;fill-rule:nonzero;stroke:none"
         id="path96" /><path
         d="m 2659.1,1441.04 c 0,-1.04 0.86,-1.9 1.9,-1.9 0,0 0.19,0 0.29,0 18.8,0 31.33,-16.23 36.36,-30.29 1.52,-4.17 2.56,-8.54 3.23,-12.81 1.33,-8.64 1.33,-17.29 1.33,-25.26 l -0.1,-42.25 c 0,-3.89 0,-7.97 -1.04,-11.67 -1.24,-4.09 -3.99,-7.6 -7.22,-9.12 -3.03,-1.43 -6.45,-0.85 -10.16,-0.28 -1.8,0.28 -3.6,0.56 -5.41,0.56 h -0.09 c -1.05,0 -1.81,-0.85 -1.9,-1.89 0,-1.05 0.85,-1.9 1.9,-1.9 1.52,0 3.23,-0.29 4.93,-0.57 2,-0.29 4.09,-0.57 6.18,-0.57 2.08,0 4.17,0.28 6.17,1.23 4.17,1.99 7.69,6.36 9.21,11.49 1.23,4.17 1.23,8.74 1.23,12.72 l 0.1,42.16 c 0,7.59 0,15.85 -1.14,24.21 -0.67,5.12 -1.81,10.25 -3.61,15.28 -5.51,15.1 -19.28,32.76 -39.97,32.76 -1.14,0.09 -2.19,-0.76 -2.19,-1.9"
         style="fill:#24292e;fill-opacity:1;fill-rule:nonzero;stroke:none"
         id="path98" /><path
         d="m 2678.19,1308.02 h 0.09 c 1.81,0 3.61,-0.28 5.41,-0.56 3.71,-0.57 7.13,-1.15 10.16,0.28 3.23,1.52 5.98,5.03 7.22,9.12 1.04,3.7 1.04,7.78 1.04,11.67 l 0.1,42.25 c 0,7.31 -0.12,15.18 -1.14,23.08 h 3.88 c 1,-8 1.06,-15.9 1.06,-23.17 l -0.1,-42.16 c 0,-3.98 0,-8.55 -1.23,-12.72 -1.52,-5.13 -5.04,-9.5 -9.21,-11.49 -2,-0.95 -4.09,-1.23 -6.17,-1.23 -2.09,0 -4.18,0.28 -6.18,0.57 -1.7,0.28 -3.41,0.57 -4.93,0.57 -1.05,0 -1.9,0.85 -1.9,1.9 0.09,1.04 0.85,1.89 1.9,1.89"
         style="fill:#999ea0;fill-opacity:1;fill-rule:nonzero;stroke:none"
         id="path100" /><path
         d="m 2682.36,1310.17 c -0.93,0.58 -1.8,1.04 -2.36,1.33 -3.29,1.69 -8.24,2.73 -10.88,-0.66 -3.18,-4.07 0.77,-9.67 5.37,-9.92 3.56,-0.19 7.17,1.21 10.38,2.6 4.11,1.78 0.47,4.79 -2.51,6.65"
         style="fill:#24292e;fill-opacity:1;fill-rule:nonzero;stroke:none"
         id="path102" /><path
         d="m 2658.25,1441.04 c 0,-1.04 -0.86,-1.9 -1.9,-1.9 0,0 -0.19,0 -0.29,0 -18.8,0 -31.33,-16.23 -36.36,-30.29 -1.52,-4.17 -2.57,-8.54 -3.23,-12.81 -1.33,-8.64 -1.33,-17.29 -1.33,-25.26 l 0.09,-42.25 c 0,-3.89 0,-7.97 1.05,-11.67 1.23,-4.09 3.99,-7.6 7.22,-9.12 3.03,-1.43 6.45,-0.85 10.15,-0.28 1.81,0.28 3.61,0.56 5.42,0.56 h 0.09 c 1.04,0 1.81,-0.85 1.9,-1.89 0,-1.05 -0.86,-1.9 -1.9,-1.9 -1.52,0 -3.23,-0.29 -4.94,-0.57 -1.99,-0.29 -4.08,-0.57 -6.17,-0.57 -2.09,0 -4.17,0.28 -6.17,1.23 -4.18,1.99 -7.69,6.36 -9.21,11.49 -1.23,4.17 -1.23,8.74 -1.23,12.72 l -0.1,42.16 c 0,7.59 0,15.85 1.14,24.21 0.66,5.12 1.81,10.25 3.61,15.28 5.51,15.1 19.27,32.76 39.97,32.76 1.14,0.09 2.19,-0.76 2.19,-1.9"
         style="fill:#24292e;fill-opacity:1;fill-rule:nonzero;stroke:none"
         id="path104" /><path
         d="m 2639.16,1308.02 h -0.09 c -1.81,0 -3.61,-0.28 -5.42,-0.56 -3.7,-0.57 -7.12,-1.15 -10.15,0.28 -3.23,1.52 -5.99,5.03 -7.22,9.12 -1.05,3.7 -1.05,7.78 -1.05,11.67 l -0.09,42.25 c 0,7.31 0.11,15.18 1.13,23.08 h -3.87 c -1,-8 -1.06,-15.9 -1.06,-23.17 l 0.1,-42.16 c 0,-3.98 0,-8.55 1.23,-12.72 1.52,-5.13 5.03,-9.5 9.21,-11.49 2,-0.95 4.08,-1.23 6.17,-1.23 2.09,0 4.18,0.28 6.17,0.57 1.71,0.28 3.42,0.57 4.94,0.57 1.04,0 1.9,0.85 1.9,1.9 -0.09,1.04 -0.86,1.89 -1.9,1.89"
         style="fill:#999ea0;fill-opacity:1;fill-rule:nonzero;stroke:none"
         id="path106" /><path
         d="m 2634.99,1310.17 c 0.93,0.58 1.8,1.04 2.35,1.33 3.3,1.69 8.25,2.73 10.89,-0.66 3.18,-4.07 -0.77,-9.67 -5.37,-9.92 -3.56,-0.19 -7.17,1.21 -10.38,2.6 -4.11,1.78 -0.47,4.79 2.51,6.65"
         style="fill:#24292e;fill-opacity:1;fill-rule:nonzero;stroke:none"
         id="path108" /><path
         d="m 2478.31,1412.79 c 0,-13.06 10.58,-23.63 23.63,-23.63 13.05,0 23.63,10.57 23.63,23.63 0,13.05 -10.58,23.63 -23.63,23.63 -13.05,0 -23.63,-10.58 -23.63,-23.63"
         style="fill:#b0b5b5;fill-opacity:1;fill-rule:nonzero;stroke:none"
         id="path110" /><path
         d="m 2499.13,1437.89 c 0,-4.18 0,-8.26 0.09,-12.44 0.1,-1.33 0.86,-2.47 2.47,-2.38 1.33,0.1 2.38,1.14 2.28,2.47 -0.09,4.18 -0.09,8.35 -0.09,12.53 0.09,15.39 0.94,30.67 2.65,45.86 1.52,14.25 3.99,30.86 10.55,46.24 0.75,1.8 1.7,3.79 2.75,5.79 1.33,2.66 2.94,5.51 4.84,8.36 0.1,0.28 0.29,0.47 0.47,0.75 1.14,1.71 2.38,3.52 3.8,5.13 2.09,3.04 3.8,6.36 5.03,9.78 0.39,1.04 0.76,2.09 1.14,3.13 -7.12,-5.69 -12.53,-12.72 -16.52,-19.46 -0.85,-1.42 -1.61,-2.85 -2.37,-4.18 -1.33,-2.56 -2.56,-5.12 -3.52,-7.4 -0.28,-0.67 -0.56,-1.43 -0.85,-2.09 -6.07,-15.38 -8.54,-31.62 -10.06,-45.48 -1.71,-15.38 -2.57,-31.04 -2.66,-46.61"
         style="fill:#2c2d2e;fill-opacity:1;fill-rule:nonzero;stroke:none"
         id="path112" /><path
         d="m 2499.13,1437.89 c 0,-4.18 0,-8.26 0.09,-12.44 0.1,-1.33 0.86,-2.47 2.47,-2.38 1.33,0.1 2.38,1.14 2.28,2.47 -0.09,4.18 -0.09,8.35 -0.09,12.53 h -2.57 c -0.76,-0.09 -1.42,-0.09 -2.18,-0.18"
         style="fill:#c7cbca;fill-opacity:1;fill-rule:nonzero;stroke:none"
         id="path114" /><path
         d="m 2489.23,1412.79 c 0,-7.02 5.69,-12.72 12.71,-12.72 7.02,0 12.71,5.7 12.71,12.72 0,7.02 -5.69,12.71 -12.71,12.71 -7.02,0 -12.71,-5.69 -12.71,-12.71"
         style="fill:#505455;fill-opacity:1;fill-rule:nonzero;stroke:none"
         id="path116" /><path
         d="m 2546.05,1252.53 c 0,-3.49 2.83,-6.31 6.31,-6.31 3.48,0 6.3,2.82 6.3,6.31 0,3.48 -2.82,6.3 -6.3,6.3 -3.48,0 -6.31,-2.82 -6.31,-6.3"
         style="fill:#afb4b4;fill-opacity:1;fill-rule:nonzero;stroke:none"
         id="path118" /><path
         d="m 6723.04,911.73 c 1.53,0.02 2.74,1.379 3.75,2.622 6.14,7.359 11.34,15.73 17.38,23.386 5.72,7.364 11.16,13.481 20.24,16.071 5.81,1.82 11.64,2.531 17.35,4.453 8.96,3.097 15.73,9.648 21.67,16.699 6.65,7.777 13.29,15.969 18.79,24.75 0.8,1.139 1.5,2.279 2.1,3.519 2.5,4.03 4.79,8.26 6.88,12.38 2.39,4.44 4.69,9.09 6.97,13.52 29.3,55.53 73.26,103.48 92.97,163.06 6.38,19.15 10.19,38.76 12.04,58.76 2.97,28.21 2.45,56.98 1.73,85.23 -0.82,35.52 -1.95,71.04 -6.37,106.31 -1.49,11.35 -3.3,23.1 -8.47,33.37 -4.74,9.04 -12.64,16.91 -22.51,19.74 -1.23,0.19 -2.46,0.58 -3.6,0.67 -26.88,4 -36.31,-30.44 -39.51,-50.05 -4.09,-28.33 -0.6,-56.95 2.88,-85.16 4.37,-32.81 8.54,-65.42 12.7,-98.33 0.58,-3.89 1.04,-7.98 1.5,-11.86 1.27,-9.51 2.54,-19.12 -0.4,-28.27 -2.55,-8.23 -8.28,-14.97 -13.3,-21.8 -31.42,-43.17 -41.18,-97.59 -60.63,-147.03 -2.47,-6.28 -5.25,-12.67 -8.44,-18.45 -0.4,-0.73 -0.69,-1.34 -1.2,-1.96 -4.09,-7.34 -9.22,-14.07 -15.59,-19.38 -9.3,-7.82 -21.02,-12.19 -30.44,-19.699 -21.66,-17.422 -27.57,-47 -32.19,-74.312 -0.57,-3.391 0.22,-8.5 3.7,-8.239"
         style="fill:#ed9bbc;fill-opacity:1;fill-rule:nonzero;stroke:none"
         id="path120" /><path
         d="m 6797.56,1033.36 c 7.49,-7.68 14.67,-15.46 21.64,-23.45 1.46,-1.72 3.24,-4.05 5.12,-6.68 2.5,4.03 4.79,8.26 6.88,12.38 2.39,4.44 4.69,9.09 6.97,13.52 29.3,55.53 73.26,103.48 92.97,163.06 6.38,19.15 10.19,38.76 12.04,58.76 2.97,28.21 2.45,56.98 1.73,85.23 -0.82,35.52 -1.95,71.04 -6.37,106.31 -1.49,11.35 -3.3,23.1 -8.47,33.37 -4.74,9.04 -12.64,16.91 -22.51,19.74 -1.23,0.19 -2.46,0.58 -3.6,0.67 -26.88,4 -36.31,-30.44 -39.51,-50.05 -4.09,-28.33 -0.6,-56.95 2.88,-85.16 4.37,-32.81 8.54,-65.42 12.7,-98.33 0.58,-3.89 1.04,-7.98 1.5,-11.86 1.27,-9.51 2.54,-19.12 -0.4,-28.27 -2.55,-8.23 -8.28,-14.97 -13.3,-21.8 -31.42,-43.17 -41.18,-97.59 -60.63,-147.03 -2.47,-6.28 -5.25,-12.67 -8.44,-18.45 -0.4,-0.73 -0.69,-1.34 -1.2,-1.96"
         style="fill:#387fb8;fill-opacity:1;fill-rule:nonzero;stroke:none"
         id="path122" /><path
         d="m 7021.55,1707.95 c 20.89,15.35 43.63,27.95 63.08,45.05 2.76,2.45 5.33,4.91 7.48,7.68 -0.62,-6.25 0.82,-13.41 2.04,-17.2 5.43,-17.92 13.12,-35.84 17.31,-53.97 -2.97,-21.91 -10.44,-43.52 -21.1,-61.95 -2.76,-4.71 -6.03,-9.32 -9.73,-13.42 -1.63,-20.58 -0.71,-41.67 2.47,-62.25 -28.98,-0.92 -58.06,-0.72 -87.14,0.82 4.29,21.7 5.21,43.42 -0.41,64.71 -2.67,3.18 -5.02,6.66 -7.07,10.14 -5.02,8.71 -9.42,18.12 -12.9,27.95 9.31,21.4 27.03,38.41 45.97,52.44 z m -103.93,-83.67 c -7.67,-1.13 -15.52,-1.71 -23.27,-2.56 -14.67,-83.9 107.74,-124.73 180.59,-107.26 49.22,11.79 81.09,37.42 103.92,71.04 -17.11,6.84 -34.59,13.13 -46,28.34 -12.69,17 -15.87,38.8 -13.01,59.39 3.9,28.06 16.39,60.11 0.62,86.63 -7.37,12.39 -17.72,23.45 -29.59,31.64 -3.08,4.2 -7.17,7.68 -11.78,10.14 -14.02,7.88 -32.56,7.78 -48.23,6.66 -17.31,-1.23 -34.3,-7.17 -48.33,-17.32 -28.06,-20.16 -39.11,-50.98 -38.3,-84.37 0.31,-15.05 2.87,-30 7.48,-44.23 1.43,-4.71 3.68,-9.63 6.04,-14.54 -6.15,-13.83 -23.76,-21.1 -40.14,-23.56"
         style="fill:#261721;fill-opacity:1;fill-rule:nonzero;stroke:none"
         id="path124" /><path
         d="m 7112.71,1522.4 c -24.77,24.94 -30.75,57.27 -28.56,91.15 0.24,3.71 0.72,7.39 1.15,11.08 -0.02,-0.17 -8.45,0 -8.93,0 -17.18,0 -34.35,0 -51.53,0 -7.62,0 -15.26,0 -22.89,0 -1.67,0 -4.85,0.63 -6.41,0 -1.27,-0.52 -0.91,-0.23 -0.96,-1.99 -0.18,-6 1.93,-12.43 2.74,-18.42 1.2,-8.83 2.65,-18.24 1.29,-27.11 -1.18,-8.82 -4.07,-17.47 -7.81,-25.51 -5.6,-12.12 -14.24,-22.72 -25.23,-30.33 -4.87,-3.37 -10.15,-6.13 -14.86,-9.69 -11.14,-8.44 15.19,-25.81 21.42,-30.43 13.35,-9.9 28.17,-17.99 44.2,-22.61 22.8,-6.58 48.01,-5.35 69.13,5.97 17.31,9.28 50.91,34.19 29.81,55.35 -0.85,0.85 -1.72,1.69 -2.56,2.54"
         style="fill:#e38cb3;fill-opacity:1;fill-rule:nonzero;stroke:none"
         id="path126" /><path
         d="m 7111.46,1689.51 c -2.97,-21.91 -10.55,-43.52 -21.2,-61.95 -2.76,-4.71 -5.93,-9.32 -9.63,-13.42 -10.95,-12.49 -25.7,-21.6 -41.25,-23.03 -16.91,1.53 -32.78,12.18 -43.83,26.31 -2.67,3.18 -5.02,6.66 -7.07,10.14 -5.12,8.71 -9.43,18.23 -12.9,28.05 9.31,21.3 27.03,38.41 45.97,52.34 20.79,15.35 43.63,27.95 63.08,45.05 2.66,2.45 5.32,4.91 7.48,7.68 -0.62,-6.25 0.82,-13.41 2.04,-17.2 5.43,-17.92 13.01,-35.84 17.31,-53.97"
         style="fill:#ed9bbc;fill-opacity:1;fill-rule:nonzero;stroke:none"
         id="path128" /><path
         d="m 7004.69,65.1719 c -0.64,-1.75 -1.79,-3.0821 -3.31,-4 -1.28,-0.6133 -2.81,-1.0235 -4.59,-1.1328 -21.41,-0.5078 -42.82,0.1093 -64.22,0.5195 -15.93,0.2031 -12.62,14.6406 -8.8,22.9414 2.8,5.9297 5.35,11.7617 7.77,17.711 0,0.098 0.13,0.301 0.13,0.41 6.63,15.867 12.36,31.938 15.8,48.43 1.41,6.758 2.42,13.418 3.07,20.168 1.52,15.461 1.65,30.929 1.77,46.492 l 47.91,-2.973 c -1.01,-15.156 -1.26,-30.297 -1.14,-45.457 0.13,-22.941 1.27,-45.672 3.19,-68.4099 0.76,-9.2109 1.66,-18.4219 2.67,-27.7422 0.26,-2.3594 0.51,-4.7187 -0.25,-6.957"
         style="fill:#999ea0;fill-opacity:1;fill-rule:nonzero;stroke:none"
         id="path130" /><path
         d="m 7088.06,65.1719 c 0.63,-1.75 1.77,-3.0821 3.3,-4 1.27,-0.6133 2.8,-1.0235 4.58,-1.1328 21.35,-0.5078 42.7,0.1093 64.05,0.5195 15.89,0.2031 12.59,14.6406 8.77,22.9414 -2.79,5.9297 -5.33,11.7617 -7.75,17.711 0,0.098 -0.13,0.301 -0.13,0.41 -6.6,15.867 -12.33,31.938 -15.75,48.43 -1.41,6.758 -2.42,13.418 -3.06,20.168 -1.52,15.461 -1.65,30.929 -1.78,46.492 l -47.79,-2.973 c 1.03,-15.156 1.28,-30.297 1.15,-45.457 -0.12,-22.941 -1.28,-45.672 -3.18,-68.4099 -0.76,-9.2109 -1.65,-18.4219 -2.67,-27.7422 -0.25,-2.3594 -0.51,-4.7187 0.26,-6.957"
         style="fill:#999ea0;fill-opacity:1;fill-rule:nonzero;stroke:none"
         id="path132" /><path
         d="m 7145.78,1145.82 c -4.33,8.57 -8.05,8.59 -17.13,5.08 -3.56,-1.38 -7.39,-1.9 -11.18,-2.36 -23.55,-2.88 -47.3,-4.14 -71.06,-3.99 -23.76,-0.15 -47.51,1.11 -71.07,3.99 -3.79,0.46 -7.62,0.98 -11.18,2.36 -9.08,3.51 -12.79,3.49 -17.13,-5.08 -44.56,-88.31 -70.73,-188.488 -66.66,-287.66 2.46,-59.98 13.27,-119.191 22.97,-178.301 4.79,-29.211 9.24,-58.48 12.07,-87.949 4.84,-50.25 -4.33,-100.34 -5.14,-150.551 -0.71,-44.879 3.24,-90.679 9.07,-135.531 3.4,-26.219 7.3,-52.367 11.11,-78.539 1.71,-11.769 2.8,-23.379 4.62,-35.07 2.91,-18.75 1.52,-37.43 0.74,-56.438 -0.02,-0.691 -0.03,-1.429 0.37,-1.992 0.36,-0.5 0.96,-0.73 1.53,-0.93 6.65,-2.257 13.84,-1.8 20.84,-1.629 14.71,0.352 29.45,-0.73 43.94,-3.218 2.03,-0.352 4.56,-0.422 5.6,1.777 0.52,1.133 0.53,2.422 0.52,3.672 0,26.019 -0.55,52.07 0.27,78.078 0.83,26.539 1.75,53.063 2.74,79.59 0.59,15.922 1.2,31.832 1.84,47.75 -0.68,56.531 0.35,113.141 7.69,168.34 0.32,2.402 0.26,4.929 0.38,7.351 0.14,2.5 0.27,5 0.39,7.5 0.27,5.008 0.53,10.008 0.8,15.008 0.53,10.012 1.08,20.012 1.64,30.024 0.55,10 1.12,20 1.68,30.007 0.58,10 1.17,20 1.76,30 0.6,10 1.2,20.012 1.82,30.012 0.61,10 1.24,20 1.87,29.988 0.65,10 1.29,20 1.95,30 0.66,10 1.33,19.993 2.01,29.993 0.68,10 1.37,19.988 2.07,29.988 0.7,9.988 1.42,19.98 2.14,29.98 0.73,9.989 1.46,19.981 2.22,29.969 0.74,9.992 1.5,19.981 2.27,29.973 0.33,4.347 0.67,8.687 1.01,13.039 0.17,2.148 0.34,4.301 0.5,6.437 0.09,1.114 0.18,2.203 0.27,3.301 0.04,0.582 -0.13,1.293 0.1,1.84 0.53,1.332 0.76,-0.547 0.8,-1.059 0.19,-2.5 0.4,-4.992 0.59,-7.492 0.39,-4.988 0.77,-9.988 1.16,-14.976 0.78,-9.993 1.54,-19.993 2.28,-29.981 0.75,-10 1.48,-19.992 2.22,-29.992 0.72,-9.988 1.43,-19.981 2.13,-29.981 0.71,-9.988 1.4,-19.988 2.08,-29.988 0.68,-9.988 1.35,-19.988 2.02,-29.988 0.65,-10 1.3,-20 1.94,-30 0.63,-10 1.26,-20 1.88,-30 0.62,-10 1.23,-20 1.82,-30 0.6,-10 1.18,-20.012 1.75,-30.012 0.58,-10 1.14,-20.012 1.7,-30.012 0.56,-10.007 1.1,-20.007 1.64,-30.019 0.53,-10.008 1.05,-20.008 1.57,-30.008 0.02,-0.312 0.03,-0.601 0.05,-0.902 7.34,-55.199 8.37,-111.809 7.7,-168.34 -0.32,-26.199 2.05,-52.719 2.96,-78.91 0.89,-25.188 0.93,-50.52 1.92,-75.578 0.54,-13.442 -1.48,-26.821 -1.25,-40.27 0.06,-3.73 -0.8,-12.633 2.71,-15.332 2.78,-2.141 7.35,0.18 10.41,0.481 8.36,0.789 16.77,0.601 25.15,0.699 6.05,0.062 12.11,0.062 18.15,-0.02 4.95,-0.07 16.57,-4.019 19.48,1.981 0.56,1.191 0.58,2.539 0.57,3.851 -0.08,10.809 -1.9,21.508 -2.17,32.289 -0.31,12.559 0.23,25.34 1.99,37.789 4.72,33.321 9.86,66.61 14.2,99.969 5.83,44.852 9.77,90.652 9.06,135.531 -0.81,50.211 -9.98,100.301 -5.14,150.551 2.83,29.469 7.28,58.738 12.07,87.949 9.71,59.11 20.51,118.321 22.97,178.301 4.07,99.172 -22.1,199.35 -66.66,287.66"
         style="fill:#336fba;fill-opacity:1;fill-rule:nonzero;stroke:none"
         id="path134" /><path
         d="m 7143.96,1315.35 c 4.26,9.75 9.9,18.7 15.61,27.61 5.89,17.69 11.76,35.36 15.57,53.56 6.78,32.46 -2.43,60.87 -9.23,90.89 -0.01,0.03 -0.02,0.06 -0.03,0.09 -0.75,2.2 -1.15,4.71 -1.55,7.23 -0.41,1.97 -0.8,3.96 -1.18,5.95 -0.89,3.48 -2.33,6.52 -5.44,8.12 -8.53,4.38 -17.57,7.63 -26.17,11.86 -4.53,2.23 -9.02,4.7 -13.04,7.77 -3.44,2.63 -6.6,7.16 -10.93,8.28 -5.27,1.36 -13.14,-6.94 -17.48,-9.32 -6.59,-3.62 -13.63,-6.41 -20.9,-8.34 -28.66,-7.59 -63.31,-1.09 -86.2,18.24 -1.2,1.01 -2.45,2.1 -4,2.4 -3.75,0.73 -13.27,-10.53 -16.73,-12.89 -6.21,-4.21 -12.86,-7.71 -19.61,-10.94 -1.88,-0.9 -15.04,-5.71 -18.49,-8.01 0.28,-2.3 0.37,-4.69 0.02,-7.25 -3.51,-25.69 -12.59,-47.57 -13.11,-74.29 -0.46,-23.99 1.9,-47.79 5.59,-71.43 16.95,-27.76 28.78,-57.3 30.1,-92.3 1.92,-51.29 -6.39,-100.43 -19.55,-149.14 1.46,-0.35 2.92,-0.76 4.39,-1.09 35.59,-7.81 72.8,-11.05 109.59,-9.73 36.79,-1.32 74.01,1.92 109.59,9.73 5.75,1.29 11.46,2.78 17.14,4.31 -18.25,40.66 -30.33,83.53 -32.81,128.75 -1.26,22.93 -0.49,48.53 8.85,69.94"
         style="fill:#edefed;fill-opacity:1;fill-rule:nonzero;stroke:none"
         id="path136" /><path
         d="m 7038.43,1378.18 c -0.3,1.41 -0.61,2.83 -0.92,4.24 -6.96,31.57 -17.87,61.94 -29.04,92.08 -0.46,1.24 -0.92,2.47 -1.38,3.71 -5.15,13.88 -10.25,27.76 -15.28,41.68 -1.84,5.11 -5.45,22.26 -11.48,22.99 -3.05,0.37 -6.91,-5.02 -9.17,-6.86 -11.37,-9.31 -25.27,-14.89 -38.72,-20.45 -14.02,-5.78 -27.09,-13.06 -40.46,-20.2 4.71,-10.02 5.01,-20.29 5.88,-31.12 0.91,-11.36 1.75,-22.73 1.97,-34.13 0.36,-17.55 2.56,-35.22 2.56,-52.73 1.67,-21.63 4.08,-43.19 7.26,-64.62 2.16,-14.55 7.94,-28 9.83,-42.47 2.18,-16.66 -0.3,-33.74 -4.21,-49.91 -17.12,-70.94 -31.79,-142.38 -45.86,-214.04 -0.67,-3.44 -1.35,-7.01 -0.57,-10.428 1.74,-7.652 13.5,-10.293 19.62,-12.133 25.55,-7.719 52.17,-9.668 78.62,-10.789 20.83,-0.879 41.61,-3.828 62.49,-3.219 21.03,0.61 20.22,13.039 20.45,31.879 0.21,17.95 0.68,35.91 1.23,53.86 1.09,36.03 2.54,72.06 3.14,108.11 1.2,71.8 -0.98,144.23 -15.96,214.55"
         style="fill:#3f84c8;fill-opacity:1;fill-rule:nonzero;stroke:none"
         id="path138" /><path
         d="m 7168.32,1220.39 c -3.91,16.17 -6.39,33.25 -4.21,49.91 1.9,14.47 7.69,27.92 9.84,42.47 3.17,21.43 5.59,42.99 7.25,64.62 1.57,20.45 2.42,40.94 2.69,61.45 0.11,8.93 0.67,18.04 1.02,27.06 0.27,6.73 1.16,13.74 1.95,20.55 0.29,2.47 2.08,8.51 1.07,10.75 -0.91,2.04 -6.29,3.68 -8.41,4.71 -13.26,6.51 -26.82,12.35 -40.21,18.57 -6.6,3.07 -13.22,6.15 -19.36,10.09 -3.03,1.94 -5.94,4.09 -8.61,6.52 -2.05,1.87 -4.89,6.17 -8.08,5.79 -6.02,-0.73 -9.64,-17.88 -11.47,-22.99 -5.03,-13.92 -10.14,-27.8 -15.29,-41.68 -0.46,-1.24 -0.9,-2.47 -1.36,-3.71 -11.18,-30.14 -22.09,-60.51 -29.06,-92.08 -0.31,-1.41 -0.61,-2.83 -0.91,-4.24 -14.98,-70.32 -17.16,-142.75 -15.96,-214.55 0.59,-36.05 2.05,-72.08 3.13,-108.11 0.55,-17.95 1.02,-35.91 1.24,-53.86 0.23,-18.84 -0.58,-31.269 20.44,-31.879 20.88,-0.609 41.66,2.34 62.5,3.219 26.44,1.121 53.06,3.07 78.62,10.789 6.11,1.84 17.88,4.481 19.62,12.133 0.78,3.418 0.1,6.988 -0.58,10.428 -14.06,71.66 -28.74,143.1 -45.86,214.04"
         style="fill:#3f84c8;fill-opacity:1;fill-rule:nonzero;stroke:none"
         id="path140" /><path
         d="m 7094.73,1410.65 h 62.9 c 5,0 9.1,4.1 9.1,9.11 v 0.43 c 0,5.01 -4.1,9.1 -9.1,9.1 h -62.9 c -5.01,0 -9.1,-4.09 -9.1,-9.1 v -0.43 c 0,-5.01 4.09,-9.11 9.1,-9.11"
         style="fill:#c7cbca;fill-opacity:1;fill-rule:nonzero;stroke:none"
         id="path142" /><path
         d="m 7219.18,890.539 82.5,131.411 c 4.41,7.02 2.29,16.28 -4.73,20.69 l -206.14,129.41 c -7.02,4.41 -16.28,2.29 -20.68,-4.73 l -82.5,-131.42 c -4.41,-7.01 -2.29,-16.27 4.72,-20.68 l 206.16,-129.411 c 7.01,-4.411 16.27,-2.289 20.67,4.73"
         style="fill:#8ac8be;fill-opacity:1;fill-rule:nonzero;stroke:none"
         id="path144" /><path
         d="m 7174.95,915.551 c -5.26,3.301 -10.76,6.301 -16.01,9.219 -27.09,15.031 -53.91,30.628 -79.88,47.55 -13.27,8.66 -26.46,17.559 -39.11,27.129 -11.38,8.611 -21.42,19.011 -33.54,26.611 -1.66,1.39 -3.37,2.84 -4.24,4.82 -1.72,3.9 0.33,8.35 2.36,12.09 9.88,18.21 20.33,36.1 30.77,53.99 10.99,18.82 26.18,33.77 39.46,50.93 1.86,2.41 4.35,5.07 7.35,4.58 1.02,-0.17 1.95,-0.71 2.85,-1.24 63.07,-37.29 126.14,-74.58 189.21,-111.87 1.25,-0.73 2.59,-1.57 3.12,-2.92 2.02,-5.08 -7.27,-16.04 -9.7,-20.19 -4.85,-8.25 -9.79,-16.441 -14.83,-24.57 -9.81,-15.84 -20.01,-31.45 -30.54,-46.821 -4.83,-7.031 -9.72,-14 -14.68,-20.918 -3.69,-5.14 -6.94,-10.613 -10.98,-15.511 -2.83,-3.43 -4.87,-5.692 -8.89,-2.149 -3.88,3.399 -8.22,6.438 -12.72,9.27"
         style="fill:#edefed;fill-opacity:1;fill-rule:nonzero;stroke:none"
         id="path146" /><path
         d="m 7022.63,1098.07 c 2.95,-1.85 6.85,-0.96 8.71,2 1.85,2.95 0.95,6.86 -1.99,8.71 -2.95,1.85 -6.86,0.95 -8.72,-1.99 -1.85,-2.96 -0.95,-6.86 2,-8.72 z m -1.36,-2.17 c -4.15,2.61 -5.41,8.1 -2.8,12.25 2.59,4.15 8.09,5.4 12.24,2.8 4.14,-2.61 5.4,-8.1 2.8,-12.24 -2.6,-4.15 -8.1,-5.41 -12.24,-2.81"
         style="fill:#1a181a;fill-opacity:1;fill-rule:nonzero;stroke:none"
         id="path148" /><path
         d="m 7023.09,1053.86 46.28,73.72 -20.24,12.7 -46.28,-73.71 20.24,-12.71"
         style="fill:#66422d;fill-opacity:1;fill-rule:nonzero;stroke:none"
         id="path150" /><path
         d="m 7254.96,1265.06 c -1.74,28.37 -6.96,56.63 -12.38,84.38 -6.66,34.92 -13.62,69.73 -23.76,103.83 -3.38,10.86 -7.07,22.22 -13.93,31.44 -4.81,6.34 -11.36,11.67 -18.85,14.23 0.93,-0.51 1.55,-1.03 1.85,-1.64 1.03,-2.25 -0.82,-8.29 -1.12,-10.75 -0.73,-6.86 -1.64,-13.82 -1.95,-20.58 -0.31,-9.01 -0.92,-18.13 -1.02,-27.03 -0.21,-20.49 -1.12,-40.97 -2.67,-61.44 -1.43,-19.46 -3.58,-38.91 -6.34,-58.27 5.32,-17.61 10.65,-35.23 15.97,-52.94 1.12,-3.79 2.36,-7.68 3.38,-11.47 2.86,-9.11 5.73,-18.43 4.3,-27.96 -1.13,-8.49 -5.73,-16.07 -9.52,-23.65 -4.2,-8.4 -7.68,-17.1 -10.55,-25.91 -6.05,-17.91 -9.83,-36.45 -12.8,-55.19 -0.41,-2.05 -0.72,-4.09 -1.02,-6.25 -3.69,-22.63 -6.45,-45.46 -11.16,-67.68 -1.44,-6.66 -3.08,-13.41 -5.33,-19.55 -0.21,-0.83 -0.41,-1.44 -0.82,-2.16 -2.86,-7.88 -6.76,-15.46 -12.18,-21.71 -6.09,-6.99 -12.31,-10.401 -20.27,-15.061 -14,-8.187 -23.83,-23.008 -26.25,-39.008 -0.75,-4.953 -0.2,-6.703 2.98,-10.5 2.7,-3.222 5.73,-6.152 9.03,-8.742 8.27,-6.527 25.41,-18.078 32.66,-4.258 1.42,2.707 2.27,5.68 3.6,8.43 3.72,7.66 10.75,12.859 15.6,19.688 5.2,7.32 10.51,14.351 14.8,22.32 3.69,6.34 7.07,12.902 9.93,19.66 0.61,1.332 1.02,2.563 1.43,3.891 1.85,4.3 3.38,8.91 4.82,13.31 1.53,4.81 3.07,9.73 4.61,14.44 4.2,12.59 9,24.99 14.23,37.17 19.35,45.87 43,90.11 50.58,139.06 3.08,19.97 3.59,39.93 2.15,59.9"
         style="fill:#ed9bbc;fill-opacity:1;fill-rule:nonzero;stroke:none"
         id="path152" /><path
         d="m 7252.81,1205.16 c -7.58,-48.95 -31.23,-93.19 -50.58,-139.06 -5.23,-12.18 -10.03,-24.58 -14.23,-37.17 -1.54,-4.71 -3.08,-9.63 -4.61,-14.44 -1.44,-4.4 -2.97,-9.01 -4.82,-13.31 -2.25,2.25 -4.4,4.3 -6.14,5.73 -8.19,6.66 -16.59,13.21 -25.19,19.56 0.41,0.72 0.61,1.33 0.82,2.16 2.25,6.14 3.89,12.89 5.33,19.55 4.71,22.22 7.47,45.05 11.15,67.68 0.31,2.16 0.62,4.2 1.03,6.25 2.97,18.74 6.75,37.28 12.8,55.19 2.87,8.81 6.35,17.51 10.55,25.91 3.79,7.58 8.39,15.15 9.52,23.65 1.43,9.53 -1.44,18.85 -4.3,27.96 -1.02,3.79 -2.26,7.68 -3.38,11.47 -5.32,17.71 -10.65,35.33 -15.97,52.94 2.76,19.36 4.91,38.81 6.34,58.27 1.54,20.47 2.46,40.95 2.67,61.44 0.1,8.9 0.71,18.02 1.02,27.03 0.31,6.76 1.22,13.72 1.95,20.58 0.3,2.46 2.15,8.5 1.12,10.75 -0.3,0.61 -0.92,1.13 -1.85,1.64 7.49,-2.56 14.04,-7.89 18.85,-14.23 6.86,-9.22 10.55,-20.58 13.93,-31.44 10.14,-34.1 17.1,-68.91 23.76,-103.83 5.42,-27.76 10.64,-56.02 12.38,-84.38 1.44,-19.97 0.93,-39.93 -2.15,-59.9"
         style="fill:#387fb8;fill-opacity:1;fill-rule:nonzero;stroke:none"
         id="path154" /><path
         d="m 4626.63,1500.6 c -5.58,-8.06 -18.27,-13.32 -27.14,-15.59 -10.12,-2.47 -20.64,-2.47 -30.96,-2.37 -11.98,0 -27.66,2.16 -38.09,-5.06 -3.41,-2.37 -6.19,-5.27 -8.67,-8.36 -26.53,-32.1 -53.88,-63.48 -83.29,-92.99 -18.69,-19.1 -36.95,-38.81 -56.77,-56.87 -13.62,-12.39 -33.75,-35.51 -54.59,-28.28 -9.19,3.1 -17.03,10.53 -23.74,17.24 -5.37,5.26 -10.12,10.83 -14.66,16.82 -1.76,2.27 -3.41,4.54 -5.06,6.81 -11.14,15.69 -20.74,32.82 -30.13,49.34 -18.17,31.99 -36.85,65.12 -50.47,99.28 -6.1,15.28 -13.22,40.36 -1.45,54.81 4.23,5.36 11.25,8.15 18.17,8.67 21.77,1.65 35.4,-14.35 46.03,-30.96 17.24,-26.94 33.33,-54.71 47.27,-83.5 7.53,-15.7 13.21,-32.72 20.85,-48.3 1.03,-2.07 2.16,-4.03 3.2,-5.99 0.72,-1.34 1.44,-2.79 2.17,-4.03 21.67,21.88 47.89,37.68 72.65,55.74 25.8,18.88 51.1,39.12 75.34,59.45 10.64,8.97 20.76,18.68 34.38,23.01 15.48,4.75 30.86,1.86 46.03,-2.17 12.49,-3.19 23.74,-4.64 36.54,-2.78 4.64,0.72 9.49,1.86 14.24,2.68 3.2,0.51 7.12,0.93 8.98,-0.31 1.34,-0.93 1.45,-2.89 -0.83,-6.29"
         style="fill:#ed9bbc;fill-opacity:1;fill-rule:nonzero;stroke:none"
         id="path156" /><path
         d="m 4333.93,1381.29 c -4.96,-3.41 -10.12,-6.82 -11.25,-7.85 -6.81,-5.67 -13.32,-11.76 -19.41,-18.06 -6.29,-6.5 -12.18,-13.31 -17.75,-20.44 -0.52,-0.62 -1.14,-1.75 -1.86,-2.99 -11.14,15.69 -20.74,32.82 -30.13,49.34 -18.17,31.99 -36.85,65.12 -50.47,99.28 -6.1,15.28 -13.22,40.36 -1.45,54.81 4.23,5.36 11.25,8.15 18.17,8.67 21.77,1.65 35.4,-14.35 46.03,-30.96 17.24,-26.94 33.33,-54.71 47.27,-83.5 7.53,-15.7 13.21,-32.72 20.85,-48.3"
         style="fill:#e1e3e1;fill-opacity:1;fill-rule:nonzero;stroke:none"
         id="path158" /><path
         d="m 4201.64,1755.63 v -59.04 c 0,-43.86 -35.92,-79.88 -79.88,-79.88 -30.45,0 -56.98,17.24 -70.39,42.42 -0.83,1.34 -1.56,2.78 -2.17,4.13 -2.06,4.44 -3.71,9.08 -4.95,13.83 -1.55,6.29 -2.38,12.79 -2.38,19.5 v 59.04 c 0,43.96 35.92,79.88 79.89,79.88 21.98,0 41.9,-8.98 56.45,-23.42 1.24,-1.25 2.38,-2.38 3.51,-3.72 0.11,-0.1 0.21,-0.21 0.31,-0.41 12.18,-14.04 19.61,-32.31 19.61,-52.33"
         style="fill:#2f1b14;fill-opacity:1;fill-rule:nonzero;stroke:none"
         id="path160" /><path
         d="m 4249.12,1410.48 c 10.01,44.03 -3.34,77.66 -9.23,118.13 -14.93,5.6 -29.12,12.25 -40.73,21.28 -4.43,3.41 -8.56,7.22 -12.18,11.35 -1.34,1.55 -2.47,3.1 -3.61,4.75 -0.1,0 -0.1,0.1 -0.1,0.1 -2.17,3 -4.13,6.3 -5.99,9.81 -13.62,26.32 -16.2,63.78 -11.25,90.62 h -90.51 c 1.34,-3.41 2.58,-6.91 3.61,-10.43 10.53,-24.87 8.98,-55.84 -4.65,-79.16 -0.72,-1.34 -1.54,-2.68 -2.37,-3.92 -1.23,-1.86 -2.58,-3.72 -3.92,-5.47 -1.03,-1.34 -2.07,-2.58 -3.41,-3.82 -13.7,-15.83 -32.63,-26.09 -52.03,-35.34 -17.55,-47.14 -18.11,-92.42 -3.64,-142.16 10.05,-34.57 21.19,-67.13 22.12,-103.42 1.1,-42.75 -8.55,-84.28 -24.78,-123.3 h 228.75 c -16.26,42.15 -24.2,86.26 -17.87,134.64 5.34,40.63 22.81,76.79 31.79,116.34"
         style="fill:#e38cb3;fill-opacity:1;fill-rule:nonzero;stroke:none"
         id="path162" /><path
         d="m 4199.44,1765.84 c -0.76,5.59 -2.01,10.98 -3.73,16.14 -7.63,22.89 -24.52,40.75 -49.24,47.22 -5.98,1.56 -12.14,2.41 -18.33,2.48 -0.53,0 -1.07,-0.05 -1.61,-0.06 -0.53,0.01 -1.07,0.06 -1.61,0.06 -6.18,-0.07 -12.34,-0.92 -18.33,-2.48 -24.72,-6.47 -41.6,-24.33 -49.24,-47.22 -1.72,-5.16 -2.97,-10.55 -3.73,-16.14 -4.71,-34.38 4.27,-72.62 21.58,-102.47 11.13,-19.17 30.42,-34.78 51.33,-36.69 20.92,1.91 40.21,17.52 51.33,36.69 17.32,29.85 26.3,68.09 21.58,102.47"
         style="fill:#ed9bbc;fill-opacity:1;fill-rule:nonzero;stroke:none"
         id="path164" /><path
         d="m 4201.64,1710.11 c -0.41,-3.61 -0.82,-7.33 -1.24,-10.93 0,-0.63 -0.1,-1.25 -0.2,-1.87 0,-0.2 0,-0.41 -0.1,-0.61 -0.22,-1.66 -0.42,-3.31 -1.04,-4.85 0.52,4.95 0.41,9.9 0.1,14.75 -0.3,3.1 -0.62,6.1 -0.93,9.19 -3.4,21.78 -13,43.04 -19.5,64.41 -1.24,3.82 -2.69,11.03 -2.07,17.44 -2.16,-2.79 -4.84,-5.37 -7.53,-7.85 -19.61,-17.13 -42.63,-29.93 -63.57,-45.41 -20.96,-15.38 -40.57,-34.58 -48.93,-59.24 -2.78,-8.46 -4.34,-17.24 -5.26,-26.01 -0.83,1.34 -1.56,2.78 -2.17,4.13 -1.13,4.64 -2.89,9.28 -4.95,13.83 -3.21,7.32 -6.92,14.44 -9.08,21.36 -4.65,14.45 -7.23,29.52 -7.54,44.59 -0.82,33.64 10.32,64.81 38.49,85.04 14.25,10.22 31.38,16.31 48.82,17.55 15.79,1.03 34.47,1.13 48.61,-6.71 8.68,-4.85 15.8,-13.21 17.96,-23.12 0.52,-2.58 0.52,-5.06 0.21,-7.43 0,-0.21 -0.1,-0.52 -0.1,-0.73 0.1,0.11 0.31,0.21 0.41,0.32 0.41,0.31 0.93,0.61 1.45,0.83 7.95,2.37 13.93,-8.36 15.58,-14.66 7.23,-27.25 5.58,-55.84 2.58,-84.02"
         style="fill:#2f1b14;fill-opacity:1;fill-rule:nonzero;stroke:none"
         id="path166" /><path
         d="m 4206.28,1836.2 c -0.31,3.8 -1.65,7.18 -5.1,9.17 -24.98,14.36 -53.83,20.49 -82.43,19.53 -28.6,0.96 -57.46,-5.17 -82.44,-19.53 -3.45,-1.99 -4.79,-5.37 -5.1,-9.17 -0.74,-8.88 1.17,-17.86 3.5,-26.36 2.42,-8.83 4.74,-16.68 9.24,-22.98 22.37,5.61 45.47,7.77 68.75,8.11 1.97,0.03 4.02,0.07 6.05,0.1 2.02,-0.03 4.07,-0.07 6.03,-0.1 23.29,-0.34 46.39,-2.5 68.75,-8.11 4.52,6.3 6.83,14.15 9.25,22.98 2.33,8.5 4.24,17.48 3.5,26.36"
         style="fill:#edefed;fill-opacity:1;fill-rule:nonzero;stroke:none"
         id="path168" /><path
         d="M 4126.82,1202.79 V 833.602 c -5.27,-75.954 -9.92,-152.02 -13.83,-228.09 -6.93,-51.711 -7.85,-104.762 -7.23,-157.711 -2.17,-54.692 -2.37,-109.192 -4.65,-163.789 -1.13,-27.461 -2.26,-55.012 -3.5,-82.473 -1.35,-33.43 -0.83,-66.461 1.44,-99.801 0.1,-1.027 0.1,-1.9567 0.21,-2.988 0.52,-8.5586 1.24,-17.3398 2.06,-26.0195 0.2,-2.4688 0.42,-4.9492 -0.21,-7.3203 -0.61,-1.8594 -1.54,-3.1993 -2.89,-4.2305 -1.02,-0.6211 -2.26,-1.0313 -3.82,-1.1289 -18.05,-0.5195 -36.01,0.0976 -54.08,0.5078 -13.42,0.2031 -10.62,15.3828 -7.32,24.0508 1.96,5.4687 3.91,10.8398 5.67,16.3126 0.31,0.719 0.62,1.539 0.83,2.258 0,0.109 0.1,0.32 0.1,0.41 5.58,16.621 10.43,33.449 13.32,50.691 6.6,39.731 -6.41,81.219 -13.73,120.231 -8.88,47.168 -15.38,94.75 -21.57,142.34 -5.47,42 -9.19,84.937 -8.47,126.937 0.73,47.07 9.3,94.02 4.76,141.09 -2.69,27.562 -6.82,55.012 -11.26,82.371 -9.08,55.422 -19.3,110.941 -21.57,167.102 -3.82,92.878 20.75,186.798 62.45,269.578 4.13,8.05 7.52,8.05 16.09,4.75 3.31,-1.34 6.92,-1.76 10.43,-2.27 18.78,-2.27 37.77,-3.41 56.77,-3.62"
         style="fill:#ed9bbc;fill-opacity:1;fill-rule:nonzero;stroke:none"
         id="path170" /><path
         d="m 4272.44,934.352 c -2.26,-56.161 -12.38,-111.68 -21.57,-167.102 -4.43,-27.359 -8.57,-54.809 -11.25,-82.371 -4.54,-47.07 4.03,-94.02 4.85,-141.09 0.63,-42 -3.09,-84.937 -8.56,-126.937 -6.19,-47.59 -12.7,-95.172 -21.57,-142.34 -7.33,-39.012 -20.34,-80.5 -13.73,-120.231 2.89,-17.242 7.74,-34.07 13.32,-50.691 0,-0.09 0.09,-0.301 0.09,-0.41 0.42,-1.129 0.73,-2.258 1.15,-3.3987 1.74,-5.1602 3.5,-10.1094 5.36,-15.1719 3.3,-8.668 6.09,-23.8477 -7.33,-24.0508 -18.06,-0.4102 -36.02,-1.0273 -54.08,-0.5078 -1.55,0.0976 -2.79,0.5078 -3.82,1.1289 -1.35,1.0312 -2.27,2.3711 -2.79,4.2305 -0.72,2.3711 -0.51,4.8515 -0.3,7.3203 0.82,8.9883 1.54,17.9609 2.06,26.8398 0.1,0.7187 0.2,1.4497 0.2,2.1677 2.28,33.34 2.8,66.371 1.45,99.801 -1.14,27.461 -2.38,55.012 -3.51,82.473 -2.27,54.597 -2.48,109.097 -4.65,163.789 0.63,52.949 -0.3,106 -7.22,157.711 -3.92,76.07 -8.57,152.136 -13.72,228.09 v 369.188 c 18.88,0.21 37.87,1.35 56.66,3.62 3.5,0.51 7.12,0.93 10.42,2.27 8.57,3.3 11.97,3.3 16.1,-4.75 41.7,-82.78 66.26,-176.7 62.44,-269.578"
         style="fill:#ed9bbc;fill-opacity:1;fill-rule:nonzero;stroke:none"
         id="path172" /><path
         d="m 4293.93,953.961 c -4.37,81.249 -29.08,159.389 -65.63,231.819 -4.94,9.77 -9.17,9.79 -19.51,5.79 -4.07,-1.58 -8.43,-2.17 -12.75,-2.69 -22.96,-2.81 -46.11,-4.12 -69.27,-4.36 -23.17,0.24 -46.31,1.55 -69.28,4.36 -4.32,0.52 -8.67,1.11 -12.74,2.69 -10.35,4 -14.58,3.98 -19.52,-5.79 -36.54,-72.43 -61.26,-150.57 -65.63,-231.819 -4.59,-85.34 8.14,-170.391 21.05,-254.512 -0.14,-3.32 0.86,-6.609 3.25,-9.379 2.11,-2.57 5.24,-4.492 8.97,-5.949 21.15,-8.262 40.31,-18.34 62.73,-23.621 45.74,-10.789 96.58,-10.801 142.34,0 22.41,5.281 41.56,15.359 62.72,23.621 3.73,1.457 6.87,3.379 8.98,5.949 2.38,2.77 3.38,6.059 3.24,9.379 12.91,84.121 25.64,169.172 21.05,254.512"
         style="fill:#e1e3e1;fill-opacity:1;fill-rule:nonzero;stroke:none"
         id="path174" /><path
         d="m 4280.8,1113.14 c -1.34,3.61 -3.1,7.23 -4.54,10.63 -4.34,10.33 -9.18,20.23 -13.93,30.35 -16.41,34.78 -28.7,71.63 -29.72,110.43 -0.93,31.48 4.02,63.17 14.55,92.99 4.13,11.77 10.12,22.6 14.75,34.07 4.86,11.97 6.71,25.59 7.03,38.39 0.51,26.21 -6.61,52.02 -15.8,76.48 -2.99,8.05 -6.19,16.2 -7.22,24.67 -0.93,6.81 -1.65,8.98 -7.95,11.76 -6.09,2.79 -12.7,4.03 -18.99,6.2 -9.7,3.19 -19.1,7.32 -27.25,13.62 -2.58,1.96 -6.29,7.22 -10.11,7.95 -10.01,-17.86 -23.02,-28.8 -48.2,-31.69 -30.14,-3.4 -49.34,8.98 -63.78,34.06 -0.83,-0.21 -1.65,-0.31 -2.59,-0.1 -1.54,-1.34 -3.3,-2.68 -5.05,-3.82 -12.69,-9.52 -27.45,-15.57 -41.6,-22.5 -14.84,-7.28 -28.13,-16.8 -41.98,-25.71 2.28,-10.19 5.91,-28.15 6.14,-30.46 0.64,-6.62 1.2,-13.52 0.77,-20.18 -0.32,-4.87 -2.58,-8.85 -3.38,-13.65 -4.15,-24.92 -1.64,-51.93 9.35,-74.83 10.42,-21.37 18.06,-42.94 21.46,-66.47 3.82,-25.6 5.99,-53.77 1.65,-79.27 -4.74,-28.58 -14.65,-55.93 -26.52,-82.25 -6.89,-15.6 -21.51,-34.37 -22.54,-51.46 -0.28,-4.64 0.66,-9.26 1.59,-13.82 4.02,-19.6 48.18,-26.19 64.1,-30 20.93,-5.01 42.35,-7.88 63.83,-8.94 5.54,-0.28 11.09,-0.44 16.63,-0.48 5.41,-0.05 6.94,-1.12 8.71,4.23 1.74,5.26 2.82,10.85 4.15,16.22 2.79,11.17 5.41,22.38 7.88,33.62 1.98,-10.43 3.96,-20.87 5.95,-31.3 0.99,-5.22 1.99,-10.44 2.98,-15.66 1.33,-7.04 1.53,-6.3 8.26,-5.79 19.04,1.45 37.97,4 56.75,7.39 24.15,4.34 69.56,10.11 76.79,38.81 1.35,5.47 0,11.04 -2.17,16.51"
         style="fill:#edefed;fill-opacity:1;fill-rule:nonzero;stroke:none"
         id="path176" /><path
         d="m 4213.2,60.5586 c -18.06,-0.4102 -36.02,-1.0273 -54.08,-0.5078 -1.55,0.0976 -2.79,0.5078 -3.82,1.1289 -1.35,1.0312 -2.27,2.3711 -2.79,4.2305 -0.72,2.3711 -0.51,4.8515 -0.3,7.3203 0.82,8.9883 1.54,17.9609 2.06,26.8398 5.37,-2.0586 9.91,-6.3984 15.79,-8.1484 6.09,-1.961 12.49,-2.6836 18.79,-2.1719 9.49,0.8281 18.78,4.5391 26.32,10.5313 1.74,-5.1602 3.5,-10.1094 5.36,-15.1719 3.3,-8.668 6.09,-23.8477 -7.33,-24.0508"
         style="fill:#e7edef;fill-opacity:1;fill-rule:nonzero;stroke:none"
         id="path178" /><path
         d="m 4101.11,65.4102 c -0.61,-1.8594 -1.54,-3.1993 -2.89,-4.2305 -1.02,-0.6211 -2.26,-1.0313 -3.82,-1.1289 -18.05,-0.5195 -36.01,0.0976 -54.08,0.5078 -13.42,0.2031 -10.62,15.3828 -7.32,24.0508 1.96,5.4687 3.91,10.8398 5.67,16.3126 1.04,-0.422 1.96,-1.0431 3,-1.5509 10.53,-5.582 22.7,-8.9805 34.78,-8.3594 1.65,0.0977 3.3,0.1992 4.85,0.4102 6.81,1.0273 12.28,3.3984 17.75,7.2187 0.1,0 0.1,0.1094 0.21,0.1094 0.52,-8.5586 1.24,-17.3398 2.06,-26.0195 0.2,-2.4688 0.42,-4.9492 -0.21,-7.3203"
         style="fill:#e7edef;fill-opacity:1;fill-rule:nonzero;stroke:none"
         id="path180" /><path
         d="m 4191.73,1562.73 c -1.65,-8.98 -3.71,-17.85 -6.19,-26.63 -2.58,-9.19 -5.88,-18.47 -12.28,-25.6 -6.3,-7.12 -16.41,-11.66 -25.59,-8.87 -9.81,2.89 -15.59,12.69 -19.93,21.98 -2.16,4.54 -3.5,9.09 -3.92,14.25 -0.82,-5.89 -2.37,-11.77 -4.54,-17.34 -3.71,-9.09 -9.91,-18.07 -19.3,-20.95 -8.26,-2.59 -17.65,0.41 -24.05,6.19 -6.4,5.88 -10.11,14.14 -12.07,22.5 -1.86,8.46 -1.97,17.23 -2.07,25.8 0,4.44 -0.1,8.77 -0.1,13.11 0.41,0.61 0.52,1.23 0.31,1.96 1.75,1.14 3.51,2.48 5.05,3.82 0.94,-0.21 1.76,-0.11 2.59,0.1 14.44,-25.08 33.64,-37.46 63.78,-34.06 25.18,2.89 38.19,13.83 48.2,31.69 3.82,-0.73 7.53,-5.99 10.11,-7.95"
         style="fill:#ffffff;fill-opacity:1;fill-rule:nonzero;stroke:none"
         id="path182" /><path
         d="m 4143.73,1835.07 h -17.83 v 17.84 h -14.31 v -17.84 h -17.83 v -14.3 h 17.83 v -17.83 h 14.31 v 17.83 h 17.83 v 14.3"
         style="fill:#ef3343;fill-opacity:1;fill-rule:nonzero;stroke:none"
         id="path184" /><path
         d="m 4130.46,1508.73 c 0,-3.34 -2.72,-6.05 -6.06,-6.05 -3.35,0 -6.05,2.71 -6.05,6.05 0,3.35 2.7,6.06 6.05,6.06 3.34,0 6.06,-2.71 6.06,-6.06"
         style="fill:#70767a;fill-opacity:1;fill-rule:nonzero;stroke:none"
         id="path186" /><path
         d="m 4130.46,1444.11 c 0,-3.34 -2.72,-6.05 -6.06,-6.05 -3.35,0 -6.05,2.71 -6.05,6.05 0,3.35 2.7,6.06 6.05,6.06 3.34,0 6.06,-2.71 6.06,-6.06"
         style="fill:#70767a;fill-opacity:1;fill-rule:nonzero;stroke:none"
         id="path188" /><path
         d="m 4130.46,1379.49 c 0,-3.34 -2.72,-6.06 -6.06,-6.06 -3.35,0 -6.05,2.72 -6.05,6.06 0,3.35 2.7,6.06 6.05,6.06 3.34,0 6.06,-2.71 6.06,-6.06"
         style="fill:#70767a;fill-opacity:1;fill-rule:nonzero;stroke:none"
         id="path190" /><path
         d="m 4130.46,1314.87 c 0,-3.35 -2.72,-6.06 -6.06,-6.06 -3.35,0 -6.05,2.71 -6.05,6.06 0,3.34 2.7,6.05 6.05,6.05 3.34,0 6.06,-2.71 6.06,-6.05"
         style="fill:#70767a;fill-opacity:1;fill-rule:nonzero;stroke:none"
         id="path192" /><path
         d="m 4130.46,1250.24 c 0,-3.34 -2.72,-6.05 -6.06,-6.05 -3.35,0 -6.05,2.71 -6.05,6.05 0,3.35 2.7,6.06 6.05,6.06 3.34,0 6.06,-2.71 6.06,-6.06"
         style="fill:#70767a;fill-opacity:1;fill-rule:nonzero;stroke:none"
         id="path194" /><path
         d="m 4130.46,1185.63 c 0,-3.35 -2.72,-6.06 -6.06,-6.06 -3.35,0 -6.05,2.71 -6.05,6.06 0,3.34 2.7,6.05 6.05,6.05 3.34,0 6.06,-2.71 6.06,-6.05"
         style="fill:#70767a;fill-opacity:1;fill-rule:nonzero;stroke:none"
         id="path196" /><path
         d="m 4130.46,1121 c 0,-3.34 -2.72,-6.05 -6.06,-6.05 -3.35,0 -6.05,2.71 -6.05,6.05 0,3.35 2.7,6.05 6.05,6.05 3.34,0 6.06,-2.7 6.06,-6.05"
         style="fill:#70767a;fill-opacity:1;fill-rule:nonzero;stroke:none"
         id="path198" /><path
         d="m 4101.63,1168.55 c 0.03,0.81 0.04,1.62 0.03,2.43 -12.52,-3.79 -25.6,-5.59 -40.05,-4.16 -15.18,1.52 -34.75,5.91 -47.28,16.89 -0.34,-0.37 -0.79,-0.65 -1.14,-1 -1.42,-1.42 -2.03,-8.57 -2.76,-10.73 -3.71,-10.96 -6.93,-22.09 -10.41,-33.13 -1.77,-5.64 -3.6,-11.27 -5.6,-16.83 -1.75,-4.91 -4.5,-9.83 -1.56,-14.91 1.7,-2.91 5.05,-4.34 8.19,-5.56 14.3,-5.53 28.89,-10.4 43.65,-14.58 9.19,-2.6 29.48,-11.89 37.17,-2.33 2.6,3.24 3.6,7.43 4.52,11.47 2.87,12.59 5.85,25.16 8.59,37.77 2.38,11 6.26,23.25 6.65,34.67"
         style="fill:#ffffff;fill-opacity:1;fill-rule:nonzero;stroke:none"
         id="path200" /><path
         d="m 4144.7,1170.57 c -0.03,0.82 -0.04,1.63 -0.03,2.44 12.52,-3.8 25.59,-5.6 40.04,-4.16 15.19,1.51 34.76,5.91 47.29,16.88 0.33,-0.36 0.78,-0.64 1.13,-1 1.42,-1.41 2.04,-8.57 2.77,-10.72 3.71,-10.97 6.93,-22.09 10.4,-33.13 1.78,-5.64 3.61,-11.27 5.6,-16.84 1.76,-4.91 4.51,-9.83 1.57,-14.9 -1.7,-2.91 -5.06,-4.35 -8.2,-5.56 -14.3,-5.53 -28.89,-10.4 -43.64,-14.58 -9.19,-2.61 -29.48,-11.89 -37.18,-2.33 -2.59,3.23 -3.59,7.43 -4.51,11.47 -2.87,12.59 -5.85,25.15 -8.59,37.77 -2.4,10.99 -6.26,23.25 -6.65,34.66"
         style="fill:#ffffff;fill-opacity:1;fill-rule:nonzero;stroke:none"
         id="path202" /><path
         d="m 3980.43,925.391 -83.28,132.669 c -4.41,7.01 -2.29,16.27 4.73,20.67 l 207.98,130.57 c 7.01,4.41 16.27,2.29 20.68,-4.73 l 83.29,-132.66 c 4.4,-7.01 2.28,-16.27 -4.74,-20.68 L 4001.11,920.66 c -7.01,-4.398 -16.27,-2.281 -20.68,4.731"
         style="fill:#8ac8be;fill-opacity:1;fill-rule:nonzero;stroke:none"
         id="path204" /><path
         d="m 4024.96,950.699 c 5.3,3.332 10.84,6.36 16.13,9.301 27.31,15.16 54.33,30.871 80.5,47.93 13.39,8.73 26.69,17.7 39.44,27.34 11.46,8.68 21.59,19.16 33.79,26.83 1.68,1.38 3.41,2.86 4.29,4.85 1.73,3.93 -0.34,8.42 -2.39,12.19 -9.96,18.35 -20.49,36.39 -31.02,54.42 -11.06,18.96 -26.38,34.03 -39.76,51.33 -1.88,2.42 -4.39,5.11 -7.41,4.61 -1.04,-0.17 -1.97,-0.71 -2.88,-1.25 -63.56,-37.58 -127.13,-75.16 -190.7,-112.75 -1.26,-0.74 -2.61,-1.58 -3.15,-2.95 -2.03,-5.11 7.33,-16.16 9.78,-20.34 4.88,-8.32 9.87,-16.57 14.94,-24.77 9.9,-15.97 20.17,-31.702 30.79,-47.19 4.86,-7.078 9.79,-14.109 14.8,-21.09 3.72,-5.18 7,-10.691 11.06,-15.629 2.85,-3.461 4.91,-5.73 8.97,-2.16 3.9,3.418 8.27,6.488 12.82,9.328"
         style="fill:#edefed;fill-opacity:1;fill-rule:nonzero;stroke:none"
         id="path206" /><path
         d="m 4180.49,1143.46 c -1.87,2.98 -5.8,3.88 -8.78,2.01 -2.98,-1.87 -3.88,-5.81 -2.01,-8.79 1.87,-2.97 5.81,-3.87 8.79,-2 2.96,1.86 3.87,5.8 2,8.78 z m -12.97,-8.15 c -2.63,4.18 -1.36,9.72 2.82,12.34 4.17,2.63 9.71,1.36 12.34,-2.82 2.62,-4.18 1.35,-9.71 -2.83,-12.34 -4.18,-2.62 -9.71,-1.35 -12.33,2.82"
         style="fill:#1a181a;fill-opacity:1;fill-rule:nonzero;stroke:none"
         id="path208" /><path
         d="m 4178.02,1090.12 -46.64,74.3 20.4,12.8 46.64,-74.3 -20.4,-12.8"
         style="fill:#66422d;fill-opacity:1;fill-rule:nonzero;stroke:none"
         id="path210" /><path
         d="m 4094.3,966.512 c 10.82,-1.602 24.74,3.726 29.96,11.558 2.25,3.379 2.67,7.61 2.8,11.918 -3.05,8.34 -6.99,16.242 -10.26,24.452 -3.57,8.96 -8.25,17.08 -15.4,23.77 -4.86,4.65 -10.63,8.16 -16.11,11.98 -4.02,2.68 -7.94,5.57 -11.45,8.87 -11.05,10.53 -16.72,25.18 -21.15,39.63 -6.21,19.92 -10.84,40.46 -15.9,60.79 -4.03,16.31 -8.47,32.41 -14.35,47.79 -2.78,7.43 -5.88,14.66 -9.39,21.68 -2.38,4.64 -4.85,9.18 -7.64,13.62 -4.34,7.02 -9.29,13.72 -11.05,21.78 -2.16,8.77 -0.41,17.95 1.45,26.83 0.72,3.72 1.45,7.53 2.27,11.25 2.79,13.73 5.58,27.35 8.37,40.87 -3.83,13.22 -8.98,25.91 -15.18,38.5 -10.94,22.91 -13.41,49.95 -9.29,74.83 0.83,4.85 3,8.77 3.3,13.62 0.52,6.71 -0.1,13.63 -0.72,20.23 -0.2,2.27 -3.82,20.23 -6.21,30.58 -0.34,-0.26 -0.67,-0.5 -1.03,-0.63 -4.65,-3.16 -8.77,-7.32 -11.75,-12.09 -5.68,-9.39 -8.26,-20.34 -10.42,-31.07 -6.71,-33.13 -10.22,-66.88 -13.52,-100.53 -2.68,-26.83 -5.17,-54.18 -4.34,-81.12 0.41,-19.1 2.58,-38.08 7.23,-56.66 8.15,-32.51 23.84,-62.14 40.25,-91.55 12.8,-23.02 26.11,-45.83 36.64,-69.87 2.79,-6.2 5.26,-12.49 8.05,-18.69 1.55,-3.5 3.2,-7.01 4.95,-10.53 4.75,-8.66 10.53,-16.92 16.2,-24.77 10.07,-13.91 39.39,-27.71 33.79,-48.562 -0.27,-1.008 -0.64,-2.047 -0.34,-3.039 0.23,-0.75 0.82,-1.328 1.43,-1.82 2.4,-1.969 5.46,-3.117 8.81,-3.617"
         style="fill:#ed9bbc;fill-opacity:1;fill-rule:nonzero;stroke:none"
         id="path212" /><path
         d="m 3991.27,1381.8 c -10.94,22.91 -13.41,49.95 -9.29,74.83 0.83,4.85 3,8.77 3.3,13.62 0.52,6.71 -0.1,13.63 -0.72,20.23 -0.2,2.27 -3.82,20.23 -6.09,30.45 l 0.04,0.02 c -0.03,0.04 -0.05,0.09 -0.07,0.12 -0.04,0 -0.06,-0.01 -0.09,-0.01 -0.34,-0.26 -0.67,-0.5 -1.03,-0.63 -4.65,-3.16 -8.77,-7.32 -11.75,-12.09 -5.68,-9.39 -8.26,-20.34 -10.42,-31.07 -6.71,-33.13 -10.22,-66.88 -13.52,-100.53 -2.68,-26.83 -5.17,-54.18 -4.34,-81.12 8.77,1.76 17.65,3.09 26.63,4.13 11.35,1.23 22.6,1.96 34.16,2.68 2.79,13.73 5.58,27.35 8.37,40.87 -3.83,13.22 -8.98,25.91 -15.18,38.5"
         style="fill:#e1e3e1;fill-opacity:1;fill-rule:nonzero;stroke:none"
         id="path214" /><path
         d="m 5862.39,1358.61 c 0.27,0.25 0.53,0.5 0.8,0.75 12.08,11.35 24.55,22.3 37.37,32.83 12.97,10.66 24.74,24.22 41.3,29.36 15.54,4.83 30.89,1.85 46.2,-2.16 12.45,-3.27 23.86,-4.68 36.68,-2.78 4.79,0.7 9.51,1.81 14.28,2.62 3.31,0.57 7.3,0.97 9.11,-0.28 1.36,-0.95 1.49,-2.84 -0.86,-6.32 -5.48,-8.08 -18.27,-13.4 -27.34,-15.66 -10.14,-2.53 -20.74,-2.47 -31.13,-2.43 -11.73,0.05 -24.53,1.24 -35.6,-3.51 -6,-2.58 -9.35,-7.24 -13.25,-12.26 -4.82,-6.19 -9.38,-12.57 -13.94,-18.96 -8.01,-11.22 -16.03,-22.49 -25.35,-32.68 -11.24,-12.31 -24.25,-22.9 -38.09,-32.19 -3.58,-2.4 -7.26,-4.73 -11.33,-6.14 -8.78,-3.02 -22.26,0.02 -25.75,9.69 -2.13,5.89 0.17,11.79 3.02,16.98 8.72,15.94 20.74,30.63 33.88,43.14"
         style="fill:#ed9bbc;fill-opacity:1;fill-rule:nonzero;stroke:none"
         id="path216" /><path
         d="m 5590.19,1450.2 c 0.94,10.25 6.16,20.04 14.16,26.52 5.17,4.2 10.54,6.7 15.94,7.83 23.63,4.95 47.98,-16.3 60.95,-35.58 16.23,-24.14 26.86,-50.61 37.51,-77.47 6.6,-16.63 13.69,-33.07 21.26,-49.29 6.06,-13 16.04,-27.11 19.52,-41.43 1.98,2.95 4.65,5.42 7.77,7.31 4.68,4.27 10.44,8.08 13.09,10.15 10.47,8.2 20.93,16.41 31.38,24.64 22.06,17.35 45.18,33.97 66.39,52.3 4.45,3.84 8.55,8.02 12.44,12.42 1.31,1.49 2.85,2.2 4.75,2.51 1.62,-15.85 2.71,-31.68 4.98,-47.47 1.22,-8.51 2.58,-17 4,-25.48 0.93,-5.58 5.5,-17.12 1.74,-21.86 -5.25,-6.63 -12.64,-11.55 -18.88,-17.19 -7.15,-6.47 -13.98,-13.3 -20.75,-20.15 -13.61,-13.75 -27.1,-27.72 -42.56,-39.42 -12.5,-9.46 -25.74,-17.99 -39.7,-25.14 -24.25,-12.42 -43.55,-7.27 -61.53,12.15 -30.41,32.82 -52.9,72.03 -75.13,110.87 -12.25,21.4 -24.51,42.83 -35.37,64.99 -10.08,20.54 -24.11,45.1 -21.96,68.79"
         style="fill:#e7edef;fill-opacity:1;fill-rule:nonzero;stroke:none"
         id="path218" /><path
         d="m 5524.55,1721.8 c 0,-35.43 28.72,-64.15 64.14,-64.15 35.43,0 64.14,28.72 64.14,64.15 0,35.42 -28.71,64.14 -64.14,64.14 -35.42,0 -64.14,-28.72 -64.14,-64.14"
         style="fill:#2f1b14;fill-opacity:1;fill-rule:nonzero;stroke:none"
         id="path220" /><path
         d="m 5284.85,1342.56 c 2.78,6.95 6.12,13.73 10,20.28 13.06,22.02 30.51,40.95 48.49,59.02 18.09,18.19 35.14,38.41 51.4,58.44 28.01,34.5 47.15,72.84 61.07,114.99 9.57,29 15.7,58.95 22.76,88.62 6.07,25.53 11.86,54.67 29.33,75.24 8.07,9.5 18.65,16.2 33.08,17.35 29.52,2.35 54.41,-24.47 65.63,-49.08 9.44,-20.71 13.49,-43.4 17.43,-65.82 4.14,-23.45 8.27,-46.9 12.4,-70.35 10.41,-59.05 20.86,-118.59 19.11,-178.52 -0.83,-28.39 -4.41,-56.64 -9.15,-84.64 -6.62,-39.05 -16.42,-79.54 -42.74,-109.14 -60.67,-68.26 -195.27,-79.85 -268.71,-27.42 -14.25,10.17 -26.69,22.73 -37.1,36.79 -24.81,33.46 -28.31,75.88 -13,114.24"
         style="fill:#2f1b14;fill-opacity:1;fill-rule:nonzero;stroke:none"
         id="path222" /><path
         d="m 5673.44,1315.91 c -2.6,-30.4 -4.8,-61 -5.1,-91.5 -0.4,-30.8 1.3,-61.5 6.3,-91.6 0.7,-10.8 1.8,-21.9 3.41,-32.9 1.19,-9.3 2.79,-18.6 4.79,-27.8 -24.4,-10.1 -50.99,-15.59 -78.4,-17.6 -46.39,-3.3 -95.2,3.01 -139.9,12.6 -0.19,0.1 -0.5,0.1 -0.6,0.3 -2.7,4.4 4.5,15.4 6.1,19.6 2.8,7.5 5.51,15.1 7.8,23.01 0.4,1 0.7,1.99 1,2.99 4.7,16.01 8.01,32.4 10.3,49 0.61,3.3 1.01,6.51 1.41,9.8 1.09,8.8 1.79,17.6 2.19,26.4 0.4,11.81 0.4,23.5 -0.2,35.31 -1.1,28 -4.8,55.79 -9.2,83.39 -7.6,48.3 -19.5,95.7 -35.2,141.9 -2.59,7.4 -5.3,14.71 -7.99,22.1 20.89,12.3 43.39,22.5 62.39,37.41 6.7,5.29 14.4,12.29 19.71,20.39 0.29,0.4 0.69,0.7 0.99,1.1 1,1.5 2,3.1 2.8,4.7 0.6,1.2 1.21,2.4 1.61,3.6 2.69,5.91 4.2,12.2 4.89,18.8 2,17.01 -1.2,35.4 -3.4,51.41 0,0 76.2,0 76.3,0 -3.1,0 0.9,-33.91 2.7,-47.5 0.1,-6.71 0.9,-12.91 2.3,-18.71 0.7,-4.4 1.6,-8.79 3.2,-12.9 2.1,-5.8 5.4,-11.1 9.3,-15.89 1.3,-1.41 2.61,-2.81 3.91,-4.21 0.4,-0.5 0.89,-1.1 1.29,-1.59 0.2,-0.31 0.3,-0.51 0.7,-0.71 6.6,-8.4 14.5,-15.99 22.8,-23.4 8.8,-8 18.11,-15.7 27,-23.7 0.71,-0.79 1.3,-1.7 1.91,-2.5 0.39,-0.5 0.79,-1 1.09,-1.6 0.1,-0.1 0.1,-0.2 0.21,-0.3 2.19,-2.9 4.29,-5.9 6.2,-9 v -0.29 c -5.31,-46.31 -10.71,-93.31 -14.61,-140.11"
         style="fill:#e38cb3;fill-opacity:1;fill-rule:nonzero;stroke:none"
         id="path224" /><path
         d="m 5500.05,1673.84 c 3.05,1.57 6.04,2.2 8.95,2.21 -0.35,8.85 0.56,17.68 4.28,25.26 6.59,13.44 16.13,26.33 27.43,36.17 10.39,9.05 22.71,15.74 35.47,20.79 11.51,4.55 24.33,9.4 36.51,4.71 12.19,-4.68 20.6,-16.19 26.72,-27.21 13.46,-24.24 19.43,-51.98 17.13,-79.62 -1.15,-13.92 -4.31,-27.65 -9.05,-40.78 -4.1,-11.38 -9.02,-28.01 -20.16,-34.35 -13.24,-7.56 -33.78,-2.33 -47.46,1.7 -17.59,5.18 -34.49,14.21 -47.08,27.74 -0.15,0.17 -0.28,0.35 -0.44,0.52 -15.96,3.91 -30.84,12.53 -39.66,26.56 -7.73,12.3 -6.55,29.16 7.36,36.3"
         style="fill:#ed9bbc;fill-opacity:1;fill-rule:nonzero;stroke:none"
         id="path226" /><path
         d="m 5512.16,1765.3 c 11.63,12.92 28.22,21.36 45.53,23.51 24.14,2.99 50.49,-5.25 67.62,-22.7 2.13,-2.17 10.6,-9.34 8.96,-13 -0.33,-0.71 -0.58,-1.4 -0.96,-2.14 -12.35,-23.97 -30.73,-45.04 -53.68,-59.2 -8.64,-5.34 -17.92,-9.65 -27.58,-12.81 -8.93,-2.91 -18.39,-3.72 -26.91,-7.75 -15.43,-7.29 -27.78,-21.09 -32.94,-37.41 -1.2,-3.79 -2.88,-8.48 -6.85,-8.9 -2.13,-0.22 -4.22,1.06 -5.45,2.82 -1.23,1.76 -1.74,3.92 -2.01,6.05 -1.64,12.69 4,25.03 7.57,37.34 1.75,6.03 3.02,12.2 4.28,18.36 2,9.75 4.04,19.13 4.6,29 0.53,9.68 2.42,19.32 6.11,28.32 2.82,6.87 6.82,13.09 11.71,18.51"
         style="fill:#2f1b14;fill-opacity:1;fill-rule:nonzero;stroke:none"
         id="path228" /><path
         d="m 5513.44,65.0391 c -0.5,-1.6993 -1.41,-3 -2.6,-3.8985 -1.01,-0.6015 -2.21,-1 -3.6,-1.1015 -16.8,-0.5 -33.61,0.1015 -50.4,0.5 -12.5,0.1992 -9.91,14.2929 -6.91,22.4023 2.21,5.7969 4.2,11.4883 6.1,17.2886 0,0.11 0.1,0.309 0.1,0.399 5.21,15.512 9.71,31.211 12.4,47.312 1.11,6.598 1.91,13.098 2.41,19.7 1.2,15.089 1.3,30.199 1.39,45.398 l 37.6,-2.898 c -0.8,-14.801 -1,-29.602 -0.9,-44.403 0.1,-22.398 1.01,-44.597 2.5,-66.7966 0.61,-9 1.3,-18 2.1,-27.1016 0.21,-2.3007 0.4,-4.6015 -0.19,-6.8007"
         style="fill:#f086a5;fill-opacity:1;fill-rule:nonzero;stroke:none"
         id="path230" /><path
         d="m 5513.44,65.0391 c -0.5,-1.6993 -1.41,-3 -2.6,-3.8985 -1.01,-0.6015 -2.21,-1 -3.6,-1.1015 -16.8,-0.5 -33.61,0.1015 -50.4,0.5 -12.5,0.1992 -9.91,14.2929 -6.91,22.4023 2.21,5.7969 4.2,11.4883 6.1,17.2886 2.5,-1.0894 5.71,-3.8902 7.5,-4.7886 7.01,-3.5117 15,-5.3008 22.9,-5 8.9,0.2969 17.81,3.3984 25.1,8.5 0.61,-9 1.3,-18 2.1,-27.1016 0.21,-2.3007 0.4,-4.6015 -0.19,-6.8007"
         style="fill:#2f1b14;fill-opacity:1;fill-rule:nonzero;stroke:none"
         id="path232" /><path
         d="m 5692.75,120.719 c -12.87,1.691 -24.97,5.492 -36.68,11.222 -0.96,0.391 -1.81,0.77 -2.76,1.278 -8.49,4.371 -16.49,9.429 -24.35,14.73 -7.13,4.821 -15.73,9.332 -20.46,16.762 -5.92,9.129 -5.06,19.117 -5.55,29.551 -0.51,10.308 -0.62,20.687 -0.98,31.097 l -50.32,-0.25 c 0.75,-2.918 1.64,-5.738 1.9,-7.558 1.85,-8.961 3.04,-17.949 4.61,-26.992 1.45,-8.137 3.22,-16.688 2.84,-25.09 -0.47,-9.02 -3.46,-17.699 -5.8,-26.328 -0.23,-0.743 -0.33,-1.493 -0.57,-2.352 -0.92,-3.848 -1.7,-7.707 -2.11,-11.609 -0.32,-4.18 -1.32,-8.66 0.04,-12.809 2.09,-6.172 9.9,-5.191 15.3,-5.051 32.5,0.918 65.07,1.442 97.63,0.942 7.87,-0.121 15.69,-0.223 23.51,-0.34 0.32,0.187 0.68,0.277 0.98,0.476 2.72,1.75 5.98,4.743 5.48,8.352 -0.25,1.77 -1.37,2.949 -2.71,3.969"
         style="fill:#f086a5;fill-opacity:1;fill-rule:nonzero;stroke:none"
         id="path234" /><path
         d="m 5689,107.922 c 0.32,0.187 0.68,0.277 0.98,0.476 2.72,1.75 5.98,4.743 5.48,8.352 -0.25,1.77 -1.37,2.949 -2.71,3.969 -12.87,1.691 -24.97,5.492 -36.68,11.222 -8.31,-0.902 -16.82,-1.39 -25.32,-1.761 -18.38,-0.551 -36.72,0.039 -54.91,2.672 -4.65,0.636 -9.13,1.507 -13.62,2.378 -2.25,0.43 -4.48,1 -6.71,1.43 l -0.88,0.129 c -0.92,-3.848 -1.7,-7.707 -2.11,-11.609 -0.32,-4.18 -1.32,-8.66 0.04,-12.809 2.09,-6.172 9.9,-5.191 15.3,-5.051 32.5,0.918 65.07,1.442 97.63,0.942 7.87,-0.121 15.69,-0.223 23.51,-0.34"
         style="fill:#2f1b14;fill-opacity:1;fill-rule:nonzero;stroke:none"
         id="path236" /><path
         d="m 5669.04,1131.68 c -57.17,-10.93 -116.22,-13.47 -174.02,-6.39 -3.7,0.45 -7.44,0.95 -10.93,2.3 -8.86,3.43 -12.49,3.42 -16.72,-4.96 -43.51,-86.24 -69.07,-184.079 -65.1,-280.919 2.41,-58.582 12.95,-116.391 22.44,-174.121 4.67,-28.52 9.01,-57.121 11.78,-85.891 4.73,-49.078 -4.22,-97.988 -5.02,-147.027 -0.7,-43.82 3.16,-88.551 8.85,-132.352 4.24,-32.582 9.26,-65.09 13.87,-97.629 0.87,-6.132 1.34,-14.019 3.77,-20.132 h 69.03 c 6.62,230.363 18.97,460.55 37.13,690.273 1.54,-83.043 0.89,-166.062 -2.12,-249.043 -1.55,-28 -3.1,-56 -4.66,-83.988 -0.39,-7.039 -5.15,-15.719 -6.92,-22.692 -2.16,-8.519 -3.88,-17.16 -5.24,-25.839 -2.72,-17.36 -4.12,-35 -4.54,-52.571 -1.91,-79.758 -5.39,-159.449 -5.04,-239.258 h 83.01 c 0.11,0.821 0.28,1.598 0.26,2.508 -2.18,101.301 4.88,200.301 21.52,300.192 8.86,53.14 19.16,106.07 31.43,158.55 17.67,75.637 41.64,148.75 46.21,226.981 4.76,81.457 -6.43,170.848 -48.99,242.008"
         style="fill:#060707;fill-opacity:1;fill-rule:nonzero;stroke:none"
         id="path238" /><path
         d="m 5704.75,1106.81 c -3.41,16.1 -6.61,32.3 -9.6,48.6 -3.71,13.9 -7.1,28.11 -9.81,42.3 -3.09,16.31 -5.19,32.7 -5.8,48.9 -0.7,20.5 4.3,40.4 11.4,59.5 12.8,37.5 32.3,70.31 15.7,113.91 -2.8,7.39 -6.2,14.79 -10.1,21.99 -0.3,0.51 -0.6,1.1 -0.9,1.6 -2.4,4.2 -5,8.3 -7.59,12.41 v 0.29 c -0.91,1.6 -1.91,3.1 -3.01,4.6 -1,1.5 -2.1,2.9 -3.19,4.4 -0.11,0.1 -0.11,0.2 -0.21,0.3 -0.3,0.6 -0.7,1.1 -1.09,1.6 -0.61,0.8 -1.2,1.71 -1.91,2.5 -3.4,4.5 -6.79,8.81 -10.3,13.1 -0.4,0.51 -0.8,1 -1.09,1.5 -1.41,1.71 -2.9,3.4 -4.6,5.1 -1.71,2.01 -3.61,4 -5.51,5.9 -2.6,2.7 -5.2,5.2 -7.79,7.7 -2.91,2.7 -5.91,5.31 -8.71,8.1 -1.2,0.8 -2.4,1.7 -3.6,2.6 -0.9,0.7 -1.89,1.5 -2.9,2.31 -0.4,0.29 -0.7,0.59 -1.09,0.89 -1.31,1.1 -2.61,2.2 -4.01,3.6 -0.1,0.1 -0.3,0.2 -0.4,0.31 -0.1,0.2 -0.3,0.39 -0.5,0.39 -1.9,1.8 -3.6,3.6 -5.2,5.4 0.4,-0.4 0.3,-1.59 0,-3.3 -4.83,-23.17 -18.96,-42.84 -26.6,-64.99 -12.7,15.09 -24.8,30.7 -36.3,46.7 -5.69,7.89 -11.4,16 -16.8,24.19 -4.6,6.81 -10.1,12.8 -15.59,18.9 -0.71,0.91 -1.51,1.7 -2.31,2.6 -0.99,-1.9 -2,-3.7 -3.3,-5.5 -0.3,-0.5 -0.6,-0.9 -1,-1.29 -1,-1.51 -2,-2.9 -3.2,-4.31 -1.4,-1.9 -2.9,-3.59 -4.7,-5.2 -1.9,-2 -3.9,-3.8 -6,-5.49 -1.9,-1.61 -3.9,-3.21 -6,-4.61 -5.3,-4.9 -11.3,-9.2 -17.6,-12.7 -4.6,-2.59 -9.4,-4.9 -14,-6.8 -4.39,-1.7 -8.7,-3.5 -13,-5.4 -0.99,-0.39 -1.9,-0.8 -3,-1.2 -1.1,-0.5 -2.1,-1.1 -3.1,-1.69 -0.1,-0.1 -0.29,-0.21 -0.4,-0.31 -3.3,-2.19 -5.9,-5.3 -7.7,-8.8 -7.9,-8.2 -14.69,-18.3 -19.9,-29.09 0.3,-4.11 0.61,-8.21 0.7,-12.3 0.7,-2.31 1.4,-4.6 2.2,-6.91 2.5,-8 5.8,-16 6.8,-24.2 0.11,-0.7 0.11,-1.3 0.11,-1.9 0,-0.7 0,-1.4 0.09,-1.99 0,-1 0,-2.1 0.1,-3.11 v -0.6 c 0.5,-6.6 1.3,-13 2.6,-19.4 -0.1,-0.3 -0.1,-0.5 -0.2,-0.8 2.41,-11.7 6.5,-23.3 12.01,-33.3 0.8,-1.5 1.59,-2.9 2.39,-4.3 6.8,-11.4 15.4,-21.3 19.8,-34.1 12,-34.9 23.8,-59.1 11,-96.8 -3.3,-9.59 -7.39,-18.9 -11.99,-28 -5.21,-10.7 -10.91,-21.2 -16.31,-31.8 -0.1,-0.29 -0.3,-0.49 -0.4,-0.8 -11.99,-23.3 -22.3,-47.5 -31,-72.19 -4.1,-11.61 -8,-20.51 -8.7,-28.11 7.3,-4.9 14.7,-9.7 22.2,-14.1 33.7,-20.2 69.6,-35.6 108.3,-40.7 8.3,-0.3 16.6,-0.39 24.9,0.1 13.6,0.8 27.1,2.5 40.5,4.8 15.9,2.8 31.7,6.6 47.21,11.21 17.19,7.19 33.79,15.89 50.09,25.19 3.8,2.21 7.6,4.4 11.4,6.7 -3.99,18.6 -7.8,37.2 -11.49,55.9"
         style="fill:#f6a659;fill-opacity:1;fill-rule:nonzero;stroke:none"
         id="path240" /><path
         d="m 5615.1,1329.11 c 0.09,0 0.09,-0.1 0.09,-0.1 -0.09,0 -0.09,-0.1 -0.09,-0.1 0,0.1 0,0.1 0,0.2"
         style="fill:#111111;fill-opacity:1;fill-rule:nonzero;stroke:none"
         id="path242" /><path
         d="m 5790.94,719.719 c -25.2,110.59 -51.3,220.492 -74.7,331.191 -3.99,18.6 -7.8,37.2 -11.49,55.9 -3.41,16.1 -6.61,32.3 -9.6,48.6 -2.1,10.41 -4.11,20.8 -6.01,31.2 -5.2,27.8 -10.4,56.5 -6.8,84.91 1.6,12.19 4.8,23.59 8.6,34.59 9.24,26.76 22.79,53.32 22.07,82.32 -0.91,36.7 -23.32,68.63 -45.76,95.88 -1.41,1.71 -2.9,3.4 -4.6,5.1 -1.71,2.01 -3.61,4 -5.51,5.9 -2.6,2.7 -5.2,5.2 -7.79,7.7 -2.91,2.7 -5.91,5.31 -8.71,8.1 -2.3,2.21 -4.5,4.5 -6.5,7.21 -0.6,0.79 -3.5,5.29 -4.7,3.2 -0.2,-0.31 -0.3,-0.61 -0.4,-1.11 -0.2,-1.3 0,-2.6 -0.2,-3.6 -2.54,-20.71 1.12,-42.59 -0.12,-63.54 -2.81,-47.78 -17.73,-94.29 -26.39,-141.22 -8.92,-48.37 -15.09,-97.5 -13.9,-146.78 1.34,-55.93 7.88,-111.48 11.75,-167.348 7.42,-107.461 11.19,-215.063 17.16,-322.613 1.2,-20.797 2.9,-41.598 2.41,-62.5 -0.4,-18.09 -2.61,-38.989 4.89,-56.098 9.5,3.809 18.7,8.41 27.7,13.5 39.1,22.598 73.6,56 102.41,89.199 12.99,15 40.59,40.602 36.19,60.309"
         style="fill:#e7edef;fill-opacity:1;fill-rule:nonzero;stroke:none"
         id="path244" /><path
         d="m 5591.4,1182.96 c 5.64,65.06 5,127.83 -10.16,192.96 -7.23,31.07 -16.95,61.58 -27.79,91.54 -6.28,17.38 -12.96,34.6 -19.79,51.77 -2,5.04 -4,10.08 -6.01,15.12 -1.61,4.04 -2.96,8.95 -6.39,11.87 -5.95,-5.8 -11.77,-12.98 -18.56,-17.73 -12.86,-8.99 -27.71,-15.48 -41.39,-23.18 -6.9,-3.89 -13.75,-7.85 -20.57,-11.87 -6.92,-4.08 -15.54,-7.81 -21.63,-13.06 -8.84,-7.61 -11.43,-22.88 -9.83,-33.86 3.89,-26.89 16.99,-51.98 20.54,-78.67 6.09,-45.77 -1.83,-95.95 -6.06,-141.72 -4.65,-50.18 -11.29,-100.15 -17.89,-150.11 -1.52,-11.46 -2.76,-22.98 -3.9,-34.54 l -0.16,0.45 c -5,-46.711 -7.78,-93.731 -10.12,-140.801 -1.16,-15.18 -2.45,-30.348 -4.09,-45.438 -8.23,-75.562 -18.63,-150.902 -31.11,-225.89 63.76,-52.242 149.26,-75.52 231.89,-74.91 -4.2,30.078 -14.19,59.07 -17.3,89.078 -3.4,32.761 -2.5,65.742 -3.78,98.601 -5.29,135.739 5.37,272.34 20.75,407.27 1.27,11.12 2.4,22.16 3.35,33.12"
         style="fill:#e7edef;fill-opacity:1;fill-rule:nonzero;stroke:none"
         id="path246" /><path
         d="m 5602.82,1215.39 c 0,-3.67 -2.98,-6.64 -6.64,-6.64 -3.67,0 -6.64,2.97 -6.64,6.64 0,3.66 2.97,6.64 6.64,6.64 3.66,0 6.64,-2.98 6.64,-6.64"
         style="fill:#afb4b4;fill-opacity:1;fill-rule:nonzero;stroke:none"
         id="path248" /><path
         d="m 5505.65,1033.31 c -4.5,9.35 -12.29,16.63 -16.75,26 -5.36,11.23 -7.35,23.76 -13.23,35.01 -5.74,11.02 -13.04,21.37 -21.74,30.27 -0.1,0.11 -0.45,0.48 -0.75,0.78 -4.84,-2.14 -9.66,-4.35 -14.39,-6.74 -8.64,-4.36 -16.75,-9.46 -24.63,-14.86 7.43,-7.61 13.46,-16.61 20.71,-24.45 8.5,-9.15 14.04,-16.21 13.45,-29.3 -0.53,-11.97 6.31,-27.85 14.88,-36.15 4.18,-4.15 9.13,-7.37 13.56,-11.32 7.17,-6.351 9.34,-14.191 11.43,-23.152 2.16,-9.449 3.3,-19.238 5.65,-28.57 0.4,-1.5 0.93,-3.187 2.27,-3.859 3.17,-1.719 5.89,2.601 6.86,5.851 7.49,26.52 14.71,55.74 2.68,80.49"
         style="fill:#ed9bbc;fill-opacity:1;fill-rule:nonzero;stroke:none"
         id="path250" /><path
         d="m 5453.21,1059.94 c 8.83,10.6 19.42,19.72 31.23,26.83 7.06,4.25 7.57,8.84 2.11,14.97 -5.22,5.85 -11.45,11 -17,16.56 -13.4,13.42 -26.42,27.23 -38.99,41.43 -9.94,11.21 -19.61,22.66 -29.01,34.33 -2.45,3.05 -26.99,30.15 -25.8,32.71 13.93,29.89 27.46,60.3 44.5,88.57 17.43,28.9 37.63,56.84 49.75,88.58 8.29,21.72 11.63,53.86 -6.03,70.32 -4.03,3.76 -9.17,6.71 -15.58,8.53 -9.9,2.79 -20.92,1.42 -29.84,-3.72 -20.6,-11.89 -32.58,-37.51 -43.58,-57.57 -11.85,-21.64 -22.3,-44.02 -32.74,-66.36 -11.65,-24.93 -23.32,-49.91 -32.79,-75.78 -8.83,-24.1 -19.4,-52.21 -17.56,-78.21 2.32,-32.81 30.4,-60.65 53.63,-81.21 15.07,-13.34 31.08,-25.54 46.31,-38.69 15.4,-13.29 29.39,-28.09 44.4,-41.93 0.37,-0.35 0.78,-0.71 1.29,-0.79 1.05,-0.17 1.83,0.92 2.34,1.86 3.8,6.93 8.29,13.5 13.36,19.57"
         style="fill:#e7edef;fill-opacity:1;fill-rule:nonzero;stroke:none"
         id="path252" /><path
         d="m 5536.82,1032.24 c -19.12,-1.82 -38.83,-1.36 -57.44,-1.42 -16.56,-0.05 -35.11,0.43 -51.13,6.36 -2.51,-18.6 -4.94,-37.211 -7.26,-55.828 -1.22,-9.743 -2.42,-19.473 -3.58,-29.204 -0.85,-7.128 -5.47,-21.109 -1.46,-27.546 5.18,-8.332 13.43,-15.672 20.25,-22.731 5.03,-5.199 20.49,-25.223 28.85,-23.262 10.79,2.551 23.46,12.653 33.34,17.86 6.09,3.222 12.15,6.48 18.05,10 6.83,4.082 11.92,6.222 14.54,11.242 1.14,2.199 1.81,4.949 1.96,8.641 0.63,16.449 1.5,32.918 2.3,49.359 0.89,18.269 -1.25,38.039 1.58,56.529"
         style="fill:#ffffff;fill-opacity:1;fill-rule:nonzero;stroke:none"
         id="path254" /><path
         d="m 5705.95,1027.86 c -29.61,-10.44 -61.44,-16.86 -87.64,-6.02 -0.85,-12.79 1.95,-47.07 2.15,-50.371 0.65,-11.258 1.36,-22.508 2.28,-33.75 1.86,-22.508 32.38,-29.758 47.18,-41.957 5.32,-4.383 9.85,-5.782 15.07,-0.551 8.68,8.699 17.36,17.398 26.04,26.098 1.36,1.363 2.72,2.671 4.02,4.011 5.7,5.801 10.42,11.719 9.44,20.852 -1.29,11.988 -3.48,25.207 -6.81,36.816 -4.24,14.871 -8.24,29.812 -11.73,44.872"
         style="fill:#ffffff;fill-opacity:1;fill-rule:nonzero;stroke:none"
         id="path256" /><path
         d="m 5674.2,1365.86 h -43.63 c -5.28,0 -9.59,4.32 -9.59,9.59 v 0 c 0,5.27 4.31,9.58 9.59,9.58 h 43.63 c 5.27,0 9.58,-4.31 9.58,-9.58 v 0 c 0,-5.27 -4.31,-9.59 -9.58,-9.59"
         style="fill:#c7cbca;fill-opacity:1;fill-rule:nonzero;stroke:none"
         id="path258" /><path
         d="m 5672.27,1384.18 c 0,-13.75 -11.14,-24.89 -24.89,-24.89 -13.75,0 -24.89,11.14 -24.89,24.89 0,13.75 11.14,24.89 24.89,24.89 13.75,0 24.89,-11.14 24.89,-24.89"
         style="fill:#b0b5b5;fill-opacity:1;fill-rule:nonzero;stroke:none"
         id="path260" /><path
         d="m 5531.02,1558.21 c -0.61,-2.6 -1.41,-5.1 -2.41,-7.6 -0.7,-0.5 -1.3,-1 -1.9,-1.5 -1.5,-1.4 -2.89,-2.9 -4.09,-4.5 -4.1,-5 -7.21,-11 -9.71,-17.2 -1.4,-3.49 -2.7,-7.1 -3.8,-10.6 -10.69,-32.79 -17.29,-66.7 -20,-100.9 -0.1,-1.3 -0.19,-2.7 -0.29,-4 h -0.3 c -0.1,0 -0.31,0 -0.31,0 h -4.39 v 0.1 c 0.1,1.2 0.19,2.4 0.29,3.6 2.71,34.8 9.41,69.3 20.21,102.8 0.19,0.61 0.4,1.2 0.59,1.9 1.11,3.21 2.31,6.6 3.8,9.9 -0.1,0.1 0,0.1 0,0.1 0.8,1.9 1.6,3.8 2.5,5.6 4.6,9.11 10.8,17.5 19.81,22.3"
         style="fill:#2c2d2e;fill-opacity:1;fill-rule:nonzero;stroke:none"
         id="path262" /><path
         d="m 5650.34,1410.61 c 0,-4.4 0,-8.7 -0.1,-13.09 -0.09,-1.41 -0.89,-2.61 -2.59,-2.5 -1.41,0.09 -2.5,1.19 -2.41,2.59 0.1,4.4 0.1,8.81 0.1,13.21 -0.1,16.19 -0.99,32.29 -2.8,48.29 -1.6,15 -4.2,32.5 -11.1,48.7 -0.8,1.9 -1.8,4 -2.9,6.11 -1.4,2.79 -3.1,5.79 -5.1,8.79 -0.1,0.3 -0.3,0.5 -0.5,0.81 -1.2,1.79 -2.5,3.69 -4,5.4 -2.2,3.19 -4,6.69 -5.3,10.29 -0.4,1.1 -0.8,2.21 -1.2,3.31 7.5,-6 13.2,-13.41 17.4,-20.51 0.9,-1.5 1.7,-2.99 2.5,-4.4 1.4,-2.7 2.7,-5.4 3.7,-7.8 0.3,-0.7 0.6,-1.49 0.9,-2.2 6.4,-16.19 9,-33.3 10.6,-47.9 1.81,-16.19 2.7,-32.7 2.8,-49.1"
         style="fill:#2c2d2e;fill-opacity:1;fill-rule:nonzero;stroke:none"
         id="path264" /><path
         d="m 5485.32,1413.94 c 0,-1.1 -0.91,-2 -2,-2 0,0 -0.21,0 -0.3,0 -19.8,0 -33,-17.1 -38.3,-31.9 -1.61,-4.4 -2.7,-9 -3.4,-13.5 -1.4,-9.1 -1.4,-18.2 -1.4,-26.6 l 0.1,-44.5 c 0,-4.1 0,-8.4 1.09,-12.3 1.31,-4.3 4.21,-8 7.61,-9.6 3.19,-1.5 6.8,-0.9 10.69,-0.3 1.91,0.3 3.81,0.6 5.71,0.6 h 0.09 c 1.11,0 1.91,-0.9 2.01,-2 0,-1.1 -0.9,-2 -2.01,-2 -1.6,0 -3.39,-0.3 -5.19,-0.6 -2.1,-0.3 -4.3,-0.6 -6.5,-0.6 -2.2,0 -4.4,0.3 -6.5,1.3 -4.4,2.1 -8.1,6.7 -9.71,12.1 -1.29,4.4 -1.29,9.19 -1.29,13.4 l -0.1,44.4 c 0,8 0,16.7 1.2,25.5 0.7,5.4 1.89,10.8 3.8,16.1 5.8,15.9 20.3,34.5 42.1,34.5 1.2,0.1 2.3,-0.8 2.3,-2"
         style="fill:#24292e;fill-opacity:1;fill-rule:nonzero;stroke:none"
         id="path266" /><path
         d="m 5465.21,1273.84 h -0.09 c -1.9,0 -3.8,-0.3 -5.71,-0.6 -3.89,-0.6 -7.5,-1.2 -10.69,0.3 -3.4,1.6 -6.3,5.3 -7.61,9.6 -1.09,3.9 -1.09,8.2 -1.09,12.3 l -0.1,44.5 c 0,7.69 0.12,15.98 1.19,24.31 h -4.08 c -1.05,-8.43 -1.11,-16.75 -1.11,-24.41 l 0.1,-44.4 c 0,-4.21 0,-9 1.29,-13.4 1.61,-5.4 5.31,-10 9.71,-12.1 2.1,-1 4.3,-1.3 6.5,-1.3 2.2,0 4.4,0.3 6.5,0.6 1.8,0.3 3.59,0.6 5.19,0.6 1.11,0 2.01,0.9 2.01,2 -0.1,1.1 -0.9,2 -2.01,2"
         style="fill:#999ea0;fill-opacity:1;fill-rule:nonzero;stroke:none"
         id="path268" /><path
         d="m 5460.83,1276.1 c 0.98,0.61 1.89,1.1 2.47,1.4 3.48,1.78 8.69,2.88 11.47,-0.69 3.34,-4.29 -0.82,-10.19 -5.66,-10.45 -3.75,-0.21 -7.55,1.27 -10.94,2.74 -4.31,1.87 -0.49,5.04 2.66,7"
         style="fill:#24292e;fill-opacity:1;fill-rule:nonzero;stroke:none"
         id="path270" /><path
         d="m 5486.22,1413.94 c 0,-1.1 0.9,-2 2,-2 0,0 0.2,0 0.3,0 19.8,0 33,-17.1 38.31,-31.9 1.59,-4.4 2.69,-9 3.39,-13.5 1.4,-9.1 1.4,-18.2 1.4,-26.6 l -0.1,-44.5 c 0,-4.1 0,-8.4 -1.1,-12.3 -1.3,-4.3 -4.2,-8 -7.6,-9.6 -3.2,-1.5 -6.8,-0.9 -10.7,-0.3 -1.9,0.3 -3.8,0.6 -5.69,0.6 h -0.11 c -1.1,0 -1.9,-0.9 -1.99,-2 0,-1.1 0.89,-2 1.99,-2 1.6,0 3.41,-0.3 5.2,-0.6 2.1,-0.3 4.3,-0.6 6.5,-0.6 2.2,0 4.4,0.3 6.5,1.3 4.41,2.1 8.1,6.7 9.7,12.1 1.3,4.4 1.3,9.19 1.3,13.4 l 0.1,44.4 c 0,8 0,16.7 -1.2,25.5 -0.7,5.4 -1.9,10.8 -3.8,16.1 -5.8,15.9 -20.3,34.5 -42.1,34.5 -1.2,0.1 -2.3,-0.8 -2.3,-2"
         style="fill:#24292e;fill-opacity:1;fill-rule:nonzero;stroke:none"
         id="path272" /><path
         d="m 5506.32,1273.84 h 0.11 c 1.89,0 3.79,-0.3 5.69,-0.6 3.9,-0.6 7.5,-1.2 10.7,0.3 3.4,1.6 6.3,5.3 7.6,9.6 1.1,3.9 1.1,8.2 1.1,12.3 l 0.1,44.5 c 0,7.69 -0.12,15.98 -1.19,24.31 h 4.08 c 1.06,-8.43 1.11,-16.75 1.11,-24.41 l -0.1,-44.4 c 0,-4.21 0,-9 -1.3,-13.4 -1.6,-5.4 -5.29,-10 -9.7,-12.1 -2.1,-1 -4.3,-1.3 -6.5,-1.3 -2.2,0 -4.4,0.3 -6.5,0.6 -1.79,0.3 -3.6,0.6 -5.2,0.6 -1.1,0 -1.99,0.9 -1.99,2 0.09,1.1 0.89,2 1.99,2"
         style="fill:#999ea0;fill-opacity:1;fill-rule:nonzero;stroke:none"
         id="path274" /><path
         d="m 5510.71,1276.1 c -0.97,0.61 -1.89,1.1 -2.47,1.4 -3.47,1.78 -8.69,2.88 -11.47,-0.69 -3.35,-4.29 0.82,-10.19 5.66,-10.45 3.75,-0.21 7.55,1.27 10.94,2.74 4.31,1.87 0.49,5.04 -2.66,7"
         style="fill:#24292e;fill-opacity:1;fill-rule:nonzero;stroke:none"
         id="path276" /><path
         d="m 5650.34,1410.61 c 0,-4.4 0,-8.7 -0.1,-13.09 -0.09,-1.41 -0.89,-2.61 -2.59,-2.5 -1.41,0.09 -2.5,1.19 -2.41,2.59 0.1,4.4 0.1,8.81 0.1,13.21 h 2.71 c 0.79,-0.11 1.49,-0.11 2.29,-0.21"
         style="fill:#c7cbca;fill-opacity:1;fill-rule:nonzero;stroke:none"
         id="path278" /><path
         d="m 5660.77,1384.18 c 0,-7.39 -6,-13.39 -13.39,-13.39 -7.39,0 -13.39,6 -13.39,13.39 0,7.4 6,13.39 13.39,13.39 7.39,0 13.39,-5.99 13.39,-13.39"
         style="fill:#505455;fill-opacity:1;fill-rule:nonzero;stroke:none"
         id="path280" /></g></g></svg>
