<svg width="32" height="32" viewBox="0 0 32 32" fill="none" xmlns="http://www.w3.org/2000/svg">
<path d="M16.0001 2.22217C8.16005 2.22217 1.77783 7.80439 1.77783 14.6666C1.77783 21.5288 8.16005 27.1111 16.0001 27.1111C17.4669 27.1094 18.9264 26.906 20.3378 26.5066L25.2534 29.6355C25.3876 29.7216 25.5425 29.77 25.7018 29.7757C25.8611 29.7813 26.0191 29.7441 26.159 29.6677C26.299 29.5914 26.4159 29.4788 26.4974 29.3417C26.5789 29.2047 26.622 29.0483 26.6223 28.8888V22.9066C27.7345 21.8397 28.622 20.561 29.2327 19.1459C29.8433 17.7308 30.1646 16.2078 30.1778 14.6666C30.2223 7.80439 23.8401 2.22217 16.0001 2.22217ZM25.1467 21.8755C25.0574 21.9584 24.986 22.0588 24.9371 22.1704C24.8881 22.282 24.8627 22.4025 24.8623 22.5244V27.2711L20.9689 24.7911C20.8603 24.7224 20.7381 24.6781 20.6108 24.6612C20.4834 24.6444 20.3539 24.6553 20.2312 24.6933C18.8611 25.1188 17.4346 25.3346 16.0001 25.3333C9.13783 25.3333 3.55561 20.5511 3.55561 14.6666C3.55561 8.78217 9.13783 3.99995 16.0001 3.99995C22.8623 3.99995 28.4445 8.78217 28.4445 14.6666C28.4242 16.0311 28.1206 17.3765 27.5529 18.6175C26.9852 19.8585 26.1658 20.9679 25.1467 21.8755Z" fill="#062540"/>
<path d="M22.222 13.7778H9.77756C9.54181 13.7778 9.31572 13.8715 9.14902 14.0382C8.98232 14.2049 8.88867 14.431 8.88867 14.6667C8.88867 14.9025 8.98232 15.1286 9.14902 15.2953C9.31572 15.462 9.54181 15.5556 9.77756 15.5556H22.222C22.4578 15.5556 22.6838 15.462 22.8505 15.2953C23.0172 15.1286 23.1109 14.9025 23.1109 14.6667C23.1109 14.431 23.0172 14.2049 22.8505 14.0382C22.6838 13.8715 22.4578 13.7778 22.222 13.7778Z" fill="#062540"/>
<path d="M19.3334 18.2222H12.6667C12.431 18.2222 12.2049 18.3158 12.0382 18.4825C11.8715 18.6492 11.7778 18.8753 11.7778 19.1111C11.7778 19.3468 11.8715 19.5729 12.0382 19.7396C12.2049 19.9063 12.431 19.9999 12.6667 19.9999H19.3334C19.5691 19.9999 19.7952 19.9063 19.9619 19.7396C20.1286 19.5729 20.2223 19.3468 20.2223 19.1111C20.2223 18.8753 20.1286 18.6492 19.9619 18.4825C19.7952 18.3158 19.5691 18.2222 19.3334 18.2222Z" fill="#062540"/>
<path d="M10.0266 11.1113H21.9733C22.209 11.1113 22.4351 11.0176 22.6018 10.8509C22.7685 10.6842 22.8621 10.4581 22.8621 10.2224C22.8621 9.98664 22.7685 9.76054 22.6018 9.59385C22.4351 9.42715 22.209 9.3335 21.9733 9.3335H10.0266C9.79084 9.3335 9.56474 9.42715 9.39805 9.59385C9.23135 9.76054 9.1377 9.98664 9.1377 10.2224C9.1377 10.4581 9.23135 10.6842 9.39805 10.8509C9.56474 11.0176 9.79084 11.1113 10.0266 11.1113Z" fill="#062540"/>
</svg>
