<svg width="32" height="32" viewBox="0 0 32 32" fill="none" xmlns="http://www.w3.org/2000/svg">
<path d="M29.6712 11.2795C29.1402 11.5499 28.5751 11.7473 27.9912 11.8661C28.2861 12.7704 28.439 13.715 28.4445 14.6661C28.4242 16.0306 28.1206 17.376 27.5529 18.617C26.9852 19.858 26.1658 20.9674 25.1467 21.875C25.0574 21.9579 24.986 22.0583 24.9371 22.1699C24.8881 22.2815 24.8627 22.402 24.8623 22.5239V27.2706L20.9689 24.7906C20.8603 24.7219 20.7381 24.6776 20.6108 24.6607C20.4834 24.6439 20.3539 24.6548 20.2312 24.6928C18.8611 25.1183 17.4346 25.3341 16.0001 25.3328C9.13783 25.3328 3.55561 20.5506 3.55561 14.6661C3.55561 8.78168 9.13783 3.99946 16.0001 3.99946C17.3694 3.99929 18.7316 4.19688 20.0445 4.58612C20.1 3.99598 20.2345 3.41597 20.4445 2.86168C19.0005 2.44049 17.5043 2.22504 16.0001 2.22168C8.16006 2.22168 1.77783 7.8039 1.77783 14.6661C1.77783 21.5283 8.16006 27.1106 16.0001 27.1106C17.4669 27.1089 18.9264 26.9055 20.3378 26.5061L25.2534 29.635C25.3876 29.7211 25.5425 29.7695 25.7018 29.7752C25.8611 29.7809 26.0191 29.7436 26.159 29.6672C26.299 29.5909 26.4159 29.4783 26.4974 29.3412C26.5789 29.2042 26.622 29.0478 26.6223 28.8883V22.9061C27.7345 21.8392 28.622 20.5605 29.2327 19.1454C29.8433 17.7303 30.1646 16.2073 30.1778 14.6661C30.1876 13.5177 30.0166 12.3748 29.6712 11.2795Z" fill="#062540"/>
<path d="M9.77756 13.7778C9.54181 13.7778 9.31572 13.8715 9.14902 14.0382C8.98232 14.2049 8.88867 14.431 8.88867 14.6667C8.88867 14.9025 8.98232 15.1286 9.14902 15.2953C9.31572 15.462 9.54181 15.5556 9.77756 15.5556H22.222C22.4578 15.5556 22.6838 15.462 22.8505 15.2953C23.0172 15.1286 23.1109 14.9025 23.1109 14.6667C23.1109 14.431 23.0172 14.2049 22.8505 14.0382C22.6838 13.8715 22.4578 13.7778 22.222 13.7778H9.77756Z" fill="#062540"/>
<path d="M12.6667 18.2217C12.431 18.2217 12.2049 18.3153 12.0382 18.482C11.8715 18.6487 11.7778 18.8748 11.7778 19.1106C11.7778 19.3463 11.8715 19.5724 12.0382 19.7391C12.2049 19.9058 12.431 19.9995 12.6667 19.9995H19.3334C19.5691 19.9995 19.7952 19.9058 19.9619 19.7391C20.1286 19.5724 20.2223 19.3463 20.2223 19.1106C20.2223 18.8748 20.1286 18.6487 19.9619 18.482C19.7952 18.3153 19.5691 18.2217 19.3334 18.2217H12.6667Z" fill="#062540"/>
<path d="M9.1377 10.2224C9.1377 10.4581 9.23135 10.6842 9.39805 10.8509C9.56474 11.0176 9.79084 11.1113 10.0266 11.1113H21.9733C22.1213 11.1086 22.2663 11.069 22.3952 10.996C22.524 10.9231 22.6326 10.8191 22.711 10.6935C22.1883 10.3093 21.7242 9.8512 21.3333 9.3335H10.0266C9.79084 9.3335 9.56474 9.42715 9.39805 9.59385C9.23135 9.76054 9.1377 9.98664 9.1377 10.2224Z" fill="#062540"/>
<path d="M26.6666 9.77756C29.1212 9.77756 31.1111 7.78772 31.1111 5.33312C31.1111 2.87852 29.1212 0.888672 26.6666 0.888672C24.212 0.888672 22.2222 2.87852 22.2222 5.33312C22.2222 7.78772 24.212 9.77756 26.6666 9.77756Z" fill="#062540"/>
</svg>
