<svg width="30" height="29" viewBox="0 0 30 29" fill="none" xmlns="http://www.w3.org/2000/svg">
<path d="M9.06097 20.0991V20.0271H8.98897H7.03897C6.30219 20.0271 5.5956 19.7344 5.07462 19.2135C4.55365 18.6925 4.26096 17.9859 4.26096 17.2491V7.94912C4.26096 7.21235 4.55365 6.50575 5.07462 5.98478C5.5956 5.4638 6.30219 5.17112 7.03897 5.17112H22.339C23.0757 5.17112 23.7823 5.4638 24.3033 5.98478C24.8243 6.50575 25.117 7.21235 25.117 7.94912V17.2491C25.117 17.9859 24.8243 18.6925 24.3033 19.2135C23.7823 19.7344 23.0757 20.0271 22.339 20.0271H15.6508H15.6279L15.6092 20.0403L9.06097 24.663V20.0991ZM7.03897 21.6711H7.41697V25.0911C7.41697 26.2439 8.71698 26.9176 9.65868 26.2527L16.15 21.6711H22.339C23.5118 21.6711 24.6365 21.2052 25.4658 20.3759C26.2951 19.5467 26.761 18.4219 26.761 17.2491V7.94912C26.761 6.77633 26.2951 5.65158 25.4658 4.82229C24.6365 3.99301 23.5118 3.52712 22.339 3.52712H7.03897C5.86618 3.52712 4.74142 3.99301 3.91214 4.82229C3.08285 5.65158 2.61696 6.77633 2.61696 7.94912V17.2491C2.61696 18.4219 3.08285 19.5467 3.91214 20.3759C4.74142 21.2052 5.86618 21.6711 7.03897 21.6711Z" fill="black" stroke="black" stroke-width="0.144"/>
</svg>
