<svg width="31" height="31" viewBox="0 0 31 31" fill="none" xmlns="http://www.w3.org/2000/svg">
<g clip-path="url(#clip0_314:5905)">
<g clip-path="url(#clip1_314:5905)">
<path d="M8.48787 5.58643C8.48787 5.38751 8.56689 5.19675 8.70754 5.0561C8.8482 4.91544 9.03896 4.83643 9.23787 4.83643H24.2379C24.4368 4.83643 24.6276 4.91544 24.7682 5.0561C24.9089 5.19675 24.9879 5.38751 24.9879 5.58643C24.9879 6.39343 24.9699 7.16143 24.9369 7.89043C25.5296 7.98857 26.0966 8.2044 26.6046 8.5252C27.1125 8.84599 27.5511 9.26524 27.8944 9.75824C28.2378 10.2512 28.4789 10.808 28.6037 11.3957C28.7284 11.9833 28.7342 12.5901 28.6207 13.18C28.5072 13.77 28.2768 14.3312 27.9429 14.8307C27.609 15.3301 27.1786 15.7577 26.6768 16.0881C26.1751 16.4186 25.6123 16.6452 25.0216 16.7547C24.4308 16.8641 23.8242 16.8542 23.2374 16.7254C22.0524 19.5229 20.4204 20.8909 18.9879 21.2419V24.5014L21.1254 25.0354C21.4164 25.1074 21.6909 25.2379 21.9309 25.4179L24.6879 27.4864C24.8138 27.5809 24.9068 27.7125 24.9538 27.8628C25.0007 28.0131 24.9992 28.1743 24.9494 28.3236C24.8996 28.4729 24.8041 28.6028 24.6764 28.6949C24.5487 28.7869 24.3953 28.8364 24.2379 28.8364H9.23787C9.08046 28.8364 8.92704 28.7869 8.79934 28.6949C8.67164 28.6028 8.57614 28.4729 8.52636 28.3236C8.47658 28.1743 8.47505 28.0131 8.52199 27.8628C8.56892 27.7125 8.66194 27.5809 8.78787 27.4864L11.5449 25.4179C11.7849 25.2379 12.0594 25.1074 12.3504 25.0354L14.4879 24.5014V21.2419C13.0554 20.8909 11.4234 19.5229 10.2384 16.7239C9.65125 16.8534 9.04415 16.8638 8.45291 16.7547C7.86167 16.6456 7.29829 16.4192 6.79604 16.0887C6.29379 15.7582 5.86286 15.3305 5.52868 14.8307C5.19451 14.3309 4.96388 13.7692 4.85041 13.1788C4.73693 12.5884 4.74292 11.9812 4.86802 11.3931C4.99312 10.8051 5.23479 10.248 5.57876 9.75493C5.92272 9.26183 6.36202 8.84265 6.87069 8.52216C7.37936 8.20166 7.9471 7.98634 8.54037 7.88893C8.50506 7.12194 8.48755 6.35423 8.48787 5.58643ZM8.63637 9.39643C7.85365 9.53964 7.15988 9.98793 6.70769 10.6427C6.25549 11.2974 6.08191 12.105 6.22512 12.8877C6.36834 13.6704 6.81663 14.3642 7.47136 14.8164C8.1261 15.2686 8.93365 15.4421 9.71637 15.2989C9.21687 13.7239 8.83437 11.7799 8.63637 9.39643ZM23.7609 15.2989C24.5436 15.4421 25.3511 15.2686 26.0059 14.8164C26.6606 14.3642 27.1089 13.6704 27.2521 12.8877C27.3953 12.105 27.2218 11.2974 26.7696 10.6427C26.3174 9.98793 25.6236 9.53964 24.8409 9.39643C24.6414 11.7814 24.2589 13.7239 23.7609 15.2989Z" fill="#062540"/>
</g>
</g>
<defs>
<clipPath id="clip0_314:5905">
<rect width="30" height="30" fill="white" transform="translate(0.864746 0.962891)"/>
</clipPath>
<clipPath id="clip1_314:5905">
<rect width="24" height="24" fill="white" transform="translate(4.73779 4.83643)"/>
</clipPath>
</defs>
</svg>
