<svg width="28" height="27" viewBox="0 0 28 27" fill="none" xmlns="http://www.w3.org/2000/svg">
<path d="M26.7634 13.5619C26.7634 20.4254 21.1777 25.9954 14.2798 25.9954C7.38199 25.9954 1.79627 20.4254 1.79627 13.5619C1.79627 6.69835 7.38199 1.1283 14.2798 1.1283C21.1777 1.1283 26.7634 6.69835 26.7634 13.5619Z" fill="#062540" stroke="#062540" stroke-width="1.91285"/>
<path fill-rule="evenodd" clip-rule="evenodd" d="M5.63965 22.1694L11.0796 11.1705L21.9596 5.91016L17.0142 16.9091L5.63965 22.1694ZM13.7997 15.4747C14.595 15.4747 15.2397 14.8324 15.2397 14.0401C15.2397 13.2478 14.595 12.6055 13.7997 12.6055C13.0044 12.6055 12.3597 13.2478 12.3597 14.0401C12.3597 14.8324 13.0044 15.4747 13.7997 15.4747Z" fill="white"/>
</svg>
