<svg width="15" height="15" viewBox="0 0 15 15" fill="none" xmlns="http://www.w3.org/2000/svg">
<path d="M4.64991 14.8017C1.31391 13.1975 0.435612 11.6791 0.93776 9.60527C1.30847 8.07396 2.52233 6.82809 2.63873 5.29972C3.15725 6.10484 3.37392 6.6854 3.43185 7.52674C5.08103 5.80275 6.17084 3.41615 6.23537 0.90918C6.23537 0.90918 10.5309 3.06263 10.8127 6.31544C11.1825 5.64498 11.3687 4.58013 10.9989 3.89C12.1082 4.58016 18.6013 10.707 10.1194 14.8017C11.7141 12.1524 10.5308 8.5777 7.76198 6.92673C7.94689 7.63663 7.62269 10.2843 6.39776 11.4478C6.73716 9.50377 6.07482 8.68178 6.07482 8.68178C6.07482 8.68178 5.84749 9.77065 4.96548 10.8706C4.16004 11.875 3.60196 12.9411 4.64991 14.8017Z" fill="#FA8A3C"/>
</svg>
