<svg width="104" height="70" viewBox="0 0 104 70" fill="none" xmlns="http://www.w3.org/2000/svg">
<path d="M85.6988 20.2357L85.4666 19.7162C83.5042 15.3448 79.3486 12.3394 74.6103 12.0522C74.0004 12.0149 73.3886 12.0222 72.7798 12.0742C68.3906 12.459 64.2679 15.2349 62.2107 19.1775C61.0014 21.4999 60.3981 24.2731 58.4371 25.9922C55.8852 28.2295 52.0718 27.8351 48.742 27.3156C45.4123 26.7962 41.5961 26.4114 39.0524 28.6596C37.4597 30.0682 36.7355 32.2614 36.5789 34.3942C36.1803 40.0395 39.4647 45.5405 44.1247 48.6517C48.7846 51.7629 54.6127 52.7166 60.1906 52.2961C68.0017 51.7079 75.7728 48.3906 80.9413 42.4169C86.1097 36.4432 88.3098 27.7031 85.6988 20.2357Z" fill="#F5F5F5"/>
<path d="M39.0521 21.1207C39.6324 18.643 38.0941 16.164 35.6164 15.5837C33.1386 15.0035 30.6597 16.5417 30.0794 19.0195C29.4992 21.4972 31.0374 23.9762 33.5152 24.5565C35.9929 25.1367 38.4719 23.5985 39.0521 21.1207Z" fill="#F5F5F5"/>
<path d="M96.882 64.6808C96.882 64.7 76.5766 64.7165 51.5329 64.7165C26.4892 64.7165 6.18384 64.7 6.18384 64.6808C6.18384 64.6615 26.4837 64.645 51.5329 64.645C76.5821 64.645 96.882 64.6601 96.882 64.6808Z" fill="#263238"/>
<path d="M26.764 41.1524L32.9233 64.6748H34.9131L28.8776 41.0122L26.764 41.1524Z" fill="#455A64"/>
<path d="M18.7153 64.6769L21.9736 42.5273L23.8453 42.5809L21.046 64.6769H18.7153Z" fill="#455A64"/>
<path d="M18.1134 44.2666L11.109 64.6764H13.3641L19.4615 46.1685L18.1134 44.2666Z" fill="#455A64"/>
<path d="M31.597 37.3123C33.995 44.3785 32.9616 51.0833 28.3319 52.6554C23.7022 54.2275 17.2282 50.0705 14.8289 43.0042C12.4295 35.938 14.2393 28.935 18.8704 27.3629C23.5015 25.7908 29.1977 30.246 31.597 37.3123Z" fill="#FA8A3C"/>
<g opacity="0.3">
<path opacity="0.3" d="M31.597 37.3123C33.995 44.3785 32.9616 51.0833 28.3319 52.6554C23.7022 54.2275 17.2282 50.0705 14.8289 43.0042C12.4295 35.938 14.2393 28.935 18.8704 27.3629C23.5015 25.7908 29.1977 30.246 31.597 37.3123Z" fill="black"/>
</g>
<path d="M29.4432 52.1327C34.0737 50.5609 35.9014 43.6127 33.5254 36.6134C31.1495 29.6142 25.4697 25.2145 20.8393 26.7863C16.2088 28.3581 14.3811 35.3063 16.7571 42.3055C19.133 49.3048 24.8128 53.7045 29.4432 52.1327Z" fill="#FA8A3C"/>
<path d="M29.0349 49.9576C32.7713 48.6893 34.1768 42.8785 32.1741 36.9788C30.1715 31.0792 25.519 27.3248 21.7826 28.5931C18.0462 29.8615 16.6407 35.6723 18.6433 41.5719C20.646 47.4715 25.2985 51.226 29.0349 49.9576Z" fill="#FAFAFA"/>
<path d="M28.5409 47.885C31.4437 46.8996 32.485 42.2364 30.8668 37.4694C29.2486 32.7024 25.5837 29.6368 22.6809 30.6221C19.7782 31.6075 18.7368 36.2707 20.355 41.0377C21.9732 45.8047 25.6382 48.8703 28.5409 47.885Z" fill="#FA8A3C"/>
<path d="M27.7287 44.5645C29.6907 43.8985 30.4082 40.787 29.3314 37.6148C28.2546 34.4425 25.7911 32.4108 23.8291 33.0768C21.8671 33.7428 21.1496 36.8543 22.2264 40.0266C23.3032 43.1988 25.7667 45.2306 27.7287 44.5645Z" fill="#FAFAFA"/>
<path d="M27.7701 38.2361C28.3995 40.0926 28.0587 41.8874 27.0088 42.2447C25.9589 42.602 24.5943 41.3844 23.9649 39.5278C23.3355 37.6713 23.6749 35.8765 24.7262 35.5206C25.7775 35.1647 27.1393 36.374 27.7701 38.2361Z" fill="#FA8A3C"/>
<path d="M33.5309 36.6145C33.5309 36.6145 33.5075 36.5568 33.4649 36.4441C33.4223 36.3314 33.3618 36.161 33.2808 35.9425C33.1062 35.5055 32.852 34.8596 32.4562 34.0626C31.9674 33.0947 31.395 32.1714 30.7453 31.3032C29.8901 30.1505 28.8679 29.1315 27.7125 28.2799C27.04 27.7855 26.3089 27.3766 25.5357 27.0623C25.3364 26.9758 25.1234 26.9139 24.9173 26.8383L24.5957 26.749C24.4882 26.7168 24.379 26.6902 24.2687 26.6693C23.8204 26.5671 23.3625 26.5127 22.9027 26.5072C22.7859 26.5072 22.6691 26.4989 22.5509 26.5072L22.1977 26.5291C21.9595 26.5553 21.7227 26.5943 21.4886 26.646C21.0094 26.7504 20.5453 26.9153 20.1076 27.1366C19.1939 27.6072 18.4032 28.2854 17.7989 29.1168C17.1582 29.9876 16.6694 30.9605 16.3532 31.9944C16.1916 32.5272 16.0618 33.0692 15.9643 33.6173C15.8717 34.1776 15.8084 34.7422 15.7747 35.309C15.5896 40.09 17.1778 44.7707 20.234 48.452C20.6064 48.8813 21.0009 49.2909 21.4158 49.6792C21.8267 50.0548 22.2594 50.4058 22.7117 50.7305C23.5875 51.3604 24.563 51.8385 25.5975 52.1445C26.5836 52.4355 27.6241 52.492 28.6359 52.3094C29.1178 52.2186 29.586 52.0667 30.0294 51.8573C30.2468 51.7562 30.4583 51.6429 30.6629 51.5179L30.957 51.3214C31.0573 51.2582 31.1452 51.1839 31.2387 51.1097C31.5994 50.8244 31.9292 50.5019 32.2226 50.1478C32.2968 50.0626 32.3683 49.976 32.4343 49.8853L32.6335 49.6187C32.7544 49.4318 32.8836 49.2545 32.9881 49.069C33.4109 48.3499 33.7423 47.5808 33.9747 46.7796C34.3717 45.3989 34.5616 43.9669 34.5382 42.5305C34.5262 41.4449 34.4191 40.3625 34.218 39.2956C34.0531 38.4189 33.8621 37.751 33.7343 37.2989L33.5762 36.789C33.5405 36.6736 33.524 36.6145 33.524 36.6145C33.524 36.6145 33.5446 36.6722 33.5831 36.7863C33.6216 36.9003 33.6765 37.0721 33.748 37.2948C33.8854 37.7455 34.0751 38.4134 34.2455 39.2901C34.4525 40.3564 34.5652 41.4389 34.5821 42.525C34.6106 43.9644 34.4254 45.4001 34.0325 46.7851C33.7997 47.5933 33.4668 48.3694 33.0417 49.0951C32.9358 49.2862 32.8067 49.4662 32.6857 49.6531L32.4851 49.9279C32.4187 50.02 32.3477 50.1085 32.2721 50.1931C31.9763 50.5495 31.6442 50.8742 31.2813 51.162C31.1865 51.2334 31.0971 51.3131 30.9968 51.3763C30.8965 51.4395 30.8003 51.5138 30.7 51.577C30.4936 51.7029 30.2802 51.8171 30.061 51.9191C29.613 52.1318 29.1396 52.2861 28.6524 52.3781C27.6313 52.5648 26.5806 52.5088 25.5852 52.2146C24.5416 51.9058 23.5576 51.4231 22.6746 50.7868C22.2193 50.4607 21.7839 50.1078 21.3705 49.73C20.9536 49.3386 20.5573 48.9258 20.1831 48.4932C17.1113 44.8003 15.5163 40.1005 15.706 35.3008C15.7401 34.7312 15.8039 34.1638 15.897 33.6009C15.9952 33.0494 16.126 32.5043 16.2886 31.9683C16.6038 30.9279 17.0921 29.9482 17.7329 29.0701C18.3444 28.2306 19.1446 27.5466 20.0691 27.0733C20.5116 26.8503 20.9808 26.6845 21.4653 26.58C21.7011 26.5277 21.9397 26.4887 22.1799 26.4632L22.5385 26.4398C22.6567 26.4302 22.7749 26.4398 22.8931 26.4398C23.3557 26.4464 23.8163 26.5017 24.2673 26.6047C24.3785 26.6262 24.4886 26.6533 24.5971 26.6858L24.9201 26.7765C25.1303 26.8521 25.3419 26.9139 25.5426 27.0033C26.3191 27.3198 27.0531 27.732 27.7276 28.2304C28.8859 29.0886 29.9096 30.115 30.7646 31.2757C31.4125 32.1473 31.9822 33.0744 32.4672 34.0461C32.8658 34.8459 33.1172 35.4945 33.2918 35.9329C33.3701 36.1542 33.4292 36.3218 33.469 36.4372C33.5089 36.5527 33.5309 36.6145 33.5309 36.6145Z" fill="#263238"/>
<g opacity="0.3">
<path opacity="0.3" d="M33.1571 37.333L28.3088 38.6028L34.5643 42.9082C34.5643 42.9082 34.4571 39.7406 33.9775 37.8992L33.1571 37.333Z" fill="black"/>
</g>
<g opacity="0.3">
<path opacity="0.3" d="M16.6512 48.5233L18.0804 50.3593L18.4872 49.1238L17.0484 47.3662L16.6512 48.5233Z" fill="black"/>
</g>
<g opacity="0.3">
<path opacity="0.3" d="M20.613 51.9019C20.613 51.9019 21.3895 52.846 22.5507 52.846L22.6386 52.1438C21.9687 51.8384 21.328 51.4727 20.7243 51.0513L20.613 51.9019Z" fill="black"/>
</g>
<g opacity="0.3">
<path opacity="0.3" d="M29.8616 52.9858L29.6211 52.0679C29.6211 52.0679 30.917 51.5855 31.4255 51.0015L31.6783 51.9936C31.6783 51.9936 30.8057 52.902 29.8616 52.9858Z" fill="black"/>
</g>
<path d="M75.5145 56.0131L79.7031 58.8247L81.0196 57.0767L77.0894 53.6055L75.5145 56.0131Z" fill="#BC8F86"/>
<path d="M79.1397 58.4676L79.2551 58.5569C79.2551 58.5569 78.5323 61.1171 78.8868 61.4235L81.8592 57.5276L80.529 56.5918C80.4459 56.986 80.2787 57.3576 80.039 57.6813C79.7992 58.005 79.4925 58.2732 79.1397 58.4676Z" fill="#FA8A3C"/>
<path d="M80.6361 57.3024C80.6762 57.2738 80.7253 57.261 80.7742 57.2663C80.8231 57.2716 80.8684 57.2947 80.9013 57.3312C80.9318 57.37 80.9463 57.419 80.9417 57.4681C80.937 57.5172 80.9138 57.5626 80.8766 57.5951C80.8346 57.6236 80.7838 57.6362 80.7333 57.6304C80.6828 57.6246 80.6361 57.6008 80.6018 57.5635C80.5731 57.5193 80.5631 57.4656 80.574 57.4141C80.5848 57.3626 80.6155 57.3175 80.6595 57.2886" fill="white"/>
<path d="M81.8593 57.5306L81.5378 57.3066L78.8072 61.1215C78.8072 61.1215 78.7509 61.3523 78.8869 61.4265L81.8593 57.5306Z" fill="#263238"/>
<path d="M79.255 58.5749C79.2743 58.5886 79.3567 58.5006 79.4886 58.4539C79.6205 58.4072 79.7387 58.4182 79.7456 58.3948C79.7525 58.3715 79.6192 58.3165 79.4598 58.3756C79.3004 58.4347 79.2344 58.5749 79.255 58.5749Z" fill="#263238"/>
<path d="M79.1124 59.1181C79.1275 59.1373 79.2237 59.0796 79.3529 59.0769C79.4821 59.0741 79.5824 59.1195 79.5961 59.1002C79.6099 59.081 79.5109 58.9862 79.3501 58.993C79.1893 58.9999 79.0945 59.1043 79.1124 59.1181Z" fill="#263238"/>
<path d="M79.4296 59.7216C79.4475 59.7078 79.3719 59.6075 79.2317 59.5841C79.0915 59.5608 78.9802 59.6116 78.9898 59.6309C78.9995 59.6501 79.097 59.6391 79.2125 59.6652C79.3279 59.6913 79.4076 59.7394 79.4296 59.7216Z" fill="#263238"/>
<path d="M63.0696 58.3096L62.7316 63.3433L64.9028 63.6099L65.9431 58.469L63.0696 58.3096Z" fill="#BC8F86"/>
<path d="M62.7576 62.6777L62.737 62.822C62.737 62.822 60.1603 63.4762 60.0724 63.9365L64.9317 64.5618L65.0691 62.9361C64.6878 63.0611 64.2841 63.1028 63.8853 63.0582C63.4865 63.0136 63.1019 62.8839 62.7576 62.6777Z" fill="#FA8A3C"/>
<path d="M64.5152 63.3871C64.5601 63.4071 64.5959 63.4431 64.6157 63.4881C64.6355 63.533 64.6379 63.5837 64.6224 63.6304C64.6039 63.6759 64.5687 63.7127 64.524 63.7332C64.4793 63.7536 64.4284 63.7562 64.3819 63.7403C64.3345 63.7183 64.2969 63.6797 64.2761 63.6319C64.2554 63.584 64.2529 63.5301 64.2692 63.4806C64.2932 63.435 64.3341 63.4006 64.3831 63.3847C64.4322 63.3688 64.4855 63.3726 64.5317 63.3954" fill="white"/>
<path d="M64.9315 64.5609L64.9659 64.1706L60.2936 63.7144C60.2936 63.7144 60.0641 63.7803 60.0696 63.9356L64.9315 64.5609Z" fill="#263238"/>
<path d="M62.7193 62.8365C62.7193 62.8599 62.8333 62.886 62.9405 62.9739C63.0477 63.0619 63.0972 63.1718 63.1206 63.1663C63.1439 63.1608 63.1206 63.0179 62.9941 62.9093C62.8677 62.8008 62.7165 62.809 62.7193 62.8365Z" fill="#263238"/>
<path d="M62.1819 62.9759C62.1736 62.9992 62.2712 63.0528 62.3386 63.1627C62.4059 63.2727 62.4155 63.3826 62.4402 63.3854C62.465 63.3881 62.4966 63.2548 62.4086 63.1188C62.3207 62.9827 62.186 62.9552 62.1819 62.9759Z" fill="#263238"/>
<path d="M61.8135 63.5506C61.8341 63.5589 61.8836 63.4448 61.8382 63.3074C61.7929 63.17 61.6898 63.1026 61.6775 63.1219C61.6651 63.1411 61.7242 63.2181 61.7599 63.3321C61.7956 63.4462 61.7901 63.5451 61.8135 63.5506Z" fill="#263238"/>
<path d="M72.5929 16.7615C72.6506 16.3877 72.9873 16.1005 73.3542 16.0112C73.7277 15.9395 74.1141 15.9781 74.4659 16.1225C74.8702 16.2559 75.2367 16.484 75.5351 16.7876C75.6825 16.9407 75.7983 17.1213 75.8759 17.3191C75.9534 17.5169 75.9913 17.7281 75.9872 17.9406C75.9652 18.3377 75.7673 18.7363 75.8786 19.1169C75.9624 19.4069 76.2071 19.6185 76.453 19.793C76.699 19.9676 76.9656 20.1325 77.1319 20.3853C77.2982 20.6382 77.3243 21.012 77.1003 21.2098C76.901 21.3899 76.5506 21.4105 76.4613 21.6661C76.4091 21.8241 76.497 21.989 76.5451 22.1484C76.5906 22.3192 76.5997 22.4976 76.5717 22.6721C76.5438 22.8466 76.4795 23.0132 76.383 23.1612C76.1873 23.456 75.9208 23.697 75.6079 23.8621C75.0692 24.1658 74.3986 24.3073 73.8311 24.0655C73.55 23.9406 73.3078 23.7422 73.1302 23.491C72.8441 23.0663 72.6836 22.5695 72.6671 22.0577C72.652 21.5487 72.6852 21.0393 72.766 20.5365" fill="#263238"/>
<path d="M72.3964 22.802C72.6314 22.8668 72.8784 22.8757 73.1175 22.828C73.3566 22.7804 73.5812 22.6775 73.7735 22.5275C73.9658 22.3776 74.1203 22.1848 74.2248 21.9645C74.3293 21.7442 74.3808 21.5025 74.3752 21.2588C74.3656 20.8053 74.1609 20.3422 74.301 19.912C74.3986 19.6152 74.646 19.3857 74.7298 19.0875C74.8535 18.6395 74.5827 18.1874 74.3244 17.8012C74.1704 17.5456 73.9797 17.3141 73.7582 17.1141C73.647 17.0156 73.5155 16.9425 73.3731 16.9C73.2307 16.8575 73.0807 16.8467 72.9337 16.8681" fill="#263238"/>
<path d="M68.2147 16.9033C68.2408 17.2455 68.0141 17.552 67.7874 17.8076C67.5606 18.0632 67.3064 18.3325 67.2569 18.6719C67.169 19.2738 67.7585 19.8331 67.6376 20.4282C67.5716 20.7484 67.3105 21.004 67.2638 21.3269C67.2171 21.6499 67.3861 21.9439 67.5936 22.1817C67.8011 22.4194 68.0526 22.6173 68.2367 22.8688C68.2367 22.8688 68.6188 23.4941 69.7937 23.0942" fill="#263238"/>
<path d="M73.4753 17.4284C73.4835 17.1178 73.2004 16.8787 72.9077 16.7646C72.615 16.6506 72.2976 16.608 72.0406 16.4348C71.8125 16.2809 71.6585 16.0418 71.4662 15.8453C71.2278 15.604 70.9296 15.4304 70.602 15.3423C70.2745 15.2543 69.9294 15.255 69.6022 15.3444C69.275 15.4338 68.9775 15.6086 68.7402 15.851C68.5029 16.0933 68.3344 16.3944 68.2519 16.7234C68.1406 17.1645 68.2161 17.6854 68.5652 17.9808C68.9692 18.3216 69.5684 18.246 70.0864 18.1402C70.6045 18.0344 71.1858 17.93 71.6242 18.2337C71.8853 18.4178 72.0364 18.716 72.1945 18.9922C72.3525 19.2685 72.5532 19.5502 72.8555 19.6546C73.1578 19.7591 73.566 19.579 73.5783 19.2602" fill="#263238"/>
<path d="M72.2506 17.4879C72.3799 17.502 72.4993 17.5639 72.5853 17.6616C72.6713 17.7593 72.7176 17.8856 72.7151 18.0156L72.4045 25.0241C72.3921 25.8487 71.1815 26.3187 70.2937 26.298C69.3991 26.2761 69.3689 25.8377 69.3579 25.0489C69.34 23.7324 69.3414 23.239 69.3414 23.2459C69.3414 23.2528 68.2091 23.0563 67.9782 21.579C67.8628 20.8438 67.9026 19.64 67.9672 18.656C68.0249 17.7697 68.6145 16.6854 69.4967 16.7802L72.2506 17.4879Z" fill="#BC8F86"/>
<path d="M68.2283 19.6357C68.2279 19.6852 68.2467 19.7329 68.2808 19.7688C68.3149 19.8047 68.3616 19.8259 68.411 19.8281C68.4351 19.8298 68.4592 19.8267 68.482 19.819C68.5048 19.8114 68.5259 19.7993 68.544 19.7834C68.5621 19.7676 68.577 19.7483 68.5876 19.7268C68.5983 19.7052 68.6046 19.6817 68.6062 19.6577C68.6066 19.6082 68.5877 19.5605 68.5536 19.5246C68.5195 19.4887 68.4729 19.4674 68.4234 19.4653C68.3994 19.4636 68.3753 19.4667 68.3525 19.4744C68.3296 19.482 68.3086 19.4941 68.2904 19.5099C68.2723 19.5258 68.2575 19.545 68.2468 19.5666C68.2362 19.5882 68.2298 19.6117 68.2283 19.6357Z" fill="#263238"/>
<path d="M68.1804 19.1383C68.2038 19.1631 68.3467 19.0573 68.5515 19.0586C68.7562 19.06 68.9033 19.1617 68.9252 19.137C68.9472 19.1122 68.9129 19.0806 68.8483 19.0339C68.7601 18.9723 68.6549 18.9396 68.5473 18.9404C68.4413 18.9396 68.3377 18.9729 68.2519 19.0353C68.19 19.0779 68.1681 19.1218 68.1804 19.1383Z" fill="#263238"/>
<path d="M70.1206 19.6734C70.1202 19.7229 70.139 19.7706 70.1731 19.8065C70.2072 19.8424 70.2539 19.8636 70.3034 19.8658C70.3274 19.8676 70.3516 19.8647 70.3745 19.8571C70.3974 19.8495 70.4186 19.8374 70.4368 19.8216C70.4549 19.8057 70.4698 19.7864 70.4804 19.7647C70.491 19.743 70.4972 19.7195 70.4985 19.6954C70.4993 19.646 70.4808 19.5983 70.4469 19.5624C70.413 19.5264 70.3665 19.5051 70.3171 19.503C70.293 19.5011 70.2688 19.5041 70.2458 19.5116C70.2228 19.5192 70.2015 19.5313 70.1833 19.5471C70.165 19.563 70.15 19.5823 70.1393 19.604C70.1285 19.6256 70.1222 19.6492 70.1206 19.6734Z" fill="#263238"/>
<path d="M70.2293 19.233C70.2527 19.2577 70.3969 19.1519 70.6003 19.1519C70.8037 19.1519 70.9535 19.2549 70.9755 19.2302C70.9975 19.2055 70.9631 19.1752 70.8985 19.1271C70.81 19.0663 70.705 19.0337 70.5976 19.0337C70.4916 19.0336 70.3882 19.0667 70.3021 19.1285C70.2403 19.1766 70.2224 19.222 70.2293 19.233Z" fill="#263238"/>
<path d="M69.4871 20.8437C69.3799 20.809 69.2685 20.7887 69.1559 20.7832C69.1037 20.7832 69.0542 20.7667 69.046 20.731C69.0415 20.6772 69.054 20.6234 69.0817 20.5771C69.1298 20.4506 69.182 20.3187 69.2356 20.1813C69.4514 19.6179 69.6067 19.1534 69.5833 19.1451C69.56 19.1369 69.3689 19.5876 69.1532 20.1511C69.1023 20.2885 69.0515 20.4259 69.0048 20.5496C68.9723 20.6121 68.9626 20.684 68.9773 20.753C68.9851 20.7712 68.9967 20.7875 69.0115 20.8008C69.0262 20.814 69.0436 20.824 69.0625 20.8299C69.0917 20.8375 69.1216 20.8417 69.1518 20.8423C69.2631 20.8561 69.3757 20.8566 69.4871 20.8437Z" fill="#263238"/>
<path d="M69.3414 23.262C70.0378 23.2727 70.7234 23.0895 71.3216 22.7329C71.3216 22.7329 70.8214 23.7471 69.3442 23.6069L69.3414 23.262Z" fill="#7F473D"/>
<path d="M70.1399 18.7379C70.1605 18.7929 70.3639 18.7668 70.603 18.797C70.8421 18.8272 71.0345 18.8918 71.0675 18.8424C71.0812 18.8176 71.0482 18.7668 70.9699 18.7118C70.8665 18.6449 70.7488 18.6035 70.6264 18.5909C70.5038 18.5755 70.3793 18.5902 70.2636 18.6335C70.1756 18.6678 70.1317 18.7118 70.1399 18.7379Z" fill="#263238"/>
<path d="M68.2107 18.6809C68.2505 18.7277 68.4099 18.6809 68.601 18.6809C68.792 18.6809 68.9555 18.7125 68.9926 18.6644C69.0091 18.6411 68.983 18.5944 68.9129 18.5504C68.8159 18.4956 68.7054 18.4694 68.5941 18.4748C68.4834 18.475 68.3752 18.507 68.2821 18.5669C68.2148 18.6109 68.1928 18.659 68.2107 18.6809Z" fill="#263238"/>
<path d="M73.2827 22.3494C73.0787 22.3908 72.8677 22.383 72.6673 22.3267C72.4669 22.2703 72.2828 22.1669 72.1304 22.0252C71.9779 21.8835 71.8614 21.7074 71.7905 21.5117C71.7197 21.3159 71.6965 21.1061 71.723 20.8996C71.7683 20.5368 71.9635 20.1685 71.8384 19.825C71.6721 19.3715 71.0359 19.2313 70.8668 18.7792C70.7693 18.5153 70.8572 18.2075 70.7459 17.9546C70.6346 17.7018 70.3859 17.5726 70.1371 17.4833C69.8884 17.394 69.6232 17.3307 69.4143 17.17C69.2054 17.0092 69.0762 16.7014 69.2095 16.4746C70.3123 16.6068 71.3955 16.8698 72.4362 17.2579C72.678 17.3472 72.9309 17.4558 73.0738 17.6702C73.2167 17.8846 73.2112 18.1896 73.2112 18.4617L73.0188 22.436" fill="#263238"/>
<path d="M74.0619 17.5521C74.0762 17.5692 74.0848 17.5903 74.0866 17.6126C74.0907 17.6444 74.0878 17.6768 74.0781 17.7074C74.0683 17.7381 74.052 17.7662 74.0303 17.7898C73.9981 17.8297 73.9581 17.8625 73.9127 17.8861C73.8673 17.9098 73.8175 17.9238 73.7664 17.9272C73.6343 17.9203 73.5057 17.8822 73.3912 17.8159C73.259 17.7422 73.1121 17.6986 72.9611 17.6881C72.7858 17.684 72.6105 17.7001 72.4389 17.7362C72.2449 17.778 72.0477 17.8033 71.8494 17.8118C71.6268 17.8204 71.4098 17.7414 71.2447 17.5919C71.0969 17.4346 70.9791 17.2515 70.897 17.0519C70.8238 16.8735 70.7317 16.7035 70.6222 16.5448C70.5261 16.4154 70.3942 16.317 70.2427 16.2618C70.0913 16.2066 69.927 16.197 69.7702 16.2342C69.5565 16.2899 69.3724 16.4257 69.2562 16.6135C69.2147 16.684 69.1784 16.7575 69.1477 16.8334C69.1469 16.8113 69.1507 16.7893 69.1587 16.7688C69.1762 16.7095 69.2002 16.6524 69.2301 16.5984C69.3441 16.3967 69.5334 16.2485 69.7564 16.1861C69.9121 16.1443 70.0764 16.1472 70.2306 16.1944C70.4081 16.2488 70.5643 16.3574 70.6772 16.5049C70.7939 16.6663 70.8925 16.8401 70.9713 17.023C71.0503 17.2138 71.1629 17.3888 71.3038 17.5397C71.4541 17.6755 71.6511 17.7479 71.8535 17.7417C72.0475 17.7336 72.2405 17.7097 72.4307 17.6703C72.6083 17.6341 72.7896 17.6193 72.9707 17.6263C73.1293 17.6382 73.2832 17.6852 73.4215 17.7637C73.5277 17.828 73.647 17.8679 73.7705 17.8805C73.8162 17.8795 73.8611 17.8692 73.9027 17.8503C73.9443 17.8314 73.9816 17.8043 74.0124 17.7706C74.033 17.7501 74.0494 17.7257 74.0605 17.6988C74.0716 17.6719 74.0772 17.643 74.077 17.6139C74.0701 17.5741 74.0577 17.5535 74.0619 17.5521Z" fill="#455A64"/>
<path d="M74.2285 17.6907C74.2093 17.7072 73.9839 17.3307 73.5304 17.0751C73.2532 16.9302 72.9543 16.8314 72.6454 16.7824C72.736 16.7633 72.8296 16.7633 72.9202 16.7824C73.376 16.8514 73.7893 17.0887 74.0787 17.4475C74.1451 17.5172 74.1962 17.6001 74.2285 17.6907Z" fill="#455A64"/>
<path d="M72.5708 16.706C72.5708 16.706 72.5708 16.7225 72.5502 16.75C72.5242 16.7883 72.4922 16.8222 72.4554 16.8503C72.3854 16.8999 72.3062 16.9351 72.2224 16.9537C72.1386 16.9723 72.052 16.9741 71.9676 16.9589C71.7205 16.9006 71.4974 16.7677 71.3285 16.5782C71.1279 16.3831 70.9424 16.133 70.6717 15.9777C70.4129 15.8357 70.1098 15.7974 69.8238 15.8705C69.5902 15.9311 69.3824 16.0656 69.2315 16.2539C69.1291 16.3807 69.0525 16.5264 69.0061 16.6827C68.9745 16.7954 68.969 16.8599 68.9622 16.8586C68.9553 16.8572 68.9622 16.8421 68.9622 16.8118C68.9649 16.7656 68.9714 16.7196 68.9814 16.6744C69.0171 16.5089 69.0894 16.3535 69.193 16.2196C69.347 16.0178 69.5635 15.8729 69.8087 15.8073C70.112 15.7256 70.4353 15.765 70.7101 15.9172C71.0015 16.0835 71.1856 16.3405 71.3794 16.5329C71.5368 16.7159 71.7455 16.8475 71.9785 16.9108C72.1376 16.9436 72.3032 16.9146 72.4417 16.8297C72.4891 16.7933 72.5324 16.7518 72.5708 16.706Z" fill="#455A64"/>
<path d="M72.5034 22.9834C72.5245 22.9924 72.5467 22.9984 72.5694 23.0012C72.6334 23.0125 72.6982 23.0189 72.7631 23.0205C73.0051 23.0244 73.2445 22.9702 73.4612 22.8624C73.7869 22.7026 74.0493 22.4378 74.206 22.1107C74.4007 21.7109 74.445 21.2543 74.3311 20.8245C74.2692 20.6129 74.226 20.3963 74.2019 20.1772C74.1934 19.9756 74.244 19.7759 74.3476 19.6028C74.4475 19.44 74.5247 19.2643 74.5771 19.0806C74.6156 18.9161 74.6203 18.7454 74.5908 18.579C74.5506 18.3393 74.445 18.1153 74.2857 17.9317C74.2447 17.8814 74.1987 17.8354 74.1483 17.7943C74.1126 17.7668 74.0934 17.7545 74.0906 17.7572C74.0906 17.7641 74.1607 17.8191 74.2638 17.9496C74.4087 18.1339 74.5033 18.3527 74.5386 18.5845C74.5622 18.7426 74.5538 18.9038 74.5139 19.0586C74.4601 19.2357 74.3829 19.4049 74.2844 19.5616C74.2333 19.6528 74.1919 19.749 74.1607 19.8488C74.1308 19.9555 74.1188 20.0665 74.125 20.1772C74.1477 20.4015 74.1909 20.6232 74.2541 20.8396C74.3644 21.2522 74.3244 21.6905 74.1415 22.0764C74.0186 22.3401 73.8252 22.5648 73.5827 22.7255C73.3402 22.8863 73.058 22.977 72.7673 22.9875C72.5969 22.9902 72.5048 22.9737 72.5034 22.9834Z" fill="#455A64"/>
<path d="M75.1189 16.4452C75.0512 16.3746 74.9634 16.3267 74.8674 16.3077C74.6406 16.2433 74.3982 16.2619 74.1839 16.3601C73.9695 16.4583 73.7972 16.6298 73.698 16.8437C73.6495 16.9268 73.627 17.0225 73.6334 17.1185C73.6471 17.1185 73.6691 17.0168 73.7529 16.8712C73.8585 16.6809 74.0221 16.5294 74.2199 16.4387C74.4177 16.348 74.6392 16.3228 74.8523 16.3668C75.0172 16.4067 75.112 16.4575 75.1189 16.4452Z" fill="#455A64"/>
<path d="M74.0278 17.3767C74.0278 17.3767 74.0278 17.3438 74.021 17.2805C74.0187 17.19 74.0415 17.1006 74.0869 17.0222C74.1569 16.8975 74.2633 16.7973 74.392 16.735C74.4755 16.6931 74.5671 16.6702 74.6605 16.6678C74.7538 16.6654 74.8466 16.6837 74.9321 16.7212C75.1419 16.8145 75.3128 16.9777 75.4158 17.183C75.533 17.4202 75.5848 17.6845 75.5656 17.9484C75.5455 18.2437 75.4995 18.5366 75.4281 18.8238C75.3487 19.1381 75.3108 19.4615 75.3155 19.7857C75.3451 20.1101 75.4296 20.427 75.5656 20.723C75.6876 20.9918 75.795 21.267 75.8871 21.5475C75.966 21.8007 75.9885 22.068 75.9531 22.3308C75.9188 22.5602 75.8497 22.7831 75.7483 22.9918C75.5962 23.2946 75.4149 23.5818 75.2069 23.8493L75.0406 24.0719C75.0192 24.0959 75.0011 24.1227 74.987 24.1516C75.0119 24.1312 75.0344 24.1082 75.0544 24.0829C75.097 24.0348 75.1574 23.9647 75.2344 23.8699C75.4543 23.6076 75.6455 23.3224 75.8047 23.0193C75.9124 22.806 75.987 22.5775 76.0259 22.3418C76.0649 22.068 76.0438 21.789 75.9641 21.5241C75.8736 21.2385 75.7671 20.9582 75.6453 20.6845C75.5144 20.3969 75.4326 20.0894 75.4034 19.7747C75.3759 19.1275 75.6384 18.5283 75.648 17.9457C75.665 17.668 75.6071 17.3908 75.4804 17.1431C75.3679 16.9252 75.1827 16.7535 74.9568 16.658C74.8632 16.6192 74.7622 16.6015 74.661 16.6062C74.5598 16.611 74.4609 16.6381 74.3714 16.6855C74.2368 16.7553 74.1273 16.8653 74.0581 17.0002C74.0136 17.0846 73.995 17.1802 74.0045 17.2751C74.0061 17.3101 74.014 17.3445 74.0278 17.3767Z" fill="#455A64"/>
<path d="M69.5641 21.3375C69.594 21.4261 69.6366 21.5099 69.6906 21.5863C69.7176 21.6247 69.7525 21.6569 69.7931 21.6806C69.8336 21.7043 69.8788 21.719 69.9255 21.7237C69.9757 21.724 70.025 21.7115 70.069 21.6875C70.113 21.6635 70.1502 21.6286 70.177 21.5863C70.2297 21.5007 70.2542 21.4007 70.2471 21.3004C70.2471 21.2111 70.2017 21.1039 70.1097 21.0929C70.0719 21.0916 70.0345 21.1001 70.0011 21.1176L69.5353 21.31" fill="#7F473D"/>
<path d="M69.7524 21.7258C69.837 21.7321 69.9219 21.7218 70.0025 21.6956C70.0846 21.6634 70.152 21.6023 70.1922 21.5238C70.2133 21.4753 70.2243 21.4229 70.2243 21.3699C70.2243 21.3169 70.2133 21.2645 70.1922 21.216C70.1817 21.1908 70.1679 21.1672 70.1509 21.1459C70.1331 21.1267 70.1358 21.1267 70.1152 21.1308C70.0946 21.1349 70.0657 21.15 70.041 21.1596L69.964 21.1912L69.6892 21.2957C69.6087 21.3349 69.5224 21.3608 69.4336 21.3726C69.5044 21.3183 69.5826 21.2743 69.6658 21.2421L69.9269 21.1198L70.0039 21.0854C70.0316 21.0723 70.06 21.0608 70.0891 21.0511C70.1118 21.0435 70.1364 21.0435 70.1592 21.0511C70.1794 21.0608 70.1973 21.0748 70.2114 21.0923C70.2325 21.1198 70.25 21.1498 70.2636 21.1816C70.2892 21.2413 70.3012 21.3059 70.2988 21.3707C70.2964 21.4356 70.2797 21.4991 70.2499 21.5568C70.2248 21.6031 70.1907 21.644 70.1497 21.677C70.1086 21.71 70.0614 21.7346 70.0108 21.7492C69.945 21.7707 69.8746 21.7735 69.8074 21.7574C69.7717 21.7492 69.7497 21.7313 69.7524 21.7258Z" fill="#263238"/>
<path d="M74.345 49.7941L73.4669 42.7444C74.0386 41.4087 74.2461 40.0743 74.0798 39.2457C74.0894 39.3322 74.0936 39.4394 74.0702 39.1962C73.9328 37.7285 72.6603 36.6498 72.6603 36.6498L72.2356 34.8633L66.8047 35.6301L67.0095 38.6108L63.6028 49.6815L62.8016 61.6495L65.6971 61.9724C65.6971 61.9724 66.7965 56.5402 67.1016 54.3565C67.2659 53.1721 67.3599 51.9791 67.3833 50.7836L70.0479 46.7983C70.3639 48.4474 70.7199 50.4757 70.904 51.5353C70.9861 52.0092 71.1897 52.4538 71.4949 52.8257L78.4677 58.3047L80.1346 56.1416C79.475 54.564 74.345 49.7941 74.345 49.7941Z" fill="#263238"/>
<path d="M67.5015 37.8427C67.4506 37.7497 67.4122 37.6504 67.3875 37.5473C67.314 37.3033 67.2579 37.0544 67.2198 36.8025C67.1813 36.5505 67.1616 36.296 67.1608 36.0412C67.1544 35.9354 67.1613 35.8292 67.1814 35.7251C67.1983 35.8291 67.2071 35.9344 67.2075 36.0398C67.2198 36.2335 67.2418 36.5001 67.2858 36.7928C67.3298 37.0856 67.3875 37.3425 67.4342 37.5349C67.4654 37.6354 67.488 37.7384 67.5015 37.8427Z" fill="#455A64"/>
<path d="M67.7488 35.8115C67.7488 35.8115 67.7694 35.7909 67.8189 35.7799C67.8895 35.7667 67.9624 35.7774 68.0264 35.8102C68.0762 35.8333 68.1193 35.8688 68.1516 35.9133C68.1838 35.9578 68.2041 36.0098 68.2105 36.0644C68.216 36.1318 68.2027 36.1995 68.1722 36.2599C68.1416 36.3203 68.095 36.371 68.0374 36.4066C67.9777 36.4395 67.9094 36.4538 67.8415 36.4474C67.7736 36.441 67.7092 36.4143 67.6567 36.3708C67.6133 36.3376 67.5789 36.294 67.5566 36.2441C67.5342 36.1942 67.5247 36.1395 67.5289 36.085C67.5349 36.0151 67.5555 35.9472 67.5894 35.8857C67.6127 35.8431 67.6292 35.8225 67.6333 35.8239C67.6375 35.8253 67.6333 35.8514 67.6141 35.8967C67.5909 35.9578 67.5783 36.0224 67.577 36.0877C67.5772 36.1378 67.5901 36.187 67.6147 36.2306C67.6393 36.2742 67.6746 36.3107 67.7173 36.3368C67.7601 36.3629 67.8088 36.3775 67.8588 36.3794C67.9088 36.3813 67.9584 36.3703 68.003 36.3475C68.0496 36.3188 68.0877 36.2782 68.1133 36.2299C68.1389 36.1816 68.1511 36.1273 68.1487 36.0726C68.1445 36.0273 68.1291 35.9838 68.1039 35.9459C68.0787 35.908 68.0445 35.8769 68.0044 35.8555C67.9264 35.813 67.8365 35.7975 67.7488 35.8115Z" fill="#455A64"/>
<path d="M71.3218 37.252C71.3218 37.252 71.2902 37.2712 71.227 37.2918C71.1378 37.3219 71.0456 37.3426 70.9521 37.3537C70.8157 37.3735 70.6774 37.3786 70.5399 37.3688C70.3692 37.3551 70.2006 37.3228 70.0369 37.2726C69.874 37.2189 69.7174 37.148 69.5696 37.061C69.4505 36.9881 69.3391 36.9034 69.2371 36.8081C69.1678 36.7446 69.1048 36.6747 69.0488 36.5992C69.0089 36.5456 68.9897 36.514 68.9938 36.5113C68.998 36.5085 69.0914 36.6212 69.2687 36.7724C69.3723 36.8605 69.4836 36.9391 69.6013 37.0074C69.7463 37.0893 69.8991 37.1565 70.0575 37.208C70.2166 37.2564 70.38 37.2896 70.5454 37.307C70.6825 37.3189 70.8205 37.3189 70.9576 37.307C71.1761 37.285 71.3218 37.2396 71.3218 37.252Z" fill="#455A64"/>
<path d="M73.0656 42.5693C73.0482 42.5989 73.0285 42.6269 73.0065 42.6532L72.8333 42.8813C72.6835 43.0847 72.465 43.3774 72.2039 43.7457C71.6803 44.4809 70.9671 45.5088 70.1989 46.648L68.2159 49.5723L67.6113 50.4587L67.4464 50.6978C67.4281 50.7261 67.4074 50.7528 67.3845 50.7775C67.3992 50.7469 67.4162 50.7175 67.4354 50.6896L67.5893 50.4436L68.1719 49.5462C68.6667 48.7904 69.3579 47.7515 70.1316 46.6109C70.9053 45.4703 71.6199 44.4465 72.1544 43.7182C72.421 43.3526 72.645 43.0641 72.8017 42.8648C72.8814 42.7727 72.9391 42.6999 72.9913 42.6435C73.0137 42.6165 73.0385 42.5916 73.0656 42.5693Z" fill="#455A64"/>
<path d="M72.4955 26.3289C72.5065 26.3289 72.5065 26.1915 72.545 25.962C72.5954 25.6721 72.6958 25.3931 72.8418 25.1375C72.9744 24.8739 73.1864 24.6586 73.4478 24.5219C73.5606 24.4781 73.6815 24.4589 73.8024 24.4655C73.7727 24.4485 73.739 24.4395 73.7048 24.4394C73.6115 24.4303 73.5174 24.443 73.43 24.4765C73.1493 24.6053 72.9213 24.8265 72.7841 25.1031C72.6327 25.3673 72.5351 25.6587 72.4969 25.9607C72.4752 26.0824 72.4747 26.207 72.4955 26.3289Z" fill="#263238"/>
<path d="M72.0254 24.1357L69.2769 24.5617L67.5674 26.8154C66.8845 27.7211 66.5341 28.8343 66.5752 29.9679C66.6271 30.552 66.7708 31.1243 67.0012 31.6636L66.5725 34.8917C66.5093 35.2627 66.7498 35.6186 66.9119 35.6186L72.0625 34.9315C72.7331 34.7941 73.0093 34.4492 72.9681 34.0603L72.8911 33.3402L74.5897 26.0802C74.7188 26.5145 74.6446 24.6785 73.6621 24.3171C73.1443 24.1046 72.5772 24.0417 72.0254 24.1357Z" fill="#FA8A3C"/>
<path d="M68.4445 25.6279C68.4282 25.642 68.4139 25.6582 68.4019 25.676L68.2878 25.8217C68.1916 25.9495 68.0528 26.1364 67.8879 26.3714C67.4473 26.9724 67.0844 27.6267 66.8078 28.3186C66.5356 29.0128 66.4521 29.7667 66.5659 30.5036C66.6039 30.7256 66.6675 30.9423 66.7555 31.1495C66.7786 31.2063 66.8048 31.2618 66.8339 31.3158C66.8437 31.3353 66.8547 31.3541 66.8669 31.3722C66.8432 31.2933 66.8143 31.2162 66.7803 31.1413C66.7032 30.9322 66.6475 30.7158 66.614 30.4954C66.5173 29.7681 66.6067 29.0281 66.8737 28.3448C67.149 27.6583 67.5032 27.0062 67.9291 26.4016L68.3098 25.8423L68.4129 25.6898C68.4257 25.6704 68.4363 25.6497 68.4445 25.6279Z" fill="#263238"/>
<path d="M72.5724 27.3833C72.5699 27.4048 72.5699 27.4264 72.5724 27.4479C72.5724 27.4987 72.5861 27.5606 72.5944 27.6348C72.6164 27.7956 72.6535 28.0292 72.7043 28.3219C72.8074 28.8949 72.9709 29.681 73.166 30.5467C73.3612 31.4125 73.5522 32.1958 73.6978 32.7551C73.7707 33.0368 73.8353 33.2636 73.8765 33.4202C73.8985 33.4917 73.9163 33.5508 73.9301 33.6003C73.9438 33.6497 73.9507 33.6621 73.9534 33.6607C73.9533 33.6388 73.9501 33.6171 73.9438 33.5961L73.9026 33.4134C73.8641 33.2443 73.8105 33.019 73.7459 32.7441L73.2334 30.5316C73.0382 29.6659 72.8678 28.8826 72.7524 28.3123L72.6219 27.6375C72.6081 27.5633 72.5958 27.5001 72.5875 27.4534C72.5793 27.4067 72.5751 27.3833 72.5724 27.3833Z" fill="#263238"/>
<g opacity="0.3">
<path opacity="0.3" d="M72.439 34.8251C72.1436 34.5296 72.0817 34.0789 72.035 33.6625C71.8875 32.3396 71.74 31.0162 71.5925 29.6924C71.5004 28.8679 71.4139 28.0021 71.7299 27.2325C71.7462 27.1721 71.7757 27.1161 71.8164 27.0686C71.857 27.021 71.9078 26.9832 71.9649 26.9577C72.0235 26.947 72.0839 26.9533 72.139 26.976C72.194 26.9987 72.2414 27.0367 72.2755 27.0855C72.347 27.1803 72.5503 27.3177 72.5764 27.4318C72.8774 28.6123 73.0079 29.768 73.3089 30.9539C73.3872 31.2659 73.4917 31.2535 73.4229 31.5682C73.3226 32.0244 72.8953 33.3341 72.8953 33.3341C72.8953 33.3341 72.9557 33.8109 72.9736 34.0885C72.9831 34.2533 72.9355 34.4164 72.8389 34.5503C72.7423 34.6842 72.6026 34.7807 72.4431 34.8237" fill="black"/>
</g>
<path d="M69.156 24.8115L69.0695 24.0845L72.7153 23.6187V24.4336L69.156 24.8115Z" fill="#FA8A3C"/>
<path d="M53.9216 58.9205L55.5033 61.5809C55.5033 61.5809 53.3307 64.082 53.5794 64.6042L58.8482 61.7184L56.5491 57.4775L53.9216 58.9205Z" fill="#455A64"/>
<path d="M57.008 60.4631C57.067 60.4508 57.1286 60.4608 57.1806 60.4913C57.2327 60.5218 57.2716 60.5705 57.2897 60.628C57.3024 60.6855 57.293 60.7456 57.2635 60.7965C57.234 60.8474 57.1865 60.8853 57.1303 60.9029C57.0675 60.9157 57.0021 60.9049 56.9468 60.8724C56.8915 60.8399 56.8501 60.7881 56.8307 60.727C56.8222 60.6644 56.8382 60.6009 56.8753 60.5497C56.9124 60.4985 56.9678 60.4636 57.03 60.4521" fill="#E0E0E0"/>
<path d="M58.8424 61.7199L58.5951 61.3076L53.6355 64.221C53.6355 64.221 53.4569 64.4505 53.5737 64.6016L58.8424 61.7199Z" fill="#263238"/>
<path d="M55.403 61.6C55.4181 61.6247 55.5528 61.567 55.7246 61.5808C55.8963 61.5945 56.0228 61.6646 56.042 61.6412C56.0613 61.6179 55.9403 61.4914 55.7314 61.4777C55.5226 61.464 55.381 61.5794 55.403 61.6Z" fill="#263238"/>
<path d="M54.9754 62.1317C54.9837 62.1605 55.1129 62.1427 55.2654 62.2045C55.418 62.2664 55.5004 62.3667 55.5251 62.3516C55.5499 62.3364 55.4867 62.1812 55.3025 62.1097C55.1184 62.0382 54.9686 62.107 54.9754 62.1317Z" fill="#263238"/>
<path d="M55.0235 62.9649C55.0496 62.9567 55.0152 62.8083 54.8723 62.7038C54.7294 62.5994 54.5782 62.609 54.5782 62.6365C54.5782 62.664 54.6951 62.6983 54.8119 62.7863C54.9287 62.8742 54.996 62.9745 55.0235 62.9649Z" fill="#263238"/>
<path d="M55.106 60.9559C55.1294 60.9737 55.2283 60.8734 55.3809 60.8033C55.5334 60.7333 55.6708 60.7181 55.6722 60.6879C55.6735 60.6577 55.5142 60.6261 55.3383 60.7113C55.1624 60.7965 55.0854 60.9421 55.106 60.9559Z" fill="#263238"/>
<path d="M54.126 60.0069L54.2428 63.0989C54.2428 63.0989 51.1371 64.256 51.1028 64.829L57.1081 64.8208L57.1259 59.9932L54.126 60.0069Z" fill="#455A64"/>
<path d="M56.0997 62.8364C56.1564 62.8539 56.2049 62.8914 56.236 62.942C56.2671 62.9926 56.2787 63.0527 56.2687 63.1112C56.2537 63.1697 56.2168 63.2201 56.1657 63.2521C56.1145 63.2841 56.053 63.2951 55.9939 63.283C55.9328 63.2642 55.8808 63.2235 55.8479 63.1687C55.8149 63.114 55.8033 63.049 55.8153 62.9862C55.8373 62.9267 55.8816 62.8782 55.9388 62.8507C55.9959 62.8233 56.0615 62.8191 56.1217 62.8391" fill="#E0E0E0"/>
<path d="M57.1082 64.8205L57.0918 64.334L51.3407 64.5236C51.3407 64.5236 51.0658 64.6404 51.1029 64.8287L57.1082 64.8205Z" fill="#263238"/>
<path d="M54.1442 63.0662C54.1442 63.0965 54.2912 63.1088 54.4355 63.2036C54.5798 63.2985 54.6567 63.4221 54.6842 63.4098C54.7117 63.3974 54.6677 63.2284 54.4905 63.1184C54.3132 63.0085 54.1442 63.0401 54.1442 63.0662Z" fill="#263238"/>
<path d="M53.5161 63.3288C53.5093 63.3576 53.6357 63.4071 53.736 63.5308C53.8363 63.6545 53.8651 63.7864 53.894 63.785C53.9229 63.7836 53.9421 63.6174 53.8143 63.4662C53.6865 63.315 53.5161 63.3013 53.5161 63.3288Z" fill="#263238"/>
<path d="M53.1589 64.0807C53.1864 64.0876 53.2262 63.9433 53.1506 63.7798C53.0751 63.6163 52.9376 63.5558 52.9253 63.5805C52.9129 63.6053 52.9981 63.6905 53.0627 63.8238C53.1273 63.9571 53.13 64.0725 53.1589 64.0807Z" fill="#263238"/>
<path d="M54.1974 62.3581C54.2084 62.3856 54.3431 62.3444 54.5094 62.3581C54.6757 62.3719 54.8049 62.4214 54.82 62.3966C54.8351 62.3719 54.71 62.2661 54.5149 62.2592C54.3197 62.2523 54.1823 62.3348 54.1974 62.3581Z" fill="#263238"/>
<path d="M57.1549 41.0235C57.1549 41.0235 57.493 42.7275 57.3226 42.9721C57.1402 43.3021 56.9818 43.6447 56.8485 43.9973L56.9474 51.6544L57.4724 62.923L53.8994 62.8529L52.5582 52.9008C52.2567 52.3595 52.0184 51.7855 51.8477 51.1899C51.6553 50.3998 50.5875 42.5585 50.5875 42.5585L50.6466 39.5435L57.1549 41.0235Z" fill="#263238"/>
<path d="M49.0226 39.7119C49.0226 39.7119 49.5723 49.9787 49.799 50.8939C50.0258 51.8091 54.9303 61.2143 54.9303 61.2143L58.0251 59.7686L54.1512 49.8632L54.3367 40.3812L49.0226 39.7119Z" fill="#263238"/>
<path d="M50.2289 40.6196C50.2271 40.6388 50.2271 40.6581 50.2289 40.6773C50.2289 40.7186 50.2413 40.7749 50.2495 40.8477C50.2701 41.0003 50.2976 41.2202 50.3347 41.5005C50.413 42.0694 50.5244 42.8885 50.6632 43.8985C50.802 44.9086 50.9724 46.1151 51.1592 47.4536C51.2541 48.1215 51.3475 48.8278 51.4588 49.552C51.5629 50.3062 51.7349 51.0495 51.9728 51.7728C52.227 52.5121 52.598 53.1882 52.7135 53.9152C52.8509 54.6339 52.9471 55.3375 53.0392 56.0067C53.2151 57.3466 53.3538 58.5545 53.4734 59.5701C53.593 60.5856 53.6878 61.406 53.762 61.9722C53.7991 62.2566 53.8293 62.4765 53.8527 62.6249C53.8651 62.6964 53.8747 62.7514 53.8815 62.794C53.884 62.8131 53.8881 62.8319 53.8939 62.8503C53.8939 62.8503 53.8939 62.8311 53.8939 62.7926C53.8939 62.7541 53.8815 62.6936 53.8733 62.6222L53.7963 61.9694C53.7331 61.3978 53.6424 60.576 53.5311 59.5632C53.4198 58.5504 53.2851 57.3383 53.1189 55.9985C53.0295 55.3279 52.9375 54.6243 52.7973 53.9C52.6805 53.1621 52.3067 52.4791 52.0552 51.748C51.816 51.0293 51.6412 50.2907 51.533 49.541C51.4217 48.8154 51.3269 48.1119 51.2293 47.444L50.7181 43.8903C50.5697 42.883 50.4502 42.0653 50.3663 41.4964L50.2688 40.8505C50.2564 40.779 50.2481 40.7227 50.2413 40.6815C50.2391 40.6605 50.235 40.6398 50.2289 40.6196Z" fill="#455A64"/>
<path d="M57.1905 56.8701C57.1834 56.9487 57.1834 57.0279 57.1905 57.1065C57.1905 57.259 57.1988 57.4789 57.2084 57.751C57.229 58.3007 57.2675 59.0469 57.3142 59.8755C57.3609 60.7042 57.4008 61.4572 57.4255 62.0001C57.4379 62.2625 57.4475 62.4797 57.4558 62.6446C57.4551 62.7238 57.4616 62.8029 57.475 62.8809C57.4849 62.8021 57.4881 62.7226 57.4846 62.6432C57.4846 62.492 57.4846 62.2708 57.4846 61.9987C57.4736 61.449 57.442 60.7014 57.3953 59.8714C57.3486 59.0414 57.3005 58.3048 57.2675 57.7482C57.251 57.4871 57.2359 57.27 57.2262 57.1051C57.2204 57.026 57.2085 56.9474 57.1905 56.8701Z" fill="#455A64"/>
<path d="M53.4226 18.0118L54.1619 23.6722C54.2869 24.6342 54.276 26.0757 52.7437 26.2049C51.4052 26.2159 50.9077 25.008 50.7923 24.1092C50.736 23.6818 50.6892 23.3273 50.681 23.2847C50.681 23.2847 49.2216 23.3369 48.9316 21.9229C48.7942 21.2357 48.6169 19.8093 48.474 18.5134C48.4004 17.8423 48.5823 17.168 48.9834 16.6248C49.3844 16.0817 49.9753 15.7094 50.6384 15.5822L50.7758 15.5547C52.2655 15.3596 53.2673 16.5153 53.4226 18.0118Z" fill="#FFD5BD"/>
<path d="M50.6755 23.2672C51.3317 23.1538 51.9392 22.8477 52.4208 22.3877C52.4208 22.3877 52.1803 23.4871 50.7429 23.6355L50.6755 23.2672Z" fill="#FFB294"/>
<path d="M48.8218 19.1817C48.8521 19.2064 49.0431 19.1226 49.3097 19.1418C49.5763 19.161 49.7673 19.2682 49.7975 19.2476C49.8277 19.227 49.7824 19.1954 49.6986 19.1459C49.5782 19.0806 49.445 19.0426 49.3083 19.0346C49.1758 19.0237 49.0427 19.0439 48.9194 19.0937C48.8356 19.1377 48.8067 19.1707 48.8218 19.1817Z" fill="#263238"/>
<path d="M51.0507 19.0006C51.0878 19.0088 51.2225 18.8508 51.4629 18.7505C51.7034 18.6502 51.9274 18.6584 51.9439 18.6268C51.9604 18.5952 51.9082 18.5883 51.8065 18.5814C51.6703 18.5775 51.5349 18.6028 51.4094 18.6557C51.2864 18.7039 51.1766 18.7806 51.0892 18.8797C51.0411 18.947 51.0328 19.0006 51.0507 19.0006Z" fill="#263238"/>
<path d="M51.0081 19.454C51.0158 19.4947 51.039 19.5308 51.0729 19.5546C51.1067 19.5785 51.1485 19.5882 51.1895 19.5818C51.2101 19.5803 51.2302 19.5746 51.2484 19.565C51.2667 19.5554 51.2828 19.5421 51.2957 19.5259C51.3087 19.5098 51.3181 19.4912 51.3234 19.4712C51.3288 19.4513 51.33 19.4304 51.3269 19.41C51.3195 19.3694 51.2965 19.3333 51.2629 19.3094C51.2293 19.2856 51.1876 19.2758 51.1469 19.2822C51.1262 19.2837 51.1061 19.2894 51.0877 19.299C51.0694 19.3086 51.0532 19.3219 51.0402 19.338C51.0272 19.3541 51.0176 19.3727 51.0121 19.3926C51.0065 19.4126 51.0052 19.4335 51.0081 19.454Z" fill="#263238"/>
<path d="M48.9704 19.6878C48.9778 19.7288 49.0009 19.7652 49.0348 19.7893C49.0687 19.8135 49.1107 19.8234 49.1518 19.817C49.1723 19.8153 49.1923 19.8095 49.2105 19.7998C49.2287 19.7901 49.2447 19.7768 49.2576 19.7608C49.2705 19.7447 49.2799 19.7261 49.2853 19.7063C49.2908 19.6864 49.2921 19.6656 49.2892 19.6452C49.2822 19.6044 49.2593 19.568 49.2256 19.5438C49.192 19.5196 49.1502 19.5097 49.1092 19.516C49.0886 19.5177 49.0686 19.5236 49.0503 19.5332C49.0321 19.5429 49.016 19.5561 49.003 19.5722C48.99 19.5883 48.9804 19.6068 48.9748 19.6267C48.9692 19.6465 48.9677 19.6673 48.9704 19.6878Z" fill="#263238"/>
<path d="M50.5808 20.5498C50.4594 20.5348 50.3367 20.5348 50.2153 20.5498C50.1589 20.5498 50.104 20.5498 50.0875 20.5181C50.0691 20.4624 50.0691 20.4022 50.0875 20.3464L50.1699 19.8915C50.2826 19.2442 50.3513 18.7165 50.3266 18.7124C50.3019 18.7083 50.1892 19.2291 50.0751 19.8764C50.049 20.0344 50.0243 20.187 49.9995 20.3326C49.9775 20.4061 49.9824 20.485 50.0133 20.5552C50.0248 20.5737 50.0405 20.5892 50.0591 20.6005C50.0777 20.6117 50.0988 20.6183 50.1205 20.6198C50.1524 20.6242 50.1848 20.6242 50.2167 20.6198C50.3406 20.6126 50.463 20.589 50.5808 20.5498Z" fill="#263238"/>
<path d="M50.9833 17.9C51.0121 17.9495 51.199 17.8877 51.4299 17.8725C51.6608 17.8574 51.8545 17.8849 51.8751 17.8313C51.8847 17.8052 51.8421 17.7599 51.7597 17.7228C51.6502 17.6775 51.5315 17.6587 51.4134 17.6677C51.2952 17.6768 51.1808 17.7135 51.0795 17.775C50.9998 17.8272 50.9668 17.878 50.9833 17.9Z" fill="#263238"/>
<path d="M48.76 18.6145C48.7902 18.6543 48.9716 18.5842 49.197 18.5512C49.4223 18.5183 49.6092 18.5238 49.6326 18.4757C49.6395 18.4537 49.5982 18.4193 49.5144 18.3946C49.4034 18.3642 49.287 18.3586 49.1736 18.3781C49.0587 18.3955 48.9487 18.4367 48.8507 18.499C48.7847 18.5485 48.7462 18.5952 48.76 18.6145Z" fill="#263238"/>
<path d="M53.5093 19.0861C53.5313 19.071 54.4273 18.6106 54.5826 19.585C54.7379 20.5593 53.7319 20.5139 53.7223 20.4864C53.7127 20.459 53.5093 19.0861 53.5093 19.0861Z" fill="#FFD5BD"/>
<path d="M53.9612 20.0689C53.9612 20.0689 53.9791 20.0785 54.0107 20.0867C54.0535 20.0977 54.099 20.0913 54.1371 20.0689C54.1951 20.019 54.2386 19.9543 54.2628 19.8817C54.287 19.8091 54.291 19.7313 54.2745 19.6566C54.2641 19.5727 54.2345 19.4922 54.1879 19.4216C54.174 19.3926 54.1532 19.3674 54.1274 19.3483C54.1015 19.3291 54.0713 19.3166 54.0395 19.3117C54.0193 19.3093 53.9989 19.3142 53.9821 19.3256C53.9652 19.3369 53.9529 19.3539 53.9475 19.3735C53.9378 19.4038 53.9475 19.4216 53.9475 19.4244C53.9475 19.4271 53.9241 19.412 53.9255 19.3694C53.928 19.3445 53.9381 19.321 53.9543 19.3021C53.9786 19.278 54.0109 19.2638 54.045 19.2622C54.0863 19.2639 54.1264 19.2761 54.1615 19.2978C54.1967 19.3194 54.2256 19.3498 54.2457 19.3859C54.3007 19.4638 54.3361 19.5538 54.3487 19.6484C54.3735 19.8449 54.302 20.0455 54.1673 20.1087C54.1424 20.1206 54.1152 20.1267 54.0876 20.1267C54.0601 20.1267 54.0328 20.1206 54.0079 20.1087C53.9667 20.0922 53.9571 20.0716 53.9612 20.0689Z" fill="#FFB294"/>
<path d="M50.8913 21.1994C50.879 21.176 51.0631 21.0963 51.1772 20.8998C51.2238 20.813 51.2594 20.7206 51.283 20.625C51.3022 20.5508 51.3187 20.504 51.3297 20.5054C51.3407 20.5068 51.3435 20.5562 51.3366 20.6346C51.3288 20.7409 51.2973 20.8442 51.2445 20.9369C51.1901 21.0296 51.1118 21.106 51.0178 21.1582C50.9463 21.1994 50.8955 21.209 50.8913 21.1994Z" fill="#263238"/>
<path d="M46.4265 17.4583C46.437 17.3988 46.4706 17.346 46.52 17.3112C46.6277 17.2456 46.7511 17.21 46.8773 17.2082C47.2577 17.1557 47.6162 16.9993 47.9134 16.7561C48.0374 16.523 48.1803 16.3005 48.3408 16.0909C48.7215 15.5935 49.0417 15.2486 49.3921 15.0562C49.9348 14.7835 50.5413 14.6634 51.147 14.7085C51.6582 14.7799 52.1529 15.1304 52.2821 15.632C52.5322 15.3571 52.9513 15.3159 53.3059 15.4121H53.3141C53.7085 15.5014 53.9696 15.8766 54.1276 16.2476C54.2857 16.6186 54.3805 17.0268 54.6251 17.347C54.676 17.4143 54.7364 17.4954 54.7089 17.5737C54.6951 17.6034 54.6726 17.6283 54.6444 17.645C54.6162 17.6616 54.5836 17.6694 54.5509 17.6672C54.4858 17.6599 54.4227 17.6398 54.3654 17.6081L54.5275 17.8953C54.3937 17.9344 54.2526 17.9419 54.1153 17.9173C54.0867 18.269 54.0371 18.6186 53.9669 18.9644C53.8238 18.9638 53.6854 19.0156 53.578 19.1101C53.4598 19.2475 53.4268 19.4756 53.1973 19.4165C53.0805 19.3863 52.9499 19.1637 52.8991 19.0538C52.5601 18.3214 52.3829 17.5246 52.3796 16.7176C52.203 16.5685 51.999 16.4551 51.7791 16.3837L51.7983 16.3974C51.3861 16.3053 50.9147 16.2229 50.5615 16.4551C50.2867 16.6338 50.1493 16.9594 49.9569 17.2288C49.7804 17.4772 49.5556 17.6873 49.2958 17.8465C49.036 18.0057 48.7467 18.1106 48.4452 18.155C48.4714 18.559 48.5717 19.117 48.5978 19.5292L48.1855 18.926C48.1525 18.882 48.1237 18.838 48.0962 18.7885L48.0866 18.7748C48.0448 18.7004 47.9989 18.6284 47.9492 18.559C47.9098 18.6122 47.8511 18.6478 47.7857 18.6582C47.7204 18.6686 47.6535 18.653 47.5996 18.6147C47.5456 18.5764 47.5088 18.5184 47.4971 18.4533C47.4854 18.3882 47.4997 18.3211 47.5369 18.2663C47.5651 18.2151 47.6013 18.1687 47.6441 18.1289C47.5996 18.1815 47.5424 18.2217 47.4779 18.2458C47.4134 18.2699 47.3438 18.2769 47.2758 18.2663C47.2091 18.2545 47.1481 18.2212 47.102 18.1716C47.0559 18.1221 47.0272 18.0588 47.0202 17.9915C47.0202 17.9442 47.0329 17.8978 47.0571 17.8571C47.0813 17.8165 47.116 17.7831 47.1576 17.7606C46.9821 17.7947 46.8004 17.7761 46.6354 17.707C46.5172 17.6713 46.4073 17.5888 46.4265 17.4583Z" fill="#263238"/>
<path d="M51.8519 15.8511C51.9074 15.8851 51.9602 15.9232 52.01 15.9651C52.1392 16.0879 52.2339 16.2423 52.2848 16.4131C52.3238 16.5296 52.3505 16.6498 52.3645 16.7718C52.381 16.9092 52.3865 17.0466 52.3947 17.1951C52.3991 17.3525 52.4137 17.5095 52.4387 17.665C52.4519 17.7455 52.4708 17.8249 52.4951 17.9028C52.5191 17.9881 52.5634 18.0664 52.6242 18.1309C52.6527 18.1554 52.6869 18.1722 52.7237 18.1799C52.7605 18.1876 52.7986 18.1859 52.8345 18.1749C52.9028 18.1531 52.9621 18.1097 53.0035 18.0512C53.0688 17.9352 53.1016 17.8036 53.0983 17.6705L53.0695 17.6788C53.1252 17.7802 53.1956 17.8728 53.2784 17.9536C53.3583 18.0291 53.4639 18.0714 53.5738 18.0718C53.6251 18.0709 53.6751 18.0557 53.7181 18.0278C53.7583 18.0014 53.7891 17.9629 53.8061 17.9179C53.8245 17.8746 53.8298 17.8268 53.8212 17.7805C53.8147 17.7396 53.7943 17.7022 53.7635 17.6747L53.7497 17.6911C53.8464 17.7782 53.9601 17.8442 54.0837 17.8849C54.1263 17.8987 54.1592 17.9055 54.1826 17.911H54.2183L54.184 17.9014L54.0864 17.8698C53.9666 17.8262 53.8568 17.7589 53.7635 17.6719L53.7497 17.687C53.7765 17.7142 53.7942 17.749 53.8004 17.7867C53.8065 17.8243 53.8008 17.863 53.7841 17.8973C53.768 17.9375 53.7403 17.972 53.7044 17.9962C53.6628 18.0209 53.6153 18.0338 53.5669 18.0333C53.4641 18.0319 53.3657 17.9911 53.2921 17.9193C53.2122 17.8376 53.1442 17.7451 53.0901 17.6444L53.0654 17.6004V17.6513C53.0679 17.7781 53.0366 17.9034 52.9747 18.0141C52.9381 18.0667 52.8848 18.1055 52.8235 18.124C52.793 18.1338 52.7606 18.1355 52.7293 18.129C52.698 18.1225 52.6689 18.108 52.6448 18.0869C52.5877 18.0273 52.547 17.9539 52.5267 17.8739C52.5003 17.7963 52.4796 17.7168 52.4648 17.6362C52.4407 17.4819 52.4255 17.3264 52.4195 17.1703C52.4112 17.0205 52.4044 16.8776 52.3865 16.7443C52.371 16.6208 52.3429 16.4993 52.3027 16.3815C52.2483 16.2083 52.1481 16.053 52.0127 15.9322C51.9637 15.8968 51.9095 15.8695 51.8519 15.8511Z" fill="#455A64"/>
<path d="M47.5958 17.7634L47.6082 17.7716L47.648 17.7936C47.6689 17.8055 47.6905 17.816 47.7126 17.8252C47.7427 17.8387 47.7734 17.8507 47.8047 17.8609C48.0063 17.925 48.2208 17.9378 48.4286 17.8981C48.7376 17.8434 49.024 17.7001 49.2531 17.4858C49.5289 17.2193 49.7469 16.8988 49.8935 16.5444C49.9773 16.3589 50.0406 16.172 50.1148 15.9948C50.1816 15.8254 50.2718 15.6663 50.3827 15.522C50.4831 15.3923 50.6145 15.2897 50.7648 15.2238C50.8332 15.1961 50.9055 15.1789 50.9791 15.173C51.1169 15.1674 51.2538 15.1964 51.3775 15.2573C51.5011 15.3183 51.6075 15.4093 51.6869 15.522C51.7286 15.5862 51.7619 15.6555 51.7858 15.7282C51.7858 15.7282 51.7858 15.7282 51.7858 15.713L51.7748 15.6704C51.7558 15.6161 51.731 15.5641 51.7006 15.5152C51.6503 15.4392 51.5876 15.3724 51.5151 15.3173C51.4195 15.2433 51.3088 15.1912 51.1908 15.1647C51.1218 15.1496 51.0511 15.1436 50.9805 15.1469C50.9042 15.1526 50.8291 15.1698 50.7579 15.1977C50.6022 15.2642 50.466 15.3692 50.3621 15.5028C50.2474 15.6483 50.1548 15.8099 50.0873 15.9824C50.0131 16.1583 49.9499 16.3452 49.866 16.5321C49.7202 16.8817 49.5057 17.1985 49.2353 17.4638C49.0111 17.6759 48.7306 17.819 48.4272 17.8761C48.2229 17.9169 48.0117 17.9079 47.8116 17.85C47.738 17.8254 47.666 17.7965 47.5958 17.7634Z" fill="#455A64"/>
<path d="M47.3923 17.146C47.3923 17.146 47.4102 17.1584 47.4473 17.1762C47.4994 17.1999 47.5531 17.2196 47.6081 17.2353C47.69 17.2588 47.7736 17.2758 47.8582 17.2862C47.962 17.2952 48.0664 17.2952 48.1701 17.2862C48.2739 17.2766 48.3765 17.2572 48.4766 17.2284C48.558 17.2049 48.6371 17.1741 48.713 17.1364C48.7649 17.1124 48.8145 17.0839 48.8614 17.0512C48.8795 17.04 48.8966 17.0271 48.9122 17.0127C48.9122 17.0127 48.8339 17.0567 48.7033 17.1144C48.6273 17.1488 48.5487 17.1773 48.4683 17.1996C48.3695 17.2247 48.2689 17.2426 48.1674 17.2532C48.0654 17.2615 47.9629 17.2615 47.8609 17.2532C47.778 17.2451 47.6958 17.2309 47.615 17.2106C47.4762 17.1776 47.3951 17.1405 47.3923 17.146Z" fill="#455A64"/>
<path d="M49.3055 32.865C49.3055 32.685 50.7457 24.6953 50.7457 24.6953C51.0205 24.4383 54.0603 22.2148 54.0603 22.2148L56.6864 25.3673C56.6864 25.3673 57.3488 27.8409 57.5522 29.6274C57.6896 30.8064 58.297 36.4311 58.4729 38.8057C58.496 39.1202 58.4363 39.4352 58.2999 39.7195C58.1634 40.0037 57.9549 40.2473 57.6951 40.4259L57.4202 40.4548L57.3474 41.1639C54.9192 41.2189 49.0581 40.1401 48.9839 40.1854C48.9097 40.2308 49.3096 33.515 49.3055 32.865Z" fill="#455A64"/>
<path d="M48.9813 39.3071C49.0087 39.3165 49.0367 39.3239 49.0652 39.3291L49.307 39.3841C49.5159 39.4308 49.8223 39.4899 50.2002 39.5586C50.9574 39.696 52.0073 39.8554 53.1713 39.9997C54.3353 40.144 55.392 40.2581 56.1561 40.346L57.0603 40.4463L57.3063 40.4725C57.3351 40.4746 57.3641 40.4746 57.3929 40.4725C57.3652 40.4634 57.3366 40.4574 57.3077 40.4546L57.0631 40.4175C56.8501 40.3873 56.5422 40.346 56.1602 40.2966L53.1823 39.9393C52.0183 39.795 50.9684 39.6438 50.2099 39.516C49.832 39.4528 49.5228 39.4006 49.3139 39.3607L49.0706 39.3181C49.0414 39.3109 49.0114 39.3072 48.9813 39.3071Z" fill="#263238"/>
<path d="M55.2889 22.0242C55.7108 22.1451 56.0626 22.4364 56.4006 22.7113L57.8628 23.9206C58.1445 24.1542 58.4386 24.4043 58.5636 24.7451C58.745 25.2398 58.5073 25.8225 58.0868 26.1386C57.6465 26.4384 57.1058 26.5524 56.582 26.456C56.0643 26.3588 55.564 26.1846 55.0979 25.9393L53.9531 22.299C54.206 21.9362 54.8684 21.9019 55.2889 22.0242Z" fill="#455A64"/>
<path d="M50.7086 24.7286C50.7623 24.7121 50.8143 24.6904 50.8639 24.664C50.9628 24.62 51.103 24.5499 51.2762 24.4592C51.721 24.2205 52.1506 23.9543 52.5624 23.6622C53.0475 23.3214 53.4694 22.9943 53.7759 22.758L54.1373 22.4762C54.1833 22.4437 54.2265 22.4074 54.2665 22.3677C54.2176 22.3931 54.1716 22.4235 54.129 22.4584C54.0397 22.5188 53.9119 22.6095 53.7553 22.7236C53.4419 22.9503 53.0159 23.2733 52.5336 23.6127C52.0512 23.9521 51.5977 24.2325 51.2611 24.4221C51.092 24.5169 50.956 24.5925 50.8598 24.6434C50.8063 24.666 50.7556 24.6946 50.7086 24.7286Z" fill="#263238"/>
<path d="M54.8215 23.5928C54.8635 23.6348 54.9095 23.6725 54.959 23.7055C55.0057 23.7384 55.0593 23.7824 55.1211 23.8346C55.183 23.8869 55.2585 23.9432 55.33 24.0105C55.7287 24.3575 56.0741 24.7613 56.3552 25.2088C56.6336 25.6579 56.8469 26.1442 56.9887 26.6532C57.0409 26.8483 57.0821 27.0077 57.1028 27.119C57.1123 27.1774 57.1271 27.2349 57.1467 27.2908C57.1455 27.2316 57.1386 27.1727 57.1261 27.1149C57.1124 27.0022 57.078 26.84 57.0313 26.6422C56.9 26.124 56.6891 25.6293 56.406 25.1759C56.1226 24.7239 55.7691 24.3199 55.3589 23.9789C55.2805 23.9116 55.2077 23.8552 55.1417 23.8072C55.0758 23.7591 55.0208 23.7178 54.9727 23.6862C54.9246 23.6514 54.8741 23.6202 54.8215 23.5928Z" fill="#263238"/>
<g opacity="0.3">
<path opacity="0.3" d="M54.9124 22.0892C55.9568 22.2156 57.0699 23.3768 57.9192 24.0735C57.5688 24.1464 57.0273 23.7987 56.7085 23.6297C55.9101 23.2243 55.3233 22.5688 54.2666 22.3667L53.9532 22.2925C54.1443 22.1263 54.6843 22.0713 54.9124 22.0892Z" fill="black"/>
</g>
<path d="M54.3021 22.3633C54.3021 22.3633 54.3585 22.3729 54.4588 22.3976C54.602 22.4332 54.7404 22.4858 54.8711 22.5543C55.1995 22.7247 55.62 23.0243 56.0982 23.3321C56.5017 23.6063 56.9334 23.8367 57.3859 24.0192C57.5238 24.0742 57.6652 24.1201 57.8091 24.1566C57.8616 24.1714 57.9155 24.1806 57.9699 24.1841C57.92 24.1631 57.8686 24.1461 57.816 24.1332C57.7171 24.103 57.5741 24.0563 57.4037 23.9862C56.9593 23.7945 56.5337 23.5617 56.1326 23.2908C55.734 23.0142 55.3212 22.7587 54.8958 22.5254C54.7626 22.4605 54.6211 22.4142 54.4753 22.388C54.4353 22.3807 54.3949 22.3761 54.3543 22.3742C54.3159 22.3605 54.3021 22.3605 54.3021 22.3633Z" fill="#263238"/>
<g opacity="0.3">
<path opacity="0.3" d="M54.0947 27.8442C53.6824 30.6105 53.2069 33.5033 51.5249 35.7391C51.081 36.3287 50.4503 36.9045 49.7151 36.8385C49.4223 36.811 49.087 36.5485 49.208 36.2806C49.208 36.308 49.5282 36.1528 49.7577 36.0057C50.2537 35.6841 50.6907 35.5508 51.0137 35.0548C51.3366 34.5587 51.606 33.8757 51.8451 33.3342C52.5927 31.6357 53.4941 29.5785 54.0988 27.847" fill="black"/>
</g>
<path d="M55.4002 41.1536C55.4784 41.0262 55.5254 40.8821 55.5376 40.7331C55.5676 40.5872 55.5638 40.4363 55.5267 40.292C55.5088 40.292 55.5115 40.4885 55.4772 40.7249C55.4428 40.9612 55.381 41.1481 55.4002 41.1536Z" fill="#263238"/>
<path d="M54.2951 40.9338C54.366 40.6772 54.3962 40.411 54.3844 40.145C54.3155 40.402 54.2854 40.6679 54.2951 40.9338Z" fill="#263238"/>
<path d="M53.0062 40.7122C53.0595 40.5889 53.0938 40.4583 53.108 40.3247C53.1411 40.1941 53.1545 40.0593 53.1478 39.9248C53.0955 40.0488 53.0617 40.1799 53.0475 40.3137C53.0135 40.4437 52.9996 40.5781 53.0062 40.7122Z" fill="#263238"/>
<path d="M51.878 40.6157C51.9136 40.4895 51.9425 40.3615 51.9646 40.2323C52.0053 40.1078 52.0392 39.9812 52.0663 39.853C51.9167 40.0776 51.8502 40.3473 51.878 40.6157Z" fill="#263238"/>
<path d="M50.7347 40.3945C50.7854 40.2919 50.818 40.1812 50.8309 40.0675C50.8632 39.9574 50.8757 39.8425 50.868 39.728C50.8172 39.8307 50.7847 39.9413 50.7718 40.0551C50.7394 40.1652 50.7269 40.2801 50.7347 40.3945Z" fill="#263238"/>
<path d="M49.7066 40.3245C49.7245 40.3245 49.7327 40.1335 49.7795 39.904C49.8262 39.6745 49.8894 39.4917 49.8729 39.4917C49.7898 39.615 49.737 39.7563 49.719 39.904C49.6827 40.0413 49.6785 40.1852 49.7066 40.3245Z" fill="#263238"/>
<path d="M51.3958 35.3516C51.3838 35.3964 51.3774 35.4426 51.3765 35.489C51.3699 35.5432 51.3671 35.5979 51.3683 35.6525C51.3644 35.7239 51.3644 35.7955 51.3683 35.8669C51.3802 36.0523 51.4088 36.2363 51.4535 36.4166C51.5117 36.6389 51.5909 36.8551 51.6899 37.0625C51.793 37.2677 51.9159 37.4624 52.0568 37.6438C52.1724 37.7929 52.3016 37.931 52.4429 38.056C52.4964 38.1047 52.5524 38.1506 52.6106 38.1934C52.6541 38.2274 52.7 38.2582 52.748 38.2855C52.7858 38.313 52.8263 38.3365 52.869 38.3556C52.8758 38.3446 52.7082 38.2402 52.4773 38.0258C52.3427 37.8986 52.2186 37.7608 52.1063 37.6135C51.8313 37.2543 51.63 36.8442 51.514 36.407C51.4664 36.2267 51.4338 36.0429 51.4164 35.8573C51.3834 35.5467 51.404 35.3516 51.3958 35.3516Z" fill="#263238"/>
<g opacity="0.3">
<path opacity="0.3" d="M52.4209 37.9631L52.3838 37.9315C51.8698 37.4596 51.5308 36.8275 51.4219 36.1382C51.9221 36.5889 52.278 37.3104 52.4209 37.9631Z" fill="black"/>
</g>
<path d="M52.6724 39.8876C52.9206 39.4957 53.0087 39.0234 52.9183 38.5684C52.9126 38.7932 52.8942 39.0176 52.8634 39.2404C52.8111 39.4593 52.7474 39.6754 52.6724 39.8876Z" fill="#263238"/>
<path d="M50.8954 35.1313C50.8885 35.1478 50.9833 35.2069 51.1084 35.2688C51.1804 35.3129 51.2619 35.3393 51.3461 35.3457C51.353 35.3306 51.2582 35.2715 51.1331 35.2083C51.0611 35.1642 50.9796 35.1378 50.8954 35.1313Z" fill="#263238"/>
<path d="M56.4224 41.1757C56.5144 41.0632 56.5692 40.9249 56.5791 40.7799C56.6077 40.6381 56.5909 40.491 56.531 40.3594C56.5131 40.3594 56.5489 40.5476 56.5186 40.7716C56.4884 40.9956 56.406 41.166 56.4224 41.1757Z" fill="#263238"/>
<path d="M83.8587 36.3491L83.4272 29.7157L40.7784 32.4834L40.5269 28.5889L31.8116 36.3944L41.471 43.1542L41.2099 39.1167L83.8587 36.3491Z" fill="#ADB3BC"/>
<path d="M83.8588 36.3495L41.2114 39.1502L41.243 39.1145L41.5013 43.1519V43.2248L41.4422 43.1835L31.7815 36.4251L31.7444 36.399L31.7774 36.3688L34.1644 34.2319L40.4926 28.5632L40.5476 28.5151V28.5866C40.6328 29.904 40.7171 31.2022 40.8005 32.4811L40.7634 32.4481L83.4135 29.6997H83.4286V29.7189C83.7035 34.034 83.8409 36.2396 83.8409 36.3537C83.8446 36.2364 83.7026 34.0248 83.4149 29.7189L83.4314 29.7341L40.7812 32.5182H40.7469V32.4825C40.6626 31.2045 40.5783 29.9068 40.494 28.5893L40.5531 28.6127L34.2317 34.2827L31.8447 36.4196V36.3633C35.1593 38.6843 38.3901 40.9449 41.5041 43.1231L41.4491 43.1547C41.3584 41.7598 41.2691 40.3829 41.188 39.1158V39.0829H41.2224L83.8588 36.3495Z" fill="#263238"/>
<g opacity="0.3">
<path opacity="0.3" d="M74.2462 31.5777C74.15 31.1572 73.9851 30.7435 73.9865 30.312L72.6645 30.4219C72.7895 31.017 72.9118 31.6587 72.6768 32.2167C72.4638 32.7238 71.9897 33.0742 71.5266 33.3614C70.6444 33.9111 69.6398 34.3591 69.0874 35.2358C69.5107 35.4447 70.0081 35.2125 70.4218 34.9843L73.4808 33.2913C73.7191 33.1797 73.9312 33.0191 74.1033 32.82C74.3603 32.4778 74.3451 31.9982 74.2462 31.5777Z" fill="black"/>
</g>
<path d="M47.2139 36.5806L45.2433 36.8554L43.7564 38.6048C43.7564 38.6048 43.979 38.8068 44.3803 38.5677C44.5534 38.4646 44.1673 38.9264 44.1673 38.9264L43.1064 39.0019C43.0927 39.0345 43.0857 39.0695 43.0858 39.1049C43.086 39.1402 43.0932 39.1752 43.1072 39.2077C43.1212 39.2401 43.1416 39.2695 43.1672 39.2938C43.1928 39.3182 43.2231 39.3372 43.2562 39.3496C43.5022 39.4376 44.3858 39.4692 44.3858 39.4692L44.4765 39.3317C44.5311 39.3825 44.5968 39.4198 44.6684 39.4405C44.74 39.4613 44.8155 39.465 44.8887 39.4513C45.129 39.5412 45.3886 39.5668 45.6418 39.5255C45.8675 39.4961 46.0875 39.4331 46.2946 39.3386L48.1566 37.5755L47.2139 36.5806Z" fill="#FFD5BD"/>
<path d="M45.5072 37.4526C45.2878 37.5914 45.0889 37.7602 44.9163 37.9542C44.7271 38.1325 44.5634 38.3359 44.4298 38.5589C44.4463 38.5713 44.6689 38.3074 44.9658 38.0092C45.2626 37.711 45.5196 37.4691 45.5072 37.4526Z" fill="#FFB294"/>
<path d="M45.2117 38.6182C45.0501 38.7355 44.9025 38.871 44.772 39.0222C44.6246 39.1565 44.4936 39.3078 44.3817 39.4729C44.689 39.2212 44.9657 38.9343 45.2062 38.6182H45.2117Z" fill="#FFB294"/>
<path d="M45.624 38.8286C45.4982 38.9291 45.378 39.0365 45.264 39.1502C45.1343 39.2463 45.0104 39.3501 44.8929 39.4608C45.0482 39.407 45.1891 39.3186 45.3052 39.2024C45.439 39.1042 45.5481 38.9762 45.624 38.8286Z" fill="#FFB294"/>
<path d="M46.0567 39.0054C45.9508 39.0779 45.8536 39.1623 45.7668 39.2569C45.6115 39.3943 45.4782 39.5083 45.4919 39.5248C45.6157 39.4792 45.7269 39.4047 45.8162 39.3077C45.9197 39.2279 46.0022 39.1241 46.0567 39.0054Z" fill="#FFB294"/>
<g opacity="0.3">
<path opacity="0.3" d="M54.2458 31.7287C53.5697 31.4827 52.8001 31.8331 52.3123 32.3622C51.8244 32.8912 51.5468 33.5729 51.2129 34.2119C50.4975 35.5927 49.5102 36.8146 48.3105 37.8041L49.0884 38.2315C50.1547 37.7922 51.183 37.2654 52.1625 36.6566C52.8592 36.2224 53.5546 35.7221 53.949 35.0075C54.4863 34.0236 54.3736 32.8349 54.2458 31.7287Z" fill="black"/>
</g>
<path d="M54.0642 26.533C54.0642 26.533 54.3541 33.5195 53.3578 34.6959C52.3615 35.8722 48.9012 38.2867 48.9012 38.2867L48.4711 38.2454L47.74 38.409L46.5651 36.6527L50.16 32.8049C50.16 32.8049 50.2974 25.5436 50.4184 25.3567C50.5393 25.1698 50.7111 24.2752 51.9369 24.3865C53.1627 24.4978 54.0985 25.5834 54.0642 26.533Z" fill="#455A64"/>
<path d="M53.3198 24.7388C53.3661 24.7662 53.4094 24.7984 53.449 24.835C53.5578 24.9485 53.6482 25.0783 53.7169 25.2197C53.8323 25.4385 53.9244 25.6688 53.9918 25.9069C54.0554 26.2298 54.0781 26.5594 54.0591 26.888C54.0495 28.3557 53.9904 30.3813 53.8406 32.6116C53.8227 32.8865 53.8035 33.1613 53.7678 33.4362C53.7384 33.699 53.6794 33.9576 53.5919 34.2071C53.487 34.4336 53.3479 34.6426 53.1796 34.8269C53.0147 35.0097 52.8471 35.1828 52.6739 35.3422C51.9868 35.9799 51.3134 36.4938 50.75 36.9239C50.1866 37.3541 49.7207 37.688 49.3992 37.9202L49.0295 38.1951L48.9347 38.2652C48.9232 38.2727 48.9126 38.2814 48.9031 38.2913L48.9374 38.2707L49.0364 38.2047L49.4115 37.945C49.7358 37.7169 50.2045 37.3843 50.7734 36.961C51.445 36.4697 52.0908 35.9441 52.7083 35.3862C52.8828 35.2268 53.0518 35.0536 53.2181 34.8695C53.3925 34.6812 53.5366 34.467 53.6455 34.2346C53.7351 33.9807 53.7955 33.7175 53.8255 33.4499C53.8612 33.1751 53.8818 32.9002 53.8997 32.6254C54.0481 30.395 54.1031 28.3653 54.1017 26.899C54.119 26.5668 54.0931 26.2338 54.0248 25.9082C53.9535 25.6669 53.8567 25.4338 53.7362 25.2129C53.6651 25.072 53.5723 24.9431 53.4613 24.8308C53.4221 24.7894 53.3736 24.7579 53.3198 24.7388Z" fill="#263238"/>
<path d="M50.1588 32.8042C50.1588 32.8207 50.4048 32.8674 50.681 33.009C50.9572 33.1505 51.1551 33.3154 51.1661 33.3017C51.0385 33.1555 50.8811 33.0383 50.7044 32.9581C50.538 32.8626 50.3506 32.8097 50.1588 32.8042Z" fill="#263238"/>
<path d="M50.4144 26.1751C50.4227 26.1751 50.4076 26.0514 50.4268 25.8576C50.4516 25.6072 50.5309 25.3652 50.6591 25.1486C50.7873 24.9373 50.9621 24.7582 51.1703 24.625C51.3283 24.5247 51.4451 24.4876 51.4369 24.4766C51.409 24.4785 51.3816 24.485 51.3558 24.4958C51.2845 24.5216 51.2156 24.5533 51.1496 24.5906C50.9287 24.7181 50.7438 24.8997 50.6123 25.1183C50.4792 25.3416 50.4023 25.5939 50.3883 25.8535C50.3844 25.9324 50.3867 26.0114 50.3952 26.0899C50.3965 26.1192 50.403 26.1481 50.4144 26.1751Z" fill="#263238"/>
<path d="M46.5651 36.6509C46.5849 36.6222 46.6069 36.5951 46.631 36.5698L46.833 36.3445L47.5861 35.5199L50.1284 32.7784L50.1188 32.8004C50.1257 32.6313 50.1339 32.4513 50.1422 32.2699C50.2136 30.6731 50.2796 29.2288 50.3263 28.1761C50.3538 27.658 50.3758 27.2362 50.3909 26.9393C50.3991 26.8019 50.406 26.6865 50.4115 26.6026C50.4121 26.5634 50.4162 26.5243 50.4239 26.4858C50.4268 26.5252 50.4268 26.5647 50.4239 26.604C50.4239 26.6878 50.4239 26.7992 50.4156 26.9407C50.406 27.2417 50.3923 27.6635 50.3744 28.1775C50.3318 29.2315 50.2741 30.6758 50.2109 32.2727C50.2026 32.4541 50.1944 32.6341 50.1875 32.8045V32.8169L50.1779 32.8265L47.6191 35.5529L46.8495 36.361L46.6393 36.5781C46.6162 36.604 46.5914 36.6283 46.5651 36.6509Z" fill="#263238"/>
<path d="M69.879 35.4907L68.0636 35.6185L66.5932 37.1192C66.5932 37.1192 66.7842 37.317 67.1649 37.126C67.3312 37.0422 66.9478 37.4393 66.9478 37.4393H65.9762C65.9613 37.4682 65.9525 37.4997 65.9501 37.5321C65.9477 37.5644 65.952 37.5969 65.9625 37.6276C65.973 37.6583 65.9896 37.6865 66.0114 37.7106C66.0331 37.7347 66.0595 37.7542 66.0889 37.7678C66.3088 37.8626 67.1127 37.9492 67.1127 37.9492L67.1993 37.8269C67.2461 37.8776 67.3042 37.9164 67.369 37.9403C67.4337 37.9642 67.5031 37.9724 67.5717 37.9643C67.7866 38.0624 68.0236 38.1023 68.2588 38.0797C68.4665 38.0679 68.6713 38.0248 68.8662 37.9519L70.6788 36.4623L69.879 35.4907Z" fill="#BC8F86"/>
<path d="M68.2655 36.1777C67.8581 36.4219 67.5005 36.7408 67.2114 37.1177C67.2252 37.1301 67.445 36.9033 67.7364 36.645C68.0277 36.3866 68.2751 36.186 68.2655 36.1777Z" fill="#7F473D"/>
<path d="M67.9192 37.2163C67.7645 37.3131 67.6211 37.4269 67.4919 37.5557C67.3493 37.6703 67.2197 37.8002 67.1057 37.9433C67.2615 37.8474 67.4054 37.7335 67.5345 37.6038C67.6773 37.49 67.8064 37.3599 67.9192 37.2163Z" fill="#7F473D"/>
<path d="M68.2876 37.4365C68.1654 37.5211 68.0484 37.6129 67.9371 37.7114C67.8128 37.7912 67.6931 37.8779 67.5785 37.9711C67.7245 37.9322 67.8598 37.8608 67.9742 37.7622C68.1018 37.6785 68.2088 37.5672 68.2876 37.4365Z" fill="#7F473D"/>
<path d="M68.668 37.623C68.5662 37.6824 68.4716 37.7534 68.3863 37.8347C68.2866 37.8994 68.1944 37.9749 68.1115 38.06C68.2275 38.0269 68.3339 37.9666 68.422 37.8842C68.5239 37.8182 68.6082 37.7286 68.668 37.623Z" fill="#7F473D"/>
<path d="M73.2181 24.2207C73.2181 24.2207 74.5043 24.1438 75.0897 25.8973C75.6752 27.6508 76.8034 31.8737 76.7017 33.0349C76.6 34.1962 70.3103 37.0559 70.3103 37.0559L68.8824 35.2859L73.6578 32.1541L72.3991 26.5486C72.3991 26.5486 71.8933 24.3733 73.2181 24.2207Z" fill="#FA8A3C"/>
<path d="M73.698 24.3434C73.5625 24.3595 73.4296 24.3922 73.3022 24.441C73.0035 24.5796 72.7632 24.819 72.6233 25.1171C72.4905 25.421 72.4173 25.7476 72.4076 26.0791C72.3925 26.3333 72.3952 26.4913 72.3842 26.4913C72.3585 26.3555 72.3493 26.2171 72.3567 26.0791C72.3527 25.7395 72.4216 25.403 72.5587 25.0924C72.7055 24.7806 72.9639 24.5354 73.283 24.4053C73.3795 24.3677 73.4817 24.3468 73.5853 24.3434C73.6224 24.3354 73.6608 24.3354 73.698 24.3434Z" fill="#263238"/>
<path d="M74.8453 32.4067C74.8357 32.4259 74.6048 32.3133 74.2956 32.2693C73.9864 32.2253 73.735 32.261 73.7308 32.2404C73.9175 32.1843 74.1142 32.1703 74.3069 32.1992C74.4996 32.2282 74.6835 32.2996 74.8453 32.4081V32.4067Z" fill="#263238"/>
</svg>
