<svg width="336" height="255" viewBox="0 0 336 255" fill="none" xmlns="http://www.w3.org/2000/svg">
<rect width="336" height="235.997" rx="24.2795" fill="white"/>
<path d="M250.586 173.508C250.586 172.836 250.722 172.248 250.994 171.744C251.266 171.232 251.638 170.836 252.11 170.556C252.59 170.276 253.126 170.136 253.718 170.136C254.23 170.136 254.706 170.256 255.146 170.496C255.586 170.728 255.922 171.036 256.154 171.42V167.94H257.258V176.82H256.154V175.584C255.938 175.976 255.618 176.3 255.194 176.556C254.77 176.804 254.274 176.928 253.706 176.928C253.122 176.928 252.59 176.784 252.11 176.496C251.638 176.208 251.266 175.804 250.994 175.284C250.722 174.764 250.586 174.172 250.586 173.508ZM256.154 173.52C256.154 173.024 256.054 172.592 255.854 172.224C255.654 171.856 255.382 171.576 255.038 171.384C254.702 171.184 254.33 171.084 253.922 171.084C253.514 171.084 253.142 171.18 252.806 171.372C252.47 171.564 252.202 171.844 252.002 172.212C251.802 172.58 251.702 173.012 251.702 173.508C251.702 174.012 251.802 174.452 252.002 174.828C252.202 175.196 252.47 175.48 252.806 175.68C253.142 175.872 253.514 175.968 253.922 175.968C254.33 175.968 254.702 175.872 255.038 175.68C255.382 175.48 255.654 175.196 255.854 174.828C256.054 174.452 256.154 174.016 256.154 173.52ZM261.972 176.928C261.356 176.928 260.796 176.788 260.292 176.508C259.796 176.228 259.404 175.832 259.116 175.32C258.836 174.8 258.696 174.2 258.696 173.52C258.696 172.848 258.84 172.256 259.128 171.744C259.424 171.224 259.824 170.828 260.328 170.556C260.832 170.276 261.396 170.136 262.02 170.136C262.644 170.136 263.208 170.276 263.712 170.556C264.216 170.828 264.612 171.22 264.9 171.732C265.196 172.244 265.344 172.84 265.344 173.52C265.344 174.2 265.192 174.8 264.888 175.32C264.592 175.832 264.188 176.228 263.676 176.508C263.164 176.788 262.596 176.928 261.972 176.928ZM261.972 175.968C262.364 175.968 262.732 175.876 263.076 175.692C263.42 175.508 263.696 175.232 263.904 174.864C264.12 174.496 264.228 174.048 264.228 173.52C264.228 172.992 264.124 172.544 263.916 172.176C263.708 171.808 263.436 171.536 263.1 171.36C262.764 171.176 262.4 171.084 262.008 171.084C261.608 171.084 261.24 171.176 260.904 171.36C260.576 171.536 260.312 171.808 260.112 172.176C259.912 172.544 259.812 172.992 259.812 173.52C259.812 174.056 259.908 174.508 260.1 174.876C260.3 175.244 260.564 175.52 260.892 175.704C261.22 175.88 261.58 175.968 261.972 175.968ZM267.343 169.176C267.135 169.176 266.959 169.104 266.815 168.96C266.671 168.816 266.599 168.64 266.599 168.432C266.599 168.224 266.671 168.048 266.815 167.904C266.959 167.76 267.135 167.688 267.343 167.688C267.543 167.688 267.711 167.76 267.847 167.904C267.991 168.048 268.063 168.224 268.063 168.432C268.063 168.64 267.991 168.816 267.847 168.96C267.711 169.104 267.543 169.176 267.343 169.176ZM267.871 170.244V176.82H266.779V170.244H267.871ZM272.937 170.124C273.737 170.124 274.385 170.368 274.881 170.856C275.377 171.336 275.625 172.032 275.625 172.944V176.82H274.545V173.1C274.545 172.444 274.381 171.944 274.053 171.6C273.725 171.248 273.277 171.072 272.709 171.072C272.133 171.072 271.673 171.252 271.329 171.612C270.993 171.972 270.825 172.496 270.825 173.184V176.82H269.733V170.244H270.825V171.18C271.041 170.844 271.333 170.584 271.701 170.4C272.077 170.216 272.489 170.124 272.937 170.124ZM280.12 170.136C280.688 170.136 281.184 170.26 281.608 170.508C282.04 170.756 282.36 171.068 282.568 171.444V170.244H283.672V176.964C283.672 177.564 283.544 178.096 283.288 178.56C283.032 179.032 282.664 179.4 282.184 179.664C281.712 179.928 281.16 180.06 280.528 180.06C279.664 180.06 278.944 179.856 278.368 179.448C277.792 179.04 277.452 178.484 277.348 177.78H278.428C278.548 178.18 278.796 178.5 279.172 178.74C279.548 178.988 280 179.112 280.528 179.112C281.128 179.112 281.616 178.924 281.992 178.548C282.376 178.172 282.568 177.644 282.568 176.964V175.584C282.352 175.968 282.032 176.288 281.608 176.544C281.184 176.8 280.688 176.928 280.12 176.928C279.536 176.928 279.004 176.784 278.524 176.496C278.052 176.208 277.68 175.804 277.408 175.284C277.136 174.764 277 174.172 277 173.508C277 172.836 277.136 172.248 277.408 171.744C277.68 171.232 278.052 170.836 278.524 170.556C279.004 170.276 279.536 170.136 280.12 170.136ZM282.568 173.52C282.568 173.024 282.468 172.592 282.268 172.224C282.068 171.856 281.796 171.576 281.452 171.384C281.116 171.184 280.744 171.084 280.336 171.084C279.928 171.084 279.556 171.18 279.22 171.372C278.884 171.564 278.616 171.844 278.416 172.212C278.216 172.58 278.116 173.012 278.116 173.508C278.116 174.012 278.216 174.452 278.416 174.828C278.616 175.196 278.884 175.48 279.22 175.68C279.556 175.872 279.928 175.968 280.336 175.968C280.744 175.968 281.116 175.872 281.452 175.68C281.796 175.48 282.068 175.196 282.268 174.828C282.468 174.452 282.568 174.016 282.568 173.52ZM291.921 170.124C292.721 170.124 293.369 170.368 293.865 170.856C294.361 171.336 294.609 172.032 294.609 172.944V176.82H293.529V173.1C293.529 172.444 293.365 171.944 293.037 171.6C292.709 171.248 292.261 171.072 291.693 171.072C291.117 171.072 290.657 171.252 290.313 171.612C289.977 171.972 289.809 172.496 289.809 173.184V176.82H288.717V170.244H289.809V171.18C290.025 170.844 290.317 170.584 290.685 170.4C291.061 170.216 291.473 170.124 291.921 170.124ZM299.261 176.928C298.645 176.928 298.085 176.788 297.581 176.508C297.085 176.228 296.693 175.832 296.405 175.32C296.125 174.8 295.985 174.2 295.985 173.52C295.985 172.848 296.129 172.256 296.417 171.744C296.713 171.224 297.113 170.828 297.617 170.556C298.121 170.276 298.685 170.136 299.309 170.136C299.933 170.136 300.497 170.276 301.001 170.556C301.505 170.828 301.901 171.22 302.189 171.732C302.485 172.244 302.633 172.84 302.633 173.52C302.633 174.2 302.481 174.8 302.177 175.32C301.881 175.832 301.477 176.228 300.965 176.508C300.453 176.788 299.885 176.928 299.261 176.928ZM299.261 175.968C299.653 175.968 300.021 175.876 300.365 175.692C300.709 175.508 300.985 175.232 301.193 174.864C301.409 174.496 301.517 174.048 301.517 173.52C301.517 172.992 301.413 172.544 301.205 172.176C300.997 171.808 300.725 171.536 300.389 171.36C300.053 171.176 299.689 171.084 299.297 171.084C298.897 171.084 298.529 171.176 298.193 171.36C297.865 171.536 297.601 171.808 297.401 172.176C297.201 172.544 297.101 172.992 297.101 173.52C297.101 174.056 297.197 174.508 297.389 174.876C297.589 175.244 297.853 175.52 298.181 175.704C298.509 175.88 298.869 175.968 299.261 175.968ZM305.401 171.144V175.02C305.401 175.34 305.469 175.568 305.605 175.704C305.741 175.832 305.977 175.896 306.313 175.896H307.117V176.82H306.133C305.525 176.82 305.069 176.68 304.765 176.4C304.461 176.12 304.309 175.66 304.309 175.02V171.144H303.457V170.244H304.309V168.588H305.401V170.244H307.117V171.144H305.401ZM311.704 170.124C312.2 170.124 312.648 170.232 313.048 170.448C313.448 170.656 313.76 170.972 313.984 171.396C314.216 171.82 314.332 172.336 314.332 172.944V176.82H313.252V173.1C313.252 172.444 313.088 171.944 312.76 171.6C312.432 171.248 311.984 171.072 311.416 171.072C310.84 171.072 310.38 171.252 310.036 171.612C309.7 171.972 309.532 172.496 309.532 173.184V176.82H308.44V167.94H309.532V171.18C309.748 170.844 310.044 170.584 310.42 170.4C310.804 170.216 311.232 170.124 311.704 170.124ZM316.679 169.176C316.471 169.176 316.295 169.104 316.151 168.96C316.007 168.816 315.935 168.64 315.935 168.432C315.935 168.224 316.007 168.048 316.151 167.904C316.295 167.76 316.471 167.688 316.679 167.688C316.879 167.688 317.047 167.76 317.183 167.904C317.327 168.048 317.399 168.224 317.399 168.432C317.399 168.64 317.327 168.816 317.183 168.96C317.047 169.104 316.879 169.176 316.679 169.176ZM317.207 170.244V176.82H316.115V170.244H317.207ZM322.273 170.124C323.073 170.124 323.721 170.368 324.217 170.856C324.713 171.336 324.961 172.032 324.961 172.944V176.82H323.881V173.1C323.881 172.444 323.717 171.944 323.389 171.6C323.061 171.248 322.613 171.072 322.045 171.072C321.469 171.072 321.009 171.252 320.665 171.612C320.329 171.972 320.161 172.496 320.161 173.184V176.82H319.069V170.244H320.161V171.18C320.377 170.844 320.669 170.584 321.037 170.4C321.413 170.216 321.825 170.124 322.273 170.124ZM329.456 170.136C330.024 170.136 330.52 170.26 330.944 170.508C331.376 170.756 331.696 171.068 331.904 171.444V170.244H333.008V176.964C333.008 177.564 332.88 178.096 332.624 178.56C332.368 179.032 332 179.4 331.52 179.664C331.048 179.928 330.496 180.06 329.864 180.06C329 180.06 328.28 179.856 327.704 179.448C327.128 179.04 326.788 178.484 326.684 177.78H327.764C327.884 178.18 328.132 178.5 328.508 178.74C328.884 178.988 329.336 179.112 329.864 179.112C330.464 179.112 330.952 178.924 331.328 178.548C331.712 178.172 331.904 177.644 331.904 176.964V175.584C331.688 175.968 331.368 176.288 330.944 176.544C330.52 176.8 330.024 176.928 329.456 176.928C328.872 176.928 328.34 176.784 327.86 176.496C327.388 176.208 327.016 175.804 326.744 175.284C326.472 174.764 326.336 174.172 326.336 173.508C326.336 172.836 326.472 172.248 326.744 171.744C327.016 171.232 327.388 170.836 327.86 170.556C328.34 170.276 328.872 170.136 329.456 170.136ZM331.904 173.52C331.904 173.024 331.804 172.592 331.604 172.224C331.404 171.856 331.132 171.576 330.788 171.384C330.452 171.184 330.08 171.084 329.672 171.084C329.264 171.084 328.892 171.18 328.556 171.372C328.22 171.564 327.952 171.844 327.752 172.212C327.552 172.58 327.452 173.012 327.452 173.508C327.452 174.012 327.552 174.452 327.752 174.828C327.952 175.196 328.22 175.48 328.556 175.68C328.892 175.872 329.264 175.968 329.672 175.968C330.08 175.968 330.452 175.872 330.788 175.68C331.132 175.48 331.404 175.196 331.604 174.828C331.804 174.452 331.904 174.016 331.904 173.52Z" fill="black"/>
<path d="M30.9711 214.946C30.3644 214.946 29.8184 214.839 29.3331 214.624C28.8571 214.4 28.4791 214.102 28.1991 213.728C27.9191 213.346 27.7698 212.921 27.7511 212.454H29.4031C29.4311 212.781 29.5851 213.056 29.8651 213.28C30.1544 213.495 30.5138 213.602 30.9431 213.602C31.3911 213.602 31.7364 213.518 31.9791 213.35C32.2311 213.173 32.3571 212.949 32.3571 212.678C32.3571 212.389 32.2171 212.174 31.9371 212.034C31.6664 211.894 31.2324 211.74 30.6351 211.572C30.0564 211.414 29.5851 211.26 29.2211 211.11C28.8571 210.961 28.5398 210.732 28.2691 210.424C28.0078 210.116 27.8771 209.71 27.8771 209.206C27.8771 208.796 27.9984 208.422 28.2411 208.086C28.4838 207.741 28.8291 207.47 29.2771 207.274C29.7344 207.078 30.2571 206.98 30.8451 206.98C31.7224 206.98 32.4271 207.204 32.9591 207.652C33.5004 208.091 33.7898 208.693 33.8271 209.458H32.2311C32.2031 209.113 32.0631 208.838 31.8111 208.632C31.5591 208.427 31.2184 208.324 30.7891 208.324C30.3691 208.324 30.0471 208.404 29.8231 208.562C29.5991 208.721 29.4871 208.931 29.4871 209.192C29.4871 209.398 29.5618 209.57 29.7111 209.71C29.8604 209.85 30.0424 209.962 30.2571 210.046C30.4718 210.121 30.7891 210.219 31.2091 210.34C31.7691 210.49 32.2264 210.644 32.5811 210.802C32.9451 210.952 33.2578 211.176 33.5191 211.474C33.7804 211.773 33.9158 212.17 33.9251 212.664C33.9251 213.103 33.8038 213.495 33.5611 213.84C33.3184 214.186 32.9731 214.456 32.5251 214.652C32.0864 214.848 31.5684 214.946 30.9711 214.946ZM37.5116 208.408V212.678C37.5116 212.968 37.5769 213.178 37.7076 213.308C37.8476 213.43 38.0809 213.49 38.4076 213.49H39.3876V214.82H38.1276C37.4089 214.82 36.8583 214.652 36.4756 214.316C36.0929 213.98 35.9016 213.434 35.9016 212.678V208.408H34.9916V207.106H35.9016V205.188H37.5116V207.106H39.3876V208.408H37.5116ZM40.3266 210.928C40.3266 210.154 40.4853 209.468 40.8026 208.87C41.1293 208.273 41.5679 207.811 42.1186 207.484C42.6786 207.148 43.2946 206.98 43.9666 206.98C44.5733 206.98 45.1006 207.102 45.5486 207.344C46.0059 207.578 46.3699 207.872 46.6406 208.226V207.106H48.2506V214.82H46.6406V213.672C46.3699 214.036 46.0013 214.34 45.5346 214.582C45.0679 214.825 44.5359 214.946 43.9386 214.946C43.2759 214.946 42.6693 214.778 42.1186 214.442C41.5679 214.097 41.1293 213.621 40.8026 213.014C40.4853 212.398 40.3266 211.703 40.3266 210.928ZM46.6406 210.956C46.6406 210.424 46.5286 209.962 46.3046 209.57C46.0899 209.178 45.8053 208.88 45.4506 208.674C45.0959 208.469 44.7133 208.366 44.3026 208.366C43.8919 208.366 43.5093 208.469 43.1546 208.674C42.7999 208.87 42.5106 209.164 42.2866 209.556C42.0719 209.939 41.9646 210.396 41.9646 210.928C41.9646 211.46 42.0719 211.927 42.2866 212.328C42.5106 212.73 42.7999 213.038 43.1546 213.252C43.5186 213.458 43.9013 213.56 44.3026 213.56C44.7133 213.56 45.0959 213.458 45.4506 213.252C45.8053 213.047 46.0899 212.748 46.3046 212.356C46.5286 211.955 46.6406 211.488 46.6406 210.956ZM51.9429 208.226C52.1762 207.834 52.4842 207.531 52.8669 207.316C53.2589 207.092 53.7209 206.98 54.2529 206.98V208.632H53.8469C53.2215 208.632 52.7455 208.791 52.4189 209.108C52.1015 209.426 51.9429 209.976 51.9429 210.76V214.82H50.3469V207.106H51.9429V208.226ZM57.5819 208.408V212.678C57.5819 212.968 57.6473 213.178 57.7779 213.308C57.9179 213.43 58.1513 213.49 58.4779 213.49H59.4579V214.82H58.1979C57.4793 214.82 56.9286 214.652 56.5459 214.316C56.1633 213.98 55.9719 213.434 55.9719 212.678V208.408H55.0619V207.106H55.9719V205.188H57.5819V207.106H59.4579V208.408H57.5819Z" fill="#062540"/>
<path d="M142.346 206.98C142.243 206.551 142.056 206.229 141.786 206.014C141.515 205.8 141.137 205.692 140.652 205.692C139.914 205.692 139.364 205.977 139 206.546C138.636 207.106 138.444 208.04 138.426 209.346C138.668 208.936 139.023 208.618 139.49 208.394C139.956 208.17 140.46 208.058 141.002 208.058C141.618 208.058 142.159 208.194 142.626 208.464C143.102 208.726 143.47 209.108 143.732 209.612C144.002 210.116 144.138 210.718 144.138 211.418C144.138 212.072 144.007 212.655 143.746 213.168C143.494 213.682 143.116 214.088 142.612 214.386C142.108 214.676 141.501 214.82 140.792 214.82C139.83 214.82 139.074 214.61 138.524 214.19C137.982 213.761 137.6 213.159 137.376 212.384C137.161 211.61 137.054 210.644 137.054 209.486C137.054 206.07 138.258 204.362 140.666 204.362C141.599 204.362 142.332 204.614 142.864 205.118C143.405 205.622 143.722 206.243 143.816 206.98H142.346ZM140.652 209.402C140.082 209.402 139.597 209.575 139.196 209.92C138.804 210.256 138.608 210.746 138.608 211.39C138.608 212.034 138.79 212.548 139.154 212.93C139.527 213.304 140.045 213.49 140.708 213.49C141.296 213.49 141.758 213.308 142.094 212.944C142.439 212.58 142.612 212.095 142.612 211.488C142.612 210.854 142.444 210.35 142.108 209.976C141.781 209.594 141.296 209.402 140.652 209.402ZM159.025 206.98C159.631 206.98 160.173 207.106 160.649 207.358C161.134 207.61 161.512 207.984 161.783 208.478C162.063 208.973 162.203 209.57 162.203 210.27V214.82H160.621V210.508C160.621 209.818 160.448 209.29 160.103 208.926C159.757 208.553 159.286 208.366 158.689 208.366C158.091 208.366 157.615 208.553 157.261 208.926C156.915 209.29 156.743 209.818 156.743 210.508V214.82H155.161V210.508C155.161 209.818 154.988 209.29 154.643 208.926C154.297 208.553 153.826 208.366 153.229 208.366C152.631 208.366 152.155 208.553 151.801 208.926C151.455 209.29 151.283 209.818 151.283 210.508V214.82H149.687V207.106H151.283V207.988C151.544 207.671 151.875 207.424 152.277 207.246C152.678 207.069 153.107 206.98 153.565 206.98C154.181 206.98 154.731 207.111 155.217 207.372C155.702 207.634 156.075 208.012 156.337 208.506C156.57 208.04 156.934 207.671 157.429 207.4C157.923 207.12 158.455 206.98 159.025 206.98ZM167.58 214.946C166.852 214.946 166.194 214.783 165.606 214.456C165.018 214.12 164.556 213.654 164.22 213.056C163.884 212.45 163.716 211.75 163.716 210.956C163.716 210.172 163.888 209.477 164.234 208.87C164.579 208.264 165.05 207.797 165.648 207.47C166.245 207.144 166.912 206.98 167.65 206.98C168.387 206.98 169.054 207.144 169.652 207.47C170.249 207.797 170.72 208.264 171.066 208.87C171.411 209.477 171.584 210.172 171.584 210.956C171.584 211.74 171.406 212.436 171.052 213.042C170.697 213.649 170.212 214.12 169.596 214.456C168.989 214.783 168.317 214.946 167.58 214.946ZM167.58 213.56C167.99 213.56 168.373 213.462 168.728 213.266C169.092 213.07 169.386 212.776 169.61 212.384C169.834 211.992 169.946 211.516 169.946 210.956C169.946 210.396 169.838 209.925 169.624 209.542C169.409 209.15 169.124 208.856 168.77 208.66C168.415 208.464 168.032 208.366 167.622 208.366C167.211 208.366 166.828 208.464 166.474 208.66C166.128 208.856 165.853 209.15 165.648 209.542C165.442 209.925 165.34 210.396 165.34 210.956C165.34 211.787 165.55 212.431 165.97 212.888C166.399 213.336 166.936 213.56 167.58 213.56ZM177.053 206.98C177.66 206.98 178.201 207.106 178.677 207.358C179.163 207.61 179.541 207.984 179.811 208.478C180.082 208.973 180.217 209.57 180.217 210.27V214.82H178.635V210.508C178.635 209.818 178.463 209.29 178.117 208.926C177.772 208.553 177.301 208.366 176.703 208.366C176.106 208.366 175.63 208.553 175.275 208.926C174.93 209.29 174.757 209.818 174.757 210.508V214.82H173.161V207.106H174.757V207.988C175.019 207.671 175.35 207.424 175.751 207.246C176.162 207.069 176.596 206.98 177.053 206.98ZM184.115 208.408V212.678C184.115 212.968 184.18 213.178 184.311 213.308C184.451 213.43 184.684 213.49 185.011 213.49H185.991V214.82H184.731C184.012 214.82 183.462 214.652 183.079 214.316C182.696 213.98 182.505 213.434 182.505 212.678V208.408H181.595V207.106H182.505V205.188H184.115V207.106H185.991V208.408H184.115ZM191.452 206.98C192.04 206.98 192.563 207.106 193.02 207.358C193.487 207.61 193.851 207.984 194.112 208.478C194.383 208.973 194.518 209.57 194.518 210.27V214.82H192.936V210.508C192.936 209.818 192.763 209.29 192.418 208.926C192.073 208.553 191.601 208.366 191.004 208.366C190.407 208.366 189.931 208.553 189.576 208.926C189.231 209.29 189.058 209.818 189.058 210.508V214.82H187.462V204.46H189.058V208.002C189.329 207.676 189.669 207.424 190.08 207.246C190.5 207.069 190.957 206.98 191.452 206.98ZM199.354 214.946C198.747 214.946 198.201 214.839 197.716 214.624C197.24 214.4 196.862 214.102 196.582 213.728C196.302 213.346 196.153 212.921 196.134 212.454H197.786C197.814 212.781 197.968 213.056 198.248 213.28C198.537 213.495 198.897 213.602 199.326 213.602C199.774 213.602 200.119 213.518 200.362 213.35C200.614 213.173 200.74 212.949 200.74 212.678C200.74 212.389 200.6 212.174 200.32 212.034C200.049 211.894 199.615 211.74 199.018 211.572C198.439 211.414 197.968 211.26 197.604 211.11C197.24 210.961 196.923 210.732 196.652 210.424C196.391 210.116 196.26 209.71 196.26 209.206C196.26 208.796 196.381 208.422 196.624 208.086C196.867 207.741 197.212 207.47 197.66 207.274C198.117 207.078 198.64 206.98 199.228 206.98C200.105 206.98 200.81 207.204 201.342 207.652C201.883 208.091 202.173 208.693 202.21 209.458H200.614C200.586 209.113 200.446 208.838 200.194 208.632C199.942 208.427 199.601 208.324 199.172 208.324C198.752 208.324 198.43 208.404 198.206 208.562C197.982 208.721 197.87 208.931 197.87 209.192C197.87 209.398 197.945 209.57 198.094 209.71C198.243 209.85 198.425 209.962 198.64 210.046C198.855 210.121 199.172 210.219 199.592 210.34C200.152 210.49 200.609 210.644 200.964 210.802C201.328 210.952 201.641 211.176 201.902 211.474C202.163 211.773 202.299 212.17 202.308 212.664C202.308 213.103 202.187 213.495 201.944 213.84C201.701 214.186 201.356 214.456 200.908 214.652C200.469 214.848 199.951 214.946 199.354 214.946Z" fill="#062540"/>
<path d="M261.151 206.07V204.614H264.063V214.82H262.453V206.07H261.151ZM267.138 212.65C268.034 211.876 268.739 211.241 269.252 210.746C269.775 210.242 270.209 209.72 270.554 209.178C270.899 208.637 271.072 208.096 271.072 207.554C271.072 206.994 270.937 206.556 270.666 206.238C270.405 205.921 269.989 205.762 269.42 205.762C268.869 205.762 268.44 205.94 268.132 206.294C267.833 206.64 267.675 207.106 267.656 207.694H266.116C266.144 206.63 266.461 205.818 267.068 205.258C267.684 204.689 268.463 204.404 269.406 204.404C270.423 204.404 271.217 204.684 271.786 205.244C272.365 205.804 272.654 206.551 272.654 207.484C272.654 208.156 272.481 208.805 272.136 209.43C271.8 210.046 271.394 210.602 270.918 211.096C270.451 211.582 269.854 212.146 269.126 212.79L268.496 213.35H272.934V214.68H266.13V213.518L267.138 212.65ZM287.521 206.98C288.127 206.98 288.669 207.106 289.145 207.358C289.63 207.61 290.008 207.984 290.279 208.478C290.559 208.973 290.699 209.57 290.699 210.27V214.82H289.117V210.508C289.117 209.818 288.944 209.29 288.599 208.926C288.253 208.553 287.782 208.366 287.185 208.366C286.587 208.366 286.111 208.553 285.757 208.926C285.411 209.29 285.239 209.818 285.239 210.508V214.82H283.657V210.508C283.657 209.818 283.484 209.29 283.139 208.926C282.793 208.553 282.322 208.366 281.725 208.366C281.127 208.366 280.651 208.553 280.297 208.926C279.951 209.29 279.779 209.818 279.779 210.508V214.82H278.183V207.106H279.779V207.988C280.04 207.671 280.371 207.424 280.773 207.246C281.174 207.069 281.603 206.98 282.061 206.98C282.677 206.98 283.227 207.111 283.713 207.372C284.198 207.634 284.571 208.012 284.833 208.506C285.066 208.04 285.43 207.671 285.925 207.4C286.419 207.12 286.951 206.98 287.521 206.98ZM296.076 214.946C295.348 214.946 294.69 214.783 294.102 214.456C293.514 214.12 293.052 213.654 292.716 213.056C292.38 212.45 292.212 211.75 292.212 210.956C292.212 210.172 292.384 209.477 292.73 208.87C293.075 208.264 293.546 207.797 294.144 207.47C294.741 207.144 295.408 206.98 296.146 206.98C296.883 206.98 297.55 207.144 298.148 207.47C298.745 207.797 299.216 208.264 299.562 208.87C299.907 209.477 300.08 210.172 300.08 210.956C300.08 211.74 299.902 212.436 299.548 213.042C299.193 213.649 298.708 214.12 298.092 214.456C297.485 214.783 296.813 214.946 296.076 214.946ZM296.076 213.56C296.486 213.56 296.869 213.462 297.224 213.266C297.588 213.07 297.882 212.776 298.106 212.384C298.33 211.992 298.442 211.516 298.442 210.956C298.442 210.396 298.334 209.925 298.12 209.542C297.905 209.15 297.62 208.856 297.266 208.66C296.911 208.464 296.528 208.366 296.118 208.366C295.707 208.366 295.324 208.464 294.97 208.66C294.624 208.856 294.349 209.15 294.144 209.542C293.938 209.925 293.836 210.396 293.836 210.956C293.836 211.787 294.046 212.431 294.466 212.888C294.895 213.336 295.432 213.56 296.076 213.56ZM305.549 206.98C306.156 206.98 306.697 207.106 307.173 207.358C307.659 207.61 308.037 207.984 308.307 208.478C308.578 208.973 308.713 209.57 308.713 210.27V214.82H307.131V210.508C307.131 209.818 306.959 209.29 306.613 208.926C306.268 208.553 305.797 208.366 305.199 208.366C304.602 208.366 304.126 208.553 303.771 208.926C303.426 209.29 303.253 209.818 303.253 210.508V214.82H301.657V207.106H303.253V207.988C303.515 207.671 303.846 207.424 304.247 207.246C304.658 207.069 305.092 206.98 305.549 206.98ZM312.611 208.408V212.678C312.611 212.968 312.677 213.178 312.807 213.308C312.947 213.43 313.181 213.49 313.507 213.49H314.487V214.82H313.227C312.509 214.82 311.958 214.652 311.575 214.316C311.193 213.98 311.001 213.434 311.001 212.678V208.408H310.091V207.106H311.001V205.188H312.611V207.106H314.487V208.408H312.611ZM319.948 206.98C320.536 206.98 321.059 207.106 321.516 207.358C321.983 207.61 322.347 207.984 322.608 208.478C322.879 208.973 323.014 209.57 323.014 210.27V214.82H321.432V210.508C321.432 209.818 321.26 209.29 320.914 208.926C320.569 208.553 320.098 208.366 319.5 208.366C318.903 208.366 318.427 208.553 318.072 208.926C317.727 209.29 317.554 209.818 317.554 210.508V214.82H315.958V204.46H317.554V208.002C317.825 207.676 318.166 207.424 318.576 207.246C318.996 207.069 319.454 206.98 319.948 206.98ZM327.85 214.946C327.243 214.946 326.697 214.839 326.212 214.624C325.736 214.4 325.358 214.102 325.078 213.728C324.798 213.346 324.649 212.921 324.63 212.454H326.282C326.31 212.781 326.464 213.056 326.744 213.28C327.033 213.495 327.393 213.602 327.822 213.602C328.27 213.602 328.615 213.518 328.858 213.35C329.11 213.173 329.236 212.949 329.236 212.678C329.236 212.389 329.096 212.174 328.816 212.034C328.545 211.894 328.111 211.74 327.514 211.572C326.935 211.414 326.464 211.26 326.1 211.11C325.736 210.961 325.419 210.732 325.148 210.424C324.887 210.116 324.756 209.71 324.756 209.206C324.756 208.796 324.877 208.422 325.12 208.086C325.363 207.741 325.708 207.47 326.156 207.274C326.613 207.078 327.136 206.98 327.724 206.98C328.601 206.98 329.306 207.204 329.838 207.652C330.379 208.091 330.669 208.693 330.706 209.458H329.11C329.082 209.113 328.942 208.838 328.69 208.632C328.438 208.427 328.097 208.324 327.668 208.324C327.248 208.324 326.926 208.404 326.702 208.562C326.478 208.721 326.366 208.931 326.366 209.192C326.366 209.398 326.441 209.57 326.59 209.71C326.739 209.85 326.921 209.962 327.136 210.046C327.351 210.121 327.668 210.219 328.088 210.34C328.648 210.49 329.105 210.644 329.46 210.802C329.824 210.952 330.137 211.176 330.398 211.474C330.659 211.773 330.795 212.17 330.804 212.664C330.804 213.103 330.683 213.495 330.44 213.84C330.197 214.186 329.852 214.456 329.404 214.652C328.965 214.848 328.447 214.946 327.85 214.946Z" fill="#062540"/>
<path d="M27.1929 198.121L28.1641 22.3369" stroke="#CCCCCC" stroke-width="2.91354"/>
<path d="M299.124 157.331V29.1348" stroke="#CCCCCC" stroke-width="0.971182"/>
<path d="M29.1353 157.332L299.124 157.332" stroke="#F0F0F0" stroke-width="0.971182"/>
<path d="M26.707 198.121H299.123" stroke="#CCCCCC" stroke-width="2.91354"/>
<path d="M27.1929 157.331C179.025 154.45 271.784 90.1119 299.124 29.1348" stroke="#FA8A3C" stroke-width="1.94236"/>
<path d="M296.21 157.331C296.21 158.362 296.619 159.35 297.348 160.078C298.076 160.807 299.064 161.216 300.095 161.216C301.125 161.216 302.113 160.807 302.842 160.078C303.57 159.35 303.979 158.362 303.979 157.331C303.979 156.301 303.57 155.313 302.842 154.584C302.113 153.856 301.125 153.447 300.095 153.447C299.064 153.447 298.076 153.856 297.348 154.584C296.619 155.313 296.21 156.301 296.21 157.331Z" fill="black"/>
<path d="M30.1054 157.34C30.6418 157.343 31.0787 156.91 31.0813 156.374C31.0839 155.838 30.6512 155.401 30.1149 155.398L30.1054 157.34ZM34.0069 155.417C33.4706 155.414 33.0337 155.847 33.031 156.383C33.0284 156.92 33.4611 157.357 33.9975 157.359L34.0069 155.417ZM37.8895 157.378C38.4259 157.381 38.8628 156.948 38.8654 156.412C38.8681 155.876 38.4354 155.439 37.899 155.436L37.8895 157.378ZM41.7911 155.455C41.2547 155.452 40.8178 155.885 40.8152 156.421C40.8126 156.958 41.2452 157.395 41.7816 157.397L41.7911 155.455ZM45.6737 157.416C46.21 157.419 46.647 156.986 46.6496 156.45C46.6522 155.913 46.2195 155.477 45.6832 155.474L45.6737 157.416ZM49.5752 155.493C49.0389 155.49 48.6019 155.923 48.5993 156.459C48.5967 156.996 49.0294 157.433 49.5657 157.435L49.5752 155.493ZM53.4578 157.454C53.9942 157.457 54.4311 157.024 54.4337 156.488C54.4363 155.951 54.0037 155.515 53.4673 155.512L53.4578 157.454ZM57.3594 155.531C56.823 155.528 56.3861 155.961 56.3835 156.497C56.3808 157.034 56.8135 157.471 57.3499 157.473L57.3594 155.531ZM61.242 157.492C61.7783 157.495 62.2153 157.062 62.2179 156.526C62.2205 155.989 61.7878 155.553 61.2514 155.55L61.242 157.492ZM65.1435 155.569C64.6071 155.566 64.1702 155.999 64.1676 156.535C64.165 157.072 64.5977 157.509 65.134 157.511L65.1435 155.569ZM69.0261 157.53C69.5625 157.533 69.9994 157.1 70.002 156.564C70.0046 156.027 69.5719 155.59 69.0356 155.588L69.0261 157.53ZM72.9276 155.607C72.3913 155.604 71.9544 156.037 71.9517 156.573C71.9491 157.11 72.3818 157.547 72.9182 157.549L72.9276 155.607ZM76.8102 157.568C77.3466 157.571 77.7835 157.138 77.7862 156.602C77.7888 156.065 77.3561 155.628 76.8197 155.626L76.8102 157.568ZM80.7118 155.645C80.1754 155.642 79.7385 156.075 79.7359 156.611C79.7333 157.148 80.166 157.585 80.7023 157.587L80.7118 155.645ZM84.5944 157.606C85.1307 157.609 85.5677 157.176 85.5703 156.64C85.5729 156.103 85.1402 155.666 84.6039 155.664L84.5944 157.606ZM88.4959 155.683C87.9596 155.68 87.5226 156.113 87.52 156.649C87.5174 157.186 87.9501 157.623 88.4865 157.625L88.4959 155.683ZM92.3785 157.644C92.9149 157.647 93.3518 157.214 93.3544 156.678C93.357 156.141 92.9244 155.704 92.388 155.702L92.3785 157.644ZM96.2801 155.721C95.7437 155.718 95.3068 156.151 95.3042 156.687C95.3015 157.224 95.7342 157.661 96.2706 157.663L96.2801 155.721ZM100.163 157.682C100.699 157.685 101.136 157.252 101.139 156.716C101.141 156.179 100.709 155.742 100.172 155.74L100.163 157.682ZM104.064 155.759C103.528 155.756 103.091 156.189 103.088 156.725C103.086 157.262 103.518 157.698 104.055 157.701L104.064 155.759ZM107.947 157.72C108.483 157.723 108.92 157.29 108.923 156.754C108.925 156.217 108.493 155.78 107.956 155.778L107.947 157.72ZM111.848 155.797C111.312 155.794 110.875 156.227 110.872 156.763C110.87 157.3 111.303 157.736 111.839 157.739L111.848 155.797ZM115.731 157.758C116.267 157.761 116.704 157.328 116.707 156.792C116.709 156.255 116.277 155.818 115.74 155.816L115.731 157.758ZM119.633 155.835C119.096 155.832 118.659 156.265 118.657 156.801C118.654 157.338 119.087 157.774 119.623 157.777L119.633 155.835ZM123.515 157.796C124.051 157.799 124.488 157.366 124.491 156.83C124.494 156.293 124.061 155.856 123.525 155.854L123.515 157.796ZM127.417 155.873C126.88 155.87 126.443 156.303 126.441 156.839C126.438 157.376 126.871 157.812 127.407 157.815L127.417 155.873ZM131.299 157.834C131.836 157.837 132.273 157.404 132.275 156.868C132.278 156.331 131.845 155.894 131.309 155.892L131.299 157.834ZM135.201 155.911C134.664 155.908 134.228 156.341 134.225 156.877C134.222 157.413 134.655 157.85 135.191 157.853L135.201 155.911ZM139.083 157.872C139.62 157.875 140.057 157.442 140.059 156.906C140.062 156.369 139.629 155.932 139.093 155.93L139.083 157.872ZM142.985 155.949C142.449 155.946 142.012 156.379 142.009 156.915C142.006 157.451 142.439 157.888 142.975 157.891L142.985 155.949ZM146.868 157.91C147.404 157.913 147.841 157.48 147.843 156.944C147.846 156.407 147.413 155.97 146.877 155.968L146.868 157.91ZM150.769 155.987C150.233 155.984 149.796 156.417 149.793 156.953C149.791 157.489 150.223 157.926 150.76 157.929L150.769 155.987ZM154.652 157.948C155.188 157.951 155.625 157.518 155.628 156.982C155.63 156.445 155.198 156.008 154.661 156.006L154.652 157.948ZM158.553 156.025C158.017 156.022 157.58 156.455 157.577 156.991C157.575 157.527 158.007 157.964 158.544 157.967L158.553 156.025ZM162.436 157.986C162.972 157.989 163.409 157.556 163.412 157.02C163.414 156.483 162.982 156.046 162.445 156.044L162.436 157.986ZM166.337 156.063C165.801 156.06 165.364 156.493 165.361 157.029C165.359 157.565 165.792 158.002 166.328 158.005L166.337 156.063ZM170.22 158.024C170.756 158.027 171.193 157.594 171.196 157.057C171.199 156.521 170.766 156.084 170.229 156.082L170.22 158.024ZM174.122 156.101C173.585 156.098 173.148 156.531 173.146 157.067C173.143 157.603 173.576 158.04 174.112 158.043L174.122 156.101ZM178.004 158.062C178.541 158.065 178.977 157.632 178.98 157.095C178.983 156.559 178.55 156.122 178.014 156.12L178.004 158.062ZM181.906 156.139C181.369 156.136 180.932 156.569 180.93 157.105C180.927 157.641 181.36 158.078 181.896 158.081L181.906 156.139ZM185.788 158.1C186.325 158.103 186.762 157.67 186.764 157.133C186.767 156.597 186.334 156.16 185.798 156.158L185.788 158.1ZM189.69 156.177C189.153 156.174 188.717 156.607 188.714 157.143C188.711 157.679 189.144 158.116 189.68 158.119L189.69 156.177ZM193.572 158.138C194.109 158.14 194.546 157.708 194.548 157.171C194.551 156.635 194.118 156.198 193.582 156.196L193.572 158.138ZM197.474 156.215C196.938 156.212 196.501 156.645 196.498 157.181C196.495 157.717 196.928 158.154 197.465 158.157L197.474 156.215ZM201.357 158.176C201.893 158.178 202.33 157.746 202.333 157.209C202.335 156.673 201.902 156.236 201.366 156.234L201.357 158.176ZM205.258 156.252C204.722 156.25 204.285 156.683 204.282 157.219C204.28 157.755 204.712 158.192 205.249 158.195L205.258 156.252ZM209.141 158.214C209.677 158.216 210.114 157.784 210.117 157.247C210.119 156.711 209.687 156.274 209.15 156.271L209.141 158.214ZM213.042 156.29C212.506 156.288 212.069 156.721 212.066 157.257C212.064 157.793 212.496 158.23 213.033 158.233L213.042 156.29ZM216.925 158.252C217.461 158.254 217.898 157.822 217.901 157.285C217.903 156.749 217.471 156.312 216.934 156.309L216.925 158.252ZM220.826 156.328C220.29 156.326 219.853 156.759 219.851 157.295C219.848 157.831 220.281 158.268 220.817 158.271L220.826 156.328ZM224.709 158.29C225.245 158.292 225.682 157.86 225.685 157.323C225.688 156.787 225.255 156.35 224.719 156.347L224.709 158.29ZM228.611 156.366C228.074 156.364 227.637 156.796 227.635 157.333C227.632 157.869 228.065 158.306 228.601 158.309L228.611 156.366ZM232.493 158.328C233.03 158.33 233.466 157.898 233.469 157.361C233.472 156.825 233.039 156.388 232.503 156.385L232.493 158.328ZM236.395 156.404C235.858 156.402 235.421 156.834 235.419 157.371C235.416 157.907 235.849 158.344 236.385 158.347L236.395 156.404ZM240.277 158.366C240.814 158.368 241.251 157.936 241.253 157.399C241.256 156.863 240.823 156.426 240.287 156.423L240.277 158.366ZM244.179 156.442C243.643 156.44 243.206 156.872 243.203 157.409C243.2 157.945 243.633 158.382 244.169 158.385L244.179 156.442ZM248.061 158.404C248.598 158.406 249.035 157.974 249.037 157.437C249.04 156.901 248.607 156.464 248.071 156.461L248.061 158.404ZM251.963 156.48C251.427 156.478 250.99 156.91 250.987 157.447C250.985 157.983 251.417 158.42 251.954 158.423L251.963 156.48ZM255.846 158.442C256.382 158.444 256.819 158.012 256.822 157.475C256.824 156.939 256.391 156.502 255.855 156.499L255.846 158.442ZM259.747 156.518C259.211 156.516 258.774 156.948 258.771 157.485C258.769 158.021 259.201 158.458 259.738 158.461L259.747 156.518ZM263.63 158.48C264.166 158.482 264.603 158.05 264.606 157.513C264.608 156.977 264.176 156.54 263.639 156.537L263.63 158.48ZM267.531 156.556C266.995 156.554 266.558 156.986 266.555 157.523C266.553 158.059 266.985 158.496 267.522 158.499L267.531 156.556ZM271.414 158.518C271.95 158.52 272.387 158.088 272.39 157.551C272.392 157.015 271.96 156.578 271.423 156.575L271.414 158.518ZM275.315 156.594C274.779 156.592 274.342 157.024 274.34 157.561C274.337 158.097 274.77 158.534 275.306 158.537L275.315 156.594ZM279.198 158.556C279.734 158.558 280.171 158.126 280.174 157.589C280.177 157.053 279.744 156.616 279.208 156.613L279.198 158.556ZM283.1 156.632C282.563 156.63 282.126 157.062 282.124 157.599C282.121 158.135 282.554 158.572 283.09 158.575L283.1 156.632ZM286.982 158.594C287.519 158.596 287.956 158.164 287.958 157.627C287.961 157.091 287.528 156.654 286.992 156.651L286.982 158.594ZM290.884 156.67C290.347 156.668 289.91 157.1 289.908 157.637C289.905 158.173 290.338 158.61 290.874 158.613L290.884 156.67ZM294.766 158.632C295.303 158.634 295.74 158.202 295.742 157.665C295.745 157.129 295.312 156.692 294.776 156.689L294.766 158.632ZM298.668 156.708C298.132 156.706 297.695 157.138 297.692 157.675C297.689 158.211 298.122 158.648 298.658 158.651L298.668 156.708ZM28.1594 157.331L30.1054 157.34L30.1149 155.398L28.1688 155.388L28.1594 157.331ZM33.9975 157.359L37.8895 157.378L37.899 155.436L34.0069 155.417L33.9975 157.359ZM41.7816 157.397L45.6737 157.416L45.6832 155.474L41.7911 155.455L41.7816 157.397ZM49.5657 157.435L53.4578 157.454L53.4673 155.512L49.5752 155.493L49.5657 157.435ZM57.3499 157.473L61.242 157.492L61.2514 155.55L57.3594 155.531L57.3499 157.473ZM65.134 157.511L69.0261 157.53L69.0356 155.588L65.1435 155.569L65.134 157.511ZM72.9182 157.549L76.8102 157.568L76.8197 155.626L72.9276 155.607L72.9182 157.549ZM80.7023 157.587L84.5944 157.606L84.6039 155.664L80.7118 155.645L80.7023 157.587ZM88.4865 157.625L92.3785 157.644L92.388 155.702L88.4959 155.683L88.4865 157.625ZM96.2706 157.663L100.163 157.682L100.172 155.74L96.2801 155.721L96.2706 157.663ZM104.055 157.701L107.947 157.72L107.956 155.778L104.064 155.759L104.055 157.701ZM111.839 157.739L115.731 157.758L115.74 155.816L111.848 155.797L111.839 157.739ZM119.623 157.777L123.515 157.796L123.525 155.854L119.633 155.835L119.623 157.777ZM127.407 157.815L131.299 157.834L131.309 155.892L127.417 155.873L127.407 157.815ZM135.191 157.853L139.083 157.872L139.093 155.93L135.201 155.911L135.191 157.853ZM142.975 157.891L146.868 157.91L146.877 155.968L142.985 155.949L142.975 157.891ZM150.76 157.929L154.652 157.948L154.661 156.006L150.769 155.987L150.76 157.929ZM158.544 157.967L162.436 157.986L162.445 156.044L158.553 156.025L158.544 157.967ZM166.328 158.005L170.22 158.024L170.229 156.082L166.337 156.063L166.328 158.005ZM174.112 158.043L178.004 158.062L178.014 156.12L174.122 156.101L174.112 158.043ZM181.896 158.081L185.788 158.1L185.798 156.158L181.906 156.139L181.896 158.081ZM189.68 158.119L193.572 158.138L193.582 156.196L189.69 156.177L189.68 158.119ZM197.465 158.157L201.357 158.176L201.366 156.234L197.474 156.215L197.465 158.157ZM205.249 158.195L209.141 158.214L209.15 156.271L205.258 156.252L205.249 158.195ZM213.033 158.233L216.925 158.252L216.934 156.309L213.042 156.29L213.033 158.233ZM220.817 158.271L224.709 158.29L224.719 156.347L220.826 156.328L220.817 158.271ZM228.601 158.309L232.493 158.328L232.503 156.385L228.611 156.366L228.601 158.309ZM236.385 158.347L240.277 158.366L240.287 156.423L236.395 156.404L236.385 158.347ZM244.169 158.385L248.061 158.404L248.071 156.461L244.179 156.442L244.169 158.385ZM251.954 158.423L255.846 158.442L255.855 156.499L251.963 156.48L251.954 158.423ZM259.738 158.461L263.63 158.48L263.639 156.537L259.747 156.518L259.738 158.461ZM267.522 158.499L271.414 158.518L271.423 156.575L267.531 156.556L267.522 158.499ZM275.306 158.537L279.198 158.556L279.208 156.613L275.315 156.594L275.306 158.537ZM283.09 158.575L286.982 158.594L286.992 156.651L283.1 156.632L283.09 158.575ZM290.874 158.613L294.766 158.632L294.776 156.689L290.884 156.67L290.874 158.613ZM298.658 158.651L300.604 158.66L300.614 156.718L298.668 156.708L298.658 158.651Z" fill="black"/>
<path d="M27.1928 157.332C27.1928 157.332 213.598 150.899 297.181 197.149" stroke="#062540" stroke-width="1.94236"/>
<path d="M23.3081 157.331C23.3081 158.362 23.7174 159.35 24.4459 160.078C25.1744 160.807 26.1625 161.216 27.1928 161.216C28.2231 161.216 29.2112 160.807 29.9398 160.078C30.6683 159.35 31.0776 158.362 31.0776 157.331C31.0776 156.301 30.6683 155.313 29.9398 154.584C29.2112 153.856 28.2231 153.447 27.1928 153.447C26.1625 153.447 25.1744 153.856 24.4459 154.584C23.7174 155.313 23.3081 156.301 23.3081 157.331Z" fill="#DF532B"/>
<path d="M295.239 197.15C295.239 198.18 295.648 199.168 296.377 199.897C297.105 200.625 298.093 201.034 299.123 201.034C300.154 201.034 301.142 200.625 301.87 199.897C302.599 199.168 303.008 198.18 303.008 197.15C303.008 196.119 302.599 195.131 301.87 194.403C301.142 193.674 300.154 193.265 299.123 193.265C298.093 193.265 297.105 193.674 296.377 194.403C295.648 195.131 295.239 196.119 295.239 197.15Z" fill="#062540"/>
<path d="M291.231 8.87147C291.231 8.67971 291.311 8.49581 291.454 8.36021C291.596 8.22461 291.789 8.14844 291.99 8.14844H307.165C307.366 8.14844 307.559 8.22461 307.701 8.36021C307.844 8.49581 307.924 8.67971 307.924 8.87147C307.924 9.64946 307.905 10.3899 307.872 11.0926C308.472 11.1873 309.045 11.3953 309.559 11.7046C310.073 12.0139 310.517 12.418 310.864 12.8933C311.211 13.3686 311.455 13.9053 311.581 14.4719C311.708 15.0384 311.714 15.6233 311.599 16.1921C311.484 16.7608 311.251 17.3019 310.913 17.7834C310.575 18.2649 310.14 18.6771 309.632 18.9957C309.125 19.3142 308.555 19.5327 307.958 19.6382C307.36 19.7437 306.746 19.7341 306.153 19.61C304.954 22.307 303.303 23.6258 301.854 23.9642V27.1065L304.016 27.6213C304.31 27.6907 304.588 27.8165 304.831 27.99L307.62 29.9842C307.747 30.0752 307.842 30.2022 307.889 30.347C307.937 30.4919 307.935 30.6473 307.885 30.7912C307.834 30.9352 307.738 31.0604 307.608 31.1492C307.479 31.2379 307.324 31.2856 307.165 31.2856H291.99C291.831 31.2856 291.676 31.2379 291.546 31.1492C291.417 31.0604 291.321 30.9352 291.27 30.7912C291.22 30.6473 291.218 30.4919 291.266 30.347C291.313 30.2022 291.407 30.0752 291.535 29.9842L294.324 27.99C294.567 27.8165 294.844 27.6907 295.139 27.6213L297.301 27.1065V23.9642C295.852 23.6258 294.201 22.307 293.002 19.6086C292.408 19.7334 291.794 19.7435 291.196 19.6383C290.598 19.5331 290.028 19.3148 289.52 18.9962C289.012 18.6776 288.576 18.2652 288.238 17.7834C287.9 17.3016 287.666 16.7601 287.552 16.1909C287.437 15.6217 287.443 15.0363 287.569 14.4694C287.696 13.9025 287.94 13.3655 288.288 12.8901C288.636 12.4147 289.081 12.0106 289.595 11.7017C290.11 11.3927 290.684 11.1851 291.284 11.0912C291.249 10.3518 291.231 9.61168 291.231 8.87147V8.87147ZM291.382 12.5445C290.59 12.6826 289.888 13.1147 289.43 13.7459C288.973 14.3771 288.797 15.1557 288.942 15.9102C289.087 16.6648 289.541 17.3337 290.203 17.7696C290.865 18.2055 291.682 18.3729 292.474 18.2348C291.969 16.7164 291.582 14.8423 291.382 12.5445V12.5445ZM306.682 18.2348C307.474 18.3729 308.291 18.2055 308.953 17.7696C309.616 17.3337 310.069 16.6648 310.214 15.9102C310.359 15.1557 310.183 14.3771 309.726 13.7459C309.269 13.1147 308.567 12.6826 307.775 12.5445C307.573 14.8438 307.186 16.7164 306.682 18.2348Z" fill="#062540"/>
<path d="M125.283 146.163C125.283 148.04 123.761 149.562 121.884 149.562C120.006 149.562 118.484 148.04 118.484 146.163C118.484 144.286 120.006 142.764 121.884 142.764C123.761 142.764 125.283 144.286 125.283 146.163Z" fill="#FA8A3C"/>
<path d="M88.8009 126.244L84.8409 135.916H83.7129L85.0089 132.748L82.3569 126.244H83.5689L85.6329 131.572L87.6729 126.244H88.8009ZM92.7666 132.928C92.1506 132.928 91.5906 132.788 91.0866 132.508C90.5906 132.228 90.1986 131.832 89.9106 131.32C89.6306 130.8 89.4906 130.2 89.4906 129.52C89.4906 128.848 89.6346 128.256 89.9226 127.744C90.2186 127.224 90.6186 126.828 91.1226 126.556C91.6266 126.276 92.1906 126.136 92.8146 126.136C93.4386 126.136 94.0026 126.276 94.5066 126.556C95.0106 126.828 95.4066 127.22 95.6946 127.732C95.9906 128.244 96.1386 128.84 96.1386 129.52C96.1386 130.2 95.9866 130.8 95.6826 131.32C95.3866 131.832 94.9826 132.228 94.4706 132.508C93.9586 132.788 93.3906 132.928 92.7666 132.928ZM92.7666 131.968C93.1586 131.968 93.5266 131.876 93.8706 131.692C94.2146 131.508 94.4906 131.232 94.6986 130.864C94.9146 130.496 95.0226 130.048 95.0226 129.52C95.0226 128.992 94.9186 128.544 94.7106 128.176C94.5026 127.808 94.2306 127.536 93.8946 127.36C93.5586 127.176 93.1946 127.084 92.8026 127.084C92.4026 127.084 92.0346 127.176 91.6986 127.36C91.3706 127.536 91.1066 127.808 90.9066 128.176C90.7066 128.544 90.6066 128.992 90.6066 129.52C90.6066 130.056 90.7026 130.508 90.8946 130.876C91.0946 131.244 91.3586 131.52 91.6866 131.704C92.0146 131.88 92.3746 131.968 92.7666 131.968ZM103.406 126.244V132.82H102.314V131.848C102.106 132.184 101.814 132.448 101.438 132.64C101.07 132.824 100.662 132.916 100.214 132.916C99.7024 132.916 99.2424 132.812 98.8344 132.604C98.4264 132.388 98.1024 132.068 97.8624 131.644C97.6304 131.22 97.5144 130.704 97.5144 130.096V126.244H98.5944V129.952C98.5944 130.6 98.7584 131.1 99.0864 131.452C99.4144 131.796 99.8624 131.968 100.43 131.968C101.014 131.968 101.474 131.788 101.81 131.428C102.146 131.068 102.314 130.544 102.314 129.856V126.244H103.406ZM108.041 129.508C108.041 128.836 108.177 128.248 108.449 127.744C108.721 127.232 109.093 126.836 109.565 126.556C110.045 126.276 110.577 126.136 111.161 126.136C111.737 126.136 112.237 126.26 112.661 126.508C113.085 126.756 113.401 127.068 113.609 127.444V126.244H114.713V132.82H113.609V131.596C113.393 131.98 113.069 132.3 112.637 132.556C112.213 132.804 111.717 132.928 111.149 132.928C110.565 132.928 110.037 132.784 109.565 132.496C109.093 132.208 108.721 131.804 108.449 131.284C108.177 130.764 108.041 130.172 108.041 129.508ZM113.609 129.52C113.609 129.024 113.509 128.592 113.309 128.224C113.109 127.856 112.837 127.576 112.493 127.384C112.157 127.184 111.785 127.084 111.377 127.084C110.969 127.084 110.597 127.18 110.261 127.372C109.925 127.564 109.657 127.844 109.457 128.212C109.257 128.58 109.157 129.012 109.157 129.508C109.157 130.012 109.257 130.452 109.457 130.828C109.657 131.196 109.925 131.48 110.261 131.68C110.597 131.872 110.969 131.968 111.377 131.968C111.785 131.968 112.157 131.872 112.493 131.68C112.837 131.48 113.109 131.196 113.309 130.828C113.509 130.452 113.609 130.016 113.609 129.52ZM117.651 127.312C117.843 126.936 118.115 126.644 118.467 126.436C118.827 126.228 119.263 126.124 119.775 126.124V127.252H119.487C118.263 127.252 117.651 127.916 117.651 129.244V132.82H116.559V126.244H117.651V127.312ZM127.035 129.28C127.035 129.488 127.023 129.708 126.999 129.94H121.743C121.783 130.588 122.003 131.096 122.403 131.464C122.811 131.824 123.303 132.004 123.879 132.004C124.351 132.004 124.743 131.896 125.055 131.68C125.375 131.456 125.599 131.16 125.727 130.792H126.903C126.727 131.424 126.375 131.94 125.847 132.34C125.319 132.732 124.663 132.928 123.879 132.928C123.255 132.928 122.695 132.788 122.199 132.508C121.711 132.228 121.327 131.832 121.047 131.32C120.767 130.8 120.627 130.2 120.627 129.52C120.627 128.84 120.763 128.244 121.035 127.732C121.307 127.22 121.687 126.828 122.175 126.556C122.671 126.276 123.239 126.136 123.879 126.136C124.503 126.136 125.055 126.272 125.535 126.544C126.015 126.816 126.383 127.192 126.639 127.672C126.903 128.144 127.035 128.68 127.035 129.28ZM125.907 129.052C125.907 128.636 125.815 128.28 125.631 127.984C125.447 127.68 125.195 127.452 124.875 127.3C124.563 127.14 124.215 127.06 123.831 127.06C123.279 127.06 122.807 127.236 122.415 127.588C122.031 127.94 121.811 128.428 121.755 129.052H125.907ZM134.94 126.124C135.436 126.124 135.884 126.232 136.284 126.448C136.684 126.656 136.996 126.972 137.22 127.396C137.452 127.82 137.568 128.336 137.568 128.944V132.82H136.488V129.1C136.488 128.444 136.324 127.944 135.996 127.6C135.668 127.248 135.22 127.072 134.652 127.072C134.076 127.072 133.616 127.252 133.272 127.612C132.936 127.972 132.768 128.496 132.768 129.184V132.82H131.676V123.94H132.768V127.18C132.984 126.844 133.28 126.584 133.656 126.4C134.04 126.216 134.468 126.124 134.94 126.124ZM145.352 129.28C145.352 129.488 145.34 129.708 145.316 129.94H140.06C140.1 130.588 140.32 131.096 140.72 131.464C141.128 131.824 141.62 132.004 142.196 132.004C142.668 132.004 143.06 131.896 143.372 131.68C143.692 131.456 143.916 131.16 144.044 130.792H145.22C145.044 131.424 144.692 131.94 144.164 132.34C143.636 132.732 142.98 132.928 142.196 132.928C141.572 132.928 141.012 132.788 140.516 132.508C140.028 132.228 139.644 131.832 139.364 131.32C139.084 130.8 138.944 130.2 138.944 129.52C138.944 128.84 139.08 128.244 139.352 127.732C139.624 127.22 140.004 126.828 140.492 126.556C140.988 126.276 141.556 126.136 142.196 126.136C142.82 126.136 143.372 126.272 143.852 126.544C144.332 126.816 144.7 127.192 144.956 127.672C145.22 128.144 145.352 128.68 145.352 129.28ZM144.224 129.052C144.224 128.636 144.132 128.28 143.948 127.984C143.764 127.68 143.512 127.452 143.192 127.3C142.88 127.14 142.532 127.06 142.148 127.06C141.596 127.06 141.124 127.236 140.732 127.588C140.348 127.94 140.128 128.428 140.072 129.052H144.224ZM147.885 127.312C148.077 126.936 148.349 126.644 148.701 126.436C149.061 126.228 149.497 126.124 150.009 126.124V127.252H149.721C148.497 127.252 147.885 127.916 147.885 129.244V132.82H146.793V126.244H147.885V127.312ZM157.27 129.28C157.27 129.488 157.258 129.708 157.234 129.94H151.978C152.018 130.588 152.238 131.096 152.638 131.464C153.046 131.824 153.538 132.004 154.114 132.004C154.586 132.004 154.978 131.896 155.29 131.68C155.61 131.456 155.834 131.16 155.962 130.792H157.138C156.962 131.424 156.61 131.94 156.082 132.34C155.554 132.732 154.898 132.928 154.114 132.928C153.49 132.928 152.93 132.788 152.434 132.508C151.946 132.228 151.562 131.832 151.282 131.32C151.002 130.8 150.862 130.2 150.862 129.52C150.862 128.84 150.998 128.244 151.27 127.732C151.542 127.22 151.922 126.828 152.41 126.556C152.906 126.276 153.474 126.136 154.114 126.136C154.738 126.136 155.29 126.272 155.77 126.544C156.25 126.816 156.618 127.192 156.874 127.672C157.138 128.144 157.27 128.68 157.27 129.28ZM156.142 129.052C156.142 128.636 156.05 128.28 155.866 127.984C155.682 127.68 155.43 127.452 155.11 127.3C154.798 127.14 154.45 127.06 154.066 127.06C153.514 127.06 153.042 127.236 152.65 127.588C152.266 127.94 152.046 128.428 151.99 129.052H156.142Z" fill="black"/>
<path d="M11.0687 28.2852H11.7474C12.1739 28.2786 12.5092 28.1663 12.7533 27.9482C12.9974 27.7301 13.1195 27.4355 13.1195 27.0645C13.1195 26.2311 12.7045 25.8145 11.8744 25.8145C11.4838 25.8145 11.1713 25.9268 10.9369 26.1514C10.7058 26.3727 10.5902 26.6673 10.5902 27.0352H9.68689C9.68689 26.472 9.89197 26.0049 10.3021 25.6338C10.7155 25.2594 11.2396 25.0723 11.8744 25.0723C12.545 25.0723 13.0707 25.2497 13.4515 25.6045C13.8324 25.9593 14.0228 26.4525 14.0228 27.084C14.0228 27.3932 13.9219 27.6927 13.7201 27.9824C13.5215 28.2721 13.2497 28.4886 12.9047 28.6318C13.2953 28.7555 13.5964 28.9606 13.808 29.2471C14.0228 29.5335 14.1303 29.8835 14.1303 30.2969C14.1303 30.9349 13.9219 31.4411 13.5053 31.8154C13.0886 32.1898 12.5466 32.377 11.8793 32.377C11.212 32.377 10.6683 32.1963 10.2484 31.835C9.83175 31.4736 9.62342 30.9967 9.62342 30.4043H10.5316C10.5316 30.7786 10.6537 31.0781 10.8978 31.3027C11.142 31.5273 11.4691 31.6396 11.8793 31.6396C12.3155 31.6396 12.6491 31.5257 12.8803 31.2979C13.1114 31.07 13.2269 30.7428 13.2269 30.3164C13.2269 29.903 13.1 29.5856 12.8461 29.3643C12.5922 29.1429 12.226 29.029 11.7474 29.0225H11.0687V28.2852ZM19.9603 25.6777L17.016 32.2793H16.0687L19.0033 25.9121H15.1556V25.1699H19.9603V25.6777Z" fill="#A3A3A3"/>
<path d="M10.6053 196.291C10.6053 197.349 10.4246 198.135 10.0633 198.649C9.70198 199.164 9.1372 199.421 8.36897 199.421C7.61051 199.421 7.04899 199.17 6.6844 198.669C6.31982 198.164 6.13102 197.412 6.118 196.413V195.207C6.118 194.162 6.29866 193.386 6.65999 192.878C7.02132 192.37 7.58772 192.116 8.35921 192.116C9.12418 192.116 9.68733 192.362 10.0487 192.854C10.41 193.342 10.5955 194.097 10.6053 195.119V196.291ZM9.70198 195.056C9.70198 194.291 9.59456 193.734 9.37971 193.386C9.16487 193.034 8.8247 192.858 8.35921 192.858C7.89697 192.858 7.56005 193.033 7.34846 193.381C7.13688 193.729 7.02783 194.265 7.02132 194.987V196.433C7.02132 197.201 7.13199 197.769 7.35335 198.137C7.57796 198.501 7.9165 198.684 8.36897 198.684C8.81494 198.684 9.14534 198.511 9.36018 198.166C9.57828 197.821 9.69221 197.277 9.70198 196.535V195.056ZM11.8748 198.85C11.8748 198.693 11.9204 198.563 12.0116 198.459C12.106 198.355 12.2459 198.303 12.4315 198.303C12.617 198.303 12.757 198.355 12.8514 198.459C12.9491 198.563 12.9979 198.693 12.9979 198.85C12.9979 198.999 12.9491 199.125 12.8514 199.226C12.757 199.326 12.617 199.377 12.4315 199.377C12.2459 199.377 12.106 199.326 12.0116 199.226C11.9204 199.125 11.8748 198.999 11.8748 198.85ZM15.7127 195.329H16.3914C16.8179 195.323 17.1532 195.21 17.3973 194.992C17.6414 194.774 17.7635 194.479 17.7635 194.108C17.7635 193.275 17.3485 192.858 16.5184 192.858C16.1278 192.858 15.8153 192.971 15.5809 193.195C15.3498 193.417 15.2342 193.711 15.2342 194.079H14.3309C14.3309 193.516 14.536 193.049 14.9461 192.678C15.3595 192.303 15.8836 192.116 16.5184 192.116C17.189 192.116 17.7147 192.294 18.0955 192.648C18.4764 193.003 18.6668 193.496 18.6668 194.128C18.6668 194.437 18.5659 194.737 18.3641 195.026C18.1655 195.316 17.8937 195.533 17.5487 195.676C17.9393 195.799 18.2404 196.005 18.452 196.291C18.6668 196.577 18.7742 196.927 18.7742 197.341C18.7742 197.979 18.5659 198.485 18.1492 198.859C17.7326 199.234 17.1906 199.421 16.5233 199.421C15.856 199.421 15.3123 199.24 14.8924 198.879C14.4757 198.518 14.2674 198.041 14.2674 197.448H15.1756C15.1756 197.823 15.2977 198.122 15.5418 198.347C15.786 198.571 16.1131 198.684 16.5233 198.684C16.9595 198.684 17.2931 198.57 17.5242 198.342C17.7554 198.114 17.8709 197.787 17.8709 197.36C17.8709 196.947 17.744 196.63 17.4901 196.408C17.2362 196.187 16.8699 196.073 16.3914 196.066H15.7127V195.329Z" fill="#A3A3A3"/>
<path d="M17.9442 132.967V133.733H17.7782C17.075 133.746 16.5151 133.955 16.0985 134.358C15.6818 134.762 15.4409 135.33 15.3758 136.062C15.7502 135.633 16.2612 135.418 16.909 135.418C17.5275 135.418 18.0207 135.636 18.3885 136.072C18.7596 136.508 18.9451 137.072 18.9451 137.762C18.9451 138.494 18.7449 139.08 18.3446 139.52C17.9474 139.959 17.4136 140.179 16.743 140.179C16.0627 140.179 15.5109 139.918 15.0877 139.397C14.6645 138.873 14.453 138.2 14.453 137.376V137.029C14.453 135.721 14.7313 134.721 15.2879 134.031C15.8478 133.338 16.6795 132.983 17.783 132.967H17.9442ZM16.7576 136.17C16.4484 136.17 16.1636 136.263 15.9032 136.448C15.6427 136.634 15.4621 136.867 15.3612 137.146V137.479C15.3612 138.064 15.493 138.536 15.7567 138.895C16.0203 139.253 16.3491 139.432 16.743 139.432C17.1499 139.432 17.4689 139.282 17.7 138.982C17.9344 138.683 18.0516 138.291 18.0516 137.806C18.0516 137.317 17.9328 136.924 17.6951 136.624C17.4608 136.321 17.1483 136.17 16.7576 136.17Z" fill="#A3A3A3"/>
<path d="M29.1353 136.937H299.124" stroke="#F0F0F0" stroke-width="0.971182"/>
<path d="M30.1064 29.1348H287.47" stroke="#F0F0F0" stroke-width="0.971182"/>
</svg>
