<svg width="28" height="28" viewBox="0 0 28 28" fill="none" xmlns="http://www.w3.org/2000/svg">
<rect x="4.47949" y="5.76025" width="18.24" height="18.24" rx="4.8" fill="#062540"/>
<path fill-rule="evenodd" clip-rule="evenodd" d="M18.8312 1.70898H8.31965C4.0781 1.70898 0.639648 5.14744 0.639648 9.38899V19.949C0.639648 24.1905 4.07811 27.629 8.31965 27.629H18.8796C23.1212 27.629 26.5596 24.1905 26.5596 19.949V9.38898C26.5596 9.25876 26.5564 9.1293 26.55 9.00067C25.9673 9.31321 25.3228 9.52555 24.6396 9.61468V19.949C24.6396 23.1301 22.0608 25.709 18.8796 25.709H8.31965C5.13849 25.709 2.55965 23.1301 2.55965 19.949V9.38899C2.55965 6.20783 5.13849 3.62898 8.31965 3.62898H18.329C18.3816 2.9475 18.5563 2.30023 18.8312 1.70898Z" fill="#062540"/>
<path d="M6.39941 18.7205L11.7902 13.5882L16.221 16.8374L20.7994 11.5205" stroke="white" stroke-width="1.92" stroke-linecap="round" stroke-linejoin="round"/>
<circle cx="24.1598" cy="3.36" r="2.64" fill="#062540" stroke="#062540" stroke-width="1.44"/>
</svg>
