<svg width="27" height="28" viewBox="0 0 27 28" fill="none" xmlns="http://www.w3.org/2000/svg">
<path fill-rule="evenodd" clip-rule="evenodd" d="M18.2718 1.86865H7.76008C3.51853 1.86865 0.0800781 5.30711 0.0800781 9.54866V20.1087C0.0800781 24.3502 3.51854 27.7887 7.76008 27.7887H18.3201C22.5616 27.7887 26.0001 24.3502 26.0001 20.1086V9.54865C26.0001 9.4185 25.9968 9.28911 25.9904 9.16054C25.4077 9.47306 24.7633 9.6854 24.0801 9.77451V20.1086C24.0801 23.2898 21.5012 25.8687 18.3201 25.8687H7.76008C4.57892 25.8687 2.00008 23.2898 2.00008 20.1087V9.54866C2.00008 6.3675 4.57892 3.78865 7.76008 3.78865H17.7696C17.8222 3.10717 17.9969 2.45989 18.2718 1.86865Z" fill="#062540"/>
<path d="M5.83984 18.3997L10.2706 12.7874L14.7014 16.0366L19.2798 10.7197" stroke="#062540" stroke-width="1.92" stroke-linecap="round" stroke-linejoin="round"/>
<circle cx="23.6002" cy="3.51967" r="2.64" stroke="#062540" stroke-width="1.44"/>
</svg>
