<svg width="27" height="27" viewBox="0 0 27 27" fill="none" xmlns="http://www.w3.org/2000/svg">
<path d="M15.4671 0.77027C14.9514 0.337218 14.2827 0.0976562 13.5895 0.0976562C12.8963 0.0976562 12.2275 0.337218 11.7119 0.77027L1.41082 9.422C1.11794 9.66819 0.883715 9.96919 0.723352 10.3055C0.562989 10.6418 0.480071 11.0058 0.47998 11.374V23.7248C0.47998 24.4213 0.775968 25.0892 1.30283 25.5817C1.82969 26.0742 2.54427 26.3508 3.28936 26.3508H7.0352C7.7803 26.3508 8.49488 26.0742 9.02174 25.5817C9.5486 25.0892 9.84458 24.4213 9.84458 23.7248V16.7222C9.84458 16.4901 9.94325 16.2674 10.1189 16.1033C10.2945 15.9391 10.5327 15.8469 10.781 15.8469H16.3998C16.6482 15.8469 16.8864 15.9391 17.062 16.1033C17.2376 16.2674 17.3363 16.4901 17.3363 16.7222V23.7248C17.3363 24.4213 17.6323 25.0892 18.1591 25.5817C18.686 26.0742 19.4006 26.3508 20.1457 26.3508H23.8915C24.6366 26.3508 25.3512 26.0742 25.878 25.5817C26.4049 25.0892 26.7009 24.4213 26.7009 23.7248V11.374C26.7008 11.0058 26.6179 10.6418 26.4575 10.3055C26.2971 9.96919 26.0629 9.66819 25.77 9.422L15.469 0.77027H15.4671Z" fill="#062540"/>
</svg>
