<svg width="27" height="27" viewBox="0 0 27 27" fill="none" xmlns="http://www.w3.org/2000/svg">
<path d="M14.8938 1.57507L15.1601 1.79759H15.162L25.1965 10.1837C25.1966 10.1838 25.1966 10.1839 25.1967 10.184C25.3877 10.3438 25.5356 10.535 25.635 10.7425L26.4975 10.3292L25.635 10.7425C25.7344 10.9499 25.7844 11.171 25.7845 11.3924C25.7845 11.3925 25.7845 11.3926 25.7845 11.3927V23.6822C25.7845 24.0983 25.6074 24.5126 25.2667 24.8295C24.9236 25.1486 24.4444 25.3388 23.9315 25.3388H20.1857C19.6728 25.3388 19.1936 25.1486 18.8505 24.8295C18.5098 24.5126 18.3327 24.0983 18.3327 23.6822V16.7142C18.3327 16.2063 18.1152 15.7345 17.7534 15.398C17.394 15.0637 16.9204 14.8868 16.4398 14.8868H10.8211C10.3405 14.8868 9.86695 15.0637 9.50753 15.398C9.14578 15.7345 8.9282 16.2063 8.9282 16.7142V23.6822C8.9282 24.0983 8.75113 24.5126 8.4104 24.8295C8.06734 25.1486 7.58814 25.3388 7.07524 25.3388H3.3294C2.8165 25.3388 2.33731 25.1486 1.99424 24.8295C1.65352 24.5126 1.47645 24.0983 1.47645 23.6822V11.3927C1.47645 11.3926 1.47645 11.3925 1.47645 11.3924C1.47654 11.171 1.52654 10.9499 1.62589 10.7425C1.72541 10.5349 1.87338 10.3436 2.06448 10.1837L12.3652 1.57507C12.3652 1.57506 12.3652 1.57505 12.3653 1.57504C12.703 1.29278 13.1528 1.1283 13.6295 1.1283C14.1063 1.1283 14.556 1.29279 14.8938 1.57507Z" stroke="#062540" stroke-width="1.91285"/>
</svg>
