<svg width="77" height="79" viewBox="0 0 77 79" fill="none" xmlns="http://www.w3.org/2000/svg">
<g clip-path="url(#clip0_314:6894)">
<path d="M68.3288 7.86817C67.8254 7.5136 67.2747 7.14385 66.6587 7.15863C65.1679 7.19441 64.3641 9.37532 62.8747 9.29862C61.9249 9.24971 61.2944 8.2869 60.4101 7.93779C59.2587 7.48331 57.7936 8.37217 57.668 9.60131L57.8158 9.46626C62.2913 10.555 66.9357 10.7691 71.4927 10.0968C70.4381 9.3539 69.3835 8.61104 68.3288 7.86817Z" fill="#F0F0F0"/>
<path d="M1.91718 63.9365C2.51112 59.1706 5.47104 54.4748 10.0259 52.9238C8.2296 57.8293 8.22999 63.2106 10.027 68.1158C10.7269 70.005 11.7025 72.0336 11.0442 73.9376C10.6345 75.1224 9.63246 76.0288 8.51233 76.5956C7.39213 77.1624 6.14895 77.4325 4.92132 77.6972L4.67971 77.8966C2.73087 73.5054 1.32323 68.7024 1.91718 63.9365Z" fill="#F0F0F0"/>
<path d="M10.0713 53.0135C7.41873 55.9792 5.7701 59.7037 5.35954 63.6577C5.27675 64.5053 5.2667 65.3724 5.45238 66.2079C5.63965 67.0209 6.04166 67.769 6.61666 68.3745C7.14143 68.9498 7.74497 69.4777 8.12044 70.1703C8.51621 70.9004 8.53142 71.7298 8.26048 72.5053C7.92897 73.4541 7.2756 74.2274 6.61031 74.9616C5.87164 75.7766 5.09145 76.6116 4.77746 77.6922C4.73941 77.8231 4.53805 77.7566 4.57604 77.6258C5.12233 75.7458 6.95124 74.6779 7.82345 72.9845C8.23044 72.1944 8.40126 71.2771 8.01972 70.443C7.68608 69.7136 7.06416 69.1687 6.52778 68.5908C5.96457 67.9839 5.53273 67.3181 5.31027 66.5146C5.0827 65.6927 5.05881 64.8234 5.11952 63.9774C5.27152 62.06 5.7247 60.1783 6.46247 58.4013C7.2932 56.3686 8.46627 54.4927 9.93093 52.8547C10.0216 52.7534 10.1614 52.9128 10.0713 53.0135L10.0713 53.0135Z" fill="white"/>
<path d="M5.41685 62.3778C4.76139 62.219 4.18384 61.8329 3.78734 61.2884C3.39085 60.7439 3.20121 60.0765 3.25232 59.4054C3.26312 59.2696 3.47505 59.28 3.46423 59.4159C3.41548 60.0408 3.59218 60.6625 3.96244 61.1687C4.3327 61.675 4.87212 62.0325 5.48335 62.1768C5.61614 62.2083 5.54888 62.4091 5.41685 62.3778V62.3778Z" fill="white"/>
<path d="M6.31223 68.1182C7.49606 67.4129 8.36998 66.2882 8.75972 64.9684C8.79824 64.8376 8.99961 64.9041 8.96115 65.0348C8.55301 66.4074 7.64118 67.576 6.40764 68.3073C6.29001 68.3769 6.19525 68.1875 6.31224 68.1182H6.31223Z" fill="white"/>
<path d="M7.49001 56.5695C7.73079 56.6837 7.99622 56.7364 8.26246 56.7229C8.5287 56.7094 8.78741 56.6302 9.01537 56.4922C9.13205 56.4212 9.22669 56.6107 9.11077 56.6813C8.85821 56.8325 8.57237 56.9197 8.27825 56.9352C7.98413 56.9508 7.69067 56.8942 7.4235 56.7705C7.39734 56.761 7.37581 56.7418 7.36328 56.717C7.35075 56.6921 7.34816 56.6635 7.35604 56.6368C7.36498 56.6103 7.38407 56.5883 7.40916 56.5757C7.43424 56.5631 7.4633 56.5609 7.49001 56.5695V56.5695Z" fill="white"/>
<path d="M23.9098 61.4364C23.8382 61.4829 23.7666 61.5293 23.6949 61.5776C22.7356 62.207 21.8292 62.9132 20.9845 63.6891C20.9183 63.7481 20.852 63.8088 20.7876 63.8696C18.7726 65.7606 17.1269 68.0085 15.9343 70.4991C15.4606 71.4905 15.0632 72.5165 14.7455 73.5682C14.3069 75.0205 13.9471 76.6301 13.0788 77.8181C12.9896 77.9431 12.8928 78.0624 12.7888 78.1754H4.94216C4.92433 78.1665 4.9064 78.1593 4.88849 78.1504L4.5752 78.1647C4.58778 78.1093 4.60203 78.0521 4.61462 77.9968C4.62179 77.9646 4.6307 77.9324 4.63787 77.9003C4.6432 77.8788 4.64862 77.8574 4.65221 77.8378C4.65396 77.8306 4.65579 77.8235 4.65754 77.8181C4.66112 77.7985 4.66654 77.7806 4.67013 77.7627C4.74889 77.443 4.83003 77.1232 4.91357 76.8034C4.91357 76.8016 4.91357 76.8016 4.91532 76.7998C5.55808 74.3649 6.41019 71.9621 7.60068 69.7648C7.63652 69.6987 7.67227 69.6308 7.71169 69.5647C8.25382 68.5773 8.87592 67.6356 9.57177 66.7493C9.95437 66.2652 10.3613 65.8007 10.7909 65.3577C11.9033 64.215 13.1889 63.2541 14.6005 62.5101C17.4148 61.0273 20.673 60.4593 23.6806 61.365C23.7576 61.3882 23.8328 61.4114 23.9098 61.4364Z" fill="#F0F0F0"/>
<path d="M23.8923 61.5356C19.985 62.31 16.4215 64.2933 13.708 67.2037C13.1305 67.8307 12.5994 68.517 12.2435 69.2956C11.9025 70.0572 11.7721 70.8961 11.8659 71.725C11.9378 72.4997 12.1012 73.2838 11.9831 74.0624C11.8586 74.883 11.3703 75.5545 10.6861 76.0108C9.84893 76.5692 8.86065 76.7942 7.88653 76.9806C6.80496 77.1876 5.67825 77.3856 4.77557 78.0597C4.6662 78.1414 4.54558 77.9673 4.65479 77.8857C6.2253 76.7128 8.32991 76.9589 10.048 76.1309C10.8497 75.7445 11.5395 75.1147 11.7381 74.2196C11.9118 73.4367 11.744 72.6281 11.6644 71.8443C11.5809 71.0214 11.6378 70.2303 11.945 69.4552C12.2592 68.6622 12.7646 67.9538 13.3235 67.3147C14.6017 65.8751 16.0989 64.6449 17.7601 63.6694C19.6498 62.5455 21.7183 61.7524 23.876 61.3245C24.0095 61.2981 24.025 61.5094 23.8923 61.5356V61.5356Z" fill="white"/>
<path d="M14.5265 66.2158C14.099 65.6952 13.8708 65.0399 13.8828 64.3669C13.8947 63.694 14.146 63.0471 14.5917 62.542C14.6822 62.4401 14.8452 62.5757 14.7545 62.6777C14.3386 63.1474 14.1046 63.7499 14.0948 64.3766C14.0849 65.0033 14.2999 65.6128 14.7009 66.0952C14.7879 66.2002 14.6131 66.3201 14.5265 66.2158Z" fill="white"/>
<path d="M11.7779 71.3381C13.1487 71.4862 14.525 71.1132 15.6325 70.2936C15.7422 70.2123 15.8628 70.3864 15.7533 70.4676C14.5992 71.3183 13.1661 71.7036 11.74 71.5464C11.6041 71.5313 11.6427 71.3231 11.7779 71.3381Z" fill="white"/>
<path d="M19.6861 62.8237C19.8094 63.0595 19.9896 63.2611 20.2103 63.4103C20.431 63.5594 20.6854 63.6516 20.9506 63.6784C21.0866 63.6918 21.0479 63.9 20.9127 63.8867C20.6198 63.8557 20.339 63.7536 20.0948 63.5893C19.8505 63.425 19.6504 63.2035 19.5117 62.9442C19.4966 62.9209 19.4909 62.8926 19.4959 62.8653C19.5009 62.8379 19.5161 62.8135 19.5385 62.7969C19.5617 62.7811 19.5902 62.775 19.6178 62.78C19.6454 62.785 19.67 62.8007 19.6861 62.8237Z" fill="white"/>
<path d="M24.6755 60.4484C25.4149 54.5147 29.1001 48.6683 34.7711 46.7373C32.5346 52.8447 32.5351 59.5447 34.7725 65.6519C35.6439 68.004 36.8586 70.5296 36.0389 72.9002C35.5289 74.3753 34.2813 75.5038 32.8866 76.2094C31.492 76.9151 29.9442 77.2514 28.4157 77.581L28.1149 77.8293C25.6885 72.362 23.936 66.3821 24.6755 60.4484Z" fill="#F0F0F0"/>
<path d="M34.8277 46.8484C31.5588 50.5011 29.4381 55.2195 28.9614 60.1008C28.8583 61.1562 28.8458 62.2357 29.077 63.2759C29.3101 64.2881 29.8106 65.2195 30.5265 65.9734C31.1799 66.6897 31.9313 67.347 32.3988 68.2093C32.8915 69.1182 32.9105 70.151 32.5732 71.1164C32.1604 72.2977 31.3469 73.2606 30.5186 74.1746C29.599 75.1894 28.6276 76.2289 28.2367 77.5743C28.1893 77.7373 27.9386 77.6544 27.9859 77.4917C28.666 75.1509 30.9431 73.8214 32.029 71.7131C32.5357 70.7293 32.7484 69.5872 32.2734 68.5488C31.858 67.6407 31.0837 66.9623 30.4159 66.2427C29.7147 65.4872 29.177 64.6582 28.9 63.6578C28.6167 62.6345 28.587 61.5522 28.6625 60.4989C28.8518 58.1116 29.416 55.7689 30.3346 53.5565C31.3688 51.0257 32.8294 48.6901 34.6529 46.6507C34.7658 46.5246 34.9398 46.723 34.8277 46.8484Z" fill="white"/>
<path d="M29.0323 58.5058C28.2162 58.3081 27.4971 57.8274 27.0035 57.1495C26.5098 56.4716 26.2737 55.6406 26.3373 54.805C26.3508 54.636 26.6146 54.6489 26.6012 54.8182C26.5405 55.5962 26.7605 56.3702 27.2215 57.0005C27.6824 57.6308 28.3541 58.076 29.1151 58.2556C29.2804 58.2948 29.1966 58.5448 29.0323 58.5058Z" fill="white"/>
<path d="M30.1471 65.6545C31.621 64.7763 32.7091 63.376 33.1943 61.7328C33.2423 61.57 33.493 61.6528 33.4451 61.8155C32.9369 63.5244 31.8017 64.9794 30.2659 65.8899C30.1194 65.9766 30.0015 65.7407 30.1471 65.6545Z" fill="white"/>
<path d="M31.6138 51.2759C31.9135 51.418 32.244 51.4837 32.5755 51.4669C32.907 51.4501 33.2291 51.3514 33.5129 51.1797C33.6582 51.0912 33.776 51.3271 33.6317 51.4151C33.3172 51.6033 32.9613 51.7119 32.5952 51.7312C32.229 51.7506 31.8636 51.6802 31.531 51.5261C31.4984 51.5142 31.4716 51.4904 31.456 51.4595C31.4404 51.4286 31.4372 51.3929 31.447 51.3597C31.4581 51.3266 31.4819 51.2993 31.5131 51.2836C31.5443 51.2679 31.5805 51.2651 31.6138 51.2759Z" fill="white"/>
<path d="M52.0571 57.335C51.9679 57.3928 51.8788 57.4507 51.7896 57.5107C50.5952 58.2944 49.4667 59.1736 48.4151 60.1397C48.3326 60.2131 48.2501 60.2887 48.1699 60.3644C45.6611 62.7188 43.6122 65.5175 42.1273 68.6183C41.5376 69.8527 41.0428 71.1301 40.6473 72.4394C40.1012 74.2477 39.6532 76.2517 38.5722 77.7308C38.4611 77.8864 38.3405 78.0349 38.2111 78.1756H28.4417C28.4195 78.1645 28.3972 78.1556 28.3749 78.1445L27.9849 78.1623C28.0005 78.0933 28.0183 78.0222 28.0339 77.9532C28.0429 77.9132 28.054 77.8731 28.0629 77.8331C28.0695 77.8064 28.0763 77.7797 28.0807 77.7552C28.0829 77.7464 28.0852 77.7375 28.0874 77.7308C28.0918 77.7063 28.0986 77.6841 28.1031 77.6618C28.2011 77.2637 28.3021 76.8656 28.4062 76.4675C28.4062 76.4652 28.4062 76.4652 28.4083 76.463C29.2086 73.4314 30.2695 70.4399 31.7517 67.7042C31.7963 67.6219 31.8408 67.5374 31.8899 67.4551C32.5649 66.2256 33.3394 65.0533 34.2058 63.9497C34.6821 63.347 35.1887 62.7687 35.7237 62.2171C37.1086 60.7945 38.7092 59.5981 40.4667 58.6717C43.9706 56.8257 48.0272 56.1184 51.7718 57.2461C51.8676 57.275 51.9613 57.3039 52.0571 57.335Z" fill="#F0F0F0"/>
<path d="M52.0351 57.458C47.2213 58.4106 42.6812 60.9039 39.3554 64.515C38.6364 65.2957 37.975 66.1501 37.532 67.1195C37.1075 68.0678 36.9451 69.1122 37.0619 70.1442C37.1513 71.1087 37.3548 72.0849 37.2078 73.0543C37.0528 74.0761 36.4448 74.912 35.5929 75.4802C34.5507 76.1754 33.3202 76.4555 32.1074 76.6876C30.7608 76.9454 29.358 77.1918 28.2342 78.0311C28.098 78.1328 27.9478 77.9161 28.0838 77.8145C30.0391 76.3542 32.6594 76.6606 34.7985 75.6297C35.7966 75.1487 36.6555 74.3646 36.9028 73.25C37.119 72.2754 36.9101 71.2685 36.811 70.2928C36.707 69.2682 36.7779 68.2833 37.1603 67.3181C37.5515 66.3309 38.1807 65.4489 38.8766 64.6532C40.4681 62.8608 42.3321 61.3292 44.4003 60.1146C46.7531 58.7153 49.3284 57.7279 52.0148 57.1952C52.1811 57.1623 52.2003 57.4253 52.0351 57.458Z" fill="white"/>
<path d="M40.3743 63.2849C39.842 62.6368 39.558 61.821 39.5728 60.9831C39.5877 60.1452 39.9005 59.3399 40.4555 58.711C40.5682 58.5841 40.7711 58.753 40.6582 58.88C40.1403 59.4647 39.849 60.2149 39.8368 60.9951C39.8245 61.7754 40.0922 62.5343 40.5914 63.1349C40.6998 63.2655 40.4821 63.4148 40.3743 63.2849Z" fill="white"/>
<path d="M36.952 69.6617C38.6587 69.846 40.3723 69.3817 41.7511 68.3612C41.8877 68.26 42.0379 68.4768 41.9015 68.5779C40.4647 69.6371 38.6804 70.1167 36.9048 69.921C36.7356 69.9022 36.7837 69.6431 36.952 69.6617H36.952Z" fill="white"/>
<path d="M46.798 59.0623C46.9516 59.3559 47.1759 59.6069 47.4507 59.7926C47.7255 59.9784 48.0422 60.0931 48.3724 60.1265C48.5418 60.1431 48.4935 60.4023 48.3252 60.3858C47.9606 60.3472 47.611 60.2201 47.3069 60.0155C47.0028 59.811 46.7536 59.5352 46.5809 59.2124C46.5621 59.1833 46.5551 59.1482 46.5613 59.1141C46.5675 59.0801 46.5864 59.0497 46.6143 59.0291C46.6431 59.0093 46.6786 59.0018 46.713 59.008C46.7474 59.0142 46.778 59.0338 46.798 59.0623Z" fill="white"/>
<path d="M15.8119 47.0216C15.9844 46.9685 16.1432 46.8783 16.277 46.7574C16.4108 46.6365 16.5165 46.4878 16.5865 46.3217C16.6565 46.1556 16.6892 45.9762 16.6822 45.7962C16.6752 45.6162 16.6287 45.4399 16.5461 45.2797L20.36 34.7201L17.7157 34.251L14.7983 44.7782C14.5378 44.9346 14.3439 45.1809 14.2533 45.4704C14.1626 45.76 14.1816 46.0726 14.3065 46.3492C14.4314 46.6257 14.6537 46.8469 14.9311 46.9708C15.2086 47.0947 15.522 47.1128 15.8119 47.0216Z" fill="#9E616A"/>
<path d="M21.1804 32.3004C21.0903 32.1043 20.9597 31.9293 20.7971 31.787C20.6346 31.6447 20.4438 31.5382 20.2372 31.4745C20.0305 31.4108 19.8128 31.3914 19.5981 31.4175C19.3835 31.4436 19.1768 31.5146 18.9915 31.6259C18.6989 31.7985 18.4735 32.065 18.3523 32.3819L16.9809 34.8047C16.9417 34.8739 16.9179 34.9507 16.9112 35.03C16.9044 35.1092 16.9149 35.1889 16.9418 35.2637C16.9688 35.3385 17.0116 35.4066 17.0673 35.4634C17.1231 35.5202 17.1904 35.5644 17.2648 35.5928L17.3361 35.6203L17.8661 35.8234L19.7066 36.5289L19.8755 36.5943C19.9499 36.6228 20.0295 36.6349 20.1089 36.6299C20.1884 36.6249 20.2658 36.6029 20.336 36.5653C20.4061 36.5277 20.4673 36.4755 20.5154 36.4123C20.5636 36.349 20.5974 36.2761 20.6148 36.1985L20.8321 35.2246L21.2195 33.4923C21.2935 33.3012 21.3282 33.0972 21.3214 32.8924C21.3147 32.6876 21.2667 32.4863 21.1804 32.3004Z" fill="#FA8A3C"/>
<path d="M25.4642 38.3311H19.1562V44.6257H25.4642V38.3311Z" fill="#9E616A"/>
<path d="M15.6824 75.9526L16.9252 75.9525L17.5164 71.1689L15.6821 71.1691L15.6824 75.9526Z" fill="#9E616A"/>
<path d="M19.0941 77.3495L17.226 76.0624V75.2227L17.0145 75.2353H17.0133L15.6832 75.3156H15.6821L15.2613 75.3397L15.0211 78.2111L15.0142 78.3063H15.8959L15.9131 78.2111L16.0534 77.4757L16.4109 78.2111L16.4569 78.3063H18.7952C18.9031 78.3071 19.0086 78.2738 19.0964 78.2111C19.1658 78.1633 19.2225 78.0993 19.2615 78.0248C19.3006 77.9502 19.3209 77.8673 19.3206 77.7832C19.3207 77.698 19.3001 77.6141 19.2607 77.5386C19.2212 77.4631 19.1641 77.3982 19.0941 77.3495Z" fill="#2F2E41"/>
<path d="M22.9507 75.1637L24.1451 75.5065L26.0384 71.0723L24.2756 70.5664L22.9507 75.1637Z" fill="#9E616A"/>
<path d="M25.842 77.4495L24.4027 75.6966L24.636 74.889L24.4291 74.8431H24.4279L23.2749 74.585L23.1266 74.5517L22.7162 74.46L21.6562 77.2419L22.5023 77.4862L22.8852 76.7302L23.0415 77.6399L23.5749 77.7925L25.0269 78.2101L25.2901 78.2858C25.3657 78.307 25.4449 78.3112 25.5223 78.2981C25.5996 78.285 25.6731 78.2549 25.7374 78.2101C25.8358 78.1418 25.9077 78.0417 25.9408 77.9267C25.9642 77.8451 25.9674 77.7591 25.9502 77.676C25.933 77.5929 25.8959 77.5152 25.842 77.4495Z" fill="#2F2E41"/>
<path d="M24.8997 26.4793C24.6672 26.9051 24.3444 27.2751 23.9539 27.5636C23.5633 27.8521 23.1144 28.0521 22.6384 28.1496C22.5855 28.1611 22.5327 28.1703 22.4786 28.1783C21.7318 28.2948 20.9674 28.1557 20.3098 27.7836C19.6523 27.4115 19.1403 26.8283 18.8571 26.1289C18.5739 25.4295 18.5362 24.655 18.7502 23.9316C18.9642 23.2081 19.4172 22.5782 20.0355 22.1443C20.6538 21.7103 21.4011 21.498 22.1558 21.5418C22.9104 21.5855 23.628 21.8828 24.1918 22.3853C24.7556 22.8878 25.1324 23.5658 25.261 24.3092C25.3895 25.0525 25.2622 25.8174 24.8997 26.4793Z" fill="#9E616A"/>
<path d="M30.2032 63.6152C30.3085 63.3384 30.3473 63.0408 30.3165 62.7463C30.2858 62.4518 30.1865 62.1686 30.0264 61.9193L27.1631 47.0987L26.0367 41.4785H19.2781C19.2781 41.4785 15.054 46.1433 15.9552 52.1007L15.7029 60.4905C15.4637 61.066 15.4046 61.7003 15.5336 62.3099L15.6339 62.7845L15.5952 62.856C15.4108 63.1965 15.3117 63.5765 15.3065 63.9635C15.3012 64.3505 15.3899 64.733 15.565 65.0784L15.2793 74.5815L17.3069 74.4691L20.2919 63.3973L22.2631 53.4495L25.5861 61.1492L25.6988 62.9477L25.6441 64.5329L23.0516 73.7946L25.2482 74.6377L30.2032 63.6152Z" fill="#2F2E41"/>
<path d="M24.9557 32.6841L23.3704 31.093L23.4485 30.6777C23.4874 30.4667 23.4562 30.2488 23.3597 30.0571C23.2632 29.8654 23.1067 29.7103 22.9139 29.6154L20.8504 28.6036C20.7099 28.5348 20.555 28.5003 20.3985 28.5031C20.242 28.5059 20.0884 28.5458 19.9505 28.6196C19.8125 28.6933 19.6941 28.7988 19.6051 28.9273C19.5161 29.0558 19.4591 29.2036 19.4387 29.3584L19.2018 31.1836C19.1812 31.2226 19.103 31.3775 18.9915 31.6264C18.6101 32.494 18.314 33.3964 18.1074 34.3211C17.9963 34.8166 17.9157 35.3185 17.866 35.8239C17.743 36.951 17.8287 38.0912 18.1189 39.1874C18.2201 39.5476 18.2753 39.6451 18.3075 39.6818C18.2827 39.843 18.2666 40.0053 18.2592 40.1682L18.2557 40.2267L18.3696 40.2313L19.1559 40.2634L24.7682 40.4952L25.4638 40.5238L25.6397 40.5307L26.0455 38.3109L26.1628 37.6697C26.2513 37.4896 27.7308 34.3544 24.9557 32.6841Z" fill="#FA8A3C"/>
<path d="M30.3966 45.5669C30.4628 45.3992 30.4913 45.2191 30.4801 45.0393C30.4689 44.8595 30.4184 44.6843 30.332 44.5261C30.2457 44.3679 30.1256 44.2305 29.9803 44.1236C29.835 44.0167 29.6679 43.9429 29.4909 43.9073L23.6025 34.3438L21.585 36.1128L28.0075 44.9572C27.9674 45.2579 28.0392 45.5628 28.2094 45.8141C28.3796 46.0655 28.6362 46.2458 28.9307 46.321C29.2252 46.3961 29.5371 46.3609 29.8073 46.2219C30.0774 46.0829 30.2872 45.8498 30.3966 45.5669Z" fill="#9E616A"/>
<path d="M24.9199 35.0685L23.1783 32.9072C22.9824 32.5742 22.6681 32.327 22.2979 32.2148C21.9276 32.1026 21.5286 32.1335 21.1802 32.3015C21.1437 32.3184 21.108 32.3372 21.0734 32.3577C20.7226 32.5626 20.4674 32.8977 20.3635 33.2898C20.2597 33.6819 20.3157 34.0991 20.5192 34.4502L20.8319 35.2256L21.5608 37.0313C21.5905 37.105 21.6357 37.1714 21.6934 37.226C21.7511 37.2806 21.82 37.3222 21.8953 37.3479C21.9705 37.3736 22.0505 37.3828 22.1296 37.3749C22.2088 37.367 22.2853 37.3421 22.354 37.302L22.4207 37.263L24.6118 35.9828L24.7682 35.891C24.8369 35.8511 24.8961 35.7967 24.9417 35.7318C24.9874 35.6668 25.0184 35.5928 25.0326 35.5147C25.0468 35.4366 25.0441 35.3564 25.0246 35.2795C25.0052 35.2025 24.9695 35.1306 24.9199 35.0685Z" fill="#FA8A3C"/>
<path d="M71.1186 10.4925C73.9757 10.4925 76.2918 8.18129 76.2918 5.33024C76.2918 2.4792 73.9757 0.167969 71.1186 0.167969C68.2615 0.167969 65.9453 2.4792 65.9453 5.33024C65.9453 8.18129 68.2615 10.4925 71.1186 10.4925Z" fill="#062540"/>
<path d="M16.4179 10.3648C15.7764 9.91289 15.0745 9.44167 14.2895 9.46051C12.3895 9.5061 11.3652 12.2855 9.46713 12.1877C8.2567 12.1254 7.45318 10.8984 6.32615 10.4535C4.85886 9.87428 2.99162 11.0071 2.83154 12.5735L3.01998 12.4014C8.72363 13.7889 14.6425 14.0618 20.45 13.2049C19.106 12.2582 17.762 11.3115 16.4179 10.3648Z" fill="#F0F0F0"/>
<path d="M54.1458 18.6568C53.5306 18.2234 52.8575 17.7715 52.1046 17.7896C50.2825 17.8333 49.3001 20.4988 47.4799 20.4051C46.319 20.3453 45.5484 19.1685 44.4676 18.7419C43.0604 18.1864 41.2697 19.2728 41.1162 20.775L41.2969 20.6099C46.7668 21.9406 52.4431 22.2023 58.0127 21.3805C56.7237 20.4726 55.4348 19.5647 54.1458 18.6568Z" fill="#F0F0F0"/>
<path d="M23.5685 21.9445C22.4729 21.1926 21.5082 21.0781 20.7157 21.2913C20.613 21.1328 20.4689 21.0051 20.2989 20.9221C19.6809 19.368 17.7999 18.4346 16.1857 18.8883C14.561 19.345 13.44 21.1408 13.7457 22.7973C13.9352 23.824 14.5827 24.7131 14.8432 25.7243C15.3474 27.6816 14.1174 29.9238 12.1934 30.5548C14.0151 30.9198 16.0204 29.8094 16.674 28.0737C16.9914 27.2306 17.0105 26.3102 17.0509 25.4105C17.0912 24.5107 17.1639 23.584 17.5725 22.781C17.8464 22.2302 18.3013 21.7898 18.8613 21.5333C18.8111 21.688 18.7986 21.8525 18.8247 22.013C18.8508 22.1736 18.9148 22.3257 19.0114 22.4567C18.5841 22.9907 18.3516 23.5683 18.3516 23.9142C17.464 25.5328 18.7332 26.9232 20.3554 27.8088C21.0023 28.1639 21.7494 28.2939 22.4787 28.1782L22.5465 27.8891L22.6385 28.1495L22.9454 29.0225C23.2995 29.1935 23.6505 29.3808 23.9985 29.5846C23.8663 28.9652 23.7593 28.3468 23.6857 27.7423C23.5839 26.9194 23.939 25.6944 24.1952 24.9495C24.3541 24.4904 24.4356 24.0081 24.4365 23.5224V23.5012L24.6859 24.3008L25.5941 23.9142C25.4251 22.9471 25.5941 21.8493 23.5685 21.9445Z" fill="#2F2E41"/>
<path d="M55.3983 73.9043L55.0615 73.9808C55.2889 74.7185 55.4104 75.4846 55.4223 76.2562C55.4311 76.6409 55.409 77.0257 55.3564 77.4069C55.3164 77.6774 55.2417 77.9877 54.9726 78.1141C54.7719 78.2083 54.9468 78.5051 55.1467 78.4112C55.4502 78.2687 55.5978 77.9493 55.664 77.6372C55.7395 77.2347 55.7743 76.8257 55.7678 76.4163C55.7714 75.5652 55.6468 74.7184 55.3983 73.9043Z" fill="#3F3D56"/>
<path d="M55.2066 78.5957C55.2066 78.5957 53.9734 75.5667 57.6729 73.2949L55.2066 78.5957Z" fill="#3F3D56"/>
<path d="M55.6002 78.5399C55.6002 78.5399 55.2241 76.381 52.3125 76.3995L55.6002 78.5399Z" fill="#3F3D56"/>
<path d="M55.3686 74.4253C55.9401 74.4253 56.4033 73.963 56.4033 73.3928C56.4033 72.8226 55.9401 72.3604 55.3686 72.3604C54.7972 72.3604 54.334 72.8226 54.334 73.3928C54.334 73.963 54.7972 74.4253 55.3686 74.4253Z" fill="#FA8A3C"/>
<path d="M75.2844 78.5945H0.870863C0.834628 78.5944 0.799913 78.5799 0.774328 78.5543C0.748743 78.5287 0.734375 78.494 0.734375 78.4579C0.734375 78.4217 0.748743 78.387 0.774328 78.3614C0.799913 78.3358 0.834628 78.3214 0.870863 78.3213H75.2844C75.3206 78.3214 75.3553 78.3358 75.3809 78.3614C75.4065 78.387 75.4209 78.4217 75.4209 78.4579C75.4209 78.494 75.4065 78.5287 75.3809 78.5543C75.3553 78.5799 75.3206 78.5944 75.2844 78.5945Z" fill="#CACACA"/>
</g>
<defs>
<clipPath id="clip0_314:6894">
<rect width="75.5577" height="78.427" fill="white" transform="translate(0.733887 0.167969)"/>
</clipPath>
</defs>
</svg>
