<svg width="100" height="71" viewBox="0 0 100 71" fill="none" xmlns="http://www.w3.org/2000/svg">
<g clip-path="url(#clip0_314:6352)">
<path d="M48.1609 1.78125C38.5135 1.78125 30.6929 6.93853 30.6929 13.3003C30.6929 16.141 32.253 18.7409 34.8378 20.7493V29.1097L40.3751 23.6138C42.8892 24.4242 45.5175 24.8312 48.1609 24.8194C57.8081 24.8194 65.6288 19.6622 65.6288 13.3003C65.6288 6.93853 57.8081 1.78125 48.1609 1.78125Z" fill="#F2F2F2"/>
<g opacity="0.3">
<path opacity="0.3" d="M77.5118 59.1173C77.772 59.2548 78.0608 59.3304 78.3555 59.3383C78.6502 59.3461 78.9427 59.2859 79.2099 59.1624C79.4771 59.0389 79.7118 58.8555 79.8954 58.6266C80.0791 58.3977 80.2066 58.1296 80.2681 57.8435C80.3295 57.5573 80.3231 57.2609 80.2495 56.9776C80.1758 56.6943 80.0368 56.4319 79.8435 56.211C79.6502 55.9901 79.4079 55.8167 79.1356 55.7047C78.8633 55.5926 78.5685 55.5448 78.2744 55.5651L78.1843 56.5345L77.843 55.6449C77.3627 55.7917 76.9607 56.1218 76.7254 56.5626C76.6421 56.7169 76.5813 56.8821 76.5448 57.0533C76.458 57.4549 76.5054 57.8737 76.6799 58.2461C76.8544 58.6186 77.1465 58.9244 77.5118 59.1173Z" fill="#57B894"/>
<path opacity="0.3" d="M78.1898 70.6018C78.1446 69.7602 78.9501 69.1329 79.7108 68.7585C80.4715 68.3841 81.3478 68.0344 81.6986 67.2669C82.2028 66.1639 81.3402 64.9678 80.6815 63.9482C80.1929 63.1916 79.7963 62.3801 79.5001 61.5308C79.3814 61.1903 79.278 60.8373 79.2853 60.477C79.2959 59.9582 79.5334 59.4738 79.7692 59.0106C80.5545 57.4676 81.3762 55.9436 82.2343 54.4385" stroke="#3F3D56" stroke-width="0.956427" stroke-miterlimit="10"/>
<path opacity="0.3" d="M77.6246 58.8809C77.8848 59.0185 78.1737 59.0941 78.4683 59.1019C78.763 59.1098 79.0555 59.0496 79.3227 58.9261C79.59 58.8026 79.8247 58.6191 80.0083 58.3903C80.1919 58.1614 80.3195 57.8933 80.3809 57.6071C80.4424 57.321 80.436 57.0246 80.3623 56.7413C80.2886 56.458 80.1497 56.1955 79.9564 55.9746C79.7631 55.7537 79.5207 55.5804 79.2484 55.4683C78.9761 55.3563 78.6813 55.3085 78.3873 55.3288L78.2971 56.2982L77.9559 55.4086C77.4755 55.5554 77.0735 55.8854 76.8382 56.3262C76.7549 56.4805 76.6941 56.6458 76.6576 56.817C76.5708 57.2186 76.6182 57.6373 76.7927 58.0098C76.9672 58.3822 77.2593 58.6881 77.6246 58.8809Z" stroke="#3F3D56" stroke-width="0.956427" stroke-miterlimit="10"/>
<path opacity="0.3" d="M80.3468 53.8354C80.4965 53.5557 80.7147 53.3179 80.9813 53.1439C81.2479 52.97 81.5544 52.8654 81.8724 52.8398L81.897 53.7769L82.3218 52.8561C82.7204 52.9181 83.0888 53.1042 83.3739 53.3876C83.659 53.6709 83.8459 54.0369 83.9078 54.4326C83.9696 54.8283 83.9032 55.2333 83.7181 55.5891C83.5329 55.9449 83.2386 56.2331 82.8777 56.412C82.5168 56.591 82.1079 56.6515 81.7101 56.5848C81.3123 56.5181 80.9461 56.3276 80.6645 56.0409C80.3828 55.7541 80.2003 55.386 80.1432 54.9896C80.0861 54.5931 80.1574 54.189 80.3468 53.8354Z" fill="#57B894"/>
<path opacity="0.3" d="M80.4972 53.519C80.6469 53.2393 80.8651 53.0015 81.1317 52.8275C81.3983 52.6536 81.7048 52.549 82.0228 52.5234L82.0475 53.4605L82.4722 52.5397C82.8708 52.6017 83.2393 52.7878 83.5243 53.0711C83.8094 53.3545 83.9964 53.7205 84.0582 54.1162C84.1201 54.5119 84.0537 54.9169 83.8685 55.2727C83.6834 55.6285 83.3891 55.9166 83.0281 56.0956C82.6672 56.2746 82.2583 56.3351 81.8605 56.2684C81.4627 56.2016 81.0965 56.0112 80.8149 55.7244C80.5332 55.4377 80.3507 55.0696 80.2936 54.6732C80.2365 54.2767 80.3078 53.8726 80.4972 53.519Z" stroke="#3F3D56" stroke-width="0.956427" stroke-miterlimit="10"/>
<path opacity="0.3" d="M80.3485 63.9205C80.7612 64.1383 81.2402 64.1977 81.6941 64.0874C82.1481 63.9772 82.5454 63.705 82.8102 63.3227C83.0749 62.9405 83.1887 62.4749 83.1299 62.0147C83.071 61.5545 82.8436 61.1319 82.4909 60.8274L82.1645 61.5351L82.1399 60.587C82.1384 60.586 82.1369 60.5852 82.1353 60.5845C81.9146 60.4677 81.6728 60.3952 81.4238 60.3712C81.1749 60.3471 80.9236 60.3721 80.6843 60.4445C80.445 60.517 80.2225 60.6355 80.0294 60.7934C79.8364 60.9513 79.6766 61.1454 79.5591 61.3646C79.4417 61.5839 79.369 61.8239 79.3451 62.0711C79.3212 62.3182 79.3467 62.5676 79.42 62.805C79.4933 63.0424 79.613 63.2631 79.7724 63.4545C79.9317 63.6459 80.1274 63.8043 80.3485 63.9205Z" fill="#57B894"/>
<path opacity="0.3" d="M80.4857 63.5995C80.8984 63.8172 81.3774 63.8767 81.8314 63.7664C82.2854 63.6562 82.6826 63.384 82.9474 63.0017C83.2122 62.6194 83.326 62.1538 83.2671 61.6936C83.2083 61.2334 82.9808 60.8108 82.6282 60.5064L82.3018 61.214L82.2771 60.2659C82.2757 60.265 82.2742 60.2642 82.2726 60.2635C82.0519 60.1469 81.8102 60.0746 81.5613 60.0507C81.3125 60.0269 81.0613 60.0519 80.8222 60.1244C80.5831 60.197 80.3607 60.3155 80.1678 60.4734C79.9749 60.6312 79.8152 60.8252 79.6978 61.0443C79.5805 61.2634 79.5077 61.5033 79.4838 61.7504C79.4599 61.9974 79.4853 62.2466 79.5584 62.4839C79.6316 62.7212 79.7512 62.9419 79.9103 63.1333C80.0694 63.3247 80.2649 63.4831 80.4857 63.5995V63.5995Z" stroke="#3F3D56" stroke-width="0.956427" stroke-miterlimit="10"/>
<path opacity="0.3" d="M77.9436 66.7529C77.9581 67.1858 78.1222 67.6007 78.4083 67.9278C78.6945 68.2549 79.0852 68.4744 79.515 68.5495C79.9449 68.6247 80.3876 68.5508 80.7691 68.3403C81.1506 68.1299 81.4476 67.7957 81.6102 67.3937C81.7729 66.9917 81.7914 66.5464 81.6625 66.1325C81.5337 65.7187 81.2654 65.3613 80.9026 65.1205C80.5398 64.8797 80.1047 64.7699 79.6701 64.8098C79.2355 64.8496 78.8279 65.0365 78.5157 65.3392L79.1764 66.7115L78.1241 65.8845C77.9947 66.1555 77.9328 66.4533 77.9436 66.7529Z" fill="#57B894"/>
<path opacity="0.3" d="M78.0564 66.5146C78.0709 66.9476 78.235 67.3624 78.5211 67.6895C78.8073 68.0166 79.198 68.2361 79.6279 68.3113C80.0577 68.3864 80.5005 68.3125 80.882 68.1021C81.2635 67.8916 81.5604 67.5574 81.7231 67.1554C81.8858 66.7534 81.9042 66.3082 81.7754 65.8943C81.6466 65.4804 81.3782 65.1231 81.0155 64.8822C80.6527 64.6414 80.2175 64.5317 79.7829 64.5715C79.3483 64.6113 78.9407 64.7982 78.6285 65.1009L79.2892 66.4732L78.2369 65.6463C78.1075 65.9172 78.0456 66.215 78.0564 66.5146V66.5146Z" stroke="#3F3D56" stroke-width="0.956427" stroke-miterlimit="10"/>
</g>
<g opacity="0.3">
<path opacity="0.3" d="M27.1906 59.3907C26.9304 59.5282 26.6416 59.6039 26.3469 59.6117C26.0523 59.6195 25.7598 59.5593 25.4925 59.4358C25.2253 59.3123 24.9906 59.1289 24.807 58.9C24.6234 58.6712 24.4958 58.4031 24.4344 58.1169C24.3729 57.8308 24.3793 57.5343 24.453 57.251C24.5266 56.9678 24.6656 56.7053 24.8589 56.4844C25.0522 56.2635 25.2945 56.0902 25.5668 55.9781C25.8391 55.866 26.1339 55.8182 26.428 55.8385L26.5181 56.8079L26.8594 55.9184C27.3398 56.0651 27.7418 56.3952 27.9771 56.836C28.0603 56.9903 28.1211 57.1555 28.1577 57.3268C28.2445 57.7284 28.197 58.1471 28.0225 58.5196C27.848 58.892 27.556 59.1978 27.1906 59.3907Z" fill="#FF6584"/>
<path opacity="0.3" d="M26.5127 70.8752C26.558 70.0336 25.7524 69.4064 24.9917 69.032C24.231 68.6576 23.3547 68.3078 23.0039 67.5404C22.4997 66.4374 23.3623 65.2412 24.021 64.2216C24.5096 63.465 24.9062 62.6536 25.2025 61.8043C25.3212 61.4638 25.4246 61.1107 25.4172 60.7504C25.4066 60.2316 25.1691 59.7472 24.9334 59.284C24.1481 57.741 23.3264 56.217 22.4683 54.7119" stroke="#3F3D56" stroke-width="0.956427" stroke-miterlimit="10"/>
<path opacity="0.3" d="M27.0778 59.1534C26.8176 59.2909 26.5288 59.3666 26.2341 59.3744C25.9395 59.3822 25.647 59.322 25.3797 59.1985C25.1125 59.075 24.8778 58.8916 24.6942 58.6627C24.5106 58.4338 24.383 58.1658 24.3216 57.8796C24.2601 57.5934 24.2665 57.297 24.3402 57.0137C24.4139 56.7304 24.5528 56.468 24.7461 56.2471C24.9394 56.0262 25.1817 55.8529 25.454 55.7408C25.7263 55.6287 26.0211 55.5809 26.3152 55.6012L26.4054 56.5706L26.7466 55.681C27.227 55.8278 27.629 56.1579 27.8643 56.5987C27.9476 56.753 28.0083 56.9182 28.0449 57.0895C28.1317 57.4911 28.0843 57.9098 27.9098 58.2822C27.7353 58.6547 27.4432 58.9605 27.0778 59.1534V59.1534Z" stroke="#3F3D56" stroke-width="0.956427" stroke-miterlimit="10"/>
<path opacity="0.3" d="M24.3561 54.1079C24.2064 53.8282 23.9882 53.5904 23.7215 53.4164C23.4549 53.2424 23.1485 53.1378 22.8304 53.1123L22.8058 54.0494L22.381 53.1285C21.9824 53.1905 21.614 53.3766 21.3289 53.66C21.0438 53.9434 20.8568 54.3094 20.795 54.7051C20.7331 55.1008 20.7995 55.5058 20.9847 55.8616C21.1699 56.2174 21.4641 56.5056 21.8251 56.6845C22.186 56.8635 22.5949 56.924 22.9927 56.8573C23.3906 56.7906 23.7567 56.6001 24.0384 56.3134C24.32 56.0266 24.5026 55.6585 24.5597 55.2621C24.6168 54.8656 24.5455 54.4615 24.3561 54.1079Z" fill="#FF6584"/>
<path opacity="0.3" d="M24.2057 53.7915C24.056 53.5118 23.8378 53.274 23.5711 53.1C23.3045 52.926 22.9981 52.8214 22.68 52.7959L22.6554 53.733L22.2306 52.8121C21.832 52.8741 21.4636 53.0602 21.1785 53.3436C20.8934 53.627 20.7064 53.993 20.6446 54.3887C20.5827 54.7844 20.6492 55.1894 20.8343 55.5452C21.0195 55.901 21.3138 56.1892 21.6747 56.3681C22.0356 56.5471 22.4445 56.6076 22.8423 56.5409C23.2402 56.4742 23.6063 56.2837 23.888 55.997C24.1696 55.7102 24.3522 55.3421 24.4093 54.9456C24.4664 54.5492 24.3951 54.1451 24.2057 53.7915V53.7915Z" stroke="#3F3D56" stroke-width="0.956427" stroke-miterlimit="10"/>
<path opacity="0.3" d="M24.3541 64.1943C23.9415 64.4121 23.4625 64.4715 23.0085 64.3612C22.5545 64.251 22.1573 63.9788 21.8925 63.5965C21.6277 63.2143 21.5139 62.7487 21.5728 62.2885C21.6316 61.8283 21.8591 61.4057 22.2117 61.1012L22.5381 61.8089L22.5628 60.8608C22.5642 60.8599 22.5657 60.859 22.5673 60.8583C22.788 60.7417 23.0297 60.6694 23.2786 60.6455C23.5275 60.6216 23.7787 60.6466 24.0178 60.7191C24.257 60.7916 24.4794 60.9102 24.6723 61.068C24.8653 61.2259 25.025 61.4199 25.1424 61.639C25.2597 61.8582 25.3325 62.0981 25.3564 62.3452C25.3803 62.5922 25.3549 62.8415 25.2817 63.0788C25.2085 63.3161 25.0889 63.5368 24.9298 63.7282C24.7706 63.9196 24.575 64.078 24.3541 64.1943V64.1943Z" fill="#FF6584"/>
<path opacity="0.3" d="M24.2169 63.8719C23.8043 64.0897 23.3253 64.1491 22.8713 64.0389C22.4173 63.9286 22.0201 63.6564 21.7553 63.2741C21.4905 62.8919 21.3767 62.4263 21.4356 61.9661C21.4944 61.5059 21.7219 61.0833 22.0745 60.7788L22.4009 61.4865L22.4256 60.5384C22.427 60.5375 22.4285 60.5366 22.4301 60.5359C22.6508 60.4193 22.8925 60.347 23.1414 60.3232C23.3902 60.2993 23.6414 60.3244 23.8805 60.3969C24.1196 60.4694 24.342 60.588 24.5349 60.7458C24.7278 60.9037 24.8875 61.0977 25.0049 61.3168C25.1222 61.5359 25.1949 61.7758 25.2189 62.0228C25.2428 62.2698 25.2174 62.5191 25.1443 62.7564C25.0711 62.9937 24.9515 63.2143 24.7924 63.4057C24.6333 63.5971 24.4378 63.7556 24.2169 63.8719V63.8719Z" stroke="#3F3D56" stroke-width="0.956427" stroke-miterlimit="10"/>
<path opacity="0.3" d="M26.7593 67.0254C26.7448 67.4583 26.5807 67.8731 26.2945 68.2002C26.0084 68.5274 25.6177 68.7469 25.1879 68.822C24.758 68.8971 24.3152 68.8233 23.9337 68.6128C23.5523 68.4024 23.2553 68.0681 23.0926 67.6661C22.93 67.2642 22.9115 66.8189 23.0403 66.405C23.1692 65.9911 23.4375 65.6338 23.8003 65.393C24.163 65.1521 24.5982 65.0424 25.0328 65.0822C25.4674 65.122 25.875 65.3089 26.1872 65.6116L25.5265 66.984L26.5788 66.157C26.7082 66.4279 26.7701 66.7257 26.7593 67.0254Z" fill="#FF6584"/>
<path opacity="0.3" d="M26.6465 66.7881C26.6319 67.221 26.4678 67.6358 26.1817 67.9629C25.8956 68.2901 25.5049 68.5096 25.075 68.5847C24.6452 68.6598 24.2024 68.586 23.8209 68.3755C23.4395 68.1651 23.1425 67.8308 22.9798 67.4288C22.8172 67.0269 22.7987 66.5816 22.9276 66.1677C23.0564 65.7538 23.3247 65.3965 23.6875 65.1557C24.0502 64.9148 24.4854 64.8051 24.92 64.8449C25.3546 64.8847 25.7622 65.0717 26.0744 65.3743L25.4137 66.7467L26.466 65.9197C26.5954 66.1906 26.6573 66.4884 26.6465 66.7881V66.7881Z" stroke="#3F3D56" stroke-width="0.956427" stroke-miterlimit="10"/>
</g>
<g opacity="0.3">
<path opacity="0.3" d="M74.7478 59.2999C74.4876 59.4374 74.1987 59.5131 73.9041 59.5209C73.6094 59.5287 73.3169 59.4685 73.0497 59.345C72.7824 59.2215 72.5478 59.0381 72.3641 58.8092C72.1805 58.5803 72.0529 58.3122 71.9915 58.0261C71.9301 57.7399 71.9364 57.4435 72.0101 57.1602C72.0838 56.8769 72.2227 56.6145 72.416 56.3936C72.6093 56.1727 72.8517 55.9994 73.124 55.8873C73.3963 55.7752 73.6911 55.7274 73.9851 55.7477L74.0753 56.7171L74.4165 55.8275C74.8969 55.9743 75.2989 56.3044 75.5342 56.7452C75.6175 56.8995 75.6783 57.0647 75.7148 57.236C75.8016 57.6376 75.7542 58.0563 75.5797 58.4287C75.4052 58.8012 75.1131 59.107 74.7478 59.2999Z" fill="#FF6584"/>
<path opacity="0.3" d="M74.0694 70.7853C74.1146 69.9438 73.3091 69.3165 72.5484 68.9421C71.7877 68.5677 70.9113 68.218 70.5605 67.4505C70.0564 66.3475 70.9189 65.1514 71.5776 64.1318C72.0663 63.3752 72.4629 62.5637 72.7591 61.7144C72.8778 61.3739 72.9812 61.0209 72.9738 60.6606C72.9633 60.1418 72.7258 59.6574 72.49 59.1942C71.7047 57.6512 70.883 56.1271 70.0249 54.6221" stroke="#3F3D56" stroke-width="0.956427" stroke-miterlimit="10"/>
<path opacity="0.3" d="M74.6349 59.0625C74.3747 59.2 74.0859 59.2757 73.7912 59.2835C73.4966 59.2913 73.2041 59.2311 72.9369 59.1076C72.6696 58.9841 72.435 58.8007 72.2513 58.5719C72.0677 58.343 71.9401 58.0749 71.8787 57.7887C71.8173 57.5026 71.8236 57.2062 71.8973 56.9229C71.971 56.6396 72.1099 56.3772 72.3032 56.1563C72.4965 55.9354 72.7389 55.7621 73.0112 55.65C73.2834 55.5379 73.5783 55.4901 73.8723 55.5104L73.9625 56.4798L74.3037 55.5902C74.7841 55.737 75.1861 56.0671 75.4214 56.5079C75.5046 56.6622 75.5654 56.8274 75.602 56.9986C75.6888 57.4002 75.6414 57.8189 75.4669 58.1914C75.2924 58.5638 75.0003 58.8696 74.6349 59.0625V59.0625Z" stroke="#3F3D56" stroke-width="0.956427" stroke-miterlimit="10"/>
<path opacity="0.3" d="M71.9132 54.0171C71.7635 53.7374 71.5453 53.4996 71.2787 53.3256C71.012 53.1516 70.7056 53.047 70.3875 53.0215L70.3629 53.9586L69.9381 53.0377C69.5395 53.0997 69.1711 53.2858 68.886 53.5692C68.6009 53.8526 68.414 54.2185 68.3521 54.6143C68.2902 55.01 68.3567 55.415 68.5418 55.7708C68.727 56.1266 69.0213 56.4148 69.3822 56.5937C69.7431 56.7727 70.152 56.8332 70.5499 56.7665C70.9477 56.6998 71.3139 56.5093 71.5955 56.2226C71.8772 55.9358 72.0597 55.5677 72.1168 55.1712C72.1739 54.7748 72.1026 54.3706 71.9132 54.0171Z" fill="#FF6584"/>
<path opacity="0.3" d="M71.7623 53.7016C71.6126 53.4219 71.3944 53.1842 71.1278 53.0102C70.8612 52.8362 70.5547 52.7316 70.2367 52.7061L70.212 53.6431L69.7872 52.7223C69.3886 52.7843 69.0202 52.9704 68.7351 53.2538C68.4501 53.5372 68.2631 53.9031 68.2012 54.2988C68.1394 54.6945 68.2058 55.0995 68.391 55.4553C68.5761 55.8111 68.8704 56.0993 69.2313 56.2783C69.5923 56.4573 70.0011 56.5178 70.399 56.451C70.7968 56.3843 71.163 56.1938 71.4446 55.9071C71.7263 55.6204 71.9088 55.2522 71.9659 54.8558C72.023 54.4594 71.9517 54.0552 71.7623 53.7016V53.7016Z" stroke="#3F3D56" stroke-width="0.956427" stroke-miterlimit="10"/>
<path opacity="0.3" d="M71.9112 64.1035C71.4986 64.3213 71.0196 64.3807 70.5656 64.2704C70.1116 64.1602 69.7144 63.888 69.4496 63.5057C69.1848 63.1235 69.071 62.6579 69.1299 62.1977C69.1888 61.7375 69.4162 61.3149 69.7688 61.0104L70.0952 61.7181L70.1199 60.77C70.1213 60.7691 70.1229 60.7682 70.1244 60.7675C70.3451 60.6509 70.5868 60.5786 70.8357 60.5547C71.0846 60.5308 71.3358 60.5558 71.5749 60.6283C71.8141 60.7008 72.0365 60.8194 72.2294 60.9772C72.4224 61.1351 72.5821 61.3291 72.6995 61.5482C72.8168 61.7674 72.8896 62.0073 72.9135 62.2543C72.9374 62.5014 72.912 62.7507 72.8388 62.988C72.7656 63.2253 72.646 63.4459 72.4869 63.6374C72.3277 63.8288 72.1321 63.9872 71.9112 64.1035V64.1035Z" fill="#FF6584"/>
<path opacity="0.3" d="M71.7736 63.7811C71.3609 63.9989 70.8819 64.0583 70.4279 63.948C69.9739 63.8378 69.5767 63.5656 69.3119 63.1833C69.0471 62.8011 68.9333 62.3355 68.9922 61.8753C69.0511 61.4151 69.2785 60.9925 69.6311 60.688L69.9575 61.3957L69.9822 60.4476C69.9837 60.4466 69.9852 60.4458 69.9868 60.4451C70.2075 60.3285 70.4492 60.2562 70.698 60.2324C70.9469 60.2085 71.198 60.2336 71.4371 60.3061C71.6762 60.3786 71.8986 60.4972 72.0915 60.655C72.2845 60.8128 72.4442 61.0069 72.5615 61.226C72.6789 61.4451 72.7516 61.685 72.7755 61.932C72.7994 62.179 72.7741 62.4283 72.7009 62.6656C72.6277 62.9029 72.5082 63.1235 72.3491 63.3149C72.19 63.5063 71.9944 63.6648 71.7736 63.7811V63.7811Z" stroke="#3F3D56" stroke-width="0.956427" stroke-miterlimit="10"/>
<path opacity="0.3" d="M74.3165 66.9345C74.3019 67.3674 74.1378 67.7823 73.8517 68.1094C73.5656 68.4365 73.1748 68.656 72.745 68.7311C72.3152 68.8062 71.8724 68.7324 71.4909 68.5219C71.1094 68.3115 70.8124 67.9772 70.6498 67.5753C70.4871 67.1733 70.4686 66.728 70.5975 66.3142C70.7263 65.9003 70.9946 65.543 71.3574 65.3021C71.7202 65.0613 72.1554 64.9516 72.59 64.9914C73.0246 65.0312 73.4322 65.2181 73.7444 65.5208L73.0836 66.8931L74.136 66.0662C74.2653 66.3371 74.3272 66.6349 74.3165 66.9345Z" fill="#FF6584"/>
<path opacity="0.3" d="M74.2031 66.6972C74.1886 67.1301 74.0245 67.545 73.7384 67.8721C73.4523 68.1992 73.0615 68.4187 72.6317 68.4938C72.2019 68.5689 71.7591 68.4951 71.3776 68.2846C70.9961 68.0742 70.6991 67.7399 70.5365 67.338C70.3738 66.936 70.3554 66.4907 70.4842 66.0769C70.613 65.663 70.8813 65.3057 71.2441 65.0648C71.6069 64.824 72.0421 64.7143 72.4767 64.7541C72.9112 64.7939 73.3188 64.9808 73.6311 65.2835L72.9703 66.6558L74.0226 65.8289C74.152 66.0998 74.2139 66.3976 74.2031 66.6972V66.6972Z" stroke="#3F3D56" stroke-width="0.956427" stroke-miterlimit="10"/>
</g>
<g opacity="0.3">
<path opacity="0.3" d="M7.07051 59.2091C6.81031 59.3466 6.5215 59.4222 6.22682 59.4301C5.93214 59.4379 5.63966 59.3777 5.37243 59.2542C5.10519 59.1307 4.87051 58.9473 4.68688 58.7184C4.50325 58.4895 4.37569 58.2214 4.31426 57.9353C4.25282 57.6491 4.25919 57.3527 4.33286 57.0694C4.40653 56.7861 4.54549 56.5237 4.73878 56.3028C4.93208 56.0819 5.17442 55.9085 5.44672 55.7965C5.71901 55.6844 6.01382 55.6366 6.30789 55.6569L6.39803 56.6263L6.73928 55.7367C7.21966 55.8835 7.62167 56.2136 7.85698 56.6544C7.94023 56.8087 8.00102 56.9739 8.03755 57.1451C8.12438 57.5467 8.07694 57.9655 7.90244 58.3379C7.72794 58.7103 7.43587 59.0162 7.07051 59.2091Z" fill="#FF6584"/>
<path opacity="0.3" d="M6.39212 70.6935C6.43734 69.852 5.63182 69.2247 4.87111 68.8503C4.11041 68.4759 3.23408 68.1262 2.88329 67.3587C2.37914 66.2557 3.24167 65.0596 3.90036 64.04C4.38903 63.2834 4.78562 62.4719 5.08184 61.6226C5.20056 61.2821 5.30395 60.929 5.29659 60.5688C5.286 60.05 5.0485 59.5656 4.81276 59.1024C4.02745 57.5594 3.20575 56.0353 2.34766 54.5303" stroke="#3F3D56" stroke-width="0.956427" stroke-miterlimit="10"/>
<path opacity="0.3" d="M6.95771 58.9727C6.69752 59.1102 6.4087 59.1859 6.11402 59.1937C5.81935 59.2016 5.52687 59.1414 5.25963 59.0179C4.9924 58.8944 4.75772 58.7109 4.57409 58.4821C4.39046 58.2532 4.2629 57.9851 4.20146 57.6989C4.14003 57.4128 4.1464 57.1164 4.22007 56.8331C4.29374 56.5498 4.4327 56.2873 4.62599 56.0664C4.81928 55.8455 5.06163 55.6722 5.33392 55.5601C5.60622 55.448 5.90102 55.4003 6.19509 55.4206L6.28523 56.39L6.62649 55.5004C7.10687 55.6472 7.50888 55.9772 7.74419 56.418C7.82743 56.5723 7.88822 56.7376 7.92475 56.9088C8.01158 57.3104 7.96415 57.7291 7.78965 58.1016C7.61514 58.474 7.32308 58.7799 6.95771 58.9727Z" stroke="#3F3D56" stroke-width="0.956427" stroke-miterlimit="10"/>
<path opacity="0.3" d="M4.23593 53.9277C4.08624 53.648 3.86802 53.4102 3.60141 53.2362C3.33479 53.0622 3.02834 52.9577 2.71029 52.9321L2.68566 53.8692L2.26087 52.9483C1.86227 53.0103 1.49383 53.1965 1.20876 53.4798C0.92368 53.7632 0.736713 54.1292 0.67485 54.5249C0.612988 54.9206 0.67943 55.3256 0.864585 55.6814C1.04974 56.0372 1.34403 56.3253 1.70496 56.5043C2.06589 56.6833 2.47478 56.7438 2.87261 56.6771C3.27043 56.6103 3.63661 56.4199 3.91826 56.1331C4.19991 55.8464 4.38246 55.4783 4.43956 55.0818C4.49666 54.6854 4.42535 54.2813 4.23593 53.9277Z" fill="#FF6584"/>
<path opacity="0.3" d="M4.08457 53.6108C3.93487 53.3311 3.71666 53.0933 3.45004 52.9193C3.18342 52.7454 2.87697 52.6408 2.55892 52.6152L2.53429 53.5523L2.1095 52.6315C1.7109 52.6935 1.34247 52.8796 1.05739 53.163C0.772313 53.4463 0.585346 53.8123 0.523483 54.208C0.461621 54.6037 0.528063 55.0087 0.713218 55.3645C0.898373 55.7203 1.19266 56.0085 1.55359 56.1875C1.91452 56.3664 2.32341 56.4269 2.72124 56.3602C3.11907 56.2935 3.48524 56.103 3.76689 55.8163C4.04854 55.5296 4.23109 55.1614 4.28819 54.765C4.34529 54.3686 4.27398 53.9644 4.08457 53.6108V53.6108Z" stroke="#3F3D56" stroke-width="0.956427" stroke-miterlimit="10"/>
<path opacity="0.3" d="M4.23403 64.0128C3.82134 64.2305 3.34236 64.2899 2.88837 64.1797C2.43439 64.0694 2.03715 63.7972 1.77237 63.415C1.50759 63.0327 1.39379 62.5671 1.45266 62.1069C1.51153 61.6467 1.73895 61.2241 2.09158 60.9196L2.41799 61.6273L2.44266 60.6792C2.44411 60.6782 2.44563 60.6774 2.4472 60.6767C2.66791 60.5601 2.90962 60.4877 3.1585 60.4638C3.40739 60.44 3.65858 60.465 3.89771 60.5375C4.13685 60.61 4.35925 60.7285 4.55221 60.8864C4.74516 61.0442 4.90489 61.2383 5.02226 61.4574C5.13964 61.6766 5.21236 61.9165 5.23626 62.1635C5.26017 62.4106 5.2348 62.6599 5.1616 62.8972C5.0884 63.1345 4.9688 63.3552 4.80965 63.5466C4.65049 63.738 4.45489 63.8964 4.23403 64.0128V64.0128Z" fill="#FF6584"/>
<path opacity="0.3" d="M4.09634 63.6912C3.68365 63.909 3.20466 63.9684 2.75068 63.8581C2.29669 63.7479 1.89945 63.4757 1.63467 63.0934C1.3699 62.7112 1.2561 62.2456 1.31497 61.7854C1.37384 61.3252 1.60126 60.9026 1.95388 60.5982L2.2803 61.3058L2.30497 60.3577C2.30642 60.3568 2.30794 60.356 2.30951 60.3552C2.53022 60.2387 2.77191 60.1664 3.02076 60.1425C3.26962 60.1187 3.52078 60.1437 3.75988 60.2162C3.99899 60.2888 4.22135 60.4073 4.41428 60.5651C4.60721 60.723 4.76691 60.917 4.88427 61.1361C5.00163 61.3552 5.07434 61.5951 5.09826 61.8421C5.12217 62.0891 5.09682 62.3384 5.02365 62.5757C4.95048 62.813 4.83093 63.0336 4.67181 63.225C4.5127 63.4164 4.31715 63.5748 4.09634 63.6912V63.6912Z" stroke="#3F3D56" stroke-width="0.956427" stroke-miterlimit="10"/>
<path opacity="0.3" d="M6.63917 66.8447C6.62462 67.2776 6.46053 67.6924 6.17441 68.0195C5.8883 68.3466 5.49756 68.5662 5.06772 68.6413C4.63789 68.7164 4.1951 68.6425 3.81363 68.4321C3.43215 68.2216 3.13517 67.8874 2.97251 67.4854C2.80985 67.0835 2.79139 66.6382 2.92023 66.2243C3.04907 65.8104 3.31737 65.4531 3.68015 65.2123C4.04292 64.9714 4.47809 64.8617 4.91269 64.9015C5.34729 64.9414 5.75487 65.1283 6.0671 65.431L5.40634 66.8033L6.45868 65.9763C6.58806 66.2472 6.64996 66.545 6.63917 66.8447Z" fill="#FF6584"/>
<path opacity="0.3" d="M6.52589 66.6064C6.51134 67.0393 6.34725 67.4541 6.06113 67.7813C5.77501 68.1084 5.38427 68.3279 4.95444 68.403C4.52461 68.4781 4.08182 68.4043 3.70034 68.1938C3.31887 67.9834 3.02189 67.6491 2.85923 67.2472C2.69657 66.8452 2.67811 66.3999 2.80695 65.9861C2.93579 65.5722 3.20409 65.2149 3.56686 64.974C3.92963 64.7332 4.36481 64.6235 4.79941 64.6633C5.234 64.7031 5.64159 64.89 5.95382 65.1927L5.29305 66.565L6.3454 65.738C6.47478 66.009 6.53668 66.3068 6.52589 66.6064V66.6064Z" stroke="#3F3D56" stroke-width="0.956427" stroke-miterlimit="10"/>
</g>
<g opacity="0.3">
<path opacity="0.3" d="M6.55908 50.8273C7.00603 51.0635 7.50214 51.1935 8.00832 51.2069C8.51449 51.2204 9.0169 51.1169 9.47594 50.9048C9.93498 50.6926 10.3381 50.3776 10.6535 49.9844C10.969 49.5913 11.1881 49.1308 11.2936 48.6392C11.3991 48.1477 11.3882 47.6385 11.2616 47.1519C11.1351 46.6653 10.8964 46.2145 10.5644 45.835C10.2323 45.4556 9.81606 45.1579 9.34832 44.9653C8.88059 44.7728 8.3742 44.6907 7.86906 44.7256L7.71423 46.3908L7.12803 44.8627C6.30288 45.1148 5.61232 45.6818 5.20813 46.439C5.06513 46.704 4.96071 46.9879 4.89796 47.282C4.74881 47.9718 4.83029 48.6911 5.13004 49.3309C5.42979 49.9706 5.93148 50.496 6.55908 50.8273Z" fill="#57B894"/>
<path opacity="0.3" d="M7.72383 70.5582C7.64614 69.1127 9.02982 68.0352 10.3365 67.3921C11.6432 66.7489 13.1485 66.1482 13.7511 64.8299C14.6171 62.9352 13.1355 60.8805 12.004 59.1291C11.1646 57.8295 10.4834 56.4356 9.97454 54.9768C9.77061 54.3918 9.59302 53.7854 9.60565 53.1665C9.62385 52.2753 10.0318 51.4433 10.4367 50.6477C11.7857 47.9972 13.1972 45.3793 14.6711 42.7939" stroke="#3F3D56" stroke-width="0.956427" stroke-miterlimit="10"/>
<path opacity="0.3" d="M6.75342 50.42C7.20036 50.6562 7.69647 50.7862 8.20265 50.7996C8.70883 50.8131 9.21124 50.7097 9.67028 50.4975C10.1293 50.2854 10.5324 49.9703 10.8479 49.5772C11.1633 49.184 11.3824 48.7235 11.4879 48.232C11.5935 47.7404 11.5825 47.2313 11.456 46.7447C11.3294 46.258 11.0907 45.8072 10.7587 45.4278C10.4267 45.0483 10.0104 44.7506 9.54266 44.5581C9.07493 44.3656 8.56854 44.2835 8.0634 44.3184L7.90856 45.9835L7.32237 44.4555C6.49721 44.7076 5.80666 45.2745 5.40246 46.0318C5.25947 46.2968 5.15504 46.5806 5.0923 46.8747C4.94315 47.5646 5.02462 48.2839 5.32438 48.9236C5.62413 49.5634 6.12582 50.0887 6.75342 50.42V50.42Z" stroke="#3F3D56" stroke-width="0.956427" stroke-miterlimit="10"/>
<path opacity="0.3" d="M11.4281 41.7541C11.6852 41.2737 12.0601 40.8652 12.518 40.5663C12.976 40.2675 13.5024 40.0878 14.0487 40.0439L14.0911 41.6536L14.8207 40.0718C15.5054 40.1783 16.1383 40.498 16.628 40.9848C17.1177 41.4715 17.4388 42.1002 17.5451 42.7799C17.6513 43.4597 17.5372 44.1553 17.2192 44.7665C16.9011 45.3776 16.3956 45.8727 15.7756 46.1801C15.1557 46.4875 14.4533 46.5914 13.7699 46.4768C13.0866 46.3622 12.4576 46.035 11.9738 45.5425C11.49 45.05 11.1764 44.4176 11.0783 43.7366C10.9802 43.0557 11.1027 42.3614 11.4281 41.7541H11.4281Z" fill="#57B894"/>
<path opacity="0.3" d="M11.6869 41.2121C11.944 40.7317 12.3188 40.3232 12.7768 40.0243C13.2348 39.7255 13.7612 39.5458 14.3075 39.502L14.3498 41.1116L15.0795 39.5298C15.7642 39.6363 16.3971 39.956 16.8868 40.4428C17.3764 40.9295 17.6976 41.5582 17.8039 42.2379C17.9101 42.9176 17.796 43.6133 17.478 44.2244C17.1599 44.8356 16.6544 45.3306 16.0344 45.6381C15.4144 45.9455 14.7121 46.0494 14.0287 45.9348C13.3454 45.8202 12.7164 45.493 12.2326 45.0005C11.7488 44.5079 11.4352 43.8756 11.3371 43.1946C11.239 42.5137 11.3615 41.8194 11.6869 41.2121H11.6869Z" stroke="#3F3D56" stroke-width="0.956427" stroke-miterlimit="10"/>
<path opacity="0.3" d="M11.4315 59.0798C12.1404 59.4539 12.9631 59.5559 13.743 59.3665C14.5228 59.1772 15.2051 58.7096 15.66 58.053C16.1148 57.3963 16.3103 56.5966 16.2091 55.8061C16.108 55.0156 15.7174 54.2897 15.1116 53.7667L14.551 54.9823L14.5086 53.3537C14.5061 53.3521 14.5035 53.3507 14.5008 53.3494C14.1217 53.1494 13.7066 53.0255 13.2792 52.9846C12.8519 52.9438 12.4206 52.987 12.01 53.1116C11.5995 53.2362 11.2176 53.4399 10.8864 53.7109C10.5551 53.982 10.2809 54.3152 10.0793 54.6915C9.87781 55.0677 9.75292 55.4797 9.71181 55.9039C9.67069 56.328 9.71415 56.7561 9.8397 57.1636C9.96526 57.5711 10.1705 57.9501 10.4436 58.2788C10.7167 58.6076 11.0524 58.8798 11.4315 59.0798Z" fill="#57B894"/>
<path opacity="0.3" d="M11.6673 58.5261C12.3762 58.9001 13.199 59.0022 13.9788 58.8128C14.7586 58.6234 15.441 58.1559 15.8958 57.4992C16.3506 56.8426 16.5461 56.0428 16.445 55.2524C16.3438 54.4619 15.9532 53.736 15.3475 53.213L14.7868 54.4285L14.7444 52.8C14.7419 52.7984 14.7393 52.7969 14.7366 52.7957C14.3575 52.5957 13.9424 52.4717 13.5151 52.4309C13.0877 52.3901 12.6564 52.4333 12.2459 52.5579C11.8353 52.6825 11.4535 52.8862 11.1222 53.1572C10.7909 53.4283 10.5167 53.7615 10.3152 54.1377C10.1137 54.514 9.98876 54.926 9.94765 55.3501C9.90653 55.7743 9.94999 56.2024 10.0755 56.6099C10.2011 57.0174 10.4063 57.3963 10.6794 57.7251C10.9525 58.0539 11.2882 58.3261 11.6673 58.5261V58.5261Z" stroke="#3F3D56" stroke-width="0.956427" stroke-miterlimit="10"/>
<path opacity="0.3" d="M7.30041 63.9423C7.3254 64.686 7.60727 65.3986 8.09874 65.9605C8.59021 66.5224 9.2614 66.8995 9.99974 67.0285C10.7381 67.1575 11.4987 67.0306 12.1539 66.6691C12.8092 66.3076 13.3193 65.7335 13.5987 65.043C13.8782 64.3525 13.9099 63.5877 13.6886 62.8768C13.4672 62.1658 13.0064 61.552 12.3832 61.1383C11.7601 60.7246 11.0126 60.5362 10.266 60.6046C9.51952 60.6729 8.81939 60.994 8.28307 61.5139L9.41809 63.8713L7.61045 62.4507C7.38821 62.9161 7.28188 63.4277 7.30041 63.9423Z" fill="#57B894"/>
<path opacity="0.3" d="M7.49425 63.5351C7.51925 64.2788 7.80112 64.9913 8.29259 65.5532C8.78406 66.1151 9.45525 66.4922 10.1936 66.6213C10.9319 66.7503 11.6925 66.6234 12.3478 66.2619C13.0031 65.9004 13.5132 65.3263 13.7926 64.6358C14.072 63.9453 14.1037 63.1805 13.8824 62.4695C13.6611 61.7586 13.2002 61.1448 12.5771 60.7311C11.9539 60.3174 11.2064 60.1289 10.4599 60.1973C9.71337 60.2657 9.01324 60.5868 8.47692 61.1067L9.61194 63.464L7.80429 62.0435C7.58206 62.5089 7.47572 63.0204 7.49425 63.5351V63.5351Z" stroke="#3F3D56" stroke-width="0.956427" stroke-miterlimit="10"/>
</g>
<g opacity="0.3">
<path opacity="0.3" d="M84.838 70.7472C84.7375 68.8758 86.5287 67.481 88.2202 66.6485C89.9117 65.816 91.8604 65.0382 92.6404 63.3317C93.7614 60.879 91.8435 58.2191 90.3788 55.9519C89.2922 54.2695 88.4103 52.4651 87.7516 50.5766C87.4876 49.8194 87.2577 49.0343 87.2741 48.2332C87.2976 47.0795 87.8258 46.0024 88.3499 44.9725C90.0962 41.5414 91.9234 38.1524 93.8314 34.8057" stroke="#3F3D56" stroke-width="0.956427" stroke-miterlimit="10"/>
<path opacity="0.3" d="M96.0339 30.9915L94.1924 31.5137L94.3203 30.6676C94.1581 30.6572 93.9936 30.6514 93.8266 30.6514C91.4274 30.6514 89.4824 31.7486 89.4824 33.1022C89.4824 34.4558 91.4274 35.553 93.8266 35.553C96.2258 35.553 98.1707 34.4558 98.1707 33.1022C98.1707 32.2034 97.3126 31.4181 96.0339 30.9915Z" fill="#FF6584"/>
<path opacity="0.3" d="M96.0339 30.7181L94.1924 31.2403L94.3203 30.3941C94.1581 30.3838 93.9936 30.3779 93.8266 30.3779C91.4274 30.3779 89.4824 31.4752 89.4824 32.8288C89.4824 34.1823 91.4274 35.2796 93.8266 35.2796C96.2258 35.2796 98.1707 34.1823 98.1707 32.8288C98.1707 31.93 97.3126 31.1446 96.0339 30.7181Z" stroke="#3F3D56" stroke-width="0.956427" stroke-miterlimit="10"/>
<path opacity="0.3" d="M90.6379 62.1253L88.7964 62.6475L88.9242 61.8014C88.7621 61.791 88.5976 61.7852 88.4306 61.7852C86.0314 61.7852 84.0864 62.8824 84.0864 64.236C84.0864 65.5896 86.0314 66.6868 88.4306 66.6868C90.8298 66.6868 92.7747 65.5896 92.7747 64.236C92.7747 63.3372 91.9166 62.5518 90.6379 62.1253Z" fill="#FF6584"/>
<path opacity="0.3" d="M90.6379 61.8528L88.7964 62.375L88.9242 61.5289C88.7621 61.5185 88.5976 61.5127 88.4306 61.5127C86.0314 61.5127 84.0864 62.61 84.0864 63.9635C84.0864 65.3171 86.0314 66.4144 88.4306 66.4144C90.8298 66.4144 92.7747 65.3171 92.7747 63.9635C92.7747 63.0647 91.9166 62.2794 90.6379 61.8528Z" stroke="#3F3D56" stroke-width="0.956427" stroke-miterlimit="10"/>
<path opacity="0.3" d="M97.0398 55.5901L95.1983 56.1123L95.3261 55.2662C95.164 55.2559 94.9995 55.25 94.8324 55.25C92.4332 55.25 90.4883 56.3473 90.4883 57.7008C90.4883 59.0544 92.4332 60.1517 94.8324 60.1517C97.2316 60.1517 99.1766 59.0544 99.1766 57.7008C99.1766 56.802 98.3185 56.0167 97.0398 55.5901Z" fill="#FF6584"/>
<path opacity="0.3" d="M97.0398 55.3167L95.1983 55.8389L95.3261 54.9928C95.164 54.9824 94.9995 54.9766 94.8324 54.9766C92.4332 54.9766 90.4883 56.0738 90.4883 57.4274C90.4883 58.781 92.4332 59.8782 94.8324 59.8782C97.2316 59.8782 99.1766 58.781 99.1766 57.4274C99.1766 56.5286 98.3185 55.7432 97.0398 55.3167Z" stroke="#3F3D56" stroke-width="0.956427" stroke-miterlimit="10"/>
<path opacity="0.3" d="M89.47 38.9121L87.5897 38.551L88.0893 37.8538C87.9495 37.7718 87.8054 37.6927 87.6564 37.6177C85.5167 36.5406 83.2821 36.6459 82.6652 37.8531C82.0483 39.0603 83.2828 40.9121 85.4225 41.9892C87.5622 43.0664 89.7968 42.961 90.4137 41.7539C90.8233 40.9523 90.416 39.8666 89.47 38.9121Z" fill="#FF6584"/>
<path opacity="0.3" d="M89.595 38.6699L87.7147 38.3088L88.2144 37.6116C88.0745 37.5296 87.9304 37.4505 87.7815 37.3755C85.6418 36.2984 83.4071 36.4038 82.7902 37.6109C82.1733 38.8181 83.4078 40.6699 85.5475 41.747C87.6872 42.8242 89.9219 42.7188 90.5388 41.5116C90.9484 40.7101 90.541 39.6244 89.595 38.6699Z" stroke="#3F3D56" stroke-width="0.956427" stroke-miterlimit="10"/>
<path opacity="0.3" d="M93.5857 48.4433L91.7054 48.0823L92.2051 47.3851C92.0652 47.303 91.9211 47.224 91.7722 47.149C89.6325 46.0718 87.3978 46.1772 86.7809 47.3843C86.164 48.5915 87.3985 50.4433 89.5382 51.5204C91.6779 52.5976 93.9126 52.4922 94.5294 51.2851C94.9391 50.4835 94.5317 49.3978 93.5857 48.4433Z" fill="#FF6584"/>
<path opacity="0.3" d="M93.7097 48.2002L91.8294 47.8391L92.3291 47.1419C92.1892 47.0599 92.0451 46.9808 91.8962 46.9058C89.7565 45.8286 87.5218 45.934 86.9049 47.1412C86.2881 48.3484 87.5225 50.2002 89.6622 51.2774C91.8019 52.3545 94.0366 52.2491 94.6534 51.042C95.0631 50.2404 94.6557 49.1547 93.7097 48.2002Z" stroke="#3F3D56" stroke-width="0.956427" stroke-miterlimit="10"/>
</g>
<path d="M1.27344 70.7256H97.4843" stroke="#3F3D56" stroke-width="0.956427" stroke-miterlimit="10"/>
<path d="M49.3952 0.148438C39.7479 0.148438 31.9272 5.30571 31.9272 11.6675C31.9272 14.5081 33.4874 17.1081 36.0722 19.1165V27.4769L41.6095 21.981C44.1236 22.7914 46.7519 23.1984 49.3952 23.1866C59.0425 23.1866 66.8632 18.0294 66.8632 11.6675C66.8632 5.30571 59.0425 0.148438 49.3952 0.148438Z" stroke="#3F3D56" stroke-width="0.956427" stroke-miterlimit="10"/>
<path d="M41.8052 29.9541C41.8052 29.9541 41.4539 25.2575 41.6193 24.3985C41.7847 23.5395 41.9401 21.0944 41.0305 21.8981C40.121 22.7019 40.4441 24.5255 40.4441 24.5255C40.4441 24.5255 39.581 29.4891 40.3793 30.1625C41.1776 30.8359 41.8052 29.9541 41.8052 29.9541Z" fill="#A0616A"/>
<path d="M42.4603 34.5986C42.4603 34.5986 39.7529 32.2019 39.8993 30.1684C39.8993 30.1684 41.5091 28.9337 41.875 29.5874C42.2408 30.241 44.9002 32.791 44.4486 33.6585C43.997 34.5259 42.4603 34.5986 42.4603 34.5986Z" fill="#FA8A3C"/>
<path d="M52.0459 30.3146C52.0459 30.3146 53.6557 25.8844 53.7289 25.0129C53.802 24.1414 54.3143 21.7448 54.9728 22.7615C55.6314 23.7783 54.8265 25.4487 54.8265 25.4487C54.8265 25.4487 54.3143 30.4599 53.363 30.8956C52.4118 31.3314 52.0459 30.3146 52.0459 30.3146Z" fill="#A0616A"/>
<path d="M47.6559 52.5371H51.9731L52.1926 54.7159L51.1682 54.9338C51.1682 54.9338 48.7535 54.2075 47.3632 54.4254C45.9729 54.6433 47.6559 52.5371 47.6559 52.5371Z" fill="#A0616A"/>
<path d="M50.5093 52.2478C50.5093 52.2478 52.5581 50.8679 52.924 52.0299C53.2899 53.1919 54.607 57.4043 54.168 57.84C53.7289 58.2758 53.2167 57.4769 53.2167 57.4769C53.2167 57.4769 52.3386 55.6612 51.6801 55.5886C51.0215 55.516 50.6556 54.935 50.6556 54.935C50.6556 54.935 52.5581 53.4824 50.5093 52.2478Z" fill="#2F2E41"/>
<path d="M46.5581 63.5039C46.5581 63.5039 47.363 66.772 47.2167 67.2804C47.0703 67.7888 49.5582 67.4983 49.5582 67.4983L49.7046 66.5542C49.7046 66.5542 48.2411 64.2301 48.2411 63.2134C48.2411 62.1966 46.5581 63.5039 46.5581 63.5039Z" fill="#A0616A"/>
<path d="M49.5581 65.9004C49.5581 65.9004 51.5338 67.3529 50.5094 68.0792C49.4849 68.8054 45.6799 70.6937 45.6799 70.6937C45.6799 70.6937 44.2897 70.9116 45.3141 69.677C46.3385 68.4423 46.6312 68.2244 46.7044 67.5708C46.768 67.1356 46.9216 66.7181 47.1556 66.3446C47.1556 66.3446 48.1678 68.3697 49.5581 65.9004Z" fill="#2F2E41"/>
<path d="M43.5579 48.4699C43.5579 48.4699 42.753 56.0231 43.9969 58.4197C45.2409 60.8164 46.7043 64.0846 46.6311 64.2298C46.558 64.3751 48.7531 64.0119 48.7531 63.3583C48.7531 62.7047 46.3384 56.1683 46.3384 56.1683C46.3384 56.1683 47.3629 47.671 48.1678 47.09C48.9727 46.509 43.5579 48.4699 43.5579 48.4699Z" fill="#2F2E41"/>
<path opacity="0.1" d="M43.5579 48.4699C43.5579 48.4699 42.753 56.0231 43.9969 58.4197C45.2409 60.8164 46.7043 64.0846 46.6311 64.2298C46.558 64.3751 48.7531 64.0119 48.7531 63.3583C48.7531 62.7047 46.3384 56.1683 46.3384 56.1683C46.3384 56.1683 47.3629 47.671 48.1678 47.09C48.9727 46.509 43.5579 48.4699 43.5579 48.4699Z" fill="black"/>
<path d="M45.2117 27.1543C44.6887 27.2483 44.1705 27.5335 43.9104 28.0206C43.6678 28.4749 43.6523 29.0823 43.2663 29.4086C43.0359 29.6033 42.723 29.6484 42.4658 29.8014C42.283 29.9175 42.1342 30.0794 42.0347 30.2707C41.9351 30.4621 41.8882 30.6762 41.8986 30.8913C41.9192 31.292 42.1322 31.6653 42.1276 32.0665C42.1218 32.5882 41.7583 33.0189 41.4165 33.3965L42.5501 33.6053C42.7214 33.6507 42.9011 33.6554 43.0746 33.6191C43.2704 33.5615 43.4294 33.4015 43.6274 33.3527C43.9112 33.2827 44.1921 33.4541 44.4453 33.6061C45.1662 34.0389 45.9392 34.3656 46.7093 34.6908C46.9359 34.7865 47.1928 34.8823 47.4164 34.779C47.597 34.6957 47.7093 34.5008 47.8791 34.3954C48.1833 34.2066 48.5652 34.3487 48.907 34.4419C49.6799 34.6501 50.5021 34.5806 51.2284 34.2457C51.0718 34.0642 50.8666 33.9372 50.6979 33.7682C50.5291 33.5992 50.3926 33.3599 50.4372 33.1191C50.4827 32.8737 50.6953 32.7098 50.8402 32.5117C50.9473 32.3547 51.0218 32.1782 51.0593 31.9923C51.0969 31.8065 51.0968 31.6151 51.059 31.4293C50.983 31.0597 50.8018 30.7195 50.5371 30.4489C50.3859 30.3084 50.2433 30.1592 50.1101 30.002C49.8434 29.6445 49.7774 29.1713 49.692 28.7257C49.6067 28.28 49.472 27.8057 49.1257 27.5344C48.574 27.1021 47.6781 27.2494 47.0331 27.2065C46.4182 27.1656 45.8253 27.1543 45.2117 27.1543Z" fill="#2F2E41"/>
<path d="M41.5822 43.3131L42.9725 46.7266C42.9725 46.7266 36.6064 53.6261 40.1919 54.5702C43.7774 55.5144 45.0213 53.844 47.2897 55.1512C47.2897 55.1512 48.3873 53.4808 48.2409 52.4641C48.2409 52.4641 45.0945 51.883 43.4115 51.9557C43.4115 51.9557 47.9482 48.0339 48.3873 47.8886C48.8263 47.7433 50.2898 45.4193 48.0214 43.531C45.753 41.6427 46.3384 40.626 46.3384 40.626L41.5822 43.3131Z" fill="#2F2E41"/>
<path d="M44.8754 31.475C44.8754 31.475 45.0949 33.7264 44.1436 34.0169C43.1924 34.3074 47.8755 34.2348 47.8755 34.2348C47.8755 34.2348 46.7779 33.5812 47.2901 32.2013C47.8023 30.8214 44.8754 31.475 44.8754 31.475Z" fill="#A0616A"/>
<path opacity="0.1" d="M44.8754 31.475C44.8754 31.475 45.0949 33.7264 44.1436 34.0169C43.1924 34.3074 47.8755 34.2348 47.8755 34.2348C47.8755 34.2348 46.7779 33.5812 47.2901 32.2013C47.8023 30.8214 44.8754 31.475 44.8754 31.475Z" fill="black"/>
<path d="M49.851 35.3971C49.851 35.3971 49.412 33.1457 48.5339 33.2909C47.6558 33.4362 45.8997 33.5814 45.6802 33.7267C45.4606 33.8719 44.2899 34.1696 44.2899 34.1696C44.2899 34.1696 44.7289 33.654 44.2899 33.5814C43.8508 33.5088 42.4606 33.8719 42.3142 34.1624C42.1679 34.4529 41.5825 35.034 41.5825 36.0507C41.5825 37.0675 41.1434 38.8105 41.2898 39.5368C41.4361 40.2631 41.2166 41.9335 40.7776 42.8776C40.3385 43.8218 40.7044 44.7659 41.4361 43.8217C42.1679 42.8776 41.802 43.8218 42.3874 43.8944C42.9728 43.967 45.607 41.2798 46.3387 41.9335C47.0704 42.5871 47.8022 43.0229 47.9485 42.6597C48.0949 42.2966 47.3631 41.643 47.3631 41.3525C47.3631 41.0619 46.1924 42.2966 47.4363 39.7547C48.6802 37.2127 47.5095 36.4865 49.851 35.3971Z" fill="#FA8A3C"/>
<path d="M49.2657 35.2523L49.8511 35.3975C49.8511 35.3975 51.9731 33.8724 52.5585 32.783C53.1439 31.6936 53.5829 30.8221 53.5829 30.8221C53.5829 30.8221 52.6317 29.6601 52.0463 30.0958C51.4609 30.5316 48.8267 33.5093 48.8267 33.5093L49.2657 35.2523Z" fill="#FA8A3C"/>
<path d="M46.5579 33.0009C47.8107 33.0009 48.8263 31.9929 48.8263 30.7495C48.8263 29.506 47.8107 28.498 46.5579 28.498C45.3051 28.498 44.2896 29.506 44.2896 30.7495C44.2896 31.9929 45.3051 33.0009 46.5579 33.0009Z" fill="#A0616A"/>
<path d="M44.5513 30.097C44.9389 29.7779 45.4339 29.6163 45.9367 29.6448C46.8063 29.6979 47.5717 30.3128 48.4426 30.3321C48.4078 30.1452 48.434 29.9521 48.5175 29.781C48.5851 29.6437 48.6917 29.5105 48.6773 29.3584C48.6534 29.2376 48.5868 29.1292 48.4894 29.053C47.986 28.5792 47.2899 28.335 46.5968 28.3049C46.1321 28.2847 45.2452 28.2957 44.8848 28.6449C44.5764 28.9437 44.6123 29.7097 44.5513 30.097Z" fill="#2F2E41"/>
<path d="M49.3953 18.5321C52.0218 18.5321 54.1509 16.4188 54.1509 13.8119C54.1509 11.2051 52.0218 9.0918 49.3953 9.0918C46.7688 9.0918 44.6396 11.2051 44.6396 13.8119C44.6396 16.4188 46.7688 18.5321 49.3953 18.5321Z" fill="#FA8A3C"/>
<path d="M48.2335 12.6261C48.4854 12.6261 48.6896 12.3607 48.6896 12.0333C48.6896 11.7058 48.4854 11.4404 48.2335 11.4404C47.9816 11.4404 47.7773 11.7058 47.7773 12.0333C47.7773 12.3607 47.9816 12.6261 48.2335 12.6261Z" fill="#444053"/>
<path d="M50.5899 12.6261C50.8418 12.6261 51.046 12.3607 51.046 12.0333C51.046 11.7058 50.8418 11.4404 50.5899 11.4404C50.338 11.4404 50.1338 11.7058 50.1338 12.0333C50.1338 12.3607 50.338 12.6261 50.5899 12.6261Z" fill="#444053"/>
<path d="M52.2459 13.8993C52.2459 14.7505 50.8135 16.1843 49.368 16.1843C47.9226 16.1843 46.5444 14.7182 46.5444 13.8669C46.5444 13.0157 47.8927 13.7942 49.3382 13.7942C50.7836 13.7942 52.2459 13.048 52.2459 13.8993Z" fill="#3F3D56"/>
<path d="M46.9999 14.043C46.9999 14.043 49.5982 14.6169 51.781 14.0591C51.781 14.0591 52.0482 14.0591 51.8657 14.3657C51.818 14.4452 51.7486 14.5096 51.6655 14.5515C51.2448 14.7648 49.6873 15.3954 47.1969 14.5912C47.1199 14.5671 47.0501 14.5244 46.9937 14.4671C46.9373 14.4097 46.8961 14.3394 46.8737 14.2624C46.8443 14.1572 46.857 14.0575 46.9999 14.043Z" fill="#F6F8FB"/>
</g>
<defs>
<clipPath id="clip0_314:6352">
<rect width="98.7666" height="70.7756" fill="white" transform="translate(0.455566 0.102539)"/>
</clipPath>
</defs>
</svg>
