<svg width="60" height="60" viewBox="0 0 60 60" fill="none" xmlns="http://www.w3.org/2000/svg">
<path d="M10.92 35.8804C5.53679 32.7424 5.02319 27.3604 8.48759 23.7172C10.1436 21.9604 14.07 21.6436 16.0884 20.2804C18.7212 18.4972 19.7316 15.796 21.5772 13.4776C26.1672 7.71164 28.3908 9.86444 34.6188 8.83004C39 8.10044 42.48 3.68564 47.3496 5.59004C53.2944 7.92044 51.12 14.7604 47.1732 17.8888C42.6444 21.478 47.01 27.5836 40.6452 33.5704C34.3848 39.4588 18.9372 40.6996 10.92 35.8804Z" fill="#FA8A3C" fill-opacity="0.3"/>
<path d="M29.9999 51.3076C42.8498 51.3076 53.2667 50.6994 53.2667 49.9492C53.2667 49.199 42.8498 48.5908 29.9999 48.5908C17.1501 48.5908 6.73315 49.199 6.73315 49.9492C6.73315 50.6994 17.1501 51.3076 29.9999 51.3076Z" fill="#C4C4C4"/>
<path d="M45.2723 22.9432C45.1955 22.9996 45.1367 23.0416 45.0695 23.086C45.0023 23.1304 44.9387 23.1712 44.8727 23.2144C44.7419 23.296 44.6087 23.3764 44.4755 23.4544C44.2055 23.6056 43.9307 23.7472 43.6463 23.8732C43.3622 24.0015 43.0714 24.1145 42.7751 24.2116C42.6275 24.2644 42.4739 24.3052 42.3215 24.3472L42.0899 24.4036L42.0323 24.418L41.9915 24.4264L41.9423 24.436C41.8727 24.449 41.802 24.4558 41.7311 24.4564C41.5848 24.4594 41.4391 24.4354 41.3015 24.3856C41.1763 24.34 41.0589 24.2752 40.9535 24.1936C40.7851 24.0599 40.6416 23.8974 40.5299 23.7136C40.3549 23.4202 40.2224 23.1034 40.1363 22.7728C39.9761 22.1749 39.8923 21.5592 39.8867 20.9404C39.8843 20.856 39.9129 20.7737 39.9671 20.7091C40.0213 20.6444 40.0974 20.6019 40.1809 20.5896C40.2643 20.5773 40.3494 20.5961 40.42 20.6424C40.4905 20.6887 40.5416 20.7593 40.5635 20.8408V20.8576C40.7055 21.3935 40.886 21.9184 41.1035 22.4284C41.1965 22.6527 41.3175 22.8644 41.4635 23.0584C41.5109 23.1215 41.5699 23.1749 41.6375 23.2156C41.6843 23.236 41.6783 23.2156 41.6771 23.2156C41.7612 23.1794 41.8474 23.1481 41.9351 23.122C42.0551 23.0728 42.1859 23.0284 42.3095 22.9744C42.5591 22.8736 42.8051 22.7536 43.0487 22.6324C43.2923 22.5112 43.5287 22.378 43.7687 22.2388C43.8887 22.1716 44.0087 22.1008 44.1203 22.0288L44.4515 21.8164L44.4791 21.7984C44.6307 21.6979 44.8156 21.6611 44.9941 21.6959C45.1725 21.7307 45.3302 21.8343 45.4329 21.9843C45.5356 22.1343 45.5752 22.3187 45.5432 22.4976C45.5111 22.6766 45.4099 22.8358 45.2615 22.9408L45.2723 22.9432Z" fill="#FFB573"/>
<path d="M40.6079 21.3988L40.6439 20.4004L39.5303 20.7532C39.5163 20.9397 39.562 21.1258 39.6608 21.2846C39.7596 21.4434 39.9064 21.5666 40.0799 21.6364L40.6079 21.3988Z" fill="#FFB573"/>
<path d="M40.0152 19.811L39.6072 20.1266C39.5699 20.1554 39.5404 20.1931 39.5215 20.2363C39.5027 20.2795 39.495 20.3268 39.4992 20.3738L39.5304 20.753L40.644 20.4002L40.4484 19.9262C40.4318 19.8861 40.4062 19.8504 40.3736 19.8218C40.3409 19.7932 40.3022 19.7726 40.2603 19.7614C40.2183 19.7503 40.1744 19.749 40.1319 19.7575C40.0894 19.7661 40.0495 19.7844 40.0152 19.811Z" fill="#FFB573"/>
<path d="M45.1259 21.2103C44.3471 21.3435 43.5287 22.1859 43.5287 22.1859C43.5287 22.1859 43.7279 23.1027 43.8887 24.0158C45.9479 23.7506 46.5983 20.9595 45.1259 21.2103Z" fill="#FA8A3C"/>
<path d="M44.2115 22.3351C44.3399 24.715 44.3399 27.1 44.2115 29.4799L49.0943 29.8399C49.5227 27.2767 49.4399 24.8467 49.4867 22.4191C49.4999 21.7219 49.2935 21.0811 48.5987 21.0151C48.3419 20.9911 47.7587 20.9839 47.5319 20.9887C46.8465 20.9966 46.1621 21.0447 45.4823 21.1327C45.3359 21.1579 45.1907 21.1867 45.0539 21.2191C44.804 21.275 44.582 21.418 44.4277 21.6224C44.2734 21.8268 44.1968 22.0794 44.2115 22.3351Z" fill="#FA8A3C"/>
<path opacity="0.2" d="M48.4176 22.4111C48.4176 22.4111 48.7608 23.5343 49.4652 23.7923C49.4652 23.3447 49.4724 22.8971 49.4808 22.4507L48.4176 22.4111Z" fill="black"/>
<path d="M44.2187 29.1396C44.2187 29.1396 40.6943 32.538 39.4859 35.0532C38.2295 37.6692 35.9591 42.642 35.9591 42.642L36.7055 43.0152C36.7055 43.0152 41.0351 37.3825 41.3243 35.8512C42.9035 33.1764 46.8899 31.9428 47.5727 29.646C46.1231 29.2152 44.2187 29.1396 44.2187 29.1396Z" fill="#FFB573"/>
<path d="M45.8195 29.4795C45.8195 29.4795 45.2867 34.2879 45.4475 36.9615C45.6251 39.8907 47.1275 45.1887 47.1275 45.1887L47.8475 45.1515C47.8475 45.1515 48.0647 40.6359 47.2379 37.4055C47.7179 35.2635 49.1267 32.1255 49.0859 29.8383C48.0077 29.6366 46.9158 29.5167 45.8195 29.4795Z" fill="#FFB573"/>
<path d="M48.3396 45.1128C48.1596 44.9436 47.9124 44.7529 47.874 44.2812C47.874 44.2812 47.0148 44.6761 47.0748 45.0013C47.1348 45.3265 47.1192 46.3681 46.5504 47.0209C46.4712 47.1121 46.7088 47.2177 46.9716 47.1193C47.418 46.9525 47.4576 46.7857 47.5716 46.4077C47.67 46.0837 48.1584 45.7453 48.3552 45.5605C48.5196 45.4021 48.5196 45.282 48.3396 45.1128Z" fill="#FFB573"/>
<path d="M36.4979 43.68C36.6011 43.4568 36.5699 43.1388 36.8327 42.804C36.8327 42.804 36.3527 42.2113 36.1067 42.4272C35.8607 42.6432 35.1467 42.8172 34.3259 42.5472C34.2059 42.5088 34.1411 42.8568 34.3955 42.9732C34.8179 43.1664 35.1299 43.3032 35.4899 43.4676C35.7971 43.608 35.8499 43.7076 36.0815 43.8408C36.2795 43.9476 36.3935 43.9092 36.4979 43.68Z" fill="#FFB573"/>
<path d="M45.888 21.1444C46.476 20.9044 46.4244 20.3908 46.2792 19.9132L47.5464 18.7744C47.4492 19.45 47.3328 20.5636 47.8236 20.986C47.8236 20.986 47.5464 21.904 46.2072 22.138C45.6828 21.9376 45.5436 21.2608 45.888 21.1444Z" fill="#FFB573"/>
<path opacity="0.2" d="M47.0015 19.2305L46.2815 19.9121C46.32 20.0293 46.3477 20.1498 46.3643 20.2721C46.5575 20.2889 47.0747 20.0081 47.0843 19.7081C47.0803 19.5457 47.0524 19.3847 47.0015 19.2305Z" fill="black"/>
<path d="M50.6579 16.7016L50.0759 15.7932L51.2087 15.5088C51.2087 15.5088 51.5688 16.4184 51.2087 16.6512L50.6579 16.7016Z" fill="#FFB573"/>
<path d="M48.5304 21.2292L48.5964 21.2016L48.678 21.1644L48.846 21.084C48.9576 21.0276 49.0692 20.964 49.1784 20.9016C49.3964 20.7739 49.606 20.6324 49.806 20.478C50.0021 20.3247 50.1863 20.1566 50.3568 19.9752C50.4396 19.884 50.5176 19.7904 50.5968 19.6944L50.6952 19.5612C50.7175 19.5293 50.7372 19.4956 50.754 19.4604C50.7697 19.4266 50.7829 19.3917 50.7936 19.356C50.8069 19.3115 50.8149 19.2656 50.8176 19.2192C50.832 19.0896 50.8476 18.96 50.8524 18.8304C50.8572 18.7008 50.862 18.5688 50.8644 18.438C50.8668 18.3072 50.8644 18.1752 50.8488 18.0444C50.8303 17.7806 50.7938 17.5184 50.7396 17.2596C50.712 17.13 50.6844 16.9992 50.646 16.8732C50.6292 16.8096 50.6076 16.7472 50.5872 16.6848L50.5284 16.5132L50.5104 16.464C50.4826 16.3863 50.4838 16.3012 50.5139 16.2244C50.5439 16.1476 50.6006 16.0842 50.6737 16.0459C50.7467 16.0076 50.8312 15.997 50.9114 16.0161C50.9917 16.0351 51.0623 16.0826 51.1104 16.1496C51.1692 16.23 51.21 16.2888 51.2544 16.3596C51.2988 16.4304 51.336 16.4952 51.3744 16.5648C51.4512 16.7028 51.5184 16.8444 51.582 16.9884C51.704 17.2781 51.7999 17.5781 51.8688 17.8848C51.94 18.1928 51.9849 18.5064 52.0032 18.822C52.014 18.9804 52.014 19.1376 52.0128 19.302C52.015 19.4 52.0081 19.498 51.9924 19.5948C51.975 19.7004 51.949 19.8043 51.9144 19.9056C51.8789 20.0049 51.8364 20.1015 51.7872 20.1948L51.7476 20.2644L51.7152 20.3196L51.6504 20.4252C51.5622 20.5658 51.466 20.7012 51.3624 20.8308C51.1584 21.0877 50.9306 21.3248 50.682 21.5388C50.4369 21.7505 50.1744 21.9412 49.8972 22.1088C49.758 22.1904 49.6164 22.2684 49.47 22.3404C49.3968 22.3764 49.3236 22.4112 49.2468 22.4448L49.1268 22.4928L48.9912 22.5432C48.8215 22.6044 48.6347 22.597 48.4704 22.5225C48.3062 22.4481 48.1774 22.3125 48.1116 22.1446C48.0458 21.9767 48.0481 21.7897 48.118 21.6235C48.1879 21.4572 48.3199 21.3248 48.486 21.2544L48.5304 21.2292Z" fill="#FFB573"/>
<path d="M47.9603 20.9858C48.5339 20.9858 49.6007 20.5322 49.6007 20.5322C49.6007 20.5322 50.2307 21.6938 50.3207 22.3034C49.9555 22.8446 49.4119 23.2404 48.7847 23.4218C48.0851 23.0546 47.7671 22.1378 47.9603 20.9858Z" fill="#FA8A3C"/>
<path d="M42.4919 34.9488C42.4919 34.9488 41.0927 34.3752 40.3031 33.3888C41.1911 31.6896 43.2575 29.28 43.8659 29.1012C43.9424 28.9039 44.0318 28.7119 44.1335 28.5264L48.0935 29.1156C47.8799 31.038 43.7315 33.9948 42.4919 34.9488Z" fill="#263238"/>
<path opacity="0.2" d="M45.426 30.9997C44.8836 31.2469 44.346 32.5885 44.184 33.6505C44.9871 33.0244 45.7524 32.3512 46.476 31.6345C46.038 31.2865 45.534 30.9517 45.426 30.9997Z" fill="black"/>
<path d="M45.2472 35.2911C45.2472 35.2911 46.2744 35.5767 48.0852 35.2599C48.4164 33.4431 49.7268 30.6099 49.3008 29.7723C49.3848 29.5838 49.4034 29.3726 49.3536 29.1723L44.4696 28.5723C44.0688 29.1795 45.204 33.4803 45.2472 35.2911Z" fill="#263238"/>
<path d="M50.16 14.957L50.778 14.837C50.8219 14.8291 50.8671 14.8367 50.9059 14.8587C50.9447 14.8806 50.9746 14.9154 50.9904 14.957L51.204 15.5126L50.0712 15.797L50.0088 15.1634C50.0031 15.1163 50.0156 15.0687 50.0436 15.0304C50.0717 14.9921 50.1133 14.9658 50.16 14.957Z" fill="#FFB573"/>
<path d="M46.32 16.693C45.5423 16.6102 45.1835 17.0758 45.6803 17.9842C46.3032 17.1106 46.32 16.693 46.32 16.693Z" fill="#263238"/>
<path d="M48.1091 18.0723C47.8835 18.9519 47.7959 19.4775 47.2584 19.8483C46.4508 20.4051 45.4308 19.7859 45.39 18.8571C45.3528 18.0171 45.7272 16.7246 46.6668 16.5374C46.8735 16.4955 47.0876 16.507 47.2886 16.571C47.4897 16.635 47.6711 16.7493 47.8155 16.903C47.96 17.0567 48.0628 17.2449 48.1142 17.4495C48.1656 17.6541 48.1639 17.8685 48.1091 18.0723Z" fill="#FFB573"/>
<path d="M47.9148 18.9191L47.2584 18.5591C47.2584 18.5591 47.3508 18.0131 47.6952 17.8199C47.3964 17.6543 47.1972 17.2259 47.2152 17.0267C46.746 17.1467 46.0584 17.0639 45.7752 16.8947C45.2604 16.5839 45.2808 15.9839 45.6732 15.7559C45.8016 16.1543 46.0068 16.3631 46.4916 16.1351C46.9764 15.9071 47.6532 15.8243 47.9088 16.2047C48.1644 16.5851 48.792 16.2791 49.1388 16.6055C49.2204 16.6738 49.282 16.7629 49.3171 16.8633C49.3522 16.9638 49.3595 17.0719 49.3382 17.1761C49.3169 17.2804 49.2679 17.377 49.1962 17.4556C49.1246 17.5343 49.033 17.5922 48.9312 17.6231C49.53 18.1007 48.9924 18.8159 47.9148 18.9191Z" fill="#263238"/>
<path d="M48.6731 17.5782C48.8441 17.548 49.0202 17.5816 49.168 17.6728C49.3158 17.7639 49.425 17.9062 49.4747 18.0726C49.2791 17.8734 48.8975 17.589 48.6731 17.5782Z" fill="#263238"/>
<path d="M48.72 17.5667C48.8374 17.6376 48.9769 17.6627 49.1117 17.6372C49.2465 17.6118 49.3672 17.5375 49.4508 17.4287C49.2492 17.5199 48.8868 17.6231 48.72 17.5667Z" fill="#263238"/>
<path d="M48.3383 18.8654C48.2086 19.0541 48.0092 19.1836 47.7839 19.2254C47.4863 19.277 47.3675 19.0034 47.4755 18.7382C47.5727 18.4982 47.8451 18.1838 48.1319 18.2582C48.4187 18.3326 48.4955 18.6338 48.3383 18.8654Z" fill="#FFB573"/>
<path d="M46.7124 18.0617C46.698 18.1337 46.6488 18.1817 46.6008 18.1817C46.5528 18.1817 46.5264 18.1061 46.5408 18.0341C46.5552 17.9621 46.6044 17.9141 46.6512 17.9141C46.698 17.9141 46.7256 17.9897 46.7124 18.0617Z" fill="#263238"/>
<path d="M45.8928 17.9041C45.8796 17.9761 45.8292 18.0241 45.7824 18.0241C45.7356 18.0241 45.708 17.9485 45.7212 17.8753C45.7344 17.8021 45.786 17.7553 45.8328 17.7613C45.8796 17.7673 45.9072 17.8321 45.8928 17.9041Z" fill="#263238"/>
<path d="M46.1183 17.9844C45.9896 18.1892 45.8333 18.3753 45.6539 18.5376C45.6966 18.5825 45.7486 18.6175 45.8062 18.6403C45.8638 18.6631 45.9257 18.6731 45.9875 18.6696L46.1183 17.9844Z" fill="#ED893E"/>
<path d="M46.272 18.9695C46.2173 18.9723 46.1624 18.9683 46.1088 18.9575C46.1031 18.9563 46.0982 18.9531 46.0948 18.9484C46.0915 18.9437 46.09 18.938 46.0908 18.9323C46.0913 18.9294 46.0925 18.9267 46.0941 18.9242C46.0958 18.9218 46.0979 18.9198 46.1004 18.9182C46.1028 18.9166 46.1056 18.9156 46.1085 18.9151C46.1114 18.9146 46.1143 18.9148 46.1172 18.9155C46.2067 18.935 46.2997 18.933 46.3883 18.9096C46.477 18.8863 46.5588 18.8422 46.6272 18.7811C46.6311 18.7769 46.6366 18.7745 46.6423 18.7744C46.6481 18.7743 46.6536 18.7765 46.6578 18.7805C46.6619 18.7844 46.6643 18.7899 46.6644 18.7956C46.6645 18.8014 46.6623 18.8069 46.6584 18.8111C46.5527 18.9084 46.4156 18.9646 46.272 18.9695Z" fill="#263238"/>
<path d="M47.16 17.7258C47.1516 17.7248 47.1437 17.7214 47.1371 17.7161C47.1306 17.7108 47.1256 17.7038 47.1228 17.6958C47.1079 17.6435 47.0809 17.5954 47.044 17.5554C47.0071 17.5154 46.9613 17.4846 46.9104 17.4654C46.8994 17.4623 46.8902 17.4551 46.8845 17.4452C46.8789 17.4353 46.8774 17.4236 46.8804 17.4126C46.8818 17.4071 46.8843 17.402 46.8877 17.3974C46.8911 17.3929 46.8954 17.3891 46.9004 17.3863C46.9053 17.3835 46.9108 17.3818 46.9164 17.3811C46.922 17.3805 46.9277 17.381 46.9332 17.3826C46.9983 17.4049 47.0572 17.4427 47.1046 17.4926C47.152 17.5425 47.1867 17.6032 47.2056 17.6694C47.2075 17.6748 47.2082 17.6805 47.2078 17.6861C47.2074 17.6918 47.2059 17.6973 47.2033 17.7023C47.2007 17.7074 47.1972 17.7118 47.1928 17.7155C47.1885 17.7191 47.1834 17.7218 47.178 17.7234C47.1722 17.7254 47.1661 17.7262 47.16 17.7258Z" fill="#263238"/>
<path d="M45.6264 17.3644C45.6164 17.3623 45.6075 17.3568 45.6012 17.3488C45.5976 17.3443 45.5949 17.3392 45.5934 17.3337C45.5918 17.3282 45.5913 17.3224 45.592 17.3167C45.5926 17.311 45.5944 17.3055 45.5973 17.3005C45.6001 17.2955 45.6039 17.2911 45.6084 17.2876C45.6608 17.243 45.7232 17.2118 45.7903 17.1968C45.8574 17.1817 45.9272 17.1833 45.9936 17.2012C45.999 17.2028 46.0041 17.2055 46.0084 17.2092C46.0128 17.2128 46.0163 17.2173 46.0189 17.2223C46.0215 17.2274 46.023 17.2329 46.0234 17.2385C46.0238 17.2442 46.0231 17.2499 46.0212 17.2552C46.0176 17.266 46.01 17.2749 45.9999 17.2801C45.9898 17.2852 45.978 17.2862 45.9672 17.2828C45.9143 17.2699 45.8591 17.2696 45.8061 17.2822C45.7532 17.2947 45.7039 17.3196 45.6624 17.3548C45.6574 17.3589 45.6516 17.3618 45.6454 17.3635C45.6392 17.3651 45.6327 17.3654 45.6264 17.3644Z" fill="#263238"/>
<path d="M29.67 41.0419H27.5712L27.2412 33.9463H30L29.67 41.0419Z" fill="#FA8A3C"/>
<path opacity="0.2" d="M29.8933 36.2402C29.5304 36.5253 29.0822 36.6802 28.6207 36.6802C28.1592 36.6802 27.7111 36.5253 27.3481 36.2402L27.2401 33.9482H30.0001L29.8933 36.2402Z" fill="black"/>
<path d="M22.4401 30.3514C19.5277 30.3514 16.7581 28.1722 15.9961 25.2826L14.6401 20.131C14.5143 19.6949 14.4911 19.2356 14.5722 18.7891C14.6534 18.3426 14.8368 17.9209 15.1081 17.557C15.3777 17.2139 15.723 16.9378 16.1171 16.7504C16.5112 16.5631 16.9433 16.4695 17.3797 16.477H21.5281C21.7867 16.486 22.0318 16.595 22.2116 16.7811C22.3914 16.9673 22.4918 17.216 22.4918 17.4748C22.4918 17.7336 22.3914 17.9823 22.2116 18.1684C22.0318 18.3546 21.7867 18.4636 21.5281 18.4726H17.3809C17.2501 18.4645 17.1194 18.4875 16.9993 18.5397C16.8791 18.5918 16.7731 18.6716 16.6897 18.7726C16.6055 18.8949 16.5509 19.0351 16.53 19.1821C16.5092 19.3291 16.5228 19.4789 16.5697 19.6198L17.9281 24.7726C18.4573 26.7802 20.4409 28.3534 22.4425 28.3534C22.5764 28.3487 22.7099 28.3711 22.835 28.4192C22.9601 28.4672 23.0743 28.54 23.1707 28.6331C23.2671 28.7262 23.3438 28.8378 23.3961 28.9611C23.4485 29.0845 23.4755 29.2172 23.4755 29.3512C23.4755 29.4852 23.4485 29.6179 23.3961 29.7412C23.3438 29.8646 23.2671 29.9762 23.1707 30.0693C23.0743 30.1624 22.9601 30.2352 22.835 30.2832C22.7099 30.3313 22.5764 30.3536 22.4425 30.349L22.4401 30.3514Z" fill="#FA8A3C"/>
<path d="M34.8001 30.3511C34.6662 30.3558 34.5326 30.3334 34.4075 30.2853C34.2824 30.2373 34.1683 30.1645 34.0719 30.0714C33.9755 29.9783 33.8988 29.8667 33.8464 29.7434C33.7941 29.62 33.7671 29.4873 33.7671 29.3533C33.7671 29.2193 33.7941 29.0866 33.8464 28.9633C33.8988 28.8399 33.9755 28.7283 34.0719 28.6352C34.1683 28.5421 34.2824 28.4693 34.4075 28.4213C34.5326 28.3732 34.6662 28.3509 34.8001 28.3555C36.8017 28.3555 38.7853 26.7823 39.3145 24.7747L40.6717 19.6219C40.7186 19.481 40.7321 19.3312 40.7113 19.1842C40.6905 19.0372 40.6359 18.897 40.5517 18.7747C40.4683 18.6738 40.3622 18.5939 40.2421 18.5418C40.122 18.4897 39.9912 18.4667 39.8605 18.4747H35.7133C35.5794 18.4794 35.4458 18.457 35.3207 18.4089C35.1956 18.3609 35.0815 18.2881 34.9851 18.195C34.8887 18.1019 34.812 17.9903 34.7596 17.867C34.7073 17.7436 34.6803 17.6109 34.6803 17.4769C34.6803 17.3429 34.7073 17.2102 34.7596 17.0869C34.812 16.9635 34.8887 16.8519 34.9851 16.7588C35.0815 16.6657 35.1956 16.5929 35.3207 16.5449C35.4458 16.4968 35.5794 16.4745 35.7133 16.4791H39.8605C40.2968 16.4717 40.7289 16.5653 41.123 16.7527C41.517 16.9401 41.8624 17.2161 42.1321 17.5591C42.4033 17.923 42.5867 18.3447 42.6679 18.7912C42.7491 19.2378 42.7259 19.697 42.6001 20.1331L41.2429 25.2847C40.4809 28.1719 37.7101 30.3511 34.8001 30.3511Z" fill="#FA8A3C"/>
<g opacity="0.2">
<path opacity="0.2" d="M22.5252 17.4779C22.5252 17.2133 22.4202 16.9595 22.2332 16.7723C22.0462 16.5851 21.7926 16.4798 21.528 16.4795H18.0564L18.2964 18.4751H21.528C21.7925 18.4751 22.0461 18.37 22.2331 18.183C22.4201 17.996 22.5252 17.7424 22.5252 17.4779Z" fill="black"/>
<path opacity="0.2" d="M22.44 28.3556C21.3108 28.3556 20.1888 27.8564 19.3284 27.0596L19.4688 28.2224C19.5308 28.7396 19.638 29.2503 19.7892 29.7488C20.6186 30.1392 21.5233 30.3439 22.44 30.3488C22.5739 30.3534 22.7074 30.3311 22.8325 30.283C22.9577 30.235 23.0718 30.1622 23.1682 30.0691C23.2646 29.976 23.3413 29.8644 23.3936 29.741C23.446 29.6177 23.473 29.485 23.473 29.351C23.473 29.217 23.446 29.0843 23.3936 28.9609C23.3413 28.8376 23.2646 28.726 23.1682 28.6329C23.0718 28.5398 22.9577 28.467 22.8325 28.419C22.7074 28.3709 22.5739 28.3485 22.44 28.3532V28.3556Z" fill="black"/>
<path opacity="0.2" d="M33.8004 29.3545C33.8007 29.6189 33.9059 29.8723 34.0928 30.0593C34.2798 30.2462 34.5332 30.3514 34.7976 30.3517C35.7147 30.347 36.6198 30.1422 37.4496 29.7517C37.6008 29.2532 37.708 28.7425 37.77 28.2253L37.9092 27.0625C37.05 27.8593 35.928 28.3585 34.7976 28.3585C34.5334 28.3588 34.2802 28.4638 34.0933 28.6505C33.9064 28.8372 33.801 29.0903 33.8004 29.3545Z" fill="black"/>
<path opacity="0.2" d="M35.7132 16.4795C35.4545 16.4885 35.2095 16.5975 35.0297 16.7837C34.8499 16.9698 34.7494 17.2185 34.7494 17.4773C34.7494 17.7361 34.8499 17.9848 35.0297 18.1709C35.2095 18.3571 35.4545 18.4661 35.7132 18.4751H38.9436L39.1836 16.4795H35.7132Z" fill="black"/>
</g>
<path d="M27.7392 13.9043H26.8896V14.0243H27.7392V13.9043Z" fill="#FA8A3C"/>
<path d="M26.1505 13.9043H23.1001V14.0243H26.1505V13.9043Z" fill="#FA8A3C"/>
<path d="M28.62 35.3026C26.5315 35.3026 24.5194 34.5169 22.9836 33.1016C21.4478 31.6863 20.5007 29.745 20.3304 27.6634L19.2876 14.9026C19.2815 14.829 19.2907 14.7548 19.3147 14.6849C19.3387 14.615 19.3769 14.5508 19.427 14.4964C19.4771 14.4421 19.5379 14.3987 19.6056 14.369C19.6734 14.3394 19.7465 14.3241 19.8204 14.3242H37.4208C37.4947 14.3243 37.5677 14.3397 37.6354 14.3694C37.703 14.3991 37.7638 14.4425 37.8138 14.4968C37.8639 14.5511 37.9021 14.6152 37.9262 14.6851C37.9502 14.7549 37.9596 14.829 37.9536 14.9026L36.9108 27.6634C36.7403 29.7451 35.7929 31.6864 34.2569 33.1017C32.7209 34.517 30.7086 35.3026 28.62 35.3026Z" fill="#FA8A3C"/>
<path opacity="0.1" d="M25.9332 33.0002C25.9686 33.0341 25.9908 33.0794 25.9961 33.1281C26.0014 33.1768 25.9895 33.2258 25.9623 33.2665C25.9351 33.3073 25.8945 33.3372 25.8475 33.351C25.8005 33.3648 25.7502 33.3617 25.7052 33.3422C24.578 32.8242 23.6089 32.0156 22.8974 30.9993C22.1858 29.9831 21.7575 28.7958 21.6564 27.5594L20.7108 16.0034C20.7074 15.9597 20.7129 15.9159 20.7272 15.8745C20.7415 15.8331 20.7641 15.7951 20.7938 15.7629C20.8234 15.7307 20.8593 15.7049 20.8994 15.6873C20.9394 15.6696 20.9827 15.6603 21.0264 15.6602H22.4604C22.5403 15.6599 22.6173 15.6901 22.6759 15.7444C22.7345 15.7987 22.7703 15.8733 22.776 15.953L23.6964 28.073C23.8237 29.9275 24.6148 31.6741 25.9248 32.993L25.9332 33.0002Z" fill="white"/>
<path d="M32.8945 43.5721H24.3469C24.2931 43.572 24.2399 43.56 24.1913 43.537C24.1426 43.5141 24.0995 43.4807 24.0652 43.4392C24.0308 43.3978 24.006 43.3493 23.9925 43.2972C23.979 43.2451 23.9771 43.1907 23.9869 43.1377L24.2545 41.7158C24.3183 41.3769 24.4984 41.071 24.7637 40.8508C25.029 40.6306 25.3629 40.51 25.7077 40.5098H31.5337C31.8785 40.51 32.2124 40.6306 32.4778 40.8508C32.7431 41.071 32.9232 41.3769 32.9869 41.7158L33.2545 43.1377C33.2644 43.1907 33.2625 43.2451 33.249 43.2972C33.2354 43.3493 33.2106 43.3978 33.1763 43.4392C33.1419 43.4807 33.0989 43.5141 33.0502 43.537C33.0015 43.56 32.9484 43.572 32.8945 43.5721Z" fill="#FA8A3C"/>
<path opacity="0.2" d="M33.2545 43.1377H23.9869C23.9771 43.1906 23.979 43.245 23.9925 43.2971C24.006 43.3492 24.0308 43.3977 24.0652 43.4392C24.0995 43.4806 24.1426 43.514 24.1913 43.537C24.2399 43.5599 24.2931 43.5719 24.3469 43.5721H32.8945C32.9484 43.5719 33.0015 43.5599 33.0502 43.537C33.0989 43.514 33.1419 43.4806 33.1763 43.4392C33.2106 43.3977 33.2354 43.3492 33.249 43.2971C33.2625 43.245 33.2644 43.1906 33.2545 43.1377Z" fill="black"/>
<path d="M35.5321 43.5723H21.7081C21.5066 43.5723 21.3433 43.7356 21.3433 43.9371V49.2843C21.3433 49.4857 21.5066 49.6491 21.7081 49.6491H35.5321C35.7335 49.6491 35.8969 49.4857 35.8969 49.2843V43.9371C35.8969 43.7356 35.7335 43.5723 35.5321 43.5723Z" fill="#FA8A3C"/>
<path opacity="0.7" d="M35.5321 43.5723H21.7081C21.5066 43.5723 21.3433 43.7356 21.3433 43.9371V49.2843C21.3433 49.4857 21.5066 49.6491 21.7081 49.6491H35.5321C35.7335 49.6491 35.8969 49.4857 35.8969 49.2843V43.9371C35.8969 43.7356 35.7335 43.5723 35.5321 43.5723Z" fill="white"/>
<path d="M16.7843 26.701C16.4603 25.021 19.1735 24.5146 20.3951 25.5862C21.5879 26.6326 20.9663 27.5518 22.6631 27.2758C24.3599 26.9998 24.5327 28.6258 23.6447 29.2186C22.7567 29.8114 24.1751 31.033 22.6739 31.5586C20.8163 32.2102 19.0739 31.6198 17.8211 31.0018C16.5683 30.3838 15.2951 27.4606 16.7843 26.701Z" fill="#263238"/>
<path d="M22.2072 36.914C22.2072 36.914 28.0164 40.1036 27.7128 42.1196C26.9712 46.6628 26.9508 49.0688 26.9508 49.0688H26.1372C26.1372 49.0688 25.3656 44.5232 25.7772 42.2024C25.2708 41.162 19.0332 41.378 19.4556 36.9092L22.2072 36.914Z" fill="#263238"/>
<path opacity="0.2" d="M19.4772 37.877C19.7172 39.5762 21.1176 40.4198 22.5384 40.949C21.4884 39.7598 20.292 38.4866 19.4772 37.877Z" fill="black"/>
<path d="M27.0204 48.918H26.07C26.05 48.9173 26.0304 48.9242 26.0153 48.9373C26.0001 48.9505 25.9905 48.9689 25.9884 48.9888L25.8924 49.7688C25.8918 49.793 25.896 49.817 25.9048 49.8395C25.9136 49.8619 25.9269 49.8824 25.9438 49.8996C25.9607 49.9169 25.9809 49.9305 26.0032 49.9398C26.0255 49.9491 26.0494 49.9538 26.0736 49.9536C26.4912 49.9464 26.6928 49.9236 27.2208 49.9236C27.5448 49.9236 27.7428 49.9572 28.1916 49.9572C28.6404 49.9572 28.6416 49.5276 28.452 49.488C27.612 49.3116 27.492 49.2144 27.2016 48.984C27.1503 48.9423 27.0865 48.919 27.0204 48.918Z" fill="#263238"/>
<path d="M21.6311 30.6946C21.8903 30.775 22.1639 30.8614 22.4315 30.9346C22.6991 31.0078 22.9703 31.093 23.2391 31.1602C23.5079 31.2274 23.7779 31.2922 24.0431 31.3426C24.1739 31.3654 24.3071 31.3906 24.4343 31.405L24.5303 31.4182L24.6227 31.4254L24.7139 31.4326H24.7295C24.7295 31.4326 24.7175 31.441 24.7223 31.4422C24.7271 31.4434 24.7403 31.435 24.7595 31.4086C24.8098 31.3293 24.8463 31.2421 24.8675 31.1506C24.9276 30.9013 24.9614 30.6463 24.9683 30.3898C24.9827 30.1186 24.9803 29.8402 24.9683 29.5618C24.9563 29.2834 24.9395 28.9966 24.9179 28.7218V28.7122C24.9138 28.6477 24.9336 28.5838 24.9735 28.5329C25.0134 28.482 25.0706 28.4474 25.1343 28.4359C25.1979 28.4243 25.2636 28.4366 25.3188 28.4703C25.3741 28.504 25.415 28.5568 25.4339 28.6186C25.6017 29.1921 25.711 29.7811 25.7603 30.3766C25.7889 30.6966 25.7792 31.0189 25.7315 31.3366C25.7012 31.5288 25.6392 31.7145 25.5479 31.8862C25.4868 31.9975 25.4054 32.0964 25.3079 32.1778C25.1938 32.2726 25.0583 32.3381 24.9131 32.3686C24.8783 32.3758 24.8411 32.3818 24.8075 32.3854H24.7559H24.4679L24.3479 32.3794C24.1883 32.3722 24.0371 32.353 23.8835 32.3338C23.5811 32.2942 23.2835 32.239 22.9967 32.173C22.4185 32.0469 21.8483 31.8866 21.2891 31.693C21.162 31.6443 21.0585 31.5485 21 31.4256C20.9416 31.3027 20.9326 31.162 20.975 31.0326C21.0174 30.9032 21.1079 30.7951 21.2278 30.7307C21.3477 30.6662 21.4878 30.6503 21.6191 30.6862L21.6311 30.6946Z" fill="#803E3C"/>
<path d="M25.2408 27.9717L24.5424 28.4517C24.5424 28.4517 24.5928 28.5369 24.7224 28.7445C24.852 28.9521 25.068 29.0793 25.2636 28.9485C25.7496 28.7049 25.2408 27.9717 25.2408 27.9717Z" fill="#7F3E3B"/>
<path d="M24.5555 28.0386L24.7079 27.855C24.7342 27.8231 24.7673 27.7974 24.8048 27.7797C24.8422 27.7621 24.8831 27.7529 24.9245 27.7529C24.9659 27.7529 25.0068 27.7621 25.0442 27.7797C25.0817 27.7974 25.1148 27.8231 25.1411 27.855L25.2407 27.975L24.5423 28.455L24.5015 28.299C24.4883 28.2545 24.4863 28.2075 24.4957 28.162C24.5051 28.1166 24.5257 28.0742 24.5555 28.0386Z" fill="#7F3E3B"/>
<path d="M22.4483 31.8393C22.4963 32.7141 22.4195 34.2141 22.2083 36.9141H17.9603C18.0275 35.2953 17.9279 34.6929 16.9727 31.6917C16.9498 31.6195 16.942 31.5433 16.9496 31.468C16.9573 31.3926 16.9804 31.3196 17.0174 31.2535C17.0544 31.1873 17.1045 31.1295 17.1647 31.0835C17.225 31.0375 17.294 31.0044 17.3675 30.9861C17.7591 30.8856 18.1556 30.8055 18.5555 30.7461C19.1855 30.6447 19.8219 30.5886 20.4599 30.5781C20.7095 30.5781 20.9699 30.5889 21.2111 30.6033C21.5332 30.6211 21.8375 30.757 22.0658 30.985C22.294 31.2131 22.4302 31.5172 22.4483 31.8393Z" fill="#7F3E3B"/>
<path opacity="0.2" d="M17.454 31.8359C17.5185 32.2611 17.4997 32.6947 17.3988 33.1127C17.3183 32.8259 17.2283 32.5187 17.1263 32.1827L17.454 31.8359Z" fill="black"/>
<path opacity="0.2" d="M20.3267 32.7048C20.3267 32.3016 19.8035 31.7976 19.4375 31.7148C19.7015 31.8636 20.1935 32.3916 20.3267 32.7048Z" fill="black"/>
<path d="M18.5531 28.5898C18.7271 29.1898 18.9467 30.3034 18.5531 30.7498C18.5531 30.7498 18.7763 31.357 19.9151 31.2562C21.1667 31.1446 20.4575 30.5818 20.4575 30.5818C19.7603 30.4786 19.7375 29.971 19.8095 29.4838L18.5531 28.5898Z" fill="#7F3E3B"/>
<path opacity="0.2" d="M19.0655 28.9541L19.8095 29.4833C19.7903 29.5967 19.7811 29.7115 19.7819 29.8265C19.5167 29.8109 19.1327 29.5565 19.0811 29.2853C19.0555 29.1768 19.0502 29.0645 19.0655 28.9541Z" fill="black"/>
<path d="M17.5799 27.9239C18.0755 28.8251 18.2663 29.2175 18.9599 29.4731C20.0039 29.8559 20.9999 29.0507 20.7875 28.0187C20.5919 27.0899 19.8143 25.7711 18.7307 25.8311C18.4918 25.8433 18.2599 25.9164 18.0571 26.0434C17.8543 26.1704 17.6873 26.3471 17.572 26.5567C17.4568 26.7664 17.397 27.0021 17.3983 27.2413C17.3997 27.4806 17.4622 27.7155 17.5799 27.9239Z" fill="#7F3E3B"/>
<path d="M17.2284 26.6321C17.6484 26.0585 18.3084 27.2801 18.3864 27.6653C18.4644 28.0505 18.2856 28.5929 17.6856 28.5497C17.0856 28.5065 16.7784 27.2477 17.2284 26.6321Z" fill="#263238"/>
<path d="M17.1432 26.4822C18.0336 26.919 18.5508 26.6646 18.9108 26.439C19.2708 26.2134 20.5512 26.3394 20.2608 26.049C19.9704 25.7586 19.5228 25.4994 18.7908 25.6134C18.0588 25.7274 17.1432 26.4822 17.1432 26.4822Z" fill="#263238"/>
<path d="M14.0303 48.8191L13.0571 48.5515C13.0401 48.5468 13.0219 48.5483 13.0058 48.5558C12.9898 48.5633 12.9769 48.5762 12.9695 48.5923L12.6215 49.3423C12.6132 49.361 12.609 49.3813 12.6093 49.4017C12.6095 49.4222 12.6142 49.4424 12.623 49.4608C12.6317 49.4793 12.6444 49.4957 12.6601 49.5088C12.6758 49.5219 12.6942 49.5314 12.7139 49.5367C13.0547 49.6243 13.1939 49.5187 13.5719 49.7527C13.8563 49.9279 14.2367 49.9472 14.6759 49.9472C15.0455 49.9472 15.0875 49.5619 14.9267 49.5319C14.2067 49.3975 14.2835 49.1587 14.1587 48.9127C14.1449 48.8892 14.1263 48.8688 14.1042 48.8527C14.0821 48.8366 14.057 48.8252 14.0303 48.8191Z" fill="#263238"/>
<path d="M21.0419 36.9141C21.0419 36.9141 20.4287 40.6773 19.8419 43.7397C19.7531 44.2029 19.5431 44.6721 19.1399 44.9181C17.0471 46.1961 13.9499 48.9165 13.9499 48.9165L13.0499 48.6309C13.0499 48.6309 15.9707 44.1261 17.4899 43.9221C17.4899 42.6597 16.2899 39.4449 17.9603 36.9141H21.0419Z" fill="#263238"/>
<path d="M17.9039 36.7533C17.8608 36.7755 17.8279 36.8134 17.812 36.8592C17.7961 36.905 17.7986 36.9552 17.8187 36.9993C17.8631 37.0653 20.4131 37.1361 21.0767 37.1313C21.7403 37.1265 22.4639 37.0941 22.4219 36.9753C22.3799 36.8565 22.4063 36.6537 22.3175 36.6489C22.2287 36.6441 18.1691 36.6765 17.9039 36.7533Z" fill="#FA8A3C"/>
<path d="M19.0583 27.5599C19.0943 27.6355 19.1639 27.6799 19.2131 27.6547C19.2623 27.6295 19.2731 27.5515 19.2383 27.4759C19.2035 27.4003 19.1327 27.3559 19.0835 27.3811C19.0343 27.4063 19.0235 27.4795 19.0583 27.5599Z" fill="#263238"/>
<path d="M19.92 27.1572C19.9548 27.2328 20.0244 27.2772 20.0736 27.252C20.1228 27.2268 20.1348 27.1476 20.0988 27.072C20.0628 26.9964 19.9944 26.952 19.944 26.9784C19.8936 27.0048 19.878 27.0816 19.92 27.1572Z" fill="#263238"/>
<path d="M19.9199 26.9925L20.0771 26.8545C20.0771 26.8545 20.0495 27.0393 19.9199 26.9925Z" fill="#263238"/>
<path d="M19.7544 27.3662C19.9029 27.5081 20.0701 27.6293 20.2512 27.7262C20.2262 27.7713 20.1919 27.8104 20.1505 27.8411C20.1091 27.8717 20.0616 27.8931 20.0112 27.9038L19.7544 27.3662Z" fill="#630F0F"/>
<path d="M19.812 28.3509C19.853 28.3396 19.8931 28.3251 19.932 28.3077C19.935 28.3063 19.9377 28.3043 19.9399 28.3019C19.9421 28.2994 19.9438 28.2966 19.9449 28.2934C19.9461 28.2903 19.9466 28.287 19.9464 28.2837C19.9462 28.2804 19.9454 28.2771 19.944 28.2741C19.9426 28.2713 19.9406 28.2687 19.9382 28.2667C19.9358 28.2646 19.933 28.263 19.93 28.262C19.927 28.261 19.9238 28.2606 19.9207 28.2608C19.9175 28.261 19.9144 28.2619 19.9116 28.2633C19.8186 28.3105 19.7158 28.335 19.6116 28.335C19.5073 28.335 19.4046 28.3105 19.3116 28.2633C19.3061 28.2601 19.2996 28.259 19.2934 28.2603C19.2871 28.2617 19.2816 28.2653 19.278 28.2705C19.2746 28.2762 19.2735 28.2829 19.2748 28.2893C19.2762 28.2958 19.2799 28.3015 19.2852 28.3053C19.4478 28.3896 19.6373 28.406 19.812 28.3509Z" fill="#263238"/>
<path d="M17.6735 28.8002C17.8163 28.9389 18.0084 29.0153 18.2075 29.0126C18.4703 29.0066 18.5267 28.7522 18.3887 28.5434C18.2687 28.3562 17.9807 28.1318 17.7467 28.2386C17.6961 28.263 17.6524 28.2997 17.6195 28.3452C17.5866 28.3908 17.5655 28.4438 17.5583 28.4996C17.551 28.5553 17.5577 28.612 17.5778 28.6645C17.598 28.7169 17.6308 28.7636 17.6735 28.8002Z" fill="#7F3E3B"/>
<path d="M18.7523 27.4582C18.7622 27.4552 18.7708 27.4492 18.7771 27.441C18.7833 27.4328 18.7868 27.4229 18.7871 27.4126C18.7931 27.1858 19.0355 27.0214 19.0379 27.0202C19.0433 27.0166 19.0479 27.0119 19.0515 27.0065C19.055 27.0011 19.0575 26.9951 19.0587 26.9887C19.0599 26.9824 19.0599 26.9758 19.0586 26.9695C19.0573 26.9632 19.0548 26.9571 19.0511 26.9518C19.0477 26.9463 19.0433 26.9416 19.038 26.938C19.0327 26.9343 19.0267 26.9318 19.0204 26.9306C19.0141 26.9293 19.0076 26.9294 19.0013 26.9308C18.9951 26.9322 18.9891 26.9348 18.9839 26.9386C18.9719 26.9458 18.6959 27.133 18.6887 27.4102C18.6886 27.4166 18.6897 27.4231 18.692 27.4291C18.6943 27.4351 18.6978 27.4406 18.7023 27.4453C18.7068 27.45 18.7121 27.4538 18.718 27.4564C18.7239 27.459 18.7303 27.4604 18.7367 27.4606L18.7523 27.4582Z" fill="#263238"/>
<path d="M20.1023 26.5509C20.1103 26.5483 20.1176 26.5438 20.1234 26.5377C20.1293 26.5316 20.1336 26.5242 20.1359 26.5161C20.1375 26.5098 20.1379 26.5033 20.1369 26.4968C20.136 26.4904 20.1338 26.4842 20.1304 26.4786C20.1271 26.473 20.1226 26.4682 20.1174 26.4643C20.1122 26.4605 20.1062 26.4577 20.0999 26.4561C20.025 26.4346 19.9459 26.4317 19.8696 26.4476C19.7933 26.4635 19.722 26.4977 19.6619 26.5473C19.6573 26.5519 19.6537 26.5573 19.6512 26.5633C19.6487 26.5693 19.6475 26.5757 19.6475 26.5821C19.6475 26.5886 19.6487 26.595 19.6512 26.601C19.6537 26.6069 19.6573 26.6124 19.6619 26.6169C19.6664 26.6217 19.6718 26.6254 19.6777 26.628C19.6837 26.6305 19.6902 26.6319 19.6967 26.6319C19.7032 26.6319 19.7096 26.6305 19.7156 26.628C19.7216 26.6254 19.727 26.6217 19.7315 26.6169C19.78 26.579 19.8369 26.5531 19.8973 26.5412C19.9578 26.5293 20.0202 26.5318 20.0795 26.5485C20.0868 26.5511 20.0946 26.5519 20.1023 26.5509Z" fill="#263238"/>
<path d="M17.796 31.9654C17.4228 32.3758 17.046 32.8162 16.7016 33.2566C16.5288 33.4774 16.3656 33.7042 16.2216 33.931C16.077 34.1426 15.954 34.3681 15.8544 34.6042C15.8175 34.689 15.7932 34.7788 15.7824 34.8706V34.903C15.7826 34.9066 15.7826 34.9102 15.7824 34.9138L15.792 34.9522L15.8112 35.029L15.84 35.1178C15.9322 35.3748 16.0379 35.6268 16.1568 35.8726C16.3968 36.3862 16.6692 36.9034 16.9296 37.4194C16.959 37.4771 16.9662 37.5436 16.9498 37.6063C16.9334 37.669 16.8945 37.7234 16.8406 37.7593C16.7866 37.7952 16.7214 37.8099 16.6573 37.8008C16.5931 37.7917 16.5346 37.7593 16.4928 37.7098C16.1046 37.2543 15.7474 36.7732 15.4236 36.2698C15.2521 36.0081 15.1001 35.7342 14.9688 35.4502L14.9184 35.3302C14.9028 35.2882 14.8884 35.2426 14.8728 35.1982L14.8512 35.1322C14.844 35.1046 14.8356 35.0662 14.8296 35.035C14.8204 34.9734 14.8152 34.9113 14.814 34.849C14.8172 34.6487 14.8525 34.4502 14.9184 34.261C15.0294 33.9509 15.1726 33.6533 15.3456 33.373C15.5076 33.1042 15.6828 32.8534 15.8628 32.6086C16.0428 32.3638 16.2288 32.1286 16.4244 31.897C16.62 31.6654 16.8144 31.4458 17.0316 31.2214C17.0792 31.1707 17.1364 31.13 17.1998 31.1014C17.2633 31.0728 17.3317 31.0571 17.4012 31.0549C17.4708 31.0528 17.54 31.0644 17.6051 31.0891C17.6701 31.1137 17.7297 31.1509 17.7804 31.1986C17.831 31.2463 17.8718 31.3035 17.9004 31.3669C17.9289 31.4303 17.9447 31.4988 17.9468 31.5683C17.949 31.6378 17.9374 31.7071 17.9127 31.7721C17.8881 31.8372 17.8508 31.8968 17.8032 31.9474L17.796 31.9654Z" fill="#803E3C"/>
<path d="M19.0643 27.3958L19.2203 27.2578C19.2203 27.2578 19.1999 27.4438 19.0643 27.3958Z" fill="#263238"/>
<path d="M16.8323 37.2891L17.8715 37.7091L16.9391 38.2023C16.9391 38.2023 16.3823 37.8363 16.4207 37.4067L16.8323 37.2891Z" fill="#7F3E3B"/>
<path d="M18.0959 38.561L17.6459 38.7686C17.6046 38.7876 17.5583 38.7928 17.5138 38.7835C17.4693 38.7742 17.429 38.7509 17.3987 38.717L16.9391 38.2022L17.8715 37.709L18.1907 38.2634C18.2054 38.2888 18.2146 38.3171 18.2178 38.3463C18.221 38.3755 18.218 38.4051 18.2091 38.4331C18.2001 38.4611 18.1855 38.487 18.166 38.509C18.1465 38.531 18.1226 38.5487 18.0959 38.561Z" fill="#7F3E3B"/>
<path d="M21.9672 31.268C21.798 30.788 21.6588 30.6416 21.6588 30.6416C21.5223 30.5921 21.378 30.5673 21.2328 30.5684C21.4176 31.1036 21.9144 32.3852 20.1156 32.5268C18.3168 32.6684 17.67 30.8564 17.67 30.8564C17.3484 30.8564 17.2284 30.9704 17.2284 30.9704C17.7792 32.2904 18.3384 33.6104 17.5884 34.034C17.7156 34.6664 17.736 35.474 17.6976 36.296C18.426 36.1496 21.3372 35.75 22.5444 35.9048C22.5324 35.0924 22.4952 34.4 22.4412 33.812C22.8924 33.248 22.236 31.7996 21.9672 31.268Z" fill="#FA8A3C"/>
<path opacity="0.8" d="M21.9672 31.268C21.798 30.788 21.6588 30.6416 21.6588 30.6416C21.5223 30.5921 21.378 30.5673 21.2328 30.5684C21.4176 31.1036 21.9144 32.3852 20.1156 32.5268C18.3168 32.6684 17.67 30.8564 17.67 30.8564C17.3484 30.8564 17.2284 30.9704 17.2284 30.9704C17.7792 32.2904 18.3384 33.6104 17.5884 34.034C17.7156 34.6664 17.736 35.474 17.6976 36.296C18.426 36.1496 21.3372 35.75 22.5444 35.9048C22.5324 35.0924 22.4952 34.4 22.4412 33.812C22.8924 33.248 22.236 31.7996 21.9672 31.268Z" fill="#FAFAFA"/>
</svg>
