<svg width="22" height="27" viewBox="0 0 22 27" fill="none" xmlns="http://www.w3.org/2000/svg">
<path d="M21.7521 16.9936L19.4615 14.4789V11.1476C19.4589 8.84547 18.6789 6.62618 17.2722 4.91886C15.8656 3.21155 13.9323 2.13749 11.8462 1.90438V0H10.1538V1.90438C8.06772 2.13749 6.13441 3.21155 4.72777 4.91886C3.32113 6.62618 2.54109 8.84547 2.53846 11.1476V14.4789L0.247923 16.9936C0.0892274 17.1678 4.7924e-05 17.404 0 17.6504V20.4373C0 20.6836 0.0891481 20.9199 0.247833 21.0941C0.406517 21.2684 0.62174 21.3662 0.846154 21.3662H6.76923V22.2952C6.76923 23.5271 7.21497 24.7085 8.00839 25.5796C8.80182 26.4507 9.87793 26.94 11 26.94C12.1221 26.94 13.1982 26.4507 13.9916 25.5796C14.785 24.7085 15.2308 23.5271 15.2308 22.2952V21.3662H21.1538C21.3783 21.3662 21.5935 21.2684 21.7522 21.0941C21.9109 20.9199 22 20.6836 22 20.4373V17.6504C22 17.404 21.9108 17.1678 21.7521 16.9936ZM13.5385 22.2952C13.5385 23.0343 13.271 23.7432 12.795 24.2658C12.3189 24.7885 11.6732 25.0821 11 25.0821C10.3268 25.0821 9.68109 24.7885 9.20504 24.2658C8.72898 23.7432 8.46154 23.0343 8.46154 22.2952V21.3662H13.5385V22.2952Z" fill="#062540"/>
</svg>
