<svg width="22" height="27" viewBox="0 0 22 27" fill="none" xmlns="http://www.w3.org/2000/svg">
<path d="M19.4615 14.4644V11.5H17.7692V14.8486C17.7693 15.0947 17.8585 15.3307 18.0172 15.5047L20.3077 18.0169V19.4888H1.69231V18.0169L3.98285 15.5047C4.14154 15.3307 4.23072 15.0947 4.23077 14.8486V11.1365C4.22841 9.83237 4.53987 8.5507 5.13369 7.42089C5.72751 6.29108 6.58266 5.35314 7.61276 4.70182C8.64286 4.05049 9.81144 3.70885 11.0005 3.71139C12.1895 3.71393 12.9722 3.84428 14 4.5L15 3C14.5 2.5 12.7225 2.00167 11.8462 1.90341V0H10.1538V1.90248C8.06772 2.13535 6.13441 3.20833 4.72777 4.91394C3.32114 6.61955 2.54109 8.83663 2.53846 11.1365V14.4644L0.247923 16.9766C0.0892275 17.1506 4.7924e-05 17.3866 0 17.6327V20.4168C0 20.663 0.0891481 20.899 0.247833 21.0731C0.406517 21.2471 0.62174 21.3449 0.846154 21.3449H6.76923V22.2729C6.76923 23.5036 7.21497 24.6838 8.0084 25.554C8.80182 26.4242 9.87793 26.9131 11 26.9131C12.1221 26.9131 13.1982 26.4242 13.9916 25.554C14.785 24.6838 15.2308 23.5036 15.2308 22.2729V21.3449H21.1538C21.3783 21.3449 21.5935 21.2471 21.7522 21.0731C21.9109 20.899 22 20.663 22 20.4168V17.6327C22 17.3866 21.9108 17.1506 21.7521 16.9766L19.4615 14.4644ZM13.5385 22.2729C13.5385 23.0113 13.271 23.7195 12.795 24.2416C12.3189 24.7637 11.6732 25.057 11 25.057C10.3268 25.057 9.68109 24.7637 9.20504 24.2416C8.72898 23.7195 8.46154 23.0113 8.46154 22.2729V21.3449H13.5385V22.2729Z" fill="#062540"/>
<path d="M18.5 10C20.433 10 22 8.433 22 6.5C22 4.567 20.433 3 18.5 3C16.567 3 15 4.567 15 6.5C15 8.433 16.567 10 18.5 10Z" fill="#DF532B"/>
</svg>
