<svg width="22" height="27" viewBox="0 0 22 27" fill="none" xmlns="http://www.w3.org/2000/svg">
<mask id="path-1-inside-1_2283_4840" fill="white">
<path d="M21.7521 16.9746L19.4615 14.4627V11.1352C19.4589 8.83561 18.6789 6.61879 17.2722 4.91338C15.8656 3.20796 13.9323 2.13511 11.8462 1.90226V0H10.1538V1.90226C8.06772 2.13511 6.13441 3.20796 4.72777 4.91338C3.32113 6.61879 2.54109 8.83561 2.53846 11.1352V14.4627L0.247923 16.9746C0.0892274 17.1486 4.7924e-05 17.3846 0 17.6307V20.4145C0 20.6606 0.0891481 20.8966 0.247833 21.0706C0.406517 21.2446 0.62174 21.3424 0.846154 21.3424H6.76923V22.2703C6.76923 23.5009 7.21497 24.681 8.00839 25.5511C8.80182 26.4212 9.87793 26.91 11 26.91C12.1221 26.91 13.1982 26.4212 13.9916 25.5511C14.785 24.681 15.2308 23.5009 15.2308 22.2703V21.3424H21.1538C21.3783 21.3424 21.5935 21.2446 21.7522 21.0706C21.9109 20.8966 22 20.6606 22 20.4145V17.6307C22 17.3846 21.9108 17.1486 21.7521 16.9746ZM13.5385 22.2703C13.5385 23.0087 13.271 23.7167 12.795 24.2388C12.3189 24.7608 11.6732 25.0541 11 25.0541C10.3268 25.0541 9.68109 24.7608 9.20504 24.2388C8.72898 23.7167 8.46154 23.0087 8.46154 22.2703V21.3424H13.5385V22.2703Z"/>
</mask>
<path d="M21.7521 16.9746L20.2742 18.3222L20.2744 18.3225L21.7521 16.9746ZM19.4615 14.4627H17.4615V15.2377L17.9837 15.8103L19.4615 14.4627ZM19.4615 11.1352L21.4615 11.1352L21.4615 11.1329L19.4615 11.1352ZM11.8462 1.90226H9.84615V3.69144L11.6243 3.88992L11.8462 1.90226ZM11.8462 0H13.8462V-2H11.8462V0ZM10.1538 0V-2H8.15385V0H10.1538ZM10.1538 1.90226L10.3757 3.88992L12.1538 3.69144V1.90226H10.1538ZM2.53846 11.1352L0.538462 11.1329V11.1352H2.53846ZM2.53846 14.4627L4.01629 15.8103L4.53846 15.2377V14.4627H2.53846ZM0.247923 16.9746L1.72555 18.3225L1.72576 18.3222L0.247923 16.9746ZM0 17.6307L-2 17.6303V17.6307H0ZM0 20.4145L-2 20.4145L0 20.4145ZM6.76923 21.3424H8.76923V19.3424H6.76923V21.3424ZM6.76923 22.2703L4.76923 22.2703L6.76923 22.2703ZM15.2308 21.3424V19.3424H13.2308V21.3424H15.2308ZM22 17.6307L24 17.6307L24 17.6303L22 17.6307ZM13.5385 22.2703H15.5385H13.5385ZM8.46154 21.3424V19.3424H6.46154V21.3424H8.46154ZM13.5385 21.3424H15.5385V19.3424H13.5385V21.3424ZM23.2299 15.627L20.9394 13.1151L17.9837 15.8103L20.2742 18.3222L23.2299 15.627ZM21.4615 14.4627V11.1352H17.4615V14.4627H21.4615ZM21.4615 11.1329C21.4584 8.38992 20.5294 5.71915 18.8151 3.64079L15.7293 6.18597C16.8284 7.51843 17.4594 9.28129 17.4615 11.1375L21.4615 11.1329ZM18.8151 3.64079C17.0972 1.55801 14.7003 0.208408 12.068 -0.0853983L11.6243 3.88992C13.1643 4.0618 14.6339 4.85792 15.7293 6.18597L18.8151 3.64079ZM13.8462 1.90226V0H9.84615V1.90226H13.8462ZM11.8462 -2H10.1538V2H11.8462V-2ZM8.15385 0V1.90226H12.1538V0H8.15385ZM9.93199 -0.0853983C7.29972 0.208408 4.90277 1.55801 3.18488 3.64079L6.27067 6.18597C7.36605 4.85792 8.83571 4.0618 10.3757 3.88992L9.93199 -0.0853983ZM3.18488 3.64079C1.47063 5.71915 0.541593 8.38992 0.538463 11.1329L4.53846 11.1375C4.54058 9.28129 5.17164 7.51843 6.27067 6.18597L3.18488 3.64079ZM0.538462 11.1352V14.4627H4.53846V11.1352H0.538462ZM1.06063 13.1151L-1.22991 15.627L1.72576 18.3222L4.01629 15.8103L1.06063 13.1151ZM-1.22971 15.6268C-1.74063 16.187 -1.99986 16.9103 -2 17.6303L2 17.6311C1.99996 17.8589 1.91909 18.1103 1.72555 18.3225L-1.22971 15.6268ZM-2 17.6307V20.4145H2V17.6307H-2ZM-2 20.4145C-2 21.1345 -1.74087 21.858 -1.23 22.4182L1.72567 19.723C1.91917 19.9352 2 20.1866 2 20.4145L-2 20.4145ZM-1.23 22.4182C-0.713514 22.9846 0.028649 23.3424 0.846154 23.3424V19.3424C1.21483 19.3424 1.52655 19.5047 1.72567 19.723L-1.23 22.4182ZM0.846154 23.3424H6.76923V19.3424H0.846154V23.3424ZM4.76923 21.3424V22.2703H8.76923V21.3424H4.76923ZM4.76923 22.2703C4.76923 23.9748 5.38495 25.6423 6.53056 26.8987L9.48623 24.2035C9.04499 23.7196 8.76923 23.0269 8.76923 22.2703L4.76923 22.2703ZM6.53056 26.8987C7.68178 28.1611 9.28483 28.91 11 28.91V24.91C10.471 24.91 9.92185 24.6812 9.48623 24.2035L6.53056 26.8987ZM11 28.91C12.7152 28.91 14.3182 28.1611 15.4694 26.8987L12.5138 24.2035C12.0781 24.6812 11.529 24.91 11 24.91V28.91ZM15.4694 26.8987C16.615 25.6423 17.2308 23.9748 17.2308 22.2703H13.2308C13.2308 23.0269 12.955 23.7196 12.5138 24.2035L15.4694 26.8987ZM17.2308 22.2703V21.3424H13.2308V22.2703H17.2308ZM15.2308 23.3424H21.1538V19.3424H15.2308V23.3424ZM21.1538 23.3424C21.9713 23.3424 22.7135 22.9846 23.23 22.4182L20.2743 19.723C20.4735 19.5047 20.7852 19.3424 21.1538 19.3424V23.3424ZM23.23 22.4182C23.7409 21.858 24 21.1345 24 20.4145H20C20 20.1867 20.0808 19.9352 20.2743 19.723L23.23 22.4182ZM24 20.4145V17.6307H20V20.4145H24ZM24 17.6303C23.9999 16.9103 23.7406 16.187 23.2297 15.6268L20.2744 18.3225C20.0809 18.1103 20 17.8589 20 17.6311L24 17.6303ZM11.5385 22.2703C11.5385 22.5347 11.441 22.7554 11.3171 22.8912L14.2728 25.5864C15.101 24.6781 15.5385 23.4826 15.5385 22.2703L11.5385 22.2703ZM11.3171 22.8912C11.1989 23.0209 11.0801 23.0541 11 23.0541V27.0541C12.2663 27.0541 13.4389 26.5008 14.2728 25.5864L11.3171 22.8912ZM11 23.0541C10.9199 23.0541 10.8011 23.0209 10.6829 22.8912L7.7272 25.5864C8.56105 26.5008 9.73366 27.0541 11 27.0541V23.0541ZM10.6829 22.8912C10.559 22.7554 10.4615 22.5347 10.4615 22.2703H6.46154C6.46154 23.4826 6.89896 24.6781 7.7272 25.5864L10.6829 22.8912ZM10.4615 22.2703V21.3424H6.46154V22.2703H10.4615ZM8.46154 23.3424H13.5385V19.3424H8.46154V23.3424ZM11.5385 21.3424V22.2703H15.5385V21.3424H11.5385Z" fill="#062540" mask="url(#path-1-inside-1_2283_4840)"/>
</svg>
