<svg width="25" height="25" viewBox="0 0 25 25" fill="none" xmlns="http://www.w3.org/2000/svg">
<path d="M23.7825 10.7937L2.53251 0.126987C2.31855 0.0190085 2.08023 -0.0218834 1.84532 0.00907702C1.61041 0.0400375 1.38858 0.141575 1.2057 0.301856C1.02281 0.462137 0.886404 0.67456 0.812364 0.914367C0.738323 1.15417 0.729703 1.41149 0.787509 1.65632L3.21126 12.0003L0.787509 22.3443C0.729162 22.5892 0.737405 22.8468 0.811273 23.0869C0.885141 23.327 1.02158 23.5397 1.20463 23.7002C1.38768 23.8606 1.60977 23.9621 1.84492 23.9928C2.08008 24.0236 2.31857 23.9822 2.53251 23.8737L23.7825 13.207C23.9973 13.0993 24.1788 12.9287 24.306 12.715C24.4332 12.5013 24.5007 12.2534 24.5007 12.0003C24.5007 11.7472 24.4332 11.4993 24.306 11.2857C24.1788 11.072 23.9973 10.9013 23.7825 10.7937ZM3.85126 20.263L4.90001 15.787L12 12.0003L4.90001 8.21365L3.85126 3.73765L20.3138 12.0003L3.85126 20.263Z" fill="#062540"/>
</svg>
