<svg width="29" height="29" viewBox="0 0 29 29" fill="none" xmlns="http://www.w3.org/2000/svg">
<path d="M14.04 1.49418C15.6416 1.49418 17.1777 2.13116 18.3105 3.26536C19.4434 4.39961 20.08 5.93822 20.08 7.5428C20.08 9.14738 19.4434 10.686 18.3105 11.8202C17.1777 12.9544 15.6416 13.5914 14.04 13.5914C12.4385 13.5914 10.9023 12.9544 9.76953 11.8202C8.63668 10.686 8.00004 9.14738 8.00004 7.5428C8.00004 5.93822 8.63668 4.39961 9.76953 3.26536C10.9023 2.13116 12.4385 1.49418 14.04 1.49418ZM23.5109 20.9664C25.9412 22.183 27.08 23.6869 27.08 25.0644V27.6087H1.00004V25.0644C1.00004 23.6869 2.13887 22.183 4.56916 20.9664C6.94262 19.7782 10.2893 19.0157 14.04 19.0157C17.7908 19.0157 21.1375 19.7782 23.5109 20.9664Z" stroke="#062540" stroke-width="1.92"/>
</svg>
