<svg width="84" height="84" viewBox="0 0 84 84" fill="none" xmlns="http://www.w3.org/2000/svg">
<path d="M66.3821 24.0983L66.0483 23.5509C63.2483 18.937 58.1855 16.1553 52.8473 16.4924C52.16 16.5358 51.4768 16.6295 50.8032 16.7727C45.9506 17.8123 41.7272 21.4818 39.9767 26.1825C38.9471 28.9475 38.6601 32.1297 36.7061 34.324C34.1647 37.1791 29.8478 37.2692 26.0532 37.1508C22.2586 37.0323 17.9383 37.1324 15.4086 39.9992C13.825 41.7947 13.3211 44.3478 13.4496 46.7524C13.7833 53.1185 18.2237 58.8103 23.8638 61.6404C29.504 64.4705 36.1471 64.7225 42.3212 63.476C50.9717 61.7322 59.1967 56.9431 64.141 49.5475C69.0853 42.1518 70.3369 32.0813 66.3821 24.0983Z" fill="#F5F5F5"/>
<path d="M78.3798 80.9477C78.3798 80.971 62.2102 80.9911 42.2693 80.9911C22.3285 80.9911 6.15552 80.971 6.15552 80.9477C6.15552 80.9243 22.3218 80.9043 42.2693 80.9043C62.2168 80.9043 78.3798 80.9293 78.3798 80.9477Z" fill="#263238"/>
<path d="M27.5713 21.6893C27.5713 21.6893 26.2364 20.3327 25.0182 21.3823L24.6962 20.1875C24.6962 20.1875 27.1875 19.1863 27.9034 20.9718L27.5713 21.6893Z" fill="#455A64"/>
<path d="M8.15132 68.8931C8.15132 68.8931 7.71579 67.0475 6.12219 67.3128L6.45593 66.123C6.45593 66.123 9.10414 66.5552 8.7921 68.4592L8.15132 68.8931Z" fill="#455A64"/>
<path d="M70.5002 76.1961C70.5002 76.1961 68.7631 75.4352 68.0171 76.8636L67.2712 75.8757C67.2712 75.8757 69.2069 74.0185 70.5385 75.4018L70.5002 76.1961Z" fill="#455A64"/>
<path d="M47.7878 8.25081C47.7878 8.25081 45.4349 8.73306 45.7103 10.7538L44.2168 10.2783C44.2168 10.2783 44.8626 6.94088 47.2521 7.39977L47.7878 8.25081Z" fill="#455A64"/>
<path d="M11.2402 30.6152C11.2402 30.6152 9.35454 30.8255 9.42463 32.4374L8.28491 31.9552C8.28491 31.9552 9.03582 29.3787 10.8797 29.9127L11.2402 30.6152Z" fill="#FA8A3C"/>
<path d="M26.7104 44.5352C26.7104 44.5352 26.3917 46.4041 27.9619 46.7829L27.1827 47.7457C27.1827 47.7457 24.9133 46.3123 25.9362 44.687L26.7104 44.5352Z" fill="#FA8A3C"/>
<path d="M66.048 53.0972C66.048 53.0972 65.9729 51.2032 64.3593 51.1582L64.9216 50.0552C64.9216 50.0552 67.438 50.9863 66.7738 52.7885L66.048 53.0972Z" fill="#FA8A3C"/>
<path d="M27.4547 10.5811C27.4547 10.5811 27.3796 8.68712 25.766 8.64207L26.3267 7.53906C26.3267 7.53906 28.8447 8.47019 28.1806 10.2724L27.4547 10.5811Z" fill="#FA8A3C"/>
<path d="M54.1621 28.8666C54.1621 28.8666 55.9343 29.534 56.6067 28.0723L57.4027 29.0201C57.4027 29.0201 55.5671 30.9724 54.1621 29.6558V28.8666Z" fill="#FA8A3C"/>
<path d="M15.2349 17.3942C15.2349 17.4932 15.2055 17.59 15.1505 17.6723C15.0955 17.7546 15.0173 17.8188 14.9258 17.8567C14.8343 17.8946 14.7337 17.9045 14.6366 17.8851C14.5395 17.8658 14.4503 17.8182 14.3803 17.7481C14.3103 17.6781 14.2626 17.5889 14.2433 17.4918C14.2239 17.3947 14.2339 17.2941 14.2717 17.2026C14.3096 17.1111 14.3738 17.0329 14.4561 16.9779C14.5385 16.9229 14.6352 16.8936 14.7342 16.8936C14.867 16.8936 14.9943 16.9463 15.0882 17.0402C15.1821 17.1341 15.2349 17.2614 15.2349 17.3942Z" fill="#455A64"/>
<path d="M11.986 44.7184C11.986 44.8174 11.9566 44.9142 11.9016 44.9965C11.8466 45.0788 11.7684 45.143 11.6769 45.1809C11.5855 45.2188 11.4848 45.2287 11.3877 45.2094C11.2906 45.1901 11.2014 45.1424 11.1314 45.0724C11.0614 45.0024 11.0137 44.9132 10.9944 44.816C10.975 44.7189 10.985 44.6183 11.0228 44.5268C11.0607 44.4353 11.1249 44.3571 11.2072 44.3021C11.2896 44.2471 11.3863 44.2178 11.4854 44.2178C11.6181 44.2178 11.7455 44.2705 11.8393 44.3644C11.9332 44.4583 11.986 44.5856 11.986 44.7184Z" fill="#455A64"/>
<path d="M77.7056 50.4703C77.7056 50.5693 77.6762 50.6661 77.6212 50.7485C77.5662 50.8308 77.488 50.8949 77.3965 50.9328C77.305 50.9707 77.2044 50.9806 77.1073 50.9613C77.0102 50.942 76.921 50.8943 76.851 50.8243C76.781 50.7543 76.7333 50.6651 76.714 50.568C76.6946 50.4709 76.7046 50.3702 76.7425 50.2788C76.7803 50.1873 76.8445 50.1091 76.9268 50.0541C77.0092 49.9991 77.1059 49.9697 77.205 49.9697C77.3377 49.9697 77.4651 50.0225 77.5589 50.1164C77.6528 50.2102 77.7056 50.3376 77.7056 50.4703Z" fill="#455A64"/>
<path d="M24.2324 70.5333C24.2324 70.6323 24.2031 70.7291 24.148 70.8114C24.093 70.8938 24.0149 70.9579 23.9234 70.9958C23.8319 71.0337 23.7313 71.0436 23.6341 71.0243C23.537 71.005 23.4478 70.9573 23.3778 70.8873C23.3078 70.8173 23.2601 70.7281 23.2408 70.631C23.2215 70.5339 23.2314 70.4332 23.2693 70.3417C23.3072 70.2503 23.3714 70.1721 23.4537 70.1171C23.536 70.0621 23.6328 70.0327 23.7318 70.0327C23.8646 70.0327 23.9919 70.0855 24.0858 70.1793C24.1797 70.2732 24.2324 70.4005 24.2324 70.5333Z" fill="#455A64"/>
<path d="M74.4432 30.6759C74.4432 30.7749 74.4139 30.8717 74.3589 30.954C74.3039 31.0363 74.2257 31.1005 74.1342 31.1384C74.0427 31.1763 73.9421 31.1862 73.845 31.1669C73.7479 31.1476 73.6586 31.0999 73.5886 31.0299C73.5186 30.9599 73.471 30.8707 73.4516 30.7736C73.4323 30.6765 73.4422 30.5758 73.4801 30.4843C73.518 30.3929 73.5822 30.3147 73.6645 30.2597C73.7468 30.2047 73.8436 30.1753 73.9426 30.1753C74.0754 30.1753 74.2027 30.228 74.2966 30.3219C74.3905 30.4158 74.4432 30.5431 74.4432 30.6759Z" fill="#FA8A3C"/>
<path d="M60.5916 67.5089C60.5916 67.6079 60.5622 67.7047 60.5072 67.787C60.4522 67.8694 60.374 67.9335 60.2825 67.9714C60.191 68.0093 60.0904 68.0192 59.9933 67.9999C59.8962 67.9806 59.807 67.9329 59.737 67.8629C59.6669 67.7929 59.6193 67.7037 59.6 67.6066C59.5806 67.5095 59.5905 67.4088 59.6284 67.3173C59.6663 67.2259 59.7305 67.1477 59.8128 67.0927C59.8951 67.0377 59.9919 67.0083 60.0909 67.0083C60.2237 67.0083 60.351 67.061 60.4449 67.1549C60.5388 67.2488 60.5916 67.3761 60.5916 67.5089Z" fill="#FA8A3C"/>
<path d="M32.1588 78.6085C32.3601 79.1611 32.3926 79.7611 32.2522 80.3322H32.2806C32.3565 80.3465 32.4243 80.3887 32.4706 80.4504C32.517 80.5122 32.5385 80.5891 32.5309 80.666C32.5259 80.7078 32.5124 80.7482 32.4911 80.7846C32.4699 80.8211 32.4415 80.8528 32.4076 80.8778C32.3736 80.9028 32.335 80.9206 32.2939 80.9301C32.2528 80.9396 32.2102 80.9406 32.1688 80.933L17.8881 78.2931C17.8133 78.2793 17.7469 78.2365 17.7035 78.174C17.66 78.1115 17.643 78.0343 17.6562 77.9594C17.6689 77.8883 17.7078 77.8246 17.7654 77.781C17.8229 77.7374 17.8947 77.7171 17.9666 77.7241L18.2836 77.7525C18.2836 77.7525 18.9895 75.0992 21.384 75.6232C23.7786 76.1472 23.7202 77.7424 25.6175 78.0678C27.5148 78.3932 27.5298 77.0032 27.5298 77.0032L32.1588 78.6085Z" fill="#FA8A3C"/>
<path d="M32.2557 80.3347C32.2064 80.3329 32.1573 80.3273 32.1088 80.318L31.6916 80.2513C31.3312 80.1928 30.8072 80.1044 30.1615 79.9893C28.8682 79.7623 27.0827 79.4286 25.122 79.0581L20.0876 78.122L18.5607 77.845L18.1452 77.7666C18.0968 77.7587 18.0489 77.7481 18.0017 77.7349C18.051 77.7354 18.1002 77.7404 18.1486 77.7499L18.5657 77.8116C18.9278 77.8667 19.4518 77.9518 20.0976 78.0603C21.3908 78.2789 23.173 78.6026 25.1387 78.973L30.1698 79.9292L31.695 80.2179L32.1088 80.2996C32.1587 80.3071 32.2078 80.3188 32.2557 80.3347Z" fill="#263238"/>
<path d="M21.2506 75.9406C21.2506 75.9556 21.067 75.9206 20.775 75.9406C20.395 75.9644 20.027 76.083 19.7046 76.2856C19.3822 76.4882 19.1157 76.7683 18.9294 77.1003C18.7842 77.354 18.7358 77.5325 18.7225 77.5275C18.7215 77.4841 18.7295 77.4409 18.7459 77.4007C18.7776 77.2853 18.8212 77.1734 18.876 77.067C19.054 76.7151 19.3245 76.4184 19.6585 76.2087C19.9925 75.9991 20.3774 75.8845 20.7716 75.8772C20.8901 75.8738 21.0086 75.8822 21.1254 75.9022C21.1691 75.9072 21.2116 75.9202 21.2506 75.9406Z" fill="white"/>
<path d="M42.2793 78.5933C41.9803 79.0967 41.8369 79.6772 41.8671 80.262H41.837C41.7594 80.2621 41.6846 80.2916 41.6277 80.3445C41.5708 80.3974 41.5359 80.4698 41.53 80.5473C41.526 80.5897 41.531 80.6325 41.5446 80.6729C41.5581 80.7133 41.58 80.7504 41.6088 80.7818C41.6375 80.8132 41.6725 80.8383 41.7116 80.8554C41.7506 80.8725 41.7928 80.8812 41.8354 80.881L56.353 80.9461C56.391 80.9463 56.4288 80.939 56.464 80.9246C56.4992 80.9102 56.5312 80.889 56.5582 80.8621C56.5852 80.8353 56.6066 80.8034 56.6212 80.7683C56.6358 80.7332 56.6433 80.6955 56.6433 80.6574C56.6433 80.5854 56.6164 80.5159 56.568 80.4626C56.5196 80.4092 56.453 80.3758 56.3813 80.3687L56.066 80.3387C56.066 80.3387 55.8674 77.5987 53.4178 77.6688C50.9681 77.7389 50.7245 79.3141 48.8022 79.2808C46.8798 79.2474 47.1218 77.8774 47.1218 77.8774L42.2793 78.5933Z" fill="#FA8A3C"/>
<path d="M41.8673 80.2746C41.9162 80.2717 41.9652 80.2717 42.0142 80.2746H49.1094C51.1119 80.2746 52.9207 80.293 54.2323 80.3197C54.8864 80.333 55.4171 80.3464 55.7842 80.3597L56.2064 80.3781C56.2555 80.3782 56.3046 80.3821 56.3532 80.3898C56.3038 80.3941 56.2541 80.3941 56.2047 80.3898H55.7842L54.2323 80.3764L49.1094 80.3531C47.107 80.3531 45.2981 80.3447 43.9882 80.328C43.3324 80.3197 42.8018 80.3097 42.4363 80.2997L42.0142 80.2863C41.965 80.2864 41.9159 80.2825 41.8673 80.2746Z" fill="#263238"/>
<path d="M53.4948 78.0128C53.5369 78.0001 53.5812 77.9961 53.6249 78.0011C53.7433 78.0036 53.8613 78.0176 53.977 78.0428C54.3631 78.1236 54.7198 78.3082 55.0089 78.5766C55.2979 78.8451 55.5083 79.1873 55.6173 79.5663C55.6509 79.6796 55.6733 79.7958 55.6841 79.9134C55.6841 79.9969 55.6841 80.0436 55.6841 80.0436C55.6841 80.0436 55.6557 79.8617 55.5606 79.5847C55.4395 79.2237 55.2299 78.8989 54.9509 78.6397C54.672 78.3806 54.3325 78.1955 53.9637 78.1012C53.68 78.0278 53.4948 78.0278 53.4948 78.0128Z" fill="white"/>
<path d="M46.0456 24.1969C46.0718 23.9867 46.0472 23.7734 45.9737 23.5747C45.9002 23.3761 45.7801 23.198 45.6234 23.0555C45.7758 22.8489 45.8687 22.6046 45.8922 22.349C45.9156 22.0934 45.8687 21.8363 45.7564 21.6054C45.6442 21.3746 45.4709 21.1788 45.2554 21.0394C45.0399 20.9 44.7903 20.8222 44.5338 20.8145C44.5478 20.5916 44.5062 20.3688 44.4128 20.166C44.3193 19.9632 44.1768 19.7868 43.9983 19.6528C43.8197 19.5187 43.6106 19.4312 43.3897 19.398C43.1689 19.3648 42.9433 19.3871 42.7332 19.4628C42.9418 19.019 42.5914 18.475 42.1342 18.2947C41.677 18.1145 41.1647 18.2013 40.6824 18.2947C40.5418 18.0496 40.3473 17.8396 40.1137 17.6807C39.88 17.5217 39.6133 17.4179 39.3337 17.3771C39.0541 17.3362 38.7688 17.3595 38.4995 17.445C38.2301 17.5306 37.9837 17.6762 37.7789 17.8709C37.5709 17.6162 37.2907 17.4305 36.9751 17.3383C36.6594 17.246 36.3233 17.2516 36.0109 17.3542C35.6985 17.4568 35.4245 17.6517 35.2251 17.9132C35.0257 18.1746 34.9101 18.4903 34.8937 18.8187C34.6058 18.7865 34.3143 18.8226 34.0429 18.9241C33.7715 19.0255 33.5278 19.1895 33.3317 19.4028C33.1355 19.616 32.9923 19.8725 32.9138 20.1514C32.8352 20.4303 32.8235 20.7238 32.8796 21.008C32.5708 21.0745 32.2863 21.2251 32.0578 21.4432C31.8292 21.6612 31.6654 21.9383 31.5846 22.2437C31.5038 22.5491 31.509 22.8709 31.5997 23.1735C31.6904 23.4761 31.8631 23.7477 32.0987 23.9583C31.7249 24.3988 31.4479 24.9745 31.553 25.5419C31.6581 26.1092 32.2789 26.5865 32.8179 26.3762L32.8796 26.5514C32.671 26.7506 32.5377 27.0158 32.5023 27.302C32.4669 27.5883 32.5316 27.878 32.6854 28.122C32.8392 28.366 33.0727 28.5492 33.3463 28.6407C33.6198 28.7322 33.9165 28.7263 34.1862 28.6239C34.2584 28.8902 34.3939 29.1351 34.581 29.3377C34.7682 29.5404 35.0015 29.695 35.2611 29.7882C35.5208 29.8814 35.7991 29.9105 36.0724 29.8731C36.3457 29.8358 36.606 29.7329 36.8311 29.5734C37.0037 29.8885 37.2598 30.1499 37.5712 30.3288C37.8827 30.5078 38.2375 30.5975 38.5966 30.588C38.9551 30.5701 39.3053 30.4737 39.6225 30.3056C39.9397 30.1375 40.2161 29.9018 40.4321 29.6151C40.4702 29.5538 40.5245 29.5041 40.589 29.4716C40.677 29.4529 40.7688 29.4665 40.8476 29.51C41.4817 29.7586 42.2026 29.8604 42.8417 29.6285C43.4808 29.3965 44.0098 28.7741 43.9731 28.095C44.3118 28.098 44.6442 28.0035 44.9307 27.8228C45.2171 27.6421 45.4456 27.3828 45.5888 27.0759C45.732 26.769 45.7838 26.4273 45.7382 26.0917C45.6926 25.7561 45.5513 25.4407 45.3314 25.1831C45.5209 25.0881 45.6847 24.9489 45.809 24.7773C45.9333 24.6056 46.0145 24.4065 46.0456 24.1969Z" fill="#FA8A3C"/>
<g opacity="0.3">
<path opacity="0.3" d="M38.5967 30.5858C38.237 30.5953 37.8816 30.5053 37.5698 30.3257C37.258 30.1461 37.0018 29.8838 36.8296 29.5679C36.6045 29.7274 36.3442 29.8302 36.0709 29.8676C35.7976 29.905 35.5193 29.8759 35.2596 29.7826C35 29.6894 34.7666 29.5349 34.5795 29.3322C34.3924 29.1295 34.2569 28.8847 34.1847 28.6184C33.915 28.7208 33.6183 28.7267 33.3447 28.6352C33.0712 28.5437 32.8377 28.3604 32.6839 28.1164C32.5301 27.8725 32.4654 27.5828 32.5008 27.2965C32.5362 27.0103 32.6695 26.7451 32.8781 26.5459C32.8781 26.5459 33.4488 27.3552 34.3449 27.0982C34.3449 27.0982 34.4367 28.041 35.6798 27.9209L35.8951 27.8041L37.2884 28.0627L38.5967 30.5858Z" fill="black"/>
</g>
<path d="M42.2376 23.0294C41.9807 22.1733 41.4108 21.4455 40.6415 20.9906C39.8722 20.5357 38.9598 20.3873 38.0859 20.5747L37.9057 20.6131C35.9884 21.1437 35.3676 23.0677 35.95 24.97L37.7972 31.1592L37.9157 31.6031L41.6719 32.938L42.2393 31.1943L42.0157 29.9694C42.0157 29.9694 43.8195 29.2786 43.4424 27.408C43.2689 26.5069 42.7332 24.678 42.2376 23.0294Z" fill="#FFBF9D"/>
<path d="M36.7109 26.8561C36.9896 28.398 38.1109 29.1789 39.6161 29.6094C40.055 29.7346 40.8225 29.8781 41.2764 29.838C41.7001 29.8263 42.1173 29.7316 42.5046 29.5594C42.7258 29.4522 42.9218 29.2994 43.0797 29.111C43.2376 28.9226 43.3538 28.7029 43.4207 28.4664C43.4685 28.2275 43.4887 27.984 43.4808 27.7405C43.4808 27.7405 43.3373 26.8945 43.1821 26.3238C43.0686 25.91 41.9556 21.8183 41.9556 21.8183C41.9556 21.8183 37.1564 21.4746 37.098 21.4846C37.0396 21.4946 35.93 24.046 35.8932 24.1144C35.8565 24.1829 36.7109 26.8561 36.7109 26.8561Z" fill="white"/>
<path d="M42.0121 29.9727C41.1502 30.1536 40.2544 30.0841 39.4307 29.7725C39.4307 29.7725 40.2917 30.9956 42.1006 30.4399L42.0121 29.9727Z" fill="#FF9A6C"/>
<path d="M41.8089 24.8923C41.8246 24.9615 41.8126 25.0341 41.7755 25.0946C41.7384 25.1551 41.6791 25.1986 41.6103 25.216C41.5765 25.227 41.5408 25.2309 41.5054 25.2276C41.47 25.2243 41.4356 25.2138 41.4044 25.1968C41.3732 25.1798 41.3457 25.1566 41.3238 25.1286C41.3018 25.1007 41.2858 25.0685 41.2766 25.0342C41.2609 24.965 41.2729 24.8924 41.31 24.8319C41.3471 24.7714 41.4064 24.7278 41.4752 24.7104C41.509 24.6992 41.5448 24.6951 41.5803 24.6983C41.6158 24.7015 41.6502 24.712 41.6815 24.729C41.7128 24.7461 41.7402 24.7694 41.7622 24.7974C41.7841 24.8255 41.8 24.8578 41.8089 24.8923Z" fill="#263238"/>
<path d="M42.0741 24.1151C42.0474 24.1569 41.8138 24.0501 41.5268 24.1151C41.2398 24.1802 41.0612 24.3654 41.0262 24.3371C40.9911 24.3087 41.0262 24.2553 41.1046 24.1702C41.2107 24.0579 41.3488 23.981 41.5001 23.9499C41.649 23.9162 41.8048 23.932 41.9439 23.995C42.0441 24.04 42.0875 24.0968 42.0741 24.1151Z" fill="#263238"/>
<path d="M39.2873 25.5174C39.3025 25.5868 39.2901 25.6594 39.2527 25.7198C39.2154 25.7802 39.156 25.8237 39.0871 25.8411C39.0538 25.851 39.0189 25.8541 38.9843 25.8503C38.9498 25.8464 38.9164 25.8357 38.8861 25.8188C38.8557 25.8018 38.8291 25.779 38.8078 25.7516C38.7864 25.7242 38.7707 25.6928 38.7617 25.6592C38.7461 25.59 38.7581 25.5174 38.7951 25.457C38.8322 25.3965 38.8915 25.3529 38.9603 25.3355C38.9937 25.3256 39.0288 25.3225 39.0634 25.3263C39.098 25.3301 39.1316 25.3408 39.162 25.3577C39.1925 25.3747 39.2193 25.3975 39.2408 25.4249C39.2623 25.4523 39.2781 25.4838 39.2873 25.5174Z" fill="#263238"/>
<path d="M39.3208 24.6638C39.2958 24.7055 39.0622 24.5987 38.7752 24.6638C38.4882 24.7288 38.3096 24.9157 38.2746 24.8874C38.2395 24.859 38.2746 24.8039 38.353 24.7205C38.4584 24.607 38.5967 24.5294 38.7485 24.4986C38.8975 24.4666 39.0528 24.4824 39.1923 24.5436C39.2908 24.587 39.3342 24.6437 39.3208 24.6638Z" fill="#263238"/>
<path d="M40.7224 26.5843C40.863 26.5042 41.0133 26.4425 41.1696 26.4007C41.2414 26.3774 41.3081 26.3473 41.3081 26.2956C41.2994 26.2182 41.266 26.1457 41.213 26.0887L40.8793 25.5764C40.4087 24.8472 40.0449 24.2414 40.08 24.2231C40.115 24.2047 40.5155 24.7804 40.9861 25.5096C41.1012 25.6899 41.2097 25.8617 41.3198 26.0269C41.3855 26.1048 41.421 26.2037 41.4199 26.3056C41.4146 26.3336 41.4032 26.3601 41.3865 26.3832C41.3697 26.4063 41.3481 26.4254 41.3231 26.4391C41.2843 26.4581 41.2435 26.4727 41.2013 26.4825C41.0469 26.5375 40.8859 26.5717 40.7224 26.5843Z" fill="#263238"/>
<path d="M41.2546 27.3104C41.2236 27.2774 41.1861 27.251 41.1445 27.2329C41.1029 27.2148 41.058 27.2054 41.0127 27.2053C40.9226 27.2053 40.8325 27.2186 40.7424 27.2186C40.3986 27.2186 40.2117 26.8115 40.0549 26.6997C39.9883 26.6589 39.9087 26.6453 39.8323 26.6614C39.756 26.6775 39.6887 26.7223 39.6444 26.7864C39.5518 26.9444 39.5176 27.1298 39.5476 27.3104C39.5981 27.5106 39.7159 27.6874 39.8813 27.811C40.0774 27.9704 40.3246 28.0533 40.5772 28.0446C40.7019 28.0403 40.824 28.0081 40.9346 27.9504C41.0452 27.8926 41.1415 27.8108 41.2163 27.7109C41.2639 27.6566 41.2933 27.5887 41.3002 27.5168C41.307 27.445 41.2911 27.3727 41.2546 27.3104Z" fill="#FA8A3C"/>
<path d="M39.9197 26.9613C39.9665 26.9496 40.0332 27.26 40.3469 27.4235C40.6606 27.587 40.986 27.4819 40.9977 27.5253C41.0094 27.5687 40.936 27.602 40.7975 27.6354C40.6156 27.6776 40.4246 27.654 40.2585 27.5687C40.1009 27.4858 39.9813 27.3454 39.9248 27.1765C39.8797 27.0497 39.898 26.9646 39.9197 26.9613Z" fill="#263238"/>
<path d="M39.1491 23.8399C39.1308 23.9217 38.8704 23.9084 38.5717 23.9768C38.2731 24.0452 38.0361 24.162 37.9894 24.0953C37.9677 24.0635 38.0027 23.9834 38.0945 23.8983C38.214 23.7922 38.3588 23.7187 38.515 23.6848C38.6686 23.6495 38.8289 23.6564 38.9789 23.7048C39.0974 23.7448 39.1575 23.8016 39.1491 23.8399Z" fill="#263238"/>
<path d="M41.8406 23.3426C41.8105 23.421 41.5969 23.4127 41.3633 23.4811C41.1297 23.5495 40.9461 23.6479 40.8811 23.5995C40.851 23.5745 40.8627 23.5011 40.9311 23.4143C41.0238 23.3053 41.148 23.2278 41.2865 23.1924C41.4236 23.1527 41.5698 23.1579 41.7037 23.2074C41.8055 23.2475 41.8522 23.3042 41.8406 23.3426Z" fill="#263238"/>
<path d="M36.6392 26.7152C36.6223 26.647 36.5917 26.583 36.5493 26.527C36.5069 26.471 36.4536 26.4242 36.3926 26.3895C36.3316 26.3547 36.2642 26.3326 36.1944 26.3246C36.1247 26.3167 36.054 26.3229 35.9867 26.3431C35.653 26.4515 35.3009 26.7319 35.4861 27.4461C35.7998 28.7143 37.0063 28.1369 36.9996 28.1002C36.993 28.0635 36.776 27.2442 36.6392 26.7152Z" fill="#FFBF9D"/>
<path d="M36.5942 27.6974C36.5942 27.6974 36.5758 27.7191 36.5441 27.7441C36.4966 27.7806 36.4367 27.7968 36.3773 27.7892C36.2321 27.7725 36.0669 27.5889 36.0035 27.362C35.9731 27.2534 35.9674 27.1393 35.9868 27.0283C35.9888 26.9858 36.0011 26.9445 36.0226 26.9079C36.0441 26.8713 36.0742 26.8404 36.1103 26.818C36.134 26.8049 36.1615 26.8006 36.188 26.8058C36.2146 26.811 36.2384 26.8253 36.2555 26.8464C36.2821 26.8781 36.2805 26.9048 36.2872 26.9048C36.2938 26.9048 36.3088 26.8781 36.2872 26.828C36.2729 26.7984 36.2487 26.7748 36.2187 26.7613C36.1982 26.7525 36.176 26.748 36.1537 26.748C36.1313 26.748 36.1092 26.7525 36.0886 26.7613C36.0392 26.7845 35.9965 26.82 35.9647 26.8644C35.9328 26.9088 35.9129 26.9606 35.9067 27.0149C35.8793 27.1379 35.8828 27.2657 35.9167 27.387C35.9885 27.6407 36.1787 27.8476 36.3756 27.8559C36.4121 27.8568 36.4484 27.8497 36.4819 27.835C36.5153 27.8203 36.5451 27.7984 36.5692 27.7708C36.6059 27.7224 36.6042 27.6974 36.5942 27.6974Z" fill="#FF9A6C"/>
<path d="M42.2678 21.3862C42.0007 20.8813 41.5742 20.4789 41.0547 20.2415C40.5361 20.0081 39.9788 19.8728 39.411 19.8427C39.039 19.8046 38.6634 19.8255 38.298 19.9044C37.8833 20.0239 37.4893 20.2062 37.1299 20.4451C36.9137 20.5655 36.7121 20.7105 36.5292 20.8773C36.3517 21.0568 36.2016 21.2615 36.0836 21.4847C35.2676 22.9565 34.3682 22.9231 35.2676 24.3465C35.4562 24.6001 36.4123 26.9513 36.7227 26.8645C37.2367 26.7227 37.1349 25.1641 37.0331 24.46C37.7406 24.1379 38.0193 23.2618 37.8074 22.5143C37.9777 22.6641 38.1801 22.773 38.399 22.8327C38.6179 22.8924 38.8475 22.9012 39.0704 22.8585C39.2932 22.8159 39.5033 22.7228 39.6847 22.5865C39.8661 22.4502 40.0139 22.2742 40.1168 22.0721C40.2837 22.4942 40.8027 22.6578 41.2582 22.6661C41.4866 22.6785 41.7147 22.6391 41.9257 22.551C42.0325 22.5052 42.1279 22.4367 42.2055 22.3503C42.283 22.2638 42.3407 22.1615 42.3746 22.0504C42.4182 21.8233 42.3804 21.5882 42.2678 21.3862Z" fill="#FA8A3C"/>
<g opacity="0.3">
<path opacity="0.3" d="M40.1667 20.6698C39.9864 20.3611 39.5492 20.1008 39.2222 20.2443C39.3706 20.0525 39.4535 19.8181 39.4586 19.5757C39.4637 19.3332 39.3908 19.0955 39.2505 18.8977C39.1134 18.7094 38.917 18.5725 38.6928 18.5089C38.4686 18.4454 38.2296 18.4589 38.014 18.5473C38.0007 18.327 37.8472 18.065 37.7704 17.8598C37.5052 17.5467 37.1339 17.3423 36.7275 17.2857C36.6424 17.2757 36.5523 17.2707 36.4572 17.269C36.3862 17.2702 36.3154 17.2763 36.2452 17.2874H36.2319C36.1537 17.299 36.0766 17.3175 36.0016 17.3425C35.7556 17.4279 35.533 17.5697 35.3516 17.7566C35.1702 17.9435 35.0351 18.1703 34.957 18.4188C34.9271 18.5197 34.9058 18.6229 34.8936 18.7275C34.8936 18.7542 34.8936 18.7792 34.8853 18.8076C34.5184 18.7687 34.1483 18.8402 33.8223 19.0128C33.7186 19.0723 33.6184 19.1375 33.5219 19.2081C33.3348 19.3569 33.1794 19.5416 33.0648 19.7514C32.9501 19.9611 32.8786 20.1917 32.8545 20.4295C32.8352 20.5959 32.8352 20.7638 32.8545 20.9301C32.8545 20.9535 32.8545 20.9752 32.8661 20.9969C32.6953 21.0244 32.5352 21.098 32.403 21.2096C32.2708 21.3213 32.1715 21.4668 32.1157 21.6306C32.06 21.7944 32.0499 21.9703 32.0866 22.1394C32.1232 22.3085 32.2052 22.4645 32.3238 22.5905C32.5291 22.8308 33.2666 23.0627 33.6888 22.9626C33.4335 23.0894 33.5036 23.5366 33.6554 23.7769C33.7866 23.9872 33.9583 24.1693 34.1606 24.3126C34.3628 24.4558 34.5916 24.5574 34.8335 24.6113C35.0673 24.6628 35.3116 24.6343 35.5273 24.5306C35.743 24.4268 35.9176 24.2537 36.0233 24.0389C36.2853 24.5212 37.0362 24.5495 37.3766 24.2208C37.4417 24.1724 37.5852 24.0289 37.7788 23.6101C37.9079 23.2557 37.9132 22.8681 37.7938 22.5104C37.9652 22.6585 38.1677 22.7662 38.3863 22.8257C38.6049 22.8852 38.8341 22.8949 39.057 22.8541C39.1371 22.8358 39.324 22.7724 39.3907 22.7507C39.7156 22.5933 39.9774 22.3303 40.1333 22.0048C40.1878 21.8844 40.2292 21.7586 40.2568 21.6293C40.3218 21.2772 40.3485 20.9785 40.1667 20.6698Z" fill="black"/>
</g>
<path d="M37.6238 23.9286C37.6034 23.9708 37.58 24.0115 37.5537 24.0504C37.4789 24.1606 37.3851 24.2567 37.2767 24.3341C37.1047 24.4621 36.8912 24.5216 36.6777 24.5009C36.5382 24.4884 36.4037 24.4427 36.2855 24.3675C36.1674 24.2923 36.0689 24.1898 35.9985 24.0688H36.0619C35.9613 24.2599 35.8088 24.4187 35.622 24.527C35.4351 24.6354 35.2215 24.6888 35.0057 24.6812C34.7603 24.666 34.5214 24.5968 34.3059 24.4785C34.0904 24.3602 33.9037 24.1958 33.7591 23.997C33.6305 23.8527 33.5353 23.6818 33.4805 23.4964C33.4546 23.4017 33.4512 23.3023 33.4705 23.206C33.4802 23.1558 33.5013 23.1084 33.5323 23.0676C33.5633 23.0268 33.6032 22.9936 33.649 22.9708L33.669 23.0509C33.1881 23.1002 32.7064 22.9642 32.3224 22.6704C32.1732 22.5225 32.0785 22.3284 32.0537 22.1197C32.0256 21.9443 32.0422 21.7647 32.1021 21.5974C32.1511 21.4608 32.2358 21.3398 32.3474 21.247C32.4281 21.1757 32.5207 21.1192 32.6211 21.0801C32.6822 21.0541 32.746 21.035 32.8113 21.0234C32.8336 21.0169 32.8566 21.013 32.8797 21.0117C32.8602 21.0236 32.8387 21.032 32.8163 21.0367C32.7532 21.0546 32.6917 21.078 32.6328 21.1068C32.5227 21.1526 32.4233 21.2208 32.3409 21.307C32.2584 21.3931 32.1948 21.4954 32.1539 21.6074C32.0987 21.7684 32.086 21.9408 32.1172 22.108C32.1437 22.2981 32.2323 22.4741 32.3691 22.6087C32.7416 22.8837 33.2036 23.0094 33.664 22.9607L33.8876 22.9457L33.6857 23.0408C33.5422 23.1076 33.5189 23.3028 33.5639 23.4697C33.6161 23.6455 33.7061 23.8079 33.8276 23.9453C33.9643 24.1337 34.1406 24.2898 34.3442 24.4028C34.5477 24.5158 34.7735 24.5829 35.0057 24.5994C35.2067 24.6087 35.4063 24.5613 35.5816 24.4624C35.7569 24.3635 35.9008 24.2173 35.9969 24.0404L36.0269 23.977L36.0603 24.0387C36.1245 24.1514 36.2146 24.2472 36.3231 24.3183C36.4316 24.3894 36.5554 24.4337 36.6844 24.4475C36.8843 24.4721 37.0864 24.4235 37.2534 24.3107C37.3616 24.2387 37.4574 24.1497 37.5371 24.0471C37.5619 24.0048 37.591 23.9651 37.6238 23.9286Z" fill="#263238"/>
<path d="M39.9998 22.0757C40.0593 22.0468 40.11 22.0024 40.1466 21.9472C40.229 21.7816 40.2692 21.5981 40.2634 21.4132C40.2872 21.1373 40.2291 20.8604 40.0965 20.6173C40.0104 20.4803 39.8864 20.3713 39.7394 20.3036C39.6622 20.265 39.5776 20.2433 39.4913 20.2399C39.405 20.2364 39.3189 20.2513 39.2388 20.2835L39.097 20.3553L39.1921 20.2251C39.2821 20.1021 39.3457 19.9617 39.379 19.813C39.4305 19.5806 39.4107 19.3381 39.3223 19.1171C39.2403 18.9154 39.0966 18.7449 38.9118 18.6299C38.7652 18.5347 38.5992 18.4736 38.426 18.451C38.2527 18.4285 38.0766 18.4451 37.9106 18.4997L37.8772 18.5114V18.4763C37.8601 18.2573 37.8192 18.0408 37.7554 17.8306C37.7876 17.8822 37.8118 17.9385 37.8271 17.9974C37.8818 18.1531 37.916 18.3152 37.9289 18.4797L37.8939 18.4563C38.0671 18.393 38.2526 18.3703 38.436 18.3899C38.6195 18.4096 38.7959 18.4711 38.9518 18.5698C39.1522 18.6924 39.3087 18.8752 39.399 19.0921C39.4956 19.3291 39.5177 19.5898 39.4624 19.8397C39.4263 19.9999 39.3575 20.151 39.2605 20.2835L39.2088 20.2185C39.2993 20.182 39.3966 20.1652 39.4942 20.1692C39.5917 20.1732 39.6873 20.198 39.7745 20.2418C39.9356 20.3172 40.0709 20.4386 40.1633 20.5906C40.3022 20.8454 40.3604 21.1363 40.3302 21.4249C40.3294 21.6175 40.2788 21.8066 40.1833 21.9739C40.0865 22.079 39.9964 22.079 39.9998 22.0757Z" fill="#263238"/>
<g opacity="0.3">
<path opacity="0.3" d="M43.1487 26.1973C43.4457 26.3341 43.9997 26.4059 44.2767 26.2306C44.4146 26.1419 44.5285 26.0205 44.6085 25.8774C44.6886 25.7342 44.7322 25.5736 44.7356 25.4097C45.1576 25.3488 45.5394 25.1262 45.8002 24.7889C45.9125 24.6214 45.9896 24.4328 46.0269 24.2346C46.0642 24.0364 46.0609 23.8327 46.0171 23.6358C46.0171 23.6358 45.877 23.1803 45.6233 23.0501C45.771 22.8415 45.8611 22.5976 45.8845 22.343C45.908 22.0884 45.8639 21.8322 45.7568 21.6C45.6473 21.367 45.4746 21.1694 45.2584 21.0295C45.0422 20.8897 44.7911 20.8133 44.5337 20.8091C44.558 20.9404 44.5528 21.0754 44.5185 21.2044C44.4841 21.3334 44.4215 21.4532 44.3351 21.555C44.2516 21.6715 44.1449 21.7695 44.0217 21.8427C43.8985 21.9159 43.7615 21.9628 43.6192 21.9805C43.694 22.1836 43.7251 22.4002 43.7103 22.6161C43.6955 22.832 43.6352 23.0423 43.5334 23.2333C43.4317 23.4243 43.2906 23.5916 43.1196 23.7242C42.9487 23.8568 42.7515 23.9518 42.5413 24.003L43.1487 26.1973Z" fill="black"/>
</g>
<path d="M44.507 20.7236C44.5273 20.763 44.5392 20.8062 44.542 20.8505C44.5603 20.9721 44.5552 21.0961 44.527 21.2159C44.4845 21.3993 44.3921 21.5673 44.26 21.7015C44.0927 21.8706 43.8736 21.9787 43.6376 22.0085L43.6726 21.9518C43.7436 22.1574 43.773 22.3751 43.7593 22.5922C43.7455 22.8094 43.6888 23.0216 43.5925 23.2166C43.4886 23.4251 43.3398 23.608 43.157 23.7523C43.0353 23.8501 42.899 23.9284 42.7532 23.9842C42.7007 24.0089 42.6441 24.0236 42.5863 24.0276C42.7759 23.9438 42.9537 23.8355 43.1153 23.7056C43.2844 23.5604 43.4218 23.3821 43.5191 23.1816C43.636 22.9351 43.6883 22.6629 43.671 22.3906C43.6635 22.2508 43.6366 22.1126 43.5909 21.9802L43.5742 21.9301H43.6259C43.8224 21.907 44.0076 21.8261 44.1581 21.6978C44.3087 21.5695 44.4179 21.3995 44.4719 21.2092C44.5104 21.0504 44.5222 20.8863 44.507 20.7236Z" fill="#263238"/>
<path d="M35.6781 27.9221C35.6781 27.9221 35.6447 27.9638 35.5546 27.9922C35.4261 28.0213 35.2917 28.0108 35.1692 27.9622C34.9886 27.8967 34.8171 27.8086 34.6585 27.7002C34.5532 27.6368 34.4654 27.548 34.4033 27.4418C34.3412 27.3357 34.3068 27.2157 34.3031 27.0928L34.3615 27.1362H34.3332C34.1016 27.2149 33.8512 27.219 33.6173 27.1479C33.4259 27.0905 33.2532 26.9834 33.1167 26.8375C33.0259 26.7404 32.954 26.6272 32.9048 26.5037C32.8819 26.4611 32.8693 26.4136 32.868 26.3652C32.9427 26.5214 33.0412 26.6649 33.1601 26.7908C33.3072 26.9356 33.4917 27.0366 33.693 27.0826C33.8943 27.1286 34.1044 27.1176 34.2998 27.0511L34.3265 27.0427L34.3866 27.0227V27.0844C34.391 27.193 34.4219 27.2989 34.4766 27.3928C34.5313 27.4868 34.608 27.5659 34.7003 27.6234C34.8522 27.7289 35.015 27.8179 35.1859 27.8887C35.2982 27.9393 35.4224 27.9578 35.5446 27.9421C35.6331 27.9438 35.6748 27.9138 35.6781 27.9221Z" fill="#263238"/>
<path d="M45.9938 23.5713C46.0155 23.6247 46.0296 23.6808 46.0355 23.7382C46.0566 23.8988 46.0566 24.0615 46.0355 24.2221C46.0105 24.4663 45.9154 24.6981 45.7619 24.8896C45.5635 25.1152 45.3028 25.2772 45.0126 25.3551C44.9216 25.3825 44.8291 25.4048 44.7356 25.4219L44.7707 25.3785C44.7644 25.6501 44.6517 25.9083 44.4569 26.0977C44.3022 26.249 44.1013 26.3441 43.8862 26.368C43.7455 26.3856 43.6026 26.3725 43.4674 26.3296C43.4177 26.3171 43.3711 26.2944 43.3306 26.2629C43.5076 26.3174 43.6941 26.3339 43.8779 26.3113C44.0774 26.2805 44.2617 26.1863 44.4035 26.0426C44.5793 25.8643 44.6801 25.6255 44.6855 25.3751V25.3401H44.7206C44.8108 25.3236 44.8999 25.3018 44.9876 25.275C45.2615 25.2019 45.5087 25.0519 45.7001 24.8428C45.8478 24.6642 45.9431 24.4482 45.9754 24.2187C46.0012 24.0039 46.0074 23.7872 45.9938 23.5713Z" fill="#263238"/>
<path d="M32.202 23.7723C32.202 23.7723 32.187 23.7573 32.167 23.7272C32.138 23.681 32.1118 23.6331 32.0886 23.5837C32.0007 23.4027 31.9443 23.208 31.9217 23.008C31.8889 22.7089 31.9302 22.4064 32.0418 22.127C32.1821 21.7845 32.42 21.4908 32.726 21.2826C32.8841 21.1731 33.0587 21.0897 33.2433 21.0356L33.2133 21.079C33.1797 20.7857 33.1797 20.4896 33.2133 20.1963C33.2449 19.9582 33.3375 19.7324 33.4819 19.5405C33.5763 19.4129 33.7015 19.3113 33.8457 19.2451C33.8839 19.2267 33.9243 19.2133 33.9658 19.2051C33.9942 19.2051 34.0092 19.2051 34.0092 19.2051C34.0092 19.2051 33.9525 19.2251 33.859 19.2768C33.7265 19.3504 33.6124 19.4531 33.5253 19.5772C33.3946 19.7656 33.3126 19.9835 33.2867 20.2113C33.2559 20.4997 33.2559 20.7906 33.2867 21.079V21.1124L33.2533 21.1224C33.0781 21.176 32.9122 21.2559 32.761 21.3594C32.4943 21.5385 32.2802 21.7856 32.1409 22.0752C32.0016 22.3647 31.942 22.6861 31.9684 23.0064C32.0034 23.2728 32.0823 23.5317 32.202 23.7723Z" fill="white"/>
<path d="M32.2088 25.9076C32.2088 25.9159 32.122 25.8709 32.0219 25.7607C31.8883 25.6152 31.8057 25.4301 31.7866 25.2334C31.7791 25.1341 31.7922 25.0344 31.8253 24.9404C31.8583 24.8465 31.9105 24.7605 31.9785 24.6877C32.087 24.5793 32.1838 24.5593 32.1854 24.5676C32.1871 24.5759 32.1103 24.6193 32.0186 24.7345C31.9079 24.8769 31.8538 25.0552 31.8667 25.2351C31.8849 25.4166 31.9525 25.5897 32.0619 25.7357C32.152 25.8358 32.2171 25.8975 32.2088 25.9076Z" fill="white"/>
<path d="M36.7609 17.5774C36.6736 17.5986 36.5849 17.6136 36.4956 17.6225C36.2876 17.6654 36.0898 17.7481 35.9132 17.8661C35.7376 17.9858 35.5873 18.1389 35.471 18.3166C35.3825 18.4535 35.3458 18.5503 35.3308 18.5452C35.3385 18.4525 35.3689 18.3631 35.4193 18.2849C35.5267 18.088 35.6797 17.9196 35.8655 17.7939C36.0513 17.6682 36.2644 17.5888 36.4872 17.5624C36.5783 17.5456 36.6721 17.5508 36.7609 17.5774Z" fill="white"/>
<path d="M39.9799 18.9581C39.9799 18.9581 40.02 18.9431 40.0867 18.9748C40.1759 19.0264 40.2421 19.1099 40.2719 19.2084C40.3675 19.5322 40.3558 19.8781 40.2386 20.1946L40.2152 20.1396C40.2914 20.1713 40.3632 20.2128 40.4288 20.2631C40.6048 20.3947 40.7327 20.5806 40.7926 20.792C40.8406 20.9634 40.8406 21.1446 40.7926 21.316C40.7611 21.4301 40.7072 21.5367 40.634 21.6297C40.5823 21.6948 40.5456 21.7232 40.5406 21.7198C40.6264 21.5913 40.6912 21.4499 40.7325 21.301C40.7757 21.1225 40.7652 20.9352 40.7022 20.7627C40.6393 20.5902 40.5267 20.4402 40.3787 20.3315C40.3193 20.286 40.2542 20.2485 40.1852 20.2197L40.1468 20.203L40.1618 20.1646C40.274 19.8648 40.2949 19.5385 40.2219 19.2268C40.2003 19.137 40.1485 19.0575 40.075 19.0015C40.0183 18.9648 39.9782 18.9648 39.9799 18.9581Z" fill="white"/>
<path d="M36.7409 24.7114C36.7409 24.7114 36.7159 24.7348 36.6625 24.7615C36.5861 24.8004 36.5047 24.8285 36.4206 24.8449C36.1278 24.9074 35.8223 24.8611 35.5612 24.7147L35.6196 24.6981C35.5544 24.8213 35.4523 24.9211 35.3276 24.9834C35.1312 25.0744 34.9134 25.1091 34.6985 25.0835C34.5256 25.0735 34.356 25.0323 34.1979 24.9617C34.0903 24.9135 33.9955 24.841 33.9208 24.7498C33.8708 24.683 33.8558 24.638 33.8608 24.6363C33.9577 24.7541 34.0821 24.8463 34.2229 24.905C34.3769 24.9649 34.54 24.9982 34.7051 25.0034C34.9044 25.0229 35.1053 24.9895 35.2875 24.9066C35.3969 24.8526 35.4871 24.7664 35.5462 24.6597L35.5662 24.6196L35.6046 24.643C35.8502 24.7813 36.1351 24.8336 36.4139 24.7915C36.6208 24.7615 36.7359 24.6931 36.7409 24.7114Z" fill="white"/>
<path d="M44.8207 25.9361C44.8357 26.0217 44.8235 26.1099 44.7856 26.1881C44.7153 26.388 44.5798 26.5585 44.401 26.6723C44.2222 26.7861 44.0103 26.8365 43.7994 26.8155C43.7126 26.8151 43.6278 26.7889 43.5558 26.7404C43.5558 26.7271 43.6526 26.7538 43.8028 26.7538C43.9975 26.7566 44.1889 26.7025 44.3534 26.5982C44.5179 26.4938 44.6484 26.3438 44.7289 26.1664C44.7923 26.0312 44.8073 25.9328 44.8207 25.9361Z" fill="white"/>
<path d="M33.981 28.4151C33.8685 28.4238 33.7553 28.4114 33.6473 28.3784C33.3709 28.3222 33.1183 28.1831 32.9231 27.9796C32.8292 27.8731 32.7595 27.7476 32.7186 27.6117C32.6777 27.4757 32.6666 27.3326 32.6861 27.192C32.6921 27.075 32.7347 26.9629 32.8079 26.8716C32.7808 26.9815 32.7602 27.093 32.7462 27.2053C32.728 27.4692 32.815 27.7296 32.9882 27.9295C33.1745 28.1188 33.4077 28.2553 33.664 28.325C33.7715 28.348 33.8774 28.3781 33.981 28.4151Z" fill="white"/>
<path d="M41.0162 26.8952C41.4494 26.8952 41.8005 26.5441 41.8005 26.1109C41.8005 25.6778 41.4494 25.3267 41.0162 25.3267C40.5831 25.3267 40.2319 25.6778 40.2319 26.1109C40.2319 26.5441 40.5831 26.8952 41.0162 26.8952Z" fill="#FA8A3C"/>
<path d="M40.5407 26.6518C40.5407 26.6518 40.4589 26.6117 40.3871 26.4933C40.2927 26.336 40.26 26.1493 40.2954 25.9693C40.3347 25.7926 40.4366 25.6361 40.5824 25.5288C40.6958 25.4487 40.7826 25.4336 40.786 25.442C40.7893 25.4503 40.7159 25.4904 40.6191 25.5771C40.497 25.6876 40.4124 25.8335 40.3771 25.9943C40.3474 26.1563 40.3684 26.3236 40.4372 26.4732C40.4939 26.58 40.5507 26.6418 40.5407 26.6518Z" fill="white"/>
<path d="M41.2515 25.4748C41.2515 25.4965 41.1664 25.4948 41.0746 25.4748C40.9828 25.4548 40.9077 25.4431 40.9077 25.4181C40.9077 25.393 40.9878 25.3747 41.0879 25.3897C41.188 25.4047 41.2665 25.4514 41.2515 25.4748Z" fill="white"/>
<path d="M34.2329 33.3186C34.3997 33.4855 35.2992 38.842 35.8665 40.9528C36.7092 44.09 36.5674 47.8062 36.5674 47.8062L31.0874 65.0771L27.3862 75.1643L27.3512 75.5598L27.6716 76.7279L32.8846 78.0078L33.8007 76.7629L39.027 64.4914L42.7132 56.3482L42.9918 64.4347L41.3932 75.9236C41.3336 76.3564 41.3912 76.7972 41.5601 77.2001L41.8671 77.931L47.5407 77.5139C47.5757 77.5322 47.9328 76.6445 47.9796 76.3925C48.7021 72.4277 49.7233 60.1628 49.7233 60.1628L50.6812 49.5399C50.6812 49.5399 50.1489 46.4161 49.0826 42.5798C48.0163 38.7435 45.8787 31.1343 45.8787 31.1343L36.4005 32.2456L34.2329 33.3186Z" fill="#455A64"/>
<g opacity="0.5">
<path opacity="0.5" d="M43.0882 38.6071C43.2811 37.7938 42.7781 36.9781 41.9648 36.7852C41.1515 36.5924 40.3358 37.0953 40.1429 37.9087C39.95 38.722 40.453 39.5377 41.2664 39.7306C42.0797 39.9234 42.8954 39.4204 43.0882 38.6071Z" fill="white"/>
</g>
<path d="M34.4367 33.251C34.4367 33.251 33.7693 33.513 32.3792 35.4303C31.2796 36.9538 31.0443 37.1641 30.6889 37.7665L30.0314 38.7343L26.8475 34.8963L24.6232 36.4549C28.0974 41.7563 28.7632 42.1151 29.6743 42.8693C31.1427 44.0841 32.8582 42.055 32.8582 42.055L35.9402 38.7777L34.4367 33.251Z" fill="#455A64"/>
<path d="M45.8837 31.1406C45.8837 31.1406 47.6975 31.1406 49.1476 33.4534C50.1095 35.0216 50.9679 36.651 51.7174 38.331L52.5417 38.628L55.4503 36.946L56.8353 39.6793C56.8353 39.6793 53.4061 42.7464 51.1617 42.6145C48.9173 42.4827 48.2632 40.5036 47.9946 39.7144C47.7259 38.9251 47.1368 37.3415 47.1368 37.3415L45.8837 31.1406Z" fill="#455A64"/>
<path d="M42.1309 33.0884C42.1392 33.1071 42.1453 33.1267 42.1492 33.1468C42.1592 33.1918 42.1726 33.2486 42.1909 33.3137C42.226 33.4805 42.276 33.6974 42.3411 33.9811C42.4713 34.5652 42.6548 35.4095 42.8701 36.4558C43.2923 38.5483 43.863 41.4619 44.0966 44.7125C44.2133 46.2425 44.2517 47.7775 44.2117 49.3114C44.1774 50.5681 44.0294 51.8192 43.7695 53.0493C43.5912 53.8752 43.3537 54.6871 43.0587 55.4789C42.9602 55.7609 42.8634 55.9795 42.805 56.1197L42.7366 56.2865C42.7292 56.3056 42.7203 56.324 42.7099 56.3416C42.7139 56.3215 42.7201 56.3019 42.7283 56.2832C42.7433 56.2415 42.7633 56.1847 42.79 56.1163C42.8417 55.9678 42.9335 55.7542 43.027 55.4722C43.3077 54.6777 43.5357 53.8655 43.7095 53.0409C43.961 51.8166 44.104 50.5725 44.1366 49.3231C44.1834 47.913 44.125 46.3595 44.0148 44.7342C43.7812 41.4836 43.2222 38.5784 42.815 36.4825C42.6031 35.4396 42.4329 34.5935 42.3144 34.0028C42.2577 33.7141 42.211 33.4872 42.1793 33.3353C42.1659 33.2619 42.1542 33.2035 42.1459 33.1601C42.1375 33.1167 42.1309 33.0884 42.1309 33.0884Z" fill="#263238"/>
<g opacity="0.3">
<path opacity="0.3" d="M45.4782 32.1878C45.3597 32.061 45.1545 32.0209 45.0694 31.8774C45.0401 31.8016 45.0313 31.7195 45.0439 31.6392C45.0565 31.5589 45.09 31.4834 45.1411 31.4202C45.2445 31.2946 45.3186 31.1475 45.358 30.9897C45.3781 30.8228 45.2396 30.6376 45.0827 30.6826L35.0706 33.0772C35.0389 33.3409 35.3209 33.5278 35.5712 33.6062C35.8215 33.6846 36.1202 33.7447 36.2487 33.975C36.3771 34.2053 36.262 34.5173 36.2687 34.7943C36.2833 35.0276 36.3874 35.2462 36.5594 35.4044C36.7313 35.5627 36.9578 35.6484 37.1915 35.6437C37.662 35.6136 38.0625 35.2115 38.5264 35.2365C39.027 35.2632 39.3608 35.7538 39.7996 36.0141C40.0566 36.1625 40.3511 36.233 40.6474 36.217C40.9436 36.201 41.2289 36.0992 41.4683 35.924C41.8104 35.667 42.059 35.2565 42.4695 35.1497C42.7415 35.0813 43.0252 35.1647 43.3039 35.2065C43.5826 35.2482 43.9013 35.2298 44.0848 35.0179C44.3969 34.6541 44.0648 34.0517 44.2834 33.6245C44.409 33.425 44.5974 33.2729 44.8191 33.1924C45.0397 33.1111 45.2417 32.9862 45.4131 32.8252C45.585 32.65 45.6384 32.358 45.4782 32.1878Z" fill="black"/>
</g>
<path d="M45.5882 30.7012C45.5246 30.6154 45.4406 30.5469 45.3439 30.5017C45.2472 30.4566 45.1407 30.4362 45.0342 30.4425C44.8212 30.4597 44.6114 30.5045 44.4101 30.576C44.2048 30.6344 43.7159 30.6561 43.4422 30.7429L35.9982 31.896C35.6841 31.9361 35.3858 32.0568 35.1322 32.2464C34.8969 32.4566 34.7984 32.8504 34.9987 33.0807C35.2974 33.4312 35.9448 33.1992 36.2685 33.5229C36.5923 33.8467 36.362 34.4357 36.6457 34.7795C36.8926 35.0798 37.3665 35.0147 37.7286 34.8762C38.0907 34.7377 38.4879 34.5525 38.8483 34.696C39.2088 34.8395 39.3756 35.2484 39.6827 35.4836C39.8814 35.628 40.1251 35.6965 40.3699 35.6769C40.6147 35.6574 40.8444 35.5509 41.0176 35.3768C41.2813 35.0982 41.4064 34.651 41.7719 34.5425C42.0522 34.4541 42.3442 34.6076 42.6162 34.7227C42.8882 34.8379 43.2437 34.8896 43.4422 34.6793C43.6408 34.4691 43.5607 34.1687 43.5941 33.9001C43.6217 33.7048 43.7043 33.5214 43.8322 33.3713C43.9602 33.2212 44.1282 33.1106 44.3166 33.0524C44.4535 33.0123 44.597 33.0023 44.7305 32.9522C44.7989 32.9331 44.8613 32.8966 44.9116 32.8463C44.9618 32.7961 44.9983 32.7337 45.0175 32.6652C45.0213 32.5848 45.005 32.5046 44.97 32.4321C44.9351 32.3595 44.8825 32.2968 44.8172 32.2497L44.4918 31.8926C44.4847 31.8639 44.4833 31.834 44.4879 31.8048C44.4924 31.7755 44.5028 31.7475 44.5183 31.7223C44.5339 31.6971 44.5543 31.6753 44.5784 31.6581C44.6025 31.6409 44.6298 31.6288 44.6587 31.6223C44.8356 31.5706 45.1159 31.5606 45.2861 31.4905C45.4344 31.4288 45.5538 31.3131 45.6199 31.1667C45.6521 31.0922 45.666 31.0111 45.6605 30.9301C45.655 30.8491 45.6302 30.7706 45.5882 30.7012Z" fill="#FA8A3C"/>
<path d="M35.8666 40.9532C35.8397 40.8872 35.8206 40.8183 35.8099 40.7479C35.7782 40.6161 35.7381 40.4242 35.6731 40.1906C35.5193 39.579 35.2853 38.9904 34.9772 38.4401C34.654 37.8986 34.2487 37.4106 33.7758 36.9934L33.3503 36.6062C33.2959 36.5606 33.2457 36.5104 33.2001 36.4561C33.2603 36.4912 33.3163 36.5332 33.3669 36.5812C33.4737 36.6646 33.6273 36.7898 33.8125 36.9483C34.3037 37.3572 34.7213 37.847 35.0473 38.3967C35.3604 38.953 35.5898 39.5524 35.7281 40.1756C35.7865 40.4125 35.8166 40.6078 35.8383 40.7429C35.8543 40.812 35.8638 40.8824 35.8666 40.9532Z" fill="#263238"/>
<path d="M34.0227 77.9595C33.8559 77.8594 33.6673 77.8293 33.5121 77.7209C33.3759 77.6144 33.2871 77.4586 33.2649 77.2871C33.2427 77.1156 33.289 76.9424 33.3936 76.8047L27.63 76.3926C27.4097 76.506 26.6288 76.8632 26.4319 76.9983C26.235 77.1335 26.0981 77.4155 26.2433 77.6057C26.3006 77.6633 26.37 77.7073 26.4466 77.7344C26.5231 77.7616 26.6048 77.7712 26.6855 77.7626C26.9084 77.766 27.1314 77.7554 27.353 77.7309C27.4149 77.7133 27.4801 77.7101 27.5435 77.7217C27.6068 77.7333 27.6667 77.7592 27.7184 77.7976C27.8369 77.9228 27.7635 78.1314 27.7685 78.2982C27.7751 78.4279 27.8303 78.5503 27.923 78.6412C28.0158 78.7321 28.1393 78.7848 28.2691 78.7888C28.5361 78.7888 28.7497 78.5736 28.9549 78.3983C29.1602 78.2231 29.4455 78.0646 29.6841 78.1914C29.7622 78.2449 29.8281 78.3144 29.8772 78.3952C29.9264 78.476 29.9579 78.5664 29.9695 78.6603C29.9917 78.8494 30.0412 79.0344 30.1163 79.2093C30.1975 79.3494 30.328 79.4541 30.4824 79.5029C30.6368 79.5516 30.8038 79.541 30.9507 79.473C31.0922 79.3842 31.2228 79.2789 31.3395 79.1593C31.398 79.0994 31.4686 79.0527 31.5466 79.0222C31.6245 78.9917 31.7081 78.9781 31.7917 78.9824C32.0236 79.0208 32.1538 79.2661 32.3257 79.4296C32.4434 79.5414 32.5889 79.6195 32.7471 79.6559C32.9053 79.6923 33.0704 79.6856 33.2251 79.6365C33.4103 79.5748 33.5922 79.4129 33.5705 79.216C33.5538 79.0491 33.4036 78.899 33.4504 78.7404C33.4971 78.5819 33.6606 78.5736 33.8008 78.5602C33.941 78.5469 34.1012 78.5519 34.1863 78.4401C34.3014 78.2899 34.1846 78.0596 34.0227 77.9595Z" fill="#455A64"/>
<path d="M33.2567 77.416C33.2567 77.416 33.2417 77.4326 33.2083 77.4577C33.159 77.4916 33.1064 77.5206 33.0515 77.5444C32.8468 77.6301 32.6311 77.6863 32.4107 77.7113C32.1354 77.7497 31.8083 77.7981 31.4412 77.8281C31.0417 77.8637 30.6394 77.8508 30.2431 77.7897C29.5207 77.6696 28.8375 77.3784 28.2506 76.9404C28.0727 76.8085 27.9053 76.6628 27.75 76.5048C27.692 76.4493 27.64 76.3878 27.5948 76.3213C27.6587 76.3721 27.7184 76.4279 27.7734 76.4882C27.9354 76.6337 28.1053 76.7702 28.2823 76.897C28.871 77.3079 29.5445 77.5811 30.2531 77.6963C30.6433 77.7562 31.0391 77.7713 31.4328 77.7413C31.7966 77.7163 32.1237 77.6746 32.399 77.6446C32.6154 77.6268 32.8288 77.5831 33.0348 77.5144C33.1833 77.4593 33.2567 77.4109 33.2567 77.416Z" fill="#263238"/>
<path d="M48.4119 78.0015C48.2333 77.938 48.0348 77.9514 47.8596 77.878C47.705 77.8021 47.5857 77.6695 47.5267 77.5078C47.4676 77.3461 47.4733 77.1679 47.5425 77.0103L41.8306 77.8696C41.6404 78.0282 40.9495 78.5488 40.7927 78.7223C40.6358 78.8959 40.564 79.2029 40.7426 79.3564C40.8108 79.4 40.8878 79.4277 40.9681 79.4375C41.0484 79.4473 41.1298 79.439 41.2065 79.4132C41.4266 79.368 41.6434 79.3083 41.8556 79.2346C41.9123 79.2044 41.975 79.1874 42.0391 79.1848C42.1033 79.1822 42.1672 79.1941 42.2261 79.2196C42.3696 79.3164 42.3412 79.5317 42.3846 79.7002C42.4195 79.8246 42.4995 79.9315 42.6091 80C42.7187 80.0685 42.8498 80.0937 42.977 80.0706C43.239 80.0089 43.3991 79.7553 43.561 79.5383C43.7229 79.3214 43.9665 79.1078 44.2285 79.1779C44.3165 79.2127 44.396 79.2658 44.4619 79.3337C44.5278 79.4016 44.5785 79.4827 44.6106 79.5717C44.6736 79.7502 44.7618 79.9188 44.8726 80.0723C44.9823 80.1911 45.1325 80.2646 45.2936 80.2785C45.4547 80.2924 45.6152 80.2456 45.7437 80.1474C45.8628 80.0295 45.9676 79.8978 46.0557 79.7553C46.0997 79.6843 46.1583 79.6237 46.2277 79.5773C46.297 79.531 46.3755 79.5001 46.4579 79.4866C46.6915 79.4716 46.8734 79.6818 47.0753 79.8053C47.2155 79.8873 47.3751 79.9305 47.5375 79.9305C47.6999 79.9305 47.8595 79.8873 47.9997 79.8053C48.0883 79.7621 48.1602 79.691 48.2045 79.603C48.2488 79.515 48.263 79.4149 48.245 79.3181C48.1916 79.1595 48.0047 79.0477 48.0214 78.8809C48.0364 78.739 48.1883 78.6656 48.3251 78.6289C48.462 78.5922 48.6155 78.5555 48.6755 78.427C48.754 78.2584 48.5888 78.0632 48.4119 78.0015Z" fill="#455A64"/>
<path d="M47.5456 77.5208C47.5366 77.5401 47.5241 77.5576 47.5089 77.5725C47.4676 77.6164 47.4229 77.6572 47.3754 77.6943C47.1955 77.8232 46.9984 77.926 46.7897 77.9997C46.5327 78.1032 46.2257 78.2266 45.8753 78.3334C45.4973 78.4624 45.1051 78.5448 44.7072 78.5787C43.9776 78.6339 43.2454 78.5144 42.5713 78.23C42.3691 78.1432 42.1739 78.0411 41.9872 77.9246C41.9173 77.8838 41.8518 77.8357 41.792 77.7811C41.8658 77.8128 41.9367 77.8507 42.0039 77.8946C42.1952 77.9988 42.3925 78.0919 42.5946 78.1732C43.2637 78.4363 43.9835 78.5452 44.7005 78.492C45.0937 78.459 45.4818 78.3806 45.8569 78.2583C46.204 78.1482 46.5127 78.0314 46.773 77.9363C46.9792 77.8686 47.1765 77.7761 47.3604 77.6609C47.4822 77.5809 47.5406 77.5158 47.5456 77.5208Z" fill="#263238"/>
<g opacity="0.5">
<path opacity="0.5" d="M36.8139 65.7616C37.4049 65.1706 37.4049 64.2123 36.8139 63.6212C36.2228 63.0301 35.2645 63.0301 34.6735 63.6212C34.0824 64.2123 34.0824 65.1706 34.6735 65.7616C35.2645 66.3527 36.2228 66.3527 36.8139 65.7616Z" fill="white"/>
</g>
<g opacity="0.5">
<path opacity="0.5" d="M47.669 67.743C48.2376 67.1303 48.2018 66.1727 47.5891 65.6041C46.9763 65.0355 46.0187 65.0713 45.4501 65.684C44.8816 66.2967 44.9174 67.2544 45.5301 67.823C46.1428 68.3915 47.1004 68.3557 47.669 67.743Z" fill="white"/>
</g>
<g opacity="0.5">
<path opacity="0.5" d="M43.7063 73.5602C44.5421 73.5602 45.2198 72.8826 45.2198 72.0467C45.2198 71.2108 44.5421 70.5332 43.7063 70.5332C42.8704 70.5332 42.1927 71.2108 42.1927 72.0467C42.1927 72.8826 42.8704 73.5602 43.7063 73.5602Z" fill="white"/>
</g>
<g opacity="0.5">
<path opacity="0.5" d="M34.6685 54.8389C34.5511 54.8385 34.4341 54.852 34.3198 54.8789L33.5338 57.3519C33.7009 57.542 33.9131 57.687 34.1508 57.7739C34.3885 57.8608 34.6441 57.8867 34.8944 57.8492C35.1447 57.8117 35.3816 57.7121 35.5834 57.5594C35.7852 57.4067 35.9456 57.2059 36.0497 56.9752C36.1538 56.7446 36.1985 56.4915 36.1796 56.2391C36.1606 55.9868 36.0787 55.7432 35.9413 55.5306C35.8039 55.3181 35.6154 55.1434 35.393 55.0226C35.1707 54.9017 34.9216 54.8386 34.6685 54.8389Z" fill="white"/>
</g>
<g opacity="0.5">
<path opacity="0.5" d="M40.4321 61.3757C40.0221 61.3747 39.6285 61.2149 39.3339 60.9299C39.0393 60.6449 38.8665 60.2569 38.8518 59.8472C38.853 59.5346 38.9509 59.23 39.1322 58.9753C39.3135 58.7206 39.5692 58.5282 39.8642 58.4247C40.1592 58.3212 40.479 58.3116 40.7797 58.3972C41.0803 58.4828 41.3471 58.6594 41.5434 58.9027" fill="white"/>
</g>
<g opacity="0.5">
<path opacity="0.5" d="M39.4309 45.6462C40.2667 45.6462 40.9444 44.9685 40.9444 44.1327C40.9444 43.2968 40.2667 42.6191 39.4309 42.6191C38.595 42.6191 37.9174 43.2968 37.9174 44.1327C37.9174 44.9685 38.595 45.6462 39.4309 45.6462Z" fill="white"/>
</g>
<g opacity="0.5">
<path opacity="0.5" d="M40.4888 51.9221C40.6801 51.1084 40.1756 50.2937 39.3619 50.1024C38.5482 49.9111 37.7335 50.4156 37.5422 51.2293C37.3509 52.043 37.8554 52.8577 38.6691 53.049C39.4828 53.2403 40.2975 52.7358 40.4888 51.9221Z" fill="white"/>
</g>
<g opacity="0.5">
<path opacity="0.5" d="M48.073 49.965C48.9088 49.965 49.5864 49.2874 49.5864 48.4515C49.5864 47.6156 48.9088 46.938 48.073 46.938C47.2371 46.938 46.5594 47.6156 46.5594 48.4515C46.5594 49.2874 47.2371 49.965 48.073 49.965Z" fill="white"/>
</g>
<g opacity="0.5">
<path opacity="0.5" d="M43.2072 61.0577C43.0957 61.0959 42.9893 61.1475 42.8901 61.2112L42.9636 63.8043C43.184 63.9287 43.432 63.9958 43.6851 63.9995C43.9381 64.0032 44.188 63.9434 44.412 63.8256C44.6359 63.7078 44.8268 63.5357 44.967 63.325C45.1073 63.1144 45.1925 62.872 45.2148 62.6199C45.2372 62.3678 45.196 62.1142 45.095 61.8821C44.994 61.6501 44.8364 61.4471 44.6367 61.2917C44.437 61.1363 44.2015 61.0334 43.9518 60.9925C43.702 60.9517 43.446 60.974 43.2072 61.0577Z" fill="white"/>
</g>
<g opacity="0.5">
<path opacity="0.5" d="M48.4801 58.4359C48.104 58.5758 47.7988 58.8594 47.6317 59.2242C47.4646 59.5891 47.4493 60.0054 47.589 60.3816C47.7457 60.7619 48.0441 61.0665 48.4212 61.2309C48.7983 61.3953 49.2245 61.4067 49.6098 61.2627L49.8718 58.6361C49.4847 58.4025 48.929 58.269 48.4801 58.4359Z" fill="white"/>
</g>
<g opacity="0.5">
<path opacity="0.5" d="M47.7862 55.3872C48.3302 54.7527 48.2569 53.7972 47.6223 53.2531C46.9878 52.709 46.0323 52.7824 45.4882 53.4169C44.9441 54.0515 45.0175 55.007 45.652 55.5511C46.2866 56.0951 47.2421 56.0218 47.7862 55.3872Z" fill="white"/>
</g>
<g opacity="0.5">
<path opacity="0.5" d="M46.5594 43.0451C47.3953 43.0451 48.0729 42.3675 48.0729 41.5316C48.0729 40.6957 47.3953 40.0181 46.5594 40.0181C45.7235 40.0181 45.0459 40.6957 45.0459 41.5316C45.0459 42.3675 45.7235 43.0451 46.5594 43.0451Z" fill="white"/>
</g>
<g opacity="0.5">
<path opacity="0.5" d="M48.1023 35.1542C48.6934 34.5631 48.6934 33.6048 48.1024 33.0138C47.5113 32.4227 46.553 32.4227 45.9619 33.0138C45.3709 33.6048 45.3709 34.5631 45.9619 35.1542C46.553 35.7453 47.5113 35.7453 48.1023 35.1542Z" fill="white"/>
</g>
<g opacity="0.5">
<path opacity="0.5" d="M52.679 40.5659C52.8132 39.7409 52.2532 38.9632 51.4282 38.829C50.6031 38.6948 49.8255 39.2548 49.6913 40.0799C49.557 40.9049 50.1171 41.6825 50.9421 41.8168C51.7671 41.951 52.5448 41.391 52.679 40.5659Z" fill="white"/>
</g>
<g opacity="0.5">
<path opacity="0.5" d="M34.2345 75.7249C33.9978 75.701 33.7699 75.6217 33.5696 75.4932C33.3692 75.3648 33.202 75.1909 33.0814 74.9857C32.9609 74.7805 32.8904 74.5497 32.8758 74.3122C32.8611 74.0746 32.9027 73.837 32.9972 73.6185C33.0916 73.4001 33.2362 73.207 33.4193 73.0549C33.6023 72.9028 33.8187 72.796 34.0507 72.7433C34.2828 72.6905 34.5241 72.6932 34.7549 72.7511C34.9857 72.809 35.1996 72.9206 35.3793 73.0767" fill="white"/>
</g>
<g opacity="0.5">
<path opacity="0.5" d="M47.3622 73.4204C46.9774 73.5148 46.645 73.7565 46.4366 74.0935C46.2281 74.4306 46.1604 74.836 46.2479 75.2225C46.3354 75.609 46.5711 75.9456 46.9044 76.1601C47.2376 76.3745 47.6417 76.4495 48.0297 76.3689L48.4235 73.5105C48.0926 73.3518 47.7151 73.3197 47.3622 73.4204Z" fill="white"/>
</g>
<g opacity="0.5">
<path opacity="0.5" d="M30.1762 67.5326C30.2621 67.5173 30.3492 67.5095 30.4365 67.5093C30.6911 67.51 30.9413 67.575 31.1642 67.6981C31.387 67.8213 31.5751 67.9986 31.7112 68.2138C31.8472 68.4289 31.9268 68.6749 31.9426 68.929C31.9584 69.1831 31.9098 69.4371 31.8014 69.6674C31.693 69.8977 31.5282 70.097 31.3223 70.2467C31.1164 70.3965 30.8761 70.4919 30.6236 70.5241C30.3711 70.5563 30.1145 70.5243 29.8776 70.4311C29.6408 70.3378 29.4312 70.1863 29.2684 69.9906" fill="white"/>
</g>
<g opacity="0.5">
<path opacity="0.5" d="M37.4736 37.6949C38.0033 37.0483 37.9084 36.0947 37.2618 35.565C36.6151 35.0354 35.6615 35.1302 35.1319 35.7769C34.6022 36.4235 34.6971 37.3771 35.3437 37.9068C35.9904 38.4364 36.944 38.3416 37.4736 37.6949Z" fill="white"/>
</g>
<g opacity="0.5">
<path opacity="0.5" d="M29.1486 38.7199C29.322 37.9881 28.8693 37.2544 28.1375 37.081C27.4058 36.9076 26.672 37.3603 26.4986 38.092C26.3252 38.8238 26.7779 39.5575 27.5097 39.7309C28.2414 39.9043 28.9752 39.4517 29.1486 38.7199Z" fill="white"/>
</g>
<g opacity="0.5">
<path opacity="0.5" d="M32.683 39.9926C32.5485 40.1391 32.4441 40.3106 32.3759 40.4974C32.3078 40.6842 32.277 40.8826 32.2856 41.0813C32.2941 41.2799 32.3417 41.475 32.4256 41.6552C32.5096 41.8355 32.6282 41.9975 32.7748 42.1319L34.8473 39.9409C34.5516 39.6643 34.1593 39.5147 33.7545 39.5244C33.3498 39.534 32.965 39.7022 32.683 39.9926Z" fill="white"/>
</g>
<path d="M48.7322 41.3312C48.7185 41.3082 48.7079 41.2835 48.7005 41.2578C48.6805 41.1994 48.6571 41.1276 48.6271 41.0442C48.5654 40.8573 48.4803 40.5853 48.3801 40.2482C48.1782 39.5808 47.9213 38.638 47.676 37.5934C47.4307 36.5488 47.2438 35.5909 47.1253 34.9018C47.0652 34.5547 47.0202 34.2743 46.9935 34.0791L46.9635 33.8555C46.9594 33.8289 46.9594 33.8019 46.9635 33.7754C46.9731 33.8002 46.9804 33.8259 46.9851 33.8522C46.9968 33.9122 47.0118 33.9856 47.0302 34.0741L47.1971 34.8901C47.3322 35.5792 47.5308 36.5304 47.7727 37.5733C48.0147 38.6163 48.265 39.5541 48.4502 40.2316C48.5403 40.5653 48.6171 40.8306 48.6722 41.0342C48.6939 41.121 48.7139 41.2011 48.7289 41.2528C48.7346 41.2785 48.7357 41.3051 48.7322 41.3312Z" fill="#263238"/>
<path d="M44.0305 41.3837C45.0442 40.9603 45.5227 39.7953 45.0993 38.7816C44.6759 37.768 43.5109 37.2895 42.4973 37.7129C41.4836 38.1363 41.0051 39.3012 41.4285 40.3149C41.8519 41.3286 43.0169 41.8071 44.0305 41.3837Z" fill="#FA8A3C"/>
<path d="M45.2528 39.5453C45.2376 39.383 45.2114 39.2218 45.1743 39.0631C45.1062 38.7978 44.9832 38.5497 44.8133 38.3348C44.6434 38.12 44.4304 37.9431 44.188 37.8156C43.9456 37.6881 43.6791 37.6128 43.4058 37.5946C43.1325 37.5764 42.8584 37.6156 42.6012 37.7098C42.4248 37.7732 42.2589 37.8626 42.109 37.9751C41.9508 38.0901 41.8122 38.2299 41.6985 38.3889C41.4525 38.7221 41.3198 39.1253 41.3198 39.5395C41.3198 39.9536 41.4525 40.3568 41.6985 40.69C41.8122 40.8491 41.9508 40.9888 42.109 41.1039C42.2589 41.2163 42.4248 41.3058 42.6012 41.3692C42.8582 41.4624 43.1317 41.501 43.4044 41.4826C43.6771 41.4642 43.9429 41.3891 44.185 41.2623C44.4271 41.1354 44.6401 40.9595 44.8104 40.7458C44.9808 40.5321 45.1047 40.2852 45.1743 40.0209C45.2112 39.8626 45.2374 39.7021 45.2528 39.5403C45.2575 39.5824 45.2575 39.625 45.2528 39.6671C45.2532 39.7185 45.2493 39.7699 45.2411 39.8206C45.2341 39.891 45.2218 39.9607 45.2044 40.0292C45.0995 40.4726 44.8449 40.8663 44.4835 41.1439C44.2161 41.3515 43.9005 41.488 43.5661 41.5405C43.2316 41.5931 42.8893 41.5599 42.5712 41.4443C42.3864 41.3799 42.2125 41.2876 42.0556 41.1706C41.8902 41.0514 41.7453 40.906 41.6267 40.7401C41.3689 40.3929 41.2297 39.9719 41.2297 39.5395C41.2297 39.107 41.3689 38.6861 41.6267 38.3388C41.8645 38.0155 42.1934 37.7703 42.5712 37.6347C42.8893 37.519 43.2316 37.4859 43.5661 37.5384C43.9005 37.5909 44.2161 37.7274 44.4835 37.935C44.8449 38.2126 45.0995 38.6063 45.2044 39.0497C45.2217 39.1183 45.2339 39.188 45.2411 39.2583C45.2493 39.309 45.2532 39.3604 45.2528 39.4118C45.2578 39.4562 45.2578 39.501 45.2528 39.5453Z" fill="#263238"/>
<path d="M42.0255 40.5986C41.915 40.4477 41.8512 40.2676 41.842 40.0808C41.8328 39.8939 41.8786 39.7084 41.9738 39.5474C41.9494 39.7228 41.9344 39.8993 41.9287 40.0763C41.9522 40.2519 41.9845 40.4263 42.0255 40.5986Z" fill="#263238"/>
<path d="M42.3193 40.8517C42.1923 40.7406 42.1079 40.5888 42.0805 40.4223C42.0531 40.2558 42.0844 40.0849 42.1691 39.939C42.1553 40.0955 42.1553 40.253 42.1691 40.4095C42.2071 40.5608 42.2573 40.7086 42.3193 40.8517Z" fill="#263238"/>
<path d="M42.9453 41.1723C42.8021 41.1125 42.6789 41.013 42.5903 40.8856C42.5016 40.7582 42.4511 40.6082 42.4447 40.4531C42.4697 40.4531 42.5248 40.6417 42.665 40.8369C42.8051 41.0322 42.9603 41.1506 42.9453 41.1723Z" fill="#263238"/>
<path d="M45.9264 47.1939C46.6454 46.3634 46.5549 45.1072 45.7243 44.3882C44.8938 43.6693 43.6376 43.7598 42.9186 44.5903C42.1997 45.4209 42.2901 46.6771 43.1207 47.396C43.9513 48.115 45.2075 48.0245 45.9264 47.1939Z" fill="#FA8A3C"/>
<path d="M46.4129 45.8854C46.3954 45.7239 46.3692 45.5635 46.3345 45.4048C46.2179 44.9763 45.9612 44.5991 45.6053 44.3335C45.3447 44.1367 45.0388 44.0084 44.7158 43.9606C44.3927 43.9128 44.0628 43.9469 43.7564 44.0599C43.3948 44.1918 43.0806 44.4282 42.8536 44.739C42.6087 45.0726 42.4766 45.4757 42.4766 45.8896C42.4766 46.3034 42.6087 46.7065 42.8536 47.0401C43.0806 47.351 43.3948 47.5873 43.7564 47.7193C44.0628 47.8322 44.3927 47.8664 44.7158 47.8185C45.0388 47.7707 45.3447 47.6425 45.6053 47.4456C45.9606 47.1787 46.2162 46.8003 46.3312 46.371C46.3661 46.2118 46.3923 46.0508 46.4096 45.8887C46.4136 45.9315 46.4136 45.9745 46.4096 46.0172C46.41 46.0686 46.4061 46.12 46.3979 46.1707C46.3916 46.2412 46.3793 46.311 46.3612 46.3793C46.2569 46.823 46.0022 47.2169 45.6403 47.494C45.3729 47.7016 45.0573 47.8381 44.7229 47.8906C44.3884 47.9432 44.0462 47.91 43.728 47.7944C43.3502 47.6588 43.0213 47.4136 42.7835 47.0902C42.5267 46.7426 42.3882 46.3218 42.3882 45.8896C42.3882 45.4574 42.5267 45.0366 42.7835 44.6889C43.0213 44.3655 43.3502 44.1204 43.728 43.9848C44.0462 43.8691 44.3884 43.836 44.7229 43.8885C45.0573 43.941 45.3729 44.0775 45.6403 44.2851C46.0022 44.5622 46.2569 44.9561 46.3612 45.3998C46.3794 45.4681 46.3917 45.5379 46.3979 45.6084C46.4061 45.6591 46.41 45.7105 46.4096 45.7619C46.4145 45.8029 46.4156 45.8442 46.4129 45.8854Z" fill="#263238"/>
<path d="M43.1857 46.9487C43.0751 46.7978 43.0113 46.6177 43.0021 46.4309C42.9929 46.244 43.0388 46.0585 43.1339 45.8975C43.1086 46.0728 43.0936 46.2494 43.0889 46.4264C43.1114 46.6022 43.1437 46.7766 43.1857 46.9487Z" fill="#263238"/>
<path d="M43.4776 47.2013C43.4087 47.1518 43.3517 47.0877 43.3104 47.0135C43.2692 46.9394 43.2448 46.8571 43.2389 46.7725C43.2177 46.6902 43.2146 46.6044 43.2299 46.5208C43.2452 46.4372 43.2784 46.358 43.3274 46.2886C43.315 46.4446 43.315 46.6014 43.3274 46.7575C43.3648 46.9094 43.415 47.0579 43.4776 47.2013Z" fill="#263238"/>
<path d="M44.103 47.5224C43.9598 47.4626 43.8367 47.3631 43.748 47.2357C43.6593 47.1083 43.6088 46.9583 43.6024 46.8032C43.6258 46.8032 43.6808 46.9918 43.821 47.187C43.9612 47.3823 44.118 47.5007 44.103 47.5224Z" fill="#263238"/>
<path d="M45.7855 53.1448C46.0392 52.076 45.3783 51.0039 44.3095 50.7502C43.2406 50.4966 42.1685 51.1574 41.9148 52.2263C41.6612 53.2951 42.322 54.3672 43.3909 54.6209C44.4598 54.8745 45.5319 54.2137 45.7855 53.1448Z" fill="#FA8A3C"/>
<path d="M45.8387 52.6862C45.8233 52.5244 45.7971 52.3639 45.7603 52.2056C45.646 51.776 45.3903 51.3974 45.0344 51.131C44.7741 50.9341 44.4686 50.8059 44.1458 50.7581C43.823 50.7102 43.4933 50.7444 43.1872 50.8573C43.0103 50.9197 42.8442 51.0092 42.6949 51.1226C42.5364 51.2372 42.3977 51.377 42.2844 51.5365C42.0383 51.8693 41.9055 52.2723 41.9055 52.6862C41.9055 53.1001 42.0383 53.5031 42.2844 53.8359C42.3977 53.9954 42.5364 54.1352 42.6949 54.2498C42.8442 54.3637 43.0102 54.4538 43.1872 54.5168C43.4938 54.6286 43.8235 54.6622 44.1463 54.6144C44.4692 54.5666 44.775 54.439 45.0361 54.2431C45.3907 53.9758 45.6456 53.5975 45.7603 53.1685C45.7972 53.0096 45.8234 52.8485 45.8387 52.6862C45.8423 52.7284 45.8423 52.7708 45.8387 52.813C45.8392 52.865 45.8353 52.9169 45.827 52.9682C45.8199 53.0385 45.8076 53.1083 45.7903 53.1768C45.6854 53.6202 45.4308 54.0139 45.0694 54.2915C44.8209 54.4842 44.5305 54.6157 44.2217 54.6753C43.8657 54.7425 43.4983 54.7137 43.1571 54.5919C42.9719 54.5275 42.798 54.4346 42.6415 54.3165C42.4764 54.197 42.3311 54.0523 42.211 53.8877C41.9537 53.5402 41.8148 53.1194 41.8148 52.687C41.8148 52.2547 41.9537 51.8338 42.211 51.4864C42.3296 51.3206 42.4744 51.1751 42.6398 51.0559C42.7968 50.9389 42.9706 50.8467 43.1555 50.7822C43.4207 50.6856 43.7033 50.646 43.9849 50.6663C44.2664 50.6865 44.5405 50.7661 44.7891 50.8997C45.0378 51.0333 45.2554 51.218 45.4276 51.4416C45.5999 51.6652 45.7229 51.9228 45.7886 52.1973C45.8061 52.2658 45.8183 52.3355 45.8254 52.4059C45.8336 52.4566 45.8375 52.508 45.837 52.5594C45.8412 52.6015 45.8418 52.644 45.8387 52.6862Z" fill="#263238"/>
<path d="M42.6115 53.7453C42.501 53.594 42.4372 53.4137 42.428 53.2266C42.4188 53.0395 42.4646 52.8538 42.5597 52.6924C42.5355 52.8684 42.5205 53.0455 42.5147 53.223C42.5382 53.3986 42.5705 53.573 42.6115 53.7453Z" fill="#263238"/>
<path d="M42.9034 53.9943C42.8357 53.9438 42.7795 53.8794 42.7387 53.8055C42.6978 53.7315 42.6732 53.6497 42.6665 53.5655C42.6452 53.4833 42.642 53.3975 42.657 53.314C42.6719 53.2305 42.7048 53.1512 42.7532 53.0815C42.7409 53.2376 42.7409 53.3944 42.7532 53.5504C42.7924 53.7019 42.8426 53.8502 42.9034 53.9943Z" fill="#263238"/>
<path d="M43.5308 54.3188C43.3876 54.259 43.2644 54.1595 43.1757 54.0321C43.0871 53.9047 43.0366 53.7547 43.0302 53.5996C43.0552 53.5996 43.1102 53.7865 43.2504 53.9834C43.3906 54.1803 43.5458 54.2971 43.5308 54.3188Z" fill="#263238"/>
<path d="M30.7088 40.4703C30.6345 40.1637 30.5425 39.8618 30.4334 39.5658C30.2964 39.2824 30.142 39.0076 29.9712 38.7432C30.2026 38.9677 30.387 39.2361 30.5136 39.5326C30.6402 39.8291 30.7066 40.1478 30.7088 40.4703Z" fill="#263238"/>
<path d="M41.7335 40.1482C41.6773 40.0453 41.6443 39.9314 41.6367 39.8144C41.6003 39.5402 41.6254 39.2614 41.7102 38.9981C41.7951 38.7348 41.9376 38.4938 42.1273 38.2926C42.2006 38.205 42.2916 38.1339 42.3943 38.084C42.325 38.1715 42.2509 38.255 42.1724 38.3343C42.0038 38.5387 41.8753 38.7731 41.7936 39.0251C41.7121 39.2775 41.6798 39.5432 41.6985 39.8077C41.7135 40.0197 41.7469 40.1431 41.7335 40.1482Z" fill="white"/>
<path d="M42.7233 46.1405C42.6868 46.0332 42.6737 45.9194 42.6849 45.8067C42.6965 45.5343 42.7708 45.2683 42.9019 45.0292C43.033 44.7902 43.2174 44.5846 43.4409 44.4284C43.5295 44.3582 43.6327 44.3086 43.7429 44.2832C43.7429 44.2966 43.6361 44.3533 43.4776 44.4768C43.274 44.6407 43.104 44.8424 42.977 45.0708C42.8514 45.2994 42.7726 45.5507 42.745 45.8101C42.725 46.012 42.7383 46.1388 42.7233 46.1405Z" fill="white"/>
<path d="M42.3162 52.9635C42.2705 52.8583 42.2483 52.7444 42.2511 52.6297C42.2379 52.3572 42.2918 52.0856 42.4079 51.8388C42.5219 51.5928 42.6936 51.3781 42.9086 51.213C42.9929 51.1386 43.0935 51.0849 43.2023 51.0562C43.2023 51.0678 43.0988 51.1296 42.9469 51.2614C42.75 51.4316 42.5904 51.6407 42.478 51.8755C42.3708 52.112 42.314 52.3683 42.3112 52.6281C42.3078 52.835 42.3312 52.9601 42.3162 52.9635Z" fill="white"/>
<path d="M34.3231 33.6084C34.2844 33.6634 34.2408 33.7148 34.1929 33.7619L33.8208 34.1657C33.5071 34.5078 33.0816 34.9851 32.636 35.5324C32.1905 36.0797 31.8017 36.5937 31.5364 36.9708L31.216 37.4163C31.1811 37.4768 31.1391 37.5328 31.0908 37.5832C31.1164 37.5208 31.1488 37.4615 31.1876 37.4063C31.2544 37.2945 31.3545 37.136 31.4863 36.9441C31.7449 36.557 32.1204 36.0363 32.5676 35.4873C33.0148 34.9383 33.4503 34.4628 33.7757 34.1324C33.9426 33.9655 34.0728 33.8353 34.1679 33.7469C34.2132 33.694 34.2653 33.6474 34.3231 33.6084Z" fill="white"/>
<path d="M26.4619 34.3591C26.4619 34.3591 26.3835 33.161 26.2116 32.7905L25.2471 31.0367C25.2471 31.0367 24.9134 30.7848 24.8433 31.227C24.8098 31.5276 24.8528 31.8318 24.9684 32.1114L25.1603 32.5219L24.8499 32.1314L24.0156 30.9783C24.0156 30.9783 23.3381 30.0756 23.0878 30.3109C22.931 30.4594 23.0111 30.7647 23.2981 31.1802C23.48 31.4456 23.6919 31.7559 23.8237 31.9462C23.52 31.6124 22.8141 30.5879 22.669 30.4444C22.4754 30.2575 22.2501 30.0289 21.9915 30.1607C21.7328 30.2925 22.0566 30.8165 22.0566 30.8165L23.1445 32.4618C23.1445 32.4618 22.5889 31.6892 22.4771 31.5807C22.3653 31.4723 22.1433 31.1469 21.9614 30.96C21.8911 30.8861 21.7999 30.8355 21.7 30.8149C21.6001 30.7944 21.4962 30.8048 21.4024 30.8448C21.1972 30.9566 21.4508 31.3555 21.4508 31.3555L22.3953 32.5769C22.3953 32.597 22.6356 32.9858 22.7557 33.1627C22.674 33.0876 22.5488 32.9958 22.5488 32.9958L22.1383 32.5769C22.1383 32.5769 21.7061 32.1231 21.4892 32.1848C21.2723 32.2465 21.3324 32.4001 21.3324 32.4001L22.125 33.4747L23.4215 34.7412L24.356 35.6807C24.356 35.6807 24.7632 37.1675 24.8566 37.1825C24.9501 37.1975 27.3914 35.0533 27.3914 35.0533L26.4619 34.3591Z" fill="#E0E0E0"/>
<path d="M26.4617 34.3582C26.4617 34.3582 26.485 34.3715 26.5251 34.3999L26.707 34.5301L27.4028 35.039L27.4195 35.0507L27.4045 35.0624C27.024 35.3961 26.5134 35.8483 25.8877 36.3857L25.387 36.8028L25.1217 37.0214L24.9832 37.1299L24.9098 37.1833C24.8922 37.1944 24.8731 37.2028 24.8531 37.2083C24.808 37.2 24.8097 37.1766 24.798 37.1649C24.6955 36.9352 24.6102 36.6981 24.5427 36.4557C24.4676 36.2104 24.3942 35.9551 24.3208 35.6931L24.3291 35.7082L23.2695 34.6519L22.1014 33.5072L21.3071 32.4325C21.2942 32.3921 21.2951 32.3486 21.3096 32.3087C21.3241 32.2689 21.3514 32.235 21.3872 32.2123C21.4191 32.1916 21.454 32.1758 21.4907 32.1655C21.5307 32.1563 21.5724 32.1563 21.6125 32.1655C21.7494 32.2116 21.8751 32.2861 21.9812 32.3841C22.0902 32.4761 22.1933 32.5747 22.29 32.6795L22.577 32.9715C22.642 33.0249 22.7155 33.085 22.7872 33.1467L22.7238 33.2001C22.6637 33.11 22.6037 33.0149 22.5419 32.9164L22.4501 32.7663L22.4034 32.6895C22.386 32.6604 22.3704 32.6303 22.3567 32.5994V32.6161L21.4122 31.3963C21.3646 31.319 21.327 31.236 21.3004 31.1493C21.2854 31.103 21.2781 31.0545 21.2787 31.0058C21.2782 30.9501 21.2991 30.8963 21.3371 30.8556C21.419 30.7947 21.5212 30.7678 21.6225 30.7805C21.7243 30.7839 21.8234 30.8145 21.9095 30.869C22.0527 30.9885 22.18 31.1259 22.2883 31.2778L22.4552 31.4931C22.5119 31.5615 22.5786 31.6332 22.6337 31.7066C22.8223 31.9536 23.0042 32.2072 23.1827 32.4509L23.1109 32.5009L22.3367 31.3329L22.1414 31.0358C22.0741 30.9413 22.0128 30.8427 21.9579 30.7405C21.9033 30.6361 21.8666 30.5233 21.8494 30.4067C21.8402 30.341 21.8531 30.2741 21.8861 30.2165C21.9255 30.1603 21.9855 30.1219 22.053 30.1097C22.1133 30.0955 22.1759 30.0944 22.2367 30.1065C22.2974 30.1186 22.3549 30.1436 22.4051 30.1798C22.4996 30.2436 22.5874 30.3168 22.6671 30.3984C22.816 30.5625 22.9537 30.7364 23.0792 30.919C23.3396 31.2661 23.5799 31.6182 23.8552 31.9302L23.7918 31.9803L23.398 31.4046C23.2602 31.2217 23.1411 31.0255 23.0425 30.8189C22.9929 30.7149 22.97 30.6002 22.9758 30.4852C22.9824 30.423 23.0087 30.3645 23.0509 30.3183C23.0732 30.2932 23.1019 30.2746 23.1339 30.2644C23.1659 30.2541 23.2 30.2525 23.2328 30.2599C23.3439 30.2904 23.4459 30.3477 23.5298 30.4268C23.6128 30.4957 23.6909 30.5704 23.7634 30.6504C23.9059 30.8024 24.037 30.9647 24.1556 31.136L24.5076 31.6215L24.8414 32.0904C24.9532 32.2423 25.0717 32.3841 25.1751 32.5276L25.1201 32.561C25.0466 32.3941 24.9682 32.244 24.9031 32.0821C24.8463 31.9238 24.8098 31.759 24.7947 31.5915C24.7753 31.4308 24.7918 31.2678 24.8431 31.1143C24.8565 31.0736 24.8815 31.0378 24.915 31.0111C24.9485 30.9844 24.989 30.9681 25.0316 30.9641C25.1119 30.9653 25.1897 30.9922 25.2535 31.0408L26.2097 32.7913C26.285 33.0075 26.3365 33.2314 26.3632 33.4588C26.3899 33.6557 26.4066 33.8209 26.4183 33.9594C26.43 34.0979 26.4366 34.1963 26.44 34.2647C26.4418 34.2992 26.4418 34.3337 26.44 34.3682C26.44 34.3682 26.44 34.3332 26.4283 34.2647C26.4166 34.1963 26.41 34.0979 26.3966 33.9627C26.3833 33.8275 26.3616 33.6623 26.3315 33.4621C26.3045 33.2343 26.2513 33.0103 26.173 32.7946L25.2018 31.0525C25.1476 31.0124 25.0823 30.9903 25.0149 30.9891C24.9827 30.9929 24.9524 31.0059 24.9275 31.0267C24.9026 31.0474 24.8843 31.0749 24.8748 31.1059C24.8286 31.2513 24.8143 31.405 24.833 31.5565C24.8492 31.7183 24.8857 31.8776 24.9415 32.0304C25.0032 32.1839 25.085 32.3424 25.1584 32.5043L25.2686 32.7462L25.1017 32.5377C24.9899 32.3941 24.8714 32.2523 24.7579 32.1005L24.4159 31.6332L24.0621 31.1493C23.9439 30.9808 23.814 30.8207 23.6733 30.6704C23.6022 30.594 23.5264 30.5221 23.4464 30.4551C23.3716 30.3866 23.2819 30.3363 23.1844 30.3083C23.0926 30.2832 23.0175 30.3734 23.0175 30.4751C23.0137 30.5795 23.0355 30.6832 23.0809 30.7772C23.1779 30.9791 23.2947 31.1708 23.4297 31.3495L23.8251 31.9219L23.7617 31.972C23.4831 31.6532 23.2394 31.3045 22.9791 30.9557C22.8557 30.7775 22.7208 30.6075 22.5753 30.4468C22.4996 30.3696 22.4163 30.3003 22.3267 30.2399C22.2864 30.2095 22.24 30.1885 22.1907 30.1781C22.1414 30.1677 22.0904 30.1683 22.0413 30.1798C21.9962 30.1885 21.9559 30.2135 21.9278 30.2499C21.9054 30.2917 21.8972 30.3398 21.9045 30.3867C21.9195 30.4942 21.9534 30.5981 22.0046 30.6937C22.0579 30.7932 22.1175 30.889 22.1832 30.9808L22.3734 31.2694L23.1493 32.4375L23.0776 32.4876C22.899 32.2406 22.7171 31.987 22.5286 31.745C22.4752 31.6699 22.4151 31.6082 22.3617 31.5331L22.1948 31.3162C22.0919 31.1721 21.9714 31.0415 21.8361 30.9274C21.7673 30.8822 21.6879 30.8558 21.6058 30.8506C21.5287 30.8402 21.4505 30.8579 21.3855 30.9007C21.3661 30.9312 21.3545 30.9661 21.3519 31.0022C21.3493 31.0383 21.3557 31.0745 21.3705 31.1076C21.3957 31.1871 21.4304 31.2633 21.474 31.3345L22.4184 32.5543L22.3901 32.5794L22.4268 32.571V32.581L22.4368 32.5994L22.4585 32.6378L22.5035 32.7129L22.5953 32.8614C22.6554 32.9598 22.7155 33.0549 22.7755 33.1434L22.9424 33.387L22.7322 33.2051L22.5286 33.0383L22.2282 32.7295C22.1325 32.6277 22.0317 32.5308 21.9262 32.4392C21.8293 32.351 21.7158 32.283 21.5924 32.239C21.5661 32.2332 21.5387 32.2332 21.5123 32.239C21.4837 32.2455 21.4565 32.2574 21.4322 32.274C21.4111 32.2863 21.3946 32.3052 21.3853 32.3278C21.3759 32.3505 21.3743 32.3755 21.3805 32.3991V32.3891L22.1731 33.4671L23.3412 34.6152L24.3958 35.6765V35.6848C24.4676 35.9468 24.541 36.2004 24.6144 36.4457C24.6789 36.6834 24.7609 36.916 24.8597 37.1416C24.8597 37.1549 24.8814 37.1599 24.8597 37.1616C24.838 37.1633 24.8748 37.1499 24.8848 37.1416L24.9549 37.0915L25.0934 36.9847L25.3587 36.7695L25.8593 36.3556L27.3828 35.0407V35.0657L26.6936 34.5401L26.5268 34.4066L26.4617 34.3582Z" fill="#263238"/>
<path d="M25.2721 32.7388C25.2721 32.7505 25.1987 32.8072 25.0902 32.9207C24.9473 33.0641 24.8339 33.2342 24.7565 33.4213C24.685 33.6104 24.6504 33.8115 24.6547 34.0136C24.6647 34.0984 24.6686 34.1837 24.6664 34.269C24.62 34.193 24.5946 34.106 24.593 34.017C24.5701 33.8042 24.5987 33.589 24.6764 33.3896C24.7535 33.19 24.8791 33.0128 25.0419 32.8739C25.1057 32.8099 25.185 32.7633 25.2721 32.7388Z" fill="#263238"/>
<path d="M24.4126 32.0381C24.1215 32.2121 23.8511 32.4187 23.6066 32.6538C23.3847 32.9096 23.1921 33.1895 23.0326 33.4882C23.1153 33.1475 23.2923 32.8369 23.5432 32.5921C23.7741 32.3282 24.0758 32.1359 24.4126 32.0381Z" fill="#263238"/>
<path d="M55.3985 24.1836C56.5899 22.7419 57.1974 20.5792 57.446 18.7237C57.6946 16.8681 57.224 14.8757 55.9592 13.4973C54.6943 12.119 52.5951 11.4782 50.8497 12.1507C48.979 12.8699 47.846 14.9507 47.8911 16.9532C47.9361 18.9556 49.4363 20.9964 51.0949 22.1261C52.9656 23.3977 53.5229 23.8415 55.3985 24.187" fill="#455A64"/>
<path d="M54.8695 24.7763C55.0122 24.4695 55.0698 24.1301 55.0364 23.7935L55.27 23.9003C55.5303 24.0004 55.8874 24.4259 56.041 24.6595C56.0843 24.7263 56.1227 24.8264 56.0727 24.8831C56.0226 24.9398 55.9058 24.9265 55.839 24.8831C55.7765 24.8236 55.7019 24.7781 55.6204 24.7496C55.6625 24.8296 55.6859 24.918 55.6889 25.0083C55.6895 25.053 55.6758 25.0969 55.6496 25.1332C55.6235 25.1696 55.5863 25.1966 55.5437 25.2102C55.4981 25.2146 55.4524 25.2041 55.4133 25.1803C55.3742 25.1566 55.3438 25.1208 55.3268 25.0783C55.2964 24.9923 55.285 24.9006 55.2934 24.8097C55.2725 24.9207 55.2217 25.024 55.1465 25.1084C55.1065 25.1479 55.0526 25.1701 54.9964 25.1701C54.9401 25.1701 54.8862 25.1479 54.8462 25.1084C54.7728 25.0199 54.8228 24.8848 54.8695 24.7763Z" fill="#455A64"/>
<path d="M54.9748 24.0953C54.9547 24.127 55.0882 24.2238 55.2735 24.1887C55.4587 24.1537 55.5472 24.0219 55.5171 23.9935C55.4871 23.9651 55.3853 24.0285 55.2468 24.0536C55.1083 24.0786 54.9898 24.0602 54.9748 24.0953Z" fill="#263238"/>
<path d="M49.0641 18.6053C49.0921 18.6958 49.1319 18.7822 49.1826 18.8622C49.3014 19.0918 49.4329 19.3147 49.5764 19.5297C50.5192 20.9545 51.8051 22.1193 53.3159 22.9172C53.5425 23.0415 53.7759 23.1529 54.0151 23.2509C54.1001 23.292 54.1897 23.3228 54.2821 23.3427C54.2921 23.321 53.9233 23.1591 53.3626 22.8421C52.6329 22.4211 51.9499 21.9238 51.3252 21.3586C50.7034 20.7925 50.144 20.1614 49.6565 19.4763C49.276 18.944 49.0858 18.5936 49.0641 18.6053Z" fill="#F5F5F5"/>
<path d="M48.5235 16.5383C48.4868 16.5383 48.5068 16.8186 48.5685 17.1507C48.6303 17.4828 48.7104 17.7447 48.7488 17.7381C48.7871 17.7314 48.7655 17.4577 48.7037 17.1257C48.642 16.7936 48.5602 16.5299 48.5235 16.5383Z" fill="#F5F5F5"/>
<path d="M58.3103 17.9871C56.3662 16.8624 54.7826 14.6831 53.723 12.699C52.6634 10.715 52.3664 8.27534 53.2224 6.19115C54.0784 4.10695 56.1643 2.52003 58.4104 2.54172C60.815 2.57009 62.9592 4.43736 63.7502 6.71345C64.5412 8.98954 63.7001 11.9097 62.3051 13.8688C60.7282 16.0815 60.2893 16.814 58.3219 17.9871" fill="#FA8A3C"/>
<path d="M59.153 18.4303C58.8631 18.1453 58.6555 17.7872 58.5522 17.394L58.3353 17.6126C58.0833 17.8346 57.8597 18.462 57.783 18.7891C57.7613 18.8825 57.7596 19.0027 57.8414 19.0527C57.9231 19.1028 58.0433 19.0344 58.1017 18.9509C58.1601 18.8675 58.2018 18.7607 58.2919 18.7106C58.2792 18.8178 58.2894 18.9265 58.3219 19.0294C58.3401 19.0801 58.374 19.1237 58.4188 19.1537C58.4635 19.1838 58.5167 19.1987 58.5706 19.1962C58.6239 19.1833 58.6713 19.1529 58.7054 19.11C58.7396 19.0671 58.7585 19.0141 58.7591 18.9593C58.7589 18.8494 58.7338 18.741 58.6857 18.6422C58.756 18.758 58.8563 18.8526 58.9761 18.9159C59.0361 18.9428 59.1041 18.9457 59.1662 18.924C59.2283 18.9023 59.2797 18.8576 59.3098 18.7991C59.3632 18.6639 59.2497 18.5321 59.153 18.4303Z" fill="#FA8A3C"/>
<path d="M58.7509 17.714C58.7793 17.7341 58.6658 17.8809 58.4506 17.9243C58.2353 17.9677 58.0784 17.8542 58.0968 17.8275C58.1152 17.8008 58.2637 17.8275 58.4305 17.8008C58.5974 17.7741 58.7259 17.689 58.7509 17.714Z" fill="#263238"/>
<g opacity="0.3">
<path opacity="0.3" d="M56.4598 3.79731C54.1237 5.00378 53.2526 7.32826 53.7516 9.90639C53.9101 10.7307 54.2522 11.5517 55.0014 12.0156C55.1968 12.1385 55.4146 12.2213 55.6422 12.2592C56.7969 12.4495 57.4611 11.5 57.6446 10.5605C57.7865 9.86634 57.723 9.1488 57.7764 8.44128C57.8298 7.73375 58.0267 6.98952 58.5607 6.52228C59.0947 6.05505 59.9224 5.89152 60.0459 5.09555C60.0689 4.90491 60.0474 4.71154 59.9831 4.53059C59.9188 4.34964 59.8135 4.18604 59.6754 4.05262C59.4649 3.84227 59.2108 3.68053 58.9312 3.57871C58.2152 3.32293 57.4275 3.35768 56.7368 3.6755L56.4598 3.79731Z" fill="white"/>
</g>
<path d="M63.1079 9.0625C63.1077 9.17449 63.0971 9.28622 63.0762 9.39624C63.0495 9.61317 62.9911 9.92354 62.9093 10.304C62.8042 10.7499 62.6738 11.1895 62.5188 11.6206C62.3282 12.1472 62.1053 12.6616 61.8514 13.1608C61.589 13.6568 61.297 14.1366 60.977 14.5975C60.7094 14.976 60.4202 15.3387 60.1109 15.6839C59.9081 15.9175 59.6931 16.1404 59.4668 16.3513C59.389 16.4334 59.3029 16.5072 59.2098 16.5716C59.2758 16.4798 59.3507 16.3949 59.4334 16.318C59.5836 16.1611 59.7939 15.9275 60.0442 15.6305C60.2945 15.3334 60.5782 14.963 60.8785 14.5475C61.1906 14.0876 61.477 13.6107 61.7362 13.1191C61.9897 12.6242 62.2153 12.1156 62.4121 11.5956C62.5889 11.115 62.7291 10.6745 62.8259 10.2973C62.9227 9.92021 62.9928 9.61651 63.0361 9.40291C63.0486 9.28733 63.0726 9.17328 63.1079 9.0625Z" fill="white"/>
<path d="M62.8526 6.50488C62.8877 6.50488 62.9711 6.81693 63.0395 7.21574C63.1079 7.61456 63.1363 7.94329 63.1013 7.94997C63.0662 7.95664 62.9844 7.63625 62.916 7.23744C62.8476 6.83862 62.8192 6.51489 62.8526 6.50488Z" fill="white"/>
<path d="M63.2731 27.3648C62.08 25.923 61.4743 23.7604 61.224 21.9048C60.9737 20.0492 61.4476 18.0568 62.7124 16.6785C63.9773 15.3001 66.0765 14.6594 67.822 15.3318C69.6909 16.051 70.8256 18.1319 70.7806 20.1343C70.7355 22.1368 69.2337 24.1776 67.5767 25.3073C65.7044 26.5788 65.1487 27.0227 63.2731 27.3681" fill="#FA8A3C"/>
<path d="M63.802 27.9516C63.6595 27.6448 63.6019 27.3054 63.6351 26.9688L63.4015 27.0755C63.1412 27.1757 62.7841 27.6012 62.6306 27.8348C62.5855 27.9015 62.5488 28.0017 62.5989 28.0584C62.6489 28.1151 62.7657 28.1018 62.8325 28.0584C62.8943 27.9987 62.9683 27.9532 63.0494 27.9249C63.0089 28.0054 62.9856 28.0935 62.981 28.1836C62.9765 28.2295 62.9893 28.2754 63.0169 28.3124C63.0445 28.3493 63.0849 28.3747 63.1301 28.3834C63.1754 28.3922 63.2224 28.3838 63.2617 28.3598C63.3011 28.3357 63.3301 28.2979 63.3431 28.2536C63.3749 28.1679 63.3868 28.076 63.3781 27.985C63.3991 28.096 63.4498 28.1993 63.525 28.2837C63.565 28.3232 63.6189 28.3454 63.6752 28.3454C63.7314 28.3454 63.7854 28.3232 63.8253 28.2837C63.8988 28.1986 63.8487 28.0601 63.802 27.9516Z" fill="#FA8A3C"/>
<path d="M63.697 27.2753C63.7171 27.3071 63.5836 27.4022 63.3983 27.3671C63.2131 27.3321 63.1247 27.2003 63.153 27.1736C63.1814 27.1469 63.2849 27.2086 63.4234 27.2336C63.5619 27.2587 63.6803 27.2403 63.697 27.2753Z" fill="#263238"/>
<path d="M69.6075 21.7825C69.5785 21.8727 69.5388 21.9589 69.489 22.0395C69.3702 22.2691 69.2387 22.4919 69.0952 22.707C68.1523 24.1317 66.8664 25.2966 65.3557 26.0944C65.1287 26.218 64.8953 26.3294 64.6565 26.4281C64.5714 26.4692 64.4818 26.5001 64.3895 26.5199C64.3795 26.4982 64.7466 26.3364 65.3089 26.0193C66.7754 25.1852 68.0406 24.039 69.0151 22.6619C69.3889 22.1213 69.5858 21.7708 69.6075 21.7825Z" fill="#F5F5F5"/>
<path d="M70.148 19.7175C70.1848 19.7175 70.1647 19.9978 70.103 20.3299C70.0413 20.662 69.9595 20.9239 69.9228 20.9173C69.8861 20.9106 69.9061 20.6353 69.9678 20.3049C70.0296 19.9745 70.1113 19.7091 70.148 19.7175Z" fill="#F5F5F5"/>
<path d="M57.009 34.5509C56.6852 34.631 56.5084 35.0915 56.2664 35.6656C56.0978 36.0469 55.9101 36.4195 55.7041 36.7819C55.3253 36.877 54.4726 37.1073 54.5026 37.2642C54.5427 37.4661 56.3532 40.3179 56.505 40.1827C56.6569 40.0475 57.2125 38.9345 57.2125 38.9345L58.5792 38.1002C59.3268 36.5717 58.0786 35.4303 58.0786 35.4303C58.0786 35.4303 58.1003 35.3168 58.6443 35.23C58.8513 35.2091 59.0521 35.1473 59.235 35.0481C59.3289 35.0058 59.4088 34.9377 59.4656 34.8518C59.5223 34.7658 59.5534 34.6655 59.5554 34.5625C59.5554 34.5625 57.3327 34.4708 57.009 34.5509Z" fill="#E0E0E0"/>
<path d="M57.7446 35.2427C57.7203 35.3175 57.6873 35.3892 57.6462 35.4563C57.5778 35.5881 57.4793 35.7733 57.3525 35.9936V35.9502C57.5328 36.1946 57.6612 36.4733 57.7298 36.7692C57.7984 37.065 57.8057 37.3718 57.7513 37.6706C57.731 37.7805 57.7008 37.8882 57.6612 37.9927C57.6312 38.0644 57.6111 38.1045 57.6061 38.1011C57.6011 38.0978 57.6545 37.9343 57.6912 37.6623C57.7363 37.3068 57.7032 36.9457 57.5944 36.6043C57.5226 36.3881 57.4198 36.1835 57.2891 35.9969L57.274 35.9752L57.2874 35.9535C57.4176 35.7383 57.5277 35.5581 57.6078 35.4329C57.6436 35.363 57.6897 35.2988 57.7446 35.2427Z" fill="#263238"/>
<path d="M58.7425 18.2202C58.7425 18.2202 58.7425 18.2469 58.7576 18.302C58.7726 18.357 58.7793 18.4422 58.7943 18.5456C58.8276 18.7592 58.8694 19.0763 58.9178 19.4851C59.0095 20.3011 59.1213 21.4875 59.1514 22.9593C59.1885 24.6824 59.1105 26.4061 58.9178 28.1189C58.7058 30.0529 58.2903 32.1538 58.0634 34.3815C57.8364 36.6092 57.768 38.7501 57.6779 40.6908C57.5878 42.6315 57.511 44.3803 57.446 45.8504C57.3809 47.3205 57.3208 48.5036 57.2791 49.3279C57.2574 49.7351 57.2407 50.0538 57.229 50.2724C57.229 50.3775 57.219 50.4593 57.214 50.5194C57.209 50.5794 57.214 50.6028 57.214 50.6028C57.2122 50.5745 57.2122 50.546 57.214 50.5177C57.214 50.4593 57.214 50.3775 57.214 50.2724C57.214 50.0521 57.2324 49.7334 57.2457 49.3262C57.2791 48.5019 57.3258 47.3138 57.3826 45.847C57.4393 44.3803 57.516 42.6298 57.5961 40.6874C57.6762 38.7451 57.748 36.6075 57.9749 34.3731C58.2019 32.1388 58.6207 30.0345 58.8377 28.1089C59.0327 26.4001 59.1163 24.6805 59.088 22.961C59.0663 21.4925 58.9645 20.3061 58.8827 19.4884C58.8377 19.0796 58.8043 18.7625 58.7759 18.5489C58.7642 18.4438 58.7542 18.3621 58.7475 18.3036C58.7409 18.2452 58.7425 18.2202 58.7425 18.2202Z" fill="#263238"/>
<path d="M56.5898 51.5795C56.5876 51.5578 56.5876 51.536 56.5898 51.5144C56.5898 51.4677 56.5898 51.4042 56.5981 51.3241C56.6082 51.1573 56.6232 50.9053 56.6415 50.5916C56.6833 49.9525 56.7433 49.0347 56.8167 47.9033C56.8902 46.772 56.9836 45.4153 57.0871 43.9152C57.1388 43.1659 57.1939 42.3783 57.2539 41.5606C57.314 40.743 57.3774 39.892 57.4826 39.0359C57.6928 37.3138 58.0849 35.6752 58.7725 34.3252C59.46 32.9752 60.306 31.9039 60.9835 30.9878C61.661 30.0717 62.2083 29.3358 62.547 28.7968C62.7139 28.5248 62.8407 28.3146 62.9208 28.1677L63.0159 28.0009C63.0376 27.9642 63.051 27.9458 63.051 27.9458C63.045 27.967 63.036 27.9873 63.0243 28.0059L62.9358 28.1727C62.8607 28.3229 62.7373 28.5365 62.5754 28.8102C62.2417 29.3558 61.716 30.1118 61.0335 31.0212C60.351 31.9306 59.5167 33.0069 58.8442 34.3502C58.1717 35.6935 57.7796 37.3188 57.5677 39.0376C57.4642 39.897 57.4008 40.7413 57.339 41.5573C57.2773 42.3733 57.2239 43.1609 57.1722 43.9118C57.0637 45.4136 56.9653 46.7619 56.8835 47.8983C56.8017 49.0347 56.7283 49.9458 56.6799 50.5849C56.6549 50.8986 56.6349 51.1423 56.6215 51.3141L56.6032 51.5044C56.6007 51.5297 56.5962 51.5548 56.5898 51.5795Z" fill="#263238"/>
<path d="M57.4162 46.4905C57.4105 46.4726 57.4066 46.4542 57.4045 46.4355C57.4045 46.3938 57.3912 46.3387 57.3828 46.2686C57.3661 46.1234 57.3294 45.9115 57.3094 45.6345C57.2454 44.8536 57.2287 44.0696 57.2593 43.2866C57.2894 42.2854 57.3928 41.1174 57.503 39.8108C57.6448 38.3982 57.6877 36.9775 57.6314 35.5589C57.5892 34.8249 57.4973 34.0945 57.3561 33.373C57.2243 32.6738 57.0674 32.003 56.8989 31.3705C56.5651 30.104 56.2214 28.9743 55.9661 28.0165C55.7108 27.0586 55.5289 26.276 55.4321 25.7287C55.3754 25.4567 55.3503 25.2431 55.327 25.0996C55.317 25.0312 55.3086 24.9761 55.3036 24.9327C55.2986 24.8893 55.3036 24.8776 55.3036 24.876C55.3103 24.8938 55.3154 24.9123 55.3186 24.931L55.3503 25.0979C55.3804 25.2414 55.4104 25.4533 55.4722 25.7237C55.579 26.2677 55.7675 27.0469 56.0328 28.0014C56.2982 28.9559 56.6452 30.084 56.9823 31.3522C57.1492 31.9846 57.3161 32.6571 57.4462 33.3546C57.5893 34.0788 57.6824 34.812 57.7249 35.5489C57.7825 36.9715 57.7374 38.3964 57.5897 39.8124C57.4746 41.119 57.3661 42.2938 57.3277 43.2833C57.2915 44.0618 57.2987 44.8418 57.3494 45.6195C57.3645 45.8965 57.3962 46.1101 57.4062 46.2553C57.4128 46.3242 57.4179 46.3798 57.4212 46.4221C57.4217 46.445 57.42 46.4679 57.4162 46.4905Z" fill="#263238"/>
<path d="M57.4677 35.3265C58.1152 35.4283 59.5436 35.178 59.5753 34.5772L57.406 34.5238C57.406 34.5238 56.7819 34.2618 56.4048 35.3482C56.0277 36.4345 55.7073 36.7849 55.7073 36.7849" fill="#E0E0E0"/>
<path d="M55.7041 36.7836C55.7041 36.7836 55.7492 36.7152 55.8242 36.5867C55.9295 36.4022 56.0237 36.2117 56.1063 36.016C56.1597 35.8908 56.2164 35.7523 56.2731 35.6005C56.3299 35.4486 56.3816 35.2851 56.4584 35.1132C56.5328 34.9294 56.6467 34.7642 56.7921 34.6293C56.8753 34.5525 56.977 34.4987 57.0874 34.4732C57.1977 34.4477 57.3128 34.4515 57.4212 34.4841H57.4062L58.1654 34.5008L59.5738 34.5375H59.6222V34.5792C59.6083 34.6688 59.5744 34.754 59.523 34.8285C59.4715 34.9031 59.4039 34.965 59.3252 35.0098C59.1921 35.0941 59.0485 35.1603 58.898 35.2067C58.654 35.2838 58.4021 35.333 58.1471 35.3535C57.9805 35.3679 57.813 35.3679 57.6465 35.3535C57.6027 35.3503 57.5592 35.3441 57.5163 35.3352C57.5009 35.333 57.4858 35.3291 57.4712 35.3235C57.5301 35.3184 57.5893 35.3184 57.6481 35.3235C57.8121 35.3272 57.976 35.3188 58.1387 35.2985C58.3885 35.2677 58.6344 35.2118 58.8729 35.1316C59.0159 35.084 59.1521 35.0184 59.2784 34.9363C59.3469 34.8974 59.4058 34.8436 59.4509 34.7789C59.4959 34.7142 59.5259 34.6403 59.5388 34.5626L59.5771 34.6059L58.1704 34.5742L57.4112 34.5559H57.4012C57.3073 34.5288 57.2081 34.5264 57.1131 34.5489C57.0181 34.5715 56.9305 34.6181 56.8588 34.6844C56.718 34.8096 56.6068 34.9647 56.5334 35.1383C56.4583 35.3051 56.4033 35.472 56.3432 35.6172C56.2831 35.7623 56.2231 35.9059 56.168 36.031C56.0793 36.2265 55.9761 36.415 55.8593 36.595C55.8183 36.666 55.7659 36.7297 55.7041 36.7836Z" fill="#263238"/>
<path d="M58.9995 35.1546C59.104 35.1321 59.2121 35.1321 59.3166 35.1546C59.3797 35.1639 59.4393 35.1893 59.4896 35.2285C59.5399 35.2677 59.5792 35.3193 59.6036 35.3782C59.692 35.6452 59.4751 35.9489 59.4751 35.9489C59.5473 35.9675 59.6119 36.0082 59.6598 36.0654C59.7076 36.1225 59.7364 36.1933 59.7421 36.2676C59.7671 36.5346 59.4217 36.7482 59.4217 36.7482C59.4217 36.7482 59.7104 36.8867 59.6703 37.1537C59.6582 37.2311 59.6272 37.3043 59.58 37.3669C59.5329 37.4294 59.4711 37.4794 59.4 37.5124C59.4448 37.5673 59.4771 37.6312 59.4947 37.6998C59.5123 37.7684 59.5147 37.84 59.5018 37.9096C59.405 38.215 58.9795 38.1799 58.7876 38.1549C58.4987 38.0774 58.215 37.9815 57.9382 37.8679C57.9382 37.8679 57.4159 37.6009 57.8732 37.2338C57.8251 37.2031 57.7873 37.1587 57.7647 37.1064C57.7421 37.054 57.7357 36.9961 57.7463 36.9401C57.7981 36.7632 58.0801 36.5613 58.0801 36.5613C58.0801 36.5613 57.9349 36.4645 57.9349 36.3544C57.9382 36.2823 57.9668 36.2137 58.0156 36.1607C58.0644 36.1076 58.1304 36.0734 58.2019 36.064C58.2019 36.064 57.7747 36.064 57.7263 35.777C57.6779 35.49 58.0133 35.3732 58.0734 35.3515C58.2186 35.3064 58.7709 35.198 58.9995 35.1546Z" fill="#E0E0E0"/>
<path d="M58.9996 35.1544C58.9512 35.1712 58.9015 35.1841 58.851 35.1928L58.4322 35.2896C58.2553 35.3379 58.01 35.3563 57.8365 35.5415C57.7916 35.5858 57.7642 35.6448 57.7593 35.7076C57.7544 35.7704 57.7724 35.8329 57.8098 35.8836C57.8625 35.9334 57.9247 35.9722 57.9926 35.9977C58.0605 36.0232 58.1328 36.0349 58.2053 36.0321L58.519 36.0438L58.2086 36.1022C58.1605 36.1085 58.115 36.1272 58.0763 36.1564C58.0377 36.1857 58.0074 36.2245 57.9883 36.2691C57.9802 36.2933 57.9762 36.3187 57.9767 36.3442C57.9756 36.367 57.9814 36.3897 57.9933 36.4092C58.0212 36.4558 58.0595 36.4952 58.1051 36.5244L58.1502 36.5561L58.1051 36.5895C57.996 36.667 57.9006 36.7623 57.8231 36.8715C57.8057 36.8952 57.7932 36.9222 57.7866 36.9509C57.78 36.9796 57.7794 37.0094 57.7848 37.0383C57.8034 37.0994 57.843 37.152 57.8966 37.1869L57.9433 37.2202L57.8999 37.2553C57.8506 37.2873 57.8097 37.3307 57.7807 37.3818C57.7516 37.4329 57.7353 37.4902 57.733 37.549C57.748 37.6082 57.7762 37.6633 57.8155 37.7101C57.8548 37.7569 57.9042 37.7942 57.96 37.8193C58.1051 37.876 58.2603 37.9344 58.4189 37.9862C58.5496 38.0374 58.6848 38.0765 58.8227 38.103C58.9563 38.1243 59.0927 38.1203 59.2248 38.0913C59.2843 38.0808 59.3394 38.0533 59.3835 38.0122C59.4276 37.971 59.4589 37.9179 59.4735 37.8593C59.4805 37.7999 59.4754 37.7397 59.4584 37.6824C59.4415 37.625 59.4131 37.5717 59.375 37.5256L59.3433 37.4822L59.3917 37.4605C59.4611 37.4284 59.5207 37.3785 59.5644 37.3157C59.6081 37.2529 59.6343 37.1797 59.6403 37.1034C59.6372 37.0322 59.6143 36.9633 59.5743 36.9043C59.5342 36.8454 59.4785 36.7988 59.4134 36.7697L59.3567 36.7396L59.41 36.7046C59.4867 36.6628 59.5535 36.6052 59.6062 36.5355C59.6588 36.4659 59.696 36.3859 59.7154 36.3008C59.7212 36.2257 59.7003 36.1511 59.6563 36.09C59.6123 36.0289 59.5481 35.9853 59.4751 35.967L59.4351 35.9554L59.4584 35.9203C59.5654 35.7764 59.6164 35.5985 59.6019 35.4197C59.5891 35.356 59.5579 35.2975 59.5123 35.2512C59.4667 35.205 59.4085 35.1731 59.345 35.1594C59.236 35.1318 59.1231 35.1233 59.0112 35.1344C59.0112 35.1344 59.0396 35.121 59.098 35.1143C59.1849 35.1022 59.2734 35.1073 59.3583 35.1294C59.4187 35.1456 59.4753 35.1734 59.5252 35.2111C59.5881 35.2609 59.6304 35.3322 59.6437 35.4114C59.6645 35.6019 59.614 35.7933 59.5018 35.9487L59.4851 35.9036C59.5691 35.9252 59.644 35.9732 59.6987 36.0405C59.755 36.1152 59.7834 36.2073 59.7788 36.3008C59.769 36.3978 59.7294 36.4893 59.6654 36.5628C59.603 36.6408 59.5287 36.7083 59.4451 36.763V36.6979C59.5193 36.7362 59.5847 36.7897 59.637 36.8548C59.6927 36.9255 59.7216 37.0135 59.7188 37.1034C59.7127 37.1953 59.6818 37.2838 59.6295 37.3596C59.5773 37.4354 59.5055 37.4956 59.4217 37.5339L59.4384 37.4705C59.4847 37.5255 59.519 37.5895 59.5394 37.6584C59.5598 37.7273 59.5658 37.7997 59.5569 37.871C59.5403 37.9464 59.5013 38.015 59.4451 38.0679C59.388 38.1173 59.3199 38.1522 59.2465 38.1697C59.1041 38.2014 58.957 38.2065 58.8127 38.1847C58.6689 38.1563 58.5277 38.1162 58.3905 38.0646C58.2236 38.0079 58.0751 37.9494 57.9283 37.8977C57.8656 37.8621 57.8092 37.8165 57.7614 37.7626C57.7076 37.707 57.6731 37.6356 57.6629 37.559C57.6572 37.4826 57.6778 37.4066 57.7213 37.3437C57.7414 37.3137 57.7664 37.287 57.7881 37.2603L57.8649 37.1919V37.2603C57.7938 37.2129 57.7418 37.142 57.718 37.06C57.7093 37.0192 57.7093 36.9771 57.7179 36.9363C57.7266 36.8954 57.7436 36.8569 57.7681 36.8231C57.8512 36.7051 57.9546 36.6029 58.0734 36.521V36.5845C58.0182 36.5474 57.972 36.4983 57.9383 36.441C57.9201 36.4096 57.9114 36.3737 57.9132 36.3375C57.9131 36.3046 57.9181 36.272 57.9283 36.2407C57.9513 36.1821 57.9896 36.1308 58.0392 36.0921C58.0888 36.0533 58.1479 36.0286 58.2103 36.0204V36.0905C58.1278 36.0932 58.0457 36.0785 57.9692 36.0474C57.8928 36.0164 57.8237 35.9697 57.7664 35.9103C57.7206 35.8482 57.6987 35.7716 57.7048 35.6947C57.711 35.6177 57.7447 35.5455 57.7998 35.4915C57.8916 35.3996 58.0072 35.3349 58.1335 35.3046C58.2436 35.2762 58.3438 35.2562 58.4355 35.2378C58.6191 35.2011 58.7693 35.1761 58.8611 35.1611C58.9069 35.1544 58.9533 35.1522 58.9996 35.1544Z" fill="#263238"/>
<path d="M59.3867 37.5014C59.3951 37.5014 59.3367 37.5915 59.1865 37.6299C58.9948 37.6608 58.7982 37.6353 58.6208 37.5565C58.3655 37.4872 58.1187 37.3899 57.8849 37.2661C58.1467 37.3068 58.403 37.3767 58.6492 37.4747C58.7604 37.5395 58.8859 37.5758 59.0146 37.5805C59.1433 37.5851 59.2711 37.558 59.3867 37.5014Z" fill="#263238"/>
<path d="M59.4383 36.7368C59.4383 36.7468 59.3665 36.7785 59.238 36.7902C59.0705 36.7982 58.9026 36.7876 58.7374 36.7585C58.5038 36.7334 58.2773 36.6637 58.0699 36.5532C58.299 36.5804 58.5263 36.6206 58.7508 36.6734C58.9377 36.7001 59.1095 36.7234 59.2314 36.7284C59.3532 36.7334 59.4366 36.7234 59.4383 36.7368Z" fill="#263238"/>
<path d="M59.455 35.9596C59.0697 36.1008 58.653 36.1337 58.2502 36.0547C58.4496 36.0237 58.6509 36.0064 58.8526 36.003C59.052 35.9726 59.2534 35.9581 59.455 35.9596Z" fill="#263238"/>
</svg>
