<svg width="17" height="14" viewBox="0 0 17 14" fill="none" xmlns="http://www.w3.org/2000/svg">
<path d="M2.02461 2.85713C3.165 1.62083 4.89062 0.994141 7.15271 0.994141H7.96553V3.28549L7.31202 3.41635C6.19845 3.63906 5.42383 4.07717 5.00929 4.72012C4.793 5.06648 4.67032 5.46307 4.65328 5.87107H7.15271C7.36828 5.87107 7.57502 5.95671 7.72746 6.10914C7.87989 6.26158 7.96553 6.46832 7.96553 6.68389V12.3736C7.96553 13.2702 7.23643 13.9993 6.33988 13.9993H1.46295C1.24738 13.9993 1.04063 13.9137 0.8882 13.7612C0.735767 13.6088 0.65013 13.402 0.65013 13.1865V9.12236L0.652569 6.74973C0.645254 6.65951 0.490817 4.52179 2.02461 2.85713ZM15.2809 13.9993H10.404C10.1884 13.9993 9.98167 13.9137 9.82924 13.7612C9.67681 13.6088 9.59117 13.402 9.59117 13.1865V9.12236L9.59361 6.74973C9.58629 6.65951 9.43186 4.52179 10.9657 2.85713C12.106 1.62083 13.8317 0.994141 16.0937 0.994141H16.9066V3.28549L16.2531 3.41635C15.1395 3.63906 14.3649 4.07717 13.9503 4.72012C13.734 5.06648 13.6114 5.46307 13.5943 5.87107H16.0937C16.3093 5.87107 16.5161 5.95671 16.6685 6.10914C16.8209 6.26158 16.9066 6.46832 16.9066 6.68389V12.3736C16.9066 13.2702 16.1775 13.9993 15.2809 13.9993Z" fill="#062540"/>
</svg>
