<svg width="84" height="69" viewBox="0 0 84 69" fill="none" xmlns="http://www.w3.org/2000/svg">
<g clip-path="url(#clip0_314:4610)">
<path opacity="0.1" d="M35.0126 11.6604C40.2822 11.4695 45.3019 9.69692 50.0944 7.75715C54.887 5.81738 59.6339 3.66803 64.7773 2.64044C68.0855 1.97943 71.8692 1.88609 74.5342 3.73421C77.0998 5.51615 77.9287 8.58363 78.374 11.433C78.7095 13.5765 78.9065 15.8319 77.9873 17.8387C77.3497 19.232 76.2172 20.403 75.4347 21.742C72.7095 26.3852 74.6351 32.1112 77.5883 36.6449C78.9725 38.7722 80.5806 40.8028 81.6488 43.065C82.7171 45.3272 83.2122 47.9229 82.2774 50.2326C81.35 52.5237 79.141 54.2411 76.7489 55.4503C71.8888 57.9068 66.1639 58.6094 60.5776 59.0074C48.2152 59.889 35.7877 59.5072 23.3928 59.1253C18.8055 58.9836 14.1986 58.8402 9.68616 58.1011C7.17999 57.6904 4.5932 57.0396 2.77341 55.4664C0.464272 53.4698 -0.108131 50.0884 1.4389 47.5852C4.03545 43.3857 11.2096 42.3429 13.0269 37.8354C14.0252 35.3551 12.9992 32.5923 11.5483 30.291C8.43471 25.3559 3.21635 21.0258 2.94114 15.3847C2.75224 11.5094 5.26167 7.62987 9.14063 5.79617C13.2061 3.86743 18.8454 4.11181 21.8433 7.293C24.9325 10.5709 30.3601 11.8285 35.0126 11.6604Z" fill="#FA8A3C"/>
<path d="M48.3992 58.5919L76.2685 58.4501L79.0376 51.6813L69.2458 50.9406L70.9524 43.5192L51.5853 40.9032L70.1308 34.1844L68.4926 33.7788L38.6717 38.8488L40.314 50.4306L42.6614 56.7955L48.3992 58.5919Z" fill="#FA8A3C"/>
<path d="M75.841 55.6151C75.841 55.6151 74.1311 55.33 73.1052 56.5892C73.1052 56.5892 73.8576 57.207 75.4762 56.3516L75.841 55.6151Z" fill="#FA8A3C"/>
<path d="M76.0201 55.5869C76.0201 55.5869 77.1112 56.9862 76.5738 58.5441C76.5738 58.5441 75.6847 58.1733 75.5878 56.2844L76.0201 55.5869Z" fill="#FA8A3C"/>
<path d="M77.0005 53.2865C77.0005 53.2865 76.3165 51.9789 73.5807 53.8092C73.5807 53.8092 73.9455 54.6883 75.1538 54.617C76.3621 54.5457 76.6813 53.9755 77.0005 53.2865Z" fill="#FA8A3C"/>
<path d="M77.1771 53.1923C77.1771 53.1923 78.5963 53.0226 78.7339 56.4083C78.7339 56.4083 77.8342 56.6026 77.195 55.5318C76.5559 54.4609 76.8181 53.8601 77.1771 53.1923Z" fill="#FA8A3C"/>
<path d="M78.0036 50.4918C78.0036 50.4918 77.2056 48.1871 74.3103 49.8265C74.3103 49.8265 74.9714 51.9411 77.7072 51.2758L78.0036 50.4918Z" fill="#FA8A3C"/>
<path d="M78.8927 47.0465C78.8927 47.0465 77.388 44.7181 74.7206 46.8768C74.7206 46.8768 75.6553 49.0626 78.6647 47.8747L78.8927 47.0465Z" fill="#FA8A3C"/>
<path d="M79.2119 43.7677C79.2119 43.7677 77.4564 41.6284 74.8151 43.7677C74.8151 43.7677 76.4793 45.6447 79.2119 44.3141V43.7677Z" fill="#FA8A3C"/>
<path d="M79.4855 40.583C79.4855 40.583 77.7072 38.3496 75.1766 40.4642C75.1766 40.4642 77.1828 42.4361 79.4855 41.1056V40.583Z" fill="#FA8A3C"/>
<path d="M79.3259 37.7557C79.3259 37.7557 77.4532 34.8808 75.0854 36.8291C75.0854 36.8291 77.0917 39.3 79.3259 38.3021V37.7557Z" fill="#FA8A3C"/>
<path d="M78.8927 34.4533C78.8927 34.4533 76.9093 31.6022 74.6066 33.788C74.6066 33.788 76.9548 36.259 78.8927 34.976V34.4533Z" fill="#FA8A3C"/>
<path d="M78.2316 31.5012C78.2316 31.5012 75.8834 28.8215 73.8348 29.8889C73.8348 29.8889 76.2815 32.7349 78.3342 32.2122L78.2316 31.5012Z" fill="#FA8A3C"/>
<path d="M77.4108 28.7029C77.4108 28.7029 74.7011 25.4208 73.1247 26.5171C73.1247 26.5171 75.1212 29.0627 77.603 29.3173L77.4108 28.7029Z" fill="#FA8A3C"/>
<path d="M76.2261 25.457C76.2261 25.457 73.8543 22.7773 72.1216 23.4426C72.1216 23.4426 74.1507 26.2224 76.5445 26.2936L76.2261 25.457Z" fill="#FA8A3C"/>
<path d="M75.1538 22.4213C75.1538 22.4213 72.532 19.8553 71.3921 20.3067C71.3921 20.3067 73.2843 23.1578 75.2678 22.9915L75.1538 22.4213Z" fill="#FA8A3C"/>
<path d="M74.1051 19.6172C74.1051 19.6172 71.848 16.5514 70.6161 16.789C70.6161 16.789 71.9848 19.5222 74.1051 19.9286V19.6172Z" fill="#FA8A3C"/>
<path d="M72.9668 15.8372C72.9668 15.8372 70.9719 13.4876 69.8939 13.4927C69.8939 13.4927 71.4686 16.6323 73.049 16.6034L72.9668 15.8372Z" fill="#FA8A3C"/>
<path d="M72.2926 13.3207L70.3653 8.42627C70.3653 8.42627 70.2693 12.8506 72.5377 14.2286L72.2926 13.3207Z" fill="#FA8A3C"/>
<path d="M71.5101 7.92298C71.5101 7.92298 71.191 3.83556 71.3961 3.50293C71.3961 3.50293 70.0185 6.90134 71.5232 9.72868L71.5101 7.92298Z" fill="#FA8A3C"/>
<path d="M78.0785 50.4374C78.0785 50.4374 80.0766 49.1467 81.3704 52.3042C81.3704 52.3042 79.5921 53.5346 77.8432 51.2427L78.0785 50.4374Z" fill="#FA8A3C"/>
<path d="M78.957 46.9151C78.957 46.9151 81.4079 45.7501 82.5966 49.0467C82.5966 49.0467 80.7035 50.4043 78.7339 47.7484L78.957 46.9151Z" fill="#FA8A3C"/>
<path d="M79.3263 43.9639C79.3263 43.9639 81.0817 41.8248 83.7231 43.9639C83.7231 43.9639 82.0588 45.8409 79.3263 44.5104V43.9639Z" fill="#FA8A3C"/>
<path d="M79.5457 40.583C79.5457 40.583 81.324 38.3496 83.8546 40.4642C83.8546 40.4642 81.8483 42.4361 79.5457 41.1056V40.583Z" fill="#FA8A3C"/>
<path d="M79.3259 37.8371C79.3259 37.8371 80.5733 34.6169 83.2846 36.0017C83.2846 36.0017 81.819 38.857 79.4366 38.3717L79.3259 37.8371Z" fill="#FA8A3C"/>
<path d="M78.7356 34.437C78.7356 34.437 79.9756 31.1608 82.7253 32.6797C82.7253 32.6797 81.0414 35.6827 78.8577 34.9427L78.7356 34.437Z" fill="#FA8A3C"/>
<path d="M77.9669 31.5175C77.9669 31.5175 78.4555 27.9256 80.7353 27.604C80.7353 27.604 80.2516 31.3919 78.2739 32.1649L77.9669 31.5175Z" fill="#FA8A3C"/>
<path d="M77.353 28.7096C77.353 28.7096 77.5435 24.382 79.4285 24.231C79.4285 24.231 79.365 27.5157 77.5655 29.3222L77.353 28.7096Z" fill="#FA8A3C"/>
<path d="M76.0307 25.3356C76.0307 25.3356 76.5925 21.7369 78.392 21.2974C78.392 21.2974 78.1689 24.7823 76.209 26.2189L76.0307 25.3356Z" fill="#FA8A3C"/>
<path d="M74.9404 22.4509C74.9404 22.4509 74.9592 18.7021 76.0584 18.1514C76.0584 18.1514 76.7399 21.5455 75.2588 22.9295L74.9404 22.4509Z" fill="#FA8A3C"/>
<path d="M74.0212 19.5748C74.0212 19.5748 74.1751 15.7148 75.3134 15.1709C75.3134 15.1709 75.7026 18.2256 74.1914 19.8277L74.0212 19.5748Z" fill="#FA8A3C"/>
<path d="M72.808 16.1452C72.808 16.1452 72.8145 13.0056 73.6271 12.269C73.6271 12.269 74.4348 15.7082 73.2322 16.7765L72.808 16.1452Z" fill="#FA8A3C"/>
<path d="M72.3879 13.1657L73.1785 7.94043C73.1785 7.94043 74.2525 12.2222 72.3504 14.1093L72.3879 13.1657Z" fill="#FA8A3C"/>
<path d="M72.234 7.97214C72.234 7.97214 74.263 4.45918 74.2215 4.06885C74.2215 4.06885 74.0057 7.75067 71.4531 9.58437L72.234 7.97214Z" fill="#FA8A3C"/>
<path d="M71.9962 6.93435C71.9962 6.93435 73.9113 1.94492 74.7776 1.54102C74.7776 1.54102 72.0418 2.99032 71.8366 6.79179L71.9962 6.93435Z" fill="#FA8A3C"/>
<path d="M73.0588 16.6331L73.1899 16.5915C71.5736 11.0989 71.1706 7.597 72.054 6.71876L71.9604 6.61523C71.0232 7.54184 71.4035 11.0056 73.0588 16.6331Z" fill="#444053"/>
<path d="M77.5093 29.4938L77.7031 29.4217C77.5313 28.9185 77.3465 28.4077 77.1527 27.9045C75.4656 23.5226 74.0293 19.4462 73.1085 16.3168L72.9399 16.2319C73.8624 19.3673 75.2735 23.5998 76.9622 27.9876C77.1552 28.4815 77.3392 28.9898 77.5093 29.4938Z" fill="#444053"/>
<path d="M73.4317 59.7253C73.4578 59.6956 76.0771 56.6213 77.9034 51.3731C78.9735 48.3005 79.5691 45.0704 79.6678 41.8033C79.7932 37.7192 78.9709 33.1592 77.5623 29.0166L77.4092 29.2033C80.5716 38.5007 79.3153 46.4677 77.6486 51.2653C75.8418 56.4661 73.2518 59.5064 73.2265 59.5369L73.4317 59.7253Z" fill="#444053"/>
<path d="M32.4991 53.1982C32.4991 53.1982 34.3449 55.5462 32.8793 59.0956L47.6167 65.7567L49.0311 66.0655L49.6824 63.0956L49.2468 59.3476V57.2992L32.4991 53.1982Z" fill="#D5D6DB"/>
<path d="M79.0376 51.6814L58.6397 47.8062L31.6115 52.2932L48.3992 58.592L79.0376 51.6814Z" fill="#FA8A3C"/>
<path d="M79.0376 51.6814L58.6397 47.8062L31.6115 52.2932L48.3992 58.592L79.0376 51.6814Z" fill="#FA8A3C"/>
<path d="M79.0376 51.6807C79.0376 51.6807 80.9453 55.4473 78.7469 58.9264L48.4985 65.7571C48.4985 65.7571 50.3761 62.7567 48.4016 58.592L79.0376 51.6807Z" fill="#FA8A3C"/>
<path opacity="0.1" d="M79.0376 51.6807C79.0376 51.6807 80.9453 55.4473 78.7469 58.9264L48.4985 65.7571C48.4985 65.7571 50.3761 62.7567 48.4016 58.592L79.0376 51.6807Z" fill="black"/>
<path opacity="0.1" d="M78.1363 52.9863C78.1363 52.9863 79.2265 55.7424 78.1363 57.526V52.9863Z" fill="black"/>
<path d="M48.4985 65.7567L31.6115 58.2471C31.6115 58.2471 30.667 58.4592 31.2777 59.1805C31.8884 59.9017 48.1728 66.4779 48.1728 66.4779L78.7469 58.9259L48.4985 65.7567Z" fill="#FA8A3C"/>
<path opacity="0.1" d="M48.4985 65.7567L31.6115 58.2471C31.6115 58.2471 30.667 58.4592 31.2777 59.1805C31.8884 59.9017 48.1728 66.4779 48.1728 66.4779L78.7469 58.9259L48.4985 65.7567Z" fill="black"/>
<path opacity="0.1" d="M49.8827 59.3506C49.8827 59.3506 51.5112 61.3871 49.8827 64.4418V59.3506Z" fill="black"/>
<path opacity="0.1" d="M41.9989 59.3159L49.3032 61.8555L49.2774 61.936L41.9731 59.3964L41.9989 59.3159Z" fill="black"/>
<path opacity="0.1" d="M40.5358 59.0632L49.3055 62.5386L49.2765 62.6179L40.5069 59.1425L40.5358 59.0632Z" fill="black"/>
<path opacity="0.1" d="M39.1922 59.0511L49.2565 63.3442L49.2257 63.4228L39.1614 59.1297L39.1922 59.0511Z" fill="black"/>
<path opacity="0.1" d="M37.7312 58.6833L49.1391 64.0537L49.1055 64.131L37.6976 58.7606L37.7312 58.6833Z" fill="black"/>
<path opacity="0.1" d="M36.5036 58.6853L49.0487 64.3999L49.0161 64.4777L36.471 58.7631L36.5036 58.6853Z" fill="black"/>
<path opacity="0.1" d="M33.8187 58.2099L48.8596 64.98L48.8273 65.0579L33.7864 58.2878L33.8187 58.2099Z" fill="black"/>
<path opacity="0.3" d="M71.4597 52.0952L57.1293 48.9556L48.3992 50.6951L60.1419 54.6408L71.4597 52.0952Z" fill="white"/>
<path d="M31.6115 52.293C31.6115 52.293 30.8706 52.6044 31.3054 53.0855C31.7402 53.5666 48.4017 58.5917 48.4017 58.5917L31.6115 52.293Z" fill="#FA8A3C"/>
<path d="M24.4146 45.0371C24.4146 45.0371 26.2597 47.3842 24.7941 50.9345L39.5315 57.5955L40.9458 57.9061L41.5972 54.9362L41.1551 51.189V49.1381L24.4146 45.0371Z" fill="#D5D6DB"/>
<path d="M70.9524 43.519L50.5553 39.6445L23.5263 44.1316L40.314 50.4304L70.9524 43.519Z" fill="#3A3768"/>
<path d="M70.9557 43.519C70.9557 43.519 72.8642 47.2857 70.6658 50.7647L40.4174 57.5955C40.4174 57.5955 42.2942 54.5925 40.3172 50.4296L70.9557 43.519Z" fill="#3A3768"/>
<path opacity="0.1" d="M70.9557 43.519C70.9557 43.519 72.8642 47.2857 70.6658 50.7647L40.4174 57.5955C40.4174 57.5955 42.2942 54.5925 40.3172 50.4296L49.8827 48.2717L70.9557 43.519Z" fill="black"/>
<path opacity="0.1" d="M70.0519 44.8252C70.0519 44.8252 71.1413 47.5804 70.0519 49.3649V44.8252Z" fill="black"/>
<path d="M40.4141 57.5955L23.5263 50.0859C23.5263 50.0859 22.5826 50.2981 23.1933 51.0193C23.804 51.7406 40.0884 58.3168 40.0884 58.3168L70.6625 50.7648L40.4141 57.5955Z" fill="#3A3768"/>
<path opacity="0.1" d="M40.4141 57.5955L23.5263 50.0859C23.5263 50.0859 22.5826 50.2981 23.1933 51.0193C23.804 51.7406 40.0884 58.3168 40.0884 58.3168L70.6625 50.7648L40.4141 57.5955Z" fill="black"/>
<path opacity="0.1" d="M41.7983 51.189C41.7983 51.189 43.4267 53.2255 41.7983 56.2802V51.189Z" fill="black"/>
<path opacity="0.1" d="M33.9138 51.1557L41.2181 53.6953L41.1923 53.7758L33.888 51.2362L33.9138 51.1557Z" fill="black"/>
<path opacity="0.1" d="M32.4497 50.9026L41.2194 54.3779L41.1905 54.4572L32.4208 50.9819L32.4497 50.9026Z" fill="black"/>
<path opacity="0.1" d="M31.1073 50.889L41.1716 55.1821L41.1408 55.2607L31.0765 50.9676L31.1073 50.889Z" fill="black"/>
<path opacity="0.1" d="M29.6453 50.5216L41.0532 55.8921L41.0197 55.9694L29.6118 50.5989L29.6453 50.5216Z" fill="black"/>
<path opacity="0.1" d="M28.419 50.5223L40.9641 56.2368L40.9315 56.3146L28.3863 50.6L28.419 50.5223Z" fill="black"/>
<path opacity="0.1" d="M25.7334 50.0473L40.7743 56.8174L40.742 56.8953L25.7011 50.1252L25.7334 50.0473Z" fill="black"/>
<path opacity="0.45" d="M63.3744 43.934L49.0441 40.7944L40.314 42.5339L52.0567 46.4797L63.3744 43.934Z" fill="white"/>
<path d="M23.5264 44.1318C23.5264 44.1318 22.7862 44.4433 23.2202 44.9235C23.6542 45.4038 40.314 50.4297 40.314 50.4297L23.5264 44.1318Z" fill="#3A3768"/>
<path d="M23.6493 35.7007C23.6493 35.7007 25.4951 39.9154 24.0295 43.4648L38.767 48.2591L40.178 48.5705L40.8294 45.6006L40.3938 41.8526V39.8017L23.6493 35.7007Z" fill="#D5D6DB"/>
<path d="M70.1846 34.1834L49.7867 30.3081L22.7577 34.7952L39.5462 41.0939L70.1846 34.1834Z" fill="#FA8A3C"/>
<path d="M70.1846 34.1826C70.1846 34.1826 72.0956 37.9493 69.8972 41.4283L39.6488 48.2591C39.6488 48.2591 41.5264 45.2561 39.5494 41.094L70.1846 34.1826Z" fill="#FA8A3C"/>
<path opacity="0.1" d="M70.1846 34.1826C70.1846 34.1826 72.0956 37.9493 69.8972 41.4283L39.6488 48.2591C39.6488 48.2591 41.5264 45.2561 39.5494 41.094L70.1846 34.1826Z" fill="black"/>
<path opacity="0.1" d="M69.2832 35.4888C69.2832 35.4888 70.3735 38.2448 69.2832 40.0285V35.4888Z" fill="black"/>
<path d="M39.6455 48.259L22.7585 42.6162C22.7585 42.6162 21.814 42.8283 22.4247 43.5496C23.0353 44.2708 39.3198 48.9803 39.3198 48.9803L69.8939 41.4282L39.6455 48.259Z" fill="#FA8A3C"/>
<path opacity="0.1" d="M39.6455 48.259L22.7585 42.6162C22.7585 42.6162 21.814 42.8283 22.4247 43.5496C23.0353 44.2708 39.3198 48.9803 39.3198 48.9803L69.8939 41.4282L39.6455 48.259Z" fill="black"/>
<path opacity="0.1" d="M41.0297 41.8525C41.0297 41.8525 42.6582 43.889 41.0297 46.9438V41.8525Z" fill="black"/>
<path opacity="0.1" d="M33.1449 41.8188L40.4492 44.3584L40.4235 44.4389L33.1191 41.8993L33.1449 41.8188Z" fill="black"/>
<path opacity="0.1" d="M31.6814 41.5662L40.4511 45.0415L40.4221 45.1208L31.6525 41.6455L31.6814 41.5662Z" fill="black"/>
<path opacity="0.1" d="M30.3398 41.5531L40.4041 45.8462L40.3732 45.9247L30.3089 41.6316L30.3398 41.5531Z" fill="black"/>
<path opacity="0.1" d="M28.8766 41.1852L40.2845 46.5557L40.251 46.633L28.8431 41.2625L28.8766 41.1852Z" fill="black"/>
<path opacity="0.1" d="M27.6499 41.1864L40.195 46.9009L40.1624 46.9786L27.6173 41.2641L27.6499 41.1864Z" fill="black"/>
<path opacity="0.1" d="M24.9646 40.7118L40.0054 47.4819L39.9731 47.5598L24.9323 40.7897L24.9646 40.7118Z" fill="black"/>
<path opacity="0.3" d="M62.6066 34.5976L48.2763 31.458L39.5462 33.1975L51.2889 37.1432L62.6066 34.5976Z" fill="white"/>
<path d="M22.7585 34.7954C22.7585 34.7954 22.0176 35.1068 22.4524 35.5879C22.8872 36.0691 39.5462 41.0941 39.5462 41.0941L22.7585 34.7954Z" fill="#FA8A3C"/>
<path d="M58.5794 9.03689C58.5794 9.03689 61.6735 8.84257 61.312 11.1048C61.312 11.1048 61.3845 11.5045 61.0368 11.686C61.0368 11.686 61.0311 11.5163 60.7192 11.5749C60.6079 11.5948 60.4948 11.6005 60.3821 11.5919C60.2303 11.581 60.086 11.5191 59.971 11.4154C59.971 11.4154 59.1005 11.0403 58.7618 9.55705C58.7618 9.55705 58.511 9.23375 58.5176 9.1506L59.0419 9.3831C59.0419 9.3831 58.8636 9.77597 59.0037 10.1027C59.0037 10.1027 59.0208 9.39752 59.1217 9.41364C59.1421 9.41364 59.3929 9.55026 59.3929 9.55026C59.3929 9.55026 59.0859 10.235 59.3179 10.7323C59.3179 10.7323 59.23 9.88883 59.4889 9.59948L59.857 9.82349C59.857 9.82349 59.4979 10.5303 59.7413 11.1073C59.7413 11.1073 59.6787 10.2223 59.9343 9.8778L60.2682 10.1493C60.2682 10.1493 59.9302 10.846 60.1362 11.3246C60.1362 11.3246 60.1631 10.2944 60.3398 10.2164C60.3398 10.2164 60.6321 10.4845 60.6761 10.5948C60.6761 10.5948 60.4448 11.1039 60.589 11.3678C60.589 11.3678 60.6761 10.6814 60.7518 10.678C60.7518 10.678 61.0425 11.1328 61.0726 11.4417C61.0585 11.1537 60.9723 10.8746 60.8226 10.6322C60.9902 10.6652 61.1447 10.7487 61.2672 10.8723C61.2672 10.8723 61.2224 10.5507 60.7502 10.5227C60.7502 10.5227 60.51 10.1773 60.4457 10.157C60.4457 10.157 60.9155 10.1154 61.1996 10.2469C61.1996 10.2469 60.9488 9.94398 60.3602 10.0772L60.0345 9.79719C60.0345 9.79719 60.6517 9.71233 60.9138 9.80652C60.9138 9.80652 60.6118 9.53838 59.9457 9.73355L59.5866 9.51038C59.5866 9.51038 60.1134 9.39243 60.4269 9.43486C60.4269 9.43486 60.0963 9.24903 59.4816 9.45013L59.2259 9.33049C59.2259 9.33049 59.6111 9.25157 59.7242 9.23884C59.8374 9.22612 59.8431 9.19387 59.8431 9.19387C59.5987 9.15203 59.3479 9.1814 59.1185 9.27873C59.1185 9.27873 58.5689 9.07253 58.5794 9.03689Z" fill="#FA8A3C"/>
<path opacity="0.1" d="M15.0511 18.3352C15.0511 18.3352 18.1451 18.1409 17.7836 20.4031C17.7836 20.4031 17.8561 20.8028 17.5084 20.9844C17.5084 20.9844 17.5027 20.8147 17.1908 20.8732C17.0795 20.8927 16.9664 20.8984 16.8538 20.8902C16.7033 20.8786 16.5605 20.8167 16.4466 20.7137C16.4466 20.7137 15.5754 20.3386 15.2375 18.8554C15.2375 18.8554 14.9867 18.5321 14.9933 18.4489L15.516 18.6814C15.516 18.6814 15.3377 19.0743 15.4777 19.401C15.4777 19.401 15.4948 18.6959 15.595 18.712C15.6153 18.712 15.8669 18.8486 15.8669 18.8486C15.8669 18.8486 15.56 19.5334 15.7912 20.0306C15.7912 20.0306 15.7033 19.1872 15.963 18.8978L16.331 19.1218C16.331 19.1218 15.972 19.8287 16.2154 20.4057C16.2154 20.4057 16.1527 19.5206 16.4084 19.1761L16.7414 19.4477C16.7414 19.4477 16.4043 20.1443 16.6103 20.6229C16.6103 20.6229 16.6372 19.5928 16.8139 19.5147C16.8139 19.5147 17.1054 19.7828 17.1501 19.8932C17.1501 19.8932 16.9189 20.4023 17.0622 20.6662C17.0622 20.6662 17.1501 19.9797 17.225 19.9763C17.225 19.9763 17.5157 20.4311 17.5459 20.74C17.5318 20.4519 17.4453 20.1728 17.2951 19.9305C17.4628 19.9636 17.6176 20.0471 17.7405 20.1706C17.7405 20.1706 17.6949 19.849 17.2234 19.821C17.2234 19.821 16.9832 19.4757 16.9189 19.4545C16.9189 19.4545 17.3879 19.4137 17.6729 19.5453C17.6729 19.5453 17.4221 19.2423 16.8334 19.3755L16.5077 19.0955C16.5077 19.0955 17.1257 19.0107 17.3871 19.1049C17.3871 19.1049 17.0858 18.8367 16.419 19.0319L16.0607 18.8087C16.0607 18.8087 16.5875 18.6908 16.901 18.7332C16.901 18.7332 16.5704 18.5474 15.9557 18.7485L15.6992 18.6288C15.6992 18.6288 16.0851 18.5499 16.1983 18.5372C16.3115 18.5245 16.3172 18.4922 16.3172 18.4922C16.0728 18.4498 15.8218 18.4792 15.5925 18.5771C15.5925 18.5771 15.0413 18.3709 15.0511 18.3352Z" fill="#FA8A3C"/>
<path opacity="0.1" d="M53.3684 23.0122C53.3684 23.0122 54.7168 20.0992 56.4332 21.5349C56.4332 21.5349 56.8036 21.6639 56.7857 22.0687C56.7857 22.0687 56.6432 21.9914 56.5414 22.3037C56.5034 22.4141 56.4531 22.5195 56.3916 22.6177C56.3083 22.7508 56.1857 22.8521 56.0423 22.9062C56.0423 22.9062 55.3038 23.5154 53.896 23.0996C53.896 23.0996 53.5028 23.1701 53.4384 23.1209L53.8879 22.7585C53.8879 22.7585 54.1322 23.1124 54.4725 23.1438C54.4725 23.1438 53.8895 22.7848 53.9522 22.7017C53.9652 22.6847 54.1965 22.5209 54.1965 22.5209C54.1965 22.5209 54.6207 23.1344 55.1499 23.1658C55.1499 23.1658 54.4009 22.8349 54.2852 22.4573L54.6516 22.2316C54.6516 22.2316 55.0693 22.9036 55.671 22.963C55.671 22.963 54.8992 22.5888 54.7355 22.1883L55.1247 22.0186C55.1247 22.0186 55.544 22.6652 56.0456 22.7119C56.0456 22.7119 55.1955 22.1849 55.2167 21.9855C55.2167 21.9855 55.5839 21.8514 55.6979 21.8642C55.6979 21.8642 56.0089 22.3215 56.3021 22.3215C56.3021 22.3215 55.7704 21.9066 55.8029 21.8396C55.8029 21.8396 56.3257 21.7971 56.6009 21.9244C56.3529 21.796 56.0769 21.7374 55.8005 21.7547C55.9102 21.6184 56.0556 21.5184 56.219 21.4671C56.219 21.4671 55.9275 21.3516 55.6743 21.7666C55.6743 21.7666 55.2672 21.8166 55.2191 21.865C55.2191 21.865 55.4137 21.4187 55.6621 21.2244C55.6621 21.2244 55.2859 21.3033 55.1141 21.9032L54.7192 22.0661C54.7192 22.0661 54.9464 21.462 55.1556 21.271C55.1556 21.271 54.7844 21.4144 54.6223 22.1196L54.2608 22.3368C54.2608 22.3368 54.4179 21.7997 54.6068 21.5358C54.6068 21.5358 54.2901 21.7462 54.159 22.403L53.9335 22.5778C53.9335 22.5778 54.0556 22.1883 54.0963 22.0797C54.137 21.9711 54.1167 21.949 54.1167 21.949C53.9618 22.1505 53.8637 22.3929 53.8333 22.6491C53.8333 22.6491 53.3977 23.0377 53.3684 23.0122Z" fill="#FA8A3C"/>
<path opacity="0.1" d="M22.1202 14.2198C22.1202 14.2198 23.4677 11.3067 25.1849 12.7425C25.1849 12.7425 25.5545 12.8714 25.5374 13.2762C25.5374 13.2762 25.3941 13.1998 25.2932 13.5112C25.2552 13.6221 25.2047 13.7278 25.1426 13.826C25.0595 13.9589 24.9372 14.0599 24.7941 14.1137C24.7941 14.1137 24.0548 14.7229 22.6478 14.308C22.6478 14.308 22.2545 14.3776 22.1894 14.3284L22.6364 13.9652C22.6364 13.9652 22.8806 14.3199 23.2202 14.3513C23.2202 14.3513 22.638 13.9915 22.7007 13.9084C22.7137 13.8914 22.945 13.7276 22.945 13.7276C22.945 13.7276 23.3684 14.3411 23.8984 14.3725C23.8984 14.3725 23.1485 14.0416 23.0329 13.6648L23.405 13.4408C23.405 13.4408 23.8219 14.112 24.4244 14.1722C24.4244 14.1722 23.6525 13.7972 23.4881 13.3967L23.8781 13.227C23.8781 13.227 24.2974 13.8744 24.7981 13.9202C24.7981 13.9202 23.9489 13.3933 23.9701 13.1947C23.9701 13.1947 24.3365 13.0598 24.4505 13.0734C24.4505 13.0734 24.7615 13.5299 25.0554 13.5299C25.0554 13.5299 24.5229 13.115 24.5555 13.0479C24.5555 13.0479 25.0782 13.0055 25.3542 13.1328C25.1063 13.0043 24.8303 12.9458 24.5539 12.9631C24.6631 12.8267 24.8083 12.7267 24.9716 12.6754C24.9716 12.6754 24.6801 12.56 24.4269 12.975C24.4269 12.975 24.0197 13.0259 23.9717 13.0742C23.9717 13.0742 24.1663 12.6271 24.4154 12.4327C24.4154 12.4327 24.0393 12.5125 23.8675 13.1158L23.4718 13.2787C23.4718 13.2787 23.6989 12.6737 23.9082 12.4828C23.9082 12.4828 23.5369 12.6262 23.3757 13.3313L23.0134 13.5486C23.0134 13.5486 23.1713 13.0123 23.3602 12.7475C23.3602 12.7475 23.0427 12.958 22.9124 13.6148L22.6869 13.7896C22.6869 13.7896 22.8082 13.4001 22.8497 13.2915C22.8912 13.1828 22.8701 13.1616 22.8701 13.1616C22.7156 13.3633 22.6178 13.6056 22.5875 13.8617C22.5875 13.8617 22.1454 14.2469 22.1202 14.2198Z" fill="#FA8A3C"/>
<path opacity="0.1" d="M17.8137 28.6287C17.8137 28.6287 19.1612 25.7148 20.8809 27.1506C20.8809 27.1506 21.2505 27.2795 21.2334 27.6843C21.2334 27.6843 21.0901 27.6079 20.9892 27.9194C20.9515 28.0302 20.9012 28.1358 20.8393 28.2342C20.7563 28.367 20.634 28.468 20.4909 28.5218C20.4909 28.5218 19.7515 29.1319 18.3437 28.7161C18.3437 28.7161 17.9513 28.7866 17.8861 28.7365L18.3356 28.3742C18.3356 28.3742 18.5799 28.7289 18.9202 28.7603C18.9202 28.7603 18.338 28.4005 18.4007 28.3173C18.4138 28.3003 18.645 28.1366 18.645 28.1366C18.645 28.1366 19.0684 28.7501 19.5985 28.7823C19.5985 28.7823 18.8486 28.4505 18.7329 28.0738L19.1002 27.8481C19.1002 27.8481 19.517 28.5201 20.1196 28.5795C20.1196 28.5795 19.3477 28.2045 19.1832 27.8039L19.5732 27.6342C19.5732 27.6342 19.9925 28.2808 20.4933 28.3275C20.4933 28.3275 19.6432 27.8006 19.6644 27.6011C19.6644 27.6011 20.0316 27.4662 20.1456 27.4798C20.1456 27.4798 20.4567 27.9363 20.7506 27.9363C20.7506 27.9363 20.2181 27.5214 20.2507 27.4543C20.2507 27.4543 20.7734 27.4119 21.0494 27.5392C20.8011 27.4108 20.5249 27.3523 20.2482 27.3695C20.3576 27.2329 20.5032 27.1329 20.6667 27.0818C20.6667 27.0818 20.3752 26.9656 20.122 27.3814C20.122 27.3814 19.7149 27.4314 19.6669 27.4798C19.6669 27.4798 19.8615 27.0335 20.1098 26.8383C20.1098 26.8383 19.7336 26.9181 19.5618 27.5214L19.1669 27.6843C19.1669 27.6843 19.3941 27.0793 19.6033 26.8892C19.6033 26.8892 19.2321 27.0318 19.0708 27.7378L18.7085 27.9541C18.7085 27.9541 18.8665 27.4179 19.0554 27.1531C19.0554 27.1531 18.7378 27.3636 18.6067 28.0212L18.3812 28.1909C18.3812 28.1909 18.5033 27.8014 18.544 27.6928C18.5847 27.5842 18.5644 27.563 18.5644 27.563C18.4096 27.7644 18.3117 28.0068 18.2819 28.263C18.2819 28.263 17.8389 28.6542 17.8137 28.6287Z" fill="#FA8A3C"/>
<path opacity="0.1" d="M67.4113 66.5392C66.3775 66.5392 65.5394 66.4415 65.5394 66.3211C65.5394 66.2007 66.3775 66.103 67.4113 66.103C68.4452 66.103 69.2832 66.2007 69.2832 66.3211C69.2832 66.4415 68.4452 66.5392 67.4113 66.5392Z" fill="#FA8A3C"/>
<path opacity="0.1" d="M79.6825 62.8326C78.6487 62.8326 77.8106 62.735 77.8106 62.6146C77.8106 62.4941 78.6487 62.3965 79.6825 62.3965C80.7163 62.3965 81.5544 62.4941 81.5544 62.6146C81.5544 62.735 80.7163 62.8326 79.6825 62.8326Z" fill="#FA8A3C"/>
<path opacity="0.1" d="M58.0575 69.0006C57.0237 69.0006 56.1856 68.903 56.1856 68.7825C56.1856 68.6621 57.0237 68.5645 58.0575 68.5645C59.0914 68.5645 59.9294 68.6621 59.9294 68.7825C59.9294 68.903 59.0914 69.0006 58.0575 69.0006Z" fill="#FA8A3C"/>
<path opacity="0.1" d="M10.1242 63.6388C9.09037 63.6388 8.2523 63.5411 8.2523 63.4207C8.2523 63.3003 9.09037 63.2026 10.1242 63.2026C11.158 63.2026 11.9961 63.3003 11.9961 63.4207C11.9961 63.5411 11.158 63.6388 10.1242 63.6388Z" fill="#FA8A3C"/>
<path opacity="0.1" d="M25.7011 62.5807C24.6673 62.5807 23.8292 62.483 23.8292 62.3626C23.8292 62.2422 24.6673 62.1445 25.7011 62.1445C26.7349 62.1445 27.573 62.2422 27.573 62.3626C27.573 62.483 26.7349 62.5807 25.7011 62.5807Z" fill="#FA8A3C"/>
<path opacity="0.1" d="M35.7779 67.7418C34.5552 67.7418 33.564 67.5644 33.564 67.3455C33.564 67.1266 34.5552 66.9492 35.7779 66.9492C37.0006 66.9492 37.9918 67.1266 37.9918 67.3455C37.9918 67.5644 37.0006 67.7418 35.7779 67.7418Z" fill="#FA8A3C"/>
<path d="M34.7903 63.3623C34.7903 63.3623 37.8729 65.022 36.2803 66.9771C36.2803 66.9771 36.1305 67.4013 35.6973 67.3716C35.6973 67.3716 35.7836 67.207 35.4531 67.0755C35.3354 67.0281 35.2236 66.9663 35.12 66.8914C34.9801 66.7905 34.8754 66.6448 34.822 66.4764C34.822 66.4764 34.1918 65.5973 34.6804 63.9707C34.6804 63.9707 34.6169 63.5108 34.6722 63.4361L35.0468 63.9716C35.0468 63.9716 34.66 64.2422 34.6152 64.6402C34.6152 64.6402 35.0223 63.9724 35.1038 64.0462C35.1217 64.0615 35.2894 64.339 35.2894 64.339C35.2894 64.339 34.6185 64.8133 34.5688 65.4293C34.5688 65.4293 34.9466 64.5664 35.3545 64.4433L35.5882 64.8778C35.5882 64.8778 34.8554 65.3428 34.774 66.042C34.774 66.042 35.1998 65.1553 35.6346 64.9762L35.8064 65.4353C35.8064 65.4353 35.0997 65.9037 35.0346 66.4858C35.0346 66.4858 35.6257 65.5125 35.8382 65.543C35.8382 65.543 35.9717 65.9741 35.9538 66.1073C35.9538 66.1073 35.4547 66.4552 35.4457 66.7972C35.4457 66.7972 35.9066 66.1905 35.9774 66.2304C35.9774 66.2304 36.0067 66.8405 35.8651 67.1578C35.8651 67.1578 36.1093 66.7047 36.0694 66.2304C36.2122 66.362 36.315 66.5342 36.365 66.7259C36.365 66.7259 36.4977 66.3907 36.0605 66.0819C36.0605 66.0819 36.019 65.6075 35.9685 65.549C35.9685 65.549 36.4415 65.79 36.6426 66.0853C36.6426 66.0853 36.5686 65.6449 35.9269 65.4259L35.7641 64.9609C35.7641 64.9609 36.4057 65.2444 36.6036 65.4938C36.6036 65.4938 36.4611 65.0568 35.7136 64.8472L35.4922 64.423C35.4922 64.423 36.0621 64.6232 36.3406 64.8472C36.3406 64.8472 36.1248 64.4713 35.4238 64.2982L35.2438 64.031C35.2438 64.031 35.6574 64.1845 35.7731 64.2397C35.8887 64.2948 35.9115 64.2677 35.9115 64.2677C35.7001 64.0814 35.4434 63.9598 35.1697 63.9164C35.1697 63.9164 34.7618 63.3912 34.7903 63.3623Z" fill="#FA8A3C"/>
<path d="M25.6408 32.0145C26.1734 30.5066 29.1046 30.3649 30.3764 30.7493C31.2802 31.0234 33.1854 31.3322 34.2032 31.4875L34.2692 31.4222C34.1373 31.3814 34.134 31.2813 34.1503 31.1328C34.1598 30.9371 34.1571 30.741 34.1422 30.5456C33.5185 30.7476 32.9632 30.2699 32.9632 30.2699C32.2304 29.9304 32.4274 28.4777 32.2874 28.0806C32.1823 27.7836 32.0691 26.0339 32.0187 25.1616H32.0081L32.0024 24.8689C31.995 24.7425 31.9918 24.6686 31.9918 24.6686C31.9918 24.6686 31.9201 22.5354 31.7801 22.1035C31.6498 21.7064 31.544 19.7055 31.5277 19.3882C31.5277 19.361 31.5277 19.3466 31.5277 19.3466L31.5383 19.1616C31.5309 19.0267 31.5277 18.8765 31.5285 18.7187C31.5285 17.9932 31.601 17.0793 31.6099 16.9316C31.6099 16.9104 31.6099 16.885 31.6099 16.8544C31.6042 16.5447 31.6417 14.9936 32.9078 14.4072C33.3743 14.19 33.9353 13.9312 34.4784 13.6792C34.6185 12.4191 34.9385 11.1658 34.9108 9.89639C34.9108 9.70546 34.8945 9.51454 34.8766 9.32447C34.8766 9.37962 34.8823 9.43563 34.8831 9.49418C34.8831 9.61721 34.8831 9.7411 34.8831 9.86414C34.8351 8.27652 34.2594 6.68041 34.3131 5.12673C34.318 5.27862 34.3286 5.43136 34.3425 5.5841C34.3143 5.05858 34.3671 4.53176 34.4988 4.02363C34.5476 3.84459 34.6136 3.65961 34.7545 3.53996C34.8876 3.4436 35.0403 3.38059 35.2006 3.35583C35.5859 3.25305 35.9774 3.17708 36.3723 3.12842C36.4323 2.93697 36.5214 2.75677 36.6361 2.59469C37.4617 1.41352 38.6847 0.303627 40.1308 0.0490642C40.8562 -0.078217 41.6908 0.0278506 42.1842 0.568371C42.2358 0.615855 42.2842 0.666881 42.3292 0.721109C42.5946 1.05119 42.7086 1.4848 42.9805 1.81403C42.9985 1.83609 43.0188 1.85646 43.0384 1.87767C43.5709 2.37407 44.4006 2.47759 44.9925 2.92307C45.0968 3.00304 45.1946 3.09188 45.2848 3.18867C45.5233 3.43499 45.7372 3.70594 45.9232 3.99733C46.1894 4.38766 46.463 4.79411 46.5477 5.25996C46.7178 6.19335 46.108 7.07838 45.9948 8.01771C45.7424 10.1196 47.9742 11.9846 47.5516 14.0585C47.4388 14.568 47.1898 15.0337 46.8335 15.4017C47.7039 16.2231 48.4448 17.0199 48.4448 17.0199V17.0674H48.5824L48.5686 17.2371H48.5824L48.5067 18.1578L48.5824 19.4985C48.5824 19.4985 48.5824 19.5129 48.5824 19.5401V19.5468V19.5833C48.5824 19.5833 48.5824 19.5978 48.5824 19.6249H48.5775C48.5523 20.1162 48.4521 21.8829 48.3333 22.2554C48.1932 22.6873 48.1224 24.8205 48.1224 24.8205C48.1224 24.8205 47.9677 27.8354 47.826 28.2342C47.6843 28.633 47.8854 30.0815 47.1502 30.4234C46.9351 30.5954 46.6804 30.7054 46.4117 30.7425C46.4491 31.0598 46.4255 31.2898 46.3042 31.3619C46.2523 31.3937 46.1934 31.4113 46.1332 31.4128C46.1831 31.4899 46.2275 31.5708 46.2659 31.6547C46.5578 31.6229 46.8445 31.5525 47.1192 31.4451C47.909 31.1057 50.53 30.342 51.2913 30.8791C52.0526 31.4162 53.8846 31.9033 53.0387 34.0654C52.1927 36.2275 51.7986 36.2818 51.7986 36.2818C51.5382 36.4788 51.3098 36.718 51.122 36.9903C50.8679 37.3883 48.501 38.2988 47.909 38.2988C47.6574 38.2947 47.4059 38.3078 47.1559 38.3378C47.1559 38.3378 47.7983 38.925 47.7128 39.2661C47.6273 39.6072 47.9082 42.3378 47.9082 42.3378C47.9082 42.3378 47.2569 43.0217 46.9784 42.1248L46.9686 42.1384C46.9165 42.2122 46.6348 42.5457 46.1047 42.1248C45.8878 41.9533 45.6574 41.8012 45.4159 41.67L42.8495 41.2916C42.5819 41.2741 42.3136 41.2721 42.0458 41.2856C41.6387 41.3204 41.2389 41.0692 40.9873 40.8749C40.4556 41.0854 39.858 41.3153 39.5738 41.3993C38.9974 41.569 36.3479 42.3098 35.7283 42.0782C35.5995 42.0248 35.4849 41.9398 35.3944 41.8304L34.8033 41.8499L35.0801 41.9076C35.0801 41.9076 34.5411 41.9169 33.8083 41.9271L33.8393 41.9458L32.92 41.9373C31.5749 41.95 30.0637 41.9543 29.865 41.9076C29.554 41.8355 27.9378 41.8864 27.4615 41.9076H27.3287C27.3287 41.9076 25.5529 41.5385 26.2857 39.6607C26.8492 38.2181 28.581 37.799 29.3496 37.6836C29.1331 37.6386 28.9466 37.6038 28.8228 37.5834C28.2863 37.4986 27.2441 36.9895 27.1594 36.8155C27.0747 36.6416 26.201 36.1367 25.9755 35.849C25.75 35.5614 25.1059 33.5223 25.6408 32.0145ZM40.3498 36.2343L40.4369 36.264L40.4955 36.2843L40.6079 36.3997C40.6975 36.3369 40.7935 36.2707 40.8937 36.2029C40.717 36.2139 40.5354 36.2249 40.3498 36.2343Z" fill="url(#paint0_linear_314:4610)"/>
<path d="M35.1583 27.2873C35.1583 27.2873 33.9126 30.6815 33.2042 30.3421C32.4958 30.0027 32.688 28.5601 32.5528 28.1647C32.4177 27.7693 32.2678 24.7706 32.2678 24.7706C32.2678 24.7706 32.1994 22.6492 32.0643 22.2198C31.9389 21.8253 31.8371 19.8354 31.82 19.5223C31.82 19.4952 31.82 19.4807 31.82 19.4807L31.9544 17.02L32.7148 16.8223L34.4785 17.5011L34.7227 18.9546L34.818 19.5223L34.8587 19.7642L35.1583 27.2873Z" fill="#BE6F72"/>
<path opacity="0.1" d="M34.748 26.7188C34.748 26.7188 33.5592 27.7328 33.2009 27.8219C32.8427 27.911 32.6228 28.7018 32.6228 28.7018" fill="black"/>
<path d="M44.9005 27.4358C44.9005 27.4358 46.1463 30.8299 46.8546 30.4905C47.563 30.1511 47.3709 28.7086 47.506 28.3132C47.6412 27.9177 47.791 24.919 47.791 24.919C47.791 24.919 47.8594 22.7976 47.9946 22.3683C48.12 21.9737 48.2217 19.9839 48.2388 19.6708C48.2388 19.6436 48.2388 19.6292 48.2388 19.6292L48.1037 17.1684L47.3432 16.9707L45.5796 17.6495L45.3353 19.1031L45.24 19.6708L45.1993 19.9126L44.9005 27.4358Z" fill="#BE6F72"/>
<path d="M36.7884 9.27197H39.569V13.7888H36.7884V9.27197Z" fill="#3E373A"/>
<path opacity="0.1" d="M36.7884 9.27197H39.569V13.7888H36.7884V9.27197Z" fill="black"/>
<path d="M45.389 30.8164C45.389 30.8164 46.3392 31.9051 45.9867 32.1028C45.6341 32.3005 43.3535 36.0061 43.3535 36.0061C43.3535 36.0061 35.8626 36.9675 34.4499 35.525C33.0373 34.0825 33.0658 31.5054 33.0658 31.5054C33.0658 31.5054 34.2008 31.76 34.3245 31.6217C34.4483 31.4834 35.1282 30.8164 35.1282 30.8164C35.1282 30.8164 44.7376 30.2089 45.389 30.8164Z" fill="#4B4B5B"/>
<path opacity="0.02" d="M45.389 30.8164C45.389 30.8164 46.3392 31.9051 45.9867 32.1028C45.6341 32.3005 43.3535 36.0061 43.3535 36.0061C43.3535 36.0061 35.8626 36.9675 34.4499 35.525C33.0373 34.0825 33.0658 31.5054 33.0658 31.5054C33.0658 31.5054 34.2008 31.76 34.3245 31.6217C34.4483 31.4834 35.1282 30.8164 35.1282 30.8164C35.1282 30.8164 44.7376 30.2089 45.389 30.8164Z" fill="black"/>
<path d="M31.9038 17.0554L34.3465 19.0919L35.085 19.1479L35.3561 19.1683L39.9101 19.5162L44.6326 19.1564L45.3353 19.103L46.2309 19.0351L48.1036 17.1683C48.1036 17.1683 46.7781 15.6884 45.617 14.6897C45.1594 14.2951 44.727 13.9761 44.4119 13.8505L44.3582 13.831C44.16 13.7504 43.983 13.6219 43.842 13.4559C42.9252 12.4708 42.0776 10.0397 42.0776 10.0397C42.0776 10.0397 38.0333 7.86234 38.5218 10.7185C39.0104 13.5747 36.7037 12.8687 36.7037 12.8687L35.9432 13.2302L35.6427 13.3736L34.8765 13.7393L33.1479 14.5658C31.7914 15.2166 31.9038 17.0554 31.9038 17.0554Z" fill="#BE6F72"/>
<path opacity="0.1" d="M40.0998 12.366C38.0911 12.366 36.4627 10.669 36.4627 8.57559C36.4627 6.48219 38.0911 4.78516 40.0998 4.78516C42.1085 4.78516 43.7369 6.48219 43.7369 8.57559C43.7369 10.669 42.1085 12.366 40.0998 12.366Z" fill="black"/>
<path opacity="0.1" d="M31.8982 19.7558H48.2388C48.2388 19.7286 48.2388 19.7142 48.2388 19.7142L48.1037 17.2534C48.1037 17.2534 46.7781 15.7736 45.617 14.7748L35.3578 14.3506L34.8807 13.8262L33.1521 14.6527C31.7948 15.3026 31.9039 17.1414 31.9039 17.1414C31.9039 17.1414 31.7182 19.2721 31.8982 19.7558Z" fill="black"/>
<path d="M31.8982 19.6708H48.2388C48.2388 19.6437 48.2388 19.6292 48.2388 19.6292L48.1037 17.1685C48.1037 17.1685 46.7781 15.6886 45.617 14.6899L35.3578 14.2656L34.8807 13.7412L33.1521 14.5677C31.7948 15.2177 31.9039 17.0565 31.9039 17.0565C31.9039 17.0565 31.7182 19.1871 31.8982 19.6708Z" fill="#E7C7CA"/>
<path opacity="0.1" d="M42.7192 12.7707C42.7192 12.7707 40.1413 16.1937 36.7078 12.7003C33.2742 9.20682 36.3275 20.4924 36.3275 20.4924L43.7369 21.4088L42.7192 12.7707Z" fill="black"/>
<path d="M42.7192 12.9401C42.7192 12.9401 40.1413 16.3631 36.7078 12.8697C33.2742 9.37624 36.3275 20.6619 36.3275 20.6619L43.7369 21.5783L42.7192 12.9401Z" fill="#E7C7CA"/>
<path opacity="0.1" d="M35.6468 13.5409L35.3741 17.8761L35.0818 19.3186L34.8587 20.4217C34.8587 20.4217 34.2887 28.9071 34.4516 29.3314C34.6144 29.7557 34.3701 30.0951 34.3359 30.3208C34.3017 30.5465 34.3701 31.1133 34.3433 31.3679C34.3164 31.6225 34.3433 31.7353 34.967 31.6445C35.5907 31.5537 36.4603 31.3959 36.4603 31.3959C36.4603 31.3959 38.6586 31.5656 39.4183 31.2831C40.178 31.0005 41.6167 30.9996 41.6167 30.9996C41.6167 30.9996 43.7883 31.0565 44.4934 30.9716C45.1985 30.8868 45.5795 31.877 46.0404 31.5936C46.5012 31.3102 45.4981 28.5677 45.1724 27.7752C44.8467 26.9826 45.6064 24.975 45.6064 24.975L44.6293 19.3262L44.412 18.0458V14.0203L44.3582 14.0008C44.16 13.9202 43.9831 13.7917 43.842 13.6257L43.5977 17.6767L35.944 17.9601V13.4009" fill="black"/>
<path d="M35.6468 13.3715L35.3741 17.7066L35.0818 19.1492L34.8587 20.2523C34.8587 20.2523 34.2887 28.7377 34.4516 29.162C34.6144 29.5862 34.3701 29.9256 34.3359 30.1514C34.3017 30.3771 34.3701 30.9439 34.3433 31.1985C34.3164 31.453 34.3433 31.5659 34.967 31.4751C35.5907 31.3843 36.4603 31.2265 36.4603 31.2265C36.4603 31.2265 38.6586 31.3962 39.4183 31.1136C40.178 30.831 41.6167 30.8302 41.6167 30.8302C41.6167 30.8302 43.7883 30.887 44.4934 30.8022C45.1985 30.7173 45.5795 31.7076 46.0404 31.4242C46.5012 31.1407 45.4981 28.3983 45.1724 27.6057C44.8467 26.8132 45.6064 24.8055 45.6064 24.8055L44.6293 19.1568L44.412 17.8764V13.8509L44.3582 13.8314C44.16 13.7508 43.9831 13.6223 43.842 13.4563L43.5977 17.5072L35.944 17.7907V13.2314" fill="#E7C7CA"/>
<path opacity="0.1" d="M34.7666 4.32406C34.813 4.14671 34.8774 3.96258 35.0109 3.84378C35.1384 3.74837 35.2857 3.68558 35.4408 3.6605C35.8122 3.55873 36.1898 3.48332 36.571 3.43479C36.6254 3.24637 36.7078 3.068 36.8152 2.90615C37.6132 1.73176 38.7938 0.624418 40.1829 0.374099C40.91 0.242575 41.7527 0.360522 42.2184 0.957895C42.4741 1.28628 42.584 1.72158 42.8421 2.04403C43.3396 2.67025 44.2377 2.74747 44.8646 3.23199C45.1993 3.48655 45.4419 3.85566 45.6789 4.21375C45.9354 4.60153 46.1992 5.00544 46.2806 5.46874C46.4434 6.3945 45.8564 7.27698 45.7481 8.21123C45.5038 10.3012 47.6534 12.1552 47.2471 14.2172C47.0101 15.4196 45.9443 16.2664 44.8419 16.6958C44.4535 16.8477 44.0097 16.9987 43.8281 17.3874C43.7467 17.5571 43.7329 17.7531 43.6563 17.9245C43.399 18.4964 42.5531 18.5185 42.0987 18.1018C41.6444 17.6852 41.5011 17.0115 41.4473 16.3827C41.2291 13.6368 42.2844 10.924 42.1614 8.17135C42.1248 7.33893 41.9001 6.3945 41.1843 6.01775C40.2211 5.50862 39.0625 6.35716 38.0024 6.19509C37.5007 7.46717 37.3942 8.87112 37.6978 10.2095C37.8664 10.9418 38.1579 11.6521 38.179 12.4073C38.2108 13.557 37.6156 14.6075 37.101 15.6241C36.9906 15.8142 36.9168 16.0249 36.8836 16.2444C36.8755 16.4671 36.9153 16.6889 37 16.8935C37.2907 17.709 37.7923 18.4659 37.8493 19.3339C37.866 19.4352 37.8441 19.5394 37.7882 19.6241C37.7309 19.6807 37.6568 19.7154 37.5781 19.7225C36.6988 19.8795 35.9383 19.0675 35.5092 18.252C35.0308 17.3514 34.752 16.3505 34.6933 15.3229C34.6046 13.5952 35.199 11.8956 35.1623 10.1663C35.12 8.2002 34.2675 6.22055 34.7666 4.32406Z" fill="black"/>
<path d="M34.6852 4.2391C34.7316 4.06175 34.796 3.87762 34.9295 3.75882C35.057 3.66341 35.2043 3.60062 35.3594 3.57554C35.7308 3.47376 36.1084 3.39835 36.4896 3.34983C36.544 3.16141 36.6264 2.98304 36.7338 2.82119C37.5318 1.6468 38.7124 0.539457 40.1015 0.289138C40.8286 0.157614 41.6713 0.275561 42.137 0.872934C42.3927 1.20132 42.5026 1.63662 42.7607 1.95907C43.2582 2.58529 44.1563 2.66251 44.7832 3.14703C45.1179 3.40159 45.3605 3.7707 45.5975 4.12879C45.8539 4.51657 46.1177 4.92048 46.1992 5.38378C46.362 6.30954 45.775 7.19202 45.6667 8.12627C45.4224 10.2162 47.5719 12.0703 47.1657 14.1322C46.9287 15.3346 45.8629 16.1815 44.7604 16.6108C44.3721 16.7627 43.9283 16.9138 43.7467 17.3024C43.6653 17.4721 43.6515 17.6681 43.5749 17.8395C43.3176 18.4114 42.4717 18.4335 42.0173 18.0169C41.563 17.6002 41.4197 16.9265 41.3659 16.2977C41.1477 13.5518 42.203 10.8391 42.08 8.08639C42.0434 7.25397 41.8186 6.30954 41.1029 5.93279C40.1397 5.42366 38.9811 6.2722 37.921 6.11013C37.4193 7.38221 37.3128 8.78616 37.6164 10.1246C37.785 10.8569 38.0765 11.5671 38.0976 12.3223C38.1294 13.4721 37.5342 14.5226 37.0196 15.5391C36.9092 15.7292 36.8354 15.9399 36.8022 16.1594C36.7941 16.3821 36.8339 16.6039 36.9186 16.8085C37.2093 17.624 37.7109 18.3809 37.7679 19.249C37.7846 19.3503 37.7627 19.4544 37.7068 19.5392C37.6495 19.5957 37.5754 19.6304 37.4968 19.6376C36.6174 19.7946 35.8569 18.9825 35.4278 18.1671C34.9494 17.2664 34.6706 16.2655 34.612 15.2379C34.5232 13.5103 35.1176 11.8106 35.081 10.0813C35.0386 8.11524 34.1861 6.13559 34.6852 4.2391Z" fill="#3E373A"/>
<path d="M36.4839 41.8101L33.2538 41.9178L33.7171 39.4214L36.1915 39.6666L36.4839 41.8101Z" fill="#C3C7D9"/>
<path d="M26.4754 35.8935C26.6928 36.1761 27.5339 36.6852 27.6154 36.8549C27.6968 37.0246 28.7007 37.5338 29.2169 37.6186C29.7331 37.7035 31.3608 38.0717 31.6596 38.2694C31.8737 38.412 33.5926 38.8634 34.7219 39.1137C35.0278 39.1892 35.3374 39.2472 35.6493 39.2877C36.1378 39.3157 41.484 37.4209 41.484 37.4209L40.4532 36.3178L40.3962 36.2974C40.1047 36.1948 38.758 35.7204 38.0105 35.4947C37.1686 35.2402 36.1916 34.1939 36.1916 34.1939C36.1916 34.1939 34.7536 33.6848 34.5631 33.6279C34.3726 33.5711 35.0516 31.6483 35.0516 31.6483C35.0516 31.6483 31.9307 31.1969 30.7094 30.8142C29.4881 30.4315 26.6652 30.5732 26.1498 32.0726C25.6343 33.5719 26.2548 35.611 26.4754 35.8935Z" fill="#4B4B5B"/>
<path d="M40.6975 40.6732C40.6975 40.6732 41.3212 41.352 41.9457 41.296C42.5702 41.24 44.7539 41.4657 44.7539 41.4657C45.1497 41.6302 45.5202 41.8541 45.8539 42.1301C46.3645 42.5493 46.6356 42.215 46.6861 42.1437L46.695 42.1301C46.967 43.022 47.5907 42.3423 47.5907 42.3423C47.5907 42.3423 47.3195 39.6269 47.4026 39.2875C47.4856 38.9481 46.866 38.3652 46.866 38.3652L46.1332 38.1708L44.2768 37.6753L41.6167 38.6367L40.6975 40.6732Z" fill="#E7C7CA"/>
<path opacity="0.1" d="M46.1365 38.1709L46.6861 42.1438L46.695 42.1302C46.967 43.022 47.5907 42.3423 47.5907 42.3423C47.5907 42.3423 47.3195 39.627 47.4026 39.2876C47.4856 38.9482 46.866 38.3652 46.866 38.3652L46.1365 38.1709Z" fill="black"/>
<path opacity="0.1" d="M42.295 26.8701C42.295 26.8701 40.8571 27.3792 39.608 26.8701H42.295Z" fill="black"/>
<path opacity="0.1" d="M37.386 27.832C37.386 27.832 36.7892 28.1426 36.3275 27.832H37.386Z" fill="black"/>
<path opacity="0.1" d="M37.386 28.5688C37.386 28.5688 36.3821 28.7088 36.1916 28.4263L37.386 28.5688Z" fill="black"/>
<path opacity="0.1" d="M37.7117 30.1511C37.7117 30.1511 35.826 29.8965 35.3578 29.5571L37.7117 30.1511Z" fill="black"/>
<path opacity="0.1" d="M43.4659 29.5571C43.4659 29.5571 42.4074 30.1791 41.62 30.1511L43.4659 29.5571Z" fill="black"/>
<path opacity="0.1" d="M34.7227 39.1137C35.0286 39.1891 35.3382 39.2472 35.6501 39.2876C36.1386 39.3156 41.4848 37.4208 41.4848 37.4208L40.454 36.3177L40.397 36.2974C40.2342 36.417 40.1007 36.5197 40.0054 36.5977C39.5567 36.966 39.1236 36.4849 38.9607 36.4849C38.7979 36.4849 37.3868 37.7009 37.3868 37.7009C37.3868 37.7009 36.0841 38.0123 35.8667 38.2948C35.6493 38.5774 34.8896 38.5214 34.7544 38.7191C34.7137 38.7802 34.7088 38.9304 34.7227 39.1137Z" fill="black"/>
<path d="M44.7539 31.7635C44.7539 31.7635 46.0713 31.8424 46.831 31.5089C47.5907 31.1754 50.1148 30.4058 50.8476 30.9463C51.5804 31.4868 53.3448 31.9646 52.5306 34.1148C51.7163 36.265 51.3361 36.321 51.3361 36.321C51.0842 36.5179 50.8642 36.7557 50.6847 37.0253C50.4405 37.4215 48.1606 38.3261 47.5907 38.3261C47.0207 38.3261 46.0168 38.3261 44.6057 39.3443C43.1947 40.3626 41.9188 40.4763 41.9188 40.4763C41.9188 40.4763 40.1275 41.24 39.5697 41.4097C39.012 41.5794 36.4635 42.3142 35.8658 42.0885C35.2682 41.8628 34.8888 40.4474 34.8888 40.4474C34.8888 40.4474 34.6176 39.1746 34.7536 38.9769C34.8896 38.7792 35.6492 38.8352 35.8658 38.5527C36.0824 38.2701 37.386 37.9587 37.386 37.9587C37.386 37.9587 38.7938 36.7419 38.9566 36.7419C39.1195 36.7419 39.5526 37.2221 40.0013 36.8547C40.895 36.1649 41.8339 35.5411 42.8112 34.9879C43.842 34.422 44.7539 31.7635 44.7539 31.7635Z" fill="#4B4B5B"/>
<path opacity="0.1" d="M47.4026 32.5841C47.168 32.5341 46.9256 32.5413 46.6941 32.605C46.4626 32.6688 46.2484 32.7873 46.0681 32.9515C45.4167 33.5175 43.2248 34.6537 43.2248 34.6537" fill="black"/>
<path opacity="0.1" d="M31.1165 32.5483C31.1165 32.5483 34.0208 33.0066 34.5631 33.6285L31.1165 32.5483Z" fill="black"/>
<path d="M27.7782 41.918H27.906C28.3652 41.901 29.9212 41.8501 30.2209 41.918C30.5734 42.0028 35.2422 41.918 35.2422 41.918L34.3294 41.7203C34.3294 41.7203 34.6682 40.4831 34.4532 40.3804C34.4532 40.3804 35.6745 39.5421 34.7537 38.9761C33.8328 38.4101 32.8402 38.6486 32.8402 38.6486L30.5286 37.8323L30.0849 37.6753C30.0849 37.6753 27.4794 37.817 26.7743 39.6838C26.0691 41.5506 27.7782 41.918 27.7782 41.918Z" fill="#E7C7CA"/>
<path opacity="0.1" d="M27.7782 41.9182H27.906C27.148 41.2665 25.4332 39.2826 30.5286 37.8367L30.0849 37.6797C30.0849 37.6797 27.4794 37.8214 26.7742 39.6882C26.0691 41.555 27.7782 41.9182 27.7782 41.9182Z" fill="black"/>
<path d="M32.5691 39.7184C32.4909 39.7184 32.4275 39.6519 32.4275 39.5699C32.4275 39.4879 32.4909 39.4214 32.5691 39.4214C32.6473 39.4214 32.7108 39.4879 32.7108 39.5699C32.7108 39.6519 32.6473 39.7184 32.5691 39.7184Z" fill="#4B4B5B"/>
<path d="M33.3972 39.964C33.3189 39.964 33.2555 39.8975 33.2555 39.8155C33.2555 39.7335 33.3189 39.667 33.3972 39.667C33.4754 39.667 33.5388 39.7335 33.5388 39.8155C33.5388 39.8975 33.4754 39.964 33.3972 39.964Z" fill="#4B4B5B"/>
<g opacity="0.1">
<path opacity="0.1" d="M37.4308 8.43519C37.3992 7.50186 37.5585 6.57221 37.8982 5.70797C38.9567 5.87259 40.1161 5.0215 41.0802 5.53063C41.7934 5.90738 42.0173 6.85181 42.0572 7.68423C42.067 7.904 42.0686 8.12377 42.0646 8.34354C42.0646 8.26548 42.0646 8.18656 42.0572 8.1085C42.0198 7.27608 41.7959 6.33165 41.0802 5.9549C40.1161 5.44577 38.9583 6.29431 37.8982 6.13224C37.6105 6.86428 37.4522 7.64447 37.4308 8.43519Z" fill="black"/>
<path opacity="0.1" d="M45.6333 8.27996C45.6194 8.09506 45.6229 7.90918 45.6439 7.72501C45.7302 6.97829 46.1218 6.26467 46.1927 5.53662C46.2839 6.41486 45.7473 7.25831 45.6439 8.14928C45.6333 8.1951 45.6333 8.23583 45.6333 8.27996Z" fill="black"/>
<path opacity="0.1" d="M41.3431 15.895C41.3936 16.5246 41.5361 17.1975 41.9945 17.615C42.4529 18.0325 43.2973 18.0095 43.5521 17.4376C43.6336 17.2679 43.6458 17.0702 43.7247 16.9005C43.9055 16.5119 44.3501 16.3608 44.7385 16.2089C45.8417 15.7787 46.9059 14.9361 47.1429 13.7303C47.164 13.6211 47.1784 13.5106 47.186 13.3994C47.206 13.652 47.1915 13.9063 47.1429 14.1546C46.9059 15.357 45.8401 16.203 44.7385 16.6332C44.3501 16.7851 43.9055 16.9361 43.7247 17.3248C43.6433 17.4945 43.6295 17.6905 43.5521 17.8619C43.2956 18.4338 42.4497 18.4559 41.9945 18.0392C41.5394 17.6226 41.3977 16.9489 41.3431 16.3192C41.3183 15.9879 41.3099 15.6554 41.3179 15.3231C41.3179 15.5157 41.3285 15.7058 41.3431 15.895Z" fill="black"/>
<path opacity="0.1" d="M35.0541 9.67926C35.0541 9.8023 35.0541 9.92449 35.0541 10.0467C35.0085 8.46839 34.4532 6.88162 34.5077 5.33643C34.5501 6.76537 35.0231 8.22656 35.0541 9.67926Z" fill="black"/>
<path opacity="0.1" d="M36.8014 16.0634C36.7813 15.9628 36.775 15.8596 36.7826 15.7571C36.8154 15.5375 36.8893 15.3268 37 15.1368C37.4707 14.2034 38.0072 13.248 38.0708 12.2119C38.0708 12.256 38.0765 12.2968 38.0773 12.3443C38.1098 13.4932 37.5146 14.5446 37 15.5611C36.9126 15.7186 36.8457 15.8875 36.8014 16.0634Z" fill="black"/>
<path opacity="0.1" d="M34.5859 14.8357C34.6467 15.8638 34.9274 16.8646 35.4075 17.7649C35.8374 18.5803 36.5971 19.3924 37.4772 19.2354C37.5561 19.2283 37.6302 19.1933 37.6873 19.1361C37.7038 19.1167 37.7168 19.0943 37.7256 19.0699C37.7353 19.1361 37.7435 19.2032 37.7484 19.2711C37.7652 19.3721 37.7433 19.476 37.6873 19.5604C37.6302 19.6176 37.5561 19.6526 37.4772 19.6597C36.5971 19.8167 35.8374 19.0046 35.4075 18.1892C34.9274 17.2889 34.6467 16.288 34.5859 15.26C34.5761 15.0614 34.5753 14.8637 34.581 14.666C34.5827 14.7229 34.5827 14.7789 34.5859 14.8357Z" fill="black"/>
</g>
<path opacity="0.1" d="M34.4532 40.3805C34.4532 40.3805 32.3924 41.2817 31.0334 39.2876" stroke="black" stroke-miterlimit="10"/>
<path opacity="0.1" d="M34.0477 41.9551C34.0477 41.9551 32.3647 40.8147 30.2209 41.9178" stroke="black" stroke-miterlimit="10"/>
<path opacity="0.1" d="M45.3133 41.6965C45.3133 41.6965 44.6065 40.0351 42.7192 41.3019" stroke="black" stroke-miterlimit="10"/>
<path opacity="0.1" d="M47.6045 17.126L46.1633 15.7683C46.1633 15.7683 40.5753 15.3865 40.3441 17.3661C40.3441 17.3661 38.3631 15.0191 34.1967 15.5418L32.4339 17.0046L37.3062 19.2329L42.0409 20.9444L45.5283 19.3178L47.6045 17.126Z" fill="black"/>
<path d="M47.6045 17.2109L46.1633 15.8533C46.1633 15.8533 40.5753 15.4714 40.3441 17.4511C40.3441 17.4511 38.3631 15.104 34.1967 15.6267L32.4339 17.0896L37.3062 19.3179L42.0409 21.0294L45.5283 19.4027L47.6045 17.2109Z" fill="#D5D6DB"/>
<path opacity="0.1" d="M48.2421 17.3809L47.6045 25.3291L40.8465 25.683L41.1396 17.7686L41.1453 17.6354L48.2421 17.3809Z" fill="black"/>
<path d="M48.2421 17.2109L47.6045 25.1592L40.8465 25.5131L41.1396 17.5987L41.1453 17.4655L48.2421 17.2109Z" fill="#FA8A3C"/>
<path opacity="0.1" d="M32.1245 17.2109L39.0959 18.3005V26.2844L32.2833 25.2585L32.1245 17.2109Z" fill="black"/>
<path d="M32.1245 17.041L39.0959 18.1305V26.1145L32.2833 25.0886L32.1245 17.041Z" fill="#FA8A3C"/>
<path opacity="0.3" d="M33.7684 18.9897L37.5342 19.4259L37.452 20.7632L33.7709 20.344L33.7684 18.9897Z" fill="white"/>
<path d="M47.2381 29.4155L46.8546 30.4906C46.8546 30.4906 46.2846 30.9997 45.6609 30.7452C45.0372 30.4906 44.4933 30.3642 44.2222 30.1164C43.9511 29.8686 43.5708 28.6238 43.5708 28.6238C43.5708 28.6238 43.1906 27.2661 42.8111 26.9267C42.4317 26.5873 41.4269 21.911 42.8111 22.3684C44.1953 22.8257 45.2538 27.0684 45.2538 27.0684C45.2538 27.0684 45.4981 27.379 45.8506 27.4079C46.2032 27.4367 46.9091 27.351 47.0451 27.6624C47.1811 27.9738 47.6452 28.7935 47.2381 29.4155Z" fill="#BE6F72"/>
<path opacity="0.1" d="M39.0959 18.2997C39.4528 18.3836 39.8236 18.3792 40.1786 18.2869C40.5336 18.1947 40.863 18.0172 41.1404 17.7686L40.8465 25.6821C40.8465 25.6821 40.1544 26.4627 39.0959 26.2845V18.2997Z" fill="black"/>
<path d="M39.0959 18.1298C39.4528 18.2136 39.8236 18.2093 40.1786 18.117C40.5336 18.0248 40.863 17.8473 41.1404 17.5986L40.8465 25.5121C40.8465 25.5121 40.1544 26.2928 39.0959 26.1146V18.1298Z" fill="#FA8A3C"/>
<path opacity="0.1" d="M39.0959 18.1298C39.4528 18.2136 39.8236 18.2093 40.1786 18.117C40.5336 18.0248 40.863 17.8473 41.1404 17.5986L40.8465 25.5121C40.8465 25.5121 40.1544 26.2928 39.0959 26.1146V18.1298Z" fill="black"/>
<path opacity="0.1" d="M38.933 17.2379C38.933 17.2379 36.0971 16.3342 35.3578 16.4615L38.933 17.2379Z" fill="black"/>
<path opacity="0.1" d="M42.1053 16.8434C42.1053 16.8434 44.8541 16.1645 45.3133 16.3572L42.1053 16.8434Z" fill="black"/>
<path opacity="0.1" d="M37.145 17.351C37.145 17.351 35.2487 16.6263 34.5631 16.9708L37.145 17.351Z" fill="black"/>
<path opacity="0.1" d="M38.1001 35.5291C37.8062 35.2991 37.4934 35.0967 37.1654 34.9241C36.6768 34.6789 35.7812 34.0425 35.7812 34.0425" fill="black"/>
<path opacity="0.1" d="M45.3133 26.8701C45.3133 26.8701 46.5029 27.8841 46.8603 27.9732C47.2178 28.0623 47.4384 28.8532 47.4384 28.8532" fill="black"/>
<path d="M32.8239 29.2645L33.2033 30.3422C33.2033 30.3422 33.7733 30.8513 34.3978 30.5967C35.0223 30.3422 35.5646 30.2157 35.8365 29.968C36.1085 29.7202 36.4879 28.4754 36.4879 28.4754C36.4879 28.4754 36.8673 27.1177 37.2476 26.7783C37.6278 26.4389 38.6318 21.7626 37.2476 22.2199C35.8634 22.6773 34.8049 26.92 34.8049 26.92C34.8049 26.92 34.5606 27.2306 34.2081 27.2594C33.8555 27.2883 33.1496 27.2026 33.0136 27.514C32.8776 27.8254 32.4168 28.6451 32.8239 29.2645Z" fill="#BE6F72"/>
<path opacity="0.1" d="M33.4891 27.2822C33.4891 27.2822 32.7116 27.8032 32.7148 28.4261L33.4891 27.2822Z" fill="black"/>
<path d="M40.0868 12.18C38.0781 12.18 36.4497 10.483 36.4497 8.38956C36.4497 6.29616 38.0781 4.59912 40.0868 4.59912C42.0955 4.59912 43.7239 6.29616 43.7239 8.38956C43.7239 10.483 42.0955 12.18 40.0868 12.18Z" fill="#BE6F72"/>
<path d="M42.3707 7.37217C41.9294 7.30004 41.5426 7.03275 41.1209 6.87917C40.1772 6.53381 39.1333 6.77055 38.1783 7.08197C37.8119 7.20161 37.4398 7.33653 37.0554 7.33653C36.6711 7.33653 36.2632 7.17276 36.067 6.82741C35.8862 6.51005 35.9212 6.09766 36.0735 5.76418C36.2258 5.43071 36.4806 5.16257 36.7379 4.9097C37.5847 4.07643 38.635 3.29747 39.7969 3.38233C40.2643 3.41712 40.7113 3.59107 41.1412 3.78369C41.6825 4.0268 42.2095 4.30334 42.7192 4.61186C43.1108 4.84861 43.8363 5.16511 44.0618 5.59787C44.5748 6.57284 43.1686 7.50285 42.3707 7.37217Z" fill="#3E373A"/>
<path opacity="0.1" d="M36.067 6.47087C36.2632 6.81623 36.6711 6.98 37.0554 6.98C37.4397 6.98 37.8118 6.85017 38.1791 6.73053C39.1341 6.41911 40.1772 6.18152 41.1217 6.52772C41.5426 6.68131 41.9302 6.952 42.3715 7.01988C43.0147 7.1251 44.0504 6.5413 44.1628 5.79883C44.289 6.6567 43.088 7.39154 42.3715 7.27444C41.9302 7.20231 41.5426 6.93502 41.1217 6.78229C40.1772 6.43608 39.1341 6.67367 38.1791 6.98509C37.8118 7.10473 37.4406 7.23965 37.0554 7.23456C36.6703 7.22947 36.2632 7.07164 36.067 6.72543C35.9652 6.53709 35.9252 6.31933 35.953 6.10515C35.9657 6.2341 36.0045 6.35876 36.067 6.47087Z" fill="black"/>
<path d="M6.55058 52.4575C6.55058 52.4575 6.06775 53.1151 6.77367 54.1088C7.4796 55.1024 8.06095 55.9408 7.82646 56.5602C7.82646 56.5602 6.76146 54.7155 5.89513 54.6892C5.0288 54.6629 5.59876 53.5666 6.55058 52.4575Z" fill="#FA8A3C"/>
<path opacity="0.1" d="M6.55053 52.4575C6.50848 52.521 6.47531 52.5905 6.45201 52.6637C5.60685 53.6989 5.15577 54.6654 5.96917 54.6892C6.7264 54.7121 7.63426 56.1232 7.85165 56.4788C7.8447 56.5075 7.83627 56.5358 7.82641 56.5636C7.82641 56.5636 6.76141 54.7189 5.89508 54.6926C5.02874 54.6663 5.5987 53.5666 6.55053 52.4575Z" fill="black"/>
<path d="M5.65595 53.296C5.65595 53.5277 5.68097 53.7152 5.71083 53.7152C5.74069 53.7152 5.76651 53.5277 5.76651 53.296C5.76651 53.0643 5.73584 53.1738 5.70518 53.1738C5.67451 53.1738 5.65595 53.0643 5.65595 53.296Z" fill="#FFD037"/>
<path d="M5.34636 53.5724C5.54096 53.6827 5.71114 53.7498 5.72579 53.7218C5.74045 53.6938 5.5947 53.5809 5.4001 53.4672C5.2055 53.3535 5.28204 53.4367 5.26738 53.4672C5.25272 53.4978 5.15094 53.4613 5.34636 53.5724Z" fill="#FFD037"/>
<path d="M9.10234 52.4575C9.10234 52.4575 9.58518 53.1151 8.87924 54.1088C8.1733 55.1024 7.59194 55.9408 7.82725 56.5602C7.82725 56.5602 8.89146 54.7155 9.75861 54.6892C10.6258 54.6629 10.0517 53.5666 9.10234 52.4575Z" fill="#FA8A3C"/>
<path opacity="0.1" d="M9.10235 52.4575C9.1444 52.521 9.17757 52.5905 9.20087 52.6637C10.046 53.6989 10.4971 54.6654 9.6837 54.6892C8.92729 54.7121 8.01861 56.1232 7.80122 56.4788C7.80804 56.5076 7.81675 56.536 7.82727 56.5636C7.82727 56.5636 8.89147 54.7189 9.75861 54.6926C10.6258 54.6663 10.0517 53.5666 9.10235 52.4575Z" fill="black"/>
<path d="M9.99963 53.296C9.99963 53.5277 9.97543 53.7152 9.94476 53.7152C9.9141 53.7152 9.88908 53.5277 9.88908 53.296C9.88908 53.0643 9.92056 53.1738 9.95041 53.1738C9.98027 53.1738 9.99963 53.0643 9.99963 53.296Z" fill="#FFD037"/>
<path d="M10.3074 53.5724C10.1128 53.6827 9.94264 53.7498 9.92798 53.7218C9.91332 53.6938 10.0591 53.5809 10.2537 53.4672C10.4483 53.3535 10.3717 53.4367 10.3864 53.4672C10.401 53.4978 10.5028 53.4613 10.3074 53.5724Z" fill="#FFD037"/>
<path opacity="0.1" d="M7.82645 61.5939C5.03841 61.5939 2.77826 61.2326 2.77826 60.7869C2.77826 60.3413 5.03841 59.98 7.82645 59.98C10.6145 59.98 12.8746 60.3413 12.8746 60.7869C12.8746 61.2326 10.6145 61.5939 7.82645 61.5939Z" fill="#FA8A3C"/>
<path d="M5.22827 55.6739L5.2527 55.8792L5.28689 56.1694L5.30074 56.2908L5.33493 56.581L5.34959 56.7023L5.38297 56.9917L5.76973 60.2925C5.80393 60.5869 6.26559 60.8169 6.82333 60.8169H8.83039C9.38814 60.8169 9.84899 60.5869 9.884 60.2925L10.2708 56.9917L10.305 56.7023L10.3188 56.581L10.353 56.2908L10.3677 56.1694L10.401 55.8792L10.4255 55.6739C10.4442 55.5042 10.195 55.3667 9.87912 55.3667H5.77379C5.45869 55.3667 5.20873 55.5067 5.22827 55.6739Z" fill="#65617D"/>
<path d="M5.25271 55.8789L5.28609 56.1691H10.3668L10.401 55.8789H5.25271Z" fill="#9D9CB5"/>
<path d="M5.30071 56.2905L5.3341 56.5807H10.3188L10.353 56.2905H5.30071Z" fill="#9D9CB5"/>
<path d="M5.34878 56.7021L5.38297 56.9924H10.2708L10.3041 56.7021H5.34878Z" fill="#9D9CB5"/>
</g>
<defs>
<linearGradient id="paint0_linear_314:4610" x1="39.3459" y1="42.5898" x2="39.3459" y2="-0.000151436" gradientUnits="userSpaceOnUse">
<stop stop-color="#808080" stop-opacity="0.25"/>
<stop offset="0.54" stop-color="#808080" stop-opacity="0.12"/>
<stop offset="1" stop-color="#808080" stop-opacity="0.1"/>
</linearGradient>
<clipPath id="clip0_314:4610">
<rect width="83.2821" height="69" fill="white" transform="matrix(-1 0 0 1 83.8546 0)"/>
</clipPath>
</defs>
</svg>
