<svg width="81" height="71" viewBox="0 0 81 71" fill="none" xmlns="http://www.w3.org/2000/svg">
<g clip-path="url(#clip0_314:1925)">
<path d="M65.8466 34.2668C65.8466 35.2644 65.8066 36.252 65.7264 37.2294C65.6633 37.9924 65.5772 38.7486 65.468 39.4979C65.3521 40.2912 65.21 41.075 65.0417 41.8493V41.8502C64.9317 42.3597 64.8109 42.8651 64.6793 43.3663C64.2974 44.8234 63.8226 46.252 63.2578 47.6426C63.135 47.9451 63.0083 48.2455 62.8775 48.5439C62.3828 49.6738 61.8288 50.7743 61.2182 51.8403C59.5056 54.8339 57.3679 57.5375 54.8783 59.8583C54.6088 60.1091 54.3357 60.3556 54.0589 60.5981C48.1808 65.7368 40.7619 68.5463 33.1028 68.534C15.0186 68.534 0.358887 53.1922 0.358887 34.2668C0.358887 15.3413 15.0186 -0.000445839 33.1028 -0.000445839C40.4982 -0.0126492 47.6778 2.60706 53.4628 7.42858C53.734 7.65345 54.0017 7.88339 54.2661 8.11838C55.556 9.26328 56.7599 10.5103 57.867 11.8485H57.8679C63.0246 18.0693 65.8583 26.0314 65.8466 34.2668Z" fill="#F2F2F2"/>
<path d="M10.0247 40.1862C6.90542 38.2433 4.55115 34.6124 4.85679 30.8271C7.70854 33.6835 11.4338 35.3922 15.3735 35.6509C16.8932 35.7449 18.5928 35.6838 19.7115 36.7644C20.4076 37.4367 20.7316 38.449 20.7847 39.4387C20.8379 40.4285 20.6484 41.413 20.4599 42.3845L20.5248 42.6225C16.8949 42.6368 13.1439 42.1291 10.0247 40.1862Z" fill="#E6E6E6"/>
<path d="M4.9328 30.8233C6.1826 33.6827 8.26153 36.0572 10.8743 37.6097C11.436 37.9387 12.0331 38.2213 12.6677 38.3524C13.2872 38.4752 13.9268 38.4222 14.5201 38.1988C15.0773 38.0022 15.6254 37.7335 16.2186 37.682C16.8438 37.6278 17.4226 37.8802 17.8773 38.3223C18.4337 38.8633 18.7712 39.5812 19.0779 40.2953C19.4185 41.0881 19.7602 41.9173 20.4132 42.4874C20.4923 42.5565 20.3852 42.6809 20.3062 42.6119C19.1702 41.62 18.9848 39.9587 18.0767 38.7905C17.653 38.2453 17.0697 37.8305 16.3768 37.8415C15.7709 37.851 15.2054 38.1276 14.6429 38.3318C14.0523 38.5462 13.4606 38.6469 12.837 38.5526C12.1992 38.4561 11.5902 38.1973 11.0229 37.8847C9.74166 37.1659 8.57633 36.2408 7.56966 35.1431C6.41411 33.8971 5.47075 32.4533 4.78041 30.8743C4.73772 30.7766 4.89039 30.7262 4.9328 30.8233H4.9328Z" fill="white"/>
<path d="M10.005 37.1618C9.69664 37.5852 9.25446 37.8801 8.75748 37.9938C8.26051 38.1075 7.74108 38.0326 7.29198 37.7826C7.20127 37.7316 7.27263 37.5817 7.36346 37.6327C7.78125 37.8664 8.2651 37.9361 8.72768 37.8292C9.19026 37.7223 9.6011 37.4459 9.88604 37.0499C9.94806 36.9639 10.0667 37.0763 10.005 37.1618L10.005 37.1618Z" fill="white"/>
<path d="M14.2501 38.3373C14.1203 37.2575 13.6064 36.2686 12.8109 35.5677C12.732 35.4983 12.839 35.3739 12.9178 35.4432C13.7444 36.1741 14.2772 37.2044 14.4099 38.3284C14.4225 38.4355 14.2626 38.4438 14.2501 38.3373V38.3373Z" fill="white"/>
<path d="M6.61261 33.8187C6.76456 33.6809 6.88142 33.5057 6.95271 33.309C7.02399 33.1122 7.04746 32.9 7.02102 32.6915C7.00715 32.5845 7.16699 32.5763 7.18077 32.6825C7.20897 32.9131 7.18277 33.1475 7.10447 33.365C7.02617 33.5826 6.89816 33.7768 6.73161 33.9306C6.71707 33.9465 6.6973 33.956 6.67632 33.9571C6.65534 33.9583 6.63472 33.9511 6.61865 33.9369C6.60296 33.922 6.59353 33.9012 6.5924 33.8791C6.59127 33.857 6.59853 33.8353 6.61261 33.8187V33.8187Z" fill="white"/>
<path d="M14.9537 23.4941C14.9642 23.5606 14.9747 23.6271 14.9864 23.6943C15.1316 24.5876 15.346 25.4671 15.6273 26.3242C15.6481 26.3908 15.6701 26.458 15.6926 26.5238C16.3915 28.581 17.4492 30.4845 18.8121 32.1376C19.355 32.7949 19.9449 33.408 20.5767 33.9716C21.4492 34.7499 22.4545 35.5212 23.0139 36.5261C23.0734 36.6303 23.1267 36.7382 23.1734 36.8492L20.7974 42.5215C20.7858 42.5316 20.7754 42.5423 20.7638 42.5524L20.6789 42.7834C20.6443 42.7567 20.6091 42.7283 20.5746 42.7016C20.5545 42.6862 20.5349 42.6695 20.5148 42.6541C20.5016 42.6435 20.4884 42.6327 20.4759 42.6239C20.4715 42.6204 20.4671 42.6168 20.4639 42.6138C20.4514 42.605 20.4406 42.5954 20.4294 42.5871C20.2319 42.4286 20.0351 42.2684 19.839 42.1065C19.8378 42.1059 19.8378 42.1059 19.8371 42.1041C18.3462 40.8662 16.9409 39.4872 15.7804 37.9288C15.7455 37.8819 15.7093 37.8345 15.6755 37.785C15.1561 37.0795 14.6926 36.3307 14.2898 35.5462C14.0705 35.1159 13.8722 34.6743 13.6956 34.223C13.2415 33.056 12.9656 31.8215 12.878 30.5647C12.7038 28.0594 13.2972 25.5237 14.8349 23.6371C14.8743 23.5888 14.9131 23.5418 14.9537 23.4941Z" fill="#E6E6E6"/>
<path d="M15.0171 23.5381C14.3699 26.6087 14.6638 29.8145 15.8568 32.7003C16.116 33.3169 16.4302 33.9188 16.8614 34.4233C17.2854 34.9117 17.8266 35.2724 18.4288 35.4678C18.9868 35.6619 19.579 35.7927 20.0822 36.1254C20.6126 36.476 20.9296 37.0422 21.0383 37.6818C21.1713 38.4643 21.0278 39.2501 20.8619 40.0135C20.6777 40.8611 20.4735 41.7385 20.6668 42.6051C20.6903 42.7101 20.5332 42.742 20.5098 42.6372C20.1735 41.1294 20.9811 39.6861 20.9282 38.1812C20.9035 37.4789 20.6764 36.7802 20.1169 36.3524C19.6276 35.9782 19.017 35.8427 18.4504 35.6514C17.8554 35.4504 17.325 35.158 16.8815 34.6898C16.4277 34.2109 16.0903 33.6206 15.8172 33.0136C15.2077 31.6323 14.8095 30.1594 14.6372 28.6487C14.4314 26.9257 14.5088 25.1786 14.866 23.4829C14.8882 23.3779 15.0391 23.4339 15.0171 23.5381Z" fill="white"/>
<path d="M15.4205 31.7948C14.9307 31.9385 14.408 31.8954 13.9458 31.673C13.4835 31.4507 13.1119 31.0636 12.8972 30.581C12.854 30.4832 12.9973 30.4084 13.0404 30.5064C13.2396 30.9562 13.5858 31.3167 14.0167 31.5228C14.4475 31.7289 14.9345 31.7671 15.3899 31.6304C15.4889 31.6008 15.5189 31.7653 15.4205 31.7948H15.4205Z" fill="white"/>
<path d="M18.1337 35.4087C18.6512 34.4647 18.8098 33.3513 18.5778 32.2904C18.5548 32.1854 18.7118 32.1534 18.7349 32.2584C18.9743 33.3628 18.807 34.5212 18.2664 35.5022C18.2148 35.5957 18.0824 35.5016 18.1337 35.4087Z" fill="white"/>
<path d="M14.6354 26.9883C14.836 26.974 15.0301 26.9078 15.2002 26.7957C15.3703 26.6835 15.5111 26.5288 15.61 26.3456C15.6604 26.2515 15.7928 26.3457 15.7427 26.4392C15.6325 26.641 15.4768 26.8116 15.2891 26.936C15.1014 27.0604 14.8875 27.1348 14.666 27.1527C14.6453 27.1562 14.6241 27.1513 14.6066 27.139C14.5892 27.1267 14.5769 27.108 14.5722 27.0865C14.5683 27.0647 14.5727 27.0422 14.5845 27.0238C14.5963 27.0054 14.6146 26.9927 14.6354 26.9883V26.9883Z" fill="white"/>
<path d="M23.0409 7.94226L27.0486 57.0401L19.0332 57.6708V8.56692C19.9883 7.90552 21.3594 7.80204 23.0409 7.94226Z" fill="#CCCCCC"/>
<path d="M42.8236 7.94226L38.8159 57.0401L46.8314 57.6708V8.56692C45.8762 7.90552 44.5052 7.80204 42.8236 7.94226Z" fill="#CCCCCC"/>
<path d="M45.6313 59.6998H20.1482C19.7395 59.6993 19.3478 59.5292 19.0589 59.2268C18.7699 58.9244 18.6074 58.5145 18.6069 58.0868V9.28726C18.6074 8.85963 18.7699 8.44965 19.0589 8.14727C19.3478 7.84489 19.7396 7.6748 20.1482 7.67432H45.6313C46.04 7.6748 46.4317 7.84489 46.7206 8.14727C47.0096 8.44965 47.1721 8.85963 47.1726 9.28726V58.0868C47.1721 58.5145 47.0096 58.9244 46.7206 59.2268C46.4317 59.5292 46.04 59.6993 45.6313 59.6998ZM20.1482 8.20974C19.8752 8.21006 19.6135 8.32368 19.4205 8.52569C19.2274 8.72769 19.1189 9.00158 19.1186 9.28726V58.0868C19.1189 58.3725 19.2274 58.6464 19.4205 58.8484C19.6135 59.0504 19.8752 59.1641 20.1482 59.1644H45.6313C45.9043 59.1641 46.166 59.0504 46.3591 58.8484C46.5521 58.6464 46.6606 58.3725 46.6609 58.0868V9.28726C46.6606 9.00158 46.5521 8.72769 46.359 8.52569C46.166 8.32368 45.9043 8.21006 45.6313 8.20974L20.1482 8.20974Z" fill="#CCCCCC"/>
<path d="M46.9168 15.7949H18.8628V16.3303H46.9168V15.7949Z" fill="#CCCCCC"/>
<path d="M46.9168 24.7188H18.8628V25.2542H46.9168V24.7188Z" fill="#CCCCCC"/>
<path d="M27.9662 7.94238H27.4546V32.3042H27.9662V7.94238Z" fill="#CCCCCC"/>
<path d="M38.3246 7.94238H37.813V32.3042H38.3246V7.94238Z" fill="#CCCCCC"/>
<path d="M50.1142 61.1723H16.5176C15.907 61.1723 15.3214 60.9185 14.8897 60.4666C14.4579 60.0148 14.2153 59.4019 14.2153 58.7629C14.2153 58.1239 14.4579 57.5111 14.8897 57.0592C15.3214 56.6074 15.907 56.3535 16.5176 56.3535H50.1142C50.7248 56.3535 51.3105 56.6074 51.7422 57.0592C52.174 57.5111 52.4165 58.1239 52.4165 58.7629C52.4165 59.4019 52.174 60.0148 51.7422 60.4666C51.3105 60.9185 50.7248 61.1723 50.1142 61.1723Z" fill="#CCCCCC"/>
<path d="M46.9167 31.0547H19.0332V32.8394H46.9167V31.0547Z" fill="#CCCCCC"/>
<path d="M28.0456 36.7349L28.0102 36.717C26.1094 35.756 23.6202 35.7569 19.9391 36.7201L19.8997 36.7304L19.888 36.6898C19.4985 35.3536 19.0574 33.8401 19.8861 33.0955C19.8978 30.9105 21.7292 29.1362 23.9787 29.1362C26.2278 29.1362 28.059 30.9096 28.0713 33.094C29.3041 34.0804 28.7166 35.538 28.0655 36.6994L28.0456 36.7349Z" fill="#2F2E41"/>
<path d="M39.729 32.0558C39.6949 32.2329 39.6242 32.4 39.5217 32.5453C39.4193 32.6906 39.2876 32.8107 39.136 32.897C38.9844 32.9834 38.8166 33.0339 38.6443 33.045C38.4721 33.0561 38.2996 33.0275 38.139 32.9613L31.4216 40.0258L30.8223 37.8323L37.4939 31.2719C37.6181 30.997 37.8343 30.7793 38.1016 30.66C38.3689 30.5408 38.6687 30.5283 38.9442 30.6249C39.2197 30.7216 39.4517 30.9206 39.5964 31.1843C39.741 31.448 39.7882 31.7581 39.729 32.0558L39.729 32.0558Z" fill="#FFB6B6"/>
<path d="M23.127 38.8569C23.127 38.8569 22.5176 40.3023 24.0214 41.1936C25.5252 42.0849 30.781 40.8535 31.6338 40.6815C32.4866 40.5096 35.6718 35.5212 35.6718 35.5212L35.2214 33.0747L30.9971 36.9124L23.127 38.8569Z" fill="#FA8A3C"/>
<path d="M22.0177 46.8498L22.1029 48.5453C22.1029 48.5453 21.8513 50.0473 22.0582 50.3714C22.2637 50.6939 27.8695 50.7346 27.8695 50.7346C27.8695 50.7346 28.2399 48.6449 28.5589 46.8159L22.0177 46.8498Z" fill="#FFB6B6"/>
<path d="M38.1348 69.2681L39.3068 69.0203L38.9713 64.0664L37.2417 64.432L38.1348 69.2681Z" fill="#FFB6B6"/>
<path d="M39.8137 62.8215L40.9032 62.3088L39.4899 57.5688L37.8818 58.3256L39.8137 62.8215Z" fill="#FFB6B6"/>
<path d="M40.7629 60.1504L38.7114 61.366L33.6522 52.8579C30.1005 55.362 26.6275 56.5612 23.1263 57.2011C21.9426 57.4217 20.7357 57.3099 20.5085 56.049C20.4979 55.9901 20.4894 55.9308 20.4831 55.8712C20.3433 54.494 21.9803 52.7287 22.1884 51.0437L26.6685 50.7623L27.221 51.5036L32.4021 48.17C33.4441 47.4996 34.8145 47.8622 35.463 48.9799C35.4973 49.0389 35.5291 49.0994 35.5584 49.1613L40.7629 60.1504Z" fill="#2F2E41"/>
<path d="M39.5071 65.8738L37.1598 66.1021L32.9037 56.9927C28.6831 57.7523 24.7015 57.9957 21.2575 57.0767C20.0914 56.7699 19.3787 55.5099 19.6655 54.2624C19.6789 54.2041 19.6944 54.1464 19.712 54.0893C20.1242 52.7732 21.2031 51.842 22.0532 50.3945L28.2623 50.4932L27.5688 52.9974L33.6005 52.1806C34.8135 52.0163 35.9213 52.9352 36.0749 54.2329C36.083 54.3014 36.0883 54.3702 36.0908 54.4393L39.5071 65.8738Z" fill="#2F2E41"/>
<path d="M24.4422 35.4397C25.8346 35.4397 26.9634 34.2584 26.9634 32.8012C26.9634 31.3439 25.8346 30.1626 24.4422 30.1626C23.0497 30.1626 21.9209 31.3439 21.9209 32.8012C21.9209 34.2584 23.0497 35.4397 24.4422 35.4397Z" fill="#FFB6B6"/>
<path d="M22.9637 36.3921L25.2755 36.6767C25.373 36.6887 25.4645 36.7322 25.5372 36.8012C25.6099 36.8702 25.6603 36.9613 25.6812 37.0616L26.0489 38.8222L28.3407 41.6466C28.3407 41.6466 29.1636 43.2615 28.855 45.0916C28.5464 46.9218 28.4108 48.2817 28.4108 48.2817C28.4108 48.2817 22.2631 50.6939 22.0574 50.371C21.8516 50.048 21.7849 48.581 21.7849 48.581L20.9619 38.9996C20.9619 38.9996 21.8877 37.3848 22.4021 37.3848C22.7341 37.373 22.6915 36.5912 22.9637 36.3921Z" fill="#FA8A3C"/>
<path d="M28.4737 48.8708C28.7979 48.8708 29.0607 48.5408 29.0607 48.1336C29.0607 47.7265 28.7979 47.3965 28.4737 47.3965C28.1495 47.3965 27.8867 47.7265 27.8867 48.1336C27.8867 48.5408 28.1495 48.8708 28.4737 48.8708Z" fill="#6C63FF"/>
<path d="M37.5532 67.9927L39.3399 67.0557L39.6767 67.8778L41.9361 68.3558C42.0477 68.3794 42.1491 68.4397 42.2257 68.5279C42.3022 68.6161 42.3498 68.7276 42.3614 68.8461C42.3731 68.9646 42.3483 69.0839 42.2906 69.1866C42.2329 69.2893 42.1453 69.3701 42.0407 69.417L39.8577 70.3963L39.1483 69.7518L39.3345 70.6309L38.5114 71.0002L37.5532 67.9927Z" fill="#2F2E41"/>
<path d="M39.3022 62.4269L41.073 61.457L41.4235 62.2729L43.6905 62.7092C43.8025 62.7307 43.905 62.7891 43.983 62.8759C44.061 62.9627 44.1104 63.0733 44.1241 63.1916C44.1377 63.3099 44.1149 63.4297 44.059 63.5334C44.003 63.6372 43.9168 63.7195 43.813 63.7683L41.6467 64.7876L40.9266 64.1563L41.1276 65.0319L40.3108 65.4162L39.3022 62.4269Z" fill="#2F2E41"/>
<path d="M23.0014 31.9736C22.3353 31.9747 21.6851 31.7601 21.1403 31.3591L21.1221 31.3458V31.3226C21.1228 30.6483 21.3791 30.0018 21.8347 29.5251C22.2903 29.0483 22.908 28.7801 23.5523 28.7793H24.5755C25.2198 28.7801 25.8376 29.0483 26.2932 29.5251C26.7487 30.0018 27.005 30.6483 27.0058 31.3226C27.0051 31.4769 26.9468 31.6249 26.8435 31.7349C26.7401 31.845 26.5998 31.9085 26.4523 31.9119L23.0589 31.9731C23.0397 31.9734 23.0205 31.9736 23.0014 31.9736Z" fill="#2F2E41"/>
<path d="M27.1767 30.834C27.503 30.6368 27.5575 30.0964 27.2985 29.6269C27.0395 29.1574 26.565 28.9366 26.2387 29.1338C25.9124 29.3309 25.8579 29.8713 26.1169 30.3408C26.3759 30.8103 26.8504 31.0311 27.1767 30.834Z" fill="#2F2E41"/>
<path d="M22.0738 30.3101C22.4401 29.9268 22.5211 29.39 22.2547 29.1112C21.9883 28.8324 21.4754 28.9172 21.1091 29.3005C20.7427 29.6839 20.6618 30.2206 20.9282 30.4994C21.1946 30.7782 21.7075 30.6935 22.0738 30.3101Z" fill="#2F2E41"/>
<path d="M44.3873 54.4351H41.8707C41.8139 54.4349 41.7578 54.4478 41.7063 54.4727C41.6547 54.4976 41.609 54.534 41.5724 54.5794C41.4795 54.5615 41.384 54.567 41.2936 54.5953C41.2032 54.6235 41.1204 54.6739 41.0522 54.7421C40.984 54.8103 40.9322 54.8945 40.901 54.9878C40.8699 55.081 40.8604 55.1806 40.8732 55.2785C40.886 55.3763 40.9208 55.4696 40.9748 55.5506C41.0287 55.6317 41.1003 55.6982 41.1835 55.7447C41.2668 55.7912 41.3594 55.8163 41.4538 55.8181C41.5481 55.8199 41.6415 55.7982 41.7263 55.7549L41.9351 56.4647C41.9598 56.5488 42.0096 56.6224 42.0773 56.6747C42.1449 56.727 42.2268 56.7552 42.3109 56.7552H43.9471C44.0312 56.7552 44.1131 56.727 44.1807 56.6747C44.2484 56.6224 44.2982 56.5488 44.3229 56.4647L44.7631 54.9676C44.7812 54.906 44.7853 54.8409 44.7749 54.7774C44.7646 54.714 44.7402 54.6539 44.7036 54.6021C44.667 54.5503 44.6194 54.5082 44.5644 54.4792C44.5095 54.4502 44.4488 54.4351 44.3873 54.4351ZM41.4662 55.6397C41.3531 55.6397 41.2447 55.5927 41.1647 55.5091C41.0848 55.4254 41.0398 55.3119 41.0398 55.1936C41.0398 55.0752 41.0848 54.9617 41.1647 54.8781C41.2447 54.7944 41.3531 54.7474 41.4662 54.7474C41.474 54.7474 41.4812 54.7494 41.4889 54.7498C41.472 54.8216 41.474 54.8969 41.4949 54.9676L41.675 55.5802C41.6115 55.6187 41.5396 55.6393 41.4662 55.6397Z" fill="#3F3D56"/>
<path d="M33.1497 52.4979C32.9778 52.5145 32.8046 52.4915 32.6422 52.4305C32.4797 52.3695 32.332 52.272 32.2095 52.1448C32.087 52.0176 31.9926 51.8638 31.933 51.6943C31.8735 51.5248 31.8501 51.3437 31.8646 51.1637L23.4707 46.4563L25.3067 45.2261L33.226 50.0322C33.5133 50.0778 33.7746 50.2321 33.9604 50.4659C34.1463 50.6996 34.2437 50.9966 34.2343 51.3005C34.2249 51.6045 34.1093 51.8942 33.9094 52.1149C33.7095 52.3356 33.4392 52.4719 33.1497 52.4979Z" fill="#FFB6B6"/>
<path d="M22.1613 37.8053C22.1613 37.8053 20.6634 37.609 20.2789 39.3724C19.8945 41.1357 22.5297 46.0515 22.9318 46.8571C23.3339 47.6628 28.814 49.4247 28.814 49.4247L30.9242 48.2713L26.1993 45.1374L22.1613 37.8053Z" fill="#FA8A3C"/>
<path d="M32.7192 30.519H33.2308C33.4796 30.519 33.7182 30.6225 33.8941 30.8066C34.07 30.9906 34.1688 31.2403 34.1688 31.5007H31.7812C31.7812 31.2403 31.8801 30.9906 32.056 30.8066C32.2319 30.6225 32.4705 30.519 32.7192 30.519Z" fill="#CCCCCC"/>
<path d="M16.4954 12.2046C19.2947 12.2046 21.564 9.82971 21.564 6.90015C21.564 3.97058 19.2947 1.5957 16.4954 1.5957C13.6961 1.5957 11.4268 3.97058 11.4268 6.90015C11.4268 9.82971 13.6961 12.2046 16.4954 12.2046Z" fill="#FA8A3C"/>
<path d="M32.0147 6.62376C30.6733 5.15113 29.1154 3.80769 27.2712 3.09777C26.7574 2.89918 26.2248 2.7591 25.6824 2.67994C25.678 2.67931 25.6739 2.68023 25.6695 2.67987C25.6607 2.67749 25.6518 2.67565 25.6427 2.67436C24.8841 2.57322 24.1141 2.62187 23.3727 2.81779C23.0101 2.91301 22.6563 3.04197 22.3157 3.20313C21.9738 3.37766 21.6426 3.57411 21.3239 3.79136C20.6492 4.21397 19.9065 4.50396 19.1322 4.64702C18.7435 4.72024 18.3499 4.76068 17.9551 4.76792C17.6125 4.77512 17.2894 4.78757 16.9648 4.9171C16.6181 5.05355 16.3066 5.27292 16.0553 5.55771C15.804 5.8425 15.6197 6.18483 15.5173 6.55737C15.5094 6.59055 15.5117 6.62549 15.5241 6.65716C15.5364 6.68883 15.558 6.71558 15.5858 6.73356C15.6736 6.79937 15.7592 6.87404 15.8514 6.93267C15.9335 6.97198 16.0211 6.997 16.1109 7.00674C16.2576 7.03913 16.4044 7.07057 16.5515 7.10106C17.0932 7.21339 17.6371 7.31282 18.1833 7.39935C19.2886 7.57445 20.3998 7.69779 21.5169 7.76937C23.7549 7.91124 26.0006 7.8406 28.2264 7.55834C29.4774 7.39977 30.7198 7.17488 31.949 6.88453C31.9738 6.87691 31.9964 6.8627 32.0145 6.84326C32.0326 6.82383 32.0456 6.79982 32.0522 6.77359C32.0588 6.74735 32.0589 6.71977 32.0523 6.69352C32.0457 6.66727 32.0328 6.64324 32.0147 6.62376Z" fill="#E6E6E6"/>
<path d="M16.736 10.1705C16.2223 9.97194 15.6896 9.83185 15.1472 9.75269C15.1429 9.75207 15.1387 9.75299 15.1344 9.75262C15.1256 9.75024 15.1166 9.7484 15.1076 9.74712C14.349 9.64598 13.579 9.69463 12.8375 9.89054C12.4749 9.98577 12.1212 10.1147 11.7805 10.2759C11.4387 10.4504 11.1074 10.6469 10.7887 10.8641C10.1141 11.2867 9.37132 11.5767 8.59704 11.7198C8.2084 11.793 7.81476 11.8334 7.41992 11.8407C7.07733 11.8479 6.75424 11.8603 6.42965 11.9899C6.08292 12.1263 5.77147 12.3457 5.52014 12.6305C5.26881 12.9153 5.08457 13.2576 4.98211 13.6301C4.97421 13.6633 4.97659 13.6982 4.98891 13.7299C5.00122 13.7616 5.02283 13.7883 5.05062 13.8063C5.13842 13.8721 5.22402 13.9468 5.31627 14.0054C5.39834 14.0447 5.48599 14.0698 5.57576 14.0795C5.72243 14.1119 5.86929 14.1433 6.01633 14.1738C6.55804 14.2861 7.10199 14.3856 7.6482 14.4721C8.75343 14.6472 9.86462 14.7705 10.9818 14.8421C13.2198 14.984 15.4655 14.9134 17.6913 14.6311C18.9422 14.4725 20.1847 14.2476 21.4138 13.9573C21.4387 13.9497 21.4613 13.9354 21.4794 13.916C21.4975 13.8966 21.5105 13.8726 21.5171 13.8463C21.5237 13.8201 21.5237 13.7925 21.5172 13.7663C21.5106 13.74 21.4977 13.716 21.4796 13.6965C20.1382 12.2239 18.5803 10.8804 16.736 10.1705Z" fill="#E6E6E6"/>
<path d="M53.2884 49.7143L49.3905 44.3555L46.3149 46.1754L52.8323 54.2747L53.2884 49.7143Z" fill="#3F3D56"/>
<path d="M62.2668 41.0029C62.3534 43.2487 62.6859 45.4766 63.2577 47.6431C63.1349 47.9456 63.0081 48.246 62.8774 48.5444C62.3826 49.6743 61.8286 50.7748 61.218 51.8408C59.5054 54.8345 57.3677 57.5381 54.8781 59.8588C54.6087 60.1096 54.3355 60.3562 54.0587 60.5986C52.4803 58.3213 51.6285 55.8083 51.2917 53.2222C51.249 52.8938 51.2141 52.5619 51.1876 52.2317V52.2299C51.123 51.4275 51.1022 50.6218 51.1254 49.8169C51.1262 49.7527 51.128 49.6875 51.1305 49.6224C51.1604 48.7621 51.2345 47.9001 51.3462 47.0461V47.0452C51.359 46.947 51.3718 46.8489 51.3863 46.7507C51.4273 46.4562 51.4733 46.1618 51.5236 45.8691C51.8164 44.181 52.2251 42.5171 52.7464 40.8905V40.8896C52.7609 40.8423 52.7754 40.7959 52.7916 40.7495C52.8479 40.5728 52.905 40.3979 52.9638 40.223C52.9675 40.2093 52.972 40.1959 52.9775 40.1829C53.0534 39.9544 53.131 39.7277 53.2103 39.5029C53.2316 39.4404 53.2537 39.3779 53.2768 39.3155C53.3663 39.0647 53.4575 38.8157 53.5505 38.5703C53.5795 38.4918 53.6093 38.4133 53.6392 38.3356C53.6622 38.2758 53.6844 38.2161 53.7082 38.1572V38.1563C53.8438 37.8056 53.9811 37.4617 54.1201 37.1247C54.5098 36.177 54.9106 35.2855 55.3011 34.4636L55.3019 34.4627C56.9229 31.0601 58.3964 28.8506 58.3964 28.8506L63.9296 30.7246C63.2696 31.9498 62.7588 33.7569 62.4792 35.8887C62.2637 37.5832 62.1926 39.2944 62.2668 41.0021L62.2668 41.0029Z" fill="#3F3D56"/>
<path d="M53.0708 40.4578C53.0384 40.3784 53.0017 40.3007 52.9642 40.2231C52.7697 39.829 52.5193 39.4679 52.2215 39.1522C52.1771 39.1049 52.1311 39.0576 52.0833 39.013C51.5697 38.5179 50.9451 38.1663 50.2673 37.9907C49.5894 37.8151 48.8802 37.8211 48.2052 38.0082L48.2018 38.01L48.1762 38.0171L48.1822 38.0475C48.2078 38.1889 48.2449 38.3277 48.293 38.4624C48.3058 38.499 48.3203 38.5338 48.3348 38.5686C48.3408 38.5847 48.3485 38.599 48.3553 38.615C48.3553 38.615 48.3544 38.6159 48.3561 38.6159C48.3561 38.6168 48.357 38.6177 48.357 38.6186C48.3732 38.6516 48.3885 38.6855 48.4056 38.7177C48.3706 38.6828 48.3374 38.6472 48.305 38.6106C48.2734 38.5767 48.2444 38.541 48.2154 38.5053C48.1161 38.384 48.0262 38.2545 47.9468 38.118L47.9332 38.0939L47.9093 38.1037C47.5875 38.2204 47.2806 38.3777 46.9952 38.5722L46.9645 38.5936C46.7466 38.7433 46.5011 38.8434 46.2439 38.8874C45.9867 38.9313 45.7235 38.9182 45.4714 38.8488C45.074 38.7416 44.6597 38.722 44.2547 38.7913C43.8497 38.8606 43.4629 39.0172 43.1188 39.2513C42.8909 39.4068 42.6848 39.5948 42.5066 39.8099C42.4912 39.8287 42.4758 39.8483 42.4605 39.867C42.4281 39.9081 42.3974 39.95 42.3676 39.9929C42.047 40.4412 41.8503 40.9731 41.7988 41.5304L41.7971 41.5509L41.8133 41.5626C42.1018 41.7695 42.4281 41.9117 42.7717 41.9802C42.5559 42.0117 42.3373 42.0174 42.1203 41.9971H42.1194C42.021 41.9886 41.923 41.9743 41.8261 41.9543L41.8082 41.9507H41.8073L41.7852 41.9463L41.7886 41.9891C41.814 42.5344 41.978 43.0627 42.2635 43.5195L42.2721 43.532C42.2752 43.5366 42.278 43.5413 42.2806 43.5463C42.4016 43.7399 42.5022 43.9467 42.5807 44.1629C42.7801 44.7003 42.824 45.2871 42.7069 45.8504C42.5745 46.4529 42.6185 47.0831 42.8333 47.659C43.048 48.2349 43.4236 48.7297 43.911 49.079C44.3391 49.3873 44.838 49.5705 45.3563 49.61C45.4271 49.6162 45.4987 49.6198 45.5703 49.6198C45.9804 49.6211 46.3861 49.5327 46.7616 49.3601L46.7752 49.3548L46.7786 49.3387C46.8508 49.0949 46.9522 48.8616 47.0805 48.6444C47.0385 48.8156 47.0173 48.9916 47.0174 49.1683V49.2272L47.066 49.1977C47.1078 49.1718 47.1504 49.1442 47.1888 49.1183C47.4191 48.9609 47.6277 48.7711 47.8087 48.5543C47.8795 48.4686 47.9511 48.3856 48.0261 48.3026L48.027 48.3018C48.1728 48.1393 48.3271 47.9805 48.4875 47.8288C48.8285 47.5082 49.1935 47.2167 49.5789 46.957C49.9641 46.6981 50.3668 46.4691 50.7838 46.2716H50.7846C50.8315 46.2484 50.8793 46.2261 50.9262 46.2047C51.1339 46.1101 51.3338 45.9978 51.524 45.8691C51.5308 45.8647 51.5367 45.8611 51.5427 45.8567C52.367 45.2918 52.973 44.4392 53.2529 43.4505C53.5327 42.4618 53.4682 41.4013 53.0708 40.4578L53.0708 40.4578Z" fill="#FA8A3C"/>
<path opacity="0.15" d="M42.8462 47.1175C42.8231 47.226 42.8056 47.3357 42.7937 47.4462C42.6359 46.9212 42.613 46.3615 42.7274 45.8242C42.7451 45.742 42.7583 45.6588 42.7687 45.5752C42.9253 46.0727 42.9521 46.6054 42.8462 47.1175Z" fill="black"/>
<path opacity="0.15" d="M42.9117 43.2465C42.6591 43.2832 42.403 43.2845 42.1501 43.2503C42.0839 43.1196 42.0267 42.984 41.979 42.8447C42.2606 43.0436 42.5779 43.1803 42.9117 43.2465Z" fill="black"/>
<path opacity="0.15" d="M42.1282 41.9684C42.0355 42.218 41.9739 42.4791 41.945 42.7452C41.8677 42.4917 41.822 42.2287 41.8092 41.9628L41.8071 41.9199L41.8471 41.9281C41.9401 41.9465 42.0339 41.9599 42.1282 41.9684Z" fill="black"/>
<path opacity="0.15" d="M43.1407 39.2244C43.4844 38.99 43.871 38.8331 44.2758 38.7638C44.6806 38.6944 45.0948 38.714 45.492 38.8215C45.7441 38.8912 46.0075 38.9046 46.2649 38.8607C46.5223 38.8168 46.768 38.7166 46.9859 38.5667L47.0167 38.5454C47.3018 38.3505 47.6086 38.1928 47.9303 38.0758L47.9548 38.0669L47.9683 38.0902C48.0955 38.3102 48.2496 38.512 48.4267 38.6903C48.3191 38.4806 48.2438 38.2544 48.2034 38.0201L48.1976 37.9892L48.2267 37.9811C48.8598 37.8058 49.5236 37.7896 50.1638 37.9338C50.8041 38.078 51.4027 38.3786 51.9108 38.811C52.4189 39.2434 52.8221 39.7954 53.0875 40.4219C53.353 41.0485 53.4731 41.7318 53.4381 42.4162C53.3039 41.8583 53.0651 41.3337 52.7357 40.8731C52.4063 40.4124 51.9928 40.0247 51.5192 39.7324C51.0455 39.4402 50.5212 39.2492 49.9766 39.1706C49.4319 39.092 48.8778 39.1273 48.3462 39.2744L48.3171 39.2825L48.3229 39.3134C48.3632 39.5477 48.4386 39.7738 48.5462 39.9836C48.3691 39.8053 48.215 39.6035 48.0877 39.3835L48.0743 39.3602L48.0498 39.3691C47.7281 39.4861 47.4213 39.6438 47.1362 39.8387L47.1054 39.8599C46.8874 40.0099 46.6418 40.1101 46.3844 40.154C46.127 40.1979 45.8636 40.1845 45.6115 40.1148C44.9514 39.9355 44.2523 40.0014 43.6334 40.3013C43.0145 40.6011 42.5142 41.1163 42.2177 41.7591C42.0857 41.6927 41.9578 41.6179 41.8346 41.5351L41.8179 41.524L41.8198 41.5034C41.8623 41.0441 42.0031 40.6007 42.2317 40.2062C42.4604 39.8116 42.7711 39.4761 43.1407 39.2244Z" fill="black"/>
<path d="M74.841 16.4232L74.76 16.3669L74.7012 16.4473C74.2458 17.0472 73.8835 17.7185 73.6276 18.4364C73.6629 17.6094 73.8011 16.7907 74.0386 16.0011L74.0642 15.9181L73.9908 15.8744C73.0368 15.309 72.0202 14.8678 70.9637 14.5608L70.8486 14.5287C70.039 14.2961 69.2852 13.8877 68.6365 13.3298C67.9879 12.772 67.4588 12.0773 67.0839 11.2911C66.2127 9.48678 64.8365 8.0034 63.1388 7.03893C61.441 6.07445 59.5026 5.67474 57.5822 5.89313H57.5814C57.5609 5.89492 57.5396 5.8976 57.5191 5.90027C57.4842 5.90384 57.4501 5.9083 57.4159 5.91277C57.346 5.92258 57.2778 5.9324 57.2096 5.94311C57.1516 5.95203 57.0928 5.96185 57.0348 5.97256C57.0041 5.97702 56.9742 5.98237 56.9444 5.98862C56.9146 5.99397 56.8839 5.99933 56.854 6.00557H56.8532C56.2806 6.11891 55.7194 6.2877 55.1767 6.50976H55.1759V6.51065L55.0386 6.56687C54.8971 6.62755 54.7566 6.69181 54.6174 6.75963C54.5858 6.7748 54.5551 6.79086 54.5236 6.80603C54.515 6.81049 54.5057 6.81495 54.4971 6.82031C54.4076 6.86493 54.3189 6.91133 54.2311 6.96041C54.2183 6.96666 54.2055 6.9738 54.1927 6.98093L54.1109 7.02645C53.9309 7.12818 53.7541 7.23615 53.5805 7.35038C53.566 7.3593 53.5523 7.36823 53.5378 7.37804C53.5225 7.38875 53.5063 7.39946 53.4909 7.41017C53.4816 7.41552 53.4722 7.42266 53.4628 7.42891C53.4364 7.44586 53.4108 7.46371 53.3852 7.48245C53.334 7.51725 53.2829 7.55295 53.2326 7.58953C53.1806 7.62612 53.1294 7.66449 53.0782 7.70287L53.0271 7.74124L53.0365 7.80727C53.045 7.86171 53.0527 7.91614 53.062 7.96969C53.0706 8.02323 53.0791 8.07588 53.0885 8.12853C53.103 8.21687 53.1192 8.30433 53.1354 8.3891C53.1465 8.44532 53.1567 8.50065 53.1686 8.55508C53.1797 8.6113 53.1916 8.66752 53.2044 8.72374C53.2292 8.83975 53.2556 8.95219 53.2837 9.06285C53.2974 9.11817 53.3119 9.1735 53.3272 9.22794C53.3358 9.26095 53.3443 9.29397 53.3537 9.3261C53.3605 9.34841 53.3673 9.37072 53.3741 9.39303C53.3758 9.40016 53.3775 9.4082 53.3801 9.41623C53.382 9.42379 53.3843 9.43124 53.3869 9.43854C53.3963 9.47156 53.4057 9.50369 53.4151 9.53491C53.4202 9.55187 53.4253 9.56882 53.4313 9.58489C53.4432 9.62326 53.456 9.66252 53.4688 9.7C53.4824 9.74284 53.4969 9.78567 53.5114 9.82761C53.5148 9.83832 53.5182 9.84814 53.5216 9.85885C53.5242 9.86688 53.5268 9.87491 53.5302 9.88294C53.5336 9.89186 53.537 9.90168 53.5404 9.9106C53.5549 9.95076 53.5694 9.99181 53.5847 10.032C53.5899 10.0462 53.595 10.0614 53.6009 10.0757C53.7392 10.4392 53.909 10.7887 54.1083 11.1198C53.8875 10.9217 53.6748 10.7117 53.4705 10.4898C53.1549 10.1466 52.8642 9.77946 52.6007 9.39124C52.5794 9.3609 52.5581 9.32967 52.5385 9.29843C52.4984 9.23864 52.4592 9.17886 52.4208 9.11817C52.3799 9.05571 52.3406 8.99056 52.3023 8.92631C52.2767 8.88348 52.2511 8.83975 52.2264 8.79692C52.2017 8.75587 52.1786 8.71571 52.1565 8.67466L52.09 8.55508H52.0891V8.55598L51.9953 8.65235C51.9578 8.69073 51.9203 8.7291 51.8836 8.76747C50.7375 9.97424 49.9074 11.4693 49.473 13.1089L49.4602 13.158L49.4474 13.2088C49.4227 13.2998 49.398 13.3882 49.3715 13.4783V13.4792C49.3459 13.5684 49.3187 13.6577 49.2897 13.7451C49.2632 13.8281 49.236 13.9102 49.207 13.9923C49.1976 14.02 49.1873 14.0477 49.1763 14.0753C49.1584 14.1289 49.1387 14.1815 49.1191 14.2351C49.1097 14.2591 49.1004 14.2841 49.091 14.3082C49.068 14.3671 49.0449 14.426 49.0219 14.484C49.0185 14.4929 49.0142 14.5028 49.01 14.5117C49.0032 14.5295 48.9955 14.5474 48.9887 14.5643C48.9708 14.6072 48.952 14.6509 48.9341 14.6937C48.9213 14.7214 48.9094 14.75 48.8974 14.7776C48.8923 14.7901 48.8863 14.8026 48.8812 14.8151C48.8497 14.8865 48.8173 14.957 48.7832 15.0266C48.7448 15.1087 48.7056 15.1908 48.6638 15.2711C48.6271 15.3461 48.5887 15.4192 48.5487 15.4924C48.4796 15.6218 48.4071 15.7503 48.3321 15.8752C48.3031 15.9234 48.2741 15.9716 48.2443 16.0198C48.2374 16.0314 48.2306 16.043 48.2238 16.0537C48.1991 16.0957 48.1735 16.1358 48.147 16.1769C48.1291 16.2045 48.1112 16.2322 48.0933 16.259C48.0635 16.3071 48.0319 16.3536 47.9995 16.3991C47.991 16.4133 47.9816 16.4267 47.9722 16.4401C47.9245 16.5097 47.8767 16.5775 47.8281 16.6454C47.8264 16.6463 47.8264 16.6471 47.8256 16.648C47.8239 16.648 47.8239 16.6489 47.823 16.6498C47.8017 16.6793 47.7804 16.7087 47.7582 16.7373C47.7292 16.7792 47.6977 16.8203 47.6661 16.8604C47.615 16.9282 47.5612 16.997 47.5067 17.0639C47.505 17.0657 47.5041 17.0675 47.5024 17.0683C47.2199 17.4157 46.9138 17.7414 46.5866 18.0428C46.5806 18.0482 46.5764 18.0535 46.5704 18.058C46.5243 18.0999 46.4783 18.1419 46.4305 18.1829C46.4109 18.1999 46.3913 18.2168 46.3717 18.2338C46.3393 18.2623 46.3061 18.2909 46.2736 18.3168C46.2698 18.3209 46.2655 18.3245 46.2609 18.3275C46.2319 18.3525 46.2037 18.3757 46.1747 18.3989C46.1398 18.4283 46.1048 18.456 46.069 18.4837C45.9002 18.6175 45.7268 18.7439 45.5488 18.8629C45.5224 18.8817 45.4943 18.9004 45.467 18.9182C45.4508 18.929 45.4346 18.9397 45.4192 18.9486C45.3544 18.9905 45.2896 19.0316 45.2248 19.0708C45.16 19.111 45.0935 19.1494 45.0278 19.1868C44.8872 19.2672 44.7482 19.351 44.6126 19.4385C44.5444 19.4831 44.4761 19.5277 44.4088 19.5732C44.141 19.7553 43.8832 19.9501 43.6354 20.1578C43.3876 20.3655 43.1499 20.5862 42.9234 20.819C42.8952 20.8476 42.8671 20.877 42.839 20.9073C42.7827 20.9654 42.7281 21.0242 42.6761 21.0831C42.5925 21.1733 42.5124 21.2661 42.4331 21.3598C42.0149 21.8563 41.6447 22.395 41.328 22.9678C41.1689 23.2539 41.0243 23.5485 40.8948 23.8504C40.7967 24.0762 40.7072 24.3073 40.6262 24.5411C40.5725 24.6973 40.5221 24.8549 40.4752 25.0141C40.4522 25.0935 40.4301 25.1738 40.4087 25.2541C40.3363 25.5263 40.2757 25.8011 40.2263 26.0769C40.1862 26.2982 40.1538 26.5198 40.1291 26.7417C40.1163 26.8532 40.106 26.9648 40.0966 27.0754C40.0747 27.3474 40.0635 27.6197 40.063 27.8922C40.0615 28.7097 40.1564 29.5243 40.3456 30.3174C40.3874 30.4923 40.4338 30.6664 40.4846 30.8395C40.5102 30.926 40.5375 31.0117 40.5648 31.0974C40.6339 31.3115 40.7103 31.5236 40.7942 31.7336C40.8445 31.8595 40.8973 31.9844 40.9528 32.1084C41.305 32.897 41.7545 33.6338 42.2898 34.3001C42.3776 34.4099 42.4683 34.5179 42.5618 34.624C42.5627 34.624 42.5618 34.6249 42.5618 34.6249C42.7939 34.8898 43.0395 35.1412 43.2977 35.3781H43.2986C43.4017 35.4736 43.5066 35.5661 43.6132 35.6556C43.6141 35.6547 43.6141 35.6556 43.6141 35.6556C43.7215 35.7467 43.8298 35.8341 43.9406 35.9189C43.9961 35.9608 44.0523 36.0028 44.1095 36.0447C44.2212 36.1277 44.3352 36.2077 44.4514 36.2848H44.4523C44.5682 36.3633 44.6859 36.4382 44.8053 36.5096C45.0449 36.6533 45.2905 36.7881 45.5429 36.9103L45.5855 36.9308L45.629 36.9103C46.0337 36.7197 46.4509 36.5596 46.8774 36.4311C46.9712 36.4025 47.0658 36.3767 47.1596 36.3517C47.3967 36.2901 47.6354 36.2384 47.8759 36.1964C47.6416 36.3194 47.4154 36.4586 47.1988 36.6131C47.0308 36.7318 46.8654 36.8612 46.6991 37.004C46.6437 37.0513 46.5883 37.1004 46.5329 37.1504L46.3947 37.2753L46.5678 37.3351C46.6309 37.3565 46.694 37.3779 46.7571 37.3976C46.8433 37.4261 46.9285 37.452 47.0121 37.4761C47.1946 37.5296 47.3782 37.5769 47.5629 37.618C47.6081 37.6278 47.6525 37.6376 47.6977 37.6474C47.7855 37.6653 47.8742 37.6831 47.9629 37.6992C47.9665 37.7001 47.9702 37.7007 47.9739 37.701C48.066 37.717 48.159 37.7322 48.2511 37.7456C48.4225 37.7715 48.5939 37.792 48.7653 37.8071C48.784 37.8098 48.8028 37.8107 48.8224 37.8116C48.8642 37.8152 48.9051 37.8187 48.9469 37.8214C49.039 37.8277 49.1319 37.8321 49.2249 37.8357C49.2317 37.8357 49.2377 37.8366 49.2445 37.8366C49.2914 37.8384 49.3383 37.8402 49.3852 37.8411C49.3852 37.8411 49.3852 37.8419 49.386 37.8411C49.4329 37.8419 49.4798 37.8428 49.5267 37.8428H49.7859C49.8345 37.8428 49.8832 37.8437 49.9326 37.8437C50.0008 37.8437 50.0699 37.8446 50.1381 37.8455C50.156 37.8455 50.1748 37.8464 50.1935 37.8464C50.3027 37.8482 50.4118 37.8509 50.521 37.8536C50.5278 37.8536 50.5346 37.8544 50.5414 37.8544C50.6506 37.858 50.7597 37.8616 50.8689 37.8669C50.8928 37.8678 50.9166 37.8687 50.9414 37.8705C51.0462 37.875 51.1511 37.8803 51.256 37.8866C51.2859 37.8884 51.3166 37.891 51.3473 37.8928C51.4266 37.8973 51.5067 37.9026 51.586 37.9089C51.6329 37.9116 51.679 37.9151 51.7259 37.9196C51.9152 37.9348 52.1036 37.9517 52.2929 37.9713C52.356 37.9767 52.4191 37.9838 52.4822 37.991C52.651 38.0097 52.8204 38.0302 52.9904 38.0526C53.0663 38.0615 53.1422 38.0722 53.2181 38.0829C53.2266 38.0838 53.2351 38.0847 53.2437 38.0865C53.3375 38.0998 53.4304 38.1132 53.5242 38.1275C53.5856 38.1364 53.647 38.1463 53.7084 38.1561C53.7715 38.1659 53.8346 38.1757 53.8977 38.1873C53.9318 38.1927 53.9659 38.1989 54.0009 38.2051C54.0827 38.2185 54.1654 38.2328 54.2482 38.2489C54.2556 38.2496 54.263 38.2508 54.2703 38.2524C54.446 38.2846 54.6225 38.3185 54.7982 38.3551C54.9013 38.3756 55.0037 38.397 55.106 38.4193C55.1861 38.4363 55.2663 38.4541 55.3464 38.472C55.3601 38.4746 55.3737 38.4782 55.3874 38.4818C55.3904 38.4827 55.3936 38.4833 55.3968 38.4836C55.5178 38.5112 55.6398 38.5398 55.7609 38.5701C56.1812 38.6719 56.6011 38.7849 57.0203 38.9092C57.1167 38.9369 57.213 38.9663 57.3094 38.9958C57.3503 39.0083 57.3904 39.0208 57.4305 39.0333C57.514 39.0592 57.5967 39.085 57.6803 39.1127C57.7536 39.1359 57.8278 39.16 57.9011 39.185C57.9472 39.2001 57.9932 39.2153 58.0393 39.2314C58.1109 39.2546 58.1825 39.2787 58.2533 39.3046C58.3139 39.3242 58.3735 39.3447 58.4332 39.367C58.5185 39.3965 58.6046 39.4268 58.6899 39.4589C58.7146 39.4679 58.7402 39.4768 58.7649 39.4866C58.869 39.5241 58.973 39.5625 59.077 39.6026C59.1785 39.641 59.28 39.6802 59.3806 39.7195C59.4505 39.7472 59.5204 39.7739 59.5895 39.8025C59.6671 39.8337 59.7447 39.865 59.8214 39.8971C59.9323 39.9426 60.044 39.989 60.1549 40.0363C60.2572 40.0791 60.3586 40.1229 60.461 40.1684C60.4797 40.1764 60.4993 40.1844 60.5181 40.1934C60.6068 40.2317 60.6955 40.2719 60.7833 40.312C60.8404 40.337 60.8967 40.3629 60.953 40.3888C61.1986 40.5012 61.4439 40.6175 61.6889 40.7377H61.6897C61.8432 40.8136 61.9993 40.8858 62.1562 40.9546C62.1928 40.9706 62.2295 40.9867 62.267 41.0019C62.3293 41.0295 62.3924 41.0554 62.4555 41.0822C62.4964 41.0991 62.5373 41.1161 62.5791 41.1321C62.6396 41.1571 62.701 41.1812 62.7624 41.2044C62.8272 41.2294 62.8912 41.2544 62.9568 41.2776C62.9799 41.2865 63.0029 41.2946 63.0268 41.3035C63.1027 41.3302 63.1785 41.357 63.2553 41.3829C63.263 41.3856 63.2706 41.3883 63.2792 41.3909C63.3593 41.4177 63.4395 41.4445 63.5205 41.4695C63.5269 41.472 63.5334 41.474 63.5401 41.4757C63.6271 41.5034 63.7158 41.5301 63.8036 41.556C63.9332 41.5935 64.0637 41.6292 64.1941 41.6622C64.218 41.6685 64.2419 41.6747 64.2658 41.6801C64.3357 41.6979 64.4047 41.7149 64.4747 41.7309C64.5489 41.7488 64.6239 41.7648 64.6981 41.7809C64.7731 41.797 64.8482 41.813 64.9223 41.8273C64.9624 41.8353 65.0025 41.8434 65.0417 41.8505L65.1466 41.8692C65.2191 41.8826 65.2916 41.8942 65.3649 41.9067C65.3669 41.9066 65.3689 41.9069 65.3709 41.9076C65.4536 41.921 65.5354 41.9335 65.6181 41.9442C65.6974 41.9558 65.7767 41.9656 65.856 41.9754C65.8722 41.9772 65.8893 41.979 65.9064 41.9808C65.972 41.9888 66.0377 41.9969 66.1033 42.0031C66.1221 42.0049 66.1408 42.0067 66.1596 42.0085C66.2244 42.0147 66.2892 42.021 66.354 42.0254C66.367 42.0272 66.3801 42.0281 66.3932 42.0281C66.4512 42.0334 66.5092 42.0379 66.5672 42.0406C66.6081 42.0442 66.6482 42.0459 66.6891 42.0486C66.7105 42.0495 66.7309 42.0504 66.7522 42.0513C66.8085 42.0549 66.8648 42.0566 66.9219 42.0584C66.991 42.0611 67.0601 42.0629 67.1283 42.0647C67.211 42.0665 67.2946 42.0674 67.3773 42.0674H67.379C67.46 42.0674 67.5418 42.0665 67.6229 42.0647H67.6536L67.7431 42.062C67.7891 42.0611 67.8352 42.0593 67.8804 42.0575C67.9674 42.054 68.0535 42.0495 68.1396 42.0442C68.1737 42.0424 68.2087 42.0397 68.2428 42.0379C68.2581 42.037 68.2743 42.0352 68.2897 42.0343C68.3434 42.0308 68.3963 42.0272 68.45 42.0227C68.5054 42.0183 68.5617 42.0129 68.6171 42.0067C68.6887 41.9995 68.7604 41.9915 68.832 41.9835C68.8883 41.9772 68.9446 41.9701 69 41.9629C69.0074 41.9623 69.0148 41.9611 69.0222 41.9594C69.0759 41.9531 69.1296 41.946 69.1825 41.938C69.2456 41.929 69.3078 41.9192 69.3701 41.9094C69.3769 41.9085 69.3829 41.9076 69.3897 41.9067C69.4971 41.8889 69.6054 41.871 69.7137 41.8505C69.8271 41.8291 69.9405 41.8059 70.0531 41.7818C70.0949 41.7729 70.1358 41.7631 70.1776 41.7541C70.2006 41.7488 70.2245 41.7443 70.2466 41.739C70.2816 41.7309 70.3157 41.7229 70.3498 41.714C70.3558 41.7131 70.3626 41.7113 70.3686 41.7104C70.4163 41.6997 70.4632 41.6872 70.511 41.6747C70.6065 41.6506 70.7003 41.6256 70.7941 41.5989C70.8359 41.5882 70.8776 41.5765 70.9177 41.5649C70.9297 41.5614 70.9416 41.5578 70.9527 41.5542C71.1258 41.5034 71.2975 41.4495 71.4677 41.3927C71.5428 41.3677 71.6169 41.3419 71.6911 41.3142C71.8506 41.2571 72.0086 41.197 72.1652 41.1339C72.207 41.1179 72.2488 41.1 72.2906 41.0831C72.352 41.0572 72.4134 41.0313 72.4739 41.0054C72.5285 40.9813 72.5831 40.9572 72.6385 40.9323C72.6658 40.9207 72.6931 40.9082 72.7203 40.8957C72.8022 40.8582 72.8841 40.8198 72.9651 40.7814C73.0196 40.7547 73.0734 40.7288 73.1271 40.702C73.2124 40.6592 73.2968 40.6155 73.3812 40.5717C73.4025 40.5601 73.423 40.5485 73.4435 40.5378C73.4972 40.5093 73.5509 40.4798 73.6055 40.4513C73.6916 40.4031 73.7777 40.3549 73.863 40.3049C73.892 40.2889 73.9201 40.2719 73.9491 40.2549C74.0429 40.1996 74.1358 40.1434 74.2279 40.0863C74.4317 39.9587 74.6327 39.8254 74.8308 39.6865C74.8802 39.6526 74.9297 39.6169 74.9783 39.5821C75.0704 39.5161 75.1608 39.4482 75.2512 39.3804C75.2606 39.3733 75.2691 39.3661 75.2785 39.3599C75.3237 39.3251 75.3688 39.2903 75.414 39.2546C75.5078 39.1805 75.6008 39.1056 75.6937 39.0288C75.6954 39.0279 75.698 39.0253 75.7006 39.0235C75.7423 38.9887 75.7841 38.9539 75.825 38.9191C75.9521 38.8111 76.0774 38.7013 76.2002 38.588C76.2608 38.5336 76.3205 38.4773 76.3793 38.4211C76.4236 38.3792 76.468 38.3372 76.5115 38.2944C76.5993 38.2078 76.6854 38.1222 76.7707 38.0347C76.8133 37.9919 76.8551 37.9473 76.8977 37.9026C76.9395 37.858 76.9822 37.8134 77.0239 37.7679C77.0384 37.7527 77.0529 37.7367 77.0674 37.7206C77.1101 37.6733 77.1527 37.6251 77.1953 37.5778C77.232 37.5368 77.2678 37.4939 77.3045 37.4511C77.3659 37.3797 77.4281 37.3083 77.4887 37.236C77.4919 37.232 77.4953 37.2281 77.4989 37.2244C77.5023 37.22 77.5057 37.2164 77.5083 37.2128H77.5074C78.7469 35.7129 79.6678 33.9546 80.2093 32.0543C80.7507 30.1539 80.9004 28.1549 80.6483 26.1895C80.3962 24.2242 79.7482 22.3372 78.747 20.6536C77.7459 18.9699 76.4145 17.528 74.841 16.4232L74.841 16.4232Z" fill="#FA8A3C"/>
<g opacity="0.15">
<path opacity="0.15" d="M57.5813 5.89258C57.7513 6.53155 58.007 7.14207 58.3409 7.70587C57.782 7.20343 57.2827 6.63273 56.8535 6.00597C57.0946 5.95825 57.3372 5.92046 57.5813 5.89258Z" fill="black"/>
<path opacity="0.15" d="M49.2609 15.7744C48.6298 16.1349 48.0397 16.569 47.502 17.0684C48.41 15.9447 49.0736 14.6278 49.4469 13.2089C49.4514 13.1919 49.4559 13.1747 49.4603 13.1576L49.473 13.1093C49.9216 11.4159 50.7918 9.87758 51.9948 8.65162L52.0894 8.55518L52.1561 8.67436C52.5249 9.33059 52.9662 9.93911 53.4709 10.4874C52.6975 12.7713 51.1925 14.6722 49.2609 15.7744Z" fill="black"/>
<path opacity="0.15" d="M53.7058 9.69583L53.6931 9.74413C53.6887 9.7612 53.6842 9.77836 53.6796 9.7954C53.6547 9.88931 53.6282 9.9825 53.6009 10.0753C53.3312 9.34411 53.1418 8.5832 53.0363 7.80722L53.0264 7.74138L53.0781 7.70269C53.727 7.21474 54.4317 6.81382 55.1758 6.50928C54.5077 7.47094 54.0098 8.55021 53.7058 9.69583Z" fill="black"/>
<path opacity="0.15" d="M45.028 19.1879C45.5865 18.868 46.1093 18.484 46.5866 18.043C45.6331 19.2047 44.9497 20.5818 44.5898 22.0662C44.2299 23.5506 44.2033 25.102 44.5122 26.599C44.8211 28.0959 45.457 29.4977 46.3701 30.6944C47.2832 31.8912 48.4487 32.8504 49.7753 33.4969L49.8184 33.5177L49.8614 33.4974C50.578 33.1586 51.3335 32.9185 52.109 32.7831C51.6249 33.0412 51.1737 33.3617 50.7659 33.7374L50.6279 33.8622L50.801 33.922C50.9504 33.9737 51.0998 34.0213 51.2451 34.0634C52.0984 34.3122 52.9807 34.4357 53.8666 34.4305C57.8915 34.4035 61.9476 35.3773 65.9223 37.3248C66.6039 37.6583 67.3109 37.9318 68.0359 38.1424C71.1956 39.0631 74.5688 38.7319 77.5097 37.2123C75.8517 39.2191 73.6836 40.6924 71.2574 41.4613C68.8312 42.2301 66.2463 42.2629 63.803 41.5557C63.078 41.3451 62.371 41.0717 61.6893 40.7382C57.7147 38.7907 53.6585 37.8169 49.6336 37.8439C48.7478 37.8491 47.8655 37.7255 47.0121 37.4768C46.8669 37.4346 46.7175 37.387 46.5681 37.3353L46.395 37.2755L46.533 37.1507C46.9408 36.7751 47.392 36.4545 47.8761 36.1965C47.1005 36.3318 46.345 36.5719 45.6285 36.9107L45.5855 36.931L45.5424 36.9102C43.9493 36.1342 42.5936 34.9102 41.6266 33.3748C40.6596 31.8394 40.1192 30.053 40.0659 28.215C40.0125 26.3769 40.4483 24.5595 41.3245 22.9655C42.2007 21.3715 43.4829 20.0637 45.028 19.1879L45.028 19.1879Z" fill="black"/>
</g>
</g>
<defs>
<clipPath id="clip0_314:1925">
<rect width="80.4103" height="71" fill="white" transform="translate(0.358887)"/>
</clipPath>
</defs>
</svg>
