<svg width="150" height="94" viewBox="0 0 150 94" fill="none" xmlns="http://www.w3.org/2000/svg">
<path d="M20.4382 18.1331C16.9724 18.1331 14.9876 15.4253 14.9657 15.3946L15.4871 15.0178C16.2898 16.0679 17.4032 16.8381 18.6689 17.2188C19.9346 17.5996 21.2882 17.5715 22.537 17.1385L22.7385 17.7519C21.9965 17.9989 21.2203 18.1276 20.4382 18.1331Z" fill="#F08A5D"/>
<path d="M20.4379 18.155C19.3769 18.142 18.331 17.9015 17.3709 17.4495C16.3997 16.9842 15.5438 16.3093 14.8646 15.4735C14.8405 15.4489 14.8271 15.4159 14.8271 15.3815C14.8271 15.3471 14.8405 15.314 14.8646 15.2895L15.3817 14.9083C15.3963 14.897 15.413 14.8887 15.4309 14.8839C15.4488 14.8791 15.4674 14.8779 15.4857 14.8804C15.504 14.8828 15.5217 14.8889 15.5377 14.8982C15.5537 14.9075 15.5676 14.9198 15.5788 14.9345C15.9798 15.431 16.4523 15.8652 16.9809 16.2227C17.5091 16.579 18.0902 16.8497 18.7029 17.0245C19.3082 17.2037 19.9385 17.2836 20.5694 17.2611C21.2069 17.2362 21.8399 17.1437 22.4578 16.9851H22.4841C22.5028 16.9806 22.5223 16.9798 22.5413 16.9829C22.5603 16.986 22.5785 16.9928 22.5948 17.003C22.6111 17.0132 22.6252 17.0266 22.6363 17.0423C22.6474 17.058 22.6553 17.0758 22.6594 17.0946L22.8259 17.7168C22.8298 17.7315 22.8308 17.7468 22.8287 17.7619C22.8266 17.7769 22.8216 17.7914 22.8138 17.8045C22.806 17.8175 22.7958 17.8289 22.7835 17.8379C22.7713 17.847 22.7574 17.8535 22.7426 17.857C21.9909 18.0575 21.216 18.1577 20.4379 18.155ZM20.4379 18.1112C20.8272 18.1055 21.2148 18.06 21.5947 17.9753C21.971 17.89 22.3401 17.7758 22.6988 17.6336L22.62 17.7869L22.3833 17.191L22.5893 17.2918C21.959 17.5359 21.2929 17.675 20.6176 17.7037C19.9361 17.7411 19.2536 17.6489 18.6065 17.432C17.9626 17.2208 17.3562 16.9087 16.81 16.5075C16.262 16.115 15.776 15.6424 15.3685 15.1054L15.5744 15.1361L15.0443 15.5041L15.0749 15.3114C15.3921 15.7235 15.7519 16.1009 16.1484 16.4374C16.5456 16.7722 16.9757 17.0658 17.4322 17.3137C17.8857 17.5744 18.372 17.7733 18.8781 17.9052C19.3869 18.0415 19.9113 18.1107 20.4379 18.1112Z" fill="#F08A5D"/>
<path d="M22.6027 14.9829C16.6044 14.2906 16.2057 8.71726 16.2057 8.6603L16.8498 8.62524C16.8498 8.83118 17.2091 13.7166 22.6641 14.3475L22.6027 14.9829Z" fill="#F08A5D"/>
<path d="M22.6155 15.0004C22.2168 14.9346 21.7918 14.8996 21.3931 14.7988C20.9945 14.7049 20.6046 14.5774 20.2276 14.4176C19.4593 14.1111 18.7594 13.6554 18.1683 13.0769C17.5732 12.4978 17.0891 11.8147 16.7399 11.0613C16.3805 10.3069 16.1467 9.49882 16.0476 8.66903C16.0427 8.62667 16.0546 8.58404 16.0808 8.55042C16.1071 8.51679 16.1455 8.49486 16.1878 8.48939H16.2054L16.8451 8.44119C16.8918 8.43864 16.9377 8.45398 16.9735 8.48409C17.0094 8.51421 17.0324 8.55684 17.0379 8.60331C17.1218 9.31646 17.3232 10.0108 17.6337 10.6582C17.9329 11.3088 18.3437 11.902 18.8474 12.4109C19.3475 12.9273 19.9426 13.3424 20.6 13.6333C20.926 13.7911 21.2646 13.9215 21.6122 14.0233C21.9583 14.1284 22.322 14.1898 22.6769 14.2818C22.6913 14.2849 22.7039 14.2936 22.712 14.3058C22.7202 14.3181 22.7233 14.333 22.7207 14.3475C22.7032 14.5797 22.655 14.7988 22.6155 15.0004ZM22.5893 14.9697L22.6112 14.3387L22.6681 14.4088C22.3001 14.3606 21.9233 14.3431 21.5552 14.2599C21.1847 14.184 20.8212 14.077 20.4686 13.94C19.7505 13.6671 19.0946 13.2527 18.5398 12.7213C17.9851 12.1899 17.5429 11.5524 17.2394 10.8467C16.9296 10.1458 16.74 9.39779 16.6786 8.63398L16.8714 8.80924L16.2273 8.83553L16.3894 8.6515C16.4701 9.44364 16.6741 10.2183 16.994 10.9474C17.311 11.6791 17.7562 12.3483 18.3085 12.9235C18.8641 13.507 19.5297 13.9746 20.267 14.2993C20.6332 14.4691 21.0128 14.6083 21.4019 14.7156C21.8006 14.8251 22.1862 14.8777 22.5893 14.9697Z" fill="#F08A5D"/>
<path d="M49.3999 18.3875L49.1239 17.8091C50.5133 17.1572 51.7781 16.2675 52.8613 15.1802C54.4255 13.5853 55.1003 12.0386 55.9547 10.0757C56.3359 9.19937 56.7653 8.21791 57.3217 7.12691C58.4314 4.95755 59.7522 2.90289 61.2651 0.992756C57.0063 0.339907 56.1781 3.41574 56.1431 3.55157L56.0555 3.9021L55.7181 3.77503C52.3312 2.50877 50.6311 5.72482 50.5566 5.86064L50.469 6.04029H50.2675C48.1994 6.014 46.7622 6.47844 45.9867 7.38104C45.7559 7.66706 45.5863 7.9974 45.4883 8.35162C45.3903 8.70584 45.3661 9.0764 45.4171 9.44036L45.4916 9.84346L45.0797 9.82155C43.3271 9.72516 42.0126 10.102 41.0969 10.9432C40.3765 11.645 39.9385 12.5866 39.8657 13.5897H39.2216C39.2926 12.4089 39.8057 11.2983 40.6587 10.4788C41.6358 9.5718 43.0248 9.13365 44.7511 9.16432C44.7231 8.36829 44.9864 7.58938 45.4916 6.97355C46.3679 5.92637 47.9102 5.39182 50.0922 5.39182C50.5303 4.67325 52.3925 2.05309 55.6392 3.0696C56.0248 2.11881 57.5058 -0.479441 61.9223 0.440682L62.4394 0.55022L62.1064 0.957703C60.4806 2.94615 59.0692 5.10066 57.8957 7.38542C57.348 8.46327 56.923 9.44036 56.5462 10.3035C55.6699 12.3234 54.9689 13.9227 53.3214 15.6008C52.1862 16.7506 50.8591 17.6936 49.3999 18.3875Z" fill="#F08A5D"/>
<path d="M49.391 18.4091L49.1019 17.8176V17.7869C50.6966 17.0307 52.1204 15.9573 53.2862 14.6322C54.4605 13.3177 55.1878 11.6834 55.8801 10.0666C56.5751 8.4438 57.3516 6.85712 58.2067 5.31266C59.0968 3.78569 60.0908 2.32172 61.1818 0.931125L61.2431 1.08886C60.9714 1.06257 60.6998 1.02314 60.4281 1.00999C60.1562 0.99897 59.8838 1.00776 59.6132 1.03628C59.071 1.07898 58.5425 1.22786 58.0577 1.47443C57.5749 1.71647 57.1527 2.06386 56.8221 2.49095C56.4876 2.91656 56.2619 3.41741 56.1649 3.95C56.1576 3.97824 56.1402 4.0028 56.1159 4.01898C56.0917 4.03515 56.0623 4.04179 56.0334 4.03763C55.528 3.83056 54.9952 3.69774 54.4517 3.6433C53.9144 3.60526 53.3756 3.6938 52.8787 3.90181C52.3851 4.11648 51.9384 4.42614 51.5643 4.81317C51.1777 5.1955 50.8579 5.63978 50.6179 6.12763C50.6076 6.15025 50.5909 6.16936 50.5699 6.1826C50.5489 6.19584 50.5244 6.20262 50.4996 6.20211C49.8873 6.18505 49.2747 6.21876 48.6681 6.30289C48.061 6.36522 47.4694 6.53276 46.9199 6.798C46.3935 7.07053 45.9772 7.5162 45.7412 8.05988C45.6296 8.3319 45.5645 8.62071 45.5484 8.91429C45.5353 9.06004 45.5353 9.20668 45.5484 9.35244L45.6317 9.79059C45.6361 9.80992 45.6366 9.82996 45.6329 9.84945C45.6293 9.86895 45.6217 9.8875 45.6106 9.90394C45.5995 9.92037 45.5852 9.93435 45.5684 9.94501C45.5517 9.95566 45.533 9.96275 45.5134 9.96585H45.4739C44.848 9.9131 44.2185 9.9219 43.5943 9.99214C42.979 10.0683 42.3841 10.2616 41.8416 10.5617C41.3098 10.8679 40.8684 11.3093 40.5622 11.8411C40.2557 12.3687 40.0729 12.959 40.0277 13.5675C40.0254 13.6113 40.0065 13.6525 39.9746 13.6827C39.9428 13.7129 39.9007 13.7297 39.8568 13.7296H39.2127C39.1905 13.7296 39.1685 13.7252 39.148 13.7165C39.1275 13.7079 39.1089 13.6952 39.0934 13.6793C39.0779 13.6634 39.0657 13.6445 39.0576 13.6238C39.0495 13.6031 39.0456 13.5809 39.0462 13.5587C39.0849 12.8714 39.267 12.1998 39.5808 11.587C39.892 10.9697 40.3419 10.4328 40.8952 10.0184C41.4471 9.60617 42.0757 9.30825 42.7442 9.14213C43.4043 8.98569 44.0815 8.91354 44.7598 8.92743L44.5582 9.13336C44.5343 8.4771 44.6952 7.82732 45.0226 7.25807C45.3608 6.69614 45.8415 6.23359 46.416 5.91731C47.5597 5.35764 48.8241 5.08971 50.0965 5.1374L49.9124 5.24256C50.2057 4.75785 50.5639 4.31558 50.9772 3.92809C51.386 3.53452 51.8586 3.21304 52.3749 2.9773C52.8942 2.73787 53.4554 2.60242 54.0267 2.57858C54.5949 2.56523 55.1616 2.64365 55.7048 2.8108L55.4376 2.93787C55.7051 2.29052 56.112 1.71007 56.6293 1.23783C57.1484 0.769234 57.7672 0.424652 58.4389 0.23008C59.1041 0.0439817 59.7956 -0.0300564 60.4851 0.0110027C61.1588 0.0598295 61.8271 0.165361 62.4831 0.326474C62.5084 0.332163 62.5324 0.342806 62.5536 0.357793C62.5748 0.37278 62.5929 0.391815 62.6067 0.413802C62.6206 0.43579 62.6299 0.460297 62.6343 0.485914C62.6386 0.511532 62.6379 0.537753 62.632 0.563074C62.6262 0.593718 62.6126 0.622366 62.5926 0.646324C61.3866 2.07411 60.2868 3.58833 59.3021 5.17684C58.8157 5.96989 58.3469 6.78048 57.935 7.62173L56.7433 10.1586C56.3533 11.0087 55.9852 11.8762 55.534 12.7087C55.0934 13.5463 54.5551 14.3288 53.9303 15.0397C52.671 16.4695 51.1242 17.6176 49.391 18.4091ZM49.391 18.3653C51.0657 17.5387 52.5561 16.3822 53.7726 14.9652C54.3691 14.2507 54.8863 13.4736 55.3149 12.6474C55.753 11.8236 56.1036 10.9561 56.4804 10.0973L57.6502 7.52972C58.0577 6.6797 58.5265 5.85597 58.9997 5.04977C59.9737 3.43666 61.0632 1.89617 62.2596 0.440391L62.3735 0.760245C61.7369 0.612172 61.0892 0.516915 60.4369 0.475444C59.7969 0.448972 59.1568 0.522894 58.5397 0.694521C57.931 0.871634 57.3702 1.18388 56.8991 1.60798C56.428 2.03207 56.0587 2.55707 55.8188 3.1438C55.7991 3.19346 55.762 3.23422 55.7144 3.25842C55.6668 3.28263 55.612 3.28861 55.5602 3.27525C55.0635 3.12369 54.546 3.05124 54.0267 3.06055C53.5119 3.08523 53.0064 3.20714 52.537 3.41984C51.5942 3.88191 50.8046 4.60604 50.263 5.50545C50.2428 5.53632 50.2156 5.56196 50.1836 5.58025C50.1516 5.59853 50.1158 5.60894 50.0789 5.61061C48.8804 5.56281 47.6881 5.80637 46.6044 6.32042C46.0916 6.59492 45.6619 7.00194 45.36 7.49905C45.0627 7.9996 44.911 8.57318 44.9219 9.15527C44.9231 9.208 44.9035 9.25908 44.8675 9.29758C44.8315 9.33608 44.7818 9.35892 44.7291 9.3612C43.4439 9.27349 42.1661 9.61568 41.0968 10.3339C40.5906 10.7158 40.1772 11.2071 39.8875 11.771C39.5946 12.3341 39.4216 12.9517 39.3792 13.585L39.2083 13.4097H39.8524L39.6772 13.5806C39.7264 12.9113 39.9288 12.2622 40.2687 11.6834C40.6087 11.106 41.0935 10.6272 41.6752 10.2945C42.2542 9.97541 42.8895 9.77157 43.5461 9.6942C44.1915 9.63075 44.8416 9.63075 45.4871 9.6942L45.3294 9.87384C45.1597 9.24084 45.2028 8.56959 45.452 7.96349C45.7169 7.36058 46.181 6.86708 46.7665 6.56578C47.3327 6.27174 47.9471 6.08178 48.5805 6.00495C49.2018 5.92043 49.8291 5.88819 50.4557 5.90855L50.3331 5.98304C50.5919 5.47265 50.9323 5.00794 51.3408 4.60723C51.7431 4.19844 52.2227 3.87374 52.7517 3.65206C53.2845 3.42915 53.8627 3.33604 54.4386 3.3804C55.0038 3.43752 55.5574 3.57778 56.0816 3.79665L55.9283 3.8799C56.0376 3.31759 56.2811 2.79 56.6381 2.34198C56.9867 1.88778 57.4369 1.52162 57.9526 1.27288C58.4629 1.02403 59.0162 0.875293 59.5825 0.83473C59.8641 0.817221 60.1465 0.817221 60.4281 0.83473C60.7085 0.83473 60.9846 0.891691 61.265 0.917981C61.2898 0.92127 61.3124 0.93408 61.3279 0.953706C61.3435 0.973331 61.3507 0.99823 61.3483 1.02314C61.3539 1.0387 61.3539 1.05577 61.3483 1.07133C60.2509 2.44728 59.2509 3.89817 58.3557 5.41343C57.4912 6.94665 56.7059 8.52315 56.0028 10.1367C55.3017 11.7448 54.5569 13.3878 53.3739 14.7067C52.1938 16.0309 50.7567 17.1012 49.1501 17.8526V17.8176L49.391 18.3653Z" fill="#F08A5D"/>
<path d="M53.7948 20.569C52.3927 18.7638 50.7847 17.8174 49.0189 17.7561C46.39 17.6684 44.2299 19.5525 43.4587 20.3149C42.7051 19.237 39.9535 16.24 32.5356 15.8501C24.1187 15.4119 23.1503 8.87906 23.1109 8.60303L22.4756 8.68628C22.4756 8.76076 23.5403 16.021 32.5049 16.4898C40.9788 16.9279 43.0995 20.9414 43.117 20.9809L43.3317 21.419L43.6472 21.0597C43.6734 21.0335 46.114 18.3081 49.0014 18.4089C50.5875 18.4615 52.0685 19.3509 53.3391 21.0378L53.3961 21.1123L55.9812 22.0763L53.0543 24.5869V24.7183C53.0543 24.8322 52.7783 27.505 49.2555 28.2498L49.1241 28.2761L49.054 28.3857C48.8568 28.6749 44.2343 35.3173 35.3135 30.5326C35.7516 30.1952 37.0661 28.929 38.5339 25.6866L37.9468 25.4237C36.3212 29.0473 34.8359 30.0945 34.8227 30.1032L35.0024 30.3705L34.8184 30.2653L34.6519 30.3924C34.516 30.4932 21.2093 40.3122 1.396 31.4922C2.37746 30.7386 5.12906 29.056 8.19176 30.9971L8.68687 31.3125V30.7824C8.83146 30.4362 10.4702 26.9529 16.1355 28.5653H16.2231C16.4641 28.5653 16.5298 28.3638 16.578 28.2148C17.4105 25.6779 19.4523 24.6745 22.4887 25.3142H22.5544C22.8305 25.3142 22.8787 25.0382 22.8962 24.9462C22.9415 24.609 23.0564 24.2849 23.2337 23.9945C23.4109 23.7041 23.6467 23.4537 23.9259 23.2593C24.9073 22.5758 26.4891 22.4355 28.6316 22.8211L28.7499 22.1902C26.4365 21.752 24.6882 21.9273 23.5578 22.7116C22.912 23.1557 22.463 23.8324 22.3047 24.6C19.1807 24.0392 16.9636 25.1784 16.0216 27.8292C12.7179 26.9529 10.7111 27.7679 9.59823 28.6091C9.02227 29.0421 8.54568 29.5934 8.20052 30.2259C4.15198 27.9388 0.594175 31.2687 0.559122 31.3038L0.217361 31.6324L0.655515 31.8296C7.0657 34.7608 12.823 35.7729 17.7085 35.7729C27.4618 35.7729 33.7537 31.7507 34.8578 30.9883C43.7479 35.8562 48.8174 29.722 49.5009 28.7975C52.9229 28.0132 53.5582 25.4807 53.6677 24.8542L57.2299 21.7871L53.7948 20.569Z" fill="#F08A5D"/>
<path d="M53.7815 20.5865C53.1801 19.7855 52.4377 19.101 51.5907 18.5666C50.7378 18.0383 49.75 17.7689 48.7471 17.7911C47.747 17.8245 46.7686 18.0916 45.8903 18.571C45.0081 19.0339 44.1991 19.6245 43.4892 20.3236C43.482 20.3301 43.4726 20.3336 43.4629 20.3336C43.4532 20.3336 43.4439 20.3301 43.4366 20.3236C42.8122 19.4892 42.0345 18.7814 41.1451 18.238C40.2637 17.6854 39.3174 17.2439 38.3278 16.9235C37.3369 16.5975 36.3215 16.3513 35.2914 16.1874C34.7787 16.1042 34.2617 16.0428 33.7447 15.9859C33.2277 15.9289 32.7063 15.9158 32.1805 15.8588L31.4006 15.7799C31.2691 15.7799 31.1377 15.7799 31.0106 15.7405L30.625 15.6616L29.8539 15.4995C29.599 15.4363 29.3475 15.3602 29.1003 15.2717C28.0944 14.9604 27.15 14.4772 26.3092 13.8433C24.5985 12.5652 23.4353 10.6865 23.0537 8.58545L23.1282 8.64241L22.4929 8.72565L22.5499 8.65117C22.9689 10.7994 24.1364 12.7293 25.8448 14.0974C26.2678 14.4349 26.716 14.7396 27.1855 15.0088L27.9172 15.3593L28.2853 15.5302L28.6709 15.6572L29.442 15.9201C29.7005 15.9946 29.9678 16.0341 30.2307 16.0954C30.4936 16.1567 30.7609 16.2225 31.0281 16.2531L31.8387 16.3364C32.9122 16.4635 34.0295 16.4897 35.0942 16.6781C35.6375 16.7526 36.1677 16.8841 36.7066 16.9936C37.2455 17.1032 37.7669 17.274 38.2796 17.4712C39.3202 17.825 40.3078 18.3188 41.2152 18.939C41.6699 19.2515 42.0926 19.6081 42.4771 20.0037C42.6719 20.2022 42.852 20.4145 43.016 20.6391C43.1727 20.8677 43.309 21.1096 43.4235 21.362L43.257 21.3401C43.91 20.5707 44.6769 19.9058 45.531 19.3684C46.3791 18.808 47.3444 18.4498 48.3527 18.3212C49.377 18.2102 50.4092 18.4413 51.2884 18.9785C52.1439 19.5181 52.8877 20.2172 53.4791 21.0378L53.4266 21.0027L56.016 21.9623C56.0306 21.9671 56.044 21.9749 56.0554 21.9852C56.0668 21.9955 56.0759 22.0081 56.0821 22.0221C56.0883 22.0362 56.0914 22.0514 56.0914 22.0667C56.0913 22.0821 56.0881 22.0972 56.0818 22.1113C56.0758 22.1297 56.0652 22.1462 56.0511 22.1594L53.1242 24.6745L53.1637 24.5912C53.1187 25.0913 52.9695 25.5764 52.7255 26.0152C52.4885 26.4551 52.172 26.8472 51.7922 27.1719C51.4141 27.4951 50.9904 27.7609 50.5347 27.9606C50.3113 28.057 50.0966 28.1359 49.8425 28.2147C49.5883 28.2936 49.3649 28.3462 49.1283 28.3944L49.2071 28.3418C48.4481 29.401 47.4823 30.2953 46.3679 30.9707C45.2588 31.6672 44.0123 32.1156 42.7137 32.2852C42.3923 32.3384 42.0668 32.3634 41.741 32.3597H41.2546C41.0921 32.3582 40.9297 32.3479 40.7683 32.329C40.4441 32.2983 40.1198 32.2764 39.7956 32.237L38.8448 32.031C38.6871 31.996 38.5249 31.9653 38.3672 31.9215L37.9072 31.7638L36.987 31.4483C36.3911 31.1986 35.8128 30.9006 35.2344 30.6333C35.2027 30.6173 35.1784 30.5898 35.1662 30.5565C35.154 30.5231 35.1549 30.4864 35.1687 30.4537C35.1778 30.4359 35.1896 30.4197 35.2037 30.4055C35.5674 30.0928 35.8978 29.7433 36.1896 29.3627C36.4902 28.9851 36.7682 28.5901 37.0221 28.1797C37.5341 27.3535 37.988 26.4926 38.3804 25.6033L38.4548 25.7961L37.8677 25.5332L38.0605 25.4587C37.8633 25.8969 37.6574 26.3351 37.4383 26.7469C37.2193 27.1588 37.0002 27.5838 36.7241 27.9825C36.4742 28.3907 36.1991 28.7828 35.9004 29.1568C35.604 29.5447 35.2628 29.8962 34.8839 30.204L34.9277 29.998L35.1073 30.2609C35.129 30.2947 35.1366 30.3357 35.1284 30.375C35.1202 30.4144 35.0969 30.4489 35.0635 30.4712C35.0399 30.486 35.0126 30.4938 34.9847 30.4938C34.9568 30.4938 34.9295 30.486 34.9058 30.4712L34.7218 30.3661H34.8883C33.6907 31.2141 32.4089 31.9365 31.0632 32.5218C29.7286 33.117 28.3538 33.6178 26.9489 34.0203C24.1348 34.8258 21.2266 35.256 18.2998 35.2997C16.8366 35.3298 15.3731 35.2654 13.9182 35.1069C13.1909 35.0499 12.4723 34.9185 11.7275 34.8221C10.9826 34.7257 10.2859 34.5767 9.58051 34.3839C6.74036 33.749 3.96957 32.8362 1.30817 31.6586C1.27784 31.6466 1.25134 31.6266 1.23154 31.6006C1.21173 31.5747 1.19936 31.5439 1.19576 31.5114C1.19215 31.479 1.19745 31.4462 1.21108 31.4165C1.22471 31.3869 1.24616 31.3615 1.27312 31.3432C2.33953 30.4965 3.63873 29.9952 4.99743 29.906C5.67817 29.8761 6.35823 29.9788 6.99979 30.2083C7.62768 30.4477 8.22485 30.761 8.7787 31.1416L8.48075 31.3081V30.7779C8.47622 30.7533 8.47622 30.7281 8.48075 30.7034C8.63513 30.3625 8.83724 30.0454 9.08102 29.7614C9.19851 29.6183 9.32434 29.4822 9.45783 29.3539C9.59775 29.2282 9.74399 29.1098 9.89599 28.999C10.4927 28.5637 11.1729 28.2564 11.894 28.0964C12.6146 27.9513 13.3524 27.91 14.0847 27.9737C14.4484 28 14.8033 28.0701 15.1626 28.1183L16.2142 28.3681H16.1835H16.2711H16.2448C16.2886 28.3681 16.3018 28.3681 16.3193 28.3418C16.3525 28.3006 16.3764 28.2528 16.3894 28.2016L16.5647 27.7284C16.626 27.5707 16.7049 27.4217 16.775 27.2639C16.8451 27.1062 16.9459 26.966 17.0379 26.8258C17.4196 26.2433 17.9427 25.7669 18.5583 25.4412C19.1735 25.1301 19.8496 24.9581 20.5387 24.9373C21.2154 24.9154 21.8922 24.9758 22.5542 25.117H22.62C22.6857 25.117 22.6945 25.117 22.7339 24.9943C22.7601 24.8466 22.7937 24.7004 22.8347 24.5561C22.9234 24.2387 23.0721 23.9413 23.2728 23.6798C23.6991 23.1607 24.2841 22.7959 24.9378 22.6414C25.5605 22.4859 26.2027 22.4224 26.8438 22.453C27.4734 22.4832 28.1 22.5579 28.7191 22.6765L28.4649 22.8517L28.5832 22.2164L28.7585 22.4705C28.141 22.352 27.5157 22.2787 26.8876 22.2515C26.2688 22.2171 25.6482 22.2672 25.043 22.4004C24.4491 22.5263 23.8963 22.7989 23.4349 23.1935C22.9902 23.5973 22.6837 24.1307 22.5586 24.7183C22.547 24.7722 22.515 24.8197 22.4693 24.8507C22.4236 24.8817 22.3677 24.8939 22.3133 24.8848C21.0788 24.615 19.7913 24.7297 18.624 25.2134C18.0639 25.478 17.5688 25.8624 17.1737 26.3394C16.781 26.8275 16.477 27.3806 16.2755 27.9737C16.2558 28.0246 16.2182 28.0664 16.1698 28.0914C16.1213 28.1164 16.0655 28.1229 16.0126 28.1096C14.6252 27.7058 13.1602 27.6471 11.745 27.9387C11.0535 28.1007 10.4012 28.3986 9.82588 28.815C9.25535 29.2341 8.78288 29.7723 8.44132 30.3924C8.41429 30.4432 8.36834 30.4813 8.3134 30.4986C8.25847 30.5158 8.19896 30.5107 8.14775 30.4844C7.52113 30.1279 6.83788 29.8819 6.12786 29.757C5.43512 29.6496 4.72871 29.6674 4.04225 29.8096C2.65269 30.1165 1.37917 30.8125 0.370526 31.8164L0.313566 31.4746C3.02183 32.7606 5.8498 33.7776 8.75679 34.511C11.671 35.2376 14.6611 35.6156 17.6645 35.6371C20.6668 35.6421 23.657 35.2547 26.559 34.4847C29.4681 33.7396 32.2398 32.5356 34.77 30.9181C34.7902 30.9074 34.8128 30.9018 34.8357 30.9018C34.8586 30.9018 34.8812 30.9074 34.9014 30.9181C35.5104 31.2029 36.102 31.5316 36.7198 31.7945C37.3402 32.049 37.9787 32.257 38.6301 32.4166C39.9255 32.7675 41.2768 32.8627 42.6085 32.697C43.9411 32.536 45.2265 32.1035 46.3854 31.4264C47.5489 30.7545 48.5759 29.8702 49.4131 28.8194C49.425 28.8038 49.4421 28.7929 49.4613 28.7887C49.95 28.6762 50.4258 28.5132 50.8809 28.3024C51.3356 28.0912 51.7565 27.8136 52.1296 27.4786C52.8818 26.8057 53.394 25.9058 53.5887 24.9154C53.5865 24.9039 53.5865 24.892 53.5887 24.8804L57.1684 21.844V21.9053L53.7815 20.5865ZM53.8078 20.5514L57.2429 21.8133C57.2477 21.8147 57.2521 21.8172 57.2559 21.8205C57.2597 21.8238 57.2627 21.8278 57.2648 21.8324C57.2669 21.837 57.268 21.8419 57.268 21.847C57.268 21.852 57.2669 21.8569 57.2648 21.8615L53.7114 24.9286V24.8935C53.5139 25.9065 52.9944 26.8286 52.2304 27.5225C51.8513 27.8763 51.4216 28.1717 50.9554 28.3988C50.4918 28.6214 50.0056 28.7933 49.5051 28.9114L49.5533 28.8763C48.7112 29.9575 47.6702 30.8677 46.4862 31.5578C45.3062 32.2522 43.9974 32.6994 42.6392 32.8723C41.279 33.0455 39.8982 32.9533 38.5731 32.6007C37.9102 32.4417 37.2599 32.2338 36.6277 31.9785C35.9968 31.7287 35.3965 31.4001 34.7787 31.1022H34.9146C32.3648 32.7474 29.5695 33.9764 26.6335 34.7432C23.7081 35.536 20.691 35.9396 17.6601 35.9438C14.6291 35.9364 11.6096 35.5702 8.66477 34.8528C5.72477 34.1249 2.86312 33.1108 0.120779 31.8251C0.0958701 31.8138 0.0734644 31.7976 0.0548713 31.7776C0.0362783 31.7575 0.0218709 31.7339 0.012489 31.7082C0.00310716 31.6825 -0.00106112 31.6552 0.000229148 31.6279C0.00151942 31.6006 0.00824226 31.5738 0.0200038 31.5491C0.0290812 31.5286 0.0408702 31.5095 0.0550552 31.4921C0.580769 30.9696 1.18008 30.5267 1.83396 30.1777C2.49216 29.8103 3.20077 29.5416 3.9371 29.3802C4.67699 29.2277 5.43815 29.2085 6.18482 29.3233C6.92885 29.4494 7.64598 29.7013 8.30549 30.0681L8.00316 30.1558C8.37252 29.4764 8.88897 28.8881 9.51479 28.4338C10.1356 27.9814 10.84 27.6568 11.5873 27.4786C13.0732 27.1698 14.6123 27.23 16.0696 27.6539L15.8111 27.7897C16.0327 27.1542 16.3617 26.5614 16.7838 26.0371C17.2215 25.5049 17.7723 25.0768 18.3962 24.784C19.0131 24.5016 19.6773 24.3366 20.3547 24.2976C21.0218 24.2572 21.6913 24.2984 22.3483 24.4203L22.0942 24.5868C22.2373 23.9111 22.59 23.2978 23.1019 22.8342C23.6173 22.3953 24.2352 22.0938 24.8984 21.9579C25.5422 21.8147 26.2027 21.7602 26.8613 21.7958C27.5102 21.8231 28.1561 21.8992 28.7936 22.0236C28.8504 22.0343 28.9007 22.067 28.9335 22.1146C28.9664 22.1622 28.9791 22.2208 28.9688 22.2778L28.8505 22.9087C28.8388 22.965 28.8059 23.0146 28.7586 23.0473C28.7113 23.0799 28.6532 23.093 28.5964 23.084C27.4176 22.8086 26.193 22.7937 25.0079 23.0401C24.4467 23.1692 23.9425 23.4767 23.5708 23.9164C23.396 24.1406 23.2666 24.3965 23.1896 24.6701C23.1458 24.8147 23.1326 24.9242 23.0888 25.1082C23.0624 25.2234 23.003 25.3285 22.9179 25.4105C22.8196 25.4995 22.6912 25.548 22.5586 25.5464H22.5367H22.4666C21.8421 25.412 21.2036 25.3531 20.565 25.3711C19.9372 25.3842 19.3197 25.5337 18.7555 25.8093C18.2046 26.1036 17.735 26.5296 17.3884 27.0492C17.3052 27.1851 17.2263 27.3209 17.1474 27.4567C17.0686 27.5926 17.0116 27.7415 16.9503 27.8949L16.7838 28.333C16.7512 28.4422 16.6942 28.5426 16.6173 28.6266C16.5691 28.6749 16.5116 28.7129 16.4484 28.7385C16.3852 28.7641 16.3174 28.7767 16.2492 28.7756H16.2054H16.1178H16.0915L15.075 28.5346C14.7332 28.4864 14.3871 28.4163 14.0453 28.3944C13.3588 28.3326 12.667 28.368 11.9904 28.4995C11.3231 28.6463 10.6935 28.9297 10.1414 29.332C10.0011 29.4284 9.88284 29.5467 9.75139 29.6563C9.62929 29.774 9.51374 29.8983 9.40526 30.0287C9.18423 30.2812 9.0012 30.5646 8.86194 30.8699V30.7955V31.3256C8.8608 31.3772 8.83952 31.4262 8.80267 31.4622C8.76581 31.4983 8.71632 31.5184 8.66477 31.5184C8.62772 31.5171 8.59158 31.5065 8.55962 31.4877C8.03315 31.1191 7.46374 30.816 6.86396 30.5851C6.26757 30.3704 5.63512 30.2737 5.00181 30.3003C3.72391 30.3858 2.50186 30.8563 1.49658 31.6499L1.46153 31.33C4.1063 32.5151 6.86084 33.4382 9.68567 34.086C10.3867 34.2656 11.1053 34.3664 11.8151 34.5241C12.5249 34.6819 13.2479 34.752 13.9664 34.8089C15.4064 34.9703 16.8554 35.0376 18.3042 35.0105C21.2021 34.971 24.0822 34.5497 26.8701 33.7574C28.2616 33.3622 29.6233 32.8688 30.9449 32.2808C32.2694 31.7066 33.5319 30.999 34.713 30.1689C34.7373 30.1538 34.7654 30.1457 34.7941 30.1457C34.8227 30.1457 34.8508 30.1538 34.8751 30.1689L35.0592 30.2741L34.8576 30.4888L34.678 30.2215C34.657 30.1898 34.6489 30.1512 34.6554 30.1137C34.6619 30.0763 34.6825 30.0427 34.713 30.0199C35.0656 29.7276 35.3844 29.397 35.6638 29.0341C35.9538 28.6683 36.2229 28.2865 36.47 27.8905C36.7241 27.4962 36.952 27.0887 37.1711 26.6724C37.3901 26.2562 37.6092 25.8356 37.7888 25.4062C37.8059 25.372 37.8351 25.3454 37.8708 25.3316C37.9065 25.3178 37.946 25.3178 37.9816 25.3317L38.5688 25.599C38.6034 25.6143 38.6306 25.6427 38.6445 25.6779C38.6585 25.7132 38.658 25.7525 38.6433 25.7874C38.2411 26.6852 37.7785 27.5547 37.2587 28.39C36.999 28.8106 36.7151 29.2158 36.4087 29.6037C36.1007 29.9965 35.7543 30.3575 35.3746 30.6815V30.4493C35.953 30.7166 36.5226 31.0102 37.1272 31.2555L38.0255 31.571L38.4636 31.7243C38.617 31.7682 38.7747 31.7945 38.9281 31.8295L39.8613 32.0354C40.1724 32.0749 40.4923 32.0968 40.8077 32.1274C40.9648 32.1464 41.1228 32.1566 41.2809 32.1581H41.7541C42.0711 32.1597 42.3877 32.1348 42.7006 32.0836C43.9622 31.9272 45.1747 31.4981 46.254 30.8261C47.3404 30.1654 48.2823 29.2921 49.0231 28.2585C49.0416 28.2334 49.0677 28.215 49.0976 28.206C49.3386 28.1578 49.562 28.0921 49.7943 28.0351C50.0265 27.9781 50.2324 27.8817 50.4603 27.7897C50.8915 27.6004 51.2929 27.3495 51.652 27.0449C52.007 26.7382 52.3039 26.3702 52.5283 25.9582C52.7546 25.5531 52.8948 25.1056 52.9402 24.6438C52.9406 24.6279 52.9443 24.6123 52.9511 24.598C52.9579 24.5837 52.9676 24.5709 52.9796 24.5605L55.9109 22.0543L55.9459 22.2515L53.3608 21.2831C53.341 21.2778 53.3238 21.2653 53.3126 21.2481C52.7367 20.4485 52.0122 19.7672 51.1788 19.2413C50.3418 18.7249 49.3569 18.5014 48.379 18.606C47.4021 18.7292 46.4666 19.0755 45.6449 19.6182C44.8055 20.1405 44.053 20.791 43.4147 21.546C43.4061 21.5555 43.3956 21.563 43.3839 21.5682C43.3722 21.5733 43.3596 21.576 43.3468 21.576C43.3341 21.576 43.3214 21.5733 43.3097 21.5682C43.298 21.563 43.2875 21.5555 43.2789 21.546C43.2666 21.5375 43.2574 21.5252 43.2526 21.511C42.7634 20.5483 42.025 19.7343 41.1144 19.1537C40.2224 18.5412 39.251 18.0533 38.227 17.7034C37.7187 17.5063 37.193 17.3792 36.6716 17.2302C36.1502 17.0812 35.6112 16.9849 35.0767 16.9104C34.0032 16.722 32.921 16.6913 31.83 16.5642L31.0106 16.4766C30.739 16.4415 30.4761 16.3671 30.2044 16.3145C29.9328 16.2619 29.6655 16.2093 29.4026 16.1305L28.6227 15.8676L28.2327 15.7361L27.8647 15.5609L27.1198 15.206C26.6447 14.9304 26.1907 14.6199 25.7615 14.2771C24.0276 12.889 22.8416 10.9315 22.414 8.75195C22.4115 8.73514 22.4155 8.718 22.4253 8.70411C22.4351 8.69022 22.4499 8.68066 22.4666 8.67746L23.1019 8.59421C23.1197 8.59268 23.1375 8.59759 23.152 8.60804C23.1664 8.6185 23.1767 8.6338 23.1808 8.65117C23.557 10.7139 24.6977 12.5588 26.3749 13.817C27.2037 14.4438 28.1346 14.9226 29.1266 15.2322C29.3763 15.3067 29.6173 15.4075 29.8714 15.4601L30.6338 15.6178L31.0194 15.6967C31.1464 15.7186 31.2779 15.7274 31.405 15.7405L32.1805 15.8238C32.6975 15.8807 33.2233 15.907 33.7447 15.9508C34.2661 15.9946 34.7831 16.0735 35.3001 16.1567C36.3339 16.323 37.3524 16.5736 38.3453 16.906C39.3407 17.2258 40.2929 17.6673 41.1802 18.2205C42.0749 18.7741 42.8581 19.4904 43.4892 20.3323H43.4323C44.1484 19.6239 44.9648 19.0245 45.8553 18.5534C46.7443 18.0732 47.7328 17.8062 48.7427 17.7735C49.756 17.7541 50.7531 18.0296 51.6126 18.5666C52.4566 19.0923 53.2 19.7645 53.8078 20.5514Z" fill="#F08A5D"/>
<path d="M7.19273 44.8077C7.20478 44.4374 7.35729 44.0855 7.61931 43.8235C7.88133 43.5614 8.23323 43.4089 8.60359 43.3969H10.7549C11.0472 43.417 11.3259 43.5279 11.5522 43.714C11.7784 43.9002 11.9408 44.1524 12.0168 44.4353L12.8362 46.9591C13.8348 45.6001 15.1442 44.5 16.6551 43.7507C18.1659 43.0013 19.8341 42.6246 21.5204 42.652C24.3377 42.652 27.7553 43.3969 26.9359 45.3993L25.157 49.0359C25.093 49.2043 24.9938 49.3571 24.8661 49.4843C24.7385 49.6114 24.5852 49.71 24.4166 49.7733C24.248 49.8367 24.0678 49.8636 23.888 49.852C23.7082 49.8404 23.5329 49.7908 23.3737 49.7063C22.5735 49.3728 21.7168 49.1958 20.85 49.1849C19.521 49.1703 18.2103 49.4951 17.0418 50.1284C15.8734 50.7617 14.8858 51.6826 14.1725 52.804V71.6447C14.1725 72.9065 13.3532 73.0555 12.1658 73.0555H8.60359C8.23357 73.0424 7.88226 72.8896 7.62045 72.6278C7.35864 72.366 7.20581 72.0147 7.19273 71.6447V44.8077Z" fill="#F08A5D"/>
<path d="M44.6025 42.6519C52.3228 42.6519 58.2598 48.4442 58.2598 56.3836C58.2472 57.0547 58.1975 57.7247 58.1108 58.3903C58.0851 58.725 57.9367 59.0385 57.6942 59.2705C57.4516 59.5026 57.1319 59.6369 56.7964 59.6478H36.5887C36.7518 61.8026 37.7208 63.8168 39.3027 65.2891C40.8845 66.7613 42.963 67.5834 45.1239 67.5916C47.7967 67.5916 50.246 66.4042 51.7269 65.4402C52.6032 64.9188 53.1378 64.6253 53.7337 65.3657L55.8105 68.1874C56.3319 68.7789 56.5554 69.3749 55.6615 70.1153C53.5102 71.9731 49.6501 73.8353 44.6858 73.8353C35.7036 73.8353 29.7886 66.7854 29.7886 58.2501C29.7579 49.8507 35.6949 42.6519 44.6025 42.6519ZM51.3589 54.9946C51.1354 51.4325 48.1647 48.3917 44.5281 48.3917C42.6734 48.363 40.8737 49.0216 39.4758 50.2408C38.0779 51.46 37.1806 53.1533 36.9568 54.9946H51.3589Z" fill="#F08A5D"/>
<path d="M65.3842 22.5366C65.3973 22.167 65.5503 21.8162 65.8122 21.5551C66.0741 21.294 66.4254 21.1421 66.795 21.1301H71.0276C71.3968 21.1422 71.7476 21.2942 72.0088 21.5554C72.27 21.8166 72.422 22.1674 72.434 22.5366V71.6755C72.4221 72.0452 72.2702 72.3965 72.0091 72.6584C71.748 72.9203 71.3972 73.0733 71.0276 73.0864H66.795C66.425 73.0733 66.0737 72.9205 65.8119 72.6587C65.5501 72.3969 65.3972 72.0456 65.3842 71.6755V22.5366Z" fill="#F08A5D"/>
<path d="M81.2671 26.9926C81.2519 26.4256 81.3499 25.8613 81.5554 25.3326C81.7609 24.8039 82.0697 24.3215 82.4638 23.9135C82.8578 23.5056 83.3293 23.1803 83.8506 22.9567C84.3718 22.733 84.9324 22.6155 85.4996 22.6111C86.6512 22.6111 87.7557 23.0686 88.57 23.8829C89.3843 24.6972 89.8417 25.8016 89.8417 26.9532C89.8417 28.1048 89.3843 29.2092 88.57 30.0235C87.7557 30.8378 86.6512 31.2953 85.4996 31.2953C84.9383 31.2936 84.383 31.1806 83.8656 30.9629C83.3483 30.7453 82.8793 30.4271 82.4857 30.027C82.0921 29.6269 81.7817 29.1527 81.5725 28.6318C81.3633 28.111 81.2595 27.5538 81.2671 26.9926ZM82.0864 44.8079C82.0974 44.438 82.2489 44.0861 82.5102 43.824C82.7715 43.5619 83.123 43.4092 83.4929 43.3971H87.7254C88.0958 43.4091 88.4477 43.5616 88.7097 43.8237C88.9717 44.0857 89.1243 44.4376 89.1363 44.8079V71.6755C89.1232 72.0456 88.9704 72.3969 88.7086 72.6587C88.4468 72.9205 88.0955 73.0733 87.7254 73.0864H83.4929C83.1233 73.0733 82.7725 72.9203 82.5114 72.6584C82.2503 72.3965 82.0984 72.0452 82.0864 71.6755V44.8079Z" fill="#F08A5D"/>
<path d="M101.085 49.5577H97.5795C97.2053 49.5577 96.8464 49.4091 96.5818 49.1445C96.3172 48.8799 96.1686 48.521 96.1686 48.1469V44.8081C96.1625 44.6212 96.1948 44.435 96.2636 44.2611C96.3323 44.0872 96.436 43.9292 96.5683 43.7969C96.7005 43.6647 96.8585 43.561 97.0324 43.4923C97.2064 43.4235 97.3925 43.3912 97.5795 43.3973H101.085V34.196C101.085 24.9948 106.579 20.3898 113.704 20.3898C116.782 20.3739 119.771 21.4235 122.164 23.3605C122.402 23.5671 122.562 23.8494 122.616 24.1598C122.67 24.4702 122.616 24.7898 122.462 25.0649L120.604 28.408C120.236 29.074 119.492 29.1485 118.751 28.6271C117.787 27.9611 115.631 26.8482 113.852 26.8482C110.584 26.8482 108.284 29.223 108.284 34.196V43.3973H116.302C116.489 43.3912 116.675 43.4235 116.849 43.4923C117.023 43.561 117.181 43.6647 117.313 43.7969C117.445 43.9292 117.549 44.0872 117.618 44.2611C117.686 44.435 117.719 44.6212 117.713 44.8081V48.1469C117.713 48.3321 117.676 48.5156 117.605 48.6868C117.534 48.8579 117.43 49.0135 117.299 49.1445C117.168 49.2755 117.013 49.3794 116.842 49.4503C116.671 49.5212 116.487 49.5577 116.302 49.5577H108.284V71.6757C108.272 72.0461 108.119 72.398 107.857 72.66C107.595 72.922 107.243 73.0745 106.873 73.0866H102.491C102.121 73.0745 101.769 72.922 101.507 72.66C101.245 72.398 101.092 72.0461 101.08 71.6757L101.085 49.5577Z" fill="#F08A5D"/>
<path d="M136.343 42.6519C144.058 42.6519 150 48.4442 150 56.3836C149.987 57.0547 149.937 57.7247 149.851 58.3903C149.825 58.725 149.677 59.0385 149.434 59.2705C149.192 59.5026 148.872 59.6369 148.536 59.6478H128.324C128.488 61.8022 129.458 63.8159 131.039 65.2879C132.621 66.7599 134.699 67.5824 136.86 67.5916C139.532 67.5916 141.982 66.4042 143.467 65.4402C144.343 64.9188 144.878 64.6253 145.469 65.3657L147.546 68.1874C148.068 68.7789 148.291 69.3749 147.402 70.1153C145.246 71.9731 141.386 73.8265 136.413 73.8265C127.435 73.8265 121.493 66.7766 121.493 58.2414C121.493 49.8507 127.435 42.6519 136.343 42.6519ZM143.094 54.9946C142.871 51.4325 139.905 48.3917 136.268 48.3917C134.413 48.362 132.613 49.0203 131.215 50.2397C129.817 51.459 128.92 53.1529 128.697 54.9946H143.094Z" fill="#F08A5D"/>
<path d="M9.77305 84.1232V87.9088C9.76426 88.0082 9.77564 88.1083 9.80651 88.2032C9.83738 88.2981 9.8871 88.3857 9.9527 88.4609C10.1302 88.5889 10.3482 88.6481 10.5661 88.6274H11.4424V89.806H10.3207C9.79437 89.8442 9.27225 89.6883 8.85293 89.3679C8.66918 89.1767 8.52868 88.9483 8.44099 88.698C8.35329 88.4478 8.32044 88.1816 8.34467 87.9176V84.1319H7.53847V82.9752H8.34467V81.2839H9.77305V82.984H11.438V84.1407L9.77305 84.1232Z" fill="#F08A5D"/>
<path d="M12.7 84.5311C12.9656 84.0199 13.3681 83.5927 13.8625 83.2971C14.3569 83.0016 14.9238 82.8493 15.4998 82.8573C15.9874 82.8456 16.4704 82.9539 16.9062 83.1728C17.282 83.3611 17.6112 83.6305 17.8702 83.9614V82.9668H19.2986V89.8064H17.8658V88.7899C17.6055 89.1344 17.2698 89.4147 16.8843 89.6093C16.4084 89.8401 15.8824 89.949 15.3539 89.9261C14.8254 89.9031 14.3109 89.7491 13.8567 89.4778C13.3618 89.1646 12.9619 88.7222 12.7 88.1984C12.4047 87.6288 12.2543 86.9953 12.2618 86.3538C12.2531 85.7191 12.4038 85.0924 12.7 84.5311ZM17.5766 85.1532C17.4065 84.8292 17.1506 84.5581 16.8369 84.3696C16.5232 84.1811 16.1637 84.0823 15.7977 84.0841C15.4411 84.0811 15.0902 84.1734 14.7812 84.3514C14.4597 84.5372 14.1947 84.8067 14.0144 85.1313C13.8143 85.5071 13.7147 85.9282 13.7252 86.3538C13.716 86.7862 13.8155 87.2141 14.0144 87.5981C14.1916 87.9344 14.4585 88.215 14.7856 88.4087C15.0912 88.5924 15.4411 88.6893 15.7977 88.6891C16.1546 88.69 16.5053 88.5962 16.8142 88.4175C17.1373 88.2255 17.4011 87.948 17.5766 87.6157C17.7801 87.2363 17.8812 86.8104 17.8702 86.3801C17.8806 85.952 17.7778 85.5288 17.5722 85.1532H17.5766Z" fill="#F08A5D"/>
<path d="M23.8597 86.393L27.0144 89.8062H25.0997L22.5715 86.8662V89.8062H21.1563V80.605H22.5715V85.9417L25.0515 82.9491H27.0144L23.8597 86.393Z" fill="#F08A5D"/>
<path d="M34.2488 86.9145H29.026C29.035 87.1627 29.0931 87.4067 29.1968 87.6323C29.3006 87.8579 29.4481 88.0607 29.6307 88.229C29.9954 88.5645 30.4761 88.7452 30.9714 88.7329C31.306 88.756 31.6396 88.6771 31.9283 88.5066C32.217 88.336 32.4471 88.0819 32.5882 87.7777H34.113C33.9117 88.3987 33.5191 88.9401 32.9913 89.3244C32.4019 89.7402 31.6923 89.9511 30.9714 89.9247C30.359 89.9342 29.7547 89.7832 29.2188 89.4865C28.706 89.1951 28.2855 88.7655 28.0052 88.2465C27.7032 87.6747 27.5524 87.0352 27.567 86.3888C27.5563 85.7441 27.7069 85.107 28.0052 84.5354C28.2774 84.0146 28.6963 83.585 29.2101 83.2998C29.755 83.0019 30.368 82.8509 30.989 82.8616C31.5925 82.8566 32.1872 83.0075 32.7153 83.2998C33.2132 83.5733 33.6223 83.9839 33.8939 84.4828C34.1869 85.0201 34.3377 85.6234 34.3321 86.2354C34.3228 86.4637 34.295 86.6908 34.2488 86.9145ZM32.8205 85.771C32.8255 85.534 32.7782 85.2989 32.6821 85.0823C32.5859 84.8657 32.4431 84.673 32.264 84.5178C31.8866 84.1988 31.404 84.0317 30.9101 84.049C30.4485 84.0387 30.0004 84.2048 29.657 84.5135C29.3004 84.8406 29.0786 85.289 29.0348 85.771H32.8205Z" fill="#F08A5D"/>
<path d="M38.8708 84.5265C39.1412 84.0102 39.5531 83.5816 40.0582 83.2909C40.6479 82.9817 41.3085 82.8331 41.9738 82.86C42.639 82.887 43.2855 83.0885 43.8483 83.4443C44.4025 83.8572 44.7923 84.4534 44.948 85.1268H43.4189C43.3102 84.8067 43.1032 84.5291 42.8274 84.3337C42.5209 84.1331 42.1593 84.0335 41.7933 84.0489C41.5315 84.0376 41.2706 84.0871 41.0312 84.1935C40.7917 84.2999 40.5801 84.4604 40.4131 84.6624C40.0406 85.1545 39.8572 85.764 39.8961 86.3799C39.8597 86.9983 40.0428 87.6097 40.4131 88.1062C40.579 88.3103 40.79 88.4731 41.0295 88.5819C41.269 88.6906 41.5305 88.7422 41.7933 88.7328C42.1462 88.763 42.4988 88.673 42.794 88.4773C43.0891 88.2815 43.3094 87.9917 43.4189 87.655H44.948C44.7737 88.3175 44.3798 88.9014 43.8307 89.3112C43.2383 89.7356 42.5216 89.9514 41.7933 89.9246C41.1802 89.9401 40.5744 89.7887 40.0407 89.4864C39.5364 89.1927 39.125 88.763 38.8533 88.2465C38.5736 87.6679 38.4283 87.0335 38.4283 86.3909C38.4283 85.7482 38.5736 85.1139 38.8533 84.5353L38.8708 84.5265Z" fill="#F08A5D"/>
<path d="M47.5774 89.4776C47.0609 89.1867 46.636 88.7572 46.3505 88.2377C46.0467 87.6665 45.8958 87.0266 45.9124 86.3799C45.8999 85.7338 46.0587 85.0958 46.3724 84.5309C46.664 84.007 47.0987 83.5769 47.6256 83.2909C48.1737 83.0059 48.7823 82.8572 49.4001 82.8572C50.0178 82.8572 50.6265 83.0059 51.1746 83.2909C51.7015 83.5769 52.1361 84.007 52.4277 84.5309C52.7339 85.0979 52.885 85.7357 52.8659 86.3799C52.8782 87.0277 52.7146 87.6667 52.3927 88.2289C52.091 88.7579 51.646 89.1908 51.1089 89.4776C50.5581 89.7726 49.9416 89.9233 49.3168 89.9158C48.7088 89.9231 48.1094 89.7721 47.5774 89.4776ZM50.3553 88.4261C50.6812 88.2432 50.9498 87.9731 51.1308 87.6461C51.3238 87.2535 51.4241 86.8218 51.4241 86.3843C51.4241 85.9467 51.3238 85.5151 51.1308 85.1224C50.9608 84.7983 50.7006 84.5305 50.3816 84.3512C50.0696 84.1771 49.7179 84.0865 49.3607 84.0883C49.0061 84.086 48.6571 84.1767 48.3485 84.3512C48.0315 84.5308 47.7752 84.8008 47.6124 85.1268C47.4191 85.517 47.3258 85.9491 47.3408 86.3843C47.3009 87.0055 47.5036 87.6181 47.906 88.0931C48.0862 88.2884 48.3061 88.443 48.5509 88.5466C48.7958 88.6501 49.0599 88.7001 49.3256 88.6933C49.6861 88.694 50.0406 88.6019 50.3553 88.4261Z" fill="#F08A5D"/>
<path d="M59.1791 83.1902C59.6041 83.4143 59.9521 83.7608 60.1781 84.1848C60.4283 84.6752 60.5519 85.2205 60.5374 85.7709V89.8063H59.1441V85.9812C59.1839 85.4736 59.027 84.97 58.7059 84.5748C58.5442 84.4082 58.3487 84.2783 58.1325 84.1936C57.9164 84.109 57.6846 84.0716 57.4528 84.084C57.2197 84.072 56.9868 84.1096 56.7693 84.1942C56.5518 84.2787 56.3546 84.4085 56.1909 84.5748C55.8588 84.9652 55.6921 85.4698 55.7265 85.9812V89.8063H54.2806V82.9667H55.6958V83.751C55.9303 83.4631 56.231 83.2361 56.5721 83.0894C56.9349 82.9345 57.3256 82.8555 57.7201 82.8572C58.2265 82.846 58.7277 82.9604 59.1791 83.1902Z" fill="#F08A5D"/>
<path d="M63.9864 84.1232V87.9088C63.9776 88.0082 63.9889 88.1083 64.0198 88.2032C64.0507 88.2981 64.1004 88.3857 64.166 88.4609C64.3452 88.5889 64.5645 88.648 64.7838 88.6274H65.6601V89.806H64.5341C64.009 89.8447 63.488 89.6888 63.0706 89.3679C62.8854 89.1776 62.7436 88.9494 62.6551 88.699C62.5666 88.4486 62.5334 88.182 62.558 87.9176V84.1319H61.7737V82.9752H62.5799V81.2839H64.0083V82.984H65.6732V84.1407L63.9864 84.1232Z" fill="#F08A5D"/>
<path d="M69.1955 83.1465C69.5709 82.9455 69.9922 82.8458 70.4179 82.8573V84.3208H70.0543C69.8261 84.3067 69.5973 84.3381 69.3814 84.4134C69.1655 84.4886 68.9668 84.6061 68.7968 84.7589C68.4648 85.1706 68.3075 85.696 68.3586 86.2224V89.824H66.9434V82.9669H68.3586V83.9615C68.5587 83.6191 68.8479 83.3374 69.1955 83.1465Z" fill="#F08A5D"/>
<path d="M72.9377 89.4776C72.4199 89.187 71.9935 88.7575 71.7065 88.2377C71.4027 87.6665 71.2517 87.0266 71.2683 86.3799C71.2492 85.7357 71.4003 85.0979 71.7065 84.5309C71.9981 84.007 72.4327 83.5769 72.9596 83.2909C73.5077 83.0059 74.1164 82.8572 74.7341 82.8572C75.3519 82.8572 75.9606 83.0059 76.5087 83.2909C77.0356 83.5769 77.4702 84.007 77.7618 84.5309C78.0679 85.0979 78.2191 85.7357 78.1999 86.3799C78.2122 87.0277 78.0487 87.6667 77.7267 88.2289C77.4251 88.7579 76.98 89.1908 76.4429 89.4776C75.8923 89.7731 75.2757 89.9239 74.6509 89.9158C74.0518 89.9185 73.4619 89.7677 72.9377 89.4776ZM75.7112 88.4261C76.0372 88.2432 76.3057 87.9731 76.4868 87.6461C76.6948 87.2573 76.7975 86.8207 76.7847 86.3799C76.7979 85.9434 76.6999 85.5106 76.4999 85.1224C76.3279 84.7958 76.0645 84.5263 75.7419 84.3468C75.4315 84.1727 75.0813 84.0821 74.7254 84.084C74.3707 84.0804 74.0214 84.1711 73.7132 84.3468C73.3949 84.5261 73.1371 84.7961 72.9728 85.1224C72.7795 85.5126 72.6861 85.9447 72.7011 86.3799C72.6613 87.0012 72.8639 87.6137 73.2663 88.0887C73.4467 88.2838 73.6667 88.4383 73.9114 88.5418C74.1562 88.6453 74.4203 88.6955 74.6859 88.6889C75.0445 88.6902 75.3975 88.5997 75.7112 88.4261Z" fill="#F08A5D"/>
<path d="M81.0522 80.6223V89.8235H79.637V80.6223H81.0522Z" fill="#F08A5D"/>
<path d="M87.3569 89.4776C86.8404 89.1867 86.4155 88.7572 86.1301 88.2377C85.8263 87.6665 85.6753 87.0266 85.6919 86.3799C85.6795 85.7338 85.8382 85.0958 86.152 84.5309C86.4422 84.006 86.8772 83.5755 87.4051 83.2909C87.9532 83.0059 88.5619 82.8572 89.1796 82.8572C89.7974 82.8572 90.4061 83.0059 90.9542 83.2909C91.4811 83.5769 91.9157 84.007 92.2073 84.5309C92.5211 85.0958 92.6798 85.7338 92.6674 86.3799C92.6796 87.0277 92.5161 87.6667 92.1941 88.2289C91.8914 88.757 91.4466 89.1896 90.9104 89.4776C90.3595 89.7726 89.7431 89.9233 89.1183 89.9158C88.5029 89.9269 87.8954 89.7758 87.3569 89.4776ZM90.1304 88.4261C90.4583 88.2457 90.7275 87.975 90.906 87.6461C91.116 87.258 91.2188 86.8209 91.2039 86.3799C91.2193 85.9431 91.1211 85.5099 90.9191 85.1224C90.7483 84.7949 90.4846 84.5251 90.1611 84.3468C89.8508 84.1746 89.5017 84.0842 89.1468 84.0842C88.7919 84.0842 88.4428 84.1746 88.1325 84.3468C87.8144 84.5251 87.5578 84.7955 87.3964 85.1224C87.2015 85.5122 87.1067 85.9443 87.1203 86.3799C87.0805 87.0012 87.2831 87.6137 87.6855 88.0887C87.8666 88.2842 88.0873 88.4388 88.3328 88.5423C88.5784 88.6458 88.8432 88.6958 89.1095 88.6889C89.4668 88.6908 89.8185 88.6002 90.1304 88.4261Z" fill="#F08A5D"/>
<path d="M96.9269 84.1235H95.6606V89.8195H94.2322V84.1235H93.426V82.9667H94.2322V82.4848C94.204 82.1694 94.2456 81.8516 94.3538 81.5541C94.4621 81.2565 94.6345 80.9864 94.8588 80.7628C95.431 80.358 96.1274 80.1672 96.8261 80.2239V81.4025C96.5058 81.3696 96.1847 81.4554 95.9235 81.6435C95.8247 81.7585 95.7504 81.8924 95.7052 82.037C95.66 82.1817 95.6448 82.334 95.6606 82.4848V82.9667H96.9269V84.1235Z" fill="#F08A5D"/>
<path d="M107.565 82.9668L103.367 93.0443H101.904L103.293 89.7144L100.602 82.9887H102.175L104.099 88.2027L106.097 82.9887L107.565 82.9668Z" fill="#F08A5D"/>
<path d="M109.848 89.4777C109.331 89.1867 108.906 88.7572 108.621 88.2377C108.315 87.6674 108.164 87.0268 108.183 86.3799C108.164 85.7358 108.315 85.098 108.621 84.5309C108.914 84.0079 109.348 83.5781 109.874 83.2909C110.423 83.0059 111.032 82.8572 111.651 82.8572C112.269 82.8572 112.879 83.0059 113.427 83.2909C113.954 83.5781 114.388 84.0079 114.681 84.5309C114.994 85.0959 115.153 85.7338 115.141 86.3799C115.153 87.0277 114.989 87.6667 114.667 88.2289C114.363 88.756 113.919 89.1883 113.384 89.4777C112.831 89.7731 112.213 89.9239 111.587 89.9158C110.979 89.9231 110.38 89.7721 109.848 89.4777ZM112.621 88.4261C112.949 88.2457 113.218 87.975 113.397 87.6462C113.605 87.2573 113.708 86.8208 113.695 86.3799C113.708 85.9434 113.61 85.5107 113.41 85.1224C113.238 84.7958 112.975 84.5263 112.652 84.3469C112.342 84.1727 111.991 84.0821 111.635 84.084C111.281 84.0817 110.932 84.1723 110.623 84.3469C110.305 84.5261 110.047 84.7961 109.883 85.1224C109.692 85.5133 109.598 85.9449 109.611 86.3799C109.571 87.0012 109.774 87.6137 110.176 88.0887C110.357 88.2839 110.577 88.4383 110.821 88.5418C111.066 88.6453 111.33 88.6955 111.596 88.689C111.955 88.6902 112.307 88.5997 112.621 88.4261Z" fill="#F08A5D"/>
<path d="M122.742 82.9668V89.8064H121.327V89.0002C121.093 89.2888 120.792 89.516 120.451 89.6618C120.09 89.8251 119.698 89.9088 119.303 89.9071C118.8 89.9148 118.304 89.799 117.857 89.5698C117.43 89.3459 117.081 88.9995 116.853 88.5752C116.596 88.0871 116.469 87.5407 116.485 86.989V82.9668H117.887V86.7787C117.852 87.2895 118.017 87.7939 118.347 88.1852C118.509 88.3513 118.705 88.4809 118.921 88.5655C119.137 88.6502 119.369 88.6878 119.601 88.6759C119.834 88.6879 120.067 88.6504 120.284 88.5658C120.502 88.4812 120.699 88.3515 120.862 88.1852C121.196 87.7955 121.363 87.2903 121.327 86.7787V82.9668H122.742Z" fill="#F08A5D"/>
<path d="M126.843 83.1464C127.219 82.9463 127.64 82.8467 128.066 82.8572V84.3206H127.706C127.478 84.3065 127.249 84.338 127.034 84.4132C126.818 84.4885 126.619 84.6059 126.449 84.7588C126.115 85.1695 125.958 85.6957 126.011 86.2222V89.8238H124.604V82.9667H126.019V83.9613C126.217 83.6217 126.502 83.3405 126.843 83.1464Z" fill="#F08A5D"/>
<path d="M134.011 80.6223V89.8235H132.596V80.6223H134.011Z" fill="#F08A5D"/>
<path d="M135.948 81.8011C135.779 81.6284 135.685 81.3964 135.685 81.1548C135.685 80.9132 135.779 80.6813 135.948 80.5085C136.032 80.4239 136.133 80.3573 136.243 80.3128C136.354 80.2684 136.473 80.247 136.592 80.25C136.71 80.2482 136.827 80.2701 136.936 80.3145C137.045 80.359 137.144 80.425 137.228 80.5085C137.393 80.6829 137.486 80.9142 137.486 81.1548C137.486 81.3954 137.393 81.6268 137.228 81.8011C137.144 81.8847 137.045 81.9507 136.936 81.9951C136.827 82.0395 136.71 82.0615 136.592 82.0596C136.473 82.0626 136.354 82.0413 136.243 81.9968C136.133 81.9524 136.032 81.8858 135.948 81.8011ZM137.289 82.9666V89.8062H135.874V82.9666H137.289Z" fill="#F08A5D"/>
<path d="M142.017 84.1235H140.751V89.8195H139.327V84.1235H138.521V82.9667H139.327V82.4848C139.299 82.1694 139.34 81.8516 139.449 81.5541C139.557 81.2565 139.729 80.9864 139.954 80.7628C140.526 80.358 141.222 80.1672 141.921 80.2239V81.4025C141.601 81.3696 141.279 81.4554 141.018 81.6435C140.919 81.7585 140.845 81.8924 140.8 82.037C140.755 82.1817 140.74 82.334 140.755 82.4848V82.9667H142.022L142.017 84.1235Z" fill="#F08A5D"/>
<path d="M149.488 86.9143H144.265C144.273 87.163 144.332 87.4074 144.436 87.6332C144.541 87.8589 144.69 88.0615 144.874 88.2288C145.24 88.5611 145.72 88.7385 146.215 88.7239C146.548 88.7467 146.881 88.6676 147.169 88.4971C147.457 88.3265 147.687 88.0725 147.827 87.7687H149.352C149.152 88.3905 148.759 88.9324 148.23 89.3154C147.642 89.7311 146.934 89.9421 146.215 89.9156C145.602 89.9252 144.998 89.7742 144.462 89.4775C143.948 89.1862 143.526 88.7566 143.244 88.2375C142.942 87.6657 142.791 87.0262 142.806 86.3797C142.795 85.7351 142.946 85.098 143.244 84.5264C143.516 84.0056 143.935 83.576 144.449 83.2908C144.995 82.9927 145.61 82.8417 146.232 82.8526C146.834 82.8471 147.428 82.9981 147.954 83.2908C148.453 83.5631 148.862 83.974 149.133 84.4738C149.427 85.0104 149.578 85.6142 149.571 86.2264C149.562 86.4576 149.534 86.6877 149.488 86.9143ZM148.064 85.7707C148.068 85.5335 148.02 85.2982 147.923 85.0817C147.826 84.8651 147.682 84.6725 147.503 84.5176C147.125 84.1986 146.643 84.0314 146.149 84.0488C145.687 84.0389 145.239 84.2049 144.896 84.5132C144.54 84.8408 144.32 85.2892 144.278 85.7707H148.064Z" fill="#F08A5D"/>
</svg>
