<svg width="343" height="213" viewBox="0 0 343 213" fill="none" xmlns="http://www.w3.org/2000/svg">
<path d="M46.6599 41.8707C38.7499 41.8707 34.2199 35.6907 34.1699 35.6207L35.3599 34.7607C37.1919 37.1573 39.7331 38.9151 42.6218 39.7841C45.5106 40.6531 48.5998 40.5889 51.4499 39.6008L51.9099 41.0007C50.2164 41.5646 48.4447 41.8581 46.6599 41.8707Z" fill="#F08A5D"/>
<path d="M46.6598 41.9208C44.2381 41.8913 41.851 41.3422 39.6598 40.3108C37.4432 39.2486 35.4897 37.7083 33.9398 35.8008C33.8848 35.7447 33.854 35.6693 33.854 35.5908C33.854 35.5122 33.8848 35.4368 33.9398 35.3808L35.1198 34.5108C35.1532 34.485 35.1914 34.4661 35.2322 34.4552C35.2729 34.4443 35.3154 34.4416 35.3572 34.4471C35.3991 34.4527 35.4394 34.4665 35.4759 34.4877C35.5123 34.5089 35.5442 34.5372 35.5698 34.5708C36.4849 35.7039 37.5633 36.6947 38.7698 37.5108C39.9752 38.324 41.3015 38.9416 42.6998 39.3408C44.0813 39.7496 45.5199 39.932 46.9598 39.8808C48.4147 39.8238 49.8594 39.6126 51.2698 39.2508H51.3298C51.3725 39.2404 51.4168 39.2387 51.4602 39.2457C51.5035 39.2527 51.5451 39.2684 51.5823 39.2917C51.6196 39.3149 51.6518 39.3454 51.6771 39.3813C51.7025 39.4172 51.7204 39.4578 51.7298 39.5008L52.1098 40.9208C52.1187 40.9543 52.1209 40.9892 52.1162 41.0236C52.1115 41.0579 52.0999 41.091 52.0822 41.1208C52.0645 41.1506 52.041 41.1766 52.0131 41.1972C51.9852 41.2178 51.9535 41.2326 51.9198 41.2408C50.2041 41.6983 48.4354 41.927 46.6598 41.9208ZM46.6598 41.8208C47.548 41.8079 48.4327 41.704 49.2998 41.5108C50.1586 41.3161 51.0011 41.0553 51.8198 40.7308L51.6398 41.0808L51.0998 39.7208L51.5698 39.9508C50.1312 40.5078 48.611 40.8254 47.0698 40.8908C45.5143 40.9761 43.9568 40.7658 42.4798 40.2708C41.0102 39.7886 39.6263 39.0764 38.3798 38.1608C37.1289 37.265 36.0199 36.1863 35.0898 34.9608L35.5598 35.0308L34.3498 35.8708L34.4198 35.4308C35.1436 36.3714 35.9648 37.2328 36.8698 38.0008C37.7762 38.7648 38.7579 39.4349 39.7998 40.0008C40.8347 40.5958 41.9445 41.0498 43.0998 41.3508C44.2609 41.6617 45.4577 41.8197 46.6598 41.8208Z" fill="#F08A5D"/>
<path d="M51.6 34.6809C37.91 33.1009 37 20.3809 37 20.2509L38.47 20.1709C38.47 20.6409 39.29 31.7909 51.74 33.2309L51.6 34.6809Z" fill="#F08A5D"/>
<path d="M51.6297 34.7206C50.7197 34.5706 49.7497 34.4906 48.8397 34.2606C47.9301 34.0463 47.0402 33.7553 46.1797 33.3906C44.4263 32.6911 42.8289 31.6511 41.4797 30.3306C40.1215 29.009 39.0166 27.45 38.2197 25.7306C37.3995 24.0087 36.8659 22.1645 36.6397 20.2706C36.6284 20.1739 36.6556 20.0767 36.7155 19.9999C36.7754 19.9232 36.8632 19.8731 36.9597 19.8606H36.9997L38.4597 19.7506C38.5664 19.7448 38.6712 19.7798 38.7529 19.8485C38.8347 19.9173 38.8872 20.0146 38.8997 20.1206C39.0913 21.7483 39.5509 23.333 40.2597 24.8106C40.9425 26.2954 41.88 27.6492 43.0297 28.8106C44.1711 29.9893 45.5293 30.9367 47.0297 31.6006C47.7737 31.9608 48.5464 32.2585 49.3397 32.4906C50.1297 32.7306 50.9597 32.8706 51.7697 33.0806C51.8025 33.0879 51.8313 33.1075 51.8499 33.1355C51.8686 33.1635 51.8757 33.1975 51.8697 33.2306C51.8297 33.7606 51.7197 34.2606 51.6297 34.7206ZM51.5697 34.6506L51.6197 33.2106L51.7497 33.3706C50.9097 33.2606 50.0497 33.2206 49.2097 33.0306C48.364 32.8576 47.5344 32.6134 46.7297 32.3006C45.0908 31.6778 43.5938 30.7319 42.3277 29.5191C41.0616 28.3063 40.0523 26.8513 39.3597 25.2406C38.6526 23.6411 38.2199 21.9339 38.0797 20.1906L38.5197 20.5906L37.0497 20.6506L37.4197 20.2306C37.6039 22.0385 38.0695 23.8065 38.7997 25.4706C39.5232 27.1406 40.5391 28.6679 41.7997 29.9806C43.0677 31.3122 44.587 32.3795 46.2697 33.1206C47.1054 33.5081 47.9717 33.8259 48.8597 34.0706C49.7697 34.3206 50.6497 34.4406 51.5697 34.6506Z" fill="#F08A5D"/>
<path d="M112.76 42.4508L112.13 41.1309C115.301 39.6429 118.188 37.6124 120.66 35.1309C124.23 31.4909 125.77 27.9608 127.72 23.4808C128.59 21.4808 129.57 19.2408 130.84 16.7508C133.372 11.7997 136.387 7.11036 139.84 2.75085C130.12 1.26085 128.23 8.28084 128.15 8.59084L127.95 9.39085L127.18 9.10085C119.45 6.21085 115.57 13.5508 115.4 13.8608L115.2 14.2708H114.74C110.02 14.2108 106.74 15.2709 104.97 17.3309C104.443 17.9836 104.056 18.7376 103.832 19.546C103.609 20.3545 103.553 21.2002 103.67 22.0308L103.84 22.9508L102.9 22.9008C98.8998 22.6808 95.8998 23.5409 93.8098 25.4609C92.1657 27.0626 91.1659 29.2115 90.9998 31.5008H89.5298C89.6919 28.8061 90.863 26.2712 92.8098 24.4008C95.0398 22.3308 98.2098 21.3308 102.15 21.4008C102.086 19.5841 102.687 17.8064 103.84 16.4009C105.84 14.0108 109.36 12.7908 114.34 12.7908C115.34 11.1508 119.59 5.17085 127 7.49085C127.88 5.32085 131.26 -0.609154 141.34 1.49085L142.52 1.74085L141.76 2.67085C138.049 7.20908 134.828 12.1263 132.15 17.3408C130.9 19.8008 129.93 22.0308 129.07 24.0008C127.07 28.6108 125.47 32.2608 121.71 36.0908C119.119 38.715 116.09 40.8672 112.76 42.4508Z" fill="#F08A5D"/>
<path d="M112.74 42.5005L112.08 41.1505V41.0805C115.72 39.3546 118.969 36.9047 121.63 33.8805C124.31 30.8805 125.97 27.1505 127.55 23.4605C129.136 19.7567 130.908 16.1354 132.86 12.6105C134.891 9.12544 137.16 5.78423 139.65 2.61046L139.79 2.97046C139.17 2.91046 138.55 2.82046 137.93 2.79046C137.309 2.76531 136.688 2.78536 136.07 2.85046C134.833 2.94792 133.626 3.28769 132.52 3.85046C131.418 4.40286 130.454 5.19571 129.7 6.17046C128.936 7.14182 128.422 8.28492 128.2 9.50046C128.183 9.56491 128.144 9.62097 128.088 9.65788C128.033 9.69479 127.966 9.70995 127.9 9.70046C126.746 9.22786 125.53 8.92473 124.29 8.80046C123.064 8.71366 121.834 8.91574 120.7 9.39046C119.573 9.88041 118.554 10.5872 117.7 11.4705C116.818 12.3431 116.088 13.357 115.54 14.4705C115.517 14.5221 115.478 14.5657 115.43 14.5959C115.383 14.6261 115.327 14.6416 115.27 14.6405C113.873 14.6015 112.475 14.6785 111.09 14.8705C109.705 15.0127 108.354 15.3951 107.1 16.0005C105.899 16.6225 104.949 17.6396 104.41 18.8805C104.155 19.5013 104.007 20.1604 103.97 20.8305C103.94 21.1631 103.94 21.4978 103.97 21.8305L104.16 22.8305C104.17 22.8746 104.171 22.9203 104.163 22.9648C104.155 23.0093 104.137 23.0516 104.112 23.0891C104.087 23.1267 104.054 23.1586 104.016 23.1829C103.977 23.2072 103.935 23.2234 103.89 23.2305H103.8C102.371 23.1101 100.935 23.1302 99.51 23.2905C98.1058 23.4642 96.748 23.9055 95.51 24.5905C94.2962 25.2892 93.2888 26.2966 92.59 27.5105C91.8904 28.7145 91.4732 30.0617 91.37 31.4505C91.3649 31.5504 91.3215 31.6445 91.2489 31.7134C91.1764 31.7823 91.0801 31.8206 90.98 31.8205H89.51C89.4592 31.8205 89.409 31.8103 89.3622 31.7906C89.3155 31.7709 89.2731 31.742 89.2377 31.7056C89.2023 31.6693 89.1745 31.6262 89.156 31.579C89.1375 31.5317 89.1287 31.4812 89.13 31.4305C89.2183 29.8618 89.6338 28.3289 90.35 26.9305C91.0603 25.5215 92.0871 24.2962 93.35 23.3505C94.6095 22.4096 96.0443 21.7296 97.57 21.3505C99.0765 20.9934 100.622 20.8288 102.17 20.8605L101.71 21.3305C101.655 19.8327 102.023 18.3497 102.77 17.0505C103.542 15.768 104.639 14.7123 105.95 13.9905C108.56 12.7131 111.446 12.1016 114.35 12.2105L113.93 12.4505C114.599 11.3442 115.417 10.3348 116.36 9.45046C117.293 8.5522 118.372 7.81849 119.55 7.28046C120.735 6.73401 122.016 6.42487 123.32 6.37046C124.617 6.34 125.91 6.51896 127.15 6.90046L126.54 7.19046C127.151 5.713 128.079 4.38825 129.26 3.31046C130.445 2.24098 131.857 1.45454 133.39 1.01046C134.908 0.585731 136.486 0.416754 138.06 0.510463C139.598 0.621901 141.123 0.862755 142.62 1.23046C142.678 1.24345 142.733 1.26774 142.781 1.30194C142.829 1.33615 142.871 1.37959 142.902 1.42977C142.934 1.47996 142.955 1.53589 142.965 1.59436C142.975 1.65282 142.973 1.71267 142.96 1.77046C142.947 1.8404 142.916 1.90578 142.87 1.96046C140.118 5.21909 137.607 8.67501 135.36 12.3005C134.25 14.1105 133.18 15.9605 132.24 17.8805L129.52 23.6705C128.63 25.6105 127.79 27.5905 126.76 29.4905C125.755 31.4022 124.526 33.188 123.1 34.8105C120.226 38.0738 116.696 40.6942 112.74 42.5005ZM112.74 42.4005C116.562 40.514 119.964 37.8745 122.74 34.6405C124.102 33.0098 125.282 31.2361 126.26 29.3505C127.26 27.4705 128.06 25.4905 128.92 23.5305L131.59 17.6705C132.52 15.7305 133.59 13.8505 134.67 12.0105C136.893 8.32886 139.379 4.813 142.11 1.49046L142.37 2.22046C140.917 1.88252 139.439 1.66511 137.95 1.57046C136.489 1.51004 135.028 1.67875 133.62 2.07046C132.231 2.47469 130.951 3.18733 129.876 4.15525C128.8 5.12316 127.958 6.32136 127.41 7.66046C127.365 7.77379 127.28 7.86682 127.172 7.92206C127.063 7.97731 126.938 7.99096 126.82 7.96046C125.686 7.61457 124.505 7.44921 123.32 7.47046C122.145 7.52679 120.991 7.80502 119.92 8.29046C117.768 9.34506 115.966 10.9977 114.73 13.0505C114.684 13.1209 114.622 13.1794 114.549 13.2212C114.476 13.2629 114.394 13.2867 114.31 13.2905C111.575 13.1814 108.853 13.7373 106.38 14.9105C105.21 15.537 104.229 16.4659 103.54 17.6005C102.861 18.7429 102.515 20.052 102.54 21.3805C102.543 21.5008 102.498 21.6174 102.416 21.7053C102.334 21.7931 102.22 21.8453 102.1 21.8505C99.1669 21.6503 96.2505 22.4313 93.81 24.0705C92.6548 24.942 91.7113 26.0633 91.05 27.3505C90.3817 28.6356 89.9867 30.0452 89.89 31.4905L89.5 31.0905H90.97L90.57 31.4805C90.6824 29.9528 91.1443 28.4713 91.92 27.1505C92.696 25.8325 93.8025 24.7399 95.13 23.9805C96.4515 23.2523 97.9015 22.787 99.4 22.6105C100.873 22.4656 102.357 22.4656 103.83 22.6105L103.47 23.0205C103.083 21.5757 103.181 20.0438 103.75 18.6605C104.354 17.2844 105.414 16.1581 106.75 15.4705C108.042 14.7994 109.445 14.3658 110.89 14.1905C112.308 13.9976 113.74 13.924 115.17 13.9705L114.89 14.1405C115.481 12.9756 116.258 11.915 117.19 11.0005C118.108 10.0675 119.203 9.32641 120.41 8.82046C121.626 8.31171 122.946 8.09921 124.26 8.20046C125.55 8.33081 126.814 8.65094 128.01 9.15046L127.66 9.34046C127.91 8.0571 128.465 6.85298 129.28 5.83046C130.076 4.79385 131.103 3.95816 132.28 3.39046C133.445 2.82249 134.708 2.48304 136 2.39046C136.643 2.3505 137.287 2.3505 137.93 2.39046C138.57 2.39046 139.2 2.52046 139.84 2.58046C139.897 2.58797 139.948 2.61721 139.984 2.662C140.019 2.70679 140.036 2.76362 140.03 2.82046C140.043 2.85597 140.043 2.89495 140.03 2.93046C137.525 6.07078 135.243 9.38216 133.2 12.8405C131.227 16.3397 129.435 19.9378 127.83 23.6205C126.23 27.2905 124.53 31.0405 121.83 34.0505C119.137 37.0727 115.857 39.5156 112.19 41.2305V41.1505L112.74 42.4005Z" fill="#F08A5D"/>
<path d="M122.79 47.4301C119.59 43.3101 115.92 41.1501 111.89 41.0101C105.89 40.8101 100.96 45.1101 99.1998 46.8501C97.4798 44.3901 91.1998 37.5501 74.2698 36.6601C55.0598 35.6601 52.8498 20.7501 52.7598 20.1201L51.3098 20.3101C51.3098 20.4801 53.7398 37.0501 74.1998 38.1201C93.5398 39.1201 98.3798 48.2801 98.4198 48.3701L98.9098 49.3701L99.6298 48.5501C99.6898 48.4901 105.26 42.2701 111.85 42.5001C115.47 42.6201 118.85 44.6501 121.75 48.5001L121.88 48.6701L127.78 50.8701L121.1 56.6001V56.9001C121.1 57.1601 120.47 63.2601 112.43 64.9601L112.13 65.0201L111.97 65.2701C111.52 65.9301 100.97 81.0901 80.6098 70.1701C81.6098 69.4001 84.6098 66.5101 87.9598 59.1101L86.6198 58.5101C82.9098 66.7801 79.5198 69.1701 79.4898 69.1901L79.8998 69.8001L79.4798 69.5601L79.0998 69.8501C78.7898 70.0801 48.4198 92.4901 3.19977 72.3601C5.43977 70.6401 11.7198 66.8001 18.7098 71.2301L19.8398 71.9501V70.7401C20.1698 69.9501 23.9098 62.0001 36.8398 65.6801H37.0398C37.5898 65.6801 37.7398 65.2201 37.8498 64.8801C39.7498 59.0901 44.4098 56.8001 51.3398 58.2601H51.4898C52.1198 58.2601 52.2298 57.6301 52.2698 57.4201C52.3731 56.6505 52.6354 55.9109 53.04 55.2481C53.4446 54.5853 53.9825 54.0139 54.6198 53.5701C56.8598 52.0101 60.4698 51.6901 65.3598 52.5701L65.6298 51.1301C60.3498 50.1301 56.3598 50.5301 53.7798 52.3201C52.3059 53.3338 51.2811 54.8782 50.9198 56.6301C43.7898 55.3501 38.7298 57.9501 36.5798 64.0001C29.0398 62.0001 24.4598 63.8601 21.9198 65.7801C20.6052 66.7683 19.5175 68.0265 18.7298 69.4701C9.48977 64.2501 1.36977 71.8501 1.28977 71.9301L0.509766 72.6801L1.50977 73.1301C16.1398 79.8201 29.2798 82.1301 40.4298 82.1301C62.6898 82.1301 77.0498 72.9501 79.5698 71.2101C99.8598 82.3201 111.43 68.3201 112.99 66.2101C120.8 64.4201 122.25 58.6401 122.5 57.2101L130.63 50.2101L122.79 47.4301Z" fill="#F08A5D"/>
<path d="M122.76 47.4701C121.387 45.6421 119.693 44.0798 117.76 42.8601C115.813 41.6545 113.559 41.0396 111.27 41.0901C108.987 41.1664 106.754 41.776 104.75 42.8701C102.736 43.9267 100.89 45.2745 99.2698 46.8701C99.2533 46.8848 99.232 46.893 99.2098 46.893C99.1877 46.893 99.1663 46.8848 99.1498 46.8701C97.7245 44.9657 95.9496 43.3503 93.9198 42.1101C91.9082 40.849 89.7485 39.8414 87.4898 39.1101C85.2284 38.3659 82.911 37.8041 80.5598 37.4301C79.3898 37.2401 78.2098 37.1001 77.0298 36.9701C75.8498 36.8401 74.6598 36.8101 73.4598 36.6801L71.6798 36.5001C71.3798 36.5001 71.0798 36.5001 70.7898 36.4101L69.9098 36.2301L68.1498 35.8601C67.5681 35.7157 66.9941 35.5422 66.4298 35.3401C64.134 34.6297 61.9788 33.5267 60.0598 32.0801C56.1554 29.163 53.5007 24.8754 52.6298 20.0801L52.7998 20.2101L51.3498 20.4001L51.4798 20.2301C52.4361 25.1329 55.1008 29.5375 58.9998 32.6601C59.9653 33.4304 60.9883 34.1257 62.0598 34.7401L63.7298 35.5401L64.5698 35.9301L65.4498 36.2201L67.2098 36.8201C67.7998 36.9901 68.4098 37.0801 69.0098 37.2201C69.6098 37.3601 70.2198 37.5101 70.8298 37.5801L72.6798 37.7701C75.1298 38.0601 77.6798 38.1201 80.1098 38.5501C81.3498 38.7201 82.5598 39.0201 83.7898 39.2701C85.0198 39.5201 86.2098 39.9101 87.3798 40.3601C89.7548 41.1675 92.0089 42.2946 94.0798 43.7101C95.1176 44.4232 96.0823 45.2371 96.9598 46.1401C97.4044 46.593 97.8155 47.0776 98.1898 47.5901C98.5474 48.1119 98.8586 48.664 99.1198 49.2401L98.7398 49.1901C100.23 47.4342 101.98 45.9166 103.93 44.6901C105.865 43.4112 108.069 42.5935 110.37 42.3001C112.707 42.0467 115.063 42.5742 117.07 43.8001C119.022 45.0316 120.72 46.6273 122.07 48.5001L121.95 48.4201L127.86 50.6101C127.893 50.621 127.924 50.6388 127.95 50.6624C127.976 50.6859 127.996 50.7146 128.011 50.7467C128.025 50.7787 128.032 50.8134 128.032 50.8484C128.032 50.8835 128.024 50.9181 128.01 50.9501C127.996 50.9921 127.972 51.0299 127.94 51.0601L121.26 56.8001L121.35 56.6101C121.247 57.7514 120.907 58.8585 120.35 59.8601C119.809 60.864 119.087 61.7591 118.22 62.5001C117.357 63.2378 116.39 63.8443 115.35 64.3001C114.84 64.5201 114.35 64.7001 113.77 64.8801C113.19 65.0601 112.68 65.1801 112.14 65.2901L112.32 65.1701C110.588 67.5875 108.383 69.6286 105.84 71.1701C103.309 72.7596 100.464 73.783 97.4998 74.1701C96.7662 74.2916 96.0234 74.3485 95.2798 74.3401H94.1698C93.7988 74.3367 93.4283 74.3133 93.0598 74.2701C92.3198 74.2001 91.5798 74.1501 90.8398 74.0601L88.6698 73.5901C88.3098 73.5101 87.9398 73.4401 87.5798 73.3401L86.5298 72.9801L84.4298 72.2601C83.0698 71.6901 81.7498 71.0101 80.4298 70.4001C80.3575 70.3634 80.3019 70.3007 80.274 70.2246C80.2462 70.1485 80.2483 70.0647 80.2798 69.9901C80.3006 69.9495 80.3276 69.9124 80.3598 69.8801C81.1898 69.1664 81.9439 68.3688 82.6098 67.5001C83.2959 66.6383 83.9303 65.7368 84.5098 64.8001C85.6785 62.9145 86.7143 60.9497 87.6098 58.9201L87.7798 59.3601L86.4398 58.7601L86.8798 58.5901C86.4298 59.5901 85.9598 60.5901 85.4598 61.5301C84.9598 62.4701 84.4598 63.4401 83.8298 64.3501C83.2594 65.2816 82.6315 66.1767 81.9498 67.0301C81.2734 67.9154 80.4947 68.7177 79.6298 69.4201L79.7298 68.9501L80.1398 69.5501C80.1893 69.6272 80.2066 69.7208 80.1879 69.8105C80.1692 69.9003 80.116 69.9791 80.0398 70.0301C79.9858 70.0638 79.9235 70.0816 79.8598 70.0816C79.7962 70.0816 79.7338 70.0638 79.6798 70.0301L79.2598 69.7901H79.6398C76.9066 71.7257 73.9811 73.3744 70.9098 74.7101C67.8638 76.0686 64.7261 77.2114 61.5198 78.1301C55.0971 79.9686 48.4597 80.9504 41.7798 81.0501C38.4405 81.1188 35.1002 80.9718 31.7798 80.6101C30.1198 80.4801 28.4798 80.1801 26.7798 79.9601C25.0798 79.7401 23.4898 79.4001 21.8798 78.9601C15.3977 77.511 9.07392 75.4276 2.99981 72.7401C2.93057 72.7127 2.8701 72.6669 2.8249 72.6077C2.7797 72.5485 2.75147 72.4782 2.74324 72.4041C2.73502 72.3301 2.74711 72.2553 2.77822 72.1876C2.80933 72.1199 2.85827 72.062 2.91981 72.0201C5.35368 70.0878 8.31886 68.9436 11.4198 68.7401C12.9735 68.6718 14.5256 68.9061 15.9898 69.4301C17.4229 69.9765 18.7858 70.6915 20.0498 71.5601L19.3698 71.9401V70.7301C19.3595 70.6739 19.3595 70.6163 19.3698 70.5601C19.7222 69.782 20.1834 69.0581 20.7398 68.4101C21.008 68.0835 21.2951 67.7729 21.5998 67.4801C21.9191 67.1932 22.2529 66.9229 22.5998 66.6701C23.9616 65.6765 25.5141 64.9751 27.1598 64.6101C28.8046 64.2789 30.4883 64.1846 32.1598 64.3301C32.9898 64.3901 33.7998 64.5501 34.6198 64.6601L37.0198 65.2301H36.9498H37.1498H37.0898C37.1898 65.2301 37.2198 65.2301 37.2598 65.1701C37.3355 65.0761 37.3901 64.967 37.4198 64.8501L37.8198 63.7701C37.9598 63.4101 38.1398 63.0701 38.2998 62.7101C38.4598 62.3501 38.6898 62.0301 38.8998 61.7101C39.771 60.3806 40.9648 59.2934 42.3698 58.5501C43.7739 57.84 45.3171 57.4474 46.8898 57.4001C48.4341 57.3501 49.9787 57.4878 51.4898 57.8101H51.6398C51.7898 57.8101 51.8098 57.8101 51.8998 57.5301C51.9596 57.1931 52.0364 56.8593 52.1298 56.5301C52.3324 55.8057 52.6718 55.1268 53.1298 54.5301C54.1028 53.3453 55.4378 52.5126 56.9298 52.1601C58.351 51.8051 59.8166 51.6602 61.2798 51.7301C62.7167 51.7989 64.147 51.9694 65.5598 52.2401L64.9798 52.6401L65.2498 51.1901L65.6498 51.7701C64.2406 51.4995 62.8134 51.3324 61.3798 51.2701C59.9675 51.1917 58.5512 51.306 57.1698 51.6101C55.8144 51.8973 54.5527 52.5196 53.4998 53.4201C52.4849 54.3418 51.7852 55.5591 51.4998 56.9001C51.4733 57.0233 51.4002 57.1315 51.296 57.2023C51.1917 57.2731 51.0641 57.3009 50.9398 57.2801C48.1224 56.6643 45.184 56.9261 42.5198 58.0301C41.2415 58.6339 40.1116 59.5113 39.2098 60.6001C38.3135 61.7139 37.6197 62.9764 37.1598 64.3301C37.1148 64.446 37.029 64.5415 36.9185 64.5986C36.808 64.6557 36.6804 64.6705 36.5598 64.6401C33.3934 63.7185 30.0498 63.5846 26.8198 64.2501C25.2417 64.6199 23.7529 65.2998 22.4398 66.2501C21.1377 67.2065 20.0594 68.435 19.2798 69.8501C19.2181 69.9661 19.1133 70.0532 18.9879 70.0925C18.8625 70.1318 18.7267 70.1201 18.6098 70.0601C17.1797 69.2465 15.6203 68.685 13.9998 68.4001C12.4187 68.1549 10.8065 68.1956 9.23981 68.5201C6.06841 69.2205 3.16184 70.809 0.859814 73.1001L0.729813 72.3201C6.91089 75.2551 13.3652 77.5762 19.9998 79.2501C26.6509 80.9085 33.4753 81.7712 40.3298 81.8201C47.1822 81.8316 54.0066 80.9474 60.6298 79.1901C67.2692 77.4895 73.5952 74.7417 79.3698 71.0501C79.416 71.0256 79.4675 71.0127 79.5198 71.0127C79.5721 71.0127 79.6236 71.0256 79.6698 71.0501C81.0598 71.7001 82.4098 72.4501 83.8198 73.0501C85.2359 73.6311 86.6932 74.1057 88.1798 74.4701C91.1362 75.2709 94.2203 75.4882 97.2598 75.1101C100.301 74.7425 103.235 73.7555 105.88 72.2101C108.535 70.6766 110.879 68.6583 112.79 66.2601C112.817 66.2245 112.856 66.1997 112.9 66.1901C114.015 65.9333 115.101 65.5613 116.14 65.0801C117.178 64.5981 118.138 63.9645 118.99 63.2001C120.707 61.6641 121.876 59.6104 122.32 57.3501C122.315 57.3236 122.315 57.2965 122.32 57.2701L130.49 50.3401V50.4801L122.76 47.4701ZM122.82 47.3901L130.66 50.2701C130.671 50.2733 130.681 50.2789 130.69 50.2864C130.698 50.294 130.705 50.3032 130.71 50.3137C130.715 50.3241 130.717 50.3354 130.717 50.3469C130.717 50.3583 130.715 50.3697 130.71 50.3801L122.6 57.3801V57.3001C122.149 59.612 120.964 61.7165 119.22 63.3001C118.355 64.1077 117.374 64.7818 116.31 65.3001C115.252 65.8082 114.142 66.2005 113 66.4701L113.11 66.3901C111.188 68.8577 108.812 70.935 106.11 72.5101C103.417 74.0949 100.43 75.1155 97.3298 75.5101C94.2255 75.9054 91.074 75.6948 88.0498 74.8901C86.5367 74.5273 85.0526 74.0527 83.6098 73.4701C82.1698 72.9001 80.7998 72.1501 79.3898 71.4701H79.6998C73.8804 75.225 67.5007 78.03 60.7998 79.7801C54.1232 81.5894 47.2372 82.5107 40.3198 82.5201C33.4022 82.5032 26.5109 81.6674 19.7898 80.0301C13.0798 78.3688 6.54866 76.0544 0.289814 73.1201C0.232965 73.0943 0.181828 73.0574 0.139393 73.0116C0.0969582 72.9658 0.0640763 72.912 0.0426639 72.8533C0.0212516 72.7947 0.0117383 72.7323 0.0146831 72.67C0.0176279 72.6076 0.0329715 72.5465 0.0598148 72.4901C0.0805324 72.4434 0.107438 72.3996 0.139813 72.3601C1.33965 71.1675 2.70746 70.1568 4.19981 69.3601C5.70202 68.5216 7.3193 67.9083 8.99981 67.5401C10.6885 67.1921 12.4257 67.1481 14.1298 67.4101C15.8279 67.6981 17.4646 68.2729 18.9698 69.1101L18.2798 69.3101C19.1228 67.7595 20.3015 66.4168 21.7298 65.3801C23.1467 64.3476 24.7544 63.6067 26.4598 63.2001C29.8512 62.4953 33.3638 62.6326 36.6898 63.6001L36.0998 63.9101C36.6056 62.4596 37.3565 61.1066 38.3198 59.9101C39.3189 58.6953 40.576 57.7183 41.9998 57.0501C43.4079 56.4055 44.9238 56.0291 46.4698 55.9401C47.9922 55.8478 49.5202 55.9418 51.0198 56.2201L50.4398 56.6001C50.7665 55.0579 51.5713 53.6582 52.7398 52.6001C53.9159 51.5983 55.3264 50.9103 56.8398 50.6001C58.3093 50.2733 59.8166 50.1488 61.3198 50.2301C62.8008 50.2923 64.275 50.4662 65.7298 50.7501C65.8595 50.7744 65.9744 50.849 66.0493 50.9577C66.1243 51.0663 66.1532 51.2002 66.1298 51.3301L65.8598 52.7701C65.8332 52.8986 65.758 53.0118 65.65 53.0863C65.542 53.1608 65.4094 53.1908 65.2798 53.1701C62.5896 52.5417 59.7946 52.5076 57.0898 53.0701C55.8091 53.3647 54.6583 54.0664 53.8098 55.0701C53.411 55.5816 53.1155 56.1657 52.9398 56.7901C52.8398 57.1201 52.8098 57.3701 52.7098 57.7901C52.6495 58.053 52.514 58.2928 52.3198 58.4801C52.0954 58.6831 51.8025 58.7938 51.4998 58.7901H51.4498H51.2898C49.8644 58.4833 48.4073 58.349 46.9498 58.3901C45.5169 58.4199 44.1077 58.7611 42.8198 59.3901C41.5625 60.0619 40.4907 61.0341 39.6998 62.2201C39.5098 62.5301 39.3298 62.8401 39.1498 63.1501C38.9698 63.4601 38.8398 63.8001 38.6998 64.1501L38.3198 65.1501C38.2454 65.3993 38.1155 65.6283 37.9398 65.8201C37.8298 65.9302 37.6987 66.0171 37.5544 66.0755C37.4101 66.1339 37.2555 66.1627 37.0998 66.1601H36.9998H36.7998H36.7398L34.4198 65.6101C33.6398 65.5001 32.8498 65.3401 32.0698 65.2901C30.503 65.149 28.9241 65.2298 27.3798 65.5301C25.8569 65.8649 24.42 66.5119 23.1598 67.4301C22.8398 67.6501 22.5698 67.9201 22.2698 68.1701C21.9911 68.4388 21.7274 68.7225 21.4798 69.0201C20.9754 69.5964 20.5576 70.2432 20.2398 70.9401V70.7701V71.9801C20.2372 72.0977 20.1886 72.2096 20.1045 72.2918C20.0204 72.3741 19.9074 72.4201 19.7898 72.4201C19.7052 72.417 19.6228 72.393 19.5498 72.3501C18.3483 71.5088 17.0487 70.817 15.6798 70.2901C14.3187 69.8 12.8752 69.5792 11.4298 69.6401C8.51326 69.8351 5.72418 70.9089 3.42981 72.7201L3.34981 71.9901C9.38598 74.6949 15.6727 76.8016 22.1198 78.2801C23.7198 78.6901 25.3598 78.9201 26.9798 79.2801C28.5998 79.6401 30.2498 79.8001 31.8898 79.9301C35.1763 80.2982 38.4833 80.4519 41.7898 80.3901C48.4038 80.3 54.9771 79.3384 61.3398 77.5301C64.5157 76.6283 67.6235 75.5021 70.6398 74.1601C73.6627 72.8496 76.5442 71.2346 79.2398 69.3401C79.2953 69.3055 79.3594 69.2872 79.4248 69.2872C79.4902 69.2872 79.5543 69.3055 79.6098 69.3401L80.0298 69.5801L79.5698 70.0701L79.1598 69.4601C79.1119 69.3877 79.0935 69.2997 79.1084 69.2142C79.1232 69.1286 79.1703 69.052 79.2398 69.0001C80.0444 68.3329 80.7722 67.5783 81.4098 66.7501C82.0716 65.9152 82.6859 65.0439 83.2498 64.1401C83.8298 63.2401 84.3498 62.3101 84.8498 61.3601C85.3498 60.4101 85.8498 59.4501 86.2598 58.4701C86.2988 58.392 86.3655 58.3313 86.4469 58.2998C86.5283 58.2684 86.6185 58.2685 86.6998 58.3001L88.0398 58.9101C88.1188 58.9452 88.1809 59.0099 88.2127 59.0903C88.2445 59.1707 88.2435 59.2604 88.2098 59.3401C87.292 61.3892 86.2362 63.3738 85.0498 65.2801C84.457 66.24 83.8093 67.1649 83.1098 68.0501C82.407 68.9466 81.6164 69.7706 80.7498 70.5101V69.9801C82.0698 70.5901 83.3698 71.2601 84.7498 71.8201L86.7998 72.5401L87.7998 72.8901C88.1498 72.9901 88.5098 73.0501 88.8598 73.1301L90.9898 73.6001C91.6998 73.6901 92.4298 73.7401 93.1498 73.8101C93.5082 73.8533 93.8688 73.8767 94.2298 73.8801H95.3098C96.0333 73.8836 96.7558 73.8268 97.4698 73.7101C100.349 73.353 103.117 72.3737 105.58 70.8401C108.059 69.332 110.209 67.3389 111.9 64.9801C111.942 64.9228 112.002 64.8807 112.07 64.8601C112.62 64.7501 113.13 64.6001 113.66 64.4701C114.19 64.3401 114.66 64.1201 115.18 63.9101C116.164 63.4781 117.08 62.9055 117.9 62.2101C118.71 61.5103 119.388 60.6702 119.9 59.7301C120.416 58.8054 120.736 57.7841 120.84 56.7301C120.841 56.6939 120.849 56.6583 120.865 56.6256C120.88 56.5929 120.902 56.5637 120.93 56.5401L127.62 50.8201L127.7 51.2701L121.8 49.0601C121.755 49.0479 121.715 49.0194 121.69 48.9801C120.375 47.1551 118.722 45.6002 116.82 44.4001C114.91 43.2215 112.662 42.7114 110.43 42.9501C108.2 43.2313 106.065 44.0217 104.19 45.2601C102.274 46.4523 100.557 47.9369 99.0998 49.6601C99.0801 49.6816 99.0562 49.6988 99.0295 49.7106C99.0028 49.7223 98.974 49.7284 98.9448 49.7284C98.9157 49.7284 98.8868 49.7223 98.8601 49.7106C98.8334 49.6988 98.8095 49.6816 98.7898 49.6601C98.7618 49.6405 98.7408 49.6125 98.7298 49.5801C97.6132 47.3829 95.928 45.5251 93.8498 44.2001C91.8139 42.8022 89.5968 41.6886 87.2598 40.8901C86.0998 40.4401 84.8998 40.1501 83.7098 39.8101C82.5198 39.4701 81.2898 39.2501 80.0698 39.0801C77.6198 38.6501 75.1498 38.5801 72.6598 38.2901L70.7898 38.0901C70.1698 38.0101 69.5698 37.8401 68.9498 37.7201C68.3298 37.6001 67.7198 37.4801 67.1198 37.3001L65.3398 36.7001L64.4498 36.4001L63.6098 36.0001L61.9098 35.1901C60.8254 34.5611 59.7892 33.8525 58.8098 33.0701C54.8525 29.9021 52.1457 25.4344 51.1698 20.4601C51.1639 20.4217 51.1732 20.3826 51.1955 20.3509C51.2179 20.3192 51.2517 20.2974 51.2898 20.2901L52.7398 20.1001C52.7804 20.0966 52.8209 20.1078 52.854 20.1316C52.887 20.1555 52.9104 20.1904 52.9198 20.2301C53.7784 24.9379 56.3818 29.1484 60.2098 32.0201C62.1013 33.4507 64.2259 34.5435 66.4898 35.2501C67.0598 35.4201 67.6098 35.6501 68.1898 35.7701L69.9298 36.1301L70.8098 36.3101C71.0998 36.3601 71.3998 36.3801 71.6898 36.4101L73.4598 36.6001C74.6398 36.7301 75.8398 36.7901 77.0298 36.8901C78.2198 36.9901 79.3998 37.1701 80.5798 37.3601C82.9393 37.7395 85.2637 38.3114 87.5298 39.0701C89.8017 39.8001 91.9748 40.8077 93.9998 42.0701C96.0419 43.3338 97.8294 44.9686 99.2698 46.8901H99.1398C100.774 45.2732 102.638 43.9052 104.67 42.8301C106.699 41.7341 108.955 41.1247 111.26 41.0501C113.572 41.0057 115.848 41.6345 117.81 42.8601C119.736 44.0599 121.433 45.594 122.82 47.3901Z" fill="#F08A5D"/>
<path d="M16.4297 102.75C16.4572 101.905 16.8052 101.102 17.4033 100.504C18.0013 99.9059 18.8044 99.5578 19.6497 99.5303H24.5597C25.2268 99.5762 25.8629 99.8292 26.3792 100.254C26.8955 100.679 27.2663 101.255 27.4397 101.9L29.3097 107.66C31.5889 104.559 34.5775 102.048 38.0256 100.338C41.4738 98.6276 45.2812 97.7678 49.1297 97.8303C55.5597 97.8303 63.3597 99.5303 61.4897 104.1L57.4297 112.4C57.2834 112.785 57.0571 113.133 56.7658 113.424C56.4744 113.714 56.1247 113.939 55.7398 114.083C55.3549 114.228 54.9436 114.289 54.5333 114.263C54.1229 114.236 53.7229 114.123 53.3597 113.93C51.5334 113.169 49.5781 112.765 47.5997 112.74C44.5666 112.707 41.5751 113.448 38.9083 114.894C36.2415 116.339 33.9876 118.441 32.3597 121V164C32.3597 166.88 30.4897 167.22 27.7797 167.22H19.6497C18.8052 167.19 18.0034 166.842 17.4059 166.244C16.8083 165.647 16.4595 164.845 16.4297 164V102.75Z" fill="#F08A5D"/>
<path d="M101.81 97.8301C119.43 97.8301 132.98 111.05 132.98 129.17C132.951 130.702 132.838 132.231 132.64 133.75C132.581 134.514 132.242 135.229 131.689 135.759C131.135 136.289 130.406 136.595 129.64 136.62H83.5198C83.892 141.538 86.1036 146.135 89.7138 149.495C93.3241 152.855 98.0679 154.731 103 154.75C109.1 154.75 114.69 152.04 118.07 149.84C120.07 148.65 121.29 147.98 122.65 149.67L127.39 156.11C128.58 157.46 129.09 158.82 127.05 160.51C122.14 164.75 113.33 169 102 169C81.4998 169 67.9998 152.91 67.9998 133.43C67.9298 114.26 81.4798 97.8301 101.81 97.8301ZM117.23 126C116.72 117.87 109.94 110.93 101.64 110.93C97.4069 110.865 93.2995 112.368 90.109 115.15C86.9185 117.933 84.8705 121.798 84.3598 126H117.23Z" fill="#F08A5D"/>
<path d="M149.24 51.9209C149.27 51.0774 149.619 50.2768 150.217 49.6809C150.814 49.085 151.616 48.7383 152.46 48.7109H162.12C162.962 48.7384 163.763 49.0854 164.359 49.6816C164.955 50.2777 165.302 51.0783 165.33 51.9209V164.071C165.302 164.915 164.956 165.716 164.36 166.314C163.764 166.912 162.963 167.261 162.12 167.291H152.46C151.615 167.261 150.813 166.912 150.216 166.315C149.618 165.717 149.27 164.915 149.24 164.071V51.9209Z" fill="#F08A5D"/>
<path d="M185.49 62.0908C185.455 60.7967 185.679 59.5088 186.148 58.3021C186.617 57.0955 187.322 55.9945 188.221 55.0634C189.12 54.1323 190.196 53.3899 191.386 52.8795C192.576 52.3691 193.855 52.101 195.15 52.0908C197.778 52.0908 200.299 53.1349 202.157 54.9934C204.016 56.8519 205.06 59.3725 205.06 62.0008C205.06 64.6291 204.016 67.1498 202.157 69.0083C200.299 70.8667 197.778 71.9108 195.15 71.9108C193.869 71.907 192.601 71.6492 191.421 71.1523C190.24 70.6555 189.169 69.9294 188.271 69.0162C187.373 68.103 186.664 67.0207 186.187 65.832C185.71 64.6433 185.473 63.3717 185.49 62.0908ZM187.36 102.751C187.385 101.906 187.731 101.103 188.327 100.505C188.923 99.9069 189.726 99.5584 190.57 99.5308H200.23C201.075 99.5583 201.878 99.9064 202.476 100.504C203.074 101.102 203.422 101.906 203.45 102.751V164.071C203.42 164.915 203.071 165.717 202.474 166.315C201.876 166.912 201.074 167.261 200.23 167.291H190.57C189.726 167.261 188.926 166.912 188.33 166.314C187.734 165.716 187.387 164.914 187.36 164.071V102.751Z" fill="#F08A5D"/>
<path d="M230.72 113.591H222.72C221.866 113.591 221.047 113.252 220.443 112.648C219.839 112.044 219.5 111.225 219.5 110.371V102.751C219.486 102.324 219.56 101.899 219.716 101.502C219.873 101.105 220.11 100.745 220.412 100.443C220.714 100.141 221.074 99.9046 221.471 99.7477C221.868 99.5908 222.293 99.517 222.72 99.5309H230.72V78.5309C230.72 57.5309 243.26 47.0209 259.52 47.0209C266.546 46.9846 273.368 49.38 278.83 53.8009C279.373 54.2725 279.737 54.9167 279.861 55.6251C279.984 56.3336 279.861 57.0631 279.51 57.6909L275.27 65.3209C274.43 66.8409 272.73 67.0109 271.04 65.8209C268.84 64.3009 263.92 61.7609 259.86 61.7609C252.4 61.7609 247.15 67.1809 247.15 78.5309V99.5309H265.45C265.876 99.517 266.301 99.5908 266.698 99.7477C267.095 99.9046 267.456 100.141 267.758 100.443C268.059 100.745 268.296 101.105 268.453 101.502C268.61 101.899 268.684 102.324 268.67 102.751V110.371C268.67 110.794 268.586 111.212 268.425 111.603C268.263 111.994 268.026 112.349 267.727 112.648C267.428 112.947 267.073 113.184 266.682 113.346C266.291 113.508 265.873 113.591 265.45 113.591H247.15V164.071C247.122 164.916 246.774 165.719 246.176 166.317C245.578 166.915 244.775 167.263 243.93 167.291H233.93C233.084 167.263 232.281 166.915 231.683 166.317C231.085 165.719 230.737 164.916 230.71 164.071L230.72 113.591Z" fill="#F08A5D"/>
<path d="M311.19 97.8301C328.8 97.8301 342.36 111.05 342.36 129.17C342.331 130.702 342.218 132.231 342.02 133.75C341.961 134.514 341.622 135.229 341.069 135.759C340.515 136.289 339.786 136.595 339.02 136.62H292.89C293.264 141.537 295.477 146.133 299.086 149.492C302.696 152.852 307.439 154.729 312.37 154.75C318.47 154.75 324.06 152.04 327.45 149.84C329.45 148.65 330.67 147.98 332.02 149.67L336.76 156.11C337.95 157.46 338.46 158.82 336.43 160.51C331.51 164.75 322.7 168.98 311.35 168.98C290.86 168.98 277.3 152.89 277.3 133.41C277.3 114.26 290.86 97.8301 311.19 97.8301ZM326.6 126C326.09 117.87 319.32 110.93 311.02 110.93C306.786 110.862 302.678 112.365 299.487 115.148C296.296 117.931 294.248 121.797 293.74 126H326.6Z" fill="#F08A5D"/>
<path d="M22.3197 192.48V201.12C22.2997 201.347 22.3256 201.575 22.3961 201.792C22.4665 202.008 22.58 202.208 22.7297 202.38C23.1349 202.672 23.6324 202.807 24.1297 202.76H26.1297V205.45H23.5697C22.3684 205.537 21.1767 205.181 20.2197 204.45C19.8003 204.014 19.4797 203.492 19.2796 202.921C19.0794 202.35 19.0044 201.743 19.0597 201.14V192.5H17.2197V189.86H19.0597V186H22.3197V189.88H26.1197V192.52L22.3197 192.48Z" fill="#F08A5D"/>
<path d="M28.9998 193.411C29.6061 192.244 30.5247 191.269 31.6531 190.595C32.7815 189.92 34.0753 189.573 35.3898 189.591C36.5027 189.564 37.605 189.811 38.5998 190.311C39.4574 190.741 40.2088 191.355 40.7998 192.111V189.841H44.0598V205.451H40.7898V203.131C40.1958 203.917 39.4296 204.557 38.5498 205.001C37.4635 205.528 36.2632 205.776 35.0569 205.724C33.8507 205.671 32.6764 205.32 31.6398 204.701C30.5104 203.986 29.5975 202.976 28.9998 201.781C28.326 200.481 27.9826 199.035 27.9998 197.571C27.98 196.122 28.3238 194.692 28.9998 193.411ZM40.1298 194.831C39.7415 194.091 39.1575 193.473 38.4415 193.042C37.7255 192.612 36.9051 192.387 36.0698 192.391C35.256 192.384 34.4551 192.595 33.7498 193.001C33.0161 193.425 32.4113 194.04 31.9998 194.781C31.5432 195.638 31.3158 196.6 31.3398 197.571C31.3188 198.558 31.5457 199.534 31.9998 200.411C32.4041 201.178 33.0134 201.819 33.7598 202.261C34.4574 202.68 35.256 202.901 36.0698 202.901C36.8844 202.903 37.6849 202.689 38.3898 202.281C39.1272 201.843 39.7293 201.209 40.1298 200.451C40.5941 199.585 40.8251 198.613 40.7998 197.631C40.8236 196.654 40.5891 195.688 40.1198 194.831H40.1298Z" fill="#F08A5D"/>
<path d="M54.4698 197.66L61.6698 205.45H57.2998L51.5298 198.74V205.45H48.2998V184.45H51.5298V196.63L57.1898 189.8H61.6698L54.4698 197.66Z" fill="#F08A5D"/>
<path d="M78.1799 198.851H66.26C66.2804 199.417 66.4129 199.974 66.6497 200.489C66.8866 201.004 67.2232 201.467 67.64 201.851C68.4722 202.617 69.5694 203.029 70.6999 203.001C71.4634 203.054 72.2249 202.874 72.8838 202.484C73.5426 202.095 74.0679 201.515 74.39 200.821H77.8699C77.4105 202.238 76.5144 203.474 75.3099 204.351C73.9647 205.3 72.3452 205.781 70.6999 205.721C69.3021 205.743 67.923 205.398 66.6999 204.721C65.5296 204.056 64.5697 203.075 63.93 201.891C63.2408 200.586 62.8966 199.126 62.93 197.651C62.9056 196.18 63.2494 194.725 63.93 193.421C64.5512 192.232 65.5073 191.252 66.68 190.601C67.9236 189.921 69.3228 189.576 70.74 189.601C72.1175 189.589 73.4746 189.934 74.6799 190.601C75.8163 191.225 76.7499 192.162 77.3699 193.301C78.0385 194.527 78.3827 195.904 78.3699 197.301C78.3488 197.822 78.2853 198.34 78.1799 198.851ZM74.92 196.241C74.9314 195.7 74.8236 195.163 74.6041 194.669C74.3846 194.175 74.0588 193.735 73.65 193.381C72.7886 192.653 71.6871 192.271 70.56 192.311C69.5065 192.287 68.4836 192.666 67.6999 193.371C66.8861 194.118 66.3798 195.141 66.28 196.241H74.92Z" fill="#F08A5D"/>
<path d="M88.7297 193.4C89.3468 192.222 90.2868 191.244 91.4397 190.58C92.7855 189.875 94.2933 189.535 95.8116 189.597C97.3299 189.658 98.8054 190.118 100.09 190.93C101.355 191.873 102.244 193.233 102.6 194.77H99.1097C98.8617 194.04 98.3892 193.406 97.7597 192.96C97.0603 192.502 96.235 192.275 95.3997 192.31C94.8022 192.284 94.2068 192.397 93.6602 192.64C93.1137 192.883 92.6309 193.249 92.2497 193.71C91.3995 194.834 90.9808 196.225 91.0697 197.63C90.9866 199.042 91.4045 200.437 92.2497 201.57C92.6284 202.036 93.1099 202.408 93.6565 202.656C94.2031 202.904 94.7998 203.022 95.3997 203C96.205 203.069 97.01 202.864 97.6836 202.417C98.3572 201.97 98.8598 201.309 99.1097 200.54H102.6C102.202 202.053 101.303 203.385 100.05 204.32C98.6975 205.289 97.062 205.782 95.3997 205.72C94.0004 205.756 92.6177 205.41 91.3997 204.72C90.2488 204.05 89.3097 203.069 88.6897 201.89C88.0513 200.57 87.7197 199.122 87.7197 197.655C87.7197 196.189 88.0513 194.741 88.6897 193.42L88.7297 193.4Z" fill="#F08A5D"/>
<path d="M108.6 204.701C107.421 204.037 106.451 203.057 105.8 201.871C105.106 200.567 104.762 199.107 104.8 197.631C104.771 196.156 105.134 194.7 105.85 193.411C106.515 192.215 107.507 191.234 108.71 190.581C109.961 189.93 111.35 189.591 112.76 189.591C114.17 189.591 115.559 189.93 116.81 190.581C118.012 191.234 119.004 192.215 119.67 193.411C120.368 194.705 120.713 196.161 120.67 197.631C120.698 199.109 120.324 200.568 119.59 201.851C118.901 203.058 117.886 204.046 116.66 204.701C115.403 205.374 113.996 205.718 112.57 205.701C111.182 205.717 109.814 205.373 108.6 204.701ZM114.94 202.301C115.684 201.883 116.297 201.267 116.71 200.521C117.15 199.625 117.379 198.639 117.379 197.641C117.379 196.642 117.15 195.657 116.71 194.761C116.322 194.021 115.728 193.41 115 193.001C114.288 192.603 113.485 192.397 112.67 192.401C111.86 192.395 111.064 192.602 110.36 193.001C109.636 193.41 109.051 194.027 108.68 194.771C108.239 195.661 108.025 196.647 108.06 197.641C107.969 199.059 108.431 200.457 109.35 201.541C109.761 201.987 110.263 202.339 110.822 202.576C111.38 202.812 111.983 202.926 112.59 202.911C113.412 202.912 114.222 202.702 114.94 202.301Z" fill="#F08A5D"/>
<path d="M135.08 190.351C136.05 190.862 136.844 191.653 137.36 192.621C137.931 193.74 138.213 194.984 138.18 196.241V205.451H135V196.721C135.091 195.562 134.733 194.413 134 193.511C133.631 193.131 133.185 192.834 132.691 192.641C132.198 192.448 131.669 192.362 131.14 192.391C130.608 192.363 130.076 192.449 129.58 192.642C129.083 192.835 128.634 193.131 128.26 193.511C127.502 194.402 127.122 195.553 127.2 196.721V205.451H123.9V189.841H127.13V191.631C127.665 190.973 128.351 190.455 129.13 190.121C129.958 189.767 130.85 189.587 131.75 189.591C132.906 189.565 134.05 189.826 135.08 190.351Z" fill="#F08A5D"/>
<path d="M146.05 192.48V201.12C146.03 201.347 146.056 201.575 146.126 201.792C146.197 202.008 146.31 202.208 146.46 202.38C146.869 202.672 147.37 202.807 147.87 202.76H149.87V205.45H147.3C146.102 205.538 144.913 205.182 143.96 204.45C143.537 204.016 143.214 203.495 143.012 202.923C142.81 202.352 142.734 201.744 142.79 201.14V192.5H141V189.86H142.84V186H146.1V189.88H149.9V192.52L146.05 192.48Z" fill="#F08A5D"/>
<path d="M157.94 190.251C158.797 189.792 159.758 189.565 160.73 189.591V192.931H159.9C159.379 192.899 158.857 192.971 158.364 193.142C157.871 193.314 157.418 193.582 157.03 193.931C156.272 194.87 155.913 196.07 156.03 197.271V205.491H152.8V189.841H156.03V192.111C156.486 191.329 157.147 190.687 157.94 190.251Z" fill="#F08A5D"/>
<path d="M166.48 204.701C165.298 204.037 164.325 203.057 163.67 201.871C162.976 200.567 162.632 199.107 162.67 197.631C162.626 196.161 162.971 194.705 163.67 193.411C164.335 192.215 165.327 191.234 166.53 190.581C167.781 189.93 169.17 189.591 170.58 189.591C171.99 189.591 173.379 189.93 174.63 190.581C175.832 191.234 176.824 192.215 177.49 193.411C178.188 194.705 178.533 196.161 178.49 197.631C178.518 199.109 178.145 200.568 177.41 201.851C176.721 203.058 175.706 204.046 174.48 204.701C173.223 205.375 171.816 205.719 170.39 205.701C169.022 205.707 167.676 205.363 166.48 204.701ZM172.81 202.301C173.554 201.883 174.167 201.267 174.58 200.521C175.055 199.633 175.289 198.637 175.26 197.631C175.29 196.634 175.066 195.647 174.61 194.761C174.217 194.015 173.616 193.4 172.88 192.991C172.171 192.593 171.372 192.386 170.56 192.391C169.75 192.383 168.953 192.59 168.25 192.991C167.523 193.4 166.935 194.016 166.56 194.761C166.119 195.651 165.905 196.637 165.94 197.631C165.849 199.049 166.311 200.447 167.23 201.531C167.641 201.976 168.143 202.329 168.702 202.565C169.261 202.801 169.863 202.916 170.47 202.901C171.288 202.903 172.094 202.697 172.81 202.301Z" fill="#F08A5D"/>
<path d="M185 184.49V205.49H181.77V184.49H185Z" fill="#F08A5D"/>
<path d="M199.39 204.701C198.211 204.037 197.241 203.057 196.59 201.871C195.896 200.567 195.552 199.107 195.59 197.631C195.561 196.156 195.924 194.7 196.64 193.411C197.302 192.213 198.295 191.23 199.5 190.581C200.751 189.93 202.14 189.591 203.55 189.591C204.96 189.591 206.349 189.93 207.6 190.581C208.802 191.234 209.794 192.215 210.46 193.411C211.176 194.7 211.538 196.156 211.51 197.631C211.538 199.109 211.165 200.568 210.43 201.851C209.739 203.056 208.724 204.043 207.5 204.701C206.243 205.374 204.836 205.718 203.41 205.701C202.005 205.726 200.619 205.381 199.39 204.701ZM205.72 202.301C206.468 201.889 207.082 201.271 207.49 200.521C207.969 199.635 208.204 198.637 208.17 197.631C208.205 196.634 207.981 195.645 207.52 194.761C207.13 194.013 206.528 193.397 205.79 192.991C205.081 192.598 204.285 192.391 203.475 192.391C202.665 192.391 201.868 192.598 201.16 192.991C200.434 193.398 199.848 194.015 199.48 194.761C199.035 195.65 198.819 196.637 198.85 197.631C198.759 199.049 199.221 200.447 200.14 201.531C200.553 201.977 201.057 202.33 201.617 202.566C202.177 202.802 202.782 202.916 203.39 202.901C204.205 202.905 205.008 202.698 205.72 202.301Z" fill="#F08A5D"/>
<path d="M221.23 192.481H218.34V205.481H215.08V192.481H213.24V189.841H215.08V188.741C215.015 188.021 215.11 187.296 215.357 186.617C215.605 185.938 215.998 185.321 216.51 184.811C217.816 183.887 219.405 183.452 221 183.581V186.271C220.269 186.196 219.536 186.392 218.94 186.821C218.714 187.083 218.545 187.389 218.442 187.719C218.338 188.049 218.304 188.397 218.34 188.741V189.841H221.23V192.481Z" fill="#F08A5D"/>
<path d="M245.51 189.841L235.93 212.841H232.59L235.76 205.241L229.62 189.891H233.21L237.6 201.791L242.16 189.891L245.51 189.841Z" fill="#F08A5D"/>
<path d="M250.72 204.701C249.541 204.037 248.571 203.057 247.92 201.871C247.222 200.569 246.877 199.107 246.92 197.631C246.876 196.161 247.221 194.705 247.92 193.411C248.588 192.217 249.579 191.236 250.78 190.581C252.032 189.93 253.423 189.591 254.835 189.591C256.246 189.591 257.637 189.93 258.89 190.581C260.09 191.236 261.082 192.217 261.75 193.411C262.466 194.7 262.828 196.156 262.8 197.631C262.828 199.109 262.454 200.568 261.72 201.851C261.026 203.054 260.011 204.04 258.79 204.701C257.529 205.375 256.119 205.719 254.69 205.701C253.302 205.717 251.934 205.373 250.72 204.701ZM257.05 202.301C257.798 201.889 258.412 201.271 258.82 200.521C259.295 199.633 259.529 198.637 259.5 197.631C259.53 196.634 259.306 195.647 258.85 194.761C258.457 194.015 257.856 193.4 257.12 192.991C256.411 192.593 255.612 192.387 254.8 192.391C253.99 192.385 253.194 192.592 252.49 192.991C251.763 193.4 251.175 194.016 250.8 194.761C250.363 195.653 250.15 196.638 250.18 197.631C250.089 199.049 250.551 200.447 251.47 201.531C251.881 201.976 252.383 202.329 252.942 202.565C253.501 202.801 254.103 202.916 254.71 202.901C255.528 202.904 256.334 202.697 257.05 202.301Z" fill="#F08A5D"/>
<path d="M280.15 189.841V205.451H276.92V203.611C276.386 204.27 275.7 204.788 274.92 205.121C274.097 205.493 273.203 205.684 272.3 205.681C271.153 205.698 270.02 205.434 269 204.911C268.027 204.4 267.229 203.609 266.71 202.641C266.122 201.527 265.832 200.28 265.87 199.021V189.841H269.07V198.541C268.99 199.707 269.366 200.858 270.12 201.751C270.49 202.13 270.936 202.426 271.429 202.619C271.922 202.812 272.451 202.898 272.98 202.871C273.512 202.898 274.044 202.812 274.54 202.619C275.036 202.426 275.486 202.13 275.86 201.751C276.621 200.861 277.002 199.708 276.92 198.541V189.841H280.15Z" fill="#F08A5D"/>
<path d="M289.51 190.251C290.368 189.794 291.329 189.567 292.3 189.591V192.931H291.48C290.959 192.898 290.437 192.97 289.944 193.142C289.452 193.314 288.998 193.582 288.61 193.931C287.848 194.868 287.489 196.069 287.61 197.271V205.491H284.4V189.841H287.63V192.111C288.081 191.335 288.73 190.694 289.51 190.251Z" fill="#F08A5D"/>
<path d="M305.87 184.49V205.49H302.64V184.49H305.87Z" fill="#F08A5D"/>
<path d="M310.29 187.18C309.904 186.786 309.688 186.257 309.688 185.705C309.688 185.154 309.904 184.625 310.29 184.23C310.482 184.037 310.711 183.885 310.964 183.784C311.217 183.682 311.487 183.633 311.76 183.64C312.029 183.636 312.296 183.686 312.545 183.788C312.794 183.889 313.02 184.039 313.21 184.23C313.588 184.628 313.799 185.156 313.799 185.705C313.799 186.254 313.588 186.782 313.21 187.18C313.02 187.371 312.794 187.522 312.545 187.623C312.296 187.724 312.029 187.774 311.76 187.77C311.487 187.777 311.217 187.728 310.964 187.627C310.711 187.526 310.482 187.374 310.29 187.18ZM313.35 189.84V205.45H310.12V189.84H313.35Z" fill="#F08A5D"/>
<path d="M324.14 192.481H321.25V205.481H318V192.481H316.16V189.841H318V188.741C317.935 188.021 318.03 187.296 318.277 186.617C318.524 185.938 318.918 185.321 319.43 184.811C320.736 183.887 322.325 183.452 323.92 183.581V186.271C323.189 186.196 322.456 186.392 321.86 186.821C321.634 187.083 321.465 187.389 321.361 187.719C321.258 188.049 321.224 188.397 321.26 188.741V189.841H324.15L324.14 192.481Z" fill="#F08A5D"/>
<path d="M341.19 198.85H329.27C329.289 199.418 329.422 199.976 329.661 200.491C329.9 201.006 330.239 201.469 330.66 201.85C331.495 202.609 332.592 203.014 333.72 202.98C334.482 203.033 335.242 202.852 335.899 202.463C336.556 202.073 337.079 201.494 337.4 200.8H340.88C340.424 202.22 339.527 203.456 338.32 204.33C336.978 205.279 335.362 205.761 333.72 205.7C332.322 205.722 330.943 205.377 329.72 204.7C328.547 204.036 327.584 203.055 326.94 201.87C326.251 200.565 325.906 199.106 325.94 197.63C325.915 196.159 326.259 194.705 326.94 193.4C327.561 192.212 328.517 191.231 329.69 190.58C330.937 189.9 332.339 189.556 333.76 189.58C335.134 189.568 336.488 189.912 337.69 190.58C338.828 191.202 339.762 192.14 340.38 193.28C341.053 194.505 341.397 195.883 341.38 197.28C341.36 197.808 341.296 198.333 341.19 198.85ZM337.94 196.24C337.949 195.699 337.84 195.162 337.618 194.668C337.397 194.173 337.07 193.734 336.66 193.38C335.798 192.652 334.697 192.271 333.57 192.31C332.516 192.288 331.494 192.667 330.71 193.37C329.899 194.118 329.396 195.142 329.3 196.24H337.94Z" fill="#F08A5D"/>
</svg>
