<svg width="79" height="39" viewBox="0 0 79 39" fill="none" xmlns="http://www.w3.org/2000/svg">
<path d="M11.3596 9.41817C9.5554 9.41817 8.52215 8.00682 8.51074 7.99083L8.78217 7.79443C9.19981 8.34203 9.77942 8.74367 10.4384 8.94214C11.0974 9.14061 11.8021 9.12578 12.4522 8.89976L12.5571 9.21948C12.1711 9.34921 11.7668 9.41629 11.3596 9.41817Z" fill="#F08A5D"/>
<path d="M11.3602 9.42968C10.8079 9.42237 10.2635 9.29701 9.76353 9.062C9.51305 8.94161 9.27667 8.79378 9.05873 8.62124C8.83948 8.44709 8.63986 8.24952 8.46341 8.03203C8.45087 8.01923 8.44385 8.00201 8.44385 7.98408C8.44385 7.96614 8.45087 7.94892 8.46341 7.93612L8.73256 7.73743C8.74817 7.72613 8.76751 7.72126 8.7866 7.72381C8.8057 7.72635 8.82309 7.73614 8.8352 7.75114C9.0447 8.01001 9.29145 8.23629 9.56737 8.42255C9.84174 8.60783 10.1435 8.74885 10.4615 8.84047C10.7774 8.93374 11.1063 8.97538 11.4354 8.96379C11.7666 8.95096 12.0954 8.90272 12.4162 8.81992H12.4299C12.4498 8.8157 12.4706 8.81926 12.488 8.82988C12.5054 8.84049 12.5181 8.85735 12.5234 8.87701L12.6101 9.2013C12.6137 9.21702 12.6112 9.23352 12.6032 9.2475C12.5952 9.26147 12.5822 9.27189 12.5668 9.27666C12.1731 9.38075 11.7674 9.4322 11.3602 9.42968ZM11.3602 9.40684C11.5627 9.40465 11.7645 9.38169 11.9623 9.33832C12.158 9.29204 12.3501 9.23175 12.5371 9.15791L12.4961 9.24013L12.3729 8.92725L12.4801 8.97978C12.1514 9.10794 11.8039 9.18123 11.4514 9.19673C11.0972 9.21526 10.7428 9.16644 10.4067 9.05286C10.0718 8.94309 9.75625 8.78126 9.47157 8.57328C9.18674 8.36726 8.93387 8.12023 8.72115 7.8402L8.82835 7.85847L8.55236 8.04802L8.56833 7.94754C8.73105 8.16227 8.91778 8.35766 9.12487 8.52989C9.33241 8.70335 9.55623 8.85632 9.79318 8.98663C10.2701 9.26028 10.8105 9.40361 11.3602 9.40227V9.40684Z" fill="#F08A5D"/>
<path d="M12.4836 7.77921C9.36104 7.41609 9.16488 4.5112 9.1626 4.47237L9.49561 4.4541C9.49561 4.56372 9.68493 7.10779 12.5224 7.43665L12.4836 7.77921Z" fill="#F08A5D"/>
<path d="M12.4917 7.78834C12.2842 7.7518 12.0629 7.73353 11.8554 7.68329C11.648 7.63286 11.4451 7.56565 11.2486 7.48232C10.8484 7.32311 10.4839 7.08553 10.1766 6.7835C9.86679 6.48118 9.61411 6.12529 9.43074 5.73299C9.24573 5.33993 9.12483 4.91972 9.07263 4.48836C9.07104 4.47737 9.07168 4.46618 9.07452 4.45545C9.07736 4.44472 9.08234 4.43468 9.08916 4.42594C9.09598 4.41719 9.1045 4.40991 9.1142 4.40455C9.1239 4.39918 9.13459 4.39584 9.14562 4.39472L9.47864 4.37188C9.50273 4.36994 9.52665 4.37742 9.54536 4.39275C9.56407 4.40808 9.57613 4.43006 9.579 4.4541C9.62223 4.82489 9.72626 5.18601 9.88692 5.52288C10.0433 5.86214 10.258 6.17132 10.521 6.43638C10.78 6.70718 11.0901 6.92376 11.4334 7.07353C11.6034 7.15503 11.7796 7.22299 11.9603 7.27679C12.1427 7.33159 12.3298 7.36357 12.5168 7.41152C12.5245 7.41367 12.5311 7.41861 12.5353 7.42537C12.5395 7.43213 12.5411 7.44022 12.5396 7.44806C12.5351 7.5691 12.5123 7.68101 12.4917 7.78834ZM12.4758 7.77007L12.4894 7.44121L12.5191 7.47775C12.3247 7.46213 12.1314 7.43622 11.9397 7.40011C11.7468 7.36058 11.5576 7.30481 11.3741 7.23339C10.9998 7.09016 10.658 6.873 10.3692 6.59484C10.0804 6.31668 9.85048 5.98319 9.69304 5.61423C9.53251 5.25268 9.43381 4.86668 9.40109 4.47237L9.50144 4.56143L9.16615 4.57514L9.25054 4.47922C9.292 4.8922 9.39822 5.29605 9.56531 5.67589C9.72909 6.05794 9.96096 6.40695 10.2496 6.70585C10.5384 7.00935 10.8841 7.253 11.2669 7.42294C11.4579 7.51535 11.6563 7.59174 11.8599 7.65132C12.0675 7.69471 12.2682 7.7244 12.4758 7.77007Z" fill="#F08A5D"/>
<path d="M26.4356 9.55068L26.2896 9.24923C27.0138 8.90966 27.673 8.44593 28.2375 7.879C29.0518 7.04772 29.4031 6.24156 29.8479 5.22074C30.0463 4.76399 30.2698 4.25015 30.5595 3.68151C31.1371 2.55075 31.8247 1.47982 32.6123 0.48429C30.3976 0.146298 29.9642 1.74719 29.9482 1.82027L29.9026 2.00068L29.727 1.93674C27.9638 1.27446 27.0766 2.95071 27.0401 3.02151L26.9922 3.11514H26.8895C25.8129 3.10144 25.0648 3.34352 24.6611 3.81625C24.5409 3.96494 24.4525 4.13666 24.4011 4.32086C24.3497 4.50505 24.3365 4.69782 24.3623 4.88732L24.4033 5.0997H24.1889C23.2766 5.04718 22.5923 5.24358 22.1156 5.68205C21.7384 6.04376 21.5063 6.53113 21.4632 7.05229H21.1279C21.1638 6.43659 21.4311 5.8573 21.8761 5.43084C22.3824 4.95811 23.1055 4.72974 24.0064 4.74572C23.9921 4.33123 24.1282 3.92557 24.3896 3.60386C24.8458 3.05805 25.651 2.78172 26.7869 2.77943C27.015 2.4049 27.9821 1.03924 29.6722 1.56906C29.873 1.07349 30.6462 -0.280758 32.9454 0.198824L33.2122 0.255917L33.0412 0.470588C32.1943 1.50663 31.4595 2.62965 30.8492 3.82081C30.5641 4.38033 30.3428 4.8896 30.1467 5.33949C29.6905 6.39229 29.3255 7.22585 28.4656 8.10052C27.8791 8.6993 27.192 9.19016 26.4356 9.55068Z" fill="#F08A5D"/>
<path d="M26.4311 9.56258L26.2783 9.25428C26.2762 9.25215 26.275 9.24928 26.275 9.24629C26.275 9.2433 26.2762 9.24043 26.2783 9.2383C27.1081 8.84354 27.8492 8.28414 28.4566 7.59401C29.0678 6.9089 29.4465 6.05707 29.8046 5.21437C30.1667 4.36828 30.5717 3.54125 31.018 2.73653C31.48 1.93976 31.9975 1.17662 32.5668 0.452801L32.5987 0.532731C32.4573 0.519029 32.3159 0.500759 32.1745 0.491624C32.0321 0.487063 31.8897 0.491639 31.7479 0.505326C31.4655 0.526868 31.1903 0.604502 30.9382 0.733699C30.6872 0.858347 30.468 1.03879 30.2973 1.26124C30.1234 1.48351 30.0053 1.7443 29.9528 2.02172C29.9496 2.03626 29.9409 2.04902 29.9287 2.05748C29.9164 2.06594 29.9014 2.06948 29.8867 2.0674H29.873C29.6108 1.95922 29.3341 1.88998 29.0519 1.86186C28.7719 1.84171 28.4912 1.88869 28.233 1.99888C27.9763 2.1102 27.7438 2.2708 27.5488 2.47161C27.3472 2.67113 27.18 2.90262 27.0538 3.15673C27.0483 3.16774 27.0398 3.17699 27.0293 3.18345C27.0189 3.1899 27.0068 3.1933 26.9945 3.19327C26.6758 3.18432 26.3569 3.20189 26.0411 3.2458C25.729 3.28678 25.4265 3.38183 25.1469 3.5267C24.9409 3.6306 24.7662 3.78753 24.6407 3.98137C24.5153 4.17522 24.4436 4.39899 24.433 4.62974C24.4261 4.7057 24.4261 4.78214 24.433 4.85811L24.4764 5.08648C24.4787 5.09669 24.4789 5.10727 24.4771 5.11758C24.4752 5.12788 24.4713 5.13771 24.4655 5.14645C24.4598 5.1552 24.4523 5.16269 24.4436 5.16848C24.4349 5.17426 24.4251 5.17822 24.4148 5.18012H24.3942C24.0676 5.15225 23.739 5.15761 23.4135 5.1961C23.0931 5.234 22.7832 5.33406 22.5011 5.4907C22.2238 5.65048 21.9933 5.88045 21.8328 6.15755C21.6723 6.43708 21.5771 6.7494 21.5545 7.07104C21.5528 7.09406 21.5424 7.11557 21.5255 7.13125C21.5086 7.14693 21.4863 7.1556 21.4633 7.15554H21.128C21.1165 7.15555 21.1051 7.15323 21.0946 7.1487C21.084 7.14417 21.0745 7.13753 21.0666 7.1292C21.0587 7.12086 21.0526 7.111 21.0486 7.10021C21.0447 7.08943 21.043 7.07795 21.0436 7.06647C21.0637 6.70823 21.1585 6.35816 21.3219 6.0388C21.4839 5.71704 21.7181 5.43721 22.0061 5.22122C22.2934 5.00634 22.6207 4.85106 22.9687 4.76448C23.3115 4.68306 23.6633 4.64545 24.0156 4.65257L23.9107 4.75991C23.8989 4.41763 23.9835 4.07894 24.1548 3.78247C24.3308 3.48959 24.581 3.2485 24.8801 3.08365C25.4744 2.79156 26.1322 2.65262 26.7938 2.67943L26.698 2.73196C26.8533 2.4812 27.0395 2.25101 27.2522 2.04684C27.4665 1.84344 27.7122 1.67609 27.9799 1.55127C28.2515 1.42799 28.5441 1.35746 28.842 1.34345C29.1378 1.3365 29.4328 1.37737 29.7156 1.46449L29.5765 1.53072C29.7152 1.19365 29.9271 0.891744 30.1969 0.646918C30.4664 0.401197 30.7887 0.220715 31.1389 0.119377C31.4846 0.023617 31.8437 -0.014953 32.2018 0.00519116C32.5533 0.0306422 32.902 0.0856458 33.2442 0.16962C33.2574 0.172585 33.2699 0.178132 33.2809 0.185944C33.292 0.193755 33.3014 0.203677 33.3086 0.215137C33.3158 0.226597 33.3207 0.23937 33.3229 0.252723C33.3252 0.266075 33.3248 0.279742 33.3218 0.292939C33.3177 0.308571 33.3107 0.323294 33.3012 0.336331C32.6734 1.08051 32.1009 1.86975 31.5883 2.6977C31.3351 3.11334 31.091 3.53355 30.8766 3.97202L30.2539 5.2943C30.0532 5.73963 29.8616 6.1918 29.6267 6.62343C29.3965 7.06008 29.1155 7.4679 28.7896 7.83837C28.1324 8.57176 27.3289 9.15912 26.4311 9.56258ZM26.4311 9.54203C27.3037 9.11157 28.0798 8.50784 28.712 7.76757C29.0246 7.3962 29.2946 6.99099 29.5172 6.55949C29.7453 6.13014 29.9278 5.67797 30.1239 5.23036L30.7329 3.89209C30.9428 3.44905 31.1891 3.01971 31.4354 2.5995C31.9417 1.75823 32.5089 0.955255 33.1324 0.197023L33.1917 0.363736C32.8601 0.287836 32.523 0.238201 32.1836 0.215294C31.8497 0.202655 31.5159 0.241162 31.1937 0.32948C30.8768 0.422486 30.5849 0.585748 30.3397 0.807145C30.0945 1.02854 29.9023 1.30239 29.7772 1.60837C29.7666 1.63383 29.7471 1.65456 29.7223 1.66674C29.6976 1.67891 29.6693 1.6817 29.6426 1.67459C29.3849 1.59547 29.1162 1.5577 28.8466 1.56269C28.5786 1.57556 28.3155 1.6391 28.0711 1.74996C27.5803 1.9908 27.1693 2.36823 26.8873 2.83701C26.8768 2.8531 26.8627 2.86647 26.846 2.876C26.8293 2.88553 26.8107 2.89095 26.7915 2.89182C26.1675 2.86645 25.5468 2.99342 24.9827 3.26178C24.7161 3.40614 24.492 3.61795 24.3327 3.87611C24.1778 4.13695 24.0988 4.43595 24.1046 4.73936C24.1052 4.76684 24.095 4.79347 24.0763 4.81353C24.0575 4.8336 24.0316 4.8455 24.0042 4.84669C23.335 4.80182 22.6698 4.98097 22.1133 5.35596C21.8499 5.55472 21.634 5.80985 21.4815 6.10274C21.3298 6.39637 21.2405 6.71829 21.2192 7.0482L21.1303 6.95685H21.4655L21.3743 7.04592C21.4041 6.70086 21.5125 6.36725 21.6914 6.07077C21.8684 5.76979 22.1207 5.52026 22.4235 5.34683C22.725 5.18095 23.0558 5.07546 23.3975 5.03624C23.733 4.99823 24.0716 4.9944 24.4079 5.02482L24.3258 5.11845C24.2366 4.78879 24.2582 4.43888 24.3874 4.12275C24.526 3.80902 24.7674 3.55203 25.0717 3.39424C25.3699 3.24157 25.6926 3.14263 26.0251 3.10192C26.3493 3.05793 26.6766 3.04112 27.0036 3.05168L26.9397 3.0905C27.073 2.82419 27.2496 2.58187 27.4621 2.37341C27.6733 2.16151 27.9235 1.99246 28.1988 1.87556C28.4765 1.76046 28.7772 1.71197 29.077 1.73397C29.3718 1.76739 29.66 1.84435 29.9323 1.96234L29.8525 2.00573C29.9105 1.71343 30.0363 1.43885 30.2197 1.20415C30.4025 0.968747 30.6366 0.778175 30.904 0.646918C31.1691 0.515848 31.4574 0.438252 31.7525 0.418545C31.899 0.408281 32.0461 0.408281 32.1927 0.418545C32.3387 0.418545 32.4824 0.448233 32.6284 0.464219C32.6347 0.464791 32.6408 0.466607 32.6464 0.469563C32.652 0.472518 32.6569 0.476555 32.661 0.481438C32.665 0.486322 32.668 0.491957 32.6699 0.498017C32.6717 0.504077 32.6723 0.510442 32.6717 0.516745C32.6703 0.526021 32.6664 0.534723 32.6603 0.541866C32.089 1.25903 31.5685 2.01526 31.1024 2.80504C30.6524 3.60417 30.2436 4.42587 29.8776 5.2669C29.5126 6.10502 29.1249 6.96142 28.509 7.64882C27.8953 8.33968 27.1471 8.89767 26.3102 9.28854V9.27255L26.4311 9.54203Z" fill="#F08A5D"/>
<path d="M28.7224 10.688C27.9903 9.74713 27.1554 9.25385 26.2362 9.22187C24.8677 9.1762 23.7432 10.1582 23.3417 10.5556C22.9494 9.99377 21.517 8.4317 17.6554 8.22845C13.2738 8.00008 12.7697 4.59505 12.7492 4.45117L12.4162 4.49456C12.4162 4.53339 12.9727 8.31752 17.6372 8.56416C22.0507 8.79253 23.1524 10.8821 23.1638 10.905L23.2756 11.1334L23.4398 10.9461C23.4512 10.9324 24.724 9.51191 26.2271 9.57585C27.0528 9.60554 27.8237 10.0669 28.4852 10.9461L28.5149 10.9849L29.8606 11.4873L28.337 12.7959V12.8644C28.337 12.9238 28.1955 14.3169 26.3594 14.7051L26.2933 14.7211L26.2545 14.7759C26.1541 14.9266 23.7455 18.3887 19.1038 15.8972C19.3319 15.7191 20.0162 15.0591 20.7803 13.3691L20.4746 13.2321C19.6284 15.1207 18.8552 15.6665 18.8483 15.6711L18.9419 15.8104L18.8461 15.7556L18.7571 15.8241C18.6887 15.8767 11.7615 20.9922 1.44722 16.3951C1.95815 16.0023 3.39057 15.1253 4.98493 16.1393L5.24267 16.3014V16.0251C5.31794 15.8447 6.171 14.0291 9.12023 14.8695H9.16813C9.2913 14.8695 9.32779 14.7645 9.35288 14.6868C9.78626 13.3646 10.8492 12.8416 12.4276 13.1773H12.4618C12.6078 13.1773 12.6328 13.0334 12.6397 12.9877C12.6636 12.8118 12.7236 12.6427 12.8158 12.491C12.9081 12.3393 13.0306 12.2083 13.1757 12.1062C13.6889 11.75 14.5123 11.6769 15.6277 11.8778L15.6893 11.549C14.4827 11.3206 13.5726 11.412 12.9864 11.823C12.6503 12.0537 12.4166 12.4056 12.334 12.805C10.7077 12.5127 9.55132 13.1065 9.0632 14.4881C7.34339 14.0314 6.29873 14.4562 5.71938 14.8946C5.41955 15.1203 5.17145 15.4077 4.99177 15.7373C2.88192 14.5452 1.0321 16.2809 1.01385 16.2991L0.835938 16.4704L1.06403 16.5732C4.40101 18.1033 7.39585 18.6285 9.94136 18.6285C15.0164 18.6285 18.2918 16.5344 18.8689 16.137C23.4946 18.6719 26.1359 15.4747 26.4894 14.9951C28.2708 14.5886 28.6038 13.2664 28.6586 12.9398L30.5152 11.3412L28.7224 10.688Z" fill="#F08A5D"/>
<path d="M28.7165 10.697C28.4023 10.2805 28.016 9.92395 27.576 9.64419C27.132 9.36887 26.6178 9.22845 26.0957 9.23998C25.5744 9.25772 25.0644 9.39691 24.6063 9.64648C24.1481 9.88839 23.7277 10.1961 23.3586 10.56C23.3572 10.5623 23.3552 10.5643 23.3528 10.5657C23.3504 10.567 23.3477 10.5677 23.3449 10.5677C23.3422 10.5677 23.3394 10.567 23.337 10.5657C23.3346 10.5643 23.3326 10.5623 23.3312 10.56C23.0056 10.1256 22.6008 9.75676 22.1383 9.47291C21.6789 9.18447 21.1855 8.95433 20.6694 8.7878C20.1541 8.61867 19.6264 8.49038 19.091 8.40413C18.8241 8.36074 18.5527 8.32877 18.2836 8.29908C18.0144 8.26939 17.743 8.26482 17.4715 8.23514L17.0655 8.19403C16.9971 8.19403 16.9287 8.18261 16.8625 8.17119L16.6618 8.13009L16.2604 8.04559C16.1276 8.01295 15.9967 7.97332 15.8681 7.92683C15.3445 7.76544 14.8529 7.51431 14.4151 7.18462C13.5254 6.51766 12.9201 5.53886 12.7204 4.44415L12.7592 4.47384L12.4262 4.51723L12.4581 4.47841C12.6738 5.59679 13.2783 6.60249 14.1642 7.31708C14.385 7.4915 14.6183 7.64949 14.8622 7.78981L15.2431 7.97251L15.4347 8.06157L15.6354 8.13009L16.0346 8.26483C16.1714 8.30365 16.3106 8.32648 16.4474 8.35617C16.5843 8.38586 16.7234 8.4224 16.8625 8.44067L17.2822 8.48406C17.8433 8.54801 18.4227 8.56171 18.9792 8.65991C19.2598 8.69873 19.5381 8.76953 19.8163 8.82662C20.0946 8.88372 20.3706 8.9705 20.6375 9.07326C21.179 9.25813 21.693 9.51548 22.1657 9.83831C22.4018 10.0019 22.6218 10.1877 22.8226 10.3933C22.9233 10.4967 23.0163 10.6074 23.1008 10.7244C23.183 10.8436 23.2548 10.9697 23.3153 11.1012H23.2286C23.5665 10.699 23.9651 10.3523 24.4101 10.0735C24.8524 9.78113 25.3556 9.59367 25.8813 9.52544C26.4138 9.46758 26.9504 9.58805 27.4072 9.868C27.8531 10.1487 28.2404 10.5132 28.5477 10.9414L28.5226 10.9231L29.8683 11.4232C29.8833 11.4289 29.8955 11.4402 29.9023 11.4546C29.9091 11.4691 29.91 11.4857 29.9048 11.5009C29.9023 11.5113 29.8957 11.5203 29.8866 11.526L28.3652 12.8368L28.3857 12.7935C28.3623 13.0541 28.2846 13.3069 28.1576 13.5357C28.033 13.7647 27.8684 13.9697 27.6718 14.1409C27.4745 14.3081 27.254 14.4458 27.0172 14.5496C26.9009 14.6022 26.7891 14.6433 26.6568 14.6844C26.5245 14.7255 26.4082 14.7506 26.285 14.778L26.3261 14.7506C25.9301 15.3019 25.4275 15.7679 24.848 16.1208C24.2716 16.4858 23.6223 16.7196 22.9457 16.806C22.7785 16.8345 22.609 16.8482 22.4394 16.8471H22.1839C22.0995 16.8471 22.0151 16.8334 21.9307 16.8288C21.7642 16.8128 21.5932 16.8014 21.4267 16.7808L20.9294 16.6735L20.6831 16.6187L20.4436 16.5342L19.9646 16.3698C19.6544 16.2396 19.3533 16.0866 19.0522 15.945C19.0357 15.9366 19.023 15.9223 19.0167 15.9049C19.0103 15.8876 19.0108 15.8684 19.018 15.8514C19.0228 15.8421 19.0289 15.8336 19.0363 15.8262C19.2244 15.6629 19.3963 15.4816 19.5495 15.285C19.7045 15.0863 19.8491 14.8797 19.9828 14.6661C20.248 14.2355 20.4843 13.7877 20.6899 13.3256L20.7264 13.4238L20.4231 13.2867L20.5211 13.2502C20.4208 13.4786 20.3136 13.7069 20.1995 13.9193C20.0855 14.1317 19.9714 14.3555 19.8277 14.5656C19.6963 14.7767 19.5531 14.9803 19.3989 15.1754C19.2441 15.3778 19.0665 15.5617 18.8697 15.7235L18.8903 15.6139L18.9838 15.7532C18.9898 15.7617 18.994 15.7713 18.9963 15.7814C18.9985 15.7916 18.9986 15.8021 18.9967 15.8123C18.9948 15.8225 18.9909 15.8323 18.9851 15.841C18.9794 15.8496 18.9719 15.857 18.9633 15.8628C18.9508 15.87 18.9366 15.8738 18.9222 15.8738C18.9078 15.8738 18.8936 15.87 18.8812 15.8628L18.7854 15.8103H18.872C18.2483 16.2518 17.5811 16.6283 16.8808 16.9339C16.1858 17.2455 15.4692 17.5065 14.7367 17.7149C13.2724 18.1345 11.7594 18.3595 10.2365 18.384C9.47477 18.3979 8.71294 18.3636 7.95556 18.2812C7.57693 18.2516 7.20058 18.183 6.8151 18.1328C6.42963 18.0826 6.06468 18.0049 5.69517 17.9044C4.21161 17.5675 2.76466 17.0856 1.37512 16.4657C1.35187 16.4556 1.33355 16.4368 1.32414 16.4132C1.31474 16.3897 1.31502 16.3634 1.32494 16.3401C1.33156 16.3249 1.34173 16.3116 1.35459 16.3013C1.90995 15.8604 2.58616 15.5991 3.29337 15.5522C3.64848 15.5368 4.0032 15.5903 4.33803 15.7098C4.66474 15.8358 4.97555 15.9999 5.26408 16.1985L5.1067 16.283V16.0067C5.10331 15.9939 5.10331 15.9806 5.1067 15.9678C5.18636 15.7903 5.2908 15.625 5.4169 15.4768C5.4762 15.3992 5.54919 15.3352 5.61306 15.2644C5.67693 15.1936 5.75676 15.1343 5.84115 15.0817C6.15113 14.8533 6.50542 14.6922 6.88125 14.609C7.25641 14.5334 7.64045 14.5118 8.02171 14.5451C8.21102 14.5588 8.39578 14.5953 8.58053 14.6204L9.1462 14.7483H9.19182H9.16901C9.18322 14.749 9.19713 14.7441 9.20778 14.7346C9.22326 14.7121 9.23554 14.6875 9.24428 14.6615L9.33324 14.4149C9.36745 14.335 9.40851 14.255 9.445 14.1728C9.48149 14.0906 9.53396 14.0175 9.58186 13.9445C9.78039 13.6415 10.0518 13.3934 10.3711 13.2228C10.6921 13.0607 11.0449 12.971 11.4043 12.9602C11.7558 12.9487 12.1074 12.9802 12.4512 13.0538H12.4627C12.4991 13.0538 12.5014 13.0538 12.5242 12.9921C12.5373 12.9113 12.5548 12.8312 12.5767 12.7523C12.6242 12.5874 12.7015 12.4326 12.8048 12.2956C13.0284 12.0259 13.3333 11.836 13.6738 11.7544C13.9978 11.6726 14.3323 11.6402 14.666 11.6584C14.9938 11.6724 15.3201 11.7106 15.6423 11.7726L15.51 11.864L15.5715 11.5351L15.6628 11.6676C15.3414 11.6052 15.0159 11.5662 14.6888 11.5511C14.3658 11.5339 14.042 11.5608 13.7263 11.631C13.4182 11.6963 13.1312 11.8376 12.8915 12.0421C12.6601 12.2527 12.5005 12.5307 12.4353 12.8368C12.4287 12.8647 12.412 12.8891 12.3883 12.9052C12.3647 12.9212 12.3358 12.9278 12.3076 12.9236C11.6649 12.7829 10.9947 12.8426 10.387 13.0949C10.0951 13.2322 9.83725 13.4327 9.63204 13.6818C9.43253 13.9376 9.27824 14.2257 9.17585 14.5337C9.16601 14.5604 9.1465 14.5826 9.12117 14.5957C9.09584 14.6088 9.06652 14.6119 9.039 14.6044C8.31599 14.394 7.55259 14.3634 6.8151 14.5154C6.45603 14.6004 6.11728 14.7556 5.81834 14.9721C5.52068 15.1898 5.27459 15.4705 5.09757 15.7943C5.08308 15.8203 5.05915 15.8398 5.03072 15.8488C5.00228 15.8577 4.97151 15.8554 4.94475 15.8422C4.62522 15.6652 4.27825 15.5433 3.91834 15.4814C3.55771 15.4254 3.18997 15.4347 2.83262 15.5088C2.47253 15.5869 2.1259 15.7177 1.80393 15.897C1.47844 16.0717 1.1809 16.2942 0.921213 16.557L0.891562 16.3789C2.30442 17.0477 3.7787 17.5777 5.29373 17.9615C6.81012 18.3394 8.36595 18.5356 9.92856 18.5462C11.4892 18.5482 13.0435 18.3463 14.552 17.9455C16.066 17.555 17.5087 16.9268 18.8264 16.0843C18.8369 16.0787 18.8487 16.0758 18.8606 16.0758C18.8726 16.0758 18.8843 16.0787 18.8948 16.0843C19.2096 16.2327 19.5175 16.4017 19.8414 16.541C20.1644 16.6737 20.4968 16.7821 20.8359 16.8653C21.5102 17.0482 22.2137 17.0979 22.907 17.0115C23.6049 16.929 24.2782 16.7027 24.8845 16.3469C25.4914 15.9975 26.0269 15.5365 26.4629 14.9881C26.4698 14.9807 26.4784 14.9752 26.488 14.9721C26.7425 14.9135 26.9901 14.8285 27.227 14.7186C27.4638 14.6086 27.6828 14.4639 27.8771 14.2893C28.2682 13.9391 28.5348 13.471 28.6366 12.9556C28.6343 12.9497 28.6343 12.9432 28.6366 12.9373L30.4979 11.3524V11.3867L28.7165 10.697ZM28.7302 10.6787L30.5184 11.3364C30.5231 11.3385 30.5268 11.3422 30.5289 11.3468C30.531 11.3514 30.5313 11.3567 30.5298 11.3616L28.68 12.9602V12.9419C28.5795 13.4702 28.3096 13.9513 27.9113 14.3121C27.7146 14.4973 27.4907 14.6513 27.2476 14.7689C27.0062 14.8849 26.7531 14.9745 26.4926 15.0361L26.5177 15.0201C26.0787 15.5824 25.5368 16.056 24.921 16.4154C24.3066 16.7787 23.6242 17.0119 22.9161 17.1006C22.2088 17.1909 21.4907 17.1428 20.8017 16.959C20.4566 16.8761 20.118 16.7677 19.789 16.6347C19.4582 16.5045 19.1457 16.3332 18.8241 16.1779H18.8948C17.5681 17.0356 16.1138 17.677 14.5862 18.078C13.0622 18.4895 11.491 18.6991 9.91259 18.7015C8.33541 18.6988 6.76418 18.5079 5.23215 18.1328C3.70203 17.7532 2.21242 17.2254 0.784358 16.557C0.758016 16.5446 0.737555 16.5224 0.727331 16.4951C0.717107 16.4678 0.717927 16.4376 0.729616 16.4109L0.750144 16.3812C1.02253 16.1036 1.33462 15.8681 1.6762 15.6824C2.0167 15.4915 2.38324 15.3515 2.76419 15.2667C3.14937 15.1873 3.54561 15.1772 3.9343 15.237C4.32285 15.3084 4.69675 15.4442 5.04055 15.639L4.88545 15.6869C5.07773 15.3329 5.34564 15.0257 5.67008 14.7871C5.9963 14.5513 6.36616 14.3828 6.75808 14.2916C7.53165 14.1307 8.3328 14.1621 9.09146 14.3829L8.95688 14.4537C9.07183 14.1223 9.24314 13.8132 9.46325 13.5402C9.6903 13.265 9.9754 13.0435 10.2981 12.8917C10.6184 12.7445 10.9635 12.6585 11.3154 12.6382C11.6626 12.6182 12.011 12.6396 12.3532 12.7021L12.2232 12.7889C12.2968 12.4364 12.4805 12.1164 12.7478 11.8754C13.0156 11.6473 13.3364 11.4902 13.6807 11.4187C14.0166 11.3441 14.3612 11.3157 14.7048 11.3342C15.0425 11.3496 15.3786 11.3893 15.7107 11.4529C15.7403 11.4585 15.7665 11.4755 15.7836 11.5003C15.8006 11.5251 15.8072 11.5557 15.8019 11.5854L15.7381 11.9142C15.7325 11.9438 15.7155 11.9701 15.6907 11.9872C15.6659 12.0043 15.6354 12.0109 15.6058 12.0056C14.9927 11.8635 14.3563 11.8557 13.74 11.9827C13.4473 12.0488 13.1845 12.2092 12.9918 12.4395C12.9011 12.5556 12.8337 12.6882 12.7934 12.83C12.7712 12.905 12.7537 12.9812 12.7409 13.0584C12.7253 13.1182 12.6937 13.1726 12.6497 13.2159C12.6247 13.2395 12.5953 13.2579 12.5632 13.2701C12.5311 13.2822 12.497 13.2879 12.4627 13.2867H12.4512H12.417C12.0922 13.2145 11.7596 13.1838 11.4271 13.1954C11.1 13.2 10.7781 13.2781 10.4851 13.4238C10.1936 13.5717 9.94465 13.7918 9.76205 14.0632C9.71871 14.1317 9.67765 14.2025 9.6366 14.2733C9.59554 14.3441 9.56589 14.4217 9.53396 14.5017L9.44728 14.7301C9.42972 14.786 9.40014 14.8375 9.36061 14.8808C9.33551 14.9059 9.30561 14.9258 9.27269 14.9391C9.23978 14.9524 9.20452 14.959 9.16901 14.9584H9.1462H9.10058H9.0869L8.55772 14.8305C8.37753 14.8077 8.19962 14.7689 8.01943 14.7575C7.66271 14.7249 7.30318 14.7441 6.95196 14.8145C6.60493 14.8908 6.27728 15.0377 5.98941 15.2462C5.91642 15.2964 5.85484 15.3604 5.78641 15.4152C5.72224 15.4759 5.66205 15.5408 5.60622 15.6093C5.49164 15.7413 5.39641 15.8889 5.32338 16.0478V16.0089V16.2853C5.32338 16.3119 5.31281 16.3375 5.29399 16.3563C5.27517 16.3752 5.24964 16.3858 5.22302 16.3858C5.20369 16.3854 5.1848 16.3798 5.16828 16.3698C4.89363 16.1792 4.59731 16.0221 4.28557 15.9016C3.9752 15.7891 3.646 15.7379 3.31618 15.7509C2.65094 15.7954 2.01477 16.0407 1.49144 16.4543L1.47091 16.2898C2.85174 16.905 4.28952 17.3831 5.7636 17.7172C6.12855 17.8108 6.50262 17.8633 6.87213 17.9455C7.24163 18.0278 7.61571 18.0643 7.99206 18.0963C8.74106 18.1784 9.49452 18.2128 10.2479 18.199C11.7565 18.1788 13.2559 17.9592 14.7071 17.5459C15.4323 17.3403 16.142 17.0831 16.8306 16.7763C17.521 16.4788 18.1784 16.1098 18.7922 15.6755C18.8051 15.6672 18.8202 15.6627 18.8355 15.6627C18.8509 15.6627 18.866 15.6672 18.8789 15.6755L18.9747 15.7303L18.8697 15.8422L18.7762 15.7029C18.7705 15.6948 18.7665 15.6857 18.7643 15.676C18.7622 15.6664 18.7619 15.6564 18.7636 15.6466C18.7653 15.6369 18.7689 15.6275 18.7742 15.6192C18.7795 15.6108 18.7864 15.6036 18.7945 15.5979C18.9774 15.4457 19.1434 15.2742 19.2894 15.0863C19.4404 14.8949 19.5805 14.6951 19.7091 14.488C19.8414 14.2824 19.9577 14.0701 20.0741 13.8531C20.1904 13.6361 20.3022 13.4169 20.3957 13.1931C20.3999 13.1841 20.4058 13.176 20.4131 13.1693C20.4204 13.1625 20.4289 13.1573 20.4383 13.1539C20.4476 13.1505 20.4575 13.149 20.4674 13.1495C20.4773 13.1499 20.4871 13.1523 20.496 13.1566L20.8017 13.2936C20.8106 13.2975 20.8187 13.3032 20.8253 13.3103C20.832 13.3174 20.8372 13.3258 20.8406 13.335C20.844 13.3441 20.8456 13.3539 20.8452 13.3636C20.8447 13.3734 20.8424 13.383 20.8382 13.3918C20.6305 13.8602 20.3904 14.3134 20.1197 14.7483C19.9837 14.9676 19.8352 15.1788 19.6749 15.3809C19.516 15.5861 19.3364 15.7744 19.1389 15.9427L19.1275 15.824C19.4286 15.961 19.7251 16.114 20.0285 16.2442L20.4983 16.4063L20.7264 16.4885C20.8062 16.5091 20.8884 16.5228 20.9682 16.5433L21.4517 16.6484C21.616 16.6689 21.7802 16.6804 21.9444 16.6963C22.0265 16.6963 22.1087 16.7169 22.193 16.7146H22.4394C22.6044 16.7154 22.7692 16.7024 22.9321 16.6758C23.5889 16.5942 24.2201 16.3706 24.7819 16.0204C25.3462 15.676 25.8356 15.2217 26.2211 14.6844C26.2257 14.6772 26.2317 14.6711 26.2388 14.6664C26.2459 14.6617 26.2538 14.6585 26.2622 14.657C26.3854 14.6296 26.504 14.5953 26.6226 14.5656C26.7403 14.5292 26.8561 14.4865 26.9693 14.4377C27.1945 14.3391 27.4042 14.2083 27.592 14.0495C27.7768 13.8897 27.9313 13.6978 28.0482 13.4831C28.1656 13.2718 28.2385 13.0386 28.2626 12.798C28.2635 12.7814 28.2709 12.7659 28.2831 12.7546L29.809 11.4483L29.8273 11.5511L28.4815 11.0464C28.4705 11.0439 28.4607 11.0374 28.4542 11.0281C28.1549 10.6109 27.7777 10.2557 27.3434 9.98219C26.9081 9.71385 26.3964 9.5974 25.8881 9.65104C25.3798 9.71629 24.8931 9.89671 24.4648 10.1786C24.0276 10.4514 23.6352 10.7904 23.3016 11.1834C23.2922 11.1928 23.2795 11.198 23.2662 11.198C23.253 11.198 23.2403 11.1928 23.2309 11.1834C23.2245 11.179 23.2197 11.1726 23.2172 11.1652C22.9625 10.6634 22.5781 10.2391 22.1041 9.93651C21.6392 9.61671 21.1327 9.36236 20.5987 9.1806C20.3364 9.07783 20.0604 9.0116 19.789 8.93396C19.5175 8.85631 19.2393 8.80607 18.9587 8.76724C18.3999 8.66904 17.8388 8.65306 17.2708 8.58683L16.8443 8.54116C16.7029 8.52289 16.5637 8.48406 16.4246 8.45666C16.2855 8.42925 16.1441 8.40185 16.0072 8.36302L15.6012 8.22372L15.3982 8.15521L15.2043 8.06386L14.8188 7.87887C14.5708 7.73525 14.3337 7.57343 14.1095 7.39473C13.2074 6.67114 12.5908 5.65077 12.3691 4.51495C12.3681 4.51058 12.3681 4.50605 12.369 4.50165C12.3698 4.49726 12.3716 4.49309 12.3742 4.48943C12.3768 4.48577 12.3801 4.4827 12.3839 4.4804C12.3878 4.47811 12.3921 4.47665 12.3965 4.47612L12.7295 4.43273C12.7385 4.43201 12.7474 4.43465 12.7546 4.44013C12.7618 4.44561 12.7666 4.45355 12.7683 4.46242C12.9652 5.53708 13.5599 6.49778 14.4334 7.15265C14.8648 7.47937 15.3494 7.72893 15.8658 7.89029C15.9929 7.93644 16.1224 7.97607 16.2535 8.00905L16.6504 8.09126L16.8489 8.13465L17.0519 8.15749L17.4556 8.1986C17.7247 8.22829 17.9984 8.24199 18.2676 8.26711C18.5367 8.29223 18.8104 8.32877 19.0796 8.37216C19.6173 8.46126 20.1473 8.59181 20.6648 8.76268C21.1834 8.93345 21.679 9.16738 22.1406 9.45921C22.6065 9.74857 23.0142 10.1227 23.3426 10.5623H23.313C23.6842 10.1922 24.1086 9.87965 24.572 9.63506C25.0345 9.38358 25.5492 9.24361 26.0752 9.22628C26.6033 9.21661 27.123 9.36017 27.5714 9.63963C28.0169 9.91347 28.4094 10.2655 28.7302 10.6787Z" fill="#F08A5D"/>
<path d="M4.4624 23.3225C4.46867 23.1294 4.54806 22.946 4.68447 22.8094C4.82087 22.6729 5.00406 22.5934 5.19686 22.5871H6.31679C6.46884 22.5979 6.61377 22.6558 6.73148 22.7528C6.84918 22.8498 6.93383 22.981 6.97369 23.1283L7.39794 24.4438C7.91858 23.7363 8.60042 23.1635 9.38673 22.773C10.173 22.3826 11.0411 22.1857 11.9187 22.1989C13.3876 22.1989 15.1645 22.5871 14.7402 23.6308L13.8119 25.5263C13.7788 25.6139 13.7274 25.6936 13.6612 25.7598C13.5949 25.8261 13.5153 25.8774 13.4277 25.9105C13.3401 25.9436 13.2465 25.9576 13.153 25.9515C13.0596 25.9455 12.9685 25.9197 12.8858 25.8757C12.4693 25.7018 12.0233 25.6096 11.572 25.6039C10.8791 25.5978 10.1961 25.7686 9.58745 26.1003C8.97882 26.4319 8.46468 26.9135 8.09362 27.4994V37.3194C8.09362 37.9771 7.66937 38.0548 7.05124 38.0548H5.19686C5.00406 38.0485 4.82087 37.969 4.68447 37.8324C4.54806 37.6959 4.46867 37.5124 4.4624 37.3194V23.3225Z" fill="#F08A5D"/>
<path d="M23.9377 22.1982C27.9567 22.1982 31.0473 25.2173 31.0473 29.3554C31.0408 29.7053 31.0149 30.0544 30.9698 30.4014C30.9562 30.578 30.8774 30.7432 30.7488 30.8648C30.6202 30.9864 30.451 31.0556 30.2741 31.0591H19.7636C19.849 32.1806 20.3527 33.2289 21.1747 33.9956C21.9966 34.7623 23.0766 35.1913 24.2 35.1972C25.5914 35.1972 26.8664 34.5783 27.6396 34.0759C28.0958 33.8064 28.3741 33.6511 28.6843 34.0371L29.7655 35.5078C30.0346 35.8161 30.1509 36.1267 29.6879 36.5126C28.568 37.4809 26.5585 38.447 23.9696 38.447C19.2938 38.447 16.2031 34.7724 16.2031 30.3237C16.2168 25.9527 19.3006 22.1982 23.9377 22.1982ZM27.4526 28.6224C27.3386 26.7634 25.7921 25.1785 23.8989 25.1785C22.9331 25.1636 21.996 25.5072 21.2682 26.1432C20.5404 26.7791 20.0735 27.6622 19.9575 28.6224H27.4526Z" fill="#F08A5D"/>
<path d="M34.7563 11.7153C34.7626 11.5223 34.842 11.3389 34.9784 11.2023C35.1148 11.0657 35.298 10.9863 35.4908 10.98H37.6919C37.8847 10.9863 38.0679 11.0657 38.2043 11.2023C38.3407 11.3389 38.4201 11.5223 38.4263 11.7153V37.325C38.4201 37.5181 38.3407 37.7015 38.2043 37.8381C38.0679 37.9746 37.8847 38.0541 37.6919 38.0604H35.4908C35.298 38.0541 35.1148 37.9746 34.9784 37.8381C34.842 37.7015 34.7626 37.5181 34.7563 37.325V11.7153Z" fill="#F08A5D"/>
<path d="M43.0229 14.0362C43.0144 13.7407 43.0649 13.4464 43.1715 13.1708C43.2781 12.8951 43.4386 12.6435 43.6437 12.4308C43.8487 12.218 44.0941 12.0484 44.3655 11.932C44.6368 11.8155 44.9287 11.7544 45.224 11.7524C45.8235 11.7524 46.3984 11.9909 46.8223 12.4153C47.2462 12.8397 47.4844 13.4154 47.4844 14.0156C47.4844 14.6158 47.2462 15.1915 46.8223 15.6159C46.3984 16.0403 45.8235 16.2788 45.224 16.2788C44.932 16.2776 44.6431 16.2185 44.3741 16.1049C44.105 15.9913 43.8611 15.8255 43.6565 15.6169C43.4518 15.4084 43.2904 15.1613 43.1817 14.89C43.0729 14.6187 43.019 14.3285 43.0229 14.0362ZM43.4471 23.3218C43.4534 23.1288 43.5328 22.9453 43.6692 22.8088C43.8056 22.6722 43.9888 22.5927 44.1816 22.5864H46.385C46.5778 22.5927 46.761 22.6722 46.8974 22.8088C47.0338 22.9453 47.1131 23.1288 47.1194 23.3218V37.3256C47.1126 37.5185 47.033 37.7016 46.8968 37.838C46.7605 37.9745 46.5776 38.0541 46.385 38.061H44.1816C43.989 38.0541 43.8061 37.9745 43.6698 37.838C43.5335 37.7016 43.4539 37.5185 43.4471 37.3256V23.3218Z" fill="#F08A5D"/>
<path d="M53.3415 25.7976H51.5168C51.4205 25.7976 51.3251 25.7785 51.2361 25.7416C51.1471 25.7046 51.0663 25.6504 50.9983 25.5821C50.9303 25.5137 50.8764 25.4327 50.8397 25.3434C50.8031 25.2542 50.7843 25.1587 50.7846 25.0622V23.322C50.7811 23.2247 50.7977 23.1277 50.8332 23.0371C50.8687 22.9464 50.9225 22.864 50.9912 22.7951C51.0598 22.7261 51.1419 22.672 51.2324 22.6362C51.3228 22.6003 51.4196 22.5835 51.5168 22.5867H53.3415V17.7908C53.3415 12.995 56.1995 10.5948 59.9106 10.5948C61.5131 10.5871 63.0691 11.1341 64.315 12.1432C64.4383 12.2518 64.5208 12.3994 64.5486 12.5615C64.5764 12.7235 64.5479 12.8902 64.4679 13.0338L63.503 14.774C63.3092 15.1212 62.9237 15.16 62.5382 14.8905C62.0341 14.5411 60.9142 13.961 59.9859 13.961C58.2866 13.961 57.0891 15.1988 57.0891 17.7908V22.5867H61.2609C61.3583 22.5831 61.4554 22.5998 61.5461 22.6355C61.6368 22.6712 61.7191 22.7252 61.788 22.7942C61.8569 22.8632 61.9109 22.9457 61.9466 23.0365C61.9823 23.1273 61.9989 23.2245 61.9953 23.322V25.0622C61.9953 25.2572 61.918 25.4443 61.7802 25.5822C61.6425 25.7201 61.4557 25.7976 61.2609 25.7976H57.0891V37.3258C57.0823 37.5187 57.0027 37.7018 56.8664 37.8382C56.7301 37.9747 56.5473 38.0544 56.3546 38.0612H54.0806C53.8878 38.0549 53.7046 37.9754 53.5682 37.8388C53.4318 37.7023 53.3524 37.5189 53.3461 37.3258L53.3415 25.7976Z" fill="#F08A5D"/>
<path d="M71.6916 22.1982C75.7106 22.1982 78.8012 25.2173 78.8012 29.3554C78.7947 29.7053 78.7688 30.0544 78.7237 30.4014C78.7101 30.578 78.6313 30.7432 78.5027 30.8648C78.3741 30.9864 78.2049 31.0556 78.028 31.0591H67.5198C67.6047 32.182 68.1093 33.2316 68.9328 33.9986C69.7563 34.7655 70.8383 35.1935 71.963 35.1972C73.3544 35.1972 74.6294 34.5783 75.4004 34.0759C75.8566 33.8064 76.1348 33.6511 76.445 34.0371L77.5262 35.5078C77.7976 35.8161 77.914 36.1267 77.4486 36.5126C76.3287 37.4809 74.3192 38.447 71.7304 38.447C67.0545 38.447 63.9639 34.7724 63.9639 30.3237C63.9639 25.9527 67.0545 22.1982 71.6916 22.1982ZM75.2088 28.6224C75.0925 26.7634 73.546 25.1785 71.6528 25.1785C70.687 25.1636 69.7499 25.5072 69.0221 26.1432C68.2943 26.7791 67.8274 27.6622 67.7114 28.6224H75.2088Z" fill="#F08A5D"/>
</svg>
