<svg width="80" height="80" viewBox="0 0 80 80" fill="none" xmlns="http://www.w3.org/2000/svg">
<path d="M73.92 25.9614C73.616 20.7342 72.4288 15.3758 69.288 11.187C65.8816 6.64617 60.2224 3.86217 54.5504 4.02217C48.8784 4.18217 43.3504 7.31497 40.3744 12.1486C38.5328 15.1374 37.4704 18.8686 34.496 20.7358C31.216 22.7934 26.976 21.755 23.1152 22.0942C17.784 22.5598 12.8608 25.963 10.3328 30.6718C7.80478 35.3806 7.66078 41.2462 9.73758 46.171C11.8144 51.0958 16.0192 55.0334 20.9856 57.0094C29.1456 60.259 38.352 58.2734 46.9056 56.2494C57.6624 55.8078 67.264 49.7758 71.2 42.1198C73.7216 37.2078 74.24 31.475 73.92 25.9614Z" fill="#EBEBEB"/>
<path d="M27.8047 11.2991L27.8255 11.2879C27.8815 11.2543 27.9375 11.2175 27.9951 11.1855L27.8047 11.2991Z" fill="#EBEBEB"/>
<path d="M32.608 12.2796C31.472 11.1212 29.2337 10.4828 27.8257 11.2876C27.1627 11.7072 26.631 12.3047 26.2915 13.012C25.952 13.7194 25.8183 14.5079 25.9057 15.2876C26.025 16.0968 26.3848 16.8515 26.9383 17.4537C27.4917 18.056 28.2134 18.4781 29.0096 18.6652C29.8123 18.82 30.6432 18.7239 31.3894 18.3902C32.1357 18.0564 32.7611 17.5011 33.1808 16.7996C33.9872 15.382 33.7488 13.4396 32.608 12.2796Z" fill="#EBEBEB"/>
<path d="M53.9966 39.464C53.4984 39.5194 52.9956 39.5194 52.4974 39.464C52.9956 39.4085 53.4984 39.4085 53.9966 39.464Z" fill="#FAFAFA"/>
<path d="M76.1599 75.725C76.1599 75.749 59.9727 75.7682 40.0095 75.7682C20.0463 75.7682 3.84949 75.749 3.84949 75.725C3.84949 75.701 20.0319 75.6802 39.9999 75.6802C59.9679 75.6802 76.1599 75.7026 76.1599 75.725Z" fill="#263238"/>
<path d="M57.2016 66.8646C57.9808 66.3046 58.7744 65.7366 59.6768 65.4086C60.5792 65.0806 61.6224 65.0166 62.4768 65.4566C63.192 65.8246 63.7072 66.5126 64.0032 67.2614C64.3684 68.1912 64.43 69.2128 64.1792 70.1798C64.0432 70.7014 63.7728 71.2406 63.2768 71.4518C62.7808 71.663 62.2096 71.4806 61.7168 71.2598C60.0995 70.5332 58.6986 69.3991 57.6512 67.9686C57.7565 67.8844 57.8843 67.8332 58.0186 67.8212C58.1529 67.8093 58.2878 67.8372 58.4064 67.9014C58.6406 68.0335 58.8537 68.2002 59.0384 68.3958C59.664 68.9626 60.4187 69.368 61.2368 69.5766C61.8416 69.7366 62.656 69.6646 62.8592 69.0742C62.992 68.6886 62.7808 68.2742 62.576 67.9238C62.3424 67.519 62.0752 67.0854 61.6368 66.9238C61.3072 66.8038 60.944 66.8614 60.5984 66.9238L56.8256 67.5718L57.0592 67.503" fill="#455A64"/>
<path d="M47.7822 15.978C45.2942 15.2836 41.6078 16.25 40.1998 18.4148C38.7918 20.5796 39.4126 23.7924 39.3022 26.3716C39.1918 28.9508 39.3022 31.5716 38.6766 34.0788C38.283 35.6788 37.5294 37.2788 36.1438 38.1668C34.5598 39.1748 32.1854 39.274 31.435 40.9956C30.8094 42.4356 31.7806 44.1956 31.1486 45.6356C30.8702 46.2756 30.3054 46.7556 30.0622 47.4036C29.7262 48.3028 30.0942 49.3492 30.755 50.0452C31.4158 50.7412 32.3198 51.1492 33.2206 51.4852C35.9649 52.4904 38.8819 52.9391 41.8014 52.8052C43.9246 52.706 46.203 52.2036 47.595 50.5988C48.6878 49.338 49.0478 47.61 49.2462 45.9588C50.4654 35.746 50.6862 24.5188 47.7822 15.994" fill="#263238"/>
<path d="M33.9087 46.9704C33.9295 46.9592 33.8159 46.7672 33.7023 46.3848C33.5536 45.844 33.522 45.2779 33.6095 44.724C33.7421 43.9028 34.0486 43.1194 34.5087 42.4264C35.0191 41.6392 35.7583 40.9 36.5695 40.172C37.3807 39.444 38.1887 38.7704 38.8399 38.068C39.4272 37.4533 39.9161 36.7517 40.2895 35.988C40.5389 35.4708 40.6939 34.9132 40.7471 34.3416C40.7582 34.1865 40.7582 34.0309 40.7471 33.8759C40.7471 33.7687 40.7343 33.7159 40.7263 33.7159C40.6783 33.7031 40.8063 34.644 40.1631 35.9304C39.7798 36.6696 39.2897 37.3483 38.7087 37.9448C38.0687 38.6312 37.2575 39.2952 36.4399 40.0248C35.6223 40.7544 34.8767 41.5112 34.3599 42.3272C33.8923 43.0438 33.5895 43.8553 33.4735 44.7032C33.3966 45.2749 33.4513 45.8566 33.6335 46.404C33.6844 46.5514 33.7487 46.6938 33.8255 46.8296C33.8463 46.8802 33.8743 46.9276 33.9087 46.9704Z" fill="#455A64"/>
<path d="M40.1663 65.2612L39.3344 75.7172L64.3312 75.8404L57.5359 66.2852L40.1663 65.2612Z" fill="#263238"/>
<path d="M20.4048 40.1128C20.4752 40.1736 18.9408 48.3608 18.1648 52.46C18.0351 53.1458 18.1005 53.8542 18.3533 54.5047C18.6062 55.1552 19.0364 55.7218 19.5952 56.14C20.1725 56.5717 20.8625 56.8268 21.5818 56.8745C22.301 56.9222 23.0187 56.7604 23.648 56.4088L34.056 50.9928L30.8688 44.3192L24.3088 48.0424L24.7408 41.1L20.4048 40.1128Z" fill="#FFBE9D"/>
<path d="M23.9583 33.6019C23.8847 33.3091 23.5151 33.1763 23.2207 33.2499C22.9336 33.3505 22.6777 33.5242 22.4783 33.7539L21.6367 34.2643C21.4779 34.3697 21.3471 34.5122 21.2557 34.6795C21.1642 34.8467 21.1149 35.0337 21.1119 35.2243C21.1077 35.6047 21.1667 35.9832 21.2863 36.3443C21.3743 36.6643 21.4991 37.0275 21.8079 37.1443C22.1519 37.2723 22.5327 37.0067 22.6943 36.6771C22.8559 36.3475 22.8719 35.9715 22.9567 35.6147C23.0589 35.1868 23.2613 34.7892 23.5471 34.4547C23.7599 34.2035 24.0399 33.9219 23.9583 33.6019Z" fill="#EB996E"/>
<path d="M16.9663 33.9316C16.9403 33.85 16.9348 33.7632 16.9502 33.679C16.9657 33.5947 17.0016 33.5156 17.0549 33.4485C17.1082 33.3815 17.1772 33.3286 17.2558 33.2945C17.3344 33.2604 17.4201 33.2462 17.5055 33.2532C19.2143 33.394 23.2735 33.962 25.6815 34.6548C29.0959 35.6372 31.3439 36.2724 31.3439 36.2724L38.5951 36.1124C38.5951 36.1124 37.7247 38.6116 34.9615 38.6244C32.8703 38.634 30.6767 37.29 30.6767 37.29C30.6767 37.29 21.3839 34.1252 17.4815 34.2964C17.3676 34.3014 17.2551 34.2685 17.1619 34.2028C17.0687 34.137 16.9999 34.0422 16.9663 33.9332V33.9316Z" fill="#455A64"/>
<path d="M37.24 36.1333C37.3296 36.3877 37.0336 36.6133 36.7696 36.6613C36.5056 36.7093 36.2032 36.6965 36.0128 36.8853C35.9452 36.9664 35.896 37.0612 35.8684 37.1631C35.8408 37.2649 35.8354 37.3716 35.8528 37.4757C35.8905 37.6831 35.9156 37.8925 35.928 38.1029C35.9321 38.2459 35.8824 38.3852 35.7888 38.4933C35.5984 38.6869 35.248 38.6213 35.064 38.4229C34.8955 38.2072 34.8037 37.9414 34.8032 37.6677C34.8008 37.4738 34.7723 37.2812 34.7184 37.0949C34.69 37.0018 34.6371 36.9179 34.5654 36.8521C34.4937 36.7863 34.4056 36.7408 34.3104 36.7205C34.0816 36.6917 33.88 36.8645 33.6608 36.9413C33.5459 36.9738 33.4253 36.9811 33.3073 36.9626C33.1894 36.9441 33.0768 36.9003 32.9774 36.8341C32.878 36.768 32.7941 36.6811 32.7314 36.5795C32.6687 36.4778 32.6288 36.3638 32.6144 36.2453L37.24 36.1333Z" fill="#FA8A3C"/>
<path d="M19.5791 33.5332C19.4654 33.5965 19.3479 33.6526 19.2271 33.7012C18.6419 33.9389 18.0083 34.0333 17.3791 33.9764C17.2495 33.9658 17.1206 33.9465 16.9935 33.9188C16.9935 33.9188 17.0303 33.9188 17.0959 33.9332C17.1615 33.9476 17.2559 33.954 17.3791 33.9636C17.6919 33.9888 18.0064 33.9781 18.3167 33.9316C18.6266 33.8849 18.9304 33.8039 19.2223 33.69C19.3343 33.6452 19.4239 33.6068 19.4847 33.5764L19.5791 33.5332Z" fill="#263238"/>
<path d="M22.76 33.9924H22.7296L22.6432 33.9828C22.568 33.9732 22.4592 33.9636 22.3232 33.9556C21.9713 33.9346 21.6182 33.9528 21.2704 34.01C20.9228 34.0692 20.5827 34.1658 20.256 34.298C20.1312 34.3508 20.0304 34.3956 19.9632 34.4292L19.8848 34.466L19.856 34.4772C19.856 34.4772 19.864 34.4772 19.8816 34.4596L19.9568 34.4164C20.024 34.3796 20.1168 34.3316 20.248 34.2772C20.5739 34.1369 20.9156 34.0364 21.2656 33.978C21.6155 33.9205 21.9711 33.9049 22.3248 33.9316C22.4608 33.9428 22.5696 33.9572 22.6448 33.97L22.7312 33.986L22.76 33.9924Z" fill="#263238"/>
<path d="M25.1375 35.1972L24.8031 35.098L24.4127 34.9796C24.3281 34.9605 24.2511 34.9165 24.1919 34.8532C24.1771 34.8342 24.1671 34.8119 24.1629 34.7882C24.1588 34.7644 24.1605 34.7401 24.1679 34.7172C24.1766 34.6933 24.1909 34.6719 24.2095 34.6546C24.2281 34.6374 24.2506 34.6248 24.2751 34.618C24.3794 34.5862 24.4908 34.5862 24.5951 34.618C24.7023 34.6388 24.8143 34.6628 24.9279 34.6948C25.1699 34.7629 25.4051 34.8534 25.6303 34.9652C25.7487 35.0244 25.8687 35.09 25.9855 35.1636C26.0475 35.1968 26.102 35.2426 26.1455 35.298C26.1566 35.3135 26.1636 35.3317 26.1659 35.3507C26.1681 35.3697 26.1655 35.389 26.1583 35.4068C26.1413 35.4405 26.113 35.4671 26.0783 35.482C25.7978 35.5901 25.4941 35.6237 25.1967 35.5796C24.5807 35.5012 24.0607 35.2052 23.5967 34.962C23.1925 34.7226 22.7537 34.5471 22.2959 34.442C21.9857 34.3767 21.6643 34.3887 21.3599 34.4772C21.2776 34.5031 21.1979 34.5363 21.1215 34.5764C21.0703 34.6052 21.0431 34.618 21.0431 34.618L21.1087 34.5716C21.1843 34.5301 21.2635 34.4958 21.3455 34.4692C21.6514 34.3777 21.9753 34.3639 22.2879 34.4292C22.7472 34.533 23.1876 34.7073 23.5935 34.946C24.0591 35.1892 24.5791 35.4836 25.1935 35.562C25.4876 35.6052 25.7878 35.5721 26.0655 35.466C26.0976 35.4535 26.1238 35.4296 26.1391 35.3988C26.1447 35.3832 26.1467 35.3666 26.1447 35.3502C26.1428 35.3338 26.137 35.3181 26.1279 35.3044C26.0839 35.2511 26.0295 35.2075 25.9679 35.1764C25.8537 35.1038 25.7357 35.0376 25.6143 34.978C25.3896 34.8662 25.155 34.7757 24.9135 34.7076C24.8015 34.6756 24.6895 34.65 24.5823 34.6276C24.4825 34.5987 24.3765 34.5987 24.2767 34.6276C24.2541 34.6346 24.2333 34.6466 24.2159 34.6626C24.1984 34.6787 24.1848 34.6984 24.1759 34.7204C24.1687 34.7415 24.1668 34.7641 24.1705 34.7862C24.1741 34.8082 24.1831 34.829 24.1967 34.8468C24.2546 34.909 24.3298 34.9525 24.4127 34.9716L24.8031 35.0916L25.1375 35.1972Z" fill="#263238"/>
<path d="M26.8239 35.0518C26.8527 35.1011 26.8723 35.1553 26.8815 35.2118C26.9075 35.3425 26.8913 35.4781 26.8351 35.599C26.7758 35.7183 26.6807 35.8162 26.5631 35.879C26.5134 35.9058 26.4591 35.9232 26.4031 35.9302C26.4538 35.9134 26.503 35.8926 26.5503 35.8678C26.6661 35.8064 26.7594 35.7097 26.8166 35.5918C26.8739 35.4738 26.8921 35.3407 26.8687 35.2118C26.858 35.1573 26.8431 35.1038 26.8239 35.0518Z" fill="#263238"/>
<path d="M29.7681 35.8216C29.7681 35.8216 29.6081 35.8216 29.3585 35.8056C29.1089 35.7896 28.7569 35.7528 28.3697 35.748C28.0422 35.7361 27.7156 35.7905 27.4097 35.908C27.3544 35.928 27.3009 35.9526 27.2497 35.9816C27.2111 35.9999 27.1746 36.0225 27.1409 36.0488L27.0497 36.1096L27.1361 36.044C27.1695 36.0164 27.206 35.9927 27.2449 35.9736C27.296 35.9435 27.3495 35.9178 27.4049 35.8968C27.7145 35.7764 28.0458 35.7219 28.3777 35.7368C28.7665 35.7368 29.1137 35.7832 29.3665 35.8008C29.4929 35.8104 29.5953 35.8184 29.6657 35.8216H29.7681Z" fill="#263238"/>
<path d="M32.8384 38.2357C32.8384 38.2357 32.7808 38.1861 32.6784 38.0933C32.6272 38.0469 32.5632 37.9909 32.4864 37.9333C32.4096 37.8757 32.3264 37.7989 32.224 37.7269C31.9927 37.5518 31.7506 37.3915 31.4992 37.2469C30.8836 36.8955 30.2177 36.6408 29.5248 36.4917C29.2426 36.4293 28.9567 36.3855 28.6688 36.3605C28.5456 36.3445 28.4336 36.3429 28.336 36.3381C28.2384 36.3333 28.1536 36.3381 28.0848 36.3381H27.8704H28.0848C28.1536 36.3381 28.2448 36.3381 28.336 36.3381C28.4272 36.3381 28.5456 36.3381 28.6688 36.3573C28.9576 36.3817 29.2446 36.4244 29.528 36.4853C29.8745 36.5601 30.2156 36.6585 30.5488 36.7797C30.8789 36.9093 31.1997 37.0617 31.5088 37.2357C31.7604 37.38 32.0025 37.5403 32.2336 37.7157C32.3344 37.7861 32.4176 37.8613 32.4944 37.9237C32.5712 37.9861 32.6336 38.0405 32.6832 38.0837C32.7888 38.1829 32.8384 38.2357 32.8384 38.2357Z" fill="#263238"/>
<path d="M34.936 38.2899C34.8851 38.3175 34.8315 38.3395 34.776 38.3555C34.6273 38.4007 34.4719 38.4196 34.3168 38.4115C34.0864 38.397 33.861 38.3383 33.6528 38.2387C33.4001 38.1134 33.1672 37.9517 32.9616 37.7587C32.7392 37.5571 32.5456 37.3491 32.3664 37.1635C32.2096 36.9944 32.0434 36.8341 31.8688 36.6835C31.751 36.5835 31.6259 36.4926 31.4944 36.4115C31.448 36.3843 31.4112 36.3619 31.3856 36.3491L31.3488 36.3315C31.5397 36.4237 31.7177 36.5404 31.8784 36.6787C32.0532 36.8274 32.2204 36.985 32.3792 37.1507C32.56 37.3363 32.7536 37.5443 32.9744 37.7443C33.1787 37.9367 33.4099 38.0984 33.6608 38.2243C33.8672 38.3241 34.0911 38.3828 34.32 38.3971C34.4737 38.4074 34.628 38.3906 34.776 38.3475C34.8165 38.3362 34.8561 38.3218 34.8944 38.3043L34.936 38.2899Z" fill="#263238"/>
<path d="M37.6831 37.5206H37.6287C37.5919 37.5206 37.5407 37.5206 37.4767 37.5206C37.3095 37.5209 37.1428 37.5381 36.9791 37.5718C36.8138 37.6075 36.6528 37.6612 36.4991 37.7318C36.4415 37.7574 36.3935 37.7814 36.3631 37.799C36.3469 37.8087 36.3297 37.8168 36.3119 37.823C36.37 37.7843 36.431 37.7501 36.4943 37.7206C36.7982 37.5738 37.1329 37.502 37.4703 37.511C37.5414 37.5095 37.6125 37.5127 37.6831 37.5206Z" fill="#263238"/>
<path d="M17.7169 38.1608L17.6401 36.6648C17.6316 36.5036 17.676 36.344 17.7665 36.2104L17.7761 36.196C18.0338 35.8136 18.3697 35.4902 18.7617 35.2472L21.9857 33.2488C22.0332 33.2192 22.0872 33.2016 22.143 33.1977C22.1989 33.1937 22.2548 33.2034 22.3061 33.2259C22.3573 33.2485 22.4023 33.2832 22.437 33.327C22.4718 33.3709 22.4954 33.4226 22.5057 33.4776C22.5457 33.7416 22.4289 34.3432 22.1953 34.5832C21.7808 34.9604 21.327 35.2919 20.8417 35.572L24.0753 34.9448C24.1506 35.1513 24.1492 35.378 24.0714 35.5836C23.9936 35.7891 23.8445 35.9599 23.6513 36.0648L24.9809 35.7832C24.9809 35.7832 25.4161 36.4024 24.8209 36.8104C24.2257 37.2184 23.1681 37.572 23.1681 37.572C23.1681 37.572 24.8177 38.268 24.7793 38.8232C24.7409 39.3784 24.7185 41.1576 24.7185 41.1576L20.2865 40.8376L17.7169 38.1608Z" fill="#FFBE9D"/>
<path d="M20.9583 35.4741L20.9279 35.4917L20.8351 35.5381C20.7551 35.5797 20.6383 35.6373 20.4975 35.7125C20.3567 35.7877 20.1967 35.8901 20.0175 36.0069C19.8383 36.1237 19.6383 36.2437 19.4479 36.3909C19.3547 36.4623 19.2801 36.555 19.2303 36.6613C19.1876 36.7624 19.1679 36.8717 19.1727 36.9813C19.1857 37.1673 19.2211 37.351 19.2783 37.5285C19.315 37.6507 19.3402 37.776 19.3535 37.9029C19.359 37.9491 19.359 37.9959 19.3535 38.0421C19.3535 38.0421 19.3535 37.9925 19.3423 37.9029C19.3253 37.7781 19.2975 37.6549 19.2591 37.5349C19.1975 37.3561 19.1593 37.17 19.1455 36.9813C19.1397 36.868 19.1594 36.7548 19.2031 36.6501C19.2553 36.5395 19.3325 36.4425 19.4287 36.3669C19.5236 36.2938 19.6224 36.226 19.7247 36.1637L20.0047 35.9829C20.1823 35.8677 20.3455 35.7669 20.4847 35.6933C20.6239 35.6197 20.7455 35.5653 20.8287 35.5333L20.9231 35.4917L20.9583 35.4741Z" fill="#EB996E"/>
<path d="M21.2591 38.8328C21.2591 38.8328 21.2447 38.8168 21.2191 38.7832L21.1087 38.6408L20.9327 38.4168C20.8525 38.3186 20.7843 38.2111 20.7295 38.0968C20.669 37.94 20.656 37.7688 20.6921 37.6046C20.7283 37.4404 20.8119 37.2905 20.9327 37.1736C21.0804 37.0447 21.2486 36.9414 21.4303 36.868C21.6127 36.7816 21.8047 36.6984 22.0031 36.6168C22.6834 36.3449 23.3823 36.1219 24.0943 35.9496C24.3663 35.8808 24.5887 35.8328 24.7423 35.8008L24.9183 35.7656L24.9807 35.7544C24.9608 35.7615 24.9405 35.7673 24.9199 35.772L24.7439 35.8136C24.5919 35.8504 24.3711 35.9016 24.1039 35.9736C23.3966 36.1531 22.7018 36.3787 22.0239 36.6488C21.8271 36.7304 21.6351 36.8088 21.4527 36.8984C21.2738 36.9707 21.1078 37.0717 20.9615 37.1976C20.8445 37.3102 20.763 37.4546 20.7271 37.613C20.6913 37.7714 20.7027 37.9368 20.7599 38.0888C20.8126 38.2025 20.8781 38.3099 20.9551 38.4088C21.0191 38.4936 21.0767 38.5688 21.1279 38.636C21.1791 38.7032 21.2095 38.748 21.2335 38.7832C21.2575 38.8184 21.2591 38.8328 21.2591 38.8328Z" fill="#EB996E"/>
<path d="M24.6894 36.8452C24.6662 36.8623 24.6416 36.8773 24.6158 36.89L24.4094 36.9988C24.235 37.09 23.9918 37.2116 23.715 37.3316C23.479 37.4339 23.2376 37.5231 22.9918 37.5988C22.8974 37.6276 22.8206 37.6484 22.7662 37.6612C22.739 37.67 22.7112 37.6764 22.683 37.6804C22.7082 37.6667 22.7351 37.6565 22.763 37.65L22.9838 37.5764C23.171 37.5124 23.4254 37.4164 23.7022 37.3012C23.979 37.186 24.2222 37.0628 24.3998 36.9812L24.6094 36.882C24.6348 36.8671 24.6616 36.8548 24.6894 36.8452Z" fill="#EB996E"/>
<path d="M34.2015 29.7095C34.2015 29.7095 34.1471 29.7831 34.0751 29.9319C33.976 30.1436 33.9257 30.3749 33.9279 30.6087C33.9298 30.9557 34.0526 31.2912 34.2751 31.5575C34.4131 31.7085 34.5589 31.8521 34.7119 31.9879C34.8797 32.1354 35.0125 32.3185 35.1007 32.5239C35.174 32.7376 35.1672 32.9707 35.0815 33.1799C35.0023 33.3716 34.8944 33.5502 34.7615 33.7095C34.6399 33.8695 34.5103 33.9991 34.3935 34.1271C34.2847 34.2462 34.1852 34.3735 34.0959 34.5079C33.9957 34.6325 33.9241 34.7777 33.8862 34.9331C33.8484 35.0885 33.8451 35.2503 33.8767 35.4071C33.8767 35.4071 33.8767 35.3847 33.8607 35.3431C33.8457 35.2802 33.8393 35.2156 33.8415 35.1511C33.857 34.9147 33.9385 34.6875 34.0767 34.4951C34.1653 34.3591 34.2642 34.2302 34.3727 34.1095C34.4895 33.9783 34.6175 33.8439 34.7375 33.6903C34.8669 33.5329 34.9721 33.3571 35.0495 33.1687C35.133 32.9646 35.1392 32.7371 35.0671 32.5287C34.9815 32.3276 34.8513 32.1487 34.6863 32.0055C34.5337 31.8681 34.3885 31.7228 34.2511 31.5703C34.0242 31.299 33.9012 30.9559 33.9039 30.6023C33.9039 30.3653 33.9587 30.1314 34.0639 29.9191C34.1018 29.8443 34.1479 29.774 34.2015 29.7095Z" fill="#263238"/>
<path d="M35.6688 29.6323C35.6688 29.6323 35.6144 29.7075 35.5424 29.8563C35.4439 30.0676 35.3942 30.2984 35.3968 30.5315C35.397 30.8793 35.52 31.2159 35.744 31.4819C35.8688 31.6291 36.0256 31.7635 36.1792 31.9123C36.3479 32.0584 36.4809 32.2412 36.568 32.4467C36.6409 32.661 36.6347 32.8943 36.5504 33.1043C36.4705 33.2957 36.3627 33.4742 36.2304 33.6339C36.1072 33.7939 35.9776 33.9219 35.8624 34.0515C35.7535 34.1704 35.6535 34.2972 35.5632 34.4307C35.4276 34.6188 35.3447 34.8398 35.3232 35.0707C35.3211 35.1561 35.3287 35.2414 35.3456 35.3251C35.3383 35.3042 35.3325 35.2828 35.328 35.2611C35.3137 35.1987 35.3078 35.1347 35.3104 35.0707C35.3259 34.8341 35.4067 34.6065 35.544 34.4131C35.6336 34.278 35.7331 34.1496 35.8416 34.0291C35.9568 33.8979 36.0848 33.7635 36.2064 33.6099C36.3354 33.4525 36.44 33.2767 36.5168 33.0883C36.6004 32.8843 36.6072 32.657 36.536 32.4483C36.4495 32.2483 36.3194 32.07 36.1552 31.9267C35.9952 31.7779 35.8464 31.6435 35.7184 31.4915C35.4915 31.2197 35.3684 30.8761 35.3712 30.5219C35.3721 30.2855 35.4268 30.0524 35.5312 29.8403C35.57 29.7665 35.6161 29.6968 35.6688 29.6323Z" fill="#263238"/>
<path d="M24.1744 53.2085C24.1648 53.2085 24.2112 51.9973 24.2784 50.5045C24.3456 49.0117 24.4064 47.8021 24.4144 47.8037C24.4224 47.8053 24.3776 49.0133 24.312 50.5061C24.2464 51.9989 24.1824 53.2085 24.1744 53.2085Z" fill="#EB996E"/>
<path d="M21.3919 41.7927C21.0864 41.4991 20.797 41.1893 20.5247 40.8647C20.8301 41.1584 21.1196 41.4681 21.3919 41.7927Z" fill="#EB996E"/>
<path d="M40.0702 64.9189L38.7678 75.8405H56.9486L53.9198 68.0725L58.0878 67.0837C58.0878 67.0837 57.8078 66.3013 57.539 66.2837C57.2702 66.2661 40.0702 64.9189 40.0702 64.9189Z" fill="#455A64"/>
<path d="M30.736 44.0407C30.736 44.0407 37.7872 39.4743 39.6416 38.8519C40.7823 38.4695 44.2079 38.4087 44.2079 38.4087L37.7872 49.3815L34.1376 51.1575L30.736 44.0407Z" fill="#FA8A3C"/>
<path d="M66.0816 51.7143C63.928 46.5143 60.4432 40.6391 59.4112 39.6327C58.3792 38.6263 52.0512 37.8135 52.0512 37.8135L43.7536 38.7143L37.1008 47.8343L40.0144 62.0567L39.9152 62.2455C39.6974 62.665 39.5973 63.1357 39.6255 63.6075C39.6536 64.0794 39.8091 64.5348 40.0752 64.9255L57.5408 66.2919L57.5632 52.8247L66.0816 51.7143Z" fill="#FA8A3C"/>
<path d="M55.1519 59.3364C55.1271 59.3772 55.0987 59.4158 55.0671 59.4516C55.0063 59.5236 54.9247 59.6356 54.8031 59.7716C54.4706 60.1516 54.1095 60.5057 53.7231 60.8308C52.4442 61.9126 50.9272 62.6761 49.2964 63.0588C47.6656 63.4415 45.9674 63.4324 44.3407 63.0324C43.8498 62.9128 43.3684 62.7566 42.9007 62.5652C42.7407 62.4996 42.6095 62.4356 42.5231 62.4052C42.4788 62.3868 42.436 62.3649 42.3951 62.3396C42.4415 62.3531 42.487 62.3697 42.5311 62.3892C42.6191 62.4228 42.7439 62.482 42.9119 62.5412C44.7004 63.2356 46.642 63.4395 48.5357 63.1318C50.4295 62.824 52.2066 62.0158 53.6831 60.7908C54.0713 60.4714 54.437 60.1255 54.7775 59.7556C54.9023 59.6276 54.9871 59.5188 55.0527 59.45C55.083 59.4098 55.1162 59.3718 55.1519 59.3364Z" fill="#263238"/>
<path d="M57.5584 52.3172C57.5438 52.2751 57.533 52.2317 57.5264 52.1876L57.4496 51.8164C57.384 51.4836 57.2896 51.0164 57.1808 50.4452C56.9616 49.2788 56.6608 47.6804 56.3296 45.9156C56.288 45.6948 56.248 45.4756 56.208 45.2596C56.168 45.0436 56.1184 44.8324 56.096 44.6196C56.0409 44.2125 56.0259 43.8009 56.0512 43.3908C56.0775 43.0205 56.1337 42.6529 56.2192 42.2916C56.2999 41.9784 56.4031 41.6715 56.528 41.3732C56.7096 40.9419 56.9445 40.5349 57.2272 40.162C57.3232 40.026 57.4128 39.9332 57.4672 39.866C57.4931 39.83 57.5238 39.7978 57.5584 39.77C57.5584 39.77 57.5328 39.8068 57.48 39.8772C57.4272 39.9476 57.344 40.0372 57.2544 40.1812C56.9829 40.5579 56.7574 40.9655 56.5824 41.3956C56.4616 41.692 56.3627 41.9968 56.2864 42.3076C56.2036 42.6653 56.1501 43.0292 56.1264 43.3956C56.1036 43.8005 56.1202 44.2067 56.176 44.6084C56.1984 44.8196 56.2512 45.0276 56.288 45.2484C56.3248 45.4692 56.368 45.682 56.4096 45.9044C56.7296 47.6644 57.024 49.2644 57.2368 50.4388C57.3392 51.0132 57.4208 51.482 57.4784 51.8148L57.5408 52.1892C57.5501 52.2313 57.556 52.2741 57.5584 52.3172Z" fill="#263238"/>
<path d="M37.9583 52.0116C37.9317 51.9357 37.9119 51.8575 37.8991 51.778C37.8671 51.61 37.8239 51.3924 37.7711 51.138C37.6671 50.594 37.5279 49.8388 37.3791 49.0052C37.2303 48.1716 37.1007 47.4148 37.0111 46.8676C36.9695 46.6036 36.9343 46.3876 36.9087 46.218C36.8933 46.1389 36.8842 46.0586 36.8815 45.978C36.9084 46.0539 36.9282 46.1321 36.9407 46.2116C36.9727 46.3716 37.0159 46.5956 37.0687 46.8516C37.1727 47.3972 37.3119 48.1524 37.4607 48.986C37.6095 49.8196 37.7391 50.5748 37.8287 51.1236C37.8703 51.386 37.9055 51.6036 37.9311 51.7732C37.9464 51.8518 37.9555 51.9316 37.9583 52.0116Z" fill="#263238"/>
<path d="M58.1583 44.5383C58.2046 44.2285 58.278 43.9233 58.3775 43.6263C58.4514 43.322 58.552 43.0248 58.6783 42.7383C58.631 43.048 58.5571 43.3532 58.4575 43.6503C58.385 43.9547 58.2848 44.252 58.1583 44.5383Z" fill="#FAFAFA"/>
<path d="M59.0943 47.7476C58.8484 47.6371 58.6146 47.5015 58.3967 47.3428C58.1638 47.2048 57.9451 47.044 57.7439 46.8628C58.2228 47.1101 58.6753 47.4055 59.0943 47.7444V47.7476Z" fill="#FAFAFA"/>
<path d="M60.8607 46.5078C60.8233 46.2312 60.8298 45.9504 60.8799 45.6758C60.9027 45.3976 60.968 45.1246 61.0735 44.8662C61.0975 44.8662 61.0207 45.2342 60.9631 45.687C60.9055 46.1398 60.8847 46.5078 60.8607 46.5078Z" fill="#FAFAFA"/>
<path d="M61.2144 49.6117C61.105 49.3693 61.0109 49.1203 60.9328 48.8661C60.8268 48.6216 60.7355 48.371 60.6592 48.1157C60.8117 48.3372 60.9298 48.5805 61.0096 48.8373C61.1154 49.084 61.1844 49.345 61.2144 49.6117Z" fill="#FAFAFA"/>
<path d="M59.8447 51.532C59.4079 51.2061 59.0048 50.8373 58.6415 50.4312C59.0792 50.7559 59.4824 51.1248 59.8447 51.532Z" fill="#FAFAFA"/>
<path d="M64.0385 49.292C64.0561 49.3096 63.8049 49.588 63.5585 49.9752C63.3121 50.3624 63.1489 50.7032 63.1265 50.6936C63.1978 50.4182 63.3205 50.1587 63.4881 49.9288C63.6309 49.6845 63.8175 49.4687 64.0385 49.292Z" fill="#FAFAFA"/>
<path d="M59.4656 41.418C59.2926 41.3183 59.1348 41.1944 58.9968 41.05C58.8395 40.9263 58.7001 40.7815 58.5824 40.6196C58.7551 40.7211 58.9133 40.8454 59.0528 40.9892C59.2096 41.1124 59.3485 41.2567 59.4656 41.418Z" fill="#FAFAFA"/>
<path d="M54.3072 41.543C53.9223 41.8334 53.5058 42.0792 53.0656 42.2758C53.2487 42.1191 53.4496 41.9843 53.664 41.8742C53.865 41.7395 54.0808 41.6284 54.3072 41.543Z" fill="#FAFAFA"/>
<path d="M53.4048 46.0598C53.2356 45.8925 53.0863 45.7062 52.96 45.5046C52.8113 45.319 52.6851 45.1166 52.584 44.9014C52.9023 45.2538 53.1778 45.6426 53.4048 46.0598Z" fill="#FAFAFA"/>
<path d="M55.3583 47.5316C55.1746 48.0229 54.8781 48.464 54.4927 48.8196C54.4751 48.802 54.6959 48.5348 54.9327 48.1796C55.1695 47.8244 55.3359 47.5188 55.3583 47.5316Z" fill="#FAFAFA"/>
<path d="M50.6111 47.8615C50.5871 47.8695 50.4511 47.5111 50.2319 47.0999C50.0127 46.6887 49.7871 46.3783 49.8063 46.3623C50.1974 46.7849 50.473 47.3013 50.6063 47.8615H50.6111Z" fill="#FAFAFA"/>
<path d="M51.6014 50.9335C51.6901 50.672 51.8048 50.4201 51.9438 50.1815C52.0569 49.9294 52.1958 49.6898 52.3582 49.4663C52.2696 49.7281 52.1555 49.9805 52.0174 50.2199C51.9033 50.4712 51.7639 50.7103 51.6014 50.9335Z" fill="#FAFAFA"/>
<path d="M54.9151 53.2373C54.822 52.9532 54.7545 52.6614 54.7135 52.3653C54.6469 52.0746 54.6073 51.7784 54.5951 51.4805C54.6886 51.7639 54.7561 52.0552 54.7967 52.3509C54.8634 52.642 54.9031 52.9388 54.9151 53.2373Z" fill="#FAFAFA"/>
<path d="M48.8975 51.5496C48.6926 51.3847 48.4996 51.2056 48.3199 51.0136C48.1206 50.8412 47.9325 50.6563 47.7567 50.46C47.9865 50.5932 48.1956 50.7592 48.3775 50.9528C48.578 51.1263 48.7531 51.3272 48.8975 51.5496Z" fill="#FAFAFA"/>
<path d="M46.2286 47.1016C45.8686 47.499 45.4681 47.8578 45.0334 48.172C45.3935 47.7745 45.794 47.4157 46.2286 47.1016Z" fill="#FAFAFA"/>
<path d="M45.1791 45.8053C45.0015 45.6088 44.8449 45.3943 44.7119 45.1653C44.5564 44.949 44.4235 44.7174 44.3151 44.4741C44.649 44.8886 44.9386 45.3369 45.1791 45.8117V45.8053Z" fill="#FAFAFA"/>
<path d="M41.1088 48.0389C40.8938 47.7986 40.6995 47.5407 40.528 47.2677C40.3345 47.011 40.1637 46.738 40.0176 46.4517C40.2326 46.6909 40.4264 46.9484 40.5968 47.2213C40.7914 47.4781 40.9627 47.7517 41.1088 48.0389Z" fill="#FAFAFA"/>
<path d="M42.3136 50.7095C42.3136 50.7335 41.7888 50.7415 41.144 50.7751C40.4992 50.8087 39.9776 50.8503 39.9744 50.8263C40.0839 50.7914 40.1972 50.7699 40.312 50.7623C40.5232 50.7351 40.816 50.7079 41.1392 50.6919C41.4624 50.6759 41.7568 50.6743 41.9696 50.6791C42.0851 50.6744 42.2007 50.6846 42.3136 50.7095Z" fill="#FAFAFA"/>
<path d="M42.6097 42.9639C42.6321 42.9639 42.5409 43.3655 42.4576 43.8583C42.3744 44.3511 42.3296 44.7559 42.3056 44.7543C42.2974 44.144 42.4004 43.5372 42.6097 42.9639Z" fill="#FAFAFA"/>
<path d="M40.9888 40.6166C41.1691 40.3302 41.3724 40.0589 41.5968 39.8054C41.7996 39.5341 42.0243 39.2799 42.2688 39.0454C42.0884 39.3319 41.8851 39.6032 41.6608 39.8566C41.458 40.1279 41.2332 40.3821 40.9888 40.6166Z" fill="#FAFAFA"/>
<path d="M39.363 42.8055C39.3454 42.8215 38.9678 42.4375 38.4686 42.0055C37.9694 41.5735 37.5438 41.2375 37.5582 41.2183C37.666 41.2675 37.7666 41.331 37.8574 41.4071C38.035 41.5351 38.2734 41.7271 38.5246 41.9431C38.7758 42.1591 38.9886 42.3783 39.139 42.5383C39.2252 42.617 39.3005 42.7069 39.363 42.8055Z" fill="#FAFAFA"/>
<path d="M36.6576 43.5669C36.6688 43.5893 36.1936 43.8437 35.6672 44.2437C35.1408 44.6437 34.7664 45.0309 34.7472 45.0133C34.8104 44.9124 34.8874 44.8209 34.976 44.7413C35.1752 44.5376 35.3891 44.3488 35.616 44.1765C35.8436 44.0042 36.0837 43.8491 36.3344 43.7125C36.4346 43.6488 36.5435 43.5998 36.6576 43.5669Z" fill="#FAFAFA"/>
<path d="M33.0272 45.8133C33.0048 45.8133 33.008 45.3797 32.9872 44.8453C32.9664 44.3109 32.9312 43.8853 32.9552 43.8853C33.0315 44.1996 33.0702 44.5218 33.0704 44.8453C33.0962 45.1685 33.0817 45.4936 33.0272 45.8133Z" fill="#FAFAFA"/>
<path d="M35.7039 48.1814C35.1888 47.8131 34.7069 47.4003 34.2639 46.9478C34.5286 47.1208 34.7776 47.3167 35.0079 47.5334C35.2595 47.7274 35.4925 47.9443 35.7039 48.1814Z" fill="#FAFAFA"/>
<path d="M39.9359 44.7896C39.6363 44.897 39.3279 44.9784 39.0143 45.0328C38.7062 45.1147 38.3913 45.1682 38.0735 45.1928C38.3736 45.0851 38.6825 45.0038 38.9967 44.9496C39.3044 44.8685 39.6187 44.815 39.9359 44.7896Z" fill="#FAFAFA"/>
<path d="M48.2352 45.887C48.092 45.7961 47.9645 45.6826 47.8576 45.551C47.7298 45.4378 47.6217 45.3043 47.5376 45.1558C47.6806 45.2475 47.8081 45.3615 47.9152 45.4934C48.0426 45.6063 48.1506 45.7392 48.2352 45.887Z" fill="#FAFAFA"/>
<path d="M51.9584 43.7256C51.8191 43.9074 51.6579 44.0713 51.4784 44.2136C51.3164 44.3766 51.1354 44.5195 50.9392 44.6392C51.2415 44.2941 51.5848 43.9873 51.9616 43.7256H51.9584Z" fill="#FAFAFA"/>
<path d="M55.1422 44.6067C55.1198 44.6067 55.2126 44.2387 55.3022 43.7859C55.3918 43.3331 55.4206 42.9603 55.4446 42.9619C55.4679 43.2428 55.4473 43.5257 55.3838 43.8003C55.345 44.0799 55.2636 44.3519 55.1422 44.6067Z" fill="#FAFAFA"/>
<path d="M38.7839 49.7542C38.6827 49.6423 38.6029 49.5127 38.5487 49.3718C38.4706 49.2429 38.4164 49.1009 38.3887 48.9526C38.4918 49.064 38.5732 49.1937 38.6287 49.335C38.7049 49.4645 38.7574 49.6064 38.7839 49.7542Z" fill="#FAFAFA"/>
<path d="M44.5167 49.9781C44.4144 49.8132 44.3352 49.635 44.2815 49.4485C44.2015 49.2711 44.1476 49.083 44.1215 48.8901C44.224 49.0547 44.3027 49.233 44.3551 49.4197C44.436 49.597 44.4904 49.7851 44.5167 49.9781Z" fill="#FAFAFA"/>
<path d="M47.643 48.4039C47.6254 48.3879 47.7182 48.2535 47.851 48.1031C47.9838 47.9527 48.1038 47.8423 48.1214 47.8567C48.139 47.8711 48.0446 48.0071 47.9134 48.1575C47.7822 48.3079 47.6686 48.4183 47.643 48.4039Z" fill="#FAFAFA"/>
<path d="M41.2192 58.4244C41.0582 58.2027 40.9369 57.9548 40.8608 57.6916C40.7597 57.4368 40.7055 57.1657 40.7008 56.8916C40.7248 56.8916 40.7984 57.2436 40.944 57.6644C41.0896 58.0852 41.2416 58.4116 41.2192 58.4244Z" fill="#FAFAFA"/>
<path d="M43.6592 58.607C43.6991 58.3699 43.7657 58.138 43.8576 57.9158C43.9229 57.6849 44.0152 57.4626 44.1328 57.2534C44.0931 57.4899 44.0271 57.7212 43.936 57.943C43.8696 58.1743 43.7767 58.3971 43.6592 58.607Z" fill="#FAFAFA"/>
<path d="M42.9471 61.3799C42.7933 61.1774 42.6624 60.9584 42.5567 60.7271C42.4252 60.5079 42.3179 60.2751 42.2367 60.0327C42.3896 60.2361 42.52 60.4555 42.6255 60.6871C42.7565 60.9062 42.8643 61.1384 42.9471 61.3799Z" fill="#FAFAFA"/>
<path d="M47.4673 60.5829C47.1908 60.5405 46.9215 60.4597 46.6673 60.3429C46.4042 60.2519 46.1557 60.123 45.9297 59.9604C46.1918 60.0476 46.4488 60.1497 46.6993 60.2661C46.9615 60.3558 47.218 60.4616 47.4673 60.5829Z" fill="#FAFAFA"/>
<path d="M46.0048 58.9382C45.9936 58.9174 46.2768 58.7334 46.5968 58.471C46.9169 58.2086 47.1569 57.9702 47.1745 57.991C46.8705 58.401 46.4683 58.7278 46.0048 58.9414V58.9382Z" fill="#FAFAFA"/>
<path d="M49.7711 60.1078C49.7567 60.127 49.4655 59.9478 49.0831 59.7622C48.7007 59.5766 48.3743 59.4726 48.3807 59.4502C48.8948 59.5407 49.375 59.7679 49.7711 60.1078Z" fill="#FAFAFA"/>
<path d="M50.5743 61.6116C50.5583 61.594 50.7775 61.37 51.0191 61.0676C51.2607 60.7652 51.4303 60.5028 51.4511 60.5156C51.367 60.7383 51.2422 60.9433 51.0831 61.1204C50.9459 61.3146 50.7733 61.4813 50.5743 61.6116Z" fill="#FAFAFA"/>
<path d="M42.3584 64.5172C42.0923 64.39 41.8389 64.2379 41.6016 64.0628C41.3481 63.9116 41.1096 63.7364 40.8896 63.5396C41.1558 63.6667 41.4092 63.8188 41.6464 63.994C41.9 64.1451 42.1384 64.3203 42.3584 64.5172Z" fill="#FAFAFA"/>
<path d="M45.4191 63.7622C45.4287 63.7846 45.0991 63.9302 44.7263 64.1734C44.3535 64.4166 44.0863 64.6534 44.0687 64.6406C44.424 64.2228 44.8932 63.9176 45.4191 63.7622Z" fill="#FAFAFA"/>
<path d="M48.1568 64.9717C48.0217 64.8368 47.9059 64.6839 47.8128 64.5173C47.6973 64.3654 47.6051 64.1971 47.5392 64.0181C47.7912 64.3059 47.9993 64.6294 48.1568 64.9781V64.9717Z" fill="#FAFAFA"/>
<path d="M51.4559 63.8823C51.4655 63.9047 51.1551 64.0519 50.8031 64.2807C50.4511 64.5095 50.1871 64.7287 50.1631 64.7111C50.3268 64.5093 50.5264 64.3396 50.7519 64.2103C50.9636 64.0573 51.2025 63.946 51.4559 63.8823Z" fill="#FAFAFA"/>
<path d="M52.9808 62.4502C52.9584 62.4614 52.864 62.2902 52.6848 62.151C52.5056 62.0118 52.328 61.9414 52.3344 61.919C52.4847 61.9169 52.6296 61.9744 52.7376 62.079C52.8646 62.1657 52.952 62.2991 52.9808 62.4502Z" fill="#FAFAFA"/>
<path d="M54.7088 64.0981C54.5412 64.2309 54.3573 64.3416 54.1616 64.4277C53.9778 64.537 53.7811 64.6229 53.576 64.6837C53.7431 64.5501 53.9271 64.4393 54.1232 64.3541C54.3064 64.2435 54.5033 64.1575 54.7088 64.0981Z" fill="#FAFAFA"/>
<path d="M56.2656 64.9717C56.2417 64.9717 56.3296 64.6053 56.3872 64.1541C56.4448 63.7029 56.4512 63.3301 56.4768 63.3301C56.5208 63.6064 56.5181 63.8882 56.4688 64.1637C56.4474 64.4426 56.3787 64.7158 56.2656 64.9717Z" fill="#FAFAFA"/>
<path d="M56.0191 62.1943C56.0047 62.2151 55.6815 61.9959 55.2383 61.8215C54.7951 61.6471 54.4111 61.5847 54.4143 61.5591C54.7089 61.5609 54.9999 61.6241 55.2687 61.7447C55.548 61.8394 55.8039 61.9927 56.0191 62.1943Z" fill="#FAFAFA"/>
<path d="M52.5502 53.8183C52.0706 53.5727 51.6176 53.2784 51.1982 52.9399C51.6773 53.1866 52.1302 53.4809 52.5502 53.8183Z" fill="#FAFAFA"/>
<g opacity="0.3">
<path opacity="0.3" d="M44.4352 63.0678C44.3841 62.9679 44.3684 62.8537 44.3908 62.7438C44.4132 62.6339 44.4723 62.5349 44.5584 62.463C44.7359 62.3243 44.9499 62.2403 45.1744 62.2214C46.32 62.0422 47.5472 62.3526 48.6208 61.9158C49.3408 61.6214 49.9008 61.0214 50.3232 60.3718C50.7456 59.7222 51.08 59.0118 51.4976 58.3558C51.872 57.7654 52.3504 57.2022 53.0032 56.9494C53.656 56.6966 54.5056 56.8582 54.8592 57.4614C55.2128 58.0646 54.976 58.8054 54.6448 59.4006C53.7088 61.0806 52.0224 62.2694 50.184 62.8358C48.3456 63.4022 46.3664 63.3878 44.4688 63.0518" fill="black"/>
</g>
<path d="M67.1231 58.1188L65.3375 51.7476L57.9871 52.698L58.8479 56.0772L47.8543 53.1444L45.4287 56.3636L62.1167 64.2436C62.8817 64.5696 63.7279 64.6546 64.5424 64.4871C65.3569 64.3195 66.1009 63.9075 66.6751 63.306C67.6991 62.2244 67.5759 59.5412 67.1231 58.1188Z" fill="#FFBE9D"/>
<path d="M36.7407 52.0115C36.4943 51.9459 36.1967 51.8931 36.0143 52.0691C35.9423 52.154 35.8999 52.2601 35.8935 52.3712C35.8872 52.4824 35.9172 52.5926 35.9791 52.6851C36.0927 52.8755 36.1791 52.9027 36.4799 53.0051L39.4063 53.6691L40.5263 52.7923L36.7407 52.0115Z" fill="#EB996E"/>
<path d="M45.8751 56.5175C42.2991 55.6423 38.9807 54.4855 35.448 53.8135C35.272 53.7799 35.0736 53.7335 34.9808 53.5783C34.8544 53.3671 35.0176 53.0807 35.2432 52.9847C35.4788 52.9118 35.7296 52.9035 35.9696 52.9607C37.8598 53.2235 39.7813 53.1586 41.6495 52.7687C42.8607 52.5143 44.0495 52.1287 45.2719 51.9687C46.4943 51.8087 46.8239 52.4487 47.8543 53.1367" fill="#FFBE9D"/>
<path d="M47.8543 53.1445C47.5568 52.6227 47.1242 52.1906 46.6019 51.8939C46.0796 51.5971 45.4869 51.4466 44.8863 51.4581C44.1551 51.4821 43.4559 51.7477 42.7503 51.9381C42.0447 52.1285 41.2735 52.2469 40.5919 51.9781C40.3311 51.8757 40.0879 51.7173 39.8095 51.6789C39.5311 51.6405 39.1983 51.7765 39.1487 52.0517C39.1103 52.2597 39.2447 52.4581 39.3903 52.6133C39.9023 53.1541 41.5327 53.7557 42.8175 53.6917" fill="#FFBE9D"/>
<path d="M42.8174 53.6936C42.8174 53.6808 42.6206 53.6936 42.2718 53.6584C41.7812 53.6067 41.2981 53.4993 40.8318 53.3384C40.5078 53.2309 40.1954 53.0916 39.899 52.9224C39.7354 52.8321 39.5847 52.7201 39.451 52.5896C39.3797 52.5288 39.3214 52.4542 39.2796 52.3704C39.2378 52.2865 39.2134 52.1951 39.2078 52.1016C39.2249 52.0082 39.2723 51.923 39.3425 51.8592C39.4127 51.7953 39.502 51.7562 39.5966 51.748C39.8072 51.7237 40.02 51.7668 40.2046 51.8712C40.4132 51.9794 40.6325 52.0658 40.859 52.1288C41.0957 52.1852 41.339 52.2089 41.5822 52.1992C42.5726 52.1656 43.4254 51.7544 44.235 51.5992C44.6154 51.513 45.0077 51.4925 45.395 51.5384C45.7316 51.5833 46.0596 51.6788 46.3678 51.8216C46.8166 52.0299 47.215 52.3328 47.5358 52.7096C47.7598 52.9784 47.8558 53.1528 47.8558 53.1464C47.8411 53.101 47.8201 53.0579 47.7934 53.0184C47.7283 52.8985 47.6522 52.785 47.5662 52.6792C47.2546 52.2811 46.8555 51.9603 46.3998 51.7416C46.0848 51.5887 45.748 51.4856 45.4014 51.436C45.0031 51.3837 44.5988 51.4005 44.2062 51.4856C43.3774 51.6456 42.5262 52.0424 41.5726 52.0744C41.3402 52.0829 41.1077 52.0603 40.8814 52.0072C40.6628 51.9463 40.451 51.8632 40.2494 51.7592C40.0412 51.646 39.8028 51.6012 39.5678 51.6312C39.45 51.6512 39.3396 51.702 39.2478 51.7784C39.2012 51.8184 39.163 51.8673 39.1356 51.9223C39.1081 51.9772 39.0918 52.0371 39.0878 52.0984C39.0925 52.2082 39.1198 52.3159 39.1679 52.4147C39.2161 52.5136 39.2841 52.6014 39.3678 52.6728C39.5109 52.8098 39.6724 52.9261 39.8478 53.0184C40.1529 53.1879 40.4745 53.3257 40.8078 53.4296C41.2847 53.5854 41.7792 53.6816 42.2798 53.716C42.4156 53.7242 42.5519 53.7242 42.6878 53.716C42.7317 53.7138 42.7752 53.7062 42.8174 53.6936Z" fill="#EB996E"/>
<path d="M62.1215 57.0935C62.1215 57.0935 62.1087 57.0935 62.0847 57.0823L61.9807 57.0455L61.6031 56.9079C61.2831 56.7927 60.8383 56.6407 60.3439 56.4855C59.8495 56.3303 59.3967 56.2023 59.0639 56.1159L58.6751 56.0151L58.5679 55.9879C58.5439 55.9879 58.5311 55.9767 58.5327 55.9751H58.5695L58.6783 55.9959C58.7711 56.0151 58.9055 56.0455 59.0703 56.0855C59.4015 56.1687 59.8543 56.2919 60.3503 56.4471C60.8463 56.6023 61.2895 56.7591 61.6079 56.8791C61.7679 56.9399 61.8943 56.9911 61.9823 57.0279L62.0831 57.0711L62.1215 57.0935Z" fill="#EB996E"/>
<path d="M48.3087 43.9527C49.3162 43.9094 50.2682 43.4786 50.9658 42.7503C51.6634 42.022 52.0528 41.0524 52.0527 40.0439V35.4039L52.3087 20.5783L51.9775 19.7431L44.1695 17.2791C41.7695 17.0919 40.1567 20.3927 40.0719 22.7991C39.9775 25.4743 39.9679 28.7431 40.3391 30.7255C41.0847 34.7127 44.1695 35.1383 44.1695 35.1383L44.2303 40.0983C44.2375 40.6215 44.3496 41.1379 44.5599 41.617C44.7703 42.0961 45.0746 42.5281 45.4549 42.8875C45.8351 43.2468 46.2836 43.5263 46.7738 43.7093C47.264 43.8922 47.7859 43.975 48.3087 43.9527Z" fill="#FFBE9D"/>
<path d="M41.1088 25.399C41.1113 25.5331 41.166 25.661 41.2613 25.7554C41.3566 25.8499 41.485 25.9034 41.6192 25.9046C41.6848 25.9076 41.7503 25.8975 41.8119 25.8749C41.8736 25.8523 41.9301 25.8177 41.9782 25.773C42.0263 25.7283 42.0651 25.6745 42.0921 25.6147C42.1192 25.5548 42.1341 25.4902 42.136 25.4246C42.1331 25.2907 42.0782 25.1633 41.9829 25.0692C41.8876 24.9751 41.7595 24.9218 41.6256 24.9206C41.56 24.9172 41.4944 24.9269 41.4327 24.9492C41.3709 24.9716 41.3143 25.0061 41.2661 25.0507C41.218 25.0953 41.1792 25.1491 41.1522 25.2089C41.1251 25.2687 41.1104 25.3334 41.1088 25.399Z" fill="#263238"/>
<path d="M40.8256 24.4532C40.8912 24.5188 41.2736 24.2196 41.8256 24.2052C42.3776 24.1908 42.7856 24.4564 42.8496 24.3876C42.8784 24.3572 42.8096 24.2372 42.6288 24.114C42.3855 23.9545 42.0987 23.8746 41.808 23.8852C41.5183 23.8906 41.2379 23.9888 41.008 24.1652C40.848 24.3012 40.7888 24.4244 40.8256 24.4532Z" fill="#263238"/>
<path d="M46.4672 25.399C46.4696 25.5329 46.5242 25.6605 46.6191 25.7549C46.7141 25.8493 46.8421 25.903 46.976 25.9046C47.0417 25.908 47.1074 25.8983 47.1692 25.8758C47.2311 25.8534 47.2878 25.8187 47.336 25.774C47.3842 25.7292 47.4229 25.6752 47.4498 25.6152C47.4768 25.5552 47.4914 25.4904 47.4928 25.4246C47.4907 25.2908 47.4363 25.163 47.3412 25.0688C47.246 24.9746 47.1178 24.9214 46.984 24.9206C46.9184 24.9172 46.8528 24.9269 46.7911 24.9492C46.7293 24.9716 46.6727 25.0061 46.6245 25.0507C46.5764 25.0953 46.5376 25.1491 46.5106 25.2089C46.4835 25.2687 46.4688 25.3334 46.4672 25.399Z" fill="#263238"/>
<path d="M46.2623 24.4068C46.3279 24.4708 46.7103 24.1732 47.2623 24.1588C47.8143 24.1444 48.2223 24.41 48.2863 24.3412C48.3135 24.3108 48.2463 24.1908 48.0655 24.0676C47.8221 23.9083 47.5354 23.8284 47.2447 23.8388C46.9549 23.8442 46.6746 23.9423 46.4447 24.1188C46.2847 24.2548 46.2287 24.3764 46.2623 24.4068Z" fill="#263238"/>
<path d="M44.3695 28.5604C44.3695 28.53 44.0255 28.4788 43.4671 28.4228C43.3263 28.4132 43.1919 28.3892 43.1647 28.2932C43.1485 28.1477 43.1776 28.0007 43.2479 27.8724C43.3711 27.5268 43.4991 27.1652 43.6351 26.786C44.1727 25.2388 44.5583 23.97 44.4959 23.9476C44.4335 23.9252 43.9455 25.1636 43.4095 26.7092L43.0383 27.802C42.9903 27.962 42.9023 28.1476 42.9807 28.3572C43.0024 28.4066 43.0351 28.4504 43.0765 28.4851C43.1179 28.5198 43.1667 28.5444 43.2191 28.5572C43.2975 28.5769 43.3783 28.5861 43.4591 28.5844C44.0207 28.5988 44.3679 28.5924 44.3695 28.5604Z" fill="#263238"/>
<path d="M44.1678 35.1124C46.0547 35.0889 47.8981 34.5422 49.4926 33.5332C49.4926 33.5332 48.267 36.3204 44.2478 36.0564L44.1678 35.1124Z" fill="#EB996E"/>
<path d="M46.0593 22.2518C46.1185 22.4006 46.6689 22.3142 47.3185 22.375C47.9681 22.4358 48.4993 22.5974 48.5825 22.4598C48.6177 22.3942 48.5233 22.255 48.3073 22.1158C48.0204 21.9451 47.6984 21.842 47.3657 21.8142C47.0331 21.7865 46.6984 21.8349 46.3873 21.9558C46.1505 22.0518 46.0353 22.1734 46.0593 22.2518Z" fill="#263238"/>
<path d="M40.9856 22.847C41.0864 22.9702 41.4656 22.8294 41.9216 22.8102C42.3776 22.791 42.7696 22.8726 42.8544 22.7382C42.8912 22.6726 42.8272 22.5494 42.6544 22.4358C42.4249 22.2949 42.1567 22.2299 41.888 22.2502C41.6192 22.2627 41.361 22.3583 41.1488 22.5238C40.9904 22.6566 40.9488 22.7878 40.9856 22.847Z" fill="#263238"/>
<path d="M42.792 17.5527C42.9777 18.8063 43.4744 19.9935 44.2368 21.0058C44.9993 22.0181 46.0031 22.8233 47.1568 23.3479C47.0875 23.0279 47.0192 22.7079 46.952 22.3879C47.9408 24.0231 50.04 25.3927 51.3904 25.9463C51.808 26.1175 52.3424 25.9639 52.7216 25.7207C53.2528 25.3815 53.2848 24.6199 53.1728 23.9991C52.8256 22.0567 51.6736 20.3191 50.1728 19.0391C48.672 17.7591 46.8416 16.9047 44.9488 16.3319C44.448 16.1799 44.1744 16.0759 43.6784 16.2439C43.1824 16.4119 42.5328 16.9767 42.7728 17.4407" fill="#263238"/>
<path d="M50.7568 23.0038C51.9024 27.1078 50.3872 31.6694 50.7776 35.9126C50.864 36.8582 51.208 37.9526 52.0048 38.4726C52.3984 38.7286 52.4848 38.567 52.9376 38.6566C54.0944 38.8806 55.1872 38.3958 56.3424 38.6198C57.3856 38.823 59.0448 39.4198 59.7024 38.583C60.36 37.7462 59.6016 36.7622 58.9584 35.943C58.3152 35.1238 57.4512 34.423 57.1344 33.4294C56.792 32.3622 57.1616 31.2166 57.3216 30.1062C57.8688 26.3158 56.5216 22.4758 54.2816 19.367C53.5008 18.2838 52.3232 17.2582 51.264 16.4438C50.2048 15.6294 47.8096 14.943 46.4752 15.0038C45.1408 15.0646 42.9184 16.1238 42.3744 17.6198" fill="#263238"/>
<path d="M46.3262 20.6612C46.3182 20.6756 46.4062 20.7348 46.5758 20.8324L46.8782 21.0084L46.6206 20.762C45.9936 20.1782 45.458 19.5035 45.0318 18.7604C44.2318 17.3828 44.1102 16.0628 44.0462 16.0788C44.0254 16.0788 44.0254 16.4084 44.131 16.9284C44.2739 17.6026 44.5212 18.2504 44.8638 18.8484C45.2897 19.6155 45.8693 20.2865 46.5662 20.8196L46.6126 20.7492C46.4318 20.682 46.3326 20.6516 46.3262 20.6612Z" fill="#455A64"/>
<path d="M53.5887 37.7363C53.5964 37.6485 53.5964 37.5602 53.5887 37.4723C53.5887 37.2995 53.5887 37.0451 53.5967 36.7171C53.6498 35.7937 53.7858 34.877 54.0031 33.9779C54.2495 32.8323 54.6575 31.4899 54.9023 29.9443C55.0292 29.1344 55.0684 28.3131 55.0191 27.4947C54.9761 26.606 54.7535 25.7351 54.3647 24.9347C53.96 24.1405 53.3673 23.4572 52.6383 22.9443C51.9503 22.4339 51.2319 22.0403 50.5759 21.6307C49.408 20.9123 48.3332 20.0524 47.3759 19.0707C46.7339 18.4061 46.1454 17.6919 45.6159 16.9347C45.4287 16.6659 45.2863 16.4547 45.1919 16.3091C45.1463 16.2322 45.0927 16.1603 45.0319 16.0947C45.0653 16.1766 45.106 16.2553 45.1535 16.3299C45.2351 16.4899 45.3695 16.7011 45.5471 16.9699C46.058 17.7485 46.6368 18.4805 47.2767 19.1571C48.227 20.1638 49.3024 21.0446 50.4767 21.7779C51.1359 22.1939 51.8495 22.5907 52.5199 23.0915C53.2229 23.5871 53.795 24.246 54.1871 25.0115C54.5635 25.7873 54.7811 26.6305 54.8271 27.4915C54.8771 28.2967 54.8422 29.1049 54.7231 29.9027C54.4911 31.4291 54.0959 32.7827 53.8655 33.9331C53.6582 34.8414 53.5419 35.7682 53.5183 36.6995C53.5142 36.9527 53.5238 37.2058 53.5471 37.4579C53.5498 37.552 53.5638 37.6455 53.5887 37.7363Z" fill="#455A64"/>
<path d="M40.0688 19.4597C39.9265 20.4947 39.8431 21.5369 39.8192 22.5813C40.6288 21.9285 41.4464 21.2613 42.0592 20.4181C42.672 19.5749 43.0544 18.5205 42.8944 17.4917C42.3081 17.6641 41.7776 17.988 41.3563 18.4307C40.9349 18.8733 40.6377 19.4192 40.4944 20.0133" fill="#263238"/>
<path d="M44.195 30.4357C44.3326 30.1669 44.3694 30.0981 44.603 29.9701C44.7802 29.9253 44.963 29.907 45.1454 29.9157C45.323 29.9253 45.4414 30.1013 45.507 30.2661C45.6143 30.5044 45.6297 30.7739 45.5502 31.0229C45.4574 31.2645 44.619 31.5541 44.1678 30.9189" fill="#EB996E"/>
<path d="M44.8847 31.3398C44.9305 31.3369 44.9765 31.3369 45.0223 31.3398C45.1437 31.334 45.2607 31.2923 45.3583 31.2198C45.4911 31.0992 45.5767 30.9353 45.5999 30.7574C45.6186 30.6516 45.6104 30.5428 45.576 30.441C45.5416 30.3393 45.4822 30.2478 45.4031 30.175C45.2301 30.0392 45.0149 29.9684 44.7951 29.975C44.7067 29.9784 44.6201 30.0006 44.5409 30.04C44.4617 30.0795 44.3918 30.1353 44.3359 30.2038C44.2613 30.3005 44.2124 30.4144 44.1935 30.535C44.1901 30.5812 44.1815 30.6268 44.1679 30.671C44.1548 30.6253 44.152 30.5772 44.1599 30.5302C44.1687 30.4 44.2136 30.2748 44.2895 30.1686C44.3442 30.0957 44.4127 30.0343 44.4911 29.9878C44.5827 29.9343 44.6859 29.9036 44.7919 29.8982C44.9066 29.8938 45.0212 29.9084 45.1311 29.9414C45.2492 29.974 45.3585 30.0325 45.4511 30.1126C45.5484 30.1968 45.6181 30.3083 45.6511 30.4326C45.6839 30.5443 45.6899 30.6622 45.6687 30.7766C45.6487 30.8778 45.6136 30.9754 45.5647 31.0662C45.514 31.1662 45.4348 31.2491 45.3372 31.3043C45.2395 31.3595 45.1278 31.3847 45.0159 31.3766C44.9698 31.3752 44.9248 31.3626 44.8847 31.3398Z" fill="#263238"/>
<path d="M46.787 27.2582C46.8014 27.2758 46.7486 27.3366 46.6558 27.3478C46.563 27.359 46.4958 27.3094 46.5086 27.2902C46.5214 27.271 46.579 27.2726 46.6462 27.2646C46.7134 27.2566 46.7726 27.239 46.787 27.2582Z" fill="#EB996E"/>
<path d="M47.6686 27.2116C47.6462 27.2116 47.6158 27.1684 47.603 27.106C47.5903 27.0436 47.5951 26.9876 47.6174 26.9828C47.6398 26.978 47.6702 27.0244 47.6846 27.0884C47.699 27.1524 47.6974 27.2116 47.6686 27.2116Z" fill="#EB996E"/>
<path d="M48.7393 26.8565C48.7393 26.8789 48.6785 26.8853 48.6161 26.8725C48.5537 26.8597 48.5057 26.8277 48.5105 26.8053C48.5153 26.7829 48.5713 26.7765 48.6337 26.7909C48.6961 26.8053 48.7441 26.8341 48.7393 26.8565Z" fill="#EB996E"/>
<path d="M47.2446 28.1476C47.2222 28.1476 47.203 28.0964 47.203 28.034C47.203 27.9716 47.2222 27.9204 47.2446 27.9204C47.267 27.9204 47.2862 27.97 47.2862 28.034C47.2862 28.098 47.267 28.1476 47.2446 28.1476Z" fill="#EB996E"/>
<path d="M48.2063 27.7172C48.1839 27.7172 48.1647 27.706 48.1647 27.6916C48.1647 27.6772 48.1839 27.666 48.2063 27.666C48.2287 27.666 48.2479 27.6772 48.2479 27.6916C48.2479 27.706 48.2303 27.7172 48.2063 27.7172Z" fill="#EB996E"/>
<path d="M41.3198 27.4135C41.3198 27.4359 41.2398 27.4519 41.1599 27.4135C41.0799 27.3751 41.0303 27.3031 41.0479 27.2887C41.0655 27.2743 41.1231 27.3063 41.1934 27.3383C41.2638 27.3703 41.3214 27.3895 41.3198 27.4135Z" fill="#EB996E"/>
<path d="M42.0352 27.2632C42.0234 27.2588 42.0138 27.25 42.0084 27.2387C42.003 27.2273 42.0023 27.2143 42.0064 27.2024C42.0144 27.1752 42.0368 27.156 42.0592 27.1624C42.0711 27.1667 42.0807 27.1755 42.0861 27.1869C42.0915 27.1983 42.0922 27.2113 42.0881 27.2232C42.0873 27.2293 42.0853 27.2352 42.0822 27.2405C42.0791 27.2459 42.075 27.2505 42.07 27.2543C42.0651 27.258 42.0595 27.2607 42.0535 27.2622C42.0476 27.2637 42.0413 27.2641 42.0352 27.2632Z" fill="#EB996E"/>
<path d="M41.6527 28.2999C41.6303 28.2999 41.6063 28.2647 41.5999 28.2167C41.5935 28.1687 41.5999 28.1255 41.6287 28.1223C41.6575 28.1191 41.6751 28.1559 41.6831 28.2055C41.6911 28.2551 41.6767 28.2967 41.6527 28.2999Z" fill="#EB996E"/>
<path d="M40.7118 28.2484C40.6926 28.2356 40.7006 28.1924 40.7278 28.1492C40.755 28.106 40.795 28.0836 40.8142 28.0964C40.8334 28.1092 40.8254 28.154 40.7982 28.1956C40.771 28.2372 40.731 28.2612 40.7118 28.2484Z" fill="#EB996E"/>
<path d="M37.1248 64.0615V71.4855C37.1247 72.1089 36.9758 72.7233 36.6906 73.2776C36.4054 73.832 35.992 74.3102 35.4848 74.6727C34.8207 75.1464 34.0253 75.4009 33.2096 75.4007H23.2896C22.5469 75.4013 21.8193 75.1904 21.192 74.7927L20.8496 74.5719C20.293 74.2193 19.8343 73.732 19.516 73.155C19.1977 72.578 19.0302 71.9301 19.0288 71.2711V64.0615H37.1248Z" fill="#263238"/>
<path d="M19.0288 65.8486H14V66.7222L16.904 67.1686C17.3288 67.2278 17.7317 67.3936 18.0753 67.6504C18.4188 67.9072 18.6918 68.2467 18.8688 68.6374C18.9706 68.8646 19.025 69.1101 19.0288 69.359C19.0288 69.359 20.0528 69.343 20.2272 68.119C20.2272 68.095 20.2352 68.071 20.2384 68.047C20.2961 67.6047 20.2129 67.1554 20.0007 66.763C19.7884 66.3706 19.4578 66.0552 19.056 65.8614L19.0288 65.8486Z" fill="#455A64"/>
<path d="M37.1247 65.855H42.1566V66.7318L39.2526 67.1782C38.8264 67.237 38.4221 67.403 38.0776 67.6607C37.7331 67.9185 37.4597 68.2595 37.283 68.6518C37.1812 68.8789 37.1268 69.1245 37.123 69.3734C37.123 69.3734 36.1007 69.3574 35.9247 68.135L35.9151 68.0614C35.8573 67.619 35.9405 67.1697 36.1528 66.7774C36.3651 66.385 36.6956 66.0695 37.0974 65.8758L37.1247 65.855Z" fill="#455A64"/>
<path d="M37.1249 65.8551C37.1016 65.8724 37.077 65.8879 37.0513 65.9015C36.9782 65.9407 36.9077 65.9846 36.8401 66.0327C36.5827 66.2126 36.3681 66.447 36.2113 66.7191C35.9664 67.1391 35.8764 67.6316 35.9569 68.1111C35.9902 68.4041 36.1062 68.6816 36.2913 68.9111C36.5038 69.1549 36.804 69.305 37.1265 69.3287L37.0881 69.3655C37.0922 69.0696 37.165 68.7787 37.3009 68.5159C37.4384 68.2345 37.6304 67.9833 37.8657 67.7767C38.113 67.5585 38.399 67.3887 38.7089 67.2759C39.0297 67.1713 39.3606 67.1011 39.6961 67.0663L42.1553 66.6903L42.1217 66.7287C42.1217 66.4295 42.1217 66.1383 42.1217 65.8551L42.1601 65.8935L38.5361 65.8791L37.5009 65.8679H37.2241C37.1922 65.8715 37.16 65.8715 37.1281 65.8679H37.2225H37.4961L38.5281 65.8567L42.1601 65.8423H42.1985V65.8807C42.1985 66.1639 42.1985 66.4551 42.1985 66.7543V66.7895H42.1649L39.7057 67.1687C39.3756 67.2033 39.0501 67.2724 38.7345 67.3751C38.4359 67.4827 38.1601 67.6455 37.9217 67.8551C37.6975 68.0442 37.5146 68.2775 37.3844 68.5404C37.2542 68.8032 37.1795 69.0901 37.1649 69.3831V69.4231H37.1281C36.9579 69.411 36.7917 69.365 36.6395 69.2878C36.4873 69.2106 36.352 69.1037 36.2417 68.9735C36.0501 68.7342 35.9312 68.4448 35.8993 68.1399C35.8213 67.6474 35.9193 67.1432 36.1761 66.7159C36.3389 66.4409 36.5628 66.2071 36.8305 66.0327C36.9006 65.9864 36.9738 65.9453 37.0497 65.9095C37.073 65.889 37.0981 65.8707 37.1249 65.8551Z" fill="#263238"/>
<path d="M36.8015 64.2598C36.7888 64.2696 36.7748 64.2777 36.7599 64.2838L36.6351 64.3462L36.1551 64.5814L35.8047 64.7494C35.6751 64.8086 35.5295 64.863 35.3759 64.9254C35.0671 65.047 34.7215 65.2022 34.3215 65.3238L33.6991 65.5318C33.4815 65.6022 33.2495 65.655 33.0127 65.7206C32.5407 65.8598 32.0239 65.9542 31.4831 66.0662C30.3009 66.2709 29.1038 66.3779 27.9039 66.3862C26.7041 66.3787 25.5069 66.2716 24.3247 66.0662C23.7839 65.9558 23.2671 65.8598 22.7951 65.7222C22.5583 65.655 22.3263 65.6022 22.1087 65.5318L21.4863 65.3254C21.0863 65.2038 20.7407 65.0486 20.4303 64.9286C20.2703 64.8646 20.1327 64.8102 20.0031 64.7526L19.6527 64.5846L19.1727 64.3494L19.0479 64.287L19.0079 64.263C19.0236 64.2658 19.0388 64.2712 19.0527 64.279L19.1807 64.3334C19.2975 64.3878 19.4623 64.4614 19.6703 64.5542L20.0239 64.7142C20.1535 64.7702 20.2991 64.8214 20.4527 64.8838C20.7631 64.999 21.1087 65.151 21.5103 65.2678L22.1327 65.4694C22.3487 65.5382 22.5807 65.5894 22.8159 65.6534C23.2879 65.7894 23.8031 65.8806 24.3439 65.9894C25.5217 66.1915 26.7138 66.2985 27.9087 66.3094C29.1037 66.2986 30.2958 66.1916 31.4735 65.9894C32.0143 65.8806 32.5295 65.7878 33.0015 65.6518C33.2367 65.5878 33.4687 65.5366 33.6847 65.4678L34.3071 65.2662C34.7071 65.1494 35.0543 64.9974 35.3631 64.8806C35.5231 64.8198 35.6623 64.767 35.7935 64.7126L36.1455 64.5526L36.6287 64.3318L36.7567 64.2758L36.8015 64.2598Z" fill="#455A64"/>
<path d="M36.8129 64.8745C36.8129 64.8745 36.8001 64.8841 36.7713 64.8985L36.6465 64.9625L36.1665 65.1977L35.8161 65.3577C35.6865 65.4153 35.5409 65.4697 35.3889 65.5337C35.0785 65.6553 34.7329 65.8105 34.3329 65.9321L33.7105 66.1385C33.4929 66.2089 33.2625 66.2617 33.0257 66.3289C32.5457 66.4681 32.0353 66.5625 31.4945 66.6745C30.3127 66.8792 29.1161 66.9862 27.9169 66.9945C26.717 66.9863 25.5199 66.8793 24.3377 66.6745C23.7953 66.5625 23.2785 66.4681 22.8065 66.3289C22.5697 66.2633 22.3377 66.2105 22.1201 66.1401L21.4977 65.9337C21.0977 65.8121 20.7521 65.6569 20.4433 65.5353C20.2833 65.4729 20.1441 65.4185 20.0145 65.3593L19.6689 65.2009L19.1889 64.9657L19.0641 64.9033C19.0353 64.8889 19.0209 64.8809 19.0225 64.8793L19.0673 64.8953L19.1953 64.9513L19.6849 65.1721L20.0385 65.3321C20.1697 65.3865 20.3137 65.4393 20.4689 65.5001C20.7777 65.6169 21.1249 65.7673 21.5249 65.8857L22.1473 66.0857C22.3633 66.1545 22.5953 66.2057 22.8321 66.2697C23.3025 66.4057 23.8193 66.4985 24.3585 66.6073C25.5368 66.8094 26.7294 66.9164 27.9249 66.9273C29.1198 66.9172 30.312 66.8101 31.4897 66.6073C32.0289 66.4985 32.5441 66.4073 33.0161 66.2713C33.2513 66.2073 33.4833 66.1561 33.7009 66.0873L34.3217 65.8857C34.7233 65.7673 35.0689 65.6169 35.3793 65.5001C35.5393 65.4393 35.6785 65.3865 35.8081 65.3305L36.1617 65.1705L36.6513 64.9497L36.7793 64.8953L36.8129 64.8745Z" fill="#455A64"/>
<path d="M33.3999 75.6309C34.7199 75.4261 35.3983 74.7061 35.7823 73.4261C35.9232 73.0313 35.9338 72.6018 35.8127 72.2005C35.6719 71.8101 35.2975 71.4821 34.8815 71.4981C34.3791 71.5189 34.0207 71.9941 33.8159 72.4581C33.6111 72.9221 33.4591 73.4357 33.0639 73.7477C32.6687 74.0597 31.9279 73.9669 31.8431 73.4693C31.8422 73.3376 31.8283 73.2063 31.8015 73.0773C31.6895 72.7765 31.2127 72.7925 31.0015 73.0373C30.7903 73.2821 30.7839 73.6341 30.7935 73.9557C30.8031 74.2773 30.8143 74.6229 30.6335 74.8901C30.3663 75.2885 29.8079 75.3333 29.3279 75.3365L26.4927 75.3637C26.4927 75.3637 26.9727 75.5989 28.2431 75.5989C29.9679 75.5941 33.3999 75.6309 33.3999 75.6309Z" fill="#FA8A3C"/>
<path d="M27.9168 75.3594C26.968 75.3754 25.9616 75.377 25.152 74.8794C24.64 74.5674 24.2112 74.065 23.6192 73.9754C23.4494 73.9401 23.2725 73.971 23.1248 74.0618C23.0528 74.1083 22.9992 74.1785 22.9732 74.2602C22.9472 74.3419 22.9505 74.4302 22.9824 74.5098C22.72 74.4106 22.52 74.201 22.2944 74.0298C22.0688 73.8586 21.776 73.7354 21.5136 73.8362C21.3798 73.9007 21.2727 74.0097 21.2105 74.1446C21.1484 74.2795 21.135 74.4317 21.1728 74.5754C21.2175 74.7167 21.2919 74.8469 21.391 74.9573C21.49 75.0677 21.6115 75.1556 21.7472 75.2154C22.0198 75.3337 22.3081 75.4119 22.6032 75.4474L29.4304 75.577C29.4288 75.4042 27.9168 75.3594 27.9168 75.3594Z" fill="#FA8A3C"/>
<path d="M22.5889 75.8408L22.6033 75.4648L33.4001 75.6312V75.8408H22.5889Z" fill="#455A64"/>
<path d="M32.7104 71.4858C32.5827 71.2718 32.5105 71.0293 32.5005 70.7803C32.4904 70.5313 32.5428 70.2838 32.6528 70.0602C32.7504 69.8666 32.9504 69.6746 33.1568 69.7402C33.3632 69.8058 33.4048 70.0602 33.4 70.265C33.3888 70.7114 33.0672 71.6138 32.7104 71.4826" fill="#FA8A3C"/>
<path d="M26.3888 58.0918C26.3984 58.0918 26.3792 58.1686 26.3888 58.3062C26.4074 58.5001 26.4588 58.6895 26.5408 58.8662C26.671 59.1309 26.7723 59.4087 26.8432 59.695C26.8935 60.0636 26.8007 60.4374 26.584 60.7398C26.3792 61.0678 26.1344 61.3382 25.9744 61.6214C25.8964 61.7534 25.8357 61.8948 25.7936 62.0422C25.7613 62.1702 25.7521 62.303 25.7664 62.4342C25.7824 62.6273 25.863 62.8094 25.9952 62.951C26.0487 62.9979 26.1048 63.0417 26.1632 63.0822C26.1632 63.0822 26.144 63.0822 26.1088 63.0646C26.0598 63.0408 26.014 63.0107 25.9728 62.975C25.8244 62.8341 25.7304 62.6455 25.7072 62.4422C25.6875 62.3029 25.6945 62.1612 25.728 62.0246C25.7681 61.8689 25.8289 61.7193 25.9088 61.5798C26.0688 61.287 26.3152 61.0118 26.5136 60.6918C26.7202 60.4067 26.8116 60.0542 26.7696 59.7046C26.7015 59.4233 26.6072 59.1491 26.488 58.8854C26.4085 58.7017 26.3645 58.5046 26.3584 58.3046C26.3583 58.2508 26.3642 58.1971 26.376 58.1446C26.3774 58.1264 26.3818 58.1086 26.3888 58.0918Z" fill="#263238"/>
<path d="M28.0718 57.9478C28.0814 57.9478 28.0606 58.0246 28.0718 58.1622C28.0912 58.356 28.1425 58.5453 28.2238 58.7222C28.3539 58.9871 28.4557 59.2649 28.5278 59.551C28.5768 59.9198 28.4836 60.2934 28.267 60.5958C28.0623 60.9238 27.8191 61.1942 27.6575 61.4774C27.5796 61.6093 27.5193 61.7507 27.4783 61.8982C27.4446 62.0266 27.4349 62.16 27.4495 62.2918C27.4661 62.4843 27.5466 62.6657 27.6783 62.807C27.7317 62.854 27.7878 62.8978 27.8463 62.9382C27.8463 62.9382 27.8271 62.9382 27.7935 62.9206C27.7433 62.898 27.6969 62.8677 27.6559 62.831C27.5079 62.69 27.4145 62.5014 27.3919 62.2982C27.3723 62.1591 27.3788 62.0175 27.4111 61.8806C27.4507 61.7258 27.5116 61.5772 27.5919 61.439C27.7519 61.1462 27.9967 60.871 28.1966 60.5526C28.4027 60.2668 28.4936 59.9137 28.451 59.5638C28.3844 59.2822 28.29 59.0078 28.1694 58.7446C28.0899 58.561 28.0459 58.3639 28.0399 58.1638C28.0397 58.11 28.0456 58.0564 28.0574 58.0038C28.0622 57.9654 28.0686 57.9462 28.0718 57.9478Z" fill="#263238"/>
<path d="M29.7487 57.8071C29.7583 57.8071 29.7391 57.8839 29.7487 58.0215C29.7709 58.2162 29.8249 58.406 29.9087 58.5831C30.0384 58.8474 30.1398 59.1247 30.2111 59.4103C30.26 59.7791 30.1668 60.1526 29.9503 60.4551C29.7455 60.7831 29.5023 61.0535 29.3423 61.3367C29.2639 61.4685 29.2032 61.61 29.1615 61.7575C29.1283 61.8859 29.1191 62.0194 29.1343 62.1511C29.1505 62.3434 29.2305 62.5247 29.3615 62.6663C29.4152 62.7136 29.4719 62.7574 29.5311 62.7975C29.5311 62.7975 29.5103 62.7975 29.4767 62.7799C29.4269 62.7565 29.3806 62.7263 29.3391 62.6903C29.1912 62.5493 29.0977 62.3607 29.0751 62.1575C29.0556 62.0183 29.0621 61.8767 29.0943 61.7399C29.1351 61.586 29.1959 61.4381 29.2751 61.2999C29.4351 61.0055 29.6815 60.7303 29.8799 60.4119C30.0857 60.1259 30.177 59.7731 30.1359 59.4231C30.068 59.1416 29.9731 58.8673 29.8527 58.6039C29.7739 58.42 29.73 58.2231 29.7231 58.0231C29.7233 57.9692 29.7298 57.9155 29.7423 57.8631C29.7391 57.8247 29.7487 57.8071 29.7487 57.8071Z" fill="#263238"/>
</svg>
