<svg width="99" height="66" viewBox="0 0 99 66" fill="none" xmlns="http://www.w3.org/2000/svg">
<path d="M89.5224 23.4205C89.434 19.0725 88.1576 14.6425 85.3367 11.3333C82.4723 7.97259 78.1282 5.98071 73.7207 5.76951C69.3132 5.55831 64.8767 7.07367 61.3668 9.75327C57.2405 12.9015 54.2626 17.6191 49.5317 19.7575C44.7269 21.9303 39.1499 20.9799 33.9848 19.9133C28.8196 18.8467 23.3192 17.7261 18.3943 19.6123C12.5572 21.8484 8.79785 28.5303 9.91589 34.6802C10.7396 39.2078 13.5683 42.5803 16.3839 45.2507C28.71 55.9678 48.2579 60.2816 63.888 55.5335C70.8207 53.4281 77.0102 48.6233 81.8308 43.214C86.6514 37.8046 89.669 30.6647 89.5224 23.4205Z" fill="#EBEBEB"/>
<path d="M95.0783 58.7033C95.0783 58.7217 74.6711 58.7376 49.5027 58.7376C24.3342 58.7376 3.92175 58.7217 3.92175 58.7033C3.92175 58.6848 24.325 58.6689 49.5027 58.6689C74.6804 58.6689 95.0783 58.6835 95.0783 58.7033Z" fill="#263238"/>
<path d="M60.6615 42.8887H54.0761C53.9392 42.8887 53.8079 42.8343 53.7111 42.7375C53.6143 42.6407 53.5599 42.5094 53.5599 42.3726C53.5599 42.3048 53.5733 42.2377 53.5992 42.1751C53.6252 42.1124 53.6632 42.0555 53.7111 42.0076C53.759 41.9597 53.8159 41.9217 53.8785 41.8957C53.9412 41.8698 54.0083 41.8564 54.0761 41.8564H60.6615C60.7293 41.8564 60.7964 41.8698 60.859 41.8957C60.9216 41.9217 60.9785 41.9597 61.0265 42.0076C61.0744 42.0555 61.1124 42.1124 61.1383 42.1751C61.1643 42.2377 61.1776 42.3048 61.1776 42.3726C61.1776 42.5094 61.1232 42.6407 61.0265 42.7375C60.9297 42.8343 60.7984 42.8887 60.6615 42.8887Z" fill="#FA8A3C"/>
<path d="M60.1983 41.829H53.6141C53.477 41.8286 53.3456 41.774 53.2486 41.677C53.1517 41.5801 53.097 41.4487 53.0967 41.3115C53.097 41.1745 53.1517 41.0433 53.2487 40.9465C53.3457 40.8497 53.4771 40.7954 53.6141 40.7954H60.1983C60.3353 40.7954 60.4667 40.8497 60.5637 40.9465C60.6607 41.0433 60.7154 41.1745 60.7158 41.3115C60.7154 41.4487 60.6608 41.5801 60.5638 41.677C60.4669 41.774 60.3354 41.8286 60.1983 41.829Z" fill="#455A64"/>
<path d="M59.9014 41.3258C59.9014 41.3443 58.7358 41.3601 57.2983 41.3601C55.8609 41.3601 54.6953 41.3443 54.6953 41.3258C54.6953 41.3073 55.8609 41.2915 57.2983 41.2915C58.7358 41.2915 59.9014 41.3073 59.9014 41.3258Z" fill="#263238"/>
<path d="M69.1836 42.8887H28.0458V58.6178H69.1836V42.8887Z" fill="#263238"/>
<path d="M65.6803 42.8887H24.5425V58.6178H65.6803V42.8887Z" fill="#455A64"/>
<path d="M56.5526 48.6703C56.5526 48.6703 56.5526 48.6413 56.5526 48.5872C56.5526 48.5331 56.5526 48.4552 56.5526 48.3443C56.5526 48.1305 56.5526 47.8163 56.5526 47.4084C56.5526 46.5913 56.5526 45.3981 56.542 43.8893L56.5618 43.9091L36.5176 43.9236L36.5519 43.8893C36.5519 45.5261 36.5519 47.1273 36.5519 48.6703L36.5189 48.636L50.8158 48.6519L55.0319 48.6611H56.1684H56.4628H56.5644H56.4668H56.1764H55.0478L50.8396 48.6703L36.5189 48.6849H36.4846V43.855H36.5203L56.5644 43.8682H56.5856V43.8893C56.5856 45.4033 56.5763 46.6006 56.5737 47.4203C56.5737 47.8269 56.5737 48.1397 56.5737 48.3522C56.5737 48.4565 56.5737 48.5357 56.5737 48.5911C56.5737 48.6466 56.5526 48.6703 56.5526 48.6703Z" fill="#263238"/>
<path d="M55.3183 45.3901H41.911V48.6703H55.3183V45.3901Z" fill="#263238"/>
<path d="M52.7736 48.516C52.7551 48.516 52.7393 47.8256 52.7393 46.9742C52.7393 46.1228 52.7551 45.4312 52.7736 45.4312C52.792 45.4312 52.8079 46.1215 52.8079 46.9742C52.8079 47.827 52.7934 48.516 52.7736 48.516Z" fill="#455A64"/>
<path d="M49.542 47.0192C49.542 47.0377 47.8405 47.0535 45.7404 47.0535C43.6403 47.0535 41.9375 47.0377 41.9375 47.0192C41.9375 47.0007 43.6403 46.9849 45.7404 46.9849C47.8405 46.9849 49.542 46.9994 49.542 47.0192Z" fill="#455A64"/>
<path d="M51.2923 46.2392C51.263 46.2629 51.2437 46.2967 51.2382 46.334C51.2327 46.3713 51.2413 46.4093 51.2625 46.4404C51.2836 46.4716 51.3157 46.4938 51.3523 46.5025C51.389 46.5112 51.4276 46.5058 51.4605 46.4874C51.4934 46.469 51.5182 46.439 51.53 46.4032C51.5418 46.3674 51.5397 46.3285 51.5242 46.2942C51.5087 46.2598 51.4809 46.2325 51.4463 46.2177C51.4117 46.2029 51.3727 46.2016 51.3372 46.2141" fill="#FAFAFA"/>
<path d="M51.2922 46.9256C51.2617 46.9489 51.2411 46.9829 51.2345 47.0207C51.2278 47.0585 51.2357 47.0975 51.2564 47.1298C51.2771 47.1621 51.3093 47.1855 51.3464 47.1953C51.3835 47.205 51.423 47.2005 51.4569 47.1825C51.4909 47.1645 51.5168 47.1345 51.5296 47.0982C51.5425 47.062 51.5412 47.0223 51.5261 46.987C51.511 46.9517 51.4832 46.9233 51.4482 46.9076C51.4132 46.8918 51.3735 46.8897 51.3371 46.9018" fill="#FA8A3C"/>
<path d="M50.5414 47.5352C50.4314 47.6095 50.338 47.7057 50.2668 47.8177C50.1823 47.9546 50.125 48.1066 50.0979 48.2652C50.0629 48.4818 50.066 48.703 50.1071 48.9186C50.1454 49.1628 50.2233 49.4281 50.2893 49.7251C50.3619 50.0457 50.4134 50.3706 50.4437 50.6979C50.4793 51.0754 50.4735 51.4556 50.4265 51.8318C50.374 52.2548 50.2481 52.6653 50.0543 53.0449C49.9438 53.2474 49.811 53.4369 49.6583 53.6098C49.4989 53.7896 49.3185 53.9495 49.1211 54.0864C48.6931 54.4087 48.1613 54.5619 47.6274 54.5166C47.0936 54.4713 46.5952 54.2307 46.2276 53.8408C46.0217 53.6436 45.844 53.4188 45.6996 53.1729C45.5452 52.92 45.4525 52.6342 45.429 52.3387C45.4085 52.0312 45.4983 51.7265 45.6825 51.4794C45.7807 51.3563 45.906 51.2575 46.0487 51.1907C46.1913 51.1238 46.3474 51.0907 46.5048 51.0939C46.8272 51.0948 47.1379 51.2146 47.3773 51.4305C47.6161 51.65 47.7951 51.9266 47.8974 52.2344C48.0014 52.5454 48.0462 52.8731 48.0294 53.2006C48.0094 53.5322 47.9349 53.8582 47.809 54.1656C47.5518 54.7959 47.1165 55.3377 46.5563 55.7245C45.996 56.1043 45.364 56.3657 44.6991 56.4927C44.0571 56.6206 43.4006 56.6593 42.7481 56.6076C41.5127 56.5146 40.3159 56.135 39.2528 55.4988C38.2914 54.9211 37.4679 54.1404 36.8398 53.2112C36.2986 52.402 35.8705 51.5227 35.5673 50.5976C35.3166 49.8371 35.1216 49.0593 34.9839 48.2704C34.8519 47.5748 34.7806 46.9702 34.7199 46.4766C34.6592 45.9829 34.6222 45.5988 34.5958 45.3387L34.5668 45.0417C34.5602 44.9757 34.5588 44.9414 34.5588 44.9414C34.5588 44.9414 34.5654 44.9744 34.5734 45.0417C34.5813 45.109 34.5945 45.208 34.609 45.3374L34.741 46.4739C34.8057 46.9663 34.8875 47.5695 35.0156 48.2625C35.1599 49.0475 35.3597 49.8212 35.6135 50.5778C35.9181 51.4968 36.3466 52.3699 36.8873 53.1729C37.5123 54.094 38.3308 54.8675 39.2858 55.4394C40.3411 56.0704 41.5287 56.4473 42.7547 56.5403C43.4011 56.5913 44.0514 56.5527 44.6872 56.4254C45.3428 56.3006 45.9659 56.0427 46.518 55.6677C47.0674 55.289 47.4945 54.7582 47.747 54.1405C47.8702 53.8399 47.9429 53.521 47.9621 53.1967C47.9792 52.8783 47.9367 52.5596 47.8367 52.2568C47.7393 51.9595 47.567 51.6922 47.3364 51.4807C47.1092 51.2759 46.8147 51.1618 46.5088 51.1599C46.3608 51.1563 46.214 51.1869 46.0798 51.2494C45.9456 51.3119 45.8277 51.4046 45.7353 51.5203C45.5603 51.7548 45.4751 52.0442 45.495 52.3361C45.5186 52.6219 45.609 52.8981 45.759 53.1426C45.9009 53.3853 46.0754 53.6074 46.2778 53.8026C46.6341 54.1846 47.1195 54.4211 47.64 54.4662C48.1605 54.5113 48.6792 54.3619 49.096 54.0468C49.29 53.9136 49.4672 53.7576 49.624 53.5821C49.7727 53.4122 49.902 53.2263 50.0094 53.0277C50.2024 52.6534 50.3283 52.2482 50.3817 51.8305C50.4296 51.458 50.4371 51.0813 50.4041 50.7072C50.3768 50.3807 50.327 50.0565 50.255 49.737C50.1916 49.4426 50.1163 49.1746 50.0794 48.9278C50.0412 48.7095 50.0412 48.4862 50.0794 48.2678C50.1082 48.1074 50.1688 47.9543 50.2576 47.8177C50.3117 47.7335 50.3795 47.659 50.4582 47.5973C50.484 47.5741 50.5118 47.5533 50.5414 47.5352Z" fill="#263238"/>
<path d="M64.5214 57.7323C64.5214 57.7323 64.5214 57.7072 64.5214 57.6624C64.5214 57.6175 64.5214 57.5502 64.5214 57.4644C64.5214 57.2875 64.5214 57.0301 64.5214 56.6961C64.5214 56.0269 64.5214 55.0527 64.5134 53.8264C64.5134 51.3765 64.5042 47.9194 64.4976 43.8895L64.5293 43.9212H57.8422L57.8765 43.8868C57.8765 49.2408 57.8765 54.1155 57.8686 57.7284L57.8422 57.7033L62.7262 57.7178H64.0607H64.4092C64.4884 57.7178 64.5293 57.7178 64.5293 57.7178H64.4144H64.0699H62.742L57.8408 57.7323H57.8158V57.7059C57.8158 54.0931 57.8158 49.2183 57.8065 43.8644V43.8301H64.5623V43.8631C64.5623 47.9023 64.5504 51.366 64.5464 53.8225C64.5464 55.0448 64.5464 56.0163 64.5372 56.6842C64.5372 57.0156 64.5372 57.2703 64.5372 57.4459C64.5372 57.5304 64.5372 57.595 64.5372 57.6399C64.5372 57.6848 64.5214 57.7323 64.5214 57.7323Z" fill="#263238"/>
<path d="M63.5974 50.9723C63.5974 51.0523 63.5736 51.1304 63.5292 51.1969C63.4848 51.2633 63.4216 51.3151 63.3477 51.3457C63.2738 51.3762 63.1926 51.3841 63.1142 51.3684C63.0358 51.3527 62.9638 51.3141 62.9074 51.2575C62.851 51.2009 62.8126 51.1288 62.7972 51.0503C62.7817 50.9719 62.7899 50.8906 62.8207 50.8169C62.8514 50.7431 62.9034 50.6801 62.97 50.6358C63.0366 50.5916 63.1148 50.5682 63.1948 50.5684C63.248 50.5675 63.3009 50.5774 63.3502 50.5974C63.3995 50.6174 63.4443 50.6471 63.4819 50.6848C63.5195 50.7225 63.5491 50.7674 63.5689 50.8168C63.5888 50.8662 63.5984 50.9191 63.5974 50.9723Z" fill="#263238"/>
<path d="M66.9714 58.193C66.996 58.1943 67.0203 58.1983 67.044 58.2049L67.2486 58.2485C67.4995 58.2987 67.7529 58.3357 68.0076 58.3593C68.183 58.3772 68.3595 58.382 68.5356 58.3739C68.7351 58.3676 68.9305 58.3161 69.1072 58.2234C69.2969 58.1118 69.4382 57.9334 69.5032 57.7231C69.5715 57.4938 69.6158 57.258 69.6352 57.0195C69.655 56.7752 69.7134 56.5355 69.8081 56.3094C69.9 56.1001 70.0258 55.9075 70.1804 55.7391C70.4431 55.4522 70.7825 55.2465 71.1585 55.1465C71.3012 55.1033 71.4507 55.0872 71.5994 55.0989C71.6569 55.1031 71.7128 55.1198 71.7632 55.1479C71.8136 55.1759 71.8572 55.2146 71.8911 55.2613C71.9346 55.3206 71.9535 55.3943 71.9439 55.4672C71.9408 55.4919 71.9317 55.5154 71.9175 55.5359C71.9175 55.5359 71.9267 55.5121 71.9307 55.4659C71.9337 55.3977 71.9122 55.3308 71.87 55.2771C71.8369 55.2356 71.7952 55.2016 71.7479 55.1774C71.7005 55.1533 71.6485 55.1396 71.5954 55.1372C71.4516 55.1307 71.3077 55.1495 71.1704 55.1927C70.8076 55.2975 70.4812 55.5014 70.2279 55.7814C70.0793 55.9457 69.958 56.1329 69.8689 56.3358C69.7783 56.5568 69.7226 56.7906 69.7039 57.0288C69.6838 57.2715 69.6396 57.5116 69.5719 57.7455C69.5001 57.9683 69.3482 58.1565 69.1455 58.2735C68.9597 58.3701 68.7542 58.4225 68.5449 58.4267C68.3685 58.4323 68.192 58.4243 68.0169 58.4029C67.7607 58.3763 67.5067 58.3322 67.2566 58.2709C67.1681 58.2498 67.1008 58.23 67.0546 58.2155C67.0258 58.2126 66.9977 58.205 66.9714 58.193Z" fill="#263238"/>
<path d="M70.2714 58.2034C70.2941 58.2035 70.3167 58.2066 70.3387 58.2126L70.5274 58.2549C70.7579 58.3099 70.9915 58.3505 71.227 58.3763C71.574 58.42 71.9263 58.3717 72.2487 58.2364C72.4361 58.155 72.6022 58.0317 72.7345 57.876C72.87 57.7041 72.9555 57.4981 72.9813 57.2807C73.0156 57.0563 73.0196 56.8306 73.0539 56.6141C73.0873 56.4045 73.1532 56.2014 73.2493 56.0122C73.406 55.6831 73.6842 55.4276 74.0254 55.2994C74.2544 55.2158 74.5042 55.2075 74.7382 55.2756C74.8008 55.2954 74.861 55.3219 74.9177 55.3548C74.9556 55.3786 74.9741 55.3918 74.9732 55.3944C74.895 55.3577 74.8143 55.3269 74.7316 55.302C74.5029 55.2456 74.2624 55.2608 74.0426 55.3456C73.7174 55.4752 73.454 55.724 73.306 56.0412C73.2143 56.2248 73.1519 56.4217 73.1212 56.6247C73.0869 56.8359 73.0843 57.0603 73.0486 57.2913C73.0205 57.5211 72.9291 57.7386 72.7846 57.9196C72.6447 58.0819 72.4695 58.2101 72.2725 58.2945C71.9387 58.4324 71.5739 58.478 71.2165 58.4265C70.979 58.3973 70.7442 58.3496 70.5142 58.2839L70.3281 58.2298C70.3085 58.2225 70.2896 58.2137 70.2714 58.2034Z" fill="#263238"/>
<path d="M71.978 57.1065C71.7379 57.1065 71.5075 57.0111 71.3377 56.8412C71.1679 56.6714 71.0725 56.4411 71.0725 56.2009C71.0725 55.9608 71.1679 55.7305 71.3377 55.5606C71.5075 55.3908 71.7379 55.2954 71.978 55.2954C72.218 55.2958 72.4479 55.3913 72.6175 55.5611C72.787 55.7309 72.8822 55.961 72.8822 56.2009C72.8822 56.4409 72.787 56.671 72.6175 56.8408C72.4479 57.0106 72.218 57.1061 71.978 57.1065Z" fill="#263238"/>
<path d="M75.0999 57.1065C74.86 57.1061 74.63 57.0106 74.4604 56.8408C74.2909 56.671 74.1957 56.4409 74.1957 56.2009C74.1957 55.961 74.2909 55.7309 74.4604 55.5611C74.63 55.3913 74.86 55.2958 75.0999 55.2954C75.34 55.2954 75.5704 55.3908 75.7402 55.5606C75.91 55.7305 76.0054 55.9608 76.0054 56.2009C76.0054 56.4411 75.91 56.6714 75.7402 56.8412C75.5704 57.0111 75.34 57.1065 75.0999 57.1065Z" fill="#263238"/>
<path d="M82.0351 56.1299H70.8402V58.6194H82.0351V56.1299Z" fill="#E0E0E0"/>
<path d="M80.5475 56.1299H69.3525V58.6194H80.5475V56.1299Z" fill="#EBEBEB"/>
<path d="M48.1996 33.5498H39.646V42.8519H48.1996V33.5498Z" fill="#263238"/>
<path d="M68.4181 11.3145H23.8496V40.0165H68.4181V11.3145Z" fill="#263238"/>
<path d="M67.197 11.3145H22.6285V40.0165H67.197V11.3145Z" fill="#263238"/>
<path d="M67.1613 11.3145C67.1797 11.3145 67.1956 17.7125 67.1956 25.6008C67.1956 33.4891 67.1797 39.8898 67.1613 39.8898C67.1428 39.8898 67.1256 33.4931 67.1256 25.6008C67.1256 17.7085 67.1428 11.3145 67.1613 11.3145Z" fill="#455A64"/>
<path d="M63.233 12.5273H23.7532V38.8561H63.233V12.5273Z" fill="white"/>
<path d="M42.4905 35.8598H41.2484V31.6437C41.2484 31.4788 41.3139 31.3207 41.4305 31.2041C41.5471 31.0875 41.7052 31.022 41.8701 31.022C41.9517 31.022 42.0325 31.0381 42.1079 31.0693C42.1832 31.1006 42.2517 31.1464 42.3093 31.2041C42.3669 31.2619 42.4126 31.3304 42.4437 31.4059C42.4748 31.4813 42.4907 31.5621 42.4905 31.6437V35.8598Z" fill="#FA8A3C"/>
<path d="M42.4905 35.8598H41.2484V31.6437C41.2484 31.4788 41.3139 31.3207 41.4305 31.2041C41.5471 31.0875 41.7052 31.022 41.8701 31.022C41.9517 31.022 42.0325 31.0381 42.1079 31.0693C42.1832 31.1006 42.2517 31.1464 42.3093 31.2041C42.3669 31.2619 42.4126 31.3304 42.4437 31.4059C42.4748 31.4813 42.4907 31.5621 42.4905 31.6437V35.8598Z" fill="#455A64"/>
<path d="M42.4905 31.5768C42.4905 31.5768 42.2133 31.5852 41.8714 31.5852C41.5295 31.5852 41.2523 31.5852 41.2523 31.5768C41.2523 31.5684 41.5295 31.5684 41.8714 31.5684C42.2133 31.5684 42.4905 31.5712 42.4905 31.5768Z" fill="#263238"/>
<path d="M42.4905 32.6529C42.4905 32.6529 42.2133 32.6613 41.8714 32.6613C41.5295 32.6613 41.2523 32.6613 41.2523 32.6529C41.2523 32.6445 41.5295 32.6445 41.8714 32.6445C42.2133 32.6445 42.4905 32.6487 42.4905 32.6529Z" fill="#263238"/>
<path d="M42.146 32.6525C42.146 32.6525 42.1381 32.4122 42.1381 32.1139C42.1381 31.8156 42.1381 31.5767 42.146 31.5767C42.1539 31.5767 42.1552 31.8169 42.1552 32.1139C42.1552 32.4109 42.1513 32.6525 42.146 32.6525Z" fill="#263238"/>
<path d="M42.0007 31.8893C42.0007 31.8979 41.9981 31.9063 41.9933 31.9135C41.9886 31.9206 41.9817 31.9262 41.9738 31.9295C41.9658 31.9328 41.9571 31.9337 41.9486 31.932C41.9402 31.9303 41.9324 31.9262 41.9263 31.9201C41.9202 31.914 41.9161 31.9062 41.9144 31.8978C41.9127 31.8893 41.9136 31.8806 41.9169 31.8726C41.9202 31.8646 41.9258 31.8578 41.9329 31.853C41.9401 31.8483 41.9485 31.8457 41.9571 31.8457C41.9687 31.8457 41.9798 31.8503 41.9879 31.8585C41.9961 31.8666 42.0007 31.8777 42.0007 31.8893Z" fill="#263238"/>
<path d="M42.0007 32.2667C42.0007 32.2753 41.9981 32.2837 41.9933 32.2909C41.9886 32.2981 41.9817 32.3037 41.9738 32.307C41.9658 32.3103 41.9571 32.3111 41.9486 32.3094C41.9402 32.3078 41.9324 32.3036 41.9263 32.2975C41.9202 32.2914 41.9161 32.2837 41.9144 32.2752C41.9127 32.2668 41.9136 32.258 41.9169 32.25C41.9202 32.2421 41.9258 32.2353 41.9329 32.2305C41.9401 32.2257 41.9485 32.2231 41.9571 32.2231C41.9687 32.2231 41.9798 32.2277 41.9879 32.2359C41.9961 32.2441 42.0007 32.2552 42.0007 32.2667Z" fill="#263238"/>
<path d="M42.4905 34.8424C42.4905 34.8424 42.2133 34.8508 41.8714 34.8508C41.5295 34.8508 41.2523 34.8508 41.2523 34.8424C41.2523 34.834 41.5295 34.834 41.8714 34.834C42.2133 34.834 42.4905 34.8368 42.4905 34.8424Z" fill="#263238"/>
<path d="M42.146 34.8423C42.146 34.8423 42.1381 34.6007 42.1381 34.3037C42.1381 34.0067 42.1381 33.7651 42.146 33.7651C42.1539 33.7651 42.1552 34.0067 42.1552 34.3037C42.1552 34.6007 42.1513 34.8423 42.146 34.8423Z" fill="#263238"/>
<path d="M42.0009 34.0791C42.0007 34.0876 41.9979 34.0959 41.9929 34.1029C41.988 34.1099 41.9811 34.1153 41.9731 34.1184C41.9652 34.1214 41.9564 34.1221 41.9481 34.1203C41.9397 34.1185 41.9321 34.1142 41.9261 34.1081C41.9202 34.1019 41.9161 34.0942 41.9146 34.0858C41.913 34.0774 41.9139 34.0687 41.9173 34.0608C41.9206 34.0529 41.9262 34.0462 41.9333 34.0414C41.9404 34.0367 41.9488 34.0342 41.9574 34.0342C41.9632 34.0342 41.969 34.0353 41.9743 34.0376C41.9797 34.0399 41.9846 34.0432 41.9886 34.0474C41.9927 34.0516 41.9959 34.0565 41.998 34.062C42.0001 34.0674 42.0011 34.0732 42.0009 34.0791Z" fill="#263238"/>
<path d="M42.0009 34.4516C42.0007 34.4602 41.9979 34.4685 41.9929 34.4754C41.988 34.4824 41.9811 34.4878 41.9731 34.4909C41.9652 34.494 41.9564 34.4947 41.9481 34.4929C41.9397 34.491 41.9321 34.4868 41.9261 34.4806C41.9202 34.4745 41.9161 34.4667 41.9146 34.4583C41.913 34.4499 41.9139 34.4412 41.9173 34.4333C41.9206 34.4255 41.9262 34.4187 41.9333 34.414C41.9404 34.4093 41.9488 34.4067 41.9574 34.4067C41.9632 34.4067 41.969 34.4079 41.9743 34.4102C41.9797 34.4124 41.9846 34.4158 41.9886 34.42C41.9927 34.4241 41.9959 34.4291 41.998 34.4345C42.0001 34.44 42.0011 34.4458 42.0009 34.4516Z" fill="#263238"/>
<path d="M41.2523 33.7574C41.2523 33.7574 41.5295 33.749 41.8714 33.749C42.2133 33.749 42.4905 33.749 42.4905 33.7574C42.4905 33.7658 42.2133 33.7658 41.8714 33.7658C41.5295 33.7658 41.2523 33.7616 41.2523 33.7574Z" fill="#263238"/>
<path d="M41.5975 33.7573C41.5975 33.7573 41.5891 33.5157 41.5891 33.2187C41.5891 32.9217 41.5891 32.6802 41.5975 32.6802C41.6059 32.6802 41.6059 32.9217 41.6059 33.2187C41.6059 33.5157 41.6031 33.7573 41.5975 33.7573Z" fill="#263238"/>
<path d="M41.7421 32.9942C41.7439 33.0047 41.7493 33.0141 41.7574 33.0209C41.7655 33.0277 41.7757 33.0314 41.7863 33.0314C41.7969 33.0314 41.8071 33.0277 41.8152 33.0209C41.8233 33.0141 41.8287 33.0047 41.8305 32.9942C41.8287 32.9838 41.8233 32.9744 41.8152 32.9676C41.8071 32.9608 41.7969 32.957 41.7863 32.957C41.7757 32.957 41.7655 32.9608 41.7574 32.9676C41.7493 32.9744 41.7439 32.9838 41.7421 32.9942Z" fill="#263238"/>
<path d="M41.7421 33.3662C41.7421 33.375 41.7447 33.3837 41.7496 33.3911C41.7546 33.3985 41.7616 33.4042 41.7698 33.4076C41.778 33.411 41.787 33.4119 41.7957 33.4102C41.8044 33.4084 41.8124 33.4042 41.8187 33.3979C41.825 33.3916 41.8292 33.3836 41.831 33.3749C41.8327 33.3662 41.8318 33.3572 41.8284 33.349C41.825 33.3408 41.8193 33.3338 41.8119 33.3289C41.8045 33.3239 41.7958 33.3213 41.7869 33.3213C41.7811 33.3213 41.7752 33.3224 41.7698 33.3247C41.7643 33.327 41.7594 33.3303 41.7552 33.3344C41.751 33.3386 41.7477 33.3435 41.7455 33.349C41.7432 33.3544 41.7421 33.3603 41.7421 33.3662Z" fill="#263238"/>
<path d="M41.3303 31.6823C41.3303 31.6823 41.3303 31.6731 41.3303 31.6572C41.3303 31.6414 41.3303 31.6189 41.3382 31.5912C41.3508 31.5175 41.374 31.4459 41.4069 31.3787C41.425 31.3416 41.4471 31.3067 41.4729 31.2744C41.4943 31.248 41.5181 31.2237 41.5442 31.2018L41.5758 31.1794L41.6009 31.1649L41.6234 31.1543C41.6234 31.1543 41.5943 31.1741 41.5521 31.2111C41.5277 31.2334 41.5052 31.2577 41.4848 31.2837C41.4607 31.3156 41.4395 31.3496 41.4214 31.3853C41.3893 31.4512 41.3654 31.5208 41.3501 31.5925C41.3453 31.6228 41.3387 31.6528 41.3303 31.6823Z" fill="#FAFAFA"/>
<path d="M41.8332 31.1011C41.8332 31.1011 41.8147 31.113 41.7897 31.117C41.7646 31.1209 41.7448 31.117 41.7435 31.117C41.7421 31.117 41.7633 31.1051 41.787 31.1011C41.8108 31.0972 41.8332 31.0972 41.8332 31.1011Z" fill="#FAFAFA"/>
<path d="M44.4875 35.8598H45.7297V31.6437C45.7299 31.5621 45.714 31.4813 45.6829 31.4059C45.6518 31.3304 45.6061 31.2619 45.5485 31.2041C45.4908 31.1464 45.4224 31.1006 45.347 31.0693C45.2717 31.0381 45.1909 31.022 45.1093 31.022C44.9444 31.022 44.7863 31.0875 44.6697 31.2041C44.5531 31.3207 44.4875 31.4788 44.4875 31.6437V35.8598Z" fill="#FA8A3C"/>
<path d="M44.4875 35.8598H45.7297V31.6437C45.7299 31.5621 45.714 31.4813 45.6829 31.4059C45.6518 31.3304 45.6061 31.2619 45.5485 31.2041C45.4908 31.1464 45.4224 31.1006 45.347 31.0693C45.2717 31.0381 45.1909 31.022 45.1093 31.022C44.9444 31.022 44.7863 31.0875 44.6697 31.2041C44.5531 31.3207 44.4875 31.4788 44.4875 31.6437V35.8598Z" fill="#455A64"/>
<path d="M44.4875 31.5768C44.4875 31.5768 44.7648 31.5684 45.1066 31.5684C45.4485 31.5684 45.7257 31.5684 45.7257 31.5768C45.7257 31.5852 45.4499 31.5852 45.1066 31.5852C44.7634 31.5852 44.4875 31.581 44.4875 31.5768Z" fill="#263238"/>
<path d="M44.4875 32.6529C44.4875 32.6529 44.7648 32.6445 45.1066 32.6445C45.4485 32.6445 45.7257 32.6445 45.7257 32.6529C45.7257 32.6613 45.4499 32.6613 45.1066 32.6613C44.7634 32.6613 44.4875 32.6641 44.4875 32.6529Z" fill="#263238"/>
<path d="M44.8329 32.6525C44.8329 32.6525 44.8245 32.4122 44.8245 32.1139C44.8245 31.8156 44.8245 31.5767 44.8329 31.5767C44.8413 31.5767 44.8413 31.8169 44.8413 32.1139C44.8413 32.4109 44.8385 32.6525 44.8329 32.6525Z" fill="#263238"/>
<path d="M44.9852 31.8893C44.9852 31.9008 44.9898 31.9119 44.998 31.9201C45.0061 31.9282 45.0172 31.9328 45.0288 31.9328C45.0403 31.9328 45.0514 31.9282 45.0595 31.9201C45.0677 31.9119 45.0723 31.9008 45.0723 31.8893C45.0723 31.8777 45.0677 31.8666 45.0595 31.8585C45.0514 31.8503 45.0403 31.8457 45.0288 31.8457C45.0172 31.8457 45.0061 31.8503 44.998 31.8585C44.9898 31.8666 44.9852 31.8777 44.9852 31.8893Z" fill="#263238"/>
<path d="M44.9852 32.2667C44.9852 32.2724 44.9864 32.2781 44.9885 32.2834C44.9907 32.2887 44.9939 32.2935 44.998 32.2975C45.002 32.3016 45.0068 32.3048 45.0121 32.307C45.0174 32.3091 45.023 32.3103 45.0288 32.3103C45.0403 32.3103 45.0514 32.3057 45.0595 32.2975C45.0677 32.2893 45.0723 32.2783 45.0723 32.2667C45.0723 32.2552 45.0677 32.2441 45.0595 32.2359C45.0514 32.2277 45.0403 32.2231 45.0288 32.2231C45.0172 32.2231 45.0061 32.2277 44.998 32.2359C44.9898 32.2441 44.9852 32.2552 44.9852 32.2667Z" fill="#263238"/>
<path d="M44.4875 34.8424C44.4875 34.8424 44.7648 34.834 45.1066 34.834C45.4485 34.834 45.7257 34.834 45.7257 34.8424C45.7257 34.8508 45.4499 34.8508 45.1066 34.8508C44.7634 34.8508 44.4875 34.8466 44.4875 34.8424Z" fill="#263238"/>
<path d="M44.8329 34.8423C44.8329 34.8423 44.8245 34.6007 44.8245 34.3037C44.8245 34.0067 44.8245 33.7651 44.8329 33.7651C44.8413 33.7651 44.8413 34.0067 44.8413 34.3037C44.8413 34.6007 44.8385 34.8423 44.8329 34.8423Z" fill="#263238"/>
<path d="M44.9854 34.0791C44.9854 34.0906 44.99 34.1017 44.9981 34.1099C45.0063 34.118 45.0174 34.1226 45.0289 34.1226C45.0393 34.1208 45.0488 34.1154 45.0556 34.1073C45.0624 34.0992 45.0661 34.089 45.0661 34.0784C45.0661 34.0678 45.0624 34.0576 45.0556 34.0495C45.0488 34.0414 45.0393 34.036 45.0289 34.0342C45.0231 34.0342 45.0173 34.0353 45.0119 34.0376C45.0066 34.0399 45.0017 34.0432 44.9976 34.0474C44.9936 34.0516 44.9904 34.0565 44.9883 34.062C44.9862 34.0674 44.9852 34.0732 44.9854 34.0791Z" fill="#263238"/>
<path d="M44.9854 34.4516C44.9854 34.4632 44.99 34.4742 44.9981 34.4824C45.0063 34.4906 45.0174 34.4952 45.0289 34.4952C45.0393 34.4934 45.0488 34.4879 45.0556 34.4799C45.0624 34.4718 45.0661 34.4615 45.0661 34.451C45.0661 34.4404 45.0624 34.4302 45.0556 34.4221C45.0488 34.414 45.0393 34.4085 45.0289 34.4067C45.0231 34.4067 45.0173 34.4079 45.0119 34.4102C45.0066 34.4124 45.0017 34.4158 44.9976 34.42C44.9936 34.4241 44.9904 34.4291 44.9883 34.4345C44.9862 34.44 44.9852 34.4458 44.9854 34.4516Z" fill="#263238"/>
<path d="M45.7257 33.7574C45.7257 33.7574 45.4485 33.7658 45.1066 33.7658C44.7648 33.7658 44.4875 33.7658 44.4875 33.7574C44.4875 33.749 44.7648 33.749 45.1066 33.749C45.4485 33.749 45.7257 33.7518 45.7257 33.7574Z" fill="#263238"/>
<path d="M45.3813 33.7573C45.3813 33.7573 45.3721 33.5157 45.3721 33.2187C45.3721 32.9217 45.3721 32.6802 45.3813 32.6802C45.3906 32.6802 45.3892 32.9217 45.3892 33.2187C45.3892 33.5157 45.3813 33.7573 45.3813 33.7573Z" fill="#263238"/>
<path d="M45.2363 32.9943C45.2363 33.0058 45.2317 33.0169 45.2235 33.0251C45.2153 33.0332 45.2043 33.0378 45.1927 33.0378C45.1812 33.0378 45.1701 33.0332 45.1619 33.0251C45.1538 33.0169 45.1492 33.0058 45.1492 32.9943C45.1492 32.9885 45.1503 32.9829 45.1525 32.9776C45.1547 32.9723 45.1579 32.9675 45.1619 32.9635C45.166 32.9594 45.1708 32.9562 45.1761 32.954C45.1813 32.9518 45.187 32.9507 45.1927 32.9507C45.1985 32.9505 45.2042 32.9515 45.2096 32.9536C45.215 32.9558 45.2198 32.959 45.2239 32.9631C45.228 32.9671 45.2312 32.972 45.2333 32.9774C45.2354 32.9827 45.2364 32.9885 45.2363 32.9943Z" fill="#263238"/>
<path d="M45.236 33.3662C45.236 33.3777 45.2314 33.3888 45.2233 33.397C45.2151 33.4051 45.204 33.4097 45.1925 33.4097C45.1821 33.4079 45.1726 33.4025 45.1658 33.3944C45.159 33.3863 45.1553 33.3761 45.1553 33.3655C45.1553 33.3549 45.159 33.3447 45.1658 33.3366C45.1726 33.3285 45.1821 33.3231 45.1925 33.3213C45.1983 33.3213 45.2041 33.3225 45.2094 33.3247C45.2148 33.327 45.2197 33.3303 45.2237 33.3345C45.2278 33.3387 45.231 33.3437 45.2331 33.3491C45.2352 33.3545 45.2362 33.3603 45.236 33.3662Z" fill="#263238"/>
<path d="M45.6453 31.6823C45.6369 31.6528 45.6303 31.6228 45.6255 31.5925C45.6103 31.5208 45.5864 31.4512 45.5543 31.3853C45.5357 31.3499 45.5146 31.3159 45.4909 31.2837C45.4704 31.2577 45.4479 31.2334 45.4236 31.2111C45.3814 31.1741 45.3497 31.1569 45.351 31.1543C45.3593 31.1567 45.3673 31.1603 45.3748 31.1649L45.3998 31.1794C45.4103 31.1863 45.4205 31.1938 45.4302 31.2018C45.4568 31.223 45.4808 31.2474 45.5015 31.2744C45.5277 31.3066 45.5502 31.3416 45.5688 31.3787C45.6014 31.4459 45.624 31.5175 45.6361 31.5912C45.6403 31.613 45.6434 31.6351 45.6453 31.6572V31.6823Z" fill="white"/>
<path d="M45.1466 31.1011C45.1466 31.1011 45.1677 31.1011 45.1914 31.1011C45.2151 31.1011 45.2362 31.1116 45.2349 31.1169C45.2336 31.1222 45.2138 31.1169 45.1888 31.1169C45.1637 31.1169 45.1452 31.1064 45.1466 31.1011Z" fill="white"/>
<path d="M43.1216 29.363L42.686 30.1841C42.5571 30.4282 42.4901 30.7001 42.4906 30.9761V36.697L43.2549 37.1854H43.7829L44.4944 36.697V30.9972C44.4947 30.7345 44.4332 30.4754 44.3148 30.2408L43.8713 29.363C43.8469 29.314 43.8092 29.2728 43.7625 29.2441C43.7159 29.2154 43.6621 29.2004 43.6073 29.2007H43.3882C43.3331 29.2003 43.2789 29.2153 43.2318 29.244C43.1847 29.2727 43.1466 29.3139 43.1216 29.363Z" fill="#FA8A3C"/>
<path d="M42.4907 36.2372H40.5701C40.5891 35.9509 40.671 35.6724 40.8099 35.4214C40.9489 35.1704 41.1414 34.9532 41.374 34.7852C42.1765 34.1819 42.4907 32.8184 42.4907 32.8184V36.2372Z" fill="#FA8A3C"/>
<path d="M44.4957 36.2372H46.4177C46.3987 35.9509 46.3168 35.6724 46.1778 35.4214C46.0389 35.1704 45.8463 34.9532 45.6138 34.7852C44.8099 34.1819 44.4957 32.8184 44.4957 32.8184V36.2372Z" fill="#FA8A3C"/>
<g opacity="0.2">
<path opacity="0.2" d="M42.4907 36.2372H40.5701C40.5891 35.9509 40.671 35.6724 40.8099 35.4214C40.9489 35.1704 41.1414 34.9532 41.374 34.7852C42.1765 34.1819 42.4907 32.8184 42.4907 32.8184V36.2372Z" fill="black"/>
</g>
<g opacity="0.2">
<path opacity="0.2" d="M44.4957 36.2372H46.4177C46.3987 35.9509 46.3168 35.6724 46.1778 35.4214C46.0389 35.1704 45.8463 34.9532 45.6138 34.7852C44.8099 34.1819 44.4957 32.8184 44.4957 32.8184V36.2372Z" fill="black"/>
</g>
<path d="M42.6318 33.2461C42.6318 33.2461 42.6239 32.8237 42.6239 32.3037C42.6239 31.7836 42.6239 31.3599 42.6318 31.3599C42.6398 31.3599 42.6411 31.7823 42.6411 32.3037C42.6411 32.8251 42.6371 33.2461 42.6318 33.2461Z" fill="#FAFAFA"/>
<path d="M42.6535 30.9719C42.6582 30.9719 42.6619 30.9335 42.6619 30.8861C42.6619 30.8387 42.6582 30.8003 42.6535 30.8003C42.6489 30.8003 42.6451 30.8387 42.6451 30.8861C42.6451 30.9335 42.6489 30.9719 42.6535 30.9719Z" fill="#FAFAFA"/>
<path d="M43.2694 29.3389C43.2694 29.3389 43.1374 29.6029 42.9763 29.9289C42.8153 30.2549 42.6727 30.5123 42.6688 30.5097C42.6648 30.5071 42.8008 30.2457 42.9618 29.921C43.1229 29.5963 43.2694 29.3376 43.2694 29.3389Z" fill="#FAFAFA"/>
<path d="M42.2834 33.7188C42.2837 33.7214 42.2837 33.724 42.2834 33.7267V33.7491L42.2768 33.7847C42.2741 33.8009 42.2701 33.8168 42.2649 33.8323C42.2376 33.9337 42.1977 34.0312 42.1461 34.1227C42.0679 34.2571 41.9749 34.3824 41.8689 34.4962C41.7514 34.6282 41.6049 34.7602 41.461 34.8922C41.3212 35.0202 41.1939 35.1612 41.0809 35.3133C41.0332 35.38 40.9891 35.4492 40.9489 35.5205C40.9119 35.5892 40.8789 35.6525 40.8538 35.7133C40.8116 35.8089 40.7785 35.9084 40.7548 36.0103C40.7456 36.0459 40.7416 36.0749 40.7377 36.0934V36.1159C40.7373 36.1181 40.7373 36.1203 40.7377 36.1225C40.7377 36.1225 40.7377 36.1225 40.7377 36.1145V36.0934C40.7377 36.0736 40.7377 36.0446 40.7522 36.0089C40.774 35.9062 40.8059 35.8058 40.8472 35.7093C40.8743 35.642 40.906 35.5768 40.9423 35.5139C40.982 35.4414 41.0261 35.3713 41.0743 35.3041C41.1866 35.1502 41.3145 35.0082 41.4557 34.8803C41.6049 34.7483 41.7448 34.6163 41.8636 34.4843C41.9696 34.3714 42.0625 34.247 42.1408 34.1134C42.1935 34.0237 42.2351 33.928 42.2649 33.8283L42.2781 33.7808C42.2781 33.7663 42.2781 33.7557 42.286 33.7452V33.724L42.2834 33.7188Z" fill="#FAFAFA"/>
<path d="M43.6655 31.1591H43.3342C43.2379 31.1591 43.1456 31.1209 43.0775 31.0528C43.0094 30.9847 42.9712 30.8924 42.9712 30.7961C42.9712 30.6998 43.0094 30.6075 43.0775 30.5394C43.1456 30.4713 43.2379 30.4331 43.3342 30.4331H43.6655C43.7618 30.4331 43.8541 30.4713 43.9222 30.5394C43.9903 30.6075 44.0285 30.6998 44.0285 30.7961C44.0285 30.8924 43.9903 30.9847 43.9222 31.0528C43.8541 31.1209 43.7618 31.1591 43.6655 31.1591Z" fill="white"/>
<g opacity="0.4">
<path opacity="0.4" d="M42.4906 36.6928L43.2549 37.1812H43.7842L44.4957 36.6928V36.4922H42.4906V36.6928Z" fill="black"/>
</g>
<path d="M43.6878 21.5404C43.6313 21.5293 43.5727 21.537 43.521 21.5622C43.4693 21.5875 43.4273 21.629 43.4013 21.6803C43.3495 21.782 43.3202 21.8937 43.3155 22.0077C43.2693 22.4486 43.231 22.9106 43.3974 23.3277C43.4449 23.4425 43.5294 23.5692 43.6614 23.556C43.7933 23.5428 43.8527 23.3858 43.8791 23.2551C43.9376 22.9572 43.9686 22.6545 43.9715 22.3509C43.9788 22.1976 43.9632 22.0442 43.9253 21.8955C43.8859 21.7461 43.7953 21.6153 43.6693 21.5259" fill="#FA8A3C"/>
<g opacity="0.6">
<path opacity="0.6" d="M43.6878 21.5404C43.6313 21.5293 43.5727 21.537 43.521 21.5622C43.4693 21.5875 43.4273 21.629 43.4013 21.6803C43.3495 21.782 43.3202 21.8937 43.3155 22.0077C43.2693 22.4486 43.231 22.9106 43.3974 23.3277C43.4449 23.4425 43.5294 23.5692 43.6614 23.556C43.7933 23.5428 43.8527 23.3858 43.8791 23.2551C43.9376 22.9572 43.9686 22.6545 43.9715 22.3509C43.9788 22.1976 43.9632 22.0442 43.9253 21.8955C43.8859 21.7461 43.7953 21.6153 43.6693 21.5259" fill="white"/>
</g>
<path d="M43.6192 21.7334C43.7143 21.7334 43.7908 22.1373 43.7908 22.635C43.7908 23.1326 43.7143 23.5378 43.6192 23.5378C43.5242 23.5378 43.4476 23.1339 43.4476 22.635C43.4476 22.136 43.5242 21.7334 43.6192 21.7334Z" fill="#FA8A3C"/>
<path d="M43.6878 26.2294C43.6317 26.2195 43.574 26.2277 43.5228 26.2525C43.4716 26.2774 43.4296 26.3178 43.4027 26.368C43.3508 26.4701 43.3216 26.5822 43.3169 26.6966C43.2707 27.1375 43.2324 27.5995 43.3987 28.0166C43.4462 28.1315 43.5307 28.2582 43.6627 28.245C43.7947 28.2318 43.8541 28.0747 43.8805 27.944C43.939 27.6461 43.97 27.3434 43.9729 27.0398C43.9801 26.8866 43.9646 26.7331 43.9267 26.5844C43.8873 26.4351 43.7966 26.3043 43.6706 26.2148" fill="#FA8A3C"/>
<g opacity="0.6">
<path opacity="0.6" d="M43.6878 26.2294C43.6317 26.2195 43.574 26.2277 43.5228 26.2525C43.4716 26.2774 43.4296 26.3178 43.4027 26.368C43.3508 26.4701 43.3216 26.5822 43.3169 26.6966C43.2707 27.1375 43.2324 27.5995 43.3987 28.0166C43.4462 28.1315 43.5307 28.2582 43.6627 28.245C43.7947 28.2318 43.8541 28.0747 43.8805 27.944C43.939 27.6461 43.97 27.3434 43.9729 27.0398C43.9801 26.8866 43.9646 26.7331 43.9267 26.5844C43.8873 26.4351 43.7966 26.3043 43.6706 26.2148" fill="white"/>
</g>
<path d="M43.6192 26.4219C43.7143 26.4219 43.7908 26.8258 43.7908 27.3234C43.7908 27.8211 43.7143 28.225 43.6192 28.225C43.5242 28.225 43.4476 27.829 43.4476 27.3234C43.4476 26.8179 43.5242 26.4219 43.6192 26.4219Z" fill="#FA8A3C"/>
<path d="M43.6878 16.865C43.6317 16.8551 43.574 16.8633 43.5228 16.8881C43.4716 16.913 43.4296 16.9534 43.4027 17.0036C43.3508 17.1057 43.3216 17.2178 43.3169 17.3322C43.2707 17.7731 43.2324 18.2351 43.3987 18.6456C43.4462 18.7618 43.5307 18.8885 43.6627 18.8753C43.7947 18.8621 43.8541 18.705 43.8805 18.5744C43.9389 18.2764 43.9699 17.9738 43.9729 17.6702C43.9806 17.5184 43.9659 17.3663 43.9293 17.2187C43.8899 17.0693 43.7992 16.9386 43.6733 16.8491" fill="#FA8A3C"/>
<g opacity="0.6">
<path opacity="0.6" d="M43.6878 16.865C43.6317 16.8551 43.574 16.8633 43.5228 16.8881C43.4716 16.913 43.4296 16.9534 43.4027 17.0036C43.3508 17.1057 43.3216 17.2178 43.3169 17.3322C43.2707 17.7731 43.2324 18.2351 43.3987 18.6456C43.4462 18.7618 43.5307 18.8885 43.6627 18.8753C43.7947 18.8621 43.8541 18.705 43.8805 18.5744C43.9389 18.2764 43.9699 17.9738 43.9729 17.6702C43.9806 17.5184 43.9659 17.3663 43.9293 17.2187C43.8899 17.0693 43.7992 16.9386 43.6733 16.8491" fill="white"/>
</g>
<path d="M43.6192 17.0566C43.7143 17.0566 43.7908 17.4606 43.7908 17.9595C43.7908 18.4585 43.7143 18.8611 43.6192 18.8611C43.5242 18.8611 43.4476 18.4572 43.4476 17.9595C43.4476 17.4619 43.5242 17.0566 43.6192 17.0566Z" fill="#FA8A3C"/>
<path d="M32.0361 16.0667H25.4862C25.3868 16.0667 25.2914 16.0272 25.2211 15.9569C25.1508 15.8866 25.1113 15.7912 25.1113 15.6918C25.1113 15.5924 25.1508 15.497 25.2211 15.4267C25.2914 15.3564 25.3868 15.3169 25.4862 15.3169H32.0361C32.1355 15.3169 32.2308 15.3564 32.3011 15.4267C32.3714 15.497 32.4109 15.5924 32.4109 15.6918C32.4109 15.7912 32.3714 15.8866 32.3011 15.9569C32.2308 16.0272 32.1355 16.0667 32.0361 16.0667Z" fill="#263238"/>
<path d="M29.5109 16.0667H25.4862C25.3868 16.0667 25.2914 16.0272 25.2211 15.9569C25.1508 15.8866 25.1113 15.7912 25.1113 15.6918C25.1113 15.5924 25.1508 15.497 25.2211 15.4267C25.2914 15.3564 25.3868 15.3169 25.4862 15.3169H29.5109V16.0667Z" fill="#FA8A3C"/>
<path d="M32.0361 17.1951H25.4862C25.3868 17.1951 25.2914 17.1556 25.2211 17.0853C25.1508 17.015 25.1113 16.9196 25.1113 16.8202C25.1113 16.7208 25.1508 16.6254 25.2211 16.5551C25.2914 16.4848 25.3868 16.4453 25.4862 16.4453H32.0361C32.1355 16.4453 32.2308 16.4848 32.3011 16.5551C32.3714 16.6254 32.4109 16.7208 32.4109 16.8202C32.4109 16.9196 32.3714 17.015 32.3011 17.0853C32.2308 17.1556 32.1355 17.1951 32.0361 17.1951Z" fill="#263238"/>
<path d="M27.4293 17.1951H25.4889C25.3895 17.1951 25.2941 17.1556 25.2238 17.0853C25.1535 17.015 25.114 16.9196 25.114 16.8202C25.114 16.7208 25.1535 16.6254 25.2238 16.5551C25.2941 16.4848 25.3895 16.4453 25.4889 16.4453H27.4293V17.1951Z" fill="#FA8A3C"/>
<path d="M25.9535 14.6422C25.7675 14.5556 25.595 14.4427 25.4413 14.3069C25.3731 14.2476 25.3203 14.1727 25.2874 14.0886C25.2546 14.0044 25.2426 13.9136 25.2526 13.8238C25.2598 13.779 25.2757 13.7361 25.2996 13.6976C25.3234 13.659 25.3546 13.6255 25.3914 13.599C25.4282 13.5725 25.4698 13.5536 25.5139 13.5432C25.5581 13.5328 25.6038 13.5313 25.6486 13.5386C25.7144 13.564 25.7742 13.6028 25.8242 13.6526C25.8742 13.7024 25.9133 13.762 25.939 13.8277C25.95 13.7631 25.9788 13.7029 26.022 13.6536C26.0652 13.6044 26.1212 13.568 26.1838 13.5486C26.2463 13.5292 26.3131 13.5275 26.3766 13.5437C26.4401 13.5599 26.4978 13.5933 26.5435 13.6403C26.7045 13.8026 26.6676 14.0878 26.5263 14.2673C26.3699 14.4352 26.1758 14.5637 25.9601 14.6422" fill="#FA8A3C"/>
<path d="M27.7104 14.6422C27.5246 14.5553 27.3521 14.4424 27.1982 14.3069C27.1302 14.2476 27.0776 14.1726 27.0449 14.0884C27.0123 14.0043 27.0006 13.9135 27.0108 13.8238C27.0251 13.7345 27.074 13.6546 27.1469 13.6012C27.2198 13.5478 27.3108 13.5253 27.4002 13.5386C27.4657 13.5643 27.5252 13.6033 27.5749 13.653C27.6247 13.7027 27.6636 13.7622 27.6893 13.8277C27.7004 13.7631 27.7291 13.7029 27.7723 13.6536C27.8155 13.6044 27.8715 13.568 27.9341 13.5486C27.9967 13.5292 28.0634 13.5275 28.1269 13.5437C28.1904 13.5599 28.2481 13.5933 28.2938 13.6403C28.4549 13.8026 28.4179 14.0878 28.2767 14.2673C28.1202 14.4352 27.9261 14.5637 27.7104 14.6422Z" fill="#FA8A3C"/>
<path d="M29.4687 14.6422C29.2823 14.5556 29.1094 14.4427 28.9552 14.3069C28.8874 14.2474 28.835 14.1724 28.8024 14.0883C28.7698 14.0042 28.7579 13.9134 28.7678 13.8238C28.7821 13.7345 28.831 13.6546 28.9039 13.6012C28.9768 13.5478 29.0678 13.5253 29.1572 13.5386C29.2227 13.5643 29.2822 13.6033 29.3319 13.653C29.3817 13.7027 29.4206 13.7622 29.4463 13.8277C29.4587 13.7637 29.4881 13.7041 29.5312 13.6551C29.5744 13.6062 29.6298 13.5696 29.6918 13.5492C29.7543 13.5306 29.8207 13.5293 29.8839 13.5453C29.9471 13.5613 30.0047 13.5941 30.0508 13.6403C30.2119 13.8026 30.1749 14.0878 30.035 14.2673C29.8785 14.4352 29.6845 14.5637 29.4687 14.6422Z" fill="#FA8A3C"/>
<path d="M31.2823 14.6422C31.0965 14.5553 30.9241 14.4424 30.7702 14.3069C30.7024 14.2474 30.65 14.1724 30.6173 14.0883C30.5847 14.0042 30.5728 13.9134 30.5827 13.8238C30.597 13.7345 30.646 13.6546 30.7189 13.6012C30.7918 13.5478 30.8828 13.5253 30.9721 13.5386C31.0376 13.5643 31.0971 13.6033 31.1469 13.653C31.1966 13.7027 31.2355 13.7622 31.2612 13.8277C31.2737 13.7637 31.303 13.7041 31.3462 13.6551C31.3893 13.6062 31.4447 13.5696 31.5067 13.5492C31.5692 13.5306 31.6356 13.5293 31.6988 13.5453C31.762 13.5613 31.8197 13.5941 31.8658 13.6403C32.0268 13.8026 31.9899 14.0878 31.8486 14.2673C31.6921 14.4352 31.4981 14.5637 31.2823 14.6422Z" fill="#E0E0E0"/>
<path d="M31.3895 21.4429L31.4291 21.5155C31.4705 21.5916 31.5328 21.6543 31.6086 21.6963L31.6825 21.7359L31.6086 21.7755C31.5328 21.8169 31.4705 21.8793 31.4291 21.955L31.3895 22.029L31.3499 21.955C31.3079 21.8792 31.2452 21.8169 31.169 21.7755L31.0964 21.7359L31.169 21.6963C31.2453 21.6544 31.308 21.5917 31.3499 21.5155L31.3895 21.4429Z" fill="#E0E0E0"/>
<path d="M51.8296 28.3506L51.8692 28.4232C51.9111 28.499 51.9739 28.5613 52.05 28.6027L52.1226 28.6423L52.05 28.6832C51.9739 28.7246 51.9111 28.7869 51.8692 28.8627L51.8296 28.9353L51.79 28.8627C51.748 28.7869 51.6852 28.7246 51.6091 28.6832L51.5365 28.6423L51.6091 28.6027C51.6852 28.5613 51.748 28.499 51.79 28.4232L51.8296 28.3506Z" fill="#E0E0E0"/>
<path d="M39.8732 24.29L39.9326 24.3983C39.9943 24.5091 40.0857 24.6006 40.1966 24.6623L40.3035 24.7217L40.1966 24.7797C40.0857 24.8414 39.9943 24.9329 39.9326 25.0437L39.8732 25.152L39.8151 25.0437C39.7534 24.9329 39.662 24.8414 39.5511 24.7797L39.4429 24.7217L39.5511 24.6623C39.662 24.6006 39.7534 24.5091 39.8151 24.3983L39.8732 24.29Z" fill="#455A64"/>
<path d="M55.7051 32.6416L55.7645 32.7498C55.8252 32.8614 55.9169 32.9531 56.0285 33.0138L56.1354 33.0719L56.0285 33.1313C55.9169 33.1921 55.8252 33.2837 55.7645 33.3953L55.7051 33.5036L55.6457 33.3953C55.5849 33.2837 55.4933 33.1921 55.3817 33.1313L55.2748 33.0719L55.3817 33.0138C55.4933 32.9531 55.5849 32.8614 55.6457 32.7498L55.7051 32.6416Z" fill="#455A64"/>
<path d="M32.1087 37.3408L32.1259 37.3738C32.1449 37.4074 32.1728 37.4353 32.2064 37.4543L32.2394 37.4715L32.2064 37.49C32.1728 37.509 32.1449 37.5369 32.1259 37.5705L32.1087 37.6035L32.0902 37.5705C32.0719 37.5363 32.0439 37.5083 32.0097 37.49L31.978 37.4715L32.0097 37.4543C32.0439 37.436 32.0719 37.408 32.0902 37.3738L32.1087 37.3408Z" fill="#455A64"/>
<path d="M36.2101 30.5244L36.2286 30.5561C36.2469 30.5903 36.275 30.6183 36.3092 30.6366L36.3408 30.6551L36.3092 30.6723C36.2753 30.691 36.2474 30.7189 36.2286 30.7528L36.2101 30.7858L36.193 30.7528C36.1739 30.7192 36.1461 30.6913 36.1125 30.6723L36.0795 30.6551L36.1125 30.6366C36.1463 30.6179 36.1743 30.59 36.193 30.5561L36.2101 30.5244Z" fill="#455A64"/>
<path d="M49.8271 37.5708L49.8456 37.6038C49.8643 37.6377 49.8922 37.6656 49.9261 37.6843L49.9591 37.7015L49.9261 37.72C49.8919 37.7383 49.8639 37.7663 49.8456 37.8005L49.8271 37.8322L49.8099 37.8005C49.7916 37.7663 49.7636 37.7383 49.7294 37.72L49.6964 37.7015L49.7294 37.6843C49.7633 37.6656 49.7912 37.6377 49.8099 37.6038L49.8271 37.5708Z" fill="#455A64"/>
<path d="M48.3803 24.9146L48.3988 24.9476C48.4179 24.9812 48.4457 25.009 48.4793 25.0281L48.5123 25.0452L48.4793 25.0637C48.4451 25.082 48.4171 25.11 48.3988 25.1442L48.3803 25.1759L48.3632 25.1442C48.3448 25.11 48.3168 25.082 48.2826 25.0637L48.2496 25.0452L48.2826 25.0281C48.3163 25.009 48.3441 24.9812 48.3632 24.9476L48.3803 24.9146Z" fill="#455A64"/>
<path d="M60.4638 27.2231L60.4823 27.2548C60.5006 27.289 60.5287 27.317 60.5629 27.3353L60.5945 27.3538L60.5629 27.371C60.529 27.3897 60.5011 27.4176 60.4823 27.4515L60.4638 27.4845L60.4467 27.4515C60.4276 27.4179 60.3998 27.3901 60.3661 27.371L60.3331 27.3538L60.3661 27.3353C60.4 27.3166 60.4279 27.2887 60.4467 27.2548L60.4638 27.2231Z" fill="#455A64"/>
<path d="M37.918 20.7246L37.9365 20.7576C37.9548 20.7918 37.9828 20.8198 38.017 20.8381L38.05 20.8566L38.017 20.8738C37.9828 20.8921 37.9548 20.9201 37.9365 20.9543L37.918 20.9873L37.9009 20.9543C37.8826 20.9201 37.8545 20.8921 37.8204 20.8738L37.7874 20.8566L37.8204 20.8381C37.8545 20.8198 37.8826 20.7918 37.9009 20.7576L37.918 20.7246Z" fill="#455A64"/>
<path d="M30.2872 18.7446L30.3057 18.7776C30.324 18.8118 30.352 18.8398 30.3862 18.8581L30.4192 18.8753L30.3862 18.8938C30.352 18.9121 30.324 18.9401 30.3057 18.9743L30.2872 19.0073L30.27 18.9743C30.2517 18.9401 30.2237 18.9121 30.1895 18.8938L30.1565 18.8753L30.1895 18.8581C30.2237 18.8398 30.2517 18.8118 30.27 18.7776L30.2872 18.7446Z" fill="#455A64"/>
<path d="M36.5031 36.5845L36.5427 36.6571C36.5847 36.7329 36.6474 36.7952 36.7236 36.8366L36.7962 36.8775L36.7236 36.9171C36.6474 36.9585 36.5847 37.0208 36.5427 37.0966L36.5031 37.1692L36.4635 37.0966C36.4216 37.0208 36.3588 36.9585 36.2827 36.9171L36.2101 36.8775L36.2827 36.8366C36.3588 36.7952 36.4216 36.7329 36.4635 36.6571L36.5031 36.5845Z" fill="#E0E0E0"/>
<path d="M60.189 31.5078L60.2286 31.5804C60.27 31.6565 60.3323 31.7193 60.4082 31.7613L60.4821 31.8009L60.4082 31.8405C60.3323 31.8824 60.27 31.9452 60.2286 32.0213L60.189 32.0939L60.1494 32.0213C60.1075 31.9451 60.0448 31.8823 59.9686 31.8405L59.896 31.8009L59.9686 31.7613C60.0448 31.7194 60.1075 31.6566 60.1494 31.5804L60.189 31.5078Z" fill="#E0E0E0"/>
<path d="M38.4606 15.6191L38.5016 15.6917C38.5425 15.7682 38.6049 15.831 38.6811 15.8726L38.7537 15.9122L38.6811 15.9518C38.605 15.9929 38.5426 16.0552 38.5016 16.1313L38.4606 16.2052L38.421 16.1313C38.3796 16.0555 38.3173 15.9932 38.2415 15.9518L38.1676 15.9122L38.2415 15.8726C38.3173 15.8306 38.3796 15.7679 38.421 15.6917L38.4606 15.6191Z" fill="#E0E0E0"/>
<path d="M28.7256 35.9313C29.3553 35.5564 29.8569 35.035 30.5657 34.7631C31.59 34.3671 32.8889 34.5664 33.8327 34.0609C34.8293 33.5329 35.0378 32.4175 34.8887 31.4658C34.7395 30.514 34.3277 29.5755 34.4478 28.6225C34.5653 27.6985 35.1738 26.7982 34.9217 25.894C34.6946 25.0809 33.8195 24.4909 32.9324 24.046C32.0454 23.6012 31.0712 23.2356 30.402 22.594C29.5612 21.7875 29.1863 20.5586 27.9481 20.2088C27.0783 19.962 26.1239 20.2708 25.3253 20.6391C24.8158 20.898 24.2907 21.125 23.7532 21.3189V24.2968C24.6345 23.64 25.6811 23.2411 26.776 23.1448C27.871 23.0485 28.9712 23.2587 29.9536 23.7517C30.936 24.2447 31.7619 25.0012 32.3391 25.9367C32.9163 26.8721 33.2219 27.9497 33.2219 29.0488C33.2219 30.148 32.9163 31.2255 32.3391 32.161C31.7619 33.0964 30.936 33.853 29.9536 34.346C28.9712 34.839 27.871 35.0491 26.776 34.9529C25.6811 34.8566 24.6345 34.4577 23.7532 33.8008V35.8891C24.1141 36.1116 24.5048 36.2818 24.9135 36.3946C26.1793 36.755 27.6538 36.5702 28.7256 35.9313Z" fill="#EBEBEB"/>
<path d="M56.4773 18.6772C55.7623 18.7146 55.0473 18.6031 54.3777 18.3497C53.7081 18.0964 53.0984 17.7067 52.5872 17.2054C51.5761 16.2035 51.0309 14.8294 50.1914 13.6823C49.8724 13.2419 49.4883 12.8524 49.0522 12.5273H46.4875C46.0585 14.1951 46.0476 15.943 46.4558 17.6159C47.1684 17.6648 47.8703 17.8155 48.5401 18.0634C50.6283 18.8858 51.1563 20.0434 53.4241 22.3072C55.6919 24.571 58.0916 21.3832 60.5679 21.8122C61.455 21.964 62.3948 22.3402 63.2383 22.7573V17.4021C60.989 16.8517 58.7912 18.5386 56.4773 18.6772Z" fill="#FA8A3C"/>
<path d="M62.9757 12.5273C63.0206 12.5326 63.0646 12.5392 63.1077 12.5471L63.2318 12.5709V12.5273H62.9757Z" fill="#FA8A3C"/>
<path d="M62.2774 12.5273H55.4623C55.6207 12.6928 55.7888 12.8644 55.9665 13.0421C57.9769 15.0512 60.0981 12.7676 62.2774 12.5273Z" fill="#FA8A3C"/>
<path d="M62.9757 12.5273H62.2774C60.0941 12.7676 57.9729 15.0512 55.9626 13.0421C55.7866 12.8661 55.6185 12.6945 55.4583 12.5273H49.0524C49.4884 12.8524 49.8725 13.2419 50.1915 13.6823C51.031 14.8321 51.5762 16.2035 52.5873 17.2054C53.0985 17.7067 53.7082 18.0964 54.3778 18.3497C55.0474 18.6031 55.7624 18.7146 56.4773 18.6772C58.7913 18.5452 60.9891 16.8517 63.2344 17.4021V12.5709L63.1103 12.5471C63.0655 12.5392 63.0206 12.5326 62.9757 12.5273Z" fill="#FA8A3C"/>
<g opacity="0.4">
<path opacity="0.4" d="M62.9757 12.5273H62.2774C60.0941 12.7676 57.9729 15.0512 55.9626 13.0421C55.7866 12.8661 55.6185 12.6945 55.4583 12.5273H49.0524C49.4884 12.8524 49.8725 13.2419 50.1915 13.6823C51.031 14.8321 51.5762 16.2035 52.5873 17.2054C53.0985 17.7067 53.7082 18.0964 54.3778 18.3497C55.0474 18.6031 55.7624 18.7146 56.4773 18.6772C58.7913 18.5452 60.9891 16.8517 63.2344 17.4021V12.5709L63.1103 12.5471C63.0655 12.5392 63.0206 12.5326 62.9757 12.5273Z" fill="white"/>
</g>
<path d="M53.4201 22.3073C51.1563 20.0449 50.6283 18.8859 48.5361 18.0635C47.8676 17.8155 47.1671 17.6644 46.4558 17.6147C46.875 19.3313 47.7236 20.9132 48.9218 22.2119C50.12 23.5106 51.6286 24.4836 53.306 25.0394C54.9833 25.5952 56.7744 25.7156 58.511 25.3895C60.2477 25.0633 61.873 24.3011 63.2343 23.1746V22.7627C62.3908 22.3443 61.451 21.9707 60.564 21.8176C58.0876 21.3886 55.6839 24.5711 53.4201 22.3073Z" fill="#FA8A3C"/>
<path d="M33.2189 29.0564C33.2185 27.9577 32.9127 26.8808 32.3356 25.9458C31.7586 25.0109 30.9331 24.2548 29.9512 23.7618C28.9693 23.2689 27.8698 23.0586 26.7753 23.1544C25.6808 23.2502 24.6345 23.6484 23.7532 24.3044V33.8084C24.6345 34.4644 25.6808 34.8625 26.7753 34.9583C27.8698 35.0541 28.9693 34.8438 29.9512 34.3509C30.9331 33.858 31.7586 33.1018 32.3356 32.1669C32.9127 31.232 33.2185 30.155 33.2189 29.0564Z" fill="#455A64"/>
<path d="M53.6312 38.8563H63.2342V36.2493C62.5214 35.5745 61.646 35.0957 60.6932 34.8594C57.7206 34.1228 54.6872 35.889 53.6312 38.8563Z" fill="#263238"/>
<g opacity="0.4">
<path opacity="0.4" d="M53.4201 22.3073C51.1563 20.0449 50.6283 18.8859 48.5361 18.0635C47.8676 17.8155 47.1671 17.6644 46.4558 17.6147C46.875 19.3313 47.7236 20.9132 48.9218 22.2119C50.12 23.5106 51.6286 24.4836 53.306 25.0394C54.9833 25.5952 56.7744 25.7156 58.511 25.3895C60.2477 25.0633 61.873 24.3011 63.2343 23.1746V22.7627C62.3908 22.3443 61.451 21.9707 60.564 21.8176C58.0876 21.3886 55.6839 24.5711 53.4201 22.3073Z" fill="white"/>
</g>
<path d="M61.9011 39.1665H60.2524V39.3671H61.9011V39.1665Z" fill="#FA8A3C"/>
<path d="M53.2921 14.6448L53.3357 14.5497C53.4143 14.6137 53.5128 14.6483 53.6142 14.6474C53.7594 14.6474 53.8214 14.592 53.8214 14.5154C53.8214 14.3095 53.3119 14.4402 53.3119 14.1273C53.3119 13.9953 53.4136 13.8858 53.634 13.8858C53.7295 13.8845 53.8234 13.9106 53.9046 13.961L53.865 14.0574C53.7962 14.0128 53.716 13.9889 53.634 13.9887C53.4914 13.9887 53.4294 14.0481 53.4294 14.1207C53.4294 14.3267 53.9402 14.1973 53.9402 14.5062C53.9402 14.6382 53.836 14.7464 53.6142 14.7464C53.4983 14.7509 53.3844 14.715 53.2921 14.6448Z" fill="#263238"/>
<path d="M54.047 14.3149C54.0463 14.2568 54.0574 14.1991 54.0797 14.1454C54.102 14.0917 54.1351 14.0432 54.1769 14.0027C54.2187 13.9623 54.2683 13.9309 54.3227 13.9103C54.3771 13.8898 54.4351 13.8806 54.4932 13.8833C54.5528 13.881 54.6122 13.8916 54.6673 13.9144C54.7225 13.9372 54.772 13.9716 54.8126 14.0153L54.7347 14.0905C54.7047 14.0581 54.6681 14.0324 54.6274 14.0154C54.5866 13.9983 54.5426 13.9902 54.4985 13.9915C54.4127 13.9915 54.3304 14.0256 54.2698 14.0862C54.2091 14.1469 54.1751 14.2291 54.1751 14.3149C54.1751 14.4007 54.2091 14.4829 54.2698 14.5436C54.3304 14.6042 54.4127 14.6383 54.4985 14.6383C54.5428 14.6392 54.5868 14.6305 54.6276 14.613C54.6683 14.5955 54.7049 14.5695 54.7347 14.5367L54.8126 14.6132C54.7717 14.6568 54.7218 14.6911 54.6665 14.7139C54.6112 14.7367 54.5517 14.7474 54.4919 14.7452C54.434 14.7477 54.3762 14.7384 54.3221 14.7179C54.268 14.6973 54.2186 14.666 54.1769 14.6257C54.1353 14.5854 54.1023 14.5371 54.08 14.4837C54.0577 14.4303 54.0464 14.3728 54.047 14.3149Z" fill="#263238"/>
<path d="M54.8985 14.3147C54.8951 14.2256 54.9184 14.1375 54.9654 14.0618C55.0124 13.986 55.0809 13.926 55.1622 13.8894C55.2436 13.8529 55.334 13.8415 55.4218 13.8566C55.5097 13.8718 55.591 13.9129 55.6554 13.9746C55.7197 14.0363 55.7642 14.1158 55.783 14.203C55.8019 14.2901 55.7943 14.3809 55.7612 14.4637C55.7281 14.5465 55.671 14.6175 55.5973 14.6676C55.5235 14.7178 55.4365 14.7447 55.3473 14.7451C55.2892 14.7477 55.2312 14.7386 55.1768 14.7181C55.1223 14.6977 55.0726 14.6664 55.0306 14.6262C54.9886 14.5859 54.9553 14.5376 54.9326 14.484C54.9099 14.4305 54.8983 14.3729 54.8985 14.3147ZM55.6734 14.3147C55.6741 14.2498 55.6556 14.186 55.62 14.1317C55.5845 14.0773 55.5336 14.0347 55.4737 14.0094C55.4139 13.984 55.3479 13.977 55.2841 13.9893C55.2203 14.0016 55.1616 14.0326 55.1155 14.0784C55.0694 14.1241 55.0379 14.1826 55.0251 14.2463C55.0123 14.3099 55.0187 14.376 55.0436 14.436C55.0684 14.4961 55.1106 14.5473 55.1647 14.5833C55.2188 14.6193 55.2824 14.6384 55.3473 14.6381C55.3906 14.6401 55.4339 14.6332 55.4744 14.6178C55.5149 14.6023 55.5518 14.5787 55.5828 14.5483C55.6137 14.518 55.6381 14.4816 55.6544 14.4414C55.6706 14.4012 55.6785 14.3581 55.6773 14.3147H55.6734Z" fill="#263238"/>
<path d="M56.5405 14.7399L56.3583 14.4759H56.0944V14.732H55.9742V13.8911H56.3016C56.5207 13.8911 56.6527 14.002 56.6527 14.1842C56.6554 14.2424 56.6387 14.2999 56.6052 14.3476C56.5718 14.3954 56.5235 14.4307 56.4679 14.4482L56.6672 14.7306L56.5405 14.7399ZM56.5405 14.1921C56.5405 14.072 56.46 14.0033 56.3056 14.0033H56.1023V14.3822H56.3056C56.456 14.3822 56.5365 14.3148 56.5365 14.1921H56.5405Z" fill="#263238"/>
<path d="M57.4633 14.6355V14.7398H56.8522V13.8989H57.4462V14.0032H56.9723V14.2672H57.3934V14.3688H56.971V14.6408L57.4633 14.6355Z" fill="#263238"/>
<path d="M57.9133 14.3149C57.9133 14.0404 58.0599 13.8833 58.2565 13.8833C58.4532 13.8833 58.5997 14.0404 58.5997 14.3149C58.5997 14.5895 58.4532 14.7453 58.2565 14.7453C58.0599 14.7453 57.9133 14.5935 57.9133 14.3149ZM58.4796 14.3149C58.4796 14.0998 58.3885 13.9915 58.2565 13.9915C58.1245 13.9915 58.0335 14.0998 58.0335 14.3149C58.0335 14.5301 58.1245 14.6383 58.2565 14.6383C58.3885 14.6383 58.4796 14.5354 58.4796 14.3149Z" fill="#263238"/>
<path d="M58.7133 14.3149C58.7133 14.0404 58.8598 13.8833 59.0565 13.8833C59.2532 13.8833 59.3997 14.0404 59.3997 14.3149C59.3997 14.5895 59.2532 14.7453 59.0565 14.7453C58.8598 14.7453 58.7133 14.5935 58.7133 14.3149ZM59.2796 14.3149C59.2796 14.0998 59.1872 13.9915 59.0565 13.9915C58.9258 13.9915 58.8334 14.0998 58.8334 14.3149C58.8334 14.5301 58.9245 14.6383 59.0565 14.6383C59.1885 14.6383 59.2822 14.5354 59.2822 14.3149H59.2796Z" fill="#263238"/>
<path d="M59.7693 13.8989V14.7398H59.6505V14.0032H59.4657V13.8989H59.7693Z" fill="#263238"/>
<path d="M60.5507 14.6354V14.7397H59.9462V14.6579L60.2894 14.3279C60.3778 14.2407 60.395 14.1879 60.395 14.1351C60.395 14.0493 60.3329 14.0031 60.2155 14.0031C60.175 14.0008 60.1346 14.0078 60.0973 14.0236C60.0599 14.0394 60.0268 14.0635 60.0003 14.0942L59.9185 14.0229C59.9566 13.9794 60.0041 13.9449 60.0573 13.9221C60.1105 13.8992 60.1682 13.8886 60.226 13.8909C60.4016 13.8909 60.5151 13.982 60.5151 14.1259C60.5143 14.177 60.502 14.2272 60.4792 14.2729C60.4563 14.3186 60.4235 14.3586 60.3831 14.3899L60.1191 14.6367L60.5507 14.6354Z" fill="#263238"/>
<path d="M61.3535 14.534H61.1937V14.74H61.0895V14.534H60.6143V14.4469L61.0459 13.8965H61.1779L60.7661 14.4245H61.0895V14.2423H61.2017V14.4245H61.3535V14.534Z" fill="#263238"/>
<path d="M62.1636 14.534H62.0039V14.74H61.8812V14.534H61.4192V14.4469L61.8495 13.8965H61.9815L61.5683 14.4245H61.8917V14.2423H62.0052V14.4245H62.165L62.1636 14.534Z" fill="#263238"/>
<path d="M54.0277 62.1099C53.5042 62.1653 52.9764 62.1653 52.4529 62.1099C52.2829 62.0917 52.1256 62.0112 52.0114 61.884C51.8971 61.7568 51.8339 61.5919 51.8339 61.4209H54.6481C54.6472 61.5918 54.5835 61.7565 54.4691 61.8835C54.3547 62.0106 54.1976 62.0912 54.0277 62.1099Z" fill="#E0E0E0"/>
<path d="M54.4856 61.9263C53.666 62.1084 52.8166 62.1107 51.9961 61.9329C51.8413 61.8984 51.7029 61.8121 51.6038 61.6882C51.5046 61.5644 51.4507 61.4104 51.4509 61.2518V56.9578C51.4509 56.7734 51.5242 56.5964 51.6547 56.466C51.7851 56.3355 51.9621 56.2622 52.1466 56.2622H54.3377C54.5222 56.2622 54.6992 56.3355 54.8296 56.466C54.9601 56.5964 55.0334 56.7734 55.0334 56.9578V61.2478C55.0331 61.4064 54.9786 61.5602 54.879 61.6836C54.7794 61.807 54.6406 61.8926 54.4856 61.9263Z" fill="#FA8A3C"/>
<path d="M54.9119 56.5698C54.9673 56.748 54.8327 56.975 54.533 57.1664C54.1421 57.3869 53.7015 57.504 53.2527 57.5068C52.804 57.5095 52.3619 57.3979 51.9683 57.1823C51.6673 56.9948 51.53 56.7691 51.5828 56.5896C51.6356 56.4101 51.8601 56.2966 52.1584 56.2292C52.5161 56.1588 52.8802 56.1261 53.2447 56.1316C53.6092 56.1224 53.9737 56.1507 54.3324 56.216C54.6254 56.2794 54.8498 56.3863 54.9119 56.5698Z" fill="#E0E0E0"/>
<path d="M54.2519 56.5105C54.0873 56.4856 53.9191 56.4997 53.7609 56.5514C53.6896 56.5738 53.6091 56.6227 53.6144 56.6966C53.6197 56.7705 53.6804 56.7995 53.7385 56.8286C53.8647 56.8798 54.0001 56.9046 54.1364 56.9014C54.2726 56.8982 54.4067 56.8672 54.5304 56.8101C54.5885 56.7824 54.6519 56.7309 54.6347 56.6689C54.622 56.6378 54.5979 56.6128 54.5674 56.5989C54.46 56.5357 54.3382 56.5011 54.2136 56.4986" fill="#263238"/>
<path d="M55.0335 58.6411C55.0077 58.6727 54.977 58.6999 54.9424 58.7216C54.845 58.7883 54.7325 58.8295 54.6151 58.8418C54.428 58.8638 54.2391 58.8204 54.0805 58.719C53.9803 58.6536 53.8996 58.5624 53.8468 58.455C53.8149 58.3952 53.8038 58.3265 53.8151 58.2596C53.8222 58.2225 53.8397 58.1883 53.8657 58.1609C53.8917 58.1335 53.925 58.1142 53.9617 58.1052C53.9998 58.1024 54.0381 58.1079 54.0738 58.1214C54.1096 58.1348 54.1421 58.1559 54.1689 58.1831C54.2258 58.2305 54.2767 58.2846 54.3207 58.3441C54.4131 58.4716 54.4758 58.6182 54.5042 58.7731C54.5357 58.9397 54.5234 59.1116 54.4685 59.2721C54.4072 59.4423 54.2958 59.59 54.1491 59.6958C53.9955 59.8093 53.8118 59.875 53.6211 59.8846C53.4216 59.8967 53.2246 59.8346 53.068 59.7103C52.9059 59.5821 52.7908 59.4039 52.7407 59.2034C52.716 59.101 52.7111 58.9949 52.7261 58.8906C52.7288 58.834 52.7451 58.7789 52.7736 58.73C52.8021 58.6811 52.8419 58.6397 52.8898 58.6094C52.9224 58.595 52.9584 58.59 52.9937 58.5952C53.0289 58.6003 53.062 58.6153 53.0891 58.6385C53.1362 58.6808 53.1724 58.7337 53.1947 58.7929C53.2342 58.903 53.2608 59.0173 53.2739 59.1335C53.3026 59.3576 53.2919 59.585 53.2423 59.8054C53.1943 60.0166 53.1103 60.2179 52.9941 60.4007C52.8876 60.5828 52.7195 60.7209 52.5202 60.7901C52.4231 60.8137 52.3217 60.8127 52.2251 60.7871C52.1285 60.7615 52.0398 60.7122 51.9671 60.6436C51.8308 60.5235 51.7326 60.3661 51.6846 60.1908C51.6405 60.0422 51.6272 59.8862 51.6456 59.7323C51.664 59.5784 51.7137 59.4298 51.7916 59.2958L51.814 59.2589L51.8299 59.2985C51.9046 59.4784 51.9375 59.6729 51.9262 59.8674C51.9181 60.0112 51.8874 60.1529 51.8351 60.2872C51.7946 60.4004 51.7328 60.5048 51.653 60.5947C51.7173 60.4949 51.7713 60.3887 51.814 60.2779C51.8611 60.1455 51.8874 60.0066 51.8919 59.8661C51.8988 59.6774 51.8641 59.4894 51.7903 59.3156H51.8285C51.7559 59.4452 51.7102 59.5881 51.6944 59.7358C51.6785 59.8835 51.6927 60.0329 51.7361 60.175C51.7823 60.3383 51.8738 60.4852 52.0001 60.5987C52.0659 60.6602 52.1459 60.7044 52.233 60.7275C52.3201 60.7505 52.4115 60.7516 52.4991 60.7307C52.683 60.6643 52.8374 60.5347 52.9347 60.365C53.0464 60.1889 53.1264 59.9946 53.171 59.7908C53.2188 59.5778 53.2291 59.358 53.2013 59.1414C53.1878 59.0317 53.1626 58.9237 53.1261 58.8193C53.109 58.7688 53.0795 58.7234 53.0403 58.6873C53.023 58.6708 53.001 58.6601 52.9774 58.6566C52.9538 58.653 52.9297 58.6568 52.9083 58.6675C52.871 58.6935 52.8403 58.7277 52.8185 58.7676C52.7968 58.8074 52.7846 58.8518 52.7829 58.8972C52.7685 58.9927 52.7734 59.0901 52.7974 59.1836C52.8436 59.369 52.9493 59.5341 53.0984 59.6536C53.2428 59.7678 53.424 59.8255 53.6079 59.8159C53.7848 59.8067 53.9551 59.7457 54.0976 59.6404C54.235 59.5414 54.3394 59.4034 54.3973 59.2444C54.4493 59.0938 54.4616 58.9324 54.4329 58.7758C54.408 58.6286 54.3497 58.4891 54.2626 58.3679C54.2219 58.3109 54.1744 58.2591 54.1214 58.2134C54.1003 58.191 54.0747 58.1733 54.0462 58.1614C54.0178 58.1496 53.9872 58.1439 53.9564 58.1448C53.9287 58.1517 53.9037 58.1665 53.8842 58.1874C53.8648 58.2082 53.8518 58.2342 53.8468 58.2623C53.836 58.319 53.8448 58.3776 53.8719 58.4286C53.9208 58.5279 53.995 58.6126 54.0871 58.6741C54.2372 58.7752 54.4175 58.8218 54.5979 58.8061C54.7119 58.7969 54.8222 58.7612 54.92 58.7018C55.0018 58.6688 55.0295 58.6385 55.0335 58.6411Z" fill="#FAFAFA"/>
<path d="M21.7695 53.166C21.7695 53.166 20.6382 54.4583 21.3378 55.9657C22.0374 57.4732 24.7844 59.7937 26.8818 60.8128C28.9793 61.8318 31.8358 61.6734 31.8358 61.6734C31.8358 61.6734 34.5814 61.8542 36.2512 61.6826C37.921 61.511 43.2472 59.8426 46.6422 56.7194C50.0373 53.5963 47.9886 51.982 47.1808 51.9278C45.0423 51.7886 42.901 52.1535 40.9293 52.9931C38.0253 54.2326 34.0811 55.0892 34.0811 55.0892C34.0811 55.0892 27.4257 54.8252 24.4583 53.2742C22.7608 52.3832 21.7695 53.166 21.7695 53.166Z" fill="#263238"/>
<path d="M43.3527 53.4072C43.333 53.4207 43.3117 53.4317 43.2894 53.4402L43.1046 53.5207C42.9448 53.5907 42.7086 53.6857 42.4182 53.7993C41.8347 54.0263 41.019 54.3167 40.1121 54.6137C39.2053 54.9107 38.379 55.1655 37.781 55.3529L37.0748 55.572L36.8808 55.6301C36.8587 55.6384 36.8356 55.6432 36.8121 55.6446C36.8326 55.6331 36.8543 55.6238 36.8768 55.6169L37.0656 55.5469C37.2306 55.4875 37.4695 55.4057 37.7665 55.3054L40.091 54.5464C40.9979 54.2507 41.807 53.9669 42.401 53.7544L43.0953 53.4904L43.2841 53.4217C43.3063 53.414 43.3293 53.4091 43.3527 53.4072Z" fill="#455A64"/>
<path d="M32.41 61.7764C32.3506 61.7592 32.2932 61.7362 32.2384 61.7077C32.1288 61.6602 31.9744 61.5876 31.7816 61.4926C31.2762 61.256 30.8094 60.9445 30.397 60.5686C29.9847 60.1796 29.7034 59.6723 29.5918 59.1166C29.5603 58.9491 29.5523 58.7781 29.568 58.6084C29.5727 58.5639 29.5802 58.5199 29.5904 58.4764C29.5904 58.446 29.601 58.4302 29.6036 58.4302C29.5856 58.6577 29.5967 58.8866 29.6366 59.1113C29.7602 59.6495 30.0404 60.1392 30.4418 60.5184C30.8499 60.8914 31.3074 61.2063 31.8014 61.4543L32.2476 61.6893C32.3043 61.7131 32.3587 61.7423 32.41 61.7764Z" fill="#455A64"/>
<path d="M34.4653 61.6337L34.5181 61.6258L34.6712 61.6139L35.2494 61.5756L37.2954 61.4595L37.2663 61.4925C37.245 61.1318 37.1469 60.7799 36.9786 60.4602C36.8874 60.29 36.7641 60.1389 36.6156 60.0154C36.4637 59.8858 36.2824 59.7951 36.0876 59.7514H36.0994L36.0031 59.7725L32.8799 60.4682L32.8971 60.4272C33.1561 60.847 33.5237 61.1891 33.961 61.4172C34.0806 61.4802 34.2046 61.5344 34.332 61.5796C34.4191 61.61 34.464 61.6258 34.464 61.6284L34.4283 61.6218C34.4046 61.6218 34.3689 61.6086 34.324 61.5954C34.1936 61.5553 34.0665 61.505 33.9439 61.445C33.4939 61.223 33.1146 60.8802 32.8483 60.455L32.8271 60.4233L32.8654 60.414L35.9859 59.7052L36.081 59.6841H36.0928C36.2945 59.7306 36.4835 59.821 36.6464 59.9487C36.8093 60.0765 36.9421 60.2385 37.0353 60.4233C37.2069 60.7504 37.3063 61.1105 37.327 61.4793V61.511H37.2954L35.2428 61.602L34.6659 61.6232H34.5128C34.4975 61.6287 34.4815 61.6323 34.4653 61.6337Z" fill="#455A64"/>
<path d="M29.1931 61.5123C29.1528 61.4953 29.1147 61.4736 29.0796 61.4476C28.9773 61.3804 28.881 61.3044 28.7918 61.2206C28.6546 61.0922 28.5391 60.9424 28.4499 60.7771C28.34 60.5663 28.2592 60.3416 28.2097 60.1091L28.2334 60.1342L27.4929 59.9428C27.0441 59.8293 26.623 59.7237 26.264 59.6524L26.2983 59.6194C26.3187 59.788 26.3478 59.9554 26.3854 60.121C26.4151 60.2481 26.4617 60.3707 26.524 60.4853C26.5842 60.5825 26.6508 60.6755 26.7234 60.7639C26.6977 60.747 26.6742 60.727 26.6534 60.7045C26.5931 60.6434 26.5399 60.5756 26.495 60.5025C26.4251 60.3881 26.3726 60.264 26.3392 60.1342C26.2964 59.9673 26.2633 59.7981 26.2402 59.6273V59.5864L26.2812 59.5943C26.6442 59.6603 27.0666 59.762 27.5167 59.8755C27.7807 59.9415 28.0275 60.0075 28.2572 60.0709H28.2757V60.0893C28.3218 60.3183 28.3977 60.5401 28.5014 60.7493C28.5855 60.912 28.6941 61.0607 28.8235 61.1902C29.04 61.4027 29.201 61.4965 29.1931 61.5123Z" fill="#455A64"/>
<path d="M37.7443 43.5824C37.7443 43.5824 39.8206 43.3026 40.3843 43.8886C40.9479 44.4747 41.0693 46.7002 40.3843 46.7781C39.6992 46.856 39.2834 45.1809 39.2834 45.1809H38.3145L37.7443 43.5824Z" fill="#263238"/>
<path d="M38.7659 45.8965L39.0008 45.1705L39.0536 44.8972C39.0761 44.785 39.0998 44.6609 39.1209 44.5197C39.1451 44.3544 39.1416 44.1862 39.1104 44.022C39.081 43.8172 39.0237 43.6173 38.9401 43.428C38.8464 43.263 38.9955 43.0677 39.1513 43.1376C39.3071 43.2076 39.575 43.6551 39.6344 44.2663C39.6938 44.8774 40.1954 44.2491 40.3881 43.9613C40.6416 43.5812 41.1458 43.8082 40.961 44.2676C41.0077 44.275 41.0523 44.2924 41.0917 44.3186C41.1311 44.3448 41.1644 44.3792 41.1894 44.4194C41.2225 44.4883 41.2417 44.5631 41.2458 44.6394C41.2499 44.7158 41.2388 44.7922 41.2131 44.8642C41.2616 45.0511 41.2737 45.2456 41.2488 45.4371C41.1981 45.744 41.0834 46.0367 40.9122 46.2964L40.0621 47.2376" fill="#FFBE9D"/>
<path d="M29.6235 38.1137C28.9015 36.8927 28.6995 35.2665 28.5108 33.8594C28.425 33.1994 28.2745 32.2556 28.7391 31.8411C29.2381 31.3976 29.2869 30.7125 29.8598 30.3706C30.4327 30.0287 31.2102 29.9997 31.75 30.3917" fill="#263238"/>
<path d="M31.6246 42.438C31.8873 42.4588 32.1514 42.4264 32.4012 42.3428C32.6511 42.2592 32.8815 42.126 33.0787 41.9512C33.2758 41.7765 33.4357 41.5638 33.5488 41.3258C33.6618 41.0878 33.7257 40.8295 33.7366 40.5662C33.7802 39.4997 33.8198 38.4212 33.8198 38.4212C33.8198 38.4212 35.4354 38.2747 35.5582 36.6762C35.681 35.0777 35.6374 31.3856 35.6374 31.3856C34.7527 30.9365 33.7641 30.7316 32.7737 30.7921C31.7833 30.8527 30.8271 31.1765 30.0037 31.7301L30.0868 37.3599L30.0802 40.392C30.0881 41.4031 30.6122 42.3575 31.6246 42.438Z" fill="#FFBE9D"/>
<path d="M33.9715 34.7162C33.6956 34.3743 33.2482 34.237 32.8786 34.4746C32.6974 34.5999 32.5665 34.7854 32.5092 34.9981C32.4519 35.2108 32.472 35.4369 32.5657 35.6362C32.6482 35.784 32.7603 35.9132 32.895 36.0156C33.0296 36.118 33.184 36.1916 33.3485 36.2316C33.4952 36.2641 33.6249 36.3491 33.7132 36.4707C33.8014 36.5923 33.8422 36.742 33.8276 36.8916C33.7801 37.2876 33.1122 37.442 32.8099 37.7733C32.34 38.2881 31.3104 38.5046 30.6174 38.5838C29.9244 38.663 30.0181 38.6696 29.6234 38.1086C29.3579 37.7282 29.2227 37.272 29.238 36.8084L29.1746 33.2708C29.1497 32.8461 29.1781 32.4199 29.2591 32.0023C29.3436 31.5806 29.584 31.2064 29.9323 30.9542C30.3283 30.6994 30.8141 30.6796 31.2523 30.5371C31.8067 30.3602 32.278 29.9946 32.798 29.7306C33.3181 29.4666 33.9517 29.3108 34.4718 29.5735C34.844 29.7609 35.0935 30.1345 35.4565 30.343C35.9726 30.6374 36.6762 30.5727 36.9257 31.3344C37.0094 31.5995 37.0057 31.8846 36.9151 32.1475C36.5614 33.181 35.2783 33.5995 34.357 33.1441C34.3385 33.3196 34.5101 33.7104 34.324 34.2634C34.2632 34.4403 34.2421 34.7096 33.9662 34.7136" fill="#263238"/>
<path d="M33.6825 35.7166C33.6825 35.7166 33.6825 35.7469 33.6601 35.7852C33.6386 35.8123 33.6113 35.8343 33.5803 35.8496C33.5492 35.8649 33.5152 35.8731 33.4806 35.8737C33.3024 35.8908 33.074 35.6968 33.0674 35.4315C33.0639 35.3701 33.0726 35.3086 33.093 35.2506C33.1134 35.1926 33.1451 35.1392 33.1862 35.0935C33.253 35.0209 33.3406 34.9707 33.437 34.9497C33.602 34.9167 33.701 34.9774 33.6904 34.9879C33.6799 34.9985 33.5914 34.98 33.4594 35.0275C33.376 35.0537 33.3035 35.1067 33.2534 35.1783C33.2033 35.25 33.1782 35.3362 33.1822 35.4235C33.1818 35.51 33.2115 35.5939 33.2661 35.6608C33.3208 35.7278 33.3971 35.7737 33.4819 35.7905C33.6152 35.8011 33.6706 35.706 33.6825 35.7166Z" fill="#EB996E"/>
<path d="M29.077 33.6604C28.9435 33.3923 28.751 33.158 28.5139 32.9751C28.2768 32.7922 28.0013 32.6654 27.7081 32.6044C27.4142 32.5498 27.1111 32.5747 26.83 32.6766C26.549 32.7785 26.3003 32.9536 26.1096 33.1839C25.9264 33.4204 25.8206 33.7077 25.8069 34.0066C25.7932 34.3055 25.8722 34.6014 26.033 34.8537C26.4172 35.416 27.1577 35.5942 27.8335 35.6853C27.5845 35.9682 27.2806 36.1977 26.9402 36.3597C26.5999 36.5217 26.2302 36.6129 25.8535 36.6277C26.1222 36.8057 26.4338 36.9082 26.7556 36.9244C27.0775 36.9407 27.3978 36.8701 27.6831 36.7201L26.5808 37.6547C27.1348 37.7934 27.7198 37.7346 28.2351 37.4884C28.7504 37.2421 29.1636 36.8239 29.4036 36.3057C29.6437 35.7875 29.6954 35.2018 29.55 34.6495C29.4046 34.0973 29.0711 33.613 28.6071 33.2802" fill="#263238"/>
<path d="M28.0605 35.6136C28.2415 35.6251 28.4226 35.5929 28.5885 35.5198C28.7824 35.4175 28.9487 35.2699 29.0733 35.0895C29.1979 34.909 29.277 34.7012 29.304 34.4836C29.3357 34.2661 29.3183 34.0442 29.253 33.8342C29.1876 33.6243 29.0761 33.4317 28.9264 33.2706C28.7951 33.1405 28.6519 33.0229 28.4988 32.9194C28.4988 32.9194 28.5555 32.9194 28.644 32.9696C28.77 33.0325 28.885 33.1155 28.9845 33.2151C29.154 33.3793 29.2817 33.5817 29.3568 33.8054C29.4319 34.0291 29.4523 34.2676 29.4162 34.5008C29.3396 35.0539 28.9608 35.4684 28.6242 35.5938C28.4926 35.6511 28.3485 35.6734 28.2057 35.6584C28.108 35.64 28.0579 35.6188 28.0605 35.6136Z" fill="#FA8A3C"/>
<path d="M25.748 33.9993C25.7361 33.9993 25.8325 33.7709 26.1678 33.6205C26.5031 33.47 27.0034 33.4304 27.53 33.5399C27.9818 33.6334 28.4062 33.8289 28.7708 34.1115C28.8809 34.1961 28.9834 34.2902 29.0771 34.3927C29.1404 34.4666 29.1721 34.5101 29.1668 34.5154C29.1616 34.5207 29.0058 34.3702 28.7233 34.1762C28.3567 33.9212 27.943 33.7417 27.5063 33.6482C26.9981 33.5426 26.5123 33.565 26.1995 33.6904C26.0298 33.7621 25.8763 33.8671 25.748 33.9993Z" fill="#455A64"/>
<path d="M26.2299 35.074C26.2299 35.0568 26.3817 35.0911 26.6259 35.0951C26.9361 35.1012 27.2435 35.0362 27.5247 34.9051C27.8059 34.774 28.0534 34.5802 28.2481 34.3387C28.4012 34.1539 28.4699 34.0193 28.4857 34.0272C28.458 34.1595 28.3987 34.2832 28.3128 34.3876C28.1254 34.6578 27.8697 34.8736 27.5717 35.0127C27.2737 35.1518 26.9441 35.2094 26.6166 35.1796C26.4809 35.1772 26.3479 35.1409 26.2299 35.074Z" fill="#455A64"/>
<path d="M28.6586 37.224C28.648 37.2081 28.8091 37.1091 29.0136 36.8953C29.2823 36.6192 29.4746 36.2781 29.5718 35.9053C29.669 35.5325 29.6677 35.1409 29.568 34.7688C29.4928 34.481 29.4017 34.3173 29.4189 34.3081C29.5262 34.4348 29.6034 34.5842 29.6446 34.745C29.7726 35.1303 29.7865 35.5443 29.6847 35.9373C29.5828 36.3303 29.3695 36.6855 29.0704 36.96C28.9551 37.0783 28.8142 37.1686 28.6586 37.224Z" fill="#455A64"/>
<path d="M32.0311 30.8881C31.8404 30.7471 31.6143 30.6618 31.3781 30.6415C31.1418 30.6212 30.9045 30.6668 30.6926 30.7733C30.4236 30.9101 30.1958 31.1161 30.0326 31.3699C29.6736 31.9098 29.5864 32.5143 29.5152 32.9341C29.4929 33.1665 29.451 33.3966 29.3898 33.6218C29.3863 33.3882 29.4018 33.1547 29.436 32.9235C29.4874 32.5011 29.56 31.8768 29.9376 31.3065C30.1111 31.0365 30.3553 30.8192 30.6438 30.6782C30.8826 30.5686 31.1475 30.5288 31.408 30.5634C31.583 30.5862 31.7498 30.6515 31.8938 30.7535C31.9968 30.8287 32.035 30.8881 32.0311 30.8881Z" fill="#455A64"/>
<path d="M36.5297 32.5394C36.5977 32.5079 36.6626 32.4704 36.7238 32.4272C36.8022 32.3664 36.8614 32.2842 36.8942 32.1905C36.927 32.0969 36.932 31.9957 36.9086 31.8992C36.8742 31.7694 36.7916 31.6575 36.6776 31.5864C36.5373 31.5176 36.3797 31.4919 36.2248 31.5125C36.1321 31.5168 36.0392 31.5115 35.9476 31.4966C35.8478 31.477 35.7538 31.4345 35.6731 31.3726C35.5248 31.2398 35.3887 31.094 35.2665 30.937C35.0138 30.6679 34.6896 30.4766 34.3319 30.3852C34.0395 30.3058 33.7334 30.2901 33.4343 30.339C32.9195 30.4235 32.6582 30.6479 32.6423 30.6228C32.6954 30.5664 32.7574 30.5191 32.8258 30.4829C33.008 30.3744 33.2077 30.2985 33.4159 30.2585C33.7261 30.1964 34.0463 30.2046 34.3531 30.2822C34.734 30.3731 35.0797 30.5742 35.347 30.8604C35.465 31.0116 35.5953 31.1529 35.7364 31.2828C35.8772 31.3822 36.0496 31.4264 36.2209 31.4069C36.3952 31.3884 36.5711 31.4234 36.7251 31.5072C36.8559 31.5939 36.9481 31.7277 36.9825 31.8808C37.011 32.0055 36.9932 32.1364 36.9324 32.249C36.8881 32.3326 36.8242 32.4041 36.7462 32.4576C36.6983 32.4918 36.644 32.5161 36.5865 32.5289C36.5688 32.5372 36.5493 32.5408 36.5297 32.5394Z" fill="#455A64"/>
<path d="M29.473 34.6213C29.473 34.5976 29.7713 34.6557 30.2465 34.6055C30.8653 34.5444 31.4591 34.3303 31.9744 33.9825C32.5737 33.5785 32.9961 33.0373 33.1347 32.5872C33.2121 32.3431 33.2212 32.0824 33.1611 31.8335C33.2007 31.8928 33.2273 31.9598 33.239 32.0302C33.2769 32.2226 33.2678 32.4214 33.2126 32.6097C33.0806 33.0915 32.6568 33.6657 32.0378 34.0775C31.5083 34.4369 30.8919 34.6471 30.2531 34.686C30.0616 34.6985 29.8693 34.6923 29.6789 34.6675C29.6084 34.6621 29.5391 34.6466 29.473 34.6213Z" fill="#455A64"/>
<path d="M34.4231 40.3921C32.9767 40.1823 31.5167 40.0812 30.0552 40.0899C30.0552 40.0899 27.1934 40.4304 26.8779 41.2119C26.5783 41.9563 27.7254 50.4175 27.4812 50.4519L25.9592 55.1167C25.9592 55.1167 26.0701 58.356 29.7965 58.5197C33.8106 58.6953 36.4216 56.6783 36.8123 55.6487C36.8123 55.6487 35.3854 52.1454 35.3854 51.9844C35.3854 51.8233 35.1214 49.0223 35.1214 49.0223L35.2758 47.9887C36.3173 50.1232 37.5898 52.4147 38.197 52.4147C39.3216 52.4147 40.8832 52.0992 40.9373 50.8307C40.9756 49.9067 38.5507 45.0108 37.2149 42.3893C36.9444 41.8565 36.5494 41.3967 36.0634 41.049C35.5774 40.7014 35.0147 40.476 34.4231 40.3921Z" fill="#FA8A3C"/>
<path d="M26.8778 41.2119C26.3934 41.4284 22.84 49.6124 23.4855 50.3661C24.0134 50.9786 24.6418 51.8643 25.901 51.3271C26.446 51.0876 26.8988 50.6782 27.192 50.1602L28.4341 48.002L26.8778 41.2119Z" fill="#FA8A3C"/>
<path d="M40.9318 51.0263C40.9318 50.8283 40.7246 46.7522 40.0818 46.3536C39.6463 46.1075 39.1506 45.9886 38.6509 46.0103L40.9318 51.0263Z" fill="#FA8A3C"/>
<path d="M40.3722 49.062C40.3429 49.0212 40.3189 48.9768 40.3009 48.93L40.128 48.5617L39.5604 47.346C39.3386 46.8694 39.1433 46.4365 39.01 46.1197C38.9426 45.9613 38.8898 45.8319 38.8555 45.7422C38.8343 45.6967 38.8188 45.6488 38.8093 45.5996C38.8374 45.6411 38.8613 45.6854 38.8806 45.7316L39.0548 46.0999L39.6224 47.3169C39.8429 47.7921 40.0382 48.2251 40.1729 48.5419C40.2402 48.7003 40.2917 48.8296 40.326 48.9194C40.3467 48.965 40.3622 49.0129 40.3722 49.062Z" fill="#263238"/>
<path d="M32.2385 36.9762C32.1545 36.9638 32.0744 36.9332 32.0035 36.8865C31.7485 36.7428 31.5509 36.5156 31.4439 36.2431C31.3369 35.9707 31.3271 35.6697 31.4161 35.3909C31.4772 35.1927 31.5844 35.0117 31.729 34.8629C31.8865 34.7112 32.0642 34.582 32.2569 34.4788C32.447 34.3679 32.6358 34.2702 32.8034 34.158C32.9645 34.0531 33.1072 33.9225 33.2258 33.7713C33.4269 33.5118 33.5578 33.205 33.606 32.8803C33.6878 32.318 33.5136 31.98 33.5413 31.9761C33.5413 31.9761 33.5558 31.9946 33.5743 32.0328C33.6003 32.0893 33.6211 32.1481 33.6363 32.2084C33.6981 32.4303 33.7152 32.6623 33.6865 32.8908C33.6471 33.2339 33.5168 33.5602 33.309 33.836C33.185 33.998 33.0351 34.1384 32.8655 34.2518C32.6912 34.3692 32.5011 34.4696 32.3137 34.5778C32.1311 34.6758 31.9628 34.7984 31.8134 34.9421C31.6325 35.1256 31.5138 35.3613 31.474 35.6159C31.4342 35.8705 31.4754 36.1312 31.5917 36.3611C31.6938 36.5574 31.8435 36.7249 32.0273 36.8482C32.158 36.9366 32.2424 36.967 32.2385 36.9762Z" fill="#455A64"/>
<g opacity="0.3">
<path opacity="0.3" d="M33.7497 44.5635C33.6468 46.7705 33.561 49.0673 34.4427 51.0935C34.5879 51.4275 34.7846 51.7746 35.1212 51.9119C35.1793 51.9357 35.2532 51.9476 35.2955 51.8987C35.3377 51.8499 35.376 51.842 35.3733 51.8024C35.3562 51.4473 35.2836 51.0737 35.2664 50.7186C35.2374 50.122 35.1159 49.0198 35.1159 49.0198C35.1159 49.062 35.2638 48.0298 35.2638 48.0298C34.9523 47.0042 33.7484 44.6955 33.7484 44.6955" fill="black"/>
</g>
<path d="M22.9455 53.5645C22.9535 53.5487 23.6135 53.8813 24.4187 54.3103C25.2239 54.7393 25.8707 55.1023 25.8614 55.1168C25.8522 55.1314 25.1922 54.8 24.387 54.371C23.5818 53.942 22.9363 53.5817 22.9455 53.5645Z" fill="#455A64"/>
<path d="M24.5691 54.3592C24.4428 54.2848 24.3284 54.1918 24.2299 54.0834C24.117 53.9901 24.0191 53.8802 23.9395 53.7573C24.0662 53.8305 24.1803 53.9237 24.2774 54.0332C24.3912 54.1258 24.4896 54.2359 24.5691 54.3592Z" fill="#455A64"/>
<path d="M45.3513 52.7434C44.9869 52.7531 44.6251 52.8076 44.2741 52.9058C43.9301 53.0258 43.6017 53.1867 43.296 53.3849C43.368 53.3034 43.4522 53.2335 43.5455 53.1777C43.9851 52.8845 44.4996 52.7237 45.0279 52.7144C45.1365 52.7069 45.2457 52.7167 45.3513 52.7434Z" fill="#455A64"/>
<path d="M43.3819 52.8768C43.3937 52.8926 43.2683 52.989 43.1825 53.1553C43.0967 53.3216 43.0835 53.4761 43.0624 53.4748C43.0475 53.4151 43.0451 53.353 43.0553 53.2923C43.0655 53.2317 43.0882 53.1738 43.1218 53.1223C43.2182 52.9388 43.3739 52.8596 43.3819 52.8768Z" fill="#455A64"/>
<g opacity="0.3">
<path opacity="0.3" d="M27.311 54.6944C28.8567 55.3544 30.2968 55.1986 31.535 54.3406C32.0141 54.0093 32.8061 52.7566 32.7903 52.7012C32.1804 53.249 31.3739 53.4443 30.64 53.8126C29.9061 54.1809 29.0309 54.3406 28.2561 54.0766C28.0209 53.97 27.7766 53.8847 27.5261 53.8218C27.2714 53.7822 26.973 53.8535 26.8463 54.0779C26.7196 54.3023 26.8938 54.6601 27.1486 54.6205" fill="black"/>
</g>
<path d="M33.2032 50.2671C33.2032 50.2671 33.2098 50.2856 33.2164 50.3212C33.223 50.3569 33.2322 50.411 33.2375 50.4796C33.2589 50.6751 33.2651 50.8719 33.256 51.0683C33.2301 51.7205 33.0584 52.3585 32.7534 52.9355C32.4485 53.5126 32.018 54.0139 31.4938 54.4027C31.3366 54.5207 31.1707 54.6266 30.9975 54.7195C30.9367 54.7538 30.8866 54.7749 30.8536 54.7907C30.8206 54.8066 30.8021 54.8132 30.8008 54.8105C30.8596 54.769 30.9209 54.7311 30.9843 54.697C31.1506 54.5954 31.3111 54.4843 31.4647 54.3644C31.9734 53.9701 32.392 53.4718 32.6925 52.9027C32.993 52.3335 33.1685 51.7068 33.2071 51.0644C33.2189 50.8701 33.2189 50.6752 33.2071 50.4809C33.2015 50.4098 33.2001 50.3384 33.2032 50.2671Z" fill="#263238"/>
<path d="M37.4482 43.1244C37.299 43.1431 37.1484 43.1497 36.9981 43.1442L35.7626 43.1535C34.7198 43.1535 33.2784 43.1535 31.6878 43.1403L27.6116 43.1007L26.3761 43.0795L26.0408 43.0703C26.0015 43.071 25.9622 43.0684 25.9233 43.0624C25.9624 43.0593 26.0017 43.0593 26.0408 43.0624H26.3761H27.6116L31.6878 43.0822L35.7626 43.1152L37.4482 43.1244Z" fill="#FAFAFA"/>
<path d="M37.9394 43.832C37.7787 43.8516 37.6168 43.8586 37.455 43.8531L36.1271 43.861C35.0051 43.861 33.4567 43.861 31.746 43.8452L27.3636 43.8043L26.0357 43.7832L25.6753 43.7739H25.5816H25.5486H25.5816H25.6753H26.0357H27.3636L31.746 43.795L36.1271 43.8307L37.9394 43.832Z" fill="#FAFAFA"/>
<path d="M38.2445 44.4751C38.2009 44.4828 38.1567 44.4859 38.1125 44.4843L37.7336 44.4922L36.3384 44.5015H31.7395L27.138 44.4724L25.7441 44.4553L25.3653 44.4474H25.2663C25.2553 44.4491 25.2442 44.4491 25.2333 44.4474C25.2442 44.4453 25.2554 44.4453 25.2663 44.4474H25.3653H25.7441H27.138L31.7395 44.4566L36.3397 44.4817L37.7336 44.4936H38.1125C38.2009 44.4724 38.2498 44.4738 38.2445 44.4751Z" fill="#FAFAFA"/>
<path d="M34.3016 40.8833C34.2772 40.9078 34.2502 40.9295 34.2211 40.948C34.1414 41.0045 34.0655 41.0662 33.994 41.1328C33.7322 41.379 33.5408 41.6907 33.4396 42.0357C33.3082 42.5518 33.3037 43.0921 33.4264 43.6104C33.4897 43.9181 33.578 44.22 33.6904 44.5133C33.7485 44.6664 33.8224 44.8169 33.8897 44.97C33.9571 45.1231 34.0323 45.2802 34.1062 45.4386C34.6831 46.7058 35.2071 47.8516 35.5886 48.6885L36.0321 49.6771C36.0796 49.7893 36.1192 49.8791 36.1483 49.9411C36.1638 49.9719 36.1762 50.0042 36.1852 50.0375C36.1663 50.0091 36.1499 49.9791 36.1364 49.9477L36.0044 49.6837L35.5424 48.7056L34.0561 45.469C33.9821 45.3106 33.9109 45.1548 33.8396 45.0004C33.7683 44.8459 33.697 44.6915 33.6389 44.5371C33.5256 44.2405 33.4373 43.9349 33.3749 43.6236C33.2525 43.0952 33.2624 42.5448 33.404 42.0211C33.511 41.6707 33.7124 41.3565 33.9861 41.113C34.0604 41.0478 34.1399 40.9886 34.2237 40.9361C34.2483 40.9165 34.2743 40.8989 34.3016 40.8833Z" fill="#263238"/>
<path d="M26.8779 41.2119C26.8766 41.244 26.8722 41.2758 26.8647 41.307C26.8528 41.3743 26.8356 41.4627 26.8145 41.571C26.8039 41.6304 26.7907 41.6937 26.7775 41.7637C26.7603 41.8394 26.748 41.9161 26.7406 41.9934C26.7195 42.161 26.697 42.3498 26.6719 42.5583C26.5992 43.6541 26.6702 44.7546 26.8831 45.8319C27.1089 47.0978 27.3887 48.2356 27.4653 49.0804C27.4851 49.2903 27.5049 49.4764 27.5062 49.6494C27.5134 49.7931 27.5134 49.9372 27.5062 50.081C27.5062 50.1932 27.4943 50.283 27.489 50.3516C27.4882 50.3835 27.4851 50.4152 27.4798 50.4466C27.4764 50.415 27.4764 50.3832 27.4798 50.3516C27.4798 50.283 27.4798 50.1919 27.4798 50.0797C27.4798 49.9675 27.4798 49.8157 27.4666 49.6507C27.4534 49.4857 27.4389 49.2943 27.4151 49.0857C27.328 48.2462 27.0402 47.1136 26.8132 45.8438C26.5994 44.7608 26.535 43.6535 26.6218 42.553C26.6508 42.3445 26.6772 42.157 26.701 41.9881C26.71 41.9102 26.7242 41.8331 26.7432 41.7571L26.7868 41.5657L26.8501 41.3017C26.857 41.2711 26.8663 41.2411 26.8779 41.2119Z" fill="#263238"/>
<path d="M36.5852 55.06C36.5816 55.0705 36.5763 55.0803 36.5694 55.089L36.5166 55.1708C36.4504 55.2775 36.3782 55.3802 36.3001 55.4784C36.0162 55.8447 35.6851 56.1718 35.3154 56.4512C34.7675 56.8657 34.1612 57.1967 33.5162 57.4333C33.1369 57.5771 32.7473 57.6923 32.3507 57.7778C31.9259 57.8721 31.4949 57.9356 31.061 57.9679C30.2197 58.0442 29.3718 57.9397 28.5742 57.6617C27.9237 57.4245 27.3457 57.0229 26.8964 56.4961C26.7256 56.2933 26.5782 56.0719 26.4569 55.8361C26.3665 55.6579 26.2935 55.4714 26.2391 55.2791C26.2054 55.1579 26.1807 55.0343 26.1652 54.9095C26.1652 54.8712 26.1572 54.8382 26.1546 54.8131C26.1526 54.8018 26.1526 54.7902 26.1546 54.7788C26.1586 54.7894 26.1613 54.8005 26.1625 54.8118C26.1625 54.8369 26.1731 54.8686 26.1797 54.9082C26.201 55.0313 26.2301 55.153 26.2668 55.2725C26.3247 55.4609 26.4003 55.6435 26.4925 55.8176C26.6153 56.0479 26.7636 56.2635 26.9347 56.4605C27.3828 56.9754 27.9554 57.3667 28.5979 57.597C29.3881 57.8676 30.2265 57.9688 31.0584 57.894C31.4887 57.8625 31.9162 57.7999 32.3375 57.7066C32.7311 57.6225 33.1181 57.5096 33.4951 57.3686C34.1361 57.1364 34.7399 56.8123 35.2877 56.4064C35.657 56.1328 35.9905 55.814 36.2803 55.4573C36.3859 55.3332 36.4559 55.2276 36.5074 55.159L36.5654 55.0798C36.5714 55.0725 36.578 55.0659 36.5852 55.06Z" fill="#FAFAFA"/>
<path d="M36.3436 54.7709L36.3212 54.7934L36.2512 54.8554C36.1892 54.9108 36.0968 54.9874 35.9766 55.0877C35.7364 55.2857 35.3826 55.5682 34.9206 55.8876C34.3848 56.2647 33.8142 56.5895 33.2165 56.8578C32.4826 57.1884 31.6953 57.3847 30.892 57.4373C30.0846 57.4941 29.276 57.3461 28.5411 57.007C27.9463 56.7203 27.4312 56.2914 27.0416 55.7583C26.7792 55.3999 26.5907 54.993 26.4872 54.561C26.4726 54.4858 26.4594 54.4172 26.4476 54.3578C26.4357 54.2984 26.4357 54.2469 26.4317 54.206C26.4278 54.165 26.4251 54.1373 26.4238 54.1122C26.4225 54.0872 26.4238 54.0806 26.4238 54.0806C26.4281 54.0907 26.4307 54.1013 26.4317 54.1122C26.4317 54.1373 26.441 54.1677 26.4462 54.2046C26.4515 54.2416 26.4581 54.2957 26.47 54.3538C26.4819 54.4119 26.4977 54.4858 26.5149 54.5544C26.6263 54.9788 26.8185 55.3777 27.0812 55.7292C27.4715 56.2507 27.9824 56.6696 28.5701 56.9502C29.2958 57.2808 30.0926 57.4246 30.888 57.3687C31.6833 57.3161 32.4631 57.1235 33.1914 56.7998C33.7867 56.5355 34.3562 56.2169 34.8929 55.848C35.3536 55.5339 35.71 55.2593 35.9555 55.0666L36.238 54.8448L36.3119 54.7881C36.333 54.7802 36.3423 54.7696 36.3436 54.7709Z" fill="#FAFAFA"/>
</svg>
