<svg width="104" height="71" viewBox="0 0 104 71" fill="none" xmlns="http://www.w3.org/2000/svg">
<g clip-path="url(#clip0_314:6859)">
<path d="M79.4501 67.0782L84.8045 58.7273L79.4611 67.9766L79.4722 68.9163C79.0813 68.9194 78.6943 68.9126 78.3109 68.8958L78.5765 56.8167L78.5692 56.7235L78.579 56.7055L78.6045 55.5641L72.7407 46.6354L78.5975 54.7098L78.6183 54.9511L78.8189 45.8248L73.7542 36.5678L78.8333 44.2216L78.7803 25.3144L78.7804 25.2515L78.7822 25.3134L79.1184 40.2148L83.7342 34.1618L79.1335 41.4985L79.2342 49.6617L83.4818 41.6948L79.2498 50.8619L79.3059 55.401L85.483 44.3031L79.3247 56.9846L79.4501 67.0782Z" fill="#E6E6E6"/>
<path d="M97.4697 67.3428L102.824 58.9919L97.4806 68.2412L97.4918 69.1809C97.1009 69.1841 96.7138 69.1772 96.3305 69.1605L96.596 57.0813L96.5888 56.9882L96.5986 56.9701L96.624 55.8287L90.7603 46.9L96.6171 54.9745L96.6378 55.2157L96.8384 46.0895L91.7738 36.8325L96.8529 44.4863L96.7999 25.579L96.8 25.5161L96.8017 25.578L97.1379 40.4794L101.754 34.4265L97.153 41.7632L97.2537 49.9264L101.501 41.9594L97.2694 51.1265L97.3254 55.6657L103.503 44.5678L97.3442 57.2492L97.4697 67.3428Z" fill="#E6E6E6"/>
<path d="M43.3007 0.775391H11.2593V46.2292H43.3007V0.775391Z" fill="#E6E6E6"/>
<path d="M42.1719 2.37695H12.3887V44.6274H42.1719V2.37695Z" fill="white"/>
<path d="M38.257 9.78821H16.3987C16.2217 9.78796 16.0519 9.71403 15.9268 9.58264C15.8017 9.45125 15.7314 9.27315 15.7314 9.08746C15.7314 8.90177 15.8017 8.72368 15.9268 8.59229C16.0519 8.4609 16.2217 8.38696 16.3987 8.38672H38.257C38.3448 8.3866 38.4318 8.40463 38.513 8.4398C38.5941 8.47496 38.6679 8.52655 38.73 8.59164C38.7922 8.65672 38.8415 8.73401 38.8751 8.81909C38.9087 8.90417 38.926 8.99536 38.926 9.08746C38.926 9.17956 38.9087 9.27076 38.8751 9.35584C38.8415 9.44092 38.7922 9.51821 38.73 9.58329C38.6679 9.64837 38.5941 9.69997 38.513 9.73513C38.4318 9.77029 38.3448 9.78833 38.257 9.78821Z" fill="#E6E6E6"/>
<path d="M38.257 16.9953H16.3987C16.2217 16.995 16.0519 16.9211 15.9268 16.7897C15.8017 16.6583 15.7314 16.4802 15.7314 16.2945C15.7314 16.1088 15.8017 15.9307 15.9268 15.7993C16.0519 15.6679 16.2217 15.594 16.3987 15.5938H38.257C38.3448 15.5936 38.4318 15.6117 38.513 15.6468C38.5941 15.682 38.6679 15.7336 38.73 15.7987C38.7922 15.8638 38.8415 15.941 38.8751 16.0261C38.9087 16.1112 38.926 16.2024 38.926 16.2945C38.926 16.3866 38.9087 16.4778 38.8751 16.5629C38.8415 16.648 38.7922 16.7252 38.73 16.7903C38.6679 16.8554 38.5941 16.907 38.513 16.9422C38.4318 16.9773 38.3448 16.9954 38.257 16.9953Z" fill="#E6E6E6"/>
<path d="M38.257 24.2037H16.3987C16.2217 24.2035 16.0519 24.1296 15.9268 23.9982C15.8017 23.8668 15.7314 23.6887 15.7314 23.503C15.7314 23.3173 15.8017 23.1392 15.9268 23.0078C16.0519 22.8764 16.2217 22.8025 16.3987 22.8022H38.257C38.3448 22.8021 38.4318 22.8202 38.513 22.8553C38.5941 22.8905 38.6679 22.9421 38.73 23.0072C38.7922 23.0722 38.8415 23.1495 38.8751 23.2346C38.9087 23.3197 38.926 23.4109 38.926 23.503C38.926 23.5951 38.9087 23.6863 38.8751 23.7714C38.8415 23.8565 38.7922 23.9337 38.73 23.9988C38.6679 24.0639 38.5941 24.1155 38.513 24.1507C38.4318 24.1858 38.3448 24.2039 38.257 24.2037Z" fill="#E6E6E6"/>
<path d="M38.257 31.4108H16.3987C16.2217 31.4105 16.0519 31.3366 15.9268 31.2052C15.8017 31.0738 15.7314 30.8957 15.7314 30.71C15.7314 30.5243 15.8017 30.3462 15.9268 30.2148C16.0519 30.0835 16.2217 30.0095 16.3987 30.0093H38.257C38.3448 30.0092 38.4318 30.0272 38.513 30.0624C38.5941 30.0975 38.6679 30.1491 38.73 30.2142C38.7922 30.2793 38.8415 30.3566 38.8751 30.4416C38.9087 30.5267 38.926 30.6179 38.926 30.71C38.926 30.8021 38.9087 30.8933 38.8751 30.9784C38.8415 31.0635 38.7922 31.1408 38.73 31.2058C38.6679 31.2709 38.5941 31.3225 38.513 31.3577C38.4318 31.3928 38.3448 31.4109 38.257 31.4108Z" fill="#E6E6E6"/>
<path d="M38.257 38.6188H16.3987C16.2217 38.6185 16.0519 38.5446 15.9268 38.4132C15.8017 38.2818 15.7314 38.1037 15.7314 37.918C15.7314 37.7323 15.8017 37.5542 15.9268 37.4229C16.0519 37.2915 16.2217 37.2175 16.3987 37.2173H38.257C38.3448 37.2172 38.4318 37.2352 38.513 37.2704C38.5941 37.3055 38.6679 37.3571 38.73 37.4222C38.7922 37.4873 38.8415 37.5646 38.8751 37.6497C38.9087 37.7347 38.926 37.8259 38.926 37.918C38.926 38.0101 38.9087 38.1013 38.8751 38.1864C38.8415 38.2715 38.7922 38.3488 38.73 38.4139C38.6679 38.4789 38.5941 38.5305 38.513 38.5657C38.4318 38.6009 38.3448 38.6189 38.257 38.6188Z" fill="#E6E6E6"/>
<path d="M34.439 9.78821H16.3033C16.2155 9.78833 16.1285 9.77029 16.0474 9.73513C15.9662 9.69997 15.8924 9.64837 15.8303 9.58329C15.7682 9.51821 15.7189 9.44092 15.6852 9.35584C15.6516 9.27076 15.6343 9.17956 15.6343 9.08746C15.6343 8.99536 15.6516 8.90417 15.6852 8.81909C15.7189 8.73401 15.7682 8.65672 15.8303 8.59164C15.8924 8.52655 15.9662 8.47496 16.0474 8.4398C16.1285 8.40463 16.2155 8.3866 16.3033 8.38672H34.439C34.6161 8.38696 34.7858 8.4609 34.9109 8.59229C35.036 8.72368 35.1063 8.90177 35.1063 9.08746C35.1063 9.27315 35.036 9.45125 34.9109 9.58264C34.7858 9.71403 34.6161 9.78796 34.439 9.78821Z" fill="#FA8A3C"/>
<path d="M28.8075 16.9953H16.3034C16.1262 16.9953 15.9563 16.9214 15.831 16.79C15.7056 16.6586 15.6353 16.4804 15.6353 16.2945C15.6353 16.1087 15.7056 15.9304 15.831 15.799C15.9563 15.6676 16.1262 15.5938 16.3034 15.5938H28.8075C28.8953 15.5936 28.9823 15.6117 29.0635 15.6468C29.1446 15.682 29.2184 15.7336 29.2805 15.7987C29.3427 15.8638 29.392 15.941 29.4256 16.0261C29.4592 16.1112 29.4765 16.2024 29.4765 16.2945C29.4765 16.3866 29.4592 16.4778 29.4256 16.5629C29.392 16.648 29.3427 16.7252 29.2805 16.7903C29.2184 16.8554 29.1446 16.907 29.0635 16.9422C28.9823 16.9773 28.8953 16.9954 28.8075 16.9953Z" fill="#FA8A3C"/>
<path d="M21.9349 24.2037H16.3033C16.2155 24.2039 16.1285 24.1858 16.0474 24.1507C15.9662 24.1155 15.8924 24.0639 15.8303 23.9988C15.7682 23.9337 15.7189 23.8565 15.6852 23.7714C15.6516 23.6863 15.6343 23.5951 15.6343 23.503C15.6343 23.4109 15.6516 23.3197 15.6852 23.2346C15.7189 23.1495 15.7682 23.0722 15.8303 23.0072C15.8924 22.9421 15.9662 22.8905 16.0474 22.8553C16.1285 22.8202 16.2155 22.8021 16.3033 22.8022H21.9349C22.112 22.8025 22.2817 22.8764 22.4068 23.0078C22.5319 23.1392 22.6022 23.3173 22.6022 23.503C22.6022 23.6887 22.5319 23.8668 22.4068 23.9982C22.2817 24.1296 22.112 24.2035 21.9349 24.2037Z" fill="#FA8A3C"/>
<path d="M36.1572 31.4108H16.3034C16.1262 31.4108 15.9563 31.3369 15.831 31.2055C15.7056 31.0741 15.6353 30.8959 15.6353 30.71C15.6353 30.5242 15.7056 30.3459 15.831 30.2145C15.9563 30.0831 16.1262 30.0093 16.3034 30.0093H36.1572C36.3344 30.0093 36.5044 30.0831 36.6297 30.2145C36.755 30.3459 36.8254 30.5242 36.8254 30.71C36.8254 30.8959 36.755 31.0741 36.6297 31.2055C36.5044 31.3369 36.3344 31.4108 36.1572 31.4108Z" fill="#FA8A3C"/>
<path d="M31.7664 38.6188H16.3033C16.2155 38.6189 16.1285 38.6009 16.0474 38.5657C15.9662 38.5305 15.8924 38.4789 15.8303 38.4139C15.7682 38.3488 15.7189 38.2715 15.6852 38.1864C15.6516 38.1013 15.6343 38.0101 15.6343 37.918C15.6343 37.8259 15.6516 37.7347 15.6852 37.6497C15.7189 37.5646 15.7682 37.4873 15.8303 37.4222C15.8924 37.3571 15.9662 37.3055 16.0474 37.2704C16.1285 37.2352 16.2155 37.2172 16.3033 37.2173H31.7664C31.8542 37.2172 31.9412 37.2352 32.0223 37.2704C32.1035 37.3055 32.1773 37.3571 32.2394 37.4222C32.3015 37.4873 32.3508 37.5646 32.3845 37.6497C32.4181 37.7347 32.4354 37.8259 32.4354 37.918C32.4354 38.0101 32.4181 38.1013 32.3845 38.1864C32.3508 38.2715 32.3015 38.3488 32.2394 38.4139C32.1773 38.4789 32.1035 38.5305 32.0223 38.5657C31.9412 38.6009 31.8542 38.6189 31.7664 38.6188Z" fill="#FA8A3C"/>
<path d="M103.001 68.918H0.65625V69.1597H103.001V68.918Z" fill="#3F3D56"/>
<path d="M58.9733 33.5216C58.9733 33.5216 58.2489 27.9501 57.0415 29.4696C55.8341 30.9891 57.0415 33.2684 57.0415 33.2684L58.0074 34.5346L58.9733 33.7749V33.5216Z" fill="#9F616A"/>
<path d="M61.8708 35.294C61.8708 35.294 59.4561 32.5082 58.9731 33.0147C58.4902 33.5212 57.0413 33.7744 57.2828 34.7874C57.5243 35.8005 62.5952 39.0927 62.5952 39.0927L61.8708 35.294Z" fill="#FF6584"/>
<path opacity="0.1" d="M61.8708 35.294C61.8708 35.294 59.4561 32.5082 58.9731 33.0147C58.4902 33.5212 57.0413 33.7744 57.2828 34.7874C57.5243 35.8005 62.5952 39.0927 62.5952 39.0927L61.8708 35.294Z" fill="#FF6584"/>
<path d="M75.6349 35.0415V37.0675C75.6349 37.0675 75.8763 41.6261 74.4275 41.3728C72.9787 41.1196 73.7031 37.3208 73.7031 37.3208L73.9446 35.0415L75.6349 35.0415Z" fill="#9F616A"/>
<path d="M74.9108 49.73C74.9108 49.73 77.084 53.2755 77.8085 53.5288C78.5329 53.782 82.3965 56.0613 82.8794 58.3406L86.2601 62.8991L84.5698 65.1784C84.5698 65.1784 76.8426 56.5678 74.6693 55.808C72.496 55.0483 70.3228 51.2495 70.3228 51.2495L74.9108 49.73Z" fill="#9F616A"/>
<path d="M57.7659 43.9053C57.7659 43.9053 53.1779 44.665 53.9023 47.7041C54.6267 50.7431 61.6295 57.0744 61.6295 57.0744L61.871 58.5939L64.5272 59.1004L65.7345 57.8342L65.4931 57.0744C65.4931 57.0744 62.5954 54.2886 62.3539 53.2756C62.1124 52.2626 59.4562 48.2106 58.2488 47.9573L59.9391 46.9443L57.7659 43.9053Z" fill="#9F616A"/>
<path d="M85.5354 62.8992C85.5354 62.8992 84.5695 61.3797 86.0184 61.633C87.4672 61.8862 88.4331 62.1395 88.4331 63.1525C88.4331 64.1655 87.2257 71.2566 85.7769 70.7501C84.328 70.2436 85.5354 67.9643 85.5354 67.9643C85.5354 67.9643 84.811 65.9383 84.328 65.685C83.8451 65.4318 83.8451 64.1655 84.328 64.1655C84.811 64.1655 85.7769 63.4057 85.5354 62.8992Z" fill="#2F2E41"/>
<path d="M65.0099 57.3284C65.0099 57.3284 65.0099 56.0621 65.9758 57.3284C66.9417 58.5947 67.4247 59.6077 66.4587 60.3674C65.4928 61.1272 62.1122 62.9 62.1122 62.9C62.1122 62.9 58.4901 63.6597 58.973 61.887C58.973 61.887 61.3878 60.6207 61.3878 59.6077C61.3878 58.5947 61.3878 56.8219 62.1122 57.3284C62.8366 57.8349 65.0099 58.0882 65.0099 57.3284Z" fill="#2F2E41"/>
<path d="M69.598 38.3335C69.598 38.3335 72.9786 38.84 72.7372 43.9051C72.7372 43.9051 77.0837 48.4636 75.8763 49.9831C74.669 51.5026 72.0127 54.2884 71.0468 53.5287C70.0809 52.7689 67.1832 46.9441 67.1832 46.9441C67.1832 46.9441 60.4219 49.4766 59.2146 48.2104C58.0072 46.9441 56.7998 43.9051 56.7998 43.9051L62.8367 40.6128L69.598 38.3335Z" fill="#2F2E41"/>
<path d="M60.1804 23.8984C61.7808 23.8984 63.0781 22.5378 63.0781 20.8594C63.0781 19.1809 61.7808 17.8203 60.1804 17.8203C58.5801 17.8203 57.2827 19.1809 57.2827 20.8594C57.2827 22.5378 58.5801 23.8984 60.1804 23.8984Z" fill="#9F616A"/>
<path d="M62.3537 21.1133C62.3537 21.1133 64.044 23.8991 64.527 24.1523C65.0099 24.4056 61.1463 26.9381 61.1463 26.9381C61.1463 26.9381 61.1463 23.6458 59.939 22.886L62.3537 21.1133Z" fill="#9F616A"/>
<path d="M62.5952 23.8986C62.5952 23.8986 66.4588 22.6324 67.1832 24.6584C67.9076 26.6844 69.598 30.4832 69.3565 33.0157C69.115 35.5483 68.6321 35.0418 69.3565 35.8015C70.0809 36.5613 70.5639 36.0548 70.3224 37.0678C70.0809 38.0808 69.8394 38.0808 70.0809 38.5873C70.3224 39.0938 67.1832 40.8666 64.527 41.1198L61.8708 41.3731C61.8708 41.3731 61.8708 36.8145 61.3878 35.8015C60.9049 34.7885 59.939 32.7625 59.939 32.0027V29.9925C59.939 28.6545 60.2719 27.3396 60.9049 26.1779C60.9049 26.1779 62.3537 23.8986 62.5952 23.8986Z" fill="#FA8A3C"/>
<path d="M65.493 24.9121C65.493 24.9121 74.4275 25.6719 75.3934 28.2044C76.3593 30.7369 76.8423 35.802 75.8764 35.802C74.9105 35.802 73.7031 36.3085 73.4616 35.802C73.2202 35.2955 72.2543 30.2304 72.0128 30.2304C71.7713 30.2304 64.5271 29.4707 64.5271 29.4707C64.5271 29.4707 61.3879 25.4186 65.493 24.9121Z" fill="#FA8A3C"/>
<path d="M60.0641 20.1064C60.0641 20.1064 59.2951 18.7048 58.3339 19.9222C57.3728 21.1395 55.8091 18.9024 56.0491 18.4251C56.2892 17.9478 57.1369 18.4466 58.5896 17.9485C60.0423 17.4505 62.8407 16.4358 63.3093 19.7456C63.778 23.0554 62.6618 22.7084 62.6618 22.7084C62.6618 22.7084 62.1502 19.7756 61.6878 20.618L61.2253 21.4604L60.8242 21.564L60.0641 20.1064Z" fill="#2F2E41"/>
</g>
<defs>
<clipPath id="clip0_314:6859">
<rect width="102.847" height="70" fill="white" transform="translate(0.65625 0.775391)"/>
</clipPath>
</defs>
</svg>
