<svg width="21" height="25" viewBox="0 0 21 25" fill="none" xmlns="http://www.w3.org/2000/svg">
<path d="M19.1384 11.2171C19.3884 11.2172 19.6299 11.3072 19.8183 11.4705C20.0067 11.6339 20.1292 11.8596 20.1632 12.1058L20.1729 12.2457V21.8459C20.1729 22.6278 19.8745 23.3806 19.3379 23.9521C18.8012 24.5236 18.0664 24.8713 17.2818 24.9248L17.0694 24.9316H3.2763C2.48992 24.9317 1.73282 24.635 1.15802 24.1014C0.583216 23.5678 0.233572 22.8371 0.179748 22.0571L0.172852 21.8459V12.2457C0.172932 11.9851 0.272499 11.7343 0.451435 11.5438C0.63037 11.3534 0.875332 11.2376 1.13682 11.2199C1.39832 11.2021 1.65684 11.2837 1.86016 11.4481C2.06348 11.6126 2.19644 11.8477 2.23216 12.1058L2.24182 12.2457V21.8459C2.24182 22.367 2.63078 22.7977 3.13561 22.8649L3.2763 22.8745H17.0694C17.3194 22.8745 17.5609 22.7844 17.7493 22.6211C17.9377 22.4577 18.0602 22.232 18.0942 21.9858L18.1039 21.8459V12.2457C18.1039 11.9729 18.2129 11.7113 18.4069 11.5184C18.6009 11.3255 18.864 11.2171 19.1384 11.2171ZM3.92182 6.7133L9.4363 1.23299C9.61146 1.05879 9.84367 0.95288 10.0907 0.934507C10.3378 0.916135 10.5832 0.986524 10.7825 1.13288L10.8984 1.23162L16.4211 6.7133C16.6067 6.89661 16.7155 7.143 16.7257 7.40289C16.7359 7.66278 16.6468 7.91686 16.4761 8.11399C16.3055 8.31112 16.0661 8.43666 15.8061 8.46533C15.5461 8.494 15.2849 8.42368 15.0749 8.26853L14.9591 8.16841L11.2073 4.4463V17.7384C11.2073 17.9869 11.1168 18.2271 10.9525 18.4144C10.7882 18.6017 10.5612 18.7236 10.3135 18.7574L10.1729 18.767C9.92287 18.767 9.68135 18.6769 9.49295 18.5136C9.30455 18.3502 9.18202 18.1245 9.14802 17.8783L9.13837 17.7384V4.4367L5.38527 8.16841C5.20986 8.34277 4.97728 8.44865 4.72993 8.46678C4.48257 8.4849 4.2369 8.41406 4.03768 8.26716L3.92182 8.16841C3.74647 7.994 3.63997 7.76275 3.62174 7.51681C3.60351 7.27086 3.67476 7.02659 3.82251 6.82851L3.92182 6.7133Z" fill="black"/>
</svg>
