<svg width="95" height="68" viewBox="0 0 95 68" fill="none" xmlns="http://www.w3.org/2000/svg">
<g clip-path="url(#clip0_314:6942)">
<path d="M82.8162 10.8513C79.8405 10.8513 77.4283 8.43135 77.4283 5.44617C77.4283 2.46098 79.8405 0.0410156 82.8162 0.0410156C85.7919 0.0410156 88.2041 2.46098 88.2041 5.44617C88.2041 8.43135 85.7919 10.8513 82.8162 10.8513Z" fill="#062540"/>
<path d="M19.5322 55.356C21.4105 55.3558 23.2278 54.6874 24.6612 53.4696C26.0945 52.2518 27.0509 50.5636 27.3603 48.705L27.3667 48.6657L27.3414 48.6353C26.9202 48.1286 26.5662 47.5692 26.2884 46.9712C26.5955 47.3072 26.9433 47.6033 27.3238 47.8525L27.4509 47.9373L27.4582 47.7845C27.4646 47.6526 27.4678 47.5216 27.4678 47.3951C27.4684 46.6518 27.3662 45.9119 27.1639 45.1968C26.2426 41.9483 26.0851 38.4598 26.6956 34.8284C26.8 34.2058 26.8524 33.5755 26.8524 32.9441C26.8514 30.2758 25.9037 27.695 24.179 25.6638C22.4542 23.6326 20.0651 22.2836 17.4393 21.8584C14.8135 21.4332 12.1226 21.9596 9.8484 23.3433C7.57421 24.727 5.86526 26.8776 5.02755 29.4101L5.00207 29.4873L5.07718 29.5178C5.64136 29.7574 6.23965 29.9063 6.85003 29.9591C6.20497 30.1079 5.54329 30.1717 4.88177 30.1487L4.81193 30.1463L4.7949 30.2144C4.5731 31.1072 4.46102 32.0239 4.46115 32.9441L4.46156 33.0437C4.46365 33.7484 4.31768 34.4455 4.03317 35.0898C3.74866 35.7341 3.332 36.3109 2.81034 36.7828C1.96263 37.5566 1.29206 38.5054 0.84477 39.564C0.397482 40.6226 0.184095 41.7658 0.219282 42.915C0.254469 44.0642 0.537399 45.1922 1.04861 46.2212C1.55981 47.2503 2.28716 48.156 3.18062 48.8761L3.22199 48.9096L3.27048 48.8875C4.29237 48.4224 5.03684 47.9156 5.58126 47.3108C5.21831 48.087 4.72965 48.7975 4.13514 49.4134L4.05828 49.4929L4.15371 49.5486C5.36703 50.2584 6.74649 50.6321 8.151 50.6316L8.19103 50.6314C8.20517 50.6313 8.2194 50.6313 8.23354 50.6313C10.382 50.6313 12.4184 51.4648 13.8267 52.9219C14.5683 53.6883 15.455 54.2983 16.4347 54.7163C17.4145 55.1343 18.4676 55.3518 19.5322 55.356Z" fill="#F2F2F2"/>
<path d="M22.3406 67.8996C22.3751 67.8996 22.4084 67.8871 22.4344 67.8644C22.4604 67.8417 22.4774 67.8104 22.4822 67.7762C22.4883 67.7333 23.0843 63.4211 22.549 57.69C22.0547 52.3972 20.4672 44.7737 15.7117 38.5127C15.7003 38.4976 15.686 38.485 15.6698 38.4755C15.6535 38.4661 15.6356 38.4599 15.6169 38.4573C15.5983 38.4548 15.5793 38.456 15.5611 38.4608C15.543 38.4657 15.5259 38.474 15.5109 38.4855C15.496 38.4969 15.4834 38.5112 15.4739 38.5275C15.4645 38.5438 15.4583 38.5618 15.4558 38.5805C15.4533 38.5992 15.4545 38.6182 15.4593 38.6365C15.4641 38.6547 15.4724 38.6718 15.4838 38.6868C20.1983 44.8938 21.773 52.4614 22.2638 57.7168C22.796 63.4145 22.2047 67.6931 22.1986 67.7357C22.1958 67.7561 22.1973 67.7768 22.2031 67.7966C22.2089 67.8163 22.2189 67.8346 22.2324 67.8501C22.2458 67.8657 22.2624 67.8781 22.2811 67.8867C22.2998 67.8952 22.3201 67.8996 22.3406 67.8996Z" fill="#3F3D56"/>
<path d="M19.9631 46.7911C19.9934 46.7911 20.0228 46.7815 20.0473 46.7637C20.0718 46.7458 20.0901 46.7207 20.0994 46.6918C20.1088 46.663 20.1088 46.6319 20.0994 46.603C20.0901 46.5742 20.0719 46.549 20.0474 46.5312C18.6924 45.611 17.2286 44.8634 15.6896 44.3057C13.2854 43.4226 9.6293 42.6221 5.86546 43.8239C5.84753 43.8296 5.83091 43.8388 5.81653 43.8509C5.80215 43.8631 5.7903 43.878 5.78166 43.8947C5.77302 43.9115 5.76776 43.9298 5.76616 43.9486C5.76457 43.9674 5.76669 43.9863 5.77239 44.0043C5.7781 44.0223 5.78727 44.039 5.7994 44.0534C5.81153 44.0678 5.82638 44.0797 5.84308 44.0884C5.85979 44.097 5.87804 44.1023 5.89678 44.1039C5.91553 44.1055 5.9344 44.1034 5.95232 44.0976C9.63905 42.9206 13.2288 43.7079 15.5911 44.5756C17.1053 45.1238 18.5457 45.8587 19.879 46.7636C19.9034 46.7815 19.9329 46.7911 19.9631 46.7911Z" fill="#3F3D56"/>
<path d="M78.1508 57.2288C79.4869 57.2264 81.5904 57.3345 82.7362 57.9414C83.6167 58.4079 84.4185 59.0105 85.1123 59.727C85.3798 60.0043 85.6331 60.2949 85.8712 60.5978C86.5302 58.3363 86.6069 55.9442 86.0942 53.645C86.0581 53.4902 86.07 53.328 86.1281 53.1802C86.1863 53.0324 86.288 52.9058 86.4197 52.8174C86.5514 52.7291 86.7068 52.6831 86.8652 52.6856C87.0237 52.6882 87.1776 52.7391 87.3064 52.8317C89.1678 54.1934 90.3578 56.5013 90.6472 58.8359C91.016 61.8106 90.1477 64.8082 88.9409 67.5514L88.9413 67.5528C88.9435 67.5651 88.9469 67.5785 88.9502 67.592C88.9547 67.6121 88.9602 67.6323 88.9647 67.6525C88.9726 67.6872 88.9814 67.723 88.9893 67.7578L88.7939 67.7488C88.7827 67.7544 88.7715 67.7589 88.7604 67.7645H83.8662C83.8014 67.6936 83.7409 67.6188 83.6853 67.5404C83.1437 66.7955 82.9193 65.7862 82.6457 64.8755C82.4476 64.216 82.1997 63.5727 81.9043 62.951C81.1604 61.3893 80.1339 59.9797 78.8771 58.7939C78.8369 58.7558 78.7956 58.7177 78.7543 58.6807C78.5438 58.4866 78.2175 58.2268 77.8986 57.983C77.8289 57.9298 77.7776 57.8561 77.7519 57.7722C77.7261 57.6883 77.7272 57.5984 77.7551 57.5152C77.7829 57.4319 77.836 57.3595 77.907 57.3082C77.978 57.2568 78.0633 57.229 78.1508 57.2288Z" fill="#F2F2F2"/>
<path d="M45.1061 10.9347C44.991 11.2577 45.007 11.6131 45.1507 11.9243C45.2943 12.2355 45.5542 12.4776 45.8741 12.5984C45.9449 12.6249 46.0179 12.6451 46.0922 12.6587L46.8319 17.202L48.5669 15.5949L47.5985 11.5269C47.6344 11.1841 47.5343 10.8409 47.3199 10.5715C47.1056 10.3022 46.7942 10.1283 46.453 10.0874C46.166 10.0544 45.8763 10.1203 45.6316 10.2743C45.3868 10.4283 45.2015 10.6612 45.1062 10.9347L45.1061 10.9347Z" fill="#9E616A"/>
<path d="M57.9106 21.2294C57.9106 21.2294 56.5641 19.4445 51.6776 19.4934L48.904 18.4824L48.2701 12.6533L46.0516 13.1832L46.3685 20.3901L51.1225 23.1457L57.3556 24.4175L57.9106 21.2294Z" fill="#FA8A3C"/>
<path d="M65.4194 65.173L64.1393 65.7202L61.426 61.0274L63.3153 60.2197L65.4194 65.173Z" fill="#9E616A"/>
<path d="M54.8415 66.3882L53.4501 66.3881L52.7882 61.0039L54.8418 61.004L54.8415 66.3882Z" fill="#9E616A"/>
<path d="M54.8906 67.8435L50.6118 67.8433V67.789C50.6118 67.3459 50.7873 66.921 51.0996 66.6077C51.4119 66.2943 51.8355 66.1183 52.2772 66.1183H52.2773L53.0589 65.5234L54.5171 66.1184L54.8906 66.1184L54.8906 67.8435Z" fill="#2F2E41"/>
<path d="M66.1978 66.1055L62.2615 67.7884L62.2403 67.7384C62.0671 67.3308 62.0625 66.8708 62.2273 66.4598C62.3922 66.0487 62.7131 65.7201 63.1194 65.5464L63.1195 65.5464L63.606 64.6917L65.18 64.6655L65.5236 64.5186L66.1978 66.1055Z" fill="#2F2E41"/>
<path d="M53.4765 34.5239L51.3618 47.4416L51.9373 49.3666L51.1821 50.7299L52.2911 62.7029L51.841 63.6971L53.0987 64.4753H55.6581L55.7939 53.6361L56.4261 52.0446V51.1676L57.7131 44.5581L57.9501 52.1185L58.3244 53.7124L58.01 54.8473L58.4209 55.6424L61.9421 63.2277H64.812L64.59 61.5123C65.1042 61.2511 63.8181 60.4878 63.6945 59.9231L64.1171 58.9693L63.6945 57.1676L63.307 53.6469L63.7156 46.2156L63.5234 36.2083L60.1661 33.6328L53.4765 34.5239Z" fill="#2F2E41"/>
<path d="M58.6261 17.5104C57.0244 17.5104 55.7259 16.2078 55.7259 14.6009C55.7259 12.994 57.0244 11.6914 58.6261 11.6914C60.2279 11.6914 61.5264 12.994 61.5264 14.6009C61.5264 16.2078 60.2279 17.5104 58.6261 17.5104Z" fill="#9E616A"/>
<path d="M63.6655 39.8807C63.5842 39.7345 63.5358 39.5722 63.5238 39.4053C63.5118 39.2383 63.5364 39.0708 63.596 38.9144C63.6555 38.7581 63.7485 38.6167 63.8684 38.5003C63.9882 38.3838 64.1321 38.2952 64.2898 38.2406L64.2967 34.1719L66.0542 35.3388L65.7782 39.0237C65.8521 39.2956 65.824 39.5852 65.6993 39.8377C65.5745 40.0902 65.3617 40.288 65.1013 40.3936C64.8409 40.4993 64.5509 40.5054 64.2862 40.4109C64.0216 40.3163 63.8007 40.1277 63.6655 39.8807Z" fill="#9E616A"/>
<path d="M63.8279 21.8784L64.6131 21.1191L65.1898 21.5368C65.1898 21.5368 65.7573 22.2199 66.2113 24.2694C66.6653 26.3189 66.2113 37.591 66.2113 37.591L63.7144 37.2494L64.0549 31.3287L63.0334 26.3189L63.8279 21.8784Z" fill="#FA8A3C"/>
<path d="M64.9873 21.3042L62.342 20.0366L60.5461 18.3654L57.2711 18.3408L56.2146 19.7186L53.4256 20.669L53.8904 30.3169L53.5735 31.0588C53.5735 31.0588 53.7943 31.2589 53.8952 31.3709C53.9961 31.4828 53.7558 32.4197 53.7558 32.4197L53.6203 33.4391L53.9961 33.7084L53.5076 34.2873L53.3863 35.1998C53.3863 35.1998 61.9134 33.0736 63.5246 36.5958C63.6098 36.7819 63.4001 34.9632 63.4001 34.9632L63.1905 33.6317L63.3985 32.4366L63.7154 32.1187L63.1838 31.5854L63.5246 29.0552L64.9873 21.3042Z" fill="#FA8A3C"/>
<path d="M37.3766 65.1162H38.9463L39.6934 59.042H37.3766V65.1162Z" fill="#FFB6B6"/>
<path d="M36.5476 67.844H37.6734L37.8743 66.7778L38.3889 67.844H41.3747C41.5178 67.844 41.6572 67.7981 41.7725 67.7131C41.8877 67.628 41.9729 67.5082 42.0155 67.3711C42.0581 67.234 42.0559 67.0869 42.0092 66.9511C41.9625 66.8154 41.8738 66.6982 41.7561 66.6166L39.3717 64.9647V63.8867L36.8639 64.0369L36.5476 67.844Z" fill="#2F2E41"/>
<path d="M22.1101 61.9911L23.4603 62.7944L27.1914 57.9521L25.1986 56.7666L22.1101 61.9911Z" fill="#FFB6B6"/>
<path d="M20.0099 63.9145L20.9782 64.4906L21.6931 63.6763L21.5936 64.8568L24.1617 66.3847C24.2848 66.4579 24.428 66.4898 24.5705 66.4756C24.7129 66.4614 24.847 66.4019 24.9534 66.3058C25.0597 66.2097 25.1326 66.082 25.1615 65.9414C25.1904 65.8008 25.1737 65.6546 25.1139 65.5241L23.903 62.8831L24.4511 61.956L22.2177 60.8018L20.0099 63.9145Z" fill="#2F2E41"/>
<path d="M38.0771 26.2773L38.8398 31.156L31.5929 31.2516L32.5465 26.5643L38.0771 26.2773Z" fill="#FFB6B6"/>
<path d="M38.8677 31.0942L40.9376 36.1301L41.0884 49.5976L39.3221 62.4562H37.3673L36.5664 49.8072L34.5965 41.1523L32.6537 50.2044L26.6129 59.0647H23.6445L29.1019 49.301L29.7335 38.6651C29.7335 38.6651 29.3398 34.1531 31.3545 31.4907L31.8449 30.0693L38.8677 31.0942Z" fill="#2F2E41"/>
<path d="M28.729 34.7719C28.9308 34.7167 29.118 34.6178 29.2776 34.4822C29.4372 34.3466 29.5652 34.1775 29.6525 33.9869C29.7399 33.7963 29.7846 33.5888 29.7834 33.379C29.7822 33.1692 29.7351 32.9622 29.6456 32.7726L32.7285 22.6892L30.4609 22.2383L27.6412 32.1221C27.3337 32.2942 27.0998 32.5734 26.9838 32.9069C26.8678 33.2405 26.8778 33.6051 27.0119 33.9317C27.146 34.2583 27.3949 34.5242 27.7113 34.6791C28.0278 34.834 28.3899 34.867 28.729 34.7719V34.7719Z" fill="#FFB6B6"/>
<path d="M32.3865 29.8204L37.8045 27.2861C37.9473 27.283 38.0852 27.2331 38.197 27.144C38.3088 27.0548 38.3884 26.9314 38.4236 26.7925C38.6914 25.7288 39.2806 24.5465 38.968 21.7854C38.9064 21.2506 38.7384 20.7335 38.474 20.2649C38.2097 19.7963 37.8543 19.3857 37.429 19.0573C37.0036 18.7289 36.517 18.4894 35.9978 18.353C35.4785 18.2166 34.9373 18.1861 34.4061 18.2632C33.8458 18.3437 33.3088 18.5421 32.8302 18.8454C32.3517 19.1488 31.9425 19.5502 31.6295 20.0234C31.3165 20.4965 31.1068 21.0307 31.014 21.5909C30.9213 22.1511 30.9477 22.7247 31.0915 23.2739C31.7203 25.6695 31.6529 28.2312 31.7246 29.2158C31.7352 29.3582 31.792 29.4932 31.8862 29.6001C31.9805 29.7071 32.107 29.7801 32.2466 29.8081C32.2881 29.8164 32.3303 29.8206 32.3726 29.8206C32.3772 29.8206 32.3818 29.8206 32.3865 29.8204Z" fill="#FA8A3C"/>
<path d="M44.0519 12.8844C44.082 12.9519 44.1174 13.0169 44.1576 13.0788L41.5669 19.173L39.9745 19.369L39.9552 21.8186L42.8079 21.7465C43.0383 21.7407 43.2607 21.66 43.4416 21.5166C43.6224 21.3732 43.7521 21.1748 43.811 20.9512L45.7312 13.6641C46.0032 13.5827 46.2441 13.4202 46.4218 13.1981C46.5995 12.976 46.7055 12.7049 46.7259 12.4209C46.7462 12.1368 46.6799 11.8533 46.5357 11.608C46.3916 11.3627 46.1764 11.1673 45.9187 11.0476C45.6611 10.928 45.3733 10.89 45.0936 10.9385C44.8139 10.9869 44.5555 11.1197 44.3529 11.3191C44.1502 11.5185 44.0129 11.7751 43.9591 12.0547C43.9053 12.3343 43.9377 12.6237 44.0519 12.8845V12.8844Z" fill="#FFB6B6"/>
<path d="M41.3058 18.9558C41.2413 18.8985 41.1653 18.8558 41.0829 18.8307C41.0005 18.8055 40.9137 18.7985 40.8284 18.8101L37.8479 19.2149C37.4074 19.2092 36.9825 19.3789 36.6665 19.687C36.3505 19.995 36.1692 20.4162 36.1623 20.8581C36.1554 21.3001 36.3234 21.7268 36.6296 22.0446C36.9358 22.3624 37.3552 22.5455 37.7957 22.5536L40.7746 23.0353C40.8596 23.0491 40.9466 23.0443 41.0296 23.0213C41.1126 22.9982 41.1897 22.9575 41.2556 22.902C41.3215 22.8464 41.3747 22.7772 41.4116 22.6991C41.4484 22.621 41.4681 22.5359 41.4692 22.4495L41.5078 19.4135C41.5089 19.3272 41.4914 19.2415 41.4566 19.1625C41.4217 19.0835 41.3703 19.013 41.3058 18.9558Z" fill="#FA8A3C"/>
<path d="M32.8665 25.2433C32.9427 25.2031 33.0094 25.1469 33.062 25.0785C33.1146 25.01 33.1518 24.931 33.1712 24.8469L33.8481 21.9071C34.0092 21.4957 34.0012 21.0371 33.8257 20.6317C33.6503 20.2263 33.3218 19.9072 32.9122 19.7444C32.5026 19.5816 32.0454 19.5883 31.6408 19.7631C31.2362 19.938 30.9172 20.2666 30.7537 20.677L29.2508 23.3018C29.2079 23.3767 29.1816 23.46 29.1737 23.546C29.1658 23.6321 29.1765 23.7188 29.205 23.8003C29.2335 23.8818 29.2792 23.9562 29.3389 24.0184C29.3987 24.0806 29.4711 24.1291 29.5513 24.1607L32.3682 25.2709C32.4484 25.3026 32.5344 25.3165 32.6204 25.3117C32.7064 25.3069 32.7903 25.2836 32.8665 25.2433Z" fill="#FA8A3C"/>
<path d="M32.9866 17.2247C31.5017 16.4104 30.956 14.5427 31.7677 13.053C32.5795 11.5634 34.4412 11.0159 35.9261 11.8302C37.411 12.6446 37.9567 14.5123 37.145 16.0019C36.3333 17.4916 34.4715 18.039 32.9866 17.2247Z" fill="#FFB6B6"/>
<path d="M36.5644 13.2926C37.2218 13.2889 37.8792 13.2851 38.5367 13.2814C38.5834 12.8319 38.384 12.3848 38.0935 12.0394C37.8029 11.6941 37.4266 11.434 37.0552 11.1783C36.6781 10.9187 36.2875 10.6532 35.8392 10.5625C35.4634 10.4864 35.075 10.5392 34.6954 10.5921C34.192 10.6624 33.6886 10.7326 33.1852 10.8028C32.6326 10.8799 32.0544 10.9671 31.6056 11.2996C30.9986 11.7492 31.1538 12.787 30.5714 13.2682C28.8124 14.7214 29.5246 15.9906 29.4918 17.3153C31.6173 17.5389 33.7429 17.7626 35.8685 17.9863C36.0991 18.0261 36.3354 18.0192 36.5634 17.966C36.7866 17.8975 36.9913 17.7122 37.0078 17.4786C37.0261 17.2177 36.8198 17.0041 36.6523 16.8038C36.2526 16.307 36.0127 15.7001 35.9644 15.0636C35.916 14.427 36.0613 13.7907 36.3813 13.2389L36.5644 13.2926Z" fill="#2F2E41"/>
<path d="M59.3673 17.3696C59.38 17.3416 59.3926 17.3134 59.4053 17.2852C59.4004 17.2853 59.3956 17.286 59.3907 17.2861L59.3673 17.3696Z" fill="#2F2E41"/>
<path d="M61.6069 11.824C61.4692 11.6937 61.2902 11.6161 61.1013 11.6047C60.9137 11.6108 60.7235 11.7807 60.7624 11.9649C60.4179 11.353 59.8696 10.8824 59.2137 10.6357C58.5579 10.3889 57.8363 10.3818 57.1757 10.6157C56.7096 10.7806 56.2525 11.1107 56.1454 11.5948C56.135 11.7219 56.0972 11.8452 56.0347 11.9562C55.9805 12.0155 55.9102 12.0577 55.8324 12.0775C55.7547 12.0972 55.6728 12.0938 55.597 12.0674L55.5924 12.0661C55.5664 12.0572 55.5384 12.0563 55.512 12.0636C55.4855 12.0708 55.4618 12.0859 55.444 12.1068C55.4262 12.1277 55.415 12.1535 55.4119 12.1808C55.4089 12.2082 55.4141 12.2358 55.4268 12.2601L55.5587 12.5069C55.3924 12.5441 55.2197 12.5404 55.0552 12.4962C55.0278 12.489 54.999 12.4904 54.9725 12.5004C54.946 12.5103 54.9233 12.5282 54.9074 12.5516C54.8914 12.575 54.8831 12.6028 54.8835 12.6311C54.884 12.6595 54.8931 12.687 54.9098 12.7099C55.129 13.0107 55.4151 13.2561 55.7455 13.4264C56.0758 13.5968 56.4412 13.6874 56.8126 13.6911C57.3396 13.6879 57.872 13.5057 58.3848 13.6273C58.5832 13.6743 58.7686 13.7653 58.9274 13.8936C59.0862 14.0219 59.2143 14.1842 59.3024 14.3686C59.3905 14.5531 59.4363 14.7549 59.4364 14.9595C59.4366 15.164 59.3911 15.3659 59.3034 15.5505C59.4609 15.3776 59.7655 15.4186 59.9266 15.5881C60.0008 15.6788 60.0557 15.7839 60.0878 15.8967C60.1199 16.0096 60.1286 16.1279 60.1133 16.2442C60.0703 16.6007 59.9648 16.9466 59.8017 17.2662C60.4248 17.247 61.0271 17.0363 61.5271 16.6627C62.0271 16.2892 62.4008 15.7706 62.5976 15.1772C62.7945 14.5837 62.805 13.944 62.6279 13.3443C62.4507 12.7447 62.0943 12.214 61.6069 11.824V11.824Z" fill="#2F2E41"/>
<path d="M3.98402 67.9477H94.7642C94.7975 67.9476 94.8294 67.9343 94.8529 67.9106C94.8764 67.887 94.8896 67.8549 94.8896 67.8215C94.8896 67.7881 94.8764 67.7561 94.8529 67.7324C94.8294 67.7087 94.7975 67.6954 94.7642 67.6953H3.98402C3.96748 67.6953 3.95108 67.6985 3.93578 67.7048C3.92047 67.7111 3.90656 67.7204 3.89484 67.7321C3.88313 67.7439 3.87383 67.7578 3.86749 67.7731C3.86114 67.7885 3.85787 67.8049 3.85787 67.8215C3.85787 67.8381 3.86114 67.8546 3.86749 67.8699C3.87383 67.8852 3.88313 67.8991 3.89484 67.9109C3.90656 67.9226 3.92047 67.9319 3.93578 67.9382C3.95108 67.9445 3.96748 67.9477 3.98402 67.9477Z" fill="#CCCCCC"/>
<path d="M73.0932 1.29889C75.7044 0.944808 78.6855 2.3607 79.3623 4.91542C79.5328 4.46119 79.8429 4.07311 80.2477 3.80726C80.6525 3.5414 81.1311 3.41153 81.6143 3.43641C82.0975 3.46128 82.5603 3.63961 82.9359 3.94564C83.3114 4.25167 83.5803 4.66955 83.7036 5.1389L83.4047 5.3537C77.8089 6.56766 72.0164 6.54139 66.4319 5.27671C68.2482 3.3617 70.482 1.65297 73.0932 1.29889Z" fill="#F0F0F0"/>
<path d="M84.2914 8.50592C86.9026 8.15184 89.8837 9.56774 90.5605 12.1224C90.7311 11.6682 91.0412 11.2801 91.446 11.0143C91.8508 10.7484 92.3294 10.6186 92.8126 10.6434C93.2958 10.6683 93.7586 10.8466 94.1341 11.1527C94.5097 11.4587 94.7785 11.8766 94.9019 12.3459L94.6029 12.5607C89.0072 13.7747 83.2147 13.7484 77.6301 12.4837C79.4464 10.5687 81.6802 8.86 84.2914 8.50592Z" fill="#F0F0F0"/>
</g>
<defs>
<clipPath id="clip0_314:6942">
<rect width="94.6863" height="67.9063" fill="white" transform="matrix(-1 0 0 1 94.9019 0.0410156)"/>
</clipPath>
</defs>
</svg>
