<svg width="16" height="15" viewBox="0 0 16 15" fill="none" xmlns="http://www.w3.org/2000/svg">
<path d="M14.4 0H13.6V10.2632H14.4C14.8243 10.2632 15.2313 10.0968 15.5314 9.8007C15.8314 9.50459 16 9.10297 16 8.68421V1.57895C16 1.16018 15.8314 0.758573 15.5314 0.462463C15.2313 0.166353 14.8243 0 14.4 0ZM1.6 10.2632H7.2L6.3024 12.9221C6.22231 13.1594 6.20049 13.4121 6.23874 13.6594C6.27699 13.9066 6.37422 14.1414 6.52242 14.3443C6.67061 14.5472 6.86554 14.7124 7.09113 14.8264C7.31673 14.9405 7.56654 14.9999 7.82 15H8L12 10.7068V0H3.2L0.0504 6.82816L0 7.05947V8.68421C0 9.10297 0.168571 9.50459 0.468629 9.8007C0.768687 10.0968 1.17565 10.2632 1.6 10.2632Z" fill="#062540"/>
</svg>
